M48
; DRILL file KiCad 10.0.4 date 2026-09-27T17:38:27
; FORMAT={-:-/ absolute / metric / decimal}
; #@! TF.CreationDate,2026-09-27T17:38:27+01:00
; #@! TF.GenerationSoftware,Kicad,Pcbnew,10.0.4
; #@! TF.FileFunction,Plated,1,2,PTH
FMAT,2
METRIC
; #@! TA.AperFunction,Plated,PTH,ComponentDrill
T1C0.700
; #@! TA.AperFunction,Plated,PTH,ComponentDrill
T2C0.750
; #@! TA.AperFunction,Plated,PTH,ViaDrill
T3C0.762
; #@! TA.AperFunction,Plated,PTH,ComponentDrill
T4C0.800
; #@! TA.AperFunction,Plated,PTH,ViaDrill
T5C0.889
; #@! TA.AperFunction,Plated,PTH,ComponentDrill
T6C1.000
; #@! TA.AperFunction,Plated,PTH,ViaDrill
T7C1.001
; #@! TA.AperFunction,Plated,PTH,ViaDrill
T8C1.016
; #@! TA.AperFunction,Plated,PTH,ComponentDrill
T9C1.016
; #@! TA.AperFunction,Plated,PTH,ComponentDrill
T10C1.020
; #@! TA.AperFunction,Plated,PTH,ComponentDrill
T11C1.100
; #@! TA.AperFunction,Plated,PTH,ComponentDrill
T12C1.200
; #@! TA.AperFunction,Plated,PTH,ComponentDrill
T13C1.220
; #@! TA.AperFunction,Plated,PTH,ComponentDrill
T14C1.400
; #@! TA.AperFunction,Plated,PTH,ComponentDrill
T15C1.935
; #@! TA.AperFunction,Plated,PTH,ComponentDrill
T16C3.000
; #@! TA.AperFunction,Plated,PTH,ComponentDrill
T17C3.175
%
G90
G05
T1
X47.32Y-63.526
X54.393Y-68.62
X54.393Y-71.07
X54.393Y-73.56
X54.393Y-83.71
X54.393Y-86.26
X54.393Y-88.78
X54.393Y-91.26
X54.393Y-96.46
X54.393Y-98.96
X54.393Y-101.5
X54.393Y-104.0
X54.393Y-106.1
X54.393Y-109.1
X60.02Y-63.526
X62.766Y-61.11
X67.093Y-68.62
X67.093Y-71.07
X67.093Y-73.56
X67.093Y-83.71
X67.093Y-86.26
X67.093Y-88.78
X67.093Y-91.26
X67.093Y-96.46
X67.093Y-98.96
X67.093Y-101.5
X67.093Y-104.0
X67.093Y-106.1
X67.093Y-109.1
X75.466Y-61.11
X78.013Y-60.94
X79.713Y-96.57
X79.793Y-71.01
X79.793Y-73.54
X79.793Y-76.08
X79.793Y-83.71
X79.793Y-86.25
X79.793Y-91.32
X79.882Y-111.1
X90.713Y-60.94
X92.413Y-96.57
X92.493Y-71.01
X92.493Y-73.54
X92.493Y-76.08
X92.493Y-83.71
X92.493Y-86.25
X92.493Y-91.32
X92.582Y-111.1
X94.325Y-39.43
X94.325Y-51.83
X95.648Y-111.7
X95.723Y-86.23
X95.726Y-74.74
X95.733Y-93.78
X95.738Y-91.24
X96.821Y-39.51
X96.821Y-51.91
X107.003Y-39.51
X107.003Y-51.91
X108.348Y-111.7
X108.423Y-86.23
X108.426Y-74.74
X108.433Y-93.78
X108.438Y-91.24
X112.407Y-49.59
X112.407Y-52.13
X112.41Y-62.28
X112.42Y-59.76
X112.423Y-57.2
X112.436Y-47.05
X112.439Y-54.7
X125.107Y-49.59
X125.107Y-52.13
X125.11Y-62.28
X125.12Y-59.76
X125.123Y-57.2
X125.136Y-47.05
X125.139Y-54.7
X128.753Y-96.32
X128.753Y-98.87
X128.753Y-101.4
X128.753Y-103.9
X128.753Y-106.5
X128.753Y-109.0
X128.753Y-111.6
X128.753Y-114.1
X128.753Y-116.6
X128.753Y-119.2
X138.915Y-133.3
X138.966Y-130.7
X141.453Y-96.32
X141.453Y-98.87
X141.453Y-101.4
X141.453Y-103.9
X141.453Y-106.5
X141.453Y-109.0
X141.453Y-111.6
X141.453Y-114.1
X141.453Y-116.6
X141.453Y-119.2
X145.253Y-97.66
X145.253Y-100.2
X145.253Y-102.7
X145.253Y-105.4
X145.253Y-107.8
X145.253Y-110.3
X150.219Y-43.05
X150.219Y-55.75
X151.615Y-133.3
X151.666Y-130.7
X157.953Y-97.66
X157.953Y-100.2
X157.953Y-102.7
X157.953Y-105.4
X157.953Y-107.8
X157.953Y-110.3
X210.032Y-125.4
X210.032Y-128.0
X210.18Y-80.4
X210.18Y-82.91
X210.18Y-85.41
X210.18Y-87.87
X222.732Y-125.4
X222.732Y-128.0
X222.88Y-80.4
X222.88Y-82.91
X222.88Y-85.41
X222.88Y-87.87
X225.278Y-123.4
X225.303Y-126.0
X225.451Y-88.71
X225.451Y-93.79
X237.978Y-123.4
X238.003Y-126.0
X238.151Y-88.71
X238.151Y-93.79
X240.671Y-102.5
X240.691Y-83.63
X240.691Y-88.71
X240.691Y-91.25
X240.691Y-93.79
X253.371Y-102.5
X253.391Y-83.63
X253.391Y-88.71
X253.391Y-91.25
X253.391Y-93.79
T2
X53.765Y-66.11
X56.381Y-66.11
X59.023Y-66.11
X62.573Y-66.06
X65.215Y-66.06
X67.831Y-66.06
X79.714Y-81.12
X82.33Y-81.12
X84.972Y-81.12
X95.8Y-81.188
X98.345Y-78.572
X98.345Y-81.188
X98.345Y-83.83
X105.727Y-78.5
X105.727Y-81.142
X105.727Y-83.758
X108.272Y-81.142
X164.42Y-50.092
X164.42Y-52.708
X164.42Y-55.35
X211.88Y-134.2
X214.496Y-134.2
X217.138Y-134.2
X238.074Y-111.342
X238.074Y-113.958
X238.074Y-116.6
X243.103Y-111.3
X243.103Y-113.942
X243.103Y-116.558
T3
X49.279Y-65.52
X51.108Y-62.33
X52.0Y-94.01
X61.993Y-94.701
X67.764Y-147.97
X78.025Y-147.976
X81.784Y-62.276
X87.99Y-147.866
X98.167Y-119.884
X98.393Y-147.814
X100.75Y-119.939
X102.714Y-118.664
X102.765Y-105.329
X104.525Y-118.062
X105.407Y-119.92
X108.327Y-147.84
X108.403Y-121.687
X108.404Y-117.361
X114.093Y-121.154
X118.614Y-147.773
X119.78Y-90.04
X128.774Y-147.722
X133.346Y-37.384
X138.865Y-140.22
X200.402Y-51.888
X224.253Y-151.481
X243.9Y-29.26
T4
X47.224Y-61.01
X49.82Y-125.7
X49.82Y-128.24
X49.82Y-130.78
X49.82Y-133.32
X49.82Y-135.86
X49.82Y-138.4
X49.82Y-140.94
X49.82Y-143.48
X49.831Y-121.3
X54.393Y-93.95
X57.44Y-125.7
X57.44Y-128.24
X57.44Y-130.78
X57.44Y-133.32
X57.44Y-135.86
X57.44Y-138.4
X57.44Y-140.94
X57.44Y-143.48
X59.924Y-61.01
X59.991Y-147.9
X59.992Y-125.6
X59.992Y-128.14
X59.992Y-130.68
X59.992Y-133.22
X59.992Y-135.76
X59.992Y-138.3
X59.992Y-140.84
X59.992Y-143.38
X62.531Y-121.3
X67.093Y-93.95
X67.612Y-125.6
X67.612Y-128.14
X67.612Y-130.68
X67.612Y-133.22
X67.612Y-135.76
X67.612Y-138.3
X67.612Y-140.84
X67.612Y-143.38
X69.643Y-71.01
X69.643Y-73.55
X69.643Y-76.09
X69.643Y-78.63
X69.643Y-81.17
X69.643Y-83.71
X69.643Y-86.25
X69.643Y-88.79
X69.643Y-91.33
X70.131Y-121.2
X70.186Y-125.6
X70.186Y-128.14
X70.186Y-130.68
X70.186Y-133.22
X70.186Y-135.76
X70.186Y-138.3
X70.186Y-140.84
X70.186Y-143.38
X72.691Y-147.9
X77.263Y-71.01
X77.263Y-73.55
X77.263Y-76.09
X77.263Y-78.63
X77.263Y-81.17
X77.263Y-83.71
X77.263Y-86.25
X77.263Y-88.79
X77.263Y-91.33
X77.806Y-125.6
X77.806Y-128.14
X77.806Y-130.68
X77.806Y-133.22
X77.806Y-135.76
X77.806Y-138.3
X77.806Y-140.84
X77.806Y-143.38
X78.013Y-63.46
X78.013Y-66.01
X78.013Y-68.46
X79.676Y-93.899
X79.793Y-78.71
X79.793Y-88.86
X79.86Y-113.7
X79.905Y-108.4
X80.371Y-125.6
X80.371Y-128.14
X80.371Y-130.68
X80.371Y-133.22
X80.371Y-135.76
X80.371Y-138.3
X80.371Y-140.84
X80.371Y-143.38
X80.43Y-148.0
X82.831Y-121.2
X87.991Y-125.6
X87.991Y-128.14
X87.991Y-130.68
X87.991Y-133.22
X87.991Y-135.76
X87.991Y-138.3
X87.991Y-140.84
X87.991Y-143.38
X90.508Y-121.2
X90.564Y-125.6
X90.564Y-128.14
X90.564Y-130.68
X90.564Y-133.22
X90.564Y-135.76
X90.564Y-138.3
X90.564Y-140.84
X90.564Y-143.38
X90.713Y-63.46
X90.713Y-66.01
X90.713Y-68.46
X92.376Y-93.899
X92.493Y-78.71
X92.493Y-88.86
X92.56Y-113.7
X92.605Y-108.4
X93.13Y-148.0
X95.648Y-106.5
X95.665Y-104.0
X95.673Y-101.4
X95.676Y-109.1
X95.697Y-98.93
X95.713Y-96.33
X95.723Y-88.71
X98.184Y-125.6
X98.184Y-128.14
X98.184Y-130.68
X98.184Y-133.22
X98.184Y-135.76
X98.184Y-138.3
X98.184Y-140.84
X98.184Y-143.38
X99.35Y-39.51
X99.35Y-51.91
X100.791Y-125.6
X100.791Y-128.14
X100.791Y-130.68
X100.791Y-133.22
X100.791Y-135.76
X100.791Y-138.3
X100.791Y-140.84
X100.791Y-143.38
X100.807Y-147.8
X101.895Y-39.51
X101.895Y-51.91
X103.208Y-121.2
X104.441Y-39.52
X104.441Y-51.92
X108.348Y-106.5
X108.365Y-104.0
X108.373Y-101.4
X108.376Y-109.1
X108.397Y-98.93
X108.411Y-125.6
X108.411Y-128.14
X108.411Y-130.68
X108.411Y-133.22
X108.411Y-135.76
X108.411Y-138.3
X108.411Y-140.84
X108.411Y-143.38
X108.413Y-96.33
X108.423Y-88.71
X109.693Y-39.51
X109.693Y-51.91
X110.849Y-121.2
X110.982Y-125.6
X110.982Y-128.14
X110.982Y-130.68
X110.982Y-133.22
X110.982Y-135.76
X110.982Y-138.3
X110.982Y-140.84
X110.982Y-143.38
X111.045Y-65.93
X111.045Y-68.47
X111.045Y-71.01
X111.045Y-73.55
X111.045Y-76.09
X111.045Y-78.63
X111.045Y-81.17
X111.045Y-83.71
X111.045Y-86.25
X111.045Y-88.79
X111.045Y-91.33
X111.045Y-93.87
X111.045Y-96.41
X111.045Y-98.95
X111.045Y-101.49
X111.045Y-104.03
X111.045Y-106.57
X111.045Y-109.11
X111.045Y-111.65
X111.045Y-114.19
X112.426Y-41.96
X112.432Y-44.53
X113.507Y-147.8
X118.602Y-125.6
X118.602Y-128.14
X118.602Y-130.68
X118.602Y-133.22
X118.602Y-135.76
X118.602Y-138.3
X118.602Y-140.84
X118.602Y-143.38
X121.023Y-147.8
X121.191Y-125.6
X121.191Y-128.14
X121.191Y-130.68
X121.191Y-133.22
X121.191Y-135.76
X121.191Y-138.3
X121.191Y-140.84
X121.191Y-143.38
X123.549Y-121.2
X125.126Y-41.96
X125.132Y-44.53
X126.285Y-65.93
X126.285Y-68.47
X126.285Y-71.01
X126.285Y-73.55
X126.285Y-76.09
X126.285Y-78.63
X126.285Y-81.17
X126.285Y-83.71
X126.285Y-86.25
X126.285Y-88.79
X126.285Y-91.33
X126.285Y-93.87
X126.285Y-96.41
X126.285Y-98.95
X126.285Y-101.49
X126.285Y-104.03
X126.285Y-106.57
X126.285Y-109.11
X126.285Y-111.65
X126.285Y-114.19
X128.811Y-125.6
X128.811Y-128.14
X128.811Y-130.68
X128.811Y-133.22
X128.811Y-135.76
X128.811Y-138.3
X128.811Y-140.84
X128.811Y-143.38
X133.723Y-147.8
X137.753Y-43.12
X137.753Y-45.66
X137.753Y-48.2
X137.753Y-50.74
X137.753Y-53.28
X137.753Y-55.82
X137.753Y-58.36
X137.753Y-60.9
X138.953Y-128.1
X138.975Y-125.5
X139.509Y-68.49
X139.509Y-71.03
X139.509Y-73.57
X139.509Y-76.11
X139.509Y-78.65
X139.509Y-81.19
X139.509Y-83.73
X139.509Y-86.27
X145.373Y-43.12
X145.373Y-45.66
X145.373Y-48.2
X145.373Y-50.74
X145.373Y-53.28
X145.373Y-55.82
X145.373Y-58.36
X145.373Y-60.9
X146.468Y-119.9
X147.129Y-68.49
X147.129Y-71.03
X147.129Y-73.57
X147.129Y-76.11
X147.129Y-78.65
X147.129Y-81.19
X147.129Y-83.73
X147.129Y-86.27
X151.653Y-128.1
X151.675Y-125.5
X152.701Y-43.07
X152.701Y-45.61
X152.701Y-48.15
X152.701Y-50.69
X152.701Y-53.23
X152.701Y-55.77
X152.701Y-58.31
X152.701Y-60.85
X152.844Y-147.8
X152.955Y-68.47
X152.955Y-71.01
X152.955Y-73.55
X152.955Y-76.09
X152.955Y-78.63
X152.955Y-81.17
X152.955Y-83.71
X155.241Y-125.6
X155.241Y-128.14
X155.241Y-130.68
X155.241Y-133.22
X155.241Y-135.76
X155.241Y-138.3
X155.241Y-140.84
X155.241Y-143.38
X159.168Y-119.9
X160.321Y-43.07
X160.321Y-45.61
X160.321Y-48.15
X160.321Y-50.69
X160.321Y-53.23
X160.321Y-55.77
X160.321Y-58.31
X160.321Y-60.85
X160.575Y-68.47
X160.575Y-71.01
X160.575Y-73.55
X160.575Y-76.09
X160.575Y-78.63
X160.575Y-81.17
X160.575Y-83.71
X160.575Y-97.68
X160.575Y-100.22
X160.575Y-102.76
X160.575Y-105.3
X160.575Y-107.84
X160.575Y-110.38
X160.575Y-112.92
X160.575Y-115.46
X161.945Y-119.7
X162.861Y-125.6
X162.861Y-128.14
X162.861Y-130.68
X162.861Y-133.22
X162.861Y-135.76
X162.861Y-138.3
X162.861Y-140.84
X162.861Y-143.38
X163.221Y-39.43
X165.544Y-147.8
X165.655Y-125.6
X165.655Y-128.14
X165.655Y-130.68
X165.655Y-133.22
X165.655Y-135.76
X165.655Y-138.3
X165.655Y-140.84
X165.655Y-143.38
X168.16Y-147.8
X168.195Y-43.07
X168.195Y-45.61
X168.195Y-48.15
X168.195Y-50.69
X168.195Y-53.23
X168.195Y-55.77
X168.195Y-58.31
X168.195Y-60.85
X168.195Y-68.47
X168.195Y-71.01
X168.195Y-73.55
X168.195Y-76.09
X168.195Y-78.63
X168.195Y-81.17
X168.195Y-83.71
X168.195Y-97.68
X168.195Y-100.22
X168.195Y-102.76
X168.195Y-105.3
X168.195Y-107.84
X168.195Y-110.38
X168.195Y-112.92
X168.195Y-115.46
X170.735Y-97.68
X170.735Y-100.22
X170.735Y-102.76
X170.735Y-105.3
X170.735Y-107.84
X170.735Y-110.38
X170.735Y-112.92
X170.735Y-115.46
X173.275Y-125.6
X173.275Y-128.14
X173.275Y-130.68
X173.275Y-133.22
X173.275Y-135.76
X173.275Y-138.3
X173.275Y-140.84
X173.275Y-143.38
X174.645Y-119.7
X175.815Y-43.07
X175.815Y-45.61
X175.815Y-48.15
X175.815Y-50.69
X175.815Y-53.23
X175.815Y-55.77
X175.815Y-58.31
X175.815Y-60.85
X175.815Y-68.47
X175.815Y-71.01
X175.815Y-73.55
X175.815Y-76.09
X175.815Y-78.63
X175.815Y-81.17
X175.815Y-83.71
X175.815Y-125.6
X175.815Y-128.14
X175.815Y-130.68
X175.815Y-133.22
X175.815Y-135.76
X175.815Y-138.3
X175.815Y-140.84
X175.815Y-143.38
X175.921Y-39.43
X176.993Y-119.7
X178.355Y-97.68
X178.355Y-100.22
X178.355Y-102.76
X178.355Y-105.3
X178.355Y-107.84
X178.355Y-110.38
X178.355Y-112.92
X178.355Y-115.46
X180.86Y-147.8
X180.895Y-97.68
X180.895Y-100.22
X180.895Y-102.76
X180.895Y-105.3
X180.895Y-107.84
X180.895Y-110.38
X180.895Y-112.92
X180.895Y-115.46
X183.422Y-147.8
X183.435Y-43.07
X183.435Y-45.61
X183.435Y-48.15
X183.435Y-50.69
X183.435Y-53.23
X183.435Y-55.77
X183.435Y-58.31
X183.435Y-60.85
X183.435Y-63.39
X183.435Y-65.93
X183.435Y-68.47
X183.435Y-71.01
X183.435Y-73.55
X183.435Y-76.09
X183.435Y-78.63
X183.435Y-81.17
X183.435Y-83.71
X183.435Y-86.25
X183.435Y-88.79
X183.435Y-91.33
X183.435Y-125.6
X183.435Y-128.14
X183.435Y-130.68
X183.435Y-133.22
X183.435Y-135.76
X183.435Y-138.3
X183.435Y-140.84
X183.435Y-143.38
X185.975Y-125.6
X185.975Y-128.14
X185.975Y-130.68
X185.975Y-133.22
X185.975Y-135.76
X185.975Y-138.3
X185.975Y-140.84
X185.975Y-143.38
X188.515Y-97.68
X188.515Y-100.22
X188.515Y-102.76
X188.515Y-105.3
X188.515Y-107.84
X188.515Y-110.38
X188.515Y-112.92
X188.515Y-115.46
X189.693Y-119.7
X191.055Y-97.68
X191.055Y-100.22
X191.055Y-102.76
X191.055Y-105.3
X191.055Y-107.84
X191.055Y-110.38
X191.055Y-112.92
X191.055Y-115.46
X192.259Y-119.7
X193.595Y-125.6
X193.595Y-128.14
X193.595Y-130.68
X193.595Y-133.22
X193.595Y-135.76
X193.595Y-138.3
X193.595Y-140.84
X193.595Y-143.38
X196.122Y-147.8
X198.675Y-43.07
X198.675Y-45.61
X198.675Y-48.15
X198.675Y-50.69
X198.675Y-53.23
X198.675Y-55.77
X198.675Y-58.31
X198.675Y-60.85
X198.675Y-63.39
X198.675Y-65.93
X198.675Y-68.47
X198.675Y-71.01
X198.675Y-73.55
X198.675Y-76.09
X198.675Y-78.63
X198.675Y-81.17
X198.675Y-83.71
X198.675Y-86.25
X198.675Y-88.79
X198.675Y-91.33
X198.675Y-97.68
X198.675Y-100.22
X198.675Y-102.76
X198.675Y-105.3
X198.675Y-107.84
X198.675Y-110.38
X198.675Y-112.92
X198.675Y-115.46
X198.748Y-147.8
X204.959Y-119.7
X206.295Y-43.07
X206.295Y-45.61
X206.295Y-48.15
X206.295Y-50.69
X206.295Y-53.23
X206.295Y-55.77
X206.295Y-58.31
X206.295Y-60.85
X206.295Y-63.39
X206.295Y-65.93
X206.295Y-68.47
X206.295Y-71.01
X206.295Y-73.55
X206.295Y-76.09
X209.917Y-130.5
X210.16Y-90.43
X210.16Y-93.06
X210.16Y-95.6
X210.16Y-98.17
X210.16Y-100.7
X210.16Y-103.3
X210.16Y-105.8
X210.16Y-108.3
X211.448Y-147.8
X212.137Y-39.26
X221.535Y-43.07
X221.535Y-45.61
X221.535Y-48.15
X221.535Y-50.69
X221.535Y-53.23
X221.535Y-55.77
X221.535Y-58.31
X221.535Y-60.85
X221.535Y-63.39
X221.535Y-65.93
X221.535Y-68.47
X221.535Y-71.01
X221.535Y-73.55
X221.535Y-76.09
X222.617Y-130.5
X222.86Y-90.43
X222.86Y-93.06
X222.86Y-95.6
X222.86Y-98.17
X222.86Y-100.7
X222.86Y-103.3
X222.86Y-105.8
X222.86Y-108.3
X224.837Y-39.26
X225.246Y-128.5
X225.345Y-120.3
X225.38Y-102.5
X225.392Y-86.13
X225.392Y-91.21
X225.451Y-83.63
X237.946Y-128.5
X238.045Y-120.3
X238.08Y-102.5
X238.092Y-86.13
X238.092Y-91.21
X238.151Y-83.63
X240.691Y-81.09
X240.691Y-86.17
X253.391Y-81.09
X253.391Y-86.17
T5
X46.783Y-82.19
X46.783Y-103.018
X46.783Y-114.956
X55.673Y-61.108
X55.673Y-63.648
X57.705Y-105.304
X57.705Y-113.686
X58.213Y-76.856
X58.213Y-87.524
X59.991Y-71.014
X63.801Y-100.478
X64.563Y-74.824
X65.325Y-113.686
X66.595Y-63.394
X68.881Y-61.108
X70.405Y-67.966
X71.675Y-64.664
X71.929Y-72.538
X72.183Y-93.874
X72.437Y-90.064
X74.723Y-72.538
X74.723Y-98.954
X76.501Y-96.922
X82.343Y-67.966
X82.597Y-78.38
X82.851Y-88.286
X82.851Y-114.956
X83.613Y-112.924
X86.661Y-112.924
X86.915Y-61.108
X86.915Y-110.384
X87.423Y-69.998
X87.423Y-87.524
X87.423Y-96.414
X87.677Y-75.078
X89.963Y-78.634
X90.369Y-116.734
X93.011Y-102.764
X94.535Y-45.614
X98.853Y-98.954
X99.361Y-106.574
X100.631Y-92.604
X100.885Y-45.868
X101.393Y-97.684
X101.393Y-100.224
X101.393Y-102.764
X102.663Y-59.838
X102.663Y-68.728
X103.171Y-131.974
X103.984Y-99.665
X104.441Y-95.144
X104.441Y-111.654
X105.203Y-97.684
X106.473Y-53.894
X109.521Y-57.806
X110.283Y-63.394
X112.823Y-134.514
X114.093Y-76.094
X114.093Y-137.054
X114.093Y-140.864
X114.855Y-86.254
X115.363Y-91.334
X116.125Y-39.264
X116.125Y-82.444
X117.141Y-88.794
X117.903Y-79.904
X117.903Y-98.954
X118.589Y-112.238
X119.173Y-101.494
X119.173Y-104.034
X119.173Y-119.274
X119.935Y-31.136
X119.935Y-96.414
X120.443Y-114.194
X121.09Y-94.43
X121.205Y-67.204
X121.205Y-71.014
X121.205Y-73.554
X121.713Y-58.314
X121.713Y-91.842
X121.713Y-101.494
X121.713Y-107.844
X122.475Y-43.074
X123.237Y-136.8
X124.253Y-82.444
X124.253Y-117.242
X124.253Y-125.624
X124.507Y-131.212
X126.285Y-118.08
X127.047Y-55.774
X127.301Y-53.234
X129.333Y-92.604
X131.365Y-128.164
X132.127Y-93.366
X132.127Y-125.37
X132.127Y-134.26
X132.483Y-66.442
X132.559Y-115.464
X132.635Y-95.779
X132.889Y-98.446
X133.143Y-60.854
X133.143Y-86.0
X133.143Y-105.05
X133.143Y-130.704
X133.397Y-123.592
X133.651Y-73.554
X133.905Y-68.474
X133.905Y-70.963
X133.905Y-83.714
X133.905Y-119.274
X134.413Y-46.884
X135.175Y-141.88
X135.683Y-69.744
X135.683Y-92.604
X135.937Y-133.244
X136.445Y-65.934
X136.445Y-90.064
X136.953Y-39.264
X136.953Y-120.036
X137.207Y-73.554
X137.207Y-76.094
X137.715Y-63.394
X137.715Y-91.842
X138.223Y-112.924
X138.477Y-65.934
X138.985Y-135.53
X140.255Y-89.302
X140.763Y-52.726
X141.017Y-37.486
X141.017Y-43.074
X141.271Y-65.426
X141.525Y-55.774
X141.525Y-145.69
X141.525Y-149.932
X141.779Y-121.814
X142.033Y-58.314
X142.744Y-48.23
X143.303Y-38.502
X143.303Y-54.504
X143.43Y-77.364
X143.557Y-65.934
X143.557Y-79.904
X143.557Y-88.032
X143.811Y-96.16
X144.065Y-119.782
X144.065Y-121.814
X144.065Y-149.932
X145.081Y-40.534
X145.843Y-130.704
X145.843Y-136.292
X146.605Y-123.592
X147.113Y-151.735
X147.875Y-37.994
X147.875Y-131.974
X148.383Y-102.764
X148.383Y-105.304
X148.383Y-108.352
X148.383Y-134.768
X149.145Y-82.444
X149.145Y-88.032
X149.653Y-123.084
X150.364Y-96.922
X150.415Y-36.216
X150.415Y-51.964
X150.415Y-106.32
X151.583Y-104.034
X152.193Y-63.394
X152.193Y-123.084
X152.955Y-86.762
X152.955Y-101.494
X152.955Y-109.114
X153.463Y-34.184
X153.463Y-38.502
X153.463Y-65.934
X154.225Y-110.892
X154.733Y-115.464
X154.86Y-85.492
X155.495Y-31.644
X155.495Y-79.904
X155.495Y-88.286
X155.622Y-98.192
X155.749Y-51.202
X156.003Y-34.184
X156.003Y-112.924
X156.054Y-77.364
X156.257Y-72.284
X156.765Y-29.104
X156.765Y-44.344
X156.765Y-74.824
X157.273Y-41.804
X157.273Y-116.734
X160.575Y-86.254
X162.353Y-62.124
X162.607Y-72.284
X163.877Y-101.494
X164.385Y-67.712
X164.385Y-110.892
X165.147Y-43.074
X165.147Y-58.314
X165.401Y-76.094
X165.655Y-119.782
X167.687Y-86.254
X168.703Y-121.56
X168.83Y-35.886
X169.465Y-128.672
X169.973Y-77.364
X169.973Y-124.862
X170.735Y-122.322
X170.989Y-73.554
X171.091Y-69.744
X171.624Y-71.776
X171.675Y-58.314
X171.675Y-83.714
X172.005Y-60.854
X172.157Y-54.504
X172.259Y-46.884
X172.259Y-80.412
X172.589Y-50.059
X172.767Y-91.334
X173.275Y-34.768
X174.799Y-66.544
X174.799Y-91.842
X175.053Y-114.194
X175.815Y-86.762
X175.815Y-116.734
X177.06Y-34.794
X177.593Y-123.592
X178.355Y-127.95
X179.625Y-34.844
X179.625Y-79.142
X179.625Y-130.704
X180.387Y-65.934
X180.387Y-73.554
X180.387Y-83.714
X180.387Y-92.604
X180.895Y-71.014
X180.895Y-76.094
X180.895Y-81.682
X182.063Y-34.844
X184.654Y-34.768
X185.213Y-103.78
X185.696Y-71.014
X185.873Y-58.314
X185.975Y-81.682
X185.975Y-93.112
X186.229Y-73.554
X186.229Y-79.142
X186.483Y-119.782
X186.737Y-106.32
X187.118Y-34.794
X187.118Y-41.017
X187.499Y-46.884
X188.007Y-62.632
X188.261Y-65.172
X188.261Y-66.95
X188.261Y-75.586
X188.515Y-55.012
X188.515Y-60.092
X189.023Y-79.904
X189.023Y-85.492
X189.277Y-51.964
X189.531Y-71.522
X189.785Y-34.794
X189.785Y-125.624
X190.547Y-93.112
X190.801Y-87.524
X191.309Y-74.824
X191.563Y-83.206
X191.817Y-39.264
X191.817Y-57.044
X192.325Y-34.844
X192.325Y-41.042
X192.325Y-151.532
X193.087Y-87.27
X194.103Y-35.962
X194.357Y-43.074
X194.357Y-95.652
X194.357Y-98.954
X194.611Y-84.984
X194.865Y-88.032
X195.119Y-64.054
X195.221Y-74.824
X195.373Y-103.78
X196.135Y-39.264
X196.135Y-51.964
X196.389Y-49.424
X196.897Y-34.946
X196.897Y-57.044
X198.167Y-36.724
X198.167Y-93.874
X198.675Y-118.004
X199.945Y-34.946
X200.707Y-87.27
X200.707Y-94.382
X200.707Y-124.862
X201.215Y-84.222
X201.215Y-121.052
X201.977Y-79.904
X202.485Y-35.454
X202.485Y-91.842
X203.247Y-88.616
X203.755Y-94.382
X203.755Y-129.434
X203.755Y-133.498
X204.009Y-43.074
X204.009Y-68.982
X205.533Y-37.486
X205.787Y-35.454
X206.295Y-80.412
X206.295Y-84.222
X206.295Y-122.83
X206.422Y-127.402
X206.549Y-97.684
X206.549Y-134.26
X206.549Y-136.8
X206.803Y-115.972
X207.057Y-119.02
X207.565Y-35.454
X209.089Y-45.614
X209.089Y-68.474
X209.597Y-77.872
X209.597Y-110.892
X209.851Y-55.774
X210.105Y-35.454
X210.359Y-53.082
X211.883Y-144.42
X212.645Y-35.454
X212.645Y-124.1
X213.153Y-74.062
X213.661Y-93.112
X213.915Y-90.064
X213.915Y-95.652
X214.677Y-43.074
X214.677Y-46.884
X214.677Y-98.192
X214.677Y-130.45
X215.185Y-87.27
X215.185Y-100.732
X215.744Y-54.377
X215.82Y-49.17
X215.947Y-104.542
X216.455Y-96.922
X217.217Y-35.454
X217.471Y-78.482
X217.598Y-81.682
X219.097Y-108.276
X219.757Y-35.454
X219.757Y-100.732
X220.773Y-110.384
X222.297Y-35.454
X222.297Y-135.276
X222.297Y-147.468
X223.059Y-119.782
X224.075Y-72.792
X224.837Y-35.454
X224.837Y-108.86
X225.345Y-57.044
X225.345Y-131.212
X225.51Y-78.456
X226.615Y-72.03
X227.377Y-35.454
X227.377Y-109.622
X228.393Y-74.062
X229.155Y-60.6
X229.155Y-130.45
X229.409Y-96.922
X229.663Y-58.822
X229.917Y-35.454
X231.136Y-92.604
X231.187Y-99.97
X231.695Y-63.902
X231.695Y-66.95
X232.457Y-81.682
X232.457Y-120.544
X233.219Y-115.972
X233.727Y-100.732
X234.235Y-53.234
X234.235Y-86.762
X234.235Y-96.922
X234.235Y-123.338
X234.235Y-125.878
X235.759Y-84.984
X236.267Y-66.442
X236.267Y-99.462
X236.267Y-110.13
X236.775Y-106.32
X238.05Y-79.46
X238.299Y-74.621
X240.077Y-53.234
X240.077Y-108.352
X240.331Y-74.57
X240.585Y-99.462
X240.585Y-135.022
X241.347Y-67.712
X241.347Y-105.812
X243.125Y-74.062
X243.125Y-120.29
X243.125Y-132.99
X243.379Y-151.278
X243.633Y-88.54
X243.887Y-83.46
X245.157Y-93.874
X245.157Y-118.004
X246.427Y-84.73
X246.427Y-91.08
X248.205Y-101.24
X252.523Y-115.972
X253.539Y-64.41
X253.539Y-67.712
X253.793Y-122.068
T6
X240.836Y-122.08
X240.836Y-129.7
X248.456Y-122.08
X248.456Y-129.7
T7
X51.863Y-101.494
X53.641Y-117.496
X53.641Y-121.306
X65.833Y-121.306
X71.675Y-109.876
X72.183Y-107.844
X72.691Y-118.512
X73.961Y-111.654
X73.961Y-115.464
X75.231Y-121.306
X75.993Y-118.512
X86.153Y-117.496
T8
X48.561Y-79.396
X48.561Y-92.096
X57.451Y-147.976
X87.423Y-91.918
X99.361Y-86.254
X247.951Y-51.71
T9
X45.782Y-43.98
X45.882Y-53.834
X45.882Y-53.834
X93.255Y-62.12
X93.255Y-67.2
X97.017Y-55.856
X102.155Y-55.776
T10
X73.961Y-102.042
X73.961Y-103.957
X76.501Y-102.042
X76.501Y-103.957
X79.041Y-102.042
X79.041Y-103.957
X81.581Y-102.042
X81.581Y-103.957
X84.121Y-102.042
X84.121Y-103.957
X211.383Y-113.542
X211.383Y-115.457
X213.923Y-113.542
X213.923Y-115.457
X216.463Y-113.542
X216.463Y-115.457
X219.003Y-113.542
X219.003Y-115.457
X221.543Y-113.542
X221.543Y-115.457
X224.083Y-113.542
X224.083Y-115.457
X226.623Y-113.542
X226.623Y-115.457
X229.163Y-113.542
X229.163Y-115.457
T11
X253.279Y-42.95
X253.279Y-45.49
X253.279Y-48.03
T12
X49.83Y-98.44
X49.83Y-118.44
X49.831Y-75.58
X49.831Y-95.9
X130.603Y-42.05
X130.603Y-64.65
X131.111Y-68.47
X131.111Y-88.79
X132.63Y-137.77
X132.635Y-143.9
X152.95Y-137.77
X152.955Y-143.9
X202.073Y-122.8
X202.073Y-143.12
X204.263Y-96.41
X204.263Y-116.41
X225.345Y-69.49
X225.345Y-76.09
X225.345Y-98.19
X225.35Y-106.8
X245.665Y-69.49
X245.665Y-76.09
X245.665Y-98.19
X245.67Y-106.8
T13
X126.3Y-29.85
X126.3Y-32.46
X126.3Y-35.08
X133.92Y-29.85
X133.92Y-32.46
X133.92Y-35.08
X137.75Y-29.85
X137.75Y-32.46
X137.75Y-35.08
X145.37Y-29.85
X145.37Y-32.46
X145.37Y-35.08
T14
X247.529Y-136.701
X247.56Y-146.793
T15
X236.753Y-54.48
X236.753Y-58.29
X236.753Y-63.116
X245.389Y-54.48
X245.389Y-58.29
X245.389Y-63.116
T16
X97.605Y-31.83
X97.605Y-35.97
X107.257Y-35.97
X112.592Y-31.83
X112.592Y-35.97
X122.244Y-35.97
X244.01Y-33.824
X248.582Y-30.268
X248.582Y-37.38
X253.662Y-33.824
T17
X51.006Y-44.532
X89.868Y-44.532
M30
