%TF.GenerationSoftware,KiCad,Pcbnew,10.0.4*%
%TF.CreationDate,2026-09-27T17:38:24+01:00*%
%TF.ProjectId,issue3,69737375-6533-42e6-9b69-6361645f7063,3*%
%TF.SameCoordinates,Original*%
%TF.FileFunction,Profile,NP*%
%FSLAX46Y46*%
G04 Gerber Fmt 4.6, Leading zero omitted, Abs format (unit mm)*
G04 Created by KiCad (PCBNEW 10.0.4) date 2026-09-27 17:38:24*
%MOMM*%
%LPD*%
G01*
G04 APERTURE LIST*
%TA.AperFunction,Profile*%
%ADD10C,0.305000*%
%TD*%
%TA.AperFunction,Profile*%
%ADD11C,0.100000*%
%TD*%
G04 APERTURE END LIST*
D10*
X43841500Y-26564000D02*
X43841500Y-156612000D01*
X43841500Y-26564000D02*
X169834500Y-26564000D01*
X43841500Y-156612000D02*
X256947500Y-156612000D01*
D11*
X49810500Y-151579000D02*
G75*
G02*
X46508500Y-151579000I-1651000J0D01*
G01*
X46508500Y-151579000D02*
G75*
G02*
X49810500Y-151579000I1651000J0D01*
G01*
X50445500Y-71061000D02*
G75*
G02*
X46127500Y-71061000I-2159000J0D01*
G01*
X46127500Y-71061000D02*
G75*
G02*
X50445500Y-71061000I2159000J0D01*
G01*
X152045500Y-31564000D02*
G75*
G02*
X148743500Y-31564000I-1651000J0D01*
G01*
X148743500Y-31564000D02*
G75*
G02*
X152045500Y-31564000I1651000J0D01*
G01*
X151694500Y-115130000D02*
G75*
G02*
X149094500Y-115130000I-1300000J0D01*
G01*
X149094500Y-115130000D02*
G75*
G02*
X151694500Y-115130000I1300000J0D01*
G01*
D10*
X169834500Y-26564000D02*
X169834500Y-35073000D01*
X169834500Y-35073000D02*
X172365500Y-35073000D01*
X172365500Y-26564000D02*
X172365500Y-35073000D01*
X172365500Y-26564000D02*
X256947500Y-26564000D01*
D11*
X254047000Y-111146000D02*
G75*
G02*
X249475000Y-111146000I-2286000J0D01*
G01*
X249475000Y-111146000D02*
G75*
G02*
X254047000Y-111146000I2286000J0D01*
G01*
X254679500Y-71061000D02*
G75*
G02*
X250361500Y-71061000I-2159000J0D01*
G01*
X250361500Y-71061000D02*
G75*
G02*
X254679500Y-71061000I2159000J0D01*
G01*
X254280500Y-151579000D02*
G75*
G02*
X250978500Y-151579000I-1651000J0D01*
G01*
X250978500Y-151579000D02*
G75*
G02*
X254280500Y-151579000I1651000J0D01*
G01*
D10*
X256947500Y-26564000D02*
X256947500Y-156612000D01*
%TO.C,LS1*%
X241342325Y-141731725D02*
G75*
G02*
X226102325Y-141731725I-7620000J0D01*
G01*
X226102325Y-141731725D02*
G75*
G02*
X241342325Y-141731725I7620000J0D01*
G01*
%TD*%
M02*
