%TF.GenerationSoftware,KiCad,Pcbnew,10.0.4*%
%TF.CreationDate,2026-09-27T17:38:24+01:00*%
%TF.ProjectId,issue3,69737375-6533-42e6-9b69-6361645f7063,3*%
%TF.SameCoordinates,Original*%
%TF.FileFunction,Soldermask,Top*%
%TF.FilePolarity,Negative*%
%FSLAX46Y46*%
G04 Gerber Fmt 4.6, Leading zero omitted, Abs format (unit mm)*
G04 Created by KiCad (PCBNEW 10.0.4) date 2026-09-27 17:38:24*
%MOMM*%
%LPD*%
G01*
G04 APERTURE LIST*
G04 Aperture macros list*
%AMRoundRect*
0 Rectangle with rounded corners*
0 $1 Rounding radius*
0 $2 $3 $4 $5 $6 $7 $8 $9 X,Y pos of 4 corners*
0 Add a 4 corners polygon primitive as box body*
4,1,4,$2,$3,$4,$5,$6,$7,$8,$9,$2,$3,0*
0 Add four circle primitives for the rounded corners*
1,1,$1+$1,$2,$3*
1,1,$1+$1,$4,$5*
1,1,$1+$1,$6,$7*
1,1,$1+$1,$8,$9*
0 Add four rect primitives between the rounded corners*
20,1,$1+$1,$2,$3,$4,$5,0*
20,1,$1+$1,$4,$5,$6,$7,0*
20,1,$1+$1,$6,$7,$8,$9,0*
20,1,$1+$1,$8,$9,$2,$3,0*%
G04 Aperture macros list end*
%ADD10C,0.000000*%
%ADD11C,1.189000*%
%ADD12C,3.157500*%
%ADD13C,1.100000*%
%ADD14C,2.078000*%
%ADD15C,0.505000*%
%ADD16C,1.062000*%
%ADD17C,1.500000*%
%ADD18C,0.454000*%
%ADD19C,1.800000*%
%ADD20C,1.951000*%
%ADD21C,1.600000*%
%ADD22C,1.778000*%
%ADD23C,2.000000*%
%ADD24C,1.400000*%
%ADD25C,3.000000*%
%ADD26R,3.500000X3.500000*%
%ADD27RoundRect,0.875000X-0.875000X0.875000X-0.875000X-0.875000X0.875000X-0.875000X0.875000X0.875000X0*%
%ADD28C,2.034000*%
%ADD29C,2.400000*%
%ADD30C,5.715000*%
%ADD31RoundRect,0.875000X-0.875000X-0.875000X0.875000X-0.875000X0.875000X0.875000X-0.875000X0.875000X0*%
%ADD32C,1.574000*%
%ADD33C,1.050000*%
%ADD34R,2.000000X6.000000*%
%ADD35C,3.500000*%
%ADD36R,2.000000X1.905000*%
%ADD37O,2.000000X1.905000*%
%ADD38C,1.700000*%
G04 APERTURE END LIST*
D10*
G36*
X161613000Y-27266400D02*
G01*
X161618300Y-33419700D01*
X160134900Y-33417600D01*
X160128100Y-27264100D01*
X161613000Y-27266400D01*
G37*
G36*
X164153000Y-27266400D02*
G01*
X164158300Y-33419700D01*
X162674900Y-33417600D01*
X162668100Y-27264100D01*
X164153000Y-27266400D01*
G37*
G36*
X166693000Y-27266400D02*
G01*
X166698300Y-33419700D01*
X165214900Y-33417600D01*
X165208100Y-27264100D01*
X166693000Y-27266400D01*
G37*
G36*
X169233000Y-27266400D02*
G01*
X169238300Y-33419700D01*
X167754900Y-33417600D01*
X167748100Y-27264100D01*
X169233000Y-27266400D01*
G37*
G36*
X174313000Y-27266400D02*
G01*
X174318300Y-33419700D01*
X172834900Y-33417600D01*
X172828100Y-27264100D01*
X174313000Y-27266400D01*
G37*
G36*
X176853000Y-27266400D02*
G01*
X176858300Y-33419700D01*
X175374900Y-33417600D01*
X175368100Y-27264100D01*
X176853000Y-27266400D01*
G37*
G36*
X179393000Y-27266400D02*
G01*
X179398300Y-33419700D01*
X177914900Y-33417600D01*
X177908100Y-27264100D01*
X179393000Y-27266400D01*
G37*
G36*
X181933000Y-27266400D02*
G01*
X181938300Y-33419700D01*
X180454900Y-33417600D01*
X180448100Y-27264100D01*
X181933000Y-27266400D01*
G37*
G36*
X184473000Y-27266400D02*
G01*
X184478300Y-33419700D01*
X182994900Y-33417600D01*
X182988100Y-27264100D01*
X184473000Y-27266400D01*
G37*
G36*
X187013000Y-27266400D02*
G01*
X187018300Y-33419700D01*
X185534900Y-33417600D01*
X185528100Y-27264100D01*
X187013000Y-27266400D01*
G37*
G36*
X189553000Y-27266400D02*
G01*
X189558300Y-33419700D01*
X188074900Y-33417600D01*
X188068100Y-27264100D01*
X189553000Y-27266400D01*
G37*
G36*
X192093000Y-27266400D02*
G01*
X192098300Y-33419700D01*
X190614900Y-33417600D01*
X190608100Y-27264100D01*
X192093000Y-27266400D01*
G37*
G36*
X194633000Y-27266400D02*
G01*
X194638300Y-33419700D01*
X193154900Y-33417600D01*
X193148100Y-27264100D01*
X194633000Y-27266400D01*
G37*
G36*
X197173000Y-27266400D02*
G01*
X197178300Y-33419700D01*
X195694900Y-33417600D01*
X195688100Y-27264100D01*
X197173000Y-27266400D01*
G37*
G36*
X199713000Y-27266400D02*
G01*
X199718300Y-33419700D01*
X198234900Y-33417600D01*
X198228100Y-27264100D01*
X199713000Y-27266400D01*
G37*
G36*
X202253000Y-27266400D02*
G01*
X202258300Y-33419700D01*
X200774900Y-33417600D01*
X200768100Y-27264100D01*
X202253000Y-27266400D01*
G37*
G36*
X204793000Y-27266400D02*
G01*
X204798300Y-33419700D01*
X203314900Y-33417600D01*
X203308100Y-27264100D01*
X204793000Y-27266400D01*
G37*
G36*
X207333000Y-27266400D02*
G01*
X207338300Y-33419700D01*
X205854900Y-33417600D01*
X205848100Y-27264100D01*
X207333000Y-27266400D01*
G37*
G36*
X209873000Y-27266400D02*
G01*
X209878300Y-33419700D01*
X208394900Y-33417600D01*
X208388100Y-27264100D01*
X209873000Y-27266400D01*
G37*
G36*
X212413000Y-27266400D02*
G01*
X212418300Y-33419700D01*
X210934900Y-33417600D01*
X210928100Y-27264100D01*
X212413000Y-27266400D01*
G37*
G36*
X214953000Y-27266400D02*
G01*
X214953000Y-33414400D01*
X213474900Y-33417600D01*
X213468100Y-27264100D01*
X214953000Y-27266400D01*
G37*
G36*
X217493000Y-27266400D02*
G01*
X217493000Y-33414400D01*
X216014900Y-33417600D01*
X216008100Y-27264100D01*
X217493000Y-27266400D01*
G37*
G36*
X220033000Y-27266400D02*
G01*
X220038300Y-33419700D01*
X218554900Y-33417600D01*
X218548100Y-27264100D01*
X220033000Y-27266400D01*
G37*
G36*
X222573000Y-27266400D02*
G01*
X222578300Y-33419700D01*
X221094900Y-33417600D01*
X221088100Y-27264100D01*
X222573000Y-27266400D01*
G37*
G36*
X225113000Y-27266400D02*
G01*
X225118300Y-33419700D01*
X223634900Y-33417600D01*
X223628100Y-27264100D01*
X225113000Y-27266400D01*
G37*
G36*
X227653000Y-27266400D02*
G01*
X227658300Y-33419700D01*
X226174900Y-33417600D01*
X226168100Y-27264100D01*
X227653000Y-27266400D01*
G37*
G36*
X230193000Y-27266400D02*
G01*
X230198300Y-33419700D01*
X228714900Y-33417600D01*
X228708100Y-27264100D01*
X230193000Y-27266400D01*
G37*
G36*
X249475000Y-50440000D02*
G01*
X231949000Y-50440000D01*
X231949000Y-40534000D01*
X249475000Y-40534000D01*
X249475000Y-50440000D01*
G37*
D11*
X47867100Y-60971300D02*
G75*
G02*
X46678100Y-60971300I-594500J0D01*
G01*
X46678100Y-60971300D02*
G75*
G02*
X47867100Y-60971300I594500J0D01*
G01*
X47867200Y-63706800D02*
G75*
G02*
X46678200Y-63706800I-594500J0D01*
G01*
X46678200Y-63706800D02*
G75*
G02*
X47867200Y-63706800I594500J0D01*
G01*
X49155500Y-79396000D02*
G75*
G02*
X47966500Y-79396000I-594500J0D01*
G01*
X47966500Y-79396000D02*
G75*
G02*
X49155500Y-79396000I594500J0D01*
G01*
X49155500Y-92096000D02*
G75*
G02*
X47966500Y-92096000I-594500J0D01*
G01*
X47966500Y-92096000D02*
G75*
G02*
X49155500Y-92096000I594500J0D01*
G01*
X50412400Y-125654000D02*
G75*
G02*
X49223400Y-125654000I-594500J0D01*
G01*
X49223400Y-125654000D02*
G75*
G02*
X50412400Y-125654000I594500J0D01*
G01*
X50412400Y-128194000D02*
G75*
G02*
X49223400Y-128194000I-594500J0D01*
G01*
X49223400Y-128194000D02*
G75*
G02*
X50412400Y-128194000I594500J0D01*
G01*
X50412400Y-130734000D02*
G75*
G02*
X49223400Y-130734000I-594500J0D01*
G01*
X49223400Y-130734000D02*
G75*
G02*
X50412400Y-130734000I594500J0D01*
G01*
X50412400Y-133274000D02*
G75*
G02*
X49223400Y-133274000I-594500J0D01*
G01*
X49223400Y-133274000D02*
G75*
G02*
X50412400Y-133274000I594500J0D01*
G01*
X50412400Y-135814000D02*
G75*
G02*
X49223400Y-135814000I-594500J0D01*
G01*
X49223400Y-135814000D02*
G75*
G02*
X50412400Y-135814000I594500J0D01*
G01*
X50412400Y-138354000D02*
G75*
G02*
X49223400Y-138354000I-594500J0D01*
G01*
X49223400Y-138354000D02*
G75*
G02*
X50412400Y-138354000I594500J0D01*
G01*
X50412400Y-140894000D02*
G75*
G02*
X49223400Y-140894000I-594500J0D01*
G01*
X49223400Y-140894000D02*
G75*
G02*
X50412400Y-140894000I594500J0D01*
G01*
X50412400Y-143434000D02*
G75*
G02*
X49223400Y-143434000I-594500J0D01*
G01*
X49223400Y-143434000D02*
G75*
G02*
X50412400Y-143434000I594500J0D01*
G01*
X50425500Y-75586000D02*
G75*
G02*
X49236500Y-75586000I-594500J0D01*
G01*
X49236500Y-75586000D02*
G75*
G02*
X50425500Y-75586000I594500J0D01*
G01*
X50425500Y-95906000D02*
G75*
G02*
X49236500Y-95906000I-594500J0D01*
G01*
X49236500Y-95906000D02*
G75*
G02*
X50425500Y-95906000I594500J0D01*
G01*
X50425500Y-121306000D02*
G75*
G02*
X49236500Y-121306000I-594500J0D01*
G01*
X49236500Y-121306000D02*
G75*
G02*
X50425500Y-121306000I594500J0D01*
G01*
D12*
X52578250Y-44598000D02*
G75*
G02*
X49420750Y-44598000I-1578750J0D01*
G01*
X49420750Y-44598000D02*
G75*
G02*
X52578250Y-44598000I1578750J0D01*
G01*
D11*
X54332500Y-66126800D02*
G75*
G02*
X53143500Y-66126800I-594500J0D01*
G01*
X53143500Y-66126800D02*
G75*
G02*
X54332500Y-66126800I594500J0D01*
G01*
X54970100Y-73551400D02*
G75*
G02*
X53781100Y-73551400I-594500J0D01*
G01*
X53781100Y-73551400D02*
G75*
G02*
X54970100Y-73551400I594500J0D01*
G01*
X54970100Y-76091400D02*
G75*
G02*
X53781100Y-76091400I-594500J0D01*
G01*
X53781100Y-76091400D02*
G75*
G02*
X54970100Y-76091400I594500J0D01*
G01*
X54988300Y-68640500D02*
G75*
G02*
X53799300Y-68640500I-594500J0D01*
G01*
X53799300Y-68640500D02*
G75*
G02*
X54988300Y-68640500I594500J0D01*
G01*
X54988300Y-71063100D02*
G75*
G02*
X53799300Y-71063100I-594500J0D01*
G01*
X53799300Y-71063100D02*
G75*
G02*
X54988300Y-71063100I594500J0D01*
G01*
X54997500Y-83968000D02*
G75*
G02*
X53808500Y-83968000I-594500J0D01*
G01*
X53808500Y-83968000D02*
G75*
G02*
X54997500Y-83968000I594500J0D01*
G01*
X54997500Y-86254000D02*
G75*
G02*
X53808500Y-86254000I-594500J0D01*
G01*
X53808500Y-86254000D02*
G75*
G02*
X54997500Y-86254000I594500J0D01*
G01*
X54997500Y-88794000D02*
G75*
G02*
X53808500Y-88794000I-594500J0D01*
G01*
X53808500Y-88794000D02*
G75*
G02*
X54997500Y-88794000I594500J0D01*
G01*
X54997500Y-91334000D02*
G75*
G02*
X53808500Y-91334000I-594500J0D01*
G01*
X53808500Y-91334000D02*
G75*
G02*
X54997500Y-91334000I594500J0D01*
G01*
X54997500Y-93874000D02*
G75*
G02*
X53808500Y-93874000I-594500J0D01*
G01*
X53808500Y-93874000D02*
G75*
G02*
X54997500Y-93874000I594500J0D01*
G01*
X54997500Y-96414000D02*
G75*
G02*
X53808500Y-96414000I-594500J0D01*
G01*
X53808500Y-96414000D02*
G75*
G02*
X54997500Y-96414000I594500J0D01*
G01*
X54997500Y-101494000D02*
G75*
G02*
X53808500Y-101494000I-594500J0D01*
G01*
X53808500Y-101494000D02*
G75*
G02*
X54997500Y-101494000I594500J0D01*
G01*
X54997500Y-104034000D02*
G75*
G02*
X53808500Y-104034000I-594500J0D01*
G01*
X53808500Y-104034000D02*
G75*
G02*
X54997500Y-104034000I594500J0D01*
G01*
D13*
X54953000Y-106574000D02*
G75*
G02*
X53853000Y-106574000I-550000J0D01*
G01*
X53853000Y-106574000D02*
G75*
G02*
X54953000Y-106574000I550000J0D01*
G01*
D11*
X54997500Y-109114000D02*
G75*
G02*
X53808500Y-109114000I-594500J0D01*
G01*
X53808500Y-109114000D02*
G75*
G02*
X54997500Y-109114000I594500J0D01*
G01*
X55003000Y-99085600D02*
G75*
G02*
X53814000Y-99085600I-594500J0D01*
G01*
X53814000Y-99085600D02*
G75*
G02*
X55003000Y-99085600I594500J0D01*
G01*
X56991900Y-66108600D02*
G75*
G02*
X55802900Y-66108600I-594500J0D01*
G01*
X55802900Y-66108600D02*
G75*
G02*
X56991900Y-66108600I594500J0D01*
G01*
X58032400Y-125654000D02*
G75*
G02*
X56843400Y-125654000I-594500J0D01*
G01*
X56843400Y-125654000D02*
G75*
G02*
X58032400Y-125654000I594500J0D01*
G01*
X58032400Y-128194000D02*
G75*
G02*
X56843400Y-128194000I-594500J0D01*
G01*
X56843400Y-128194000D02*
G75*
G02*
X58032400Y-128194000I594500J0D01*
G01*
X58032400Y-130734000D02*
G75*
G02*
X56843400Y-130734000I-594500J0D01*
G01*
X56843400Y-130734000D02*
G75*
G02*
X58032400Y-130734000I594500J0D01*
G01*
X58032400Y-133274000D02*
G75*
G02*
X56843400Y-133274000I-594500J0D01*
G01*
X56843400Y-133274000D02*
G75*
G02*
X58032400Y-133274000I594500J0D01*
G01*
X58032400Y-135814000D02*
G75*
G02*
X56843400Y-135814000I-594500J0D01*
G01*
X56843400Y-135814000D02*
G75*
G02*
X58032400Y-135814000I594500J0D01*
G01*
X58032400Y-138354000D02*
G75*
G02*
X56843400Y-138354000I-594500J0D01*
G01*
X56843400Y-138354000D02*
G75*
G02*
X58032400Y-138354000I594500J0D01*
G01*
X58032400Y-140894000D02*
G75*
G02*
X56843400Y-140894000I-594500J0D01*
G01*
X56843400Y-140894000D02*
G75*
G02*
X58032400Y-140894000I594500J0D01*
G01*
X58032400Y-143434000D02*
G75*
G02*
X56843400Y-143434000I-594500J0D01*
G01*
X56843400Y-143434000D02*
G75*
G02*
X58032400Y-143434000I594500J0D01*
G01*
X59378100Y-66145000D02*
G75*
G02*
X58189100Y-66145000I-594500J0D01*
G01*
X58189100Y-66145000D02*
G75*
G02*
X59378100Y-66145000I594500J0D01*
G01*
X60585500Y-61108000D02*
G75*
G02*
X59396500Y-61108000I-594500J0D01*
G01*
X59396500Y-61108000D02*
G75*
G02*
X60585500Y-61108000I594500J0D01*
G01*
X60585500Y-147950600D02*
G75*
G02*
X59396500Y-147950600I-594500J0D01*
G01*
X59396500Y-147950600D02*
G75*
G02*
X60585500Y-147950600I594500J0D01*
G01*
X60586700Y-125631000D02*
G75*
G02*
X59397700Y-125631000I-594500J0D01*
G01*
X59397700Y-125631000D02*
G75*
G02*
X60586700Y-125631000I594500J0D01*
G01*
X60586700Y-128171100D02*
G75*
G02*
X59397700Y-128171100I-594500J0D01*
G01*
X59397700Y-128171100D02*
G75*
G02*
X60586700Y-128171100I594500J0D01*
G01*
X60586700Y-130711300D02*
G75*
G02*
X59397700Y-130711300I-594500J0D01*
G01*
X59397700Y-130711300D02*
G75*
G02*
X60586700Y-130711300I594500J0D01*
G01*
X60586700Y-133251100D02*
G75*
G02*
X59397700Y-133251100I-594500J0D01*
G01*
X59397700Y-133251100D02*
G75*
G02*
X60586700Y-133251100I594500J0D01*
G01*
X60586700Y-135791100D02*
G75*
G02*
X59397700Y-135791100I-594500J0D01*
G01*
X59397700Y-135791100D02*
G75*
G02*
X60586700Y-135791100I594500J0D01*
G01*
X60586700Y-138331100D02*
G75*
G02*
X59397700Y-138331100I-594500J0D01*
G01*
X59397700Y-138331100D02*
G75*
G02*
X60586700Y-138331100I594500J0D01*
G01*
X60586700Y-140871100D02*
G75*
G02*
X59397700Y-140871100I-594500J0D01*
G01*
X59397700Y-140871100D02*
G75*
G02*
X60586700Y-140871100I594500J0D01*
G01*
X60586700Y-143411100D02*
G75*
G02*
X59397700Y-143411100I-594500J0D01*
G01*
X59397700Y-143411100D02*
G75*
G02*
X60586700Y-143411100I594500J0D01*
G01*
X60634900Y-63526000D02*
G75*
G02*
X59445900Y-63526000I-594500J0D01*
G01*
X59445900Y-63526000D02*
G75*
G02*
X60634900Y-63526000I594500J0D01*
G01*
X63125500Y-121306000D02*
G75*
G02*
X61936500Y-121306000I-594500J0D01*
G01*
X61936500Y-121306000D02*
G75*
G02*
X63125500Y-121306000I594500J0D01*
G01*
X63185000Y-66072200D02*
G75*
G02*
X61996000Y-66072200I-594500J0D01*
G01*
X61996000Y-66072200D02*
G75*
G02*
X63185000Y-66072200I594500J0D01*
G01*
X63379500Y-61108000D02*
G75*
G02*
X62190500Y-61108000I-594500J0D01*
G01*
X62190500Y-61108000D02*
G75*
G02*
X63379500Y-61108000I594500J0D01*
G01*
X65753300Y-66054000D02*
G75*
G02*
X64564300Y-66054000I-594500J0D01*
G01*
X64564300Y-66054000D02*
G75*
G02*
X65753300Y-66054000I594500J0D01*
G01*
X67697500Y-71268000D02*
G75*
G02*
X66508500Y-71268000I-594500J0D01*
G01*
X66508500Y-71268000D02*
G75*
G02*
X67697500Y-71268000I594500J0D01*
G01*
X67697500Y-73808000D02*
G75*
G02*
X66508500Y-73808000I-594500J0D01*
G01*
X66508500Y-73808000D02*
G75*
G02*
X67697500Y-73808000I594500J0D01*
G01*
X67697500Y-76094000D02*
G75*
G02*
X66508500Y-76094000I-594500J0D01*
G01*
X66508500Y-76094000D02*
G75*
G02*
X67697500Y-76094000I594500J0D01*
G01*
X67697500Y-83714000D02*
G75*
G02*
X66508500Y-83714000I-594500J0D01*
G01*
X66508500Y-83714000D02*
G75*
G02*
X67697500Y-83714000I594500J0D01*
G01*
X67697500Y-86254000D02*
G75*
G02*
X66508500Y-86254000I-594500J0D01*
G01*
X66508500Y-86254000D02*
G75*
G02*
X67697500Y-86254000I594500J0D01*
G01*
X67697500Y-88794000D02*
G75*
G02*
X66508500Y-88794000I-594500J0D01*
G01*
X66508500Y-88794000D02*
G75*
G02*
X67697500Y-88794000I594500J0D01*
G01*
X67697500Y-91334000D02*
G75*
G02*
X66508500Y-91334000I-594500J0D01*
G01*
X66508500Y-91334000D02*
G75*
G02*
X67697500Y-91334000I594500J0D01*
G01*
X67697500Y-93874000D02*
G75*
G02*
X66508500Y-93874000I-594500J0D01*
G01*
X66508500Y-93874000D02*
G75*
G02*
X67697500Y-93874000I594500J0D01*
G01*
X67697500Y-96414000D02*
G75*
G02*
X66508500Y-96414000I-594500J0D01*
G01*
X66508500Y-96414000D02*
G75*
G02*
X67697500Y-96414000I594500J0D01*
G01*
X67697500Y-98954000D02*
G75*
G02*
X66508500Y-98954000I-594500J0D01*
G01*
X66508500Y-98954000D02*
G75*
G02*
X67697500Y-98954000I594500J0D01*
G01*
X67697500Y-101494000D02*
G75*
G02*
X66508500Y-101494000I-594500J0D01*
G01*
X66508500Y-101494000D02*
G75*
G02*
X67697500Y-101494000I594500J0D01*
G01*
X67697500Y-104034000D02*
G75*
G02*
X66508500Y-104034000I-594500J0D01*
G01*
X66508500Y-104034000D02*
G75*
G02*
X67697500Y-104034000I594500J0D01*
G01*
D13*
X67653000Y-106574000D02*
G75*
G02*
X66553000Y-106574000I-550000J0D01*
G01*
X66553000Y-106574000D02*
G75*
G02*
X67653000Y-106574000I550000J0D01*
G01*
D11*
X67697500Y-109114000D02*
G75*
G02*
X66508500Y-109114000I-594500J0D01*
G01*
X66508500Y-109114000D02*
G75*
G02*
X67697500Y-109114000I594500J0D01*
G01*
X67702300Y-68567600D02*
G75*
G02*
X66513300Y-68567600I-594500J0D01*
G01*
X66513300Y-68567600D02*
G75*
G02*
X67702300Y-68567600I594500J0D01*
G01*
X68206700Y-125631000D02*
G75*
G02*
X67017700Y-125631000I-594500J0D01*
G01*
X67017700Y-125631000D02*
G75*
G02*
X68206700Y-125631000I594500J0D01*
G01*
X68206700Y-128171100D02*
G75*
G02*
X67017700Y-128171100I-594500J0D01*
G01*
X67017700Y-128171100D02*
G75*
G02*
X68206700Y-128171100I594500J0D01*
G01*
X68206700Y-130711300D02*
G75*
G02*
X67017700Y-130711300I-594500J0D01*
G01*
X67017700Y-130711300D02*
G75*
G02*
X68206700Y-130711300I594500J0D01*
G01*
X68206700Y-133251100D02*
G75*
G02*
X67017700Y-133251100I-594500J0D01*
G01*
X67017700Y-133251100D02*
G75*
G02*
X68206700Y-133251100I594500J0D01*
G01*
X68206700Y-135791100D02*
G75*
G02*
X67017700Y-135791100I-594500J0D01*
G01*
X67017700Y-135791100D02*
G75*
G02*
X68206700Y-135791100I594500J0D01*
G01*
X68206700Y-138331100D02*
G75*
G02*
X67017700Y-138331100I-594500J0D01*
G01*
X67017700Y-138331100D02*
G75*
G02*
X68206700Y-138331100I594500J0D01*
G01*
X68206700Y-140871100D02*
G75*
G02*
X67017700Y-140871100I-594500J0D01*
G01*
X67017700Y-140871100D02*
G75*
G02*
X68206700Y-140871100I594500J0D01*
G01*
X68206700Y-143411100D02*
G75*
G02*
X67017700Y-143411100I-594500J0D01*
G01*
X67017700Y-143411100D02*
G75*
G02*
X68206700Y-143411100I594500J0D01*
G01*
X68230500Y-66054000D02*
G75*
G02*
X67041500Y-66054000I-594500J0D01*
G01*
X67041500Y-66054000D02*
G75*
G02*
X68230500Y-66054000I594500J0D01*
G01*
X70237500Y-71014000D02*
G75*
G02*
X69048500Y-71014000I-594500J0D01*
G01*
X69048500Y-71014000D02*
G75*
G02*
X70237500Y-71014000I594500J0D01*
G01*
X70237500Y-73554000D02*
G75*
G02*
X69048500Y-73554000I-594500J0D01*
G01*
X69048500Y-73554000D02*
G75*
G02*
X70237500Y-73554000I594500J0D01*
G01*
X70237500Y-76094000D02*
G75*
G02*
X69048500Y-76094000I-594500J0D01*
G01*
X69048500Y-76094000D02*
G75*
G02*
X70237500Y-76094000I594500J0D01*
G01*
X70237500Y-78634000D02*
G75*
G02*
X69048500Y-78634000I-594500J0D01*
G01*
X69048500Y-78634000D02*
G75*
G02*
X70237500Y-78634000I594500J0D01*
G01*
X70237500Y-81174000D02*
G75*
G02*
X69048500Y-81174000I-594500J0D01*
G01*
X69048500Y-81174000D02*
G75*
G02*
X70237500Y-81174000I594500J0D01*
G01*
X70237500Y-83714000D02*
G75*
G02*
X69048500Y-83714000I-594500J0D01*
G01*
X69048500Y-83714000D02*
G75*
G02*
X70237500Y-83714000I594500J0D01*
G01*
X70237500Y-86254000D02*
G75*
G02*
X69048500Y-86254000I-594500J0D01*
G01*
X69048500Y-86254000D02*
G75*
G02*
X70237500Y-86254000I594500J0D01*
G01*
X70237500Y-88794000D02*
G75*
G02*
X69048500Y-88794000I-594500J0D01*
G01*
X69048500Y-88794000D02*
G75*
G02*
X70237500Y-88794000I594500J0D01*
G01*
X70237500Y-91334000D02*
G75*
G02*
X69048500Y-91334000I-594500J0D01*
G01*
X69048500Y-91334000D02*
G75*
G02*
X70237500Y-91334000I594500J0D01*
G01*
X70745500Y-121306000D02*
G75*
G02*
X69556500Y-121306000I-594500J0D01*
G01*
X69556500Y-121306000D02*
G75*
G02*
X70745500Y-121306000I594500J0D01*
G01*
X70780800Y-125603200D02*
G75*
G02*
X69591800Y-125603200I-594500J0D01*
G01*
X69591800Y-125603200D02*
G75*
G02*
X70780800Y-125603200I594500J0D01*
G01*
X70780800Y-128143200D02*
G75*
G02*
X69591800Y-128143200I-594500J0D01*
G01*
X69591800Y-128143200D02*
G75*
G02*
X70780800Y-128143200I594500J0D01*
G01*
X70780800Y-130683200D02*
G75*
G02*
X69591800Y-130683200I-594500J0D01*
G01*
X69591800Y-130683200D02*
G75*
G02*
X70780800Y-130683200I594500J0D01*
G01*
X70780800Y-133223200D02*
G75*
G02*
X69591800Y-133223200I-594500J0D01*
G01*
X69591800Y-133223200D02*
G75*
G02*
X70780800Y-133223200I594500J0D01*
G01*
X70780800Y-135763200D02*
G75*
G02*
X69591800Y-135763200I-594500J0D01*
G01*
X69591800Y-135763200D02*
G75*
G02*
X70780800Y-135763200I594500J0D01*
G01*
X70780800Y-138303200D02*
G75*
G02*
X69591800Y-138303200I-594500J0D01*
G01*
X69591800Y-138303200D02*
G75*
G02*
X70780800Y-138303200I594500J0D01*
G01*
X70780800Y-140843200D02*
G75*
G02*
X69591800Y-140843200I-594500J0D01*
G01*
X69591800Y-140843200D02*
G75*
G02*
X70780800Y-140843200I594500J0D01*
G01*
X70780800Y-143383200D02*
G75*
G02*
X69591800Y-143383200I-594500J0D01*
G01*
X69591800Y-143383200D02*
G75*
G02*
X70780800Y-143383200I594500J0D01*
G01*
X73438200Y-147961000D02*
G75*
G02*
X72249200Y-147961000I-594500J0D01*
G01*
X72249200Y-147961000D02*
G75*
G02*
X73438200Y-147961000I594500J0D01*
G01*
X74555500Y-102129000D02*
G75*
G02*
X73366500Y-102129000I-594500J0D01*
G01*
X73366500Y-102129000D02*
G75*
G02*
X74555500Y-102129000I594500J0D01*
G01*
X74555500Y-104034000D02*
G75*
G02*
X73366500Y-104034000I-594500J0D01*
G01*
X73366500Y-104034000D02*
G75*
G02*
X74555500Y-104034000I594500J0D01*
G01*
X76079500Y-60854000D02*
G75*
G02*
X74890500Y-60854000I-594500J0D01*
G01*
X74890500Y-60854000D02*
G75*
G02*
X76079500Y-60854000I594500J0D01*
G01*
X77095500Y-102129000D02*
G75*
G02*
X75906500Y-102129000I-594500J0D01*
G01*
X75906500Y-102129000D02*
G75*
G02*
X77095500Y-102129000I594500J0D01*
G01*
X77095500Y-104034000D02*
G75*
G02*
X75906500Y-104034000I-594500J0D01*
G01*
X75906500Y-104034000D02*
G75*
G02*
X77095500Y-104034000I594500J0D01*
G01*
X77857500Y-71014000D02*
G75*
G02*
X76668500Y-71014000I-594500J0D01*
G01*
X76668500Y-71014000D02*
G75*
G02*
X77857500Y-71014000I594500J0D01*
G01*
X77857500Y-73554000D02*
G75*
G02*
X76668500Y-73554000I-594500J0D01*
G01*
X76668500Y-73554000D02*
G75*
G02*
X77857500Y-73554000I594500J0D01*
G01*
X77857500Y-76094000D02*
G75*
G02*
X76668500Y-76094000I-594500J0D01*
G01*
X76668500Y-76094000D02*
G75*
G02*
X77857500Y-76094000I594500J0D01*
G01*
X77857500Y-78634000D02*
G75*
G02*
X76668500Y-78634000I-594500J0D01*
G01*
X76668500Y-78634000D02*
G75*
G02*
X77857500Y-78634000I594500J0D01*
G01*
X77857500Y-81174000D02*
G75*
G02*
X76668500Y-81174000I-594500J0D01*
G01*
X76668500Y-81174000D02*
G75*
G02*
X77857500Y-81174000I594500J0D01*
G01*
X77857500Y-83714000D02*
G75*
G02*
X76668500Y-83714000I-594500J0D01*
G01*
X76668500Y-83714000D02*
G75*
G02*
X77857500Y-83714000I594500J0D01*
G01*
X77857500Y-86254000D02*
G75*
G02*
X76668500Y-86254000I-594500J0D01*
G01*
X76668500Y-86254000D02*
G75*
G02*
X77857500Y-86254000I594500J0D01*
G01*
X77857500Y-88794000D02*
G75*
G02*
X76668500Y-88794000I-594500J0D01*
G01*
X76668500Y-88794000D02*
G75*
G02*
X77857500Y-88794000I594500J0D01*
G01*
X77857500Y-91334000D02*
G75*
G02*
X76668500Y-91334000I-594500J0D01*
G01*
X76668500Y-91334000D02*
G75*
G02*
X77857500Y-91334000I594500J0D01*
G01*
X78400800Y-125603200D02*
G75*
G02*
X77211800Y-125603200I-594500J0D01*
G01*
X77211800Y-125603200D02*
G75*
G02*
X78400800Y-125603200I594500J0D01*
G01*
X78400800Y-128143200D02*
G75*
G02*
X77211800Y-128143200I-594500J0D01*
G01*
X77211800Y-128143200D02*
G75*
G02*
X78400800Y-128143200I594500J0D01*
G01*
X78400800Y-130683200D02*
G75*
G02*
X77211800Y-130683200I-594500J0D01*
G01*
X77211800Y-130683200D02*
G75*
G02*
X78400800Y-130683200I594500J0D01*
G01*
X78400800Y-133223200D02*
G75*
G02*
X77211800Y-133223200I-594500J0D01*
G01*
X77211800Y-133223200D02*
G75*
G02*
X78400800Y-133223200I594500J0D01*
G01*
X78400800Y-135763200D02*
G75*
G02*
X77211800Y-135763200I-594500J0D01*
G01*
X77211800Y-135763200D02*
G75*
G02*
X78400800Y-135763200I594500J0D01*
G01*
X78400800Y-138303200D02*
G75*
G02*
X77211800Y-138303200I-594500J0D01*
G01*
X77211800Y-138303200D02*
G75*
G02*
X78400800Y-138303200I594500J0D01*
G01*
X78400800Y-140843200D02*
G75*
G02*
X77211800Y-140843200I-594500J0D01*
G01*
X77211800Y-140843200D02*
G75*
G02*
X78400800Y-140843200I594500J0D01*
G01*
X78400800Y-143383200D02*
G75*
G02*
X77211800Y-143383200I-594500J0D01*
G01*
X77211800Y-143383200D02*
G75*
G02*
X78400800Y-143383200I594500J0D01*
G01*
X78584100Y-63484100D02*
G75*
G02*
X77395100Y-63484100I-594500J0D01*
G01*
X77395100Y-63484100D02*
G75*
G02*
X78584100Y-63484100I594500J0D01*
G01*
X78587200Y-66014400D02*
G75*
G02*
X77398200Y-66014400I-594500J0D01*
G01*
X77398200Y-66014400D02*
G75*
G02*
X78587200Y-66014400I594500J0D01*
G01*
X78619500Y-68474000D02*
G75*
G02*
X77430500Y-68474000I-594500J0D01*
G01*
X77430500Y-68474000D02*
G75*
G02*
X78619500Y-68474000I594500J0D01*
G01*
X78620600Y-60963300D02*
G75*
G02*
X77431600Y-60963300I-594500J0D01*
G01*
X77431600Y-60963300D02*
G75*
G02*
X78620600Y-60963300I594500J0D01*
G01*
X79635500Y-102129000D02*
G75*
G02*
X78446500Y-102129000I-594500J0D01*
G01*
X78446500Y-102129000D02*
G75*
G02*
X79635500Y-102129000I594500J0D01*
G01*
X79635500Y-104034000D02*
G75*
G02*
X78446500Y-104034000I-594500J0D01*
G01*
X78446500Y-104034000D02*
G75*
G02*
X79635500Y-104034000I594500J0D01*
G01*
X80319600Y-93939300D02*
G75*
G02*
X79130600Y-93939300I-594500J0D01*
G01*
X79130600Y-93939300D02*
G75*
G02*
X80319600Y-93939300I594500J0D01*
G01*
X80319600Y-96580900D02*
G75*
G02*
X79130600Y-96580900I-594500J0D01*
G01*
X79130600Y-96580900D02*
G75*
G02*
X80319600Y-96580900I594500J0D01*
G01*
X80370400Y-91323100D02*
G75*
G02*
X79181400Y-91323100I-594500J0D01*
G01*
X79181400Y-91323100D02*
G75*
G02*
X80370400Y-91323100I594500J0D01*
G01*
X80397500Y-71014000D02*
G75*
G02*
X79208500Y-71014000I-594500J0D01*
G01*
X79208500Y-71014000D02*
G75*
G02*
X80397500Y-71014000I594500J0D01*
G01*
X80397500Y-73554000D02*
G75*
G02*
X79208500Y-73554000I-594500J0D01*
G01*
X79208500Y-73554000D02*
G75*
G02*
X80397500Y-73554000I594500J0D01*
G01*
X80397500Y-76094000D02*
G75*
G02*
X79208500Y-76094000I-594500J0D01*
G01*
X79208500Y-76094000D02*
G75*
G02*
X80397500Y-76094000I594500J0D01*
G01*
X80397500Y-78634000D02*
G75*
G02*
X79208500Y-78634000I-594500J0D01*
G01*
X79208500Y-78634000D02*
G75*
G02*
X80397500Y-78634000I594500J0D01*
G01*
X80397500Y-81174000D02*
G75*
G02*
X79208500Y-81174000I-594500J0D01*
G01*
X79208500Y-81174000D02*
G75*
G02*
X80397500Y-81174000I594500J0D01*
G01*
X80397500Y-83714000D02*
G75*
G02*
X79208500Y-83714000I-594500J0D01*
G01*
X79208500Y-83714000D02*
G75*
G02*
X80397500Y-83714000I594500J0D01*
G01*
X80397500Y-86254000D02*
G75*
G02*
X79208500Y-86254000I-594500J0D01*
G01*
X79208500Y-86254000D02*
G75*
G02*
X80397500Y-86254000I594500J0D01*
G01*
X80397500Y-88794000D02*
G75*
G02*
X79208500Y-88794000I-594500J0D01*
G01*
X79208500Y-88794000D02*
G75*
G02*
X80397500Y-88794000I594500J0D01*
G01*
X80452700Y-108333800D02*
G75*
G02*
X79263700Y-108333800I-594500J0D01*
G01*
X79263700Y-108333800D02*
G75*
G02*
X80452700Y-108333800I594500J0D01*
G01*
X80452700Y-113667800D02*
G75*
G02*
X79263700Y-113667800I-594500J0D01*
G01*
X79263700Y-113667800D02*
G75*
G02*
X80452700Y-113667800I594500J0D01*
G01*
X80473700Y-111146000D02*
G75*
G02*
X79284700Y-111146000I-594500J0D01*
G01*
X79284700Y-111146000D02*
G75*
G02*
X80473700Y-111146000I594500J0D01*
G01*
X80965500Y-125609400D02*
G75*
G02*
X79776500Y-125609400I-594500J0D01*
G01*
X79776500Y-125609400D02*
G75*
G02*
X80965500Y-125609400I594500J0D01*
G01*
X80965500Y-128149400D02*
G75*
G02*
X79776500Y-128149400I-594500J0D01*
G01*
X79776500Y-128149400D02*
G75*
G02*
X80965500Y-128149400I594500J0D01*
G01*
X80965500Y-130689400D02*
G75*
G02*
X79776500Y-130689400I-594500J0D01*
G01*
X79776500Y-130689400D02*
G75*
G02*
X80965500Y-130689400I594500J0D01*
G01*
X80965500Y-133229300D02*
G75*
G02*
X79776500Y-133229300I-594500J0D01*
G01*
X79776500Y-133229300D02*
G75*
G02*
X80965500Y-133229300I594500J0D01*
G01*
X80965500Y-135769300D02*
G75*
G02*
X79776500Y-135769300I-594500J0D01*
G01*
X79776500Y-135769300D02*
G75*
G02*
X80965500Y-135769300I594500J0D01*
G01*
X80965500Y-138309300D02*
G75*
G02*
X79776500Y-138309300I-594500J0D01*
G01*
X79776500Y-138309300D02*
G75*
G02*
X80965500Y-138309300I594500J0D01*
G01*
X80965500Y-140849300D02*
G75*
G02*
X79776500Y-140849300I-594500J0D01*
G01*
X79776500Y-140849300D02*
G75*
G02*
X80965500Y-140849300I594500J0D01*
G01*
X80965500Y-143389300D02*
G75*
G02*
X79776500Y-143389300I-594500J0D01*
G01*
X79776500Y-143389300D02*
G75*
G02*
X80965500Y-143389300I594500J0D01*
G01*
X81024400Y-147975600D02*
G75*
G02*
X79835400Y-147975600I-594500J0D01*
G01*
X79835400Y-147975600D02*
G75*
G02*
X81024400Y-147975600I594500J0D01*
G01*
X82175500Y-102129000D02*
G75*
G02*
X80986500Y-102129000I-594500J0D01*
G01*
X80986500Y-102129000D02*
G75*
G02*
X82175500Y-102129000I594500J0D01*
G01*
X82175500Y-104034000D02*
G75*
G02*
X80986500Y-104034000I-594500J0D01*
G01*
X80986500Y-104034000D02*
G75*
G02*
X82175500Y-104034000I594500J0D01*
G01*
X82937500Y-81174000D02*
G75*
G02*
X81748500Y-81174000I-594500J0D01*
G01*
X81748500Y-81174000D02*
G75*
G02*
X82937500Y-81174000I594500J0D01*
G01*
X83425200Y-121171400D02*
G75*
G02*
X82236200Y-121171400I-594500J0D01*
G01*
X82236200Y-121171400D02*
G75*
G02*
X83425200Y-121171400I594500J0D01*
G01*
X84715500Y-102129000D02*
G75*
G02*
X83526500Y-102129000I-594500J0D01*
G01*
X83526500Y-102129000D02*
G75*
G02*
X84715500Y-102129000I594500J0D01*
G01*
X84715500Y-104034000D02*
G75*
G02*
X83526500Y-104034000I-594500J0D01*
G01*
X83526500Y-104034000D02*
G75*
G02*
X84715500Y-104034000I594500J0D01*
G01*
X85477500Y-81174000D02*
G75*
G02*
X84288500Y-81174000I-594500J0D01*
G01*
X84288500Y-81174000D02*
G75*
G02*
X85477500Y-81174000I594500J0D01*
G01*
X88585500Y-125609400D02*
G75*
G02*
X87396500Y-125609400I-594500J0D01*
G01*
X87396500Y-125609400D02*
G75*
G02*
X88585500Y-125609400I594500J0D01*
G01*
X88585500Y-128149400D02*
G75*
G02*
X87396500Y-128149400I-594500J0D01*
G01*
X87396500Y-128149400D02*
G75*
G02*
X88585500Y-128149400I594500J0D01*
G01*
X88585500Y-130689400D02*
G75*
G02*
X87396500Y-130689400I-594500J0D01*
G01*
X87396500Y-130689400D02*
G75*
G02*
X88585500Y-130689400I594500J0D01*
G01*
X88585500Y-133229300D02*
G75*
G02*
X87396500Y-133229300I-594500J0D01*
G01*
X87396500Y-133229300D02*
G75*
G02*
X88585500Y-133229300I594500J0D01*
G01*
X88585500Y-135769300D02*
G75*
G02*
X87396500Y-135769300I-594500J0D01*
G01*
X87396500Y-135769300D02*
G75*
G02*
X88585500Y-135769300I594500J0D01*
G01*
X88585500Y-138309300D02*
G75*
G02*
X87396500Y-138309300I-594500J0D01*
G01*
X87396500Y-138309300D02*
G75*
G02*
X88585500Y-138309300I594500J0D01*
G01*
X88585500Y-140849300D02*
G75*
G02*
X87396500Y-140849300I-594500J0D01*
G01*
X87396500Y-140849300D02*
G75*
G02*
X88585500Y-140849300I594500J0D01*
G01*
X88585500Y-143389300D02*
G75*
G02*
X87396500Y-143389300I-594500J0D01*
G01*
X87396500Y-143389300D02*
G75*
G02*
X88585500Y-143389300I594500J0D01*
G01*
D12*
X91440250Y-44598000D02*
G75*
G02*
X88282750Y-44598000I-1578750J0D01*
G01*
X88282750Y-44598000D02*
G75*
G02*
X91440250Y-44598000I1578750J0D01*
G01*
D11*
X91099400Y-121181400D02*
G75*
G02*
X89910400Y-121181400I-594500J0D01*
G01*
X89910400Y-121181400D02*
G75*
G02*
X91099400Y-121181400I594500J0D01*
G01*
X91158800Y-125642600D02*
G75*
G02*
X89969800Y-125642600I-594500J0D01*
G01*
X89969800Y-125642600D02*
G75*
G02*
X91158800Y-125642600I594500J0D01*
G01*
X91158800Y-128182600D02*
G75*
G02*
X89969800Y-128182600I-594500J0D01*
G01*
X89969800Y-128182600D02*
G75*
G02*
X91158800Y-128182600I594500J0D01*
G01*
X91158800Y-130722700D02*
G75*
G02*
X89969800Y-130722700I-594500J0D01*
G01*
X89969800Y-130722700D02*
G75*
G02*
X91158800Y-130722700I594500J0D01*
G01*
X91158800Y-133262600D02*
G75*
G02*
X89969800Y-133262600I-594500J0D01*
G01*
X89969800Y-133262600D02*
G75*
G02*
X91158800Y-133262600I594500J0D01*
G01*
X91158800Y-135802600D02*
G75*
G02*
X89969800Y-135802600I-594500J0D01*
G01*
X89969800Y-135802600D02*
G75*
G02*
X91158800Y-135802600I594500J0D01*
G01*
X91158800Y-138342600D02*
G75*
G02*
X89969800Y-138342600I-594500J0D01*
G01*
X89969800Y-138342600D02*
G75*
G02*
X91158800Y-138342600I594500J0D01*
G01*
X91158800Y-140882600D02*
G75*
G02*
X89969800Y-140882600I-594500J0D01*
G01*
X89969800Y-140882600D02*
G75*
G02*
X91158800Y-140882600I594500J0D01*
G01*
X91158800Y-143422600D02*
G75*
G02*
X89969800Y-143422600I-594500J0D01*
G01*
X89969800Y-143422600D02*
G75*
G02*
X91158800Y-143422600I594500J0D01*
G01*
X91293800Y-60992900D02*
G75*
G02*
X90104800Y-60992900I-594500J0D01*
G01*
X90104800Y-60992900D02*
G75*
G02*
X91293800Y-60992900I594500J0D01*
G01*
X91319500Y-63521000D02*
G75*
G02*
X90130500Y-63521000I-594500J0D01*
G01*
X90130500Y-63521000D02*
G75*
G02*
X91319500Y-63521000I594500J0D01*
G01*
X91319500Y-66010200D02*
G75*
G02*
X90130500Y-66010200I-594500J0D01*
G01*
X90130500Y-66010200D02*
G75*
G02*
X91319500Y-66010200I594500J0D01*
G01*
X91319500Y-68474000D02*
G75*
G02*
X90130500Y-68474000I-594500J0D01*
G01*
X90130500Y-68474000D02*
G75*
G02*
X91319500Y-68474000I594500J0D01*
G01*
X92960800Y-93902900D02*
G75*
G02*
X91771800Y-93902900I-594500J0D01*
G01*
X91771800Y-93902900D02*
G75*
G02*
X92960800Y-93902900I594500J0D01*
G01*
X92960800Y-96544500D02*
G75*
G02*
X91771800Y-96544500I-594500J0D01*
G01*
X91771800Y-96544500D02*
G75*
G02*
X92960800Y-96544500I594500J0D01*
G01*
X93011600Y-91286700D02*
G75*
G02*
X91822600Y-91286700I-594500J0D01*
G01*
X91822600Y-91286700D02*
G75*
G02*
X93011600Y-91286700I594500J0D01*
G01*
X93075700Y-111044900D02*
G75*
G02*
X91886700Y-111044900I-594500J0D01*
G01*
X91886700Y-111044900D02*
G75*
G02*
X93075700Y-111044900I594500J0D01*
G01*
X93093900Y-108333800D02*
G75*
G02*
X91904900Y-108333800I-594500J0D01*
G01*
X91904900Y-108333800D02*
G75*
G02*
X93093900Y-108333800I594500J0D01*
G01*
X93093900Y-113667800D02*
G75*
G02*
X91904900Y-113667800I-594500J0D01*
G01*
X91904900Y-113667800D02*
G75*
G02*
X93093900Y-113667800I594500J0D01*
G01*
X93097500Y-71014000D02*
G75*
G02*
X91908500Y-71014000I-594500J0D01*
G01*
X91908500Y-71014000D02*
G75*
G02*
X93097500Y-71014000I594500J0D01*
G01*
X93097500Y-73808000D02*
G75*
G02*
X91908500Y-73808000I-594500J0D01*
G01*
X91908500Y-73808000D02*
G75*
G02*
X93097500Y-73808000I594500J0D01*
G01*
X93097500Y-76094000D02*
G75*
G02*
X91908500Y-76094000I-594500J0D01*
G01*
X91908500Y-76094000D02*
G75*
G02*
X93097500Y-76094000I594500J0D01*
G01*
X93097500Y-78634000D02*
G75*
G02*
X91908500Y-78634000I-594500J0D01*
G01*
X91908500Y-78634000D02*
G75*
G02*
X93097500Y-78634000I594500J0D01*
G01*
X93097500Y-83714000D02*
G75*
G02*
X91908500Y-83714000I-594500J0D01*
G01*
X91908500Y-83714000D02*
G75*
G02*
X93097500Y-83714000I594500J0D01*
G01*
X93097500Y-86254000D02*
G75*
G02*
X91908500Y-86254000I-594500J0D01*
G01*
X91908500Y-86254000D02*
G75*
G02*
X93097500Y-86254000I594500J0D01*
G01*
X93097500Y-88794000D02*
G75*
G02*
X91908500Y-88794000I-594500J0D01*
G01*
X91908500Y-88794000D02*
G75*
G02*
X93097500Y-88794000I594500J0D01*
G01*
X93815300Y-147846300D02*
G75*
G02*
X92626300Y-147846300I-594500J0D01*
G01*
X92626300Y-147846300D02*
G75*
G02*
X93815300Y-147846300I594500J0D01*
G01*
X93859500Y-62124000D02*
G75*
G02*
X92670500Y-62124000I-594500J0D01*
G01*
X92670500Y-62124000D02*
G75*
G02*
X93859500Y-62124000I594500J0D01*
G01*
X93859500Y-67204000D02*
G75*
G02*
X92670500Y-67204000I-594500J0D01*
G01*
X92670500Y-67204000D02*
G75*
G02*
X93859500Y-67204000I594500J0D01*
G01*
X94621500Y-51964000D02*
G75*
G02*
X93432500Y-51964000I-594500J0D01*
G01*
X93432500Y-51964000D02*
G75*
G02*
X94621500Y-51964000I594500J0D01*
G01*
X94918200Y-39431300D02*
G75*
G02*
X93729200Y-39431300I-594500J0D01*
G01*
X93729200Y-39431300D02*
G75*
G02*
X94918200Y-39431300I594500J0D01*
G01*
X96242600Y-106549000D02*
G75*
G02*
X95053600Y-106549000I-594500J0D01*
G01*
X95053600Y-106549000D02*
G75*
G02*
X96242600Y-106549000I594500J0D01*
G01*
X96242600Y-111690000D02*
G75*
G02*
X95053600Y-111690000I-594500J0D01*
G01*
X95053600Y-111690000D02*
G75*
G02*
X96242600Y-111690000I594500J0D01*
G01*
X96256600Y-101444100D02*
G75*
G02*
X95067600Y-101444100I-594500J0D01*
G01*
X95067600Y-101444100D02*
G75*
G02*
X96256600Y-101444100I594500J0D01*
G01*
X96256600Y-104001000D02*
G75*
G02*
X95067600Y-104001000I-594500J0D01*
G01*
X95067600Y-104001000D02*
G75*
G02*
X96256600Y-104001000I594500J0D01*
G01*
X96270600Y-109127000D02*
G75*
G02*
X95081600Y-109127000I-594500J0D01*
G01*
X95081600Y-109127000D02*
G75*
G02*
X96270600Y-109127000I594500J0D01*
G01*
X96281500Y-98924800D02*
G75*
G02*
X95092500Y-98924800I-594500J0D01*
G01*
X95092500Y-98924800D02*
G75*
G02*
X96281500Y-98924800I594500J0D01*
G01*
X96321600Y-74736900D02*
G75*
G02*
X95132600Y-74736900I-594500J0D01*
G01*
X95132600Y-74736900D02*
G75*
G02*
X96321600Y-74736900I594500J0D01*
G01*
X96321600Y-86243100D02*
G75*
G02*
X95132600Y-86243100I-594500J0D01*
G01*
X95132600Y-86243100D02*
G75*
G02*
X96321600Y-86243100I594500J0D01*
G01*
X96321600Y-88706900D02*
G75*
G02*
X95132600Y-88706900I-594500J0D01*
G01*
X95132600Y-88706900D02*
G75*
G02*
X96321600Y-88706900I594500J0D01*
G01*
X96321600Y-91246900D02*
G75*
G02*
X95132600Y-91246900I-594500J0D01*
G01*
X95132600Y-91246900D02*
G75*
G02*
X96321600Y-91246900I594500J0D01*
G01*
X96321600Y-93786900D02*
G75*
G02*
X95132600Y-93786900I-594500J0D01*
G01*
X95132600Y-93786900D02*
G75*
G02*
X96321600Y-93786900I594500J0D01*
G01*
X96321600Y-96326900D02*
G75*
G02*
X95132600Y-96326900I-594500J0D01*
G01*
X95132600Y-96326900D02*
G75*
G02*
X96321600Y-96326900I594500J0D01*
G01*
X96399500Y-81174000D02*
G75*
G02*
X95210500Y-81174000I-594500J0D01*
G01*
X95210500Y-81174000D02*
G75*
G02*
X96399500Y-81174000I594500J0D01*
G01*
X97415500Y-39518000D02*
G75*
G02*
X96226500Y-39518000I-594500J0D01*
G01*
X96226500Y-39518000D02*
G75*
G02*
X97415500Y-39518000I594500J0D01*
G01*
X97415500Y-51964000D02*
G75*
G02*
X96226500Y-51964000I-594500J0D01*
G01*
X96226500Y-51964000D02*
G75*
G02*
X97415500Y-51964000I594500J0D01*
G01*
X97611200Y-55853600D02*
G75*
G02*
X96422200Y-55853600I-594500J0D01*
G01*
X96422200Y-55853600D02*
G75*
G02*
X97611200Y-55853600I594500J0D01*
G01*
D14*
X98622000Y-31821800D02*
G75*
G02*
X96544000Y-31821800I-1039000J0D01*
G01*
X96544000Y-31821800D02*
G75*
G02*
X98622000Y-31821800I1039000J0D01*
G01*
X98622000Y-35962000D02*
G75*
G02*
X96544000Y-35962000I-1039000J0D01*
G01*
X96544000Y-35962000D02*
G75*
G02*
X98622000Y-35962000I1039000J0D01*
G01*
D11*
X98778800Y-125642600D02*
G75*
G02*
X97589800Y-125642600I-594500J0D01*
G01*
X97589800Y-125642600D02*
G75*
G02*
X98778800Y-125642600I594500J0D01*
G01*
X98778800Y-128182600D02*
G75*
G02*
X97589800Y-128182600I-594500J0D01*
G01*
X97589800Y-128182600D02*
G75*
G02*
X98778800Y-128182600I594500J0D01*
G01*
X98778800Y-130722700D02*
G75*
G02*
X97589800Y-130722700I-594500J0D01*
G01*
X97589800Y-130722700D02*
G75*
G02*
X98778800Y-130722700I594500J0D01*
G01*
X98778800Y-133262600D02*
G75*
G02*
X97589800Y-133262600I-594500J0D01*
G01*
X97589800Y-133262600D02*
G75*
G02*
X98778800Y-133262600I594500J0D01*
G01*
X98778800Y-135802600D02*
G75*
G02*
X97589800Y-135802600I-594500J0D01*
G01*
X97589800Y-135802600D02*
G75*
G02*
X98778800Y-135802600I594500J0D01*
G01*
X98778800Y-138342600D02*
G75*
G02*
X97589800Y-138342600I-594500J0D01*
G01*
X97589800Y-138342600D02*
G75*
G02*
X98778800Y-138342600I594500J0D01*
G01*
X98778800Y-140882600D02*
G75*
G02*
X97589800Y-140882600I-594500J0D01*
G01*
X97589800Y-140882600D02*
G75*
G02*
X98778800Y-140882600I594500J0D01*
G01*
X98778800Y-143422600D02*
G75*
G02*
X97589800Y-143422600I-594500J0D01*
G01*
X97589800Y-143422600D02*
G75*
G02*
X98778800Y-143422600I594500J0D01*
G01*
X98939500Y-78634000D02*
G75*
G02*
X97750500Y-78634000I-594500J0D01*
G01*
X97750500Y-78634000D02*
G75*
G02*
X98939500Y-78634000I594500J0D01*
G01*
X98939500Y-81174000D02*
G75*
G02*
X97750500Y-81174000I-594500J0D01*
G01*
X97750500Y-81174000D02*
G75*
G02*
X98939500Y-81174000I594500J0D01*
G01*
X98939500Y-83714000D02*
G75*
G02*
X97750500Y-83714000I-594500J0D01*
G01*
X97750500Y-83714000D02*
G75*
G02*
X98939500Y-83714000I594500J0D01*
G01*
X99955500Y-39518000D02*
G75*
G02*
X98766500Y-39518000I-594500J0D01*
G01*
X98766500Y-39518000D02*
G75*
G02*
X99955500Y-39518000I594500J0D01*
G01*
X99955500Y-51964000D02*
G75*
G02*
X98766500Y-51964000I-594500J0D01*
G01*
X98766500Y-51964000D02*
G75*
G02*
X99955500Y-51964000I594500J0D01*
G01*
X101385200Y-125617800D02*
G75*
G02*
X100196200Y-125617800I-594500J0D01*
G01*
X100196200Y-125617800D02*
G75*
G02*
X101385200Y-125617800I594500J0D01*
G01*
X101385200Y-128157800D02*
G75*
G02*
X100196200Y-128157800I-594500J0D01*
G01*
X100196200Y-128157800D02*
G75*
G02*
X101385200Y-128157800I594500J0D01*
G01*
X101385200Y-130697800D02*
G75*
G02*
X100196200Y-130697800I-594500J0D01*
G01*
X100196200Y-130697800D02*
G75*
G02*
X101385200Y-130697800I594500J0D01*
G01*
X101385200Y-133237800D02*
G75*
G02*
X100196200Y-133237800I-594500J0D01*
G01*
X100196200Y-133237800D02*
G75*
G02*
X101385200Y-133237800I594500J0D01*
G01*
X101385200Y-135777800D02*
G75*
G02*
X100196200Y-135777800I-594500J0D01*
G01*
X100196200Y-135777800D02*
G75*
G02*
X101385200Y-135777800I594500J0D01*
G01*
X101385200Y-138317800D02*
G75*
G02*
X100196200Y-138317800I-594500J0D01*
G01*
X100196200Y-138317800D02*
G75*
G02*
X101385200Y-138317800I594500J0D01*
G01*
X101385200Y-140857800D02*
G75*
G02*
X100196200Y-140857800I-594500J0D01*
G01*
X100196200Y-140857800D02*
G75*
G02*
X101385200Y-140857800I594500J0D01*
G01*
X101385200Y-143397800D02*
G75*
G02*
X100196200Y-143397800I-594500J0D01*
G01*
X100196200Y-143397800D02*
G75*
G02*
X101385200Y-143397800I594500J0D01*
G01*
X101401500Y-147803200D02*
G75*
G02*
X100212500Y-147803200I-594500J0D01*
G01*
X100212500Y-147803200D02*
G75*
G02*
X101401500Y-147803200I594500J0D01*
G01*
X102495500Y-39518000D02*
G75*
G02*
X101306500Y-39518000I-594500J0D01*
G01*
X101306500Y-39518000D02*
G75*
G02*
X102495500Y-39518000I594500J0D01*
G01*
X102495500Y-51964000D02*
G75*
G02*
X101306500Y-51964000I-594500J0D01*
G01*
X101306500Y-51964000D02*
G75*
G02*
X102495500Y-51964000I594500J0D01*
G01*
X102749500Y-55774000D02*
G75*
G02*
X101560500Y-55774000I-594500J0D01*
G01*
X101560500Y-55774000D02*
G75*
G02*
X102749500Y-55774000I594500J0D01*
G01*
X103880000Y-121273000D02*
G75*
G02*
X102691000Y-121273000I-594500J0D01*
G01*
X102691000Y-121273000D02*
G75*
G02*
X103880000Y-121273000I594500J0D01*
G01*
X105035500Y-39518000D02*
G75*
G02*
X103846500Y-39518000I-594500J0D01*
G01*
X103846500Y-39518000D02*
G75*
G02*
X105035500Y-39518000I594500J0D01*
G01*
X105035500Y-51964000D02*
G75*
G02*
X103846500Y-51964000I-594500J0D01*
G01*
X103846500Y-51964000D02*
G75*
G02*
X105035500Y-51964000I594500J0D01*
G01*
X106305500Y-78634000D02*
G75*
G02*
X105116500Y-78634000I-594500J0D01*
G01*
X105116500Y-78634000D02*
G75*
G02*
X106305500Y-78634000I594500J0D01*
G01*
X106305500Y-81174000D02*
G75*
G02*
X105116500Y-81174000I-594500J0D01*
G01*
X105116500Y-81174000D02*
G75*
G02*
X106305500Y-81174000I594500J0D01*
G01*
X106305500Y-83714000D02*
G75*
G02*
X105116500Y-83714000I-594500J0D01*
G01*
X105116500Y-83714000D02*
G75*
G02*
X106305500Y-83714000I594500J0D01*
G01*
X107575500Y-51964000D02*
G75*
G02*
X106386500Y-51964000I-594500J0D01*
G01*
X106386500Y-51964000D02*
G75*
G02*
X107575500Y-51964000I594500J0D01*
G01*
X107600900Y-39518000D02*
G75*
G02*
X106411900Y-39518000I-594500J0D01*
G01*
X106411900Y-39518000D02*
G75*
G02*
X107600900Y-39518000I594500J0D01*
G01*
D14*
X108274000Y-35962000D02*
G75*
G02*
X106196000Y-35962000I-1039000J0D01*
G01*
X106196000Y-35962000D02*
G75*
G02*
X108274000Y-35962000I1039000J0D01*
G01*
D11*
X108845500Y-81174000D02*
G75*
G02*
X107656500Y-81174000I-594500J0D01*
G01*
X107656500Y-81174000D02*
G75*
G02*
X108845500Y-81174000I594500J0D01*
G01*
X108883700Y-106512600D02*
G75*
G02*
X107694700Y-106512600I-594500J0D01*
G01*
X107694700Y-106512600D02*
G75*
G02*
X108883700Y-106512600I594500J0D01*
G01*
X108883700Y-111653600D02*
G75*
G02*
X107694700Y-111653600I-594500J0D01*
G01*
X107694700Y-111653600D02*
G75*
G02*
X108883700Y-111653600I594500J0D01*
G01*
X108897700Y-101407700D02*
G75*
G02*
X107708700Y-101407700I-594500J0D01*
G01*
X107708700Y-101407700D02*
G75*
G02*
X108897700Y-101407700I594500J0D01*
G01*
X108897700Y-103964600D02*
G75*
G02*
X107708700Y-103964600I-594500J0D01*
G01*
X107708700Y-103964600D02*
G75*
G02*
X108897700Y-103964600I594500J0D01*
G01*
X108911700Y-109090600D02*
G75*
G02*
X107722700Y-109090600I-594500J0D01*
G01*
X107722700Y-109090600D02*
G75*
G02*
X108911700Y-109090600I594500J0D01*
G01*
X108922700Y-98888400D02*
G75*
G02*
X107733700Y-98888400I-594500J0D01*
G01*
X107733700Y-98888400D02*
G75*
G02*
X108922700Y-98888400I594500J0D01*
G01*
X108962800Y-74700500D02*
G75*
G02*
X107773800Y-74700500I-594500J0D01*
G01*
X107773800Y-74700500D02*
G75*
G02*
X108962800Y-74700500I594500J0D01*
G01*
X108962800Y-86206700D02*
G75*
G02*
X107773800Y-86206700I-594500J0D01*
G01*
X107773800Y-86206700D02*
G75*
G02*
X108962800Y-86206700I594500J0D01*
G01*
X108962800Y-88670500D02*
G75*
G02*
X107773800Y-88670500I-594500J0D01*
G01*
X107773800Y-88670500D02*
G75*
G02*
X108962800Y-88670500I594500J0D01*
G01*
X108962800Y-91210500D02*
G75*
G02*
X107773800Y-91210500I-594500J0D01*
G01*
X107773800Y-91210500D02*
G75*
G02*
X108962800Y-91210500I594500J0D01*
G01*
X108962800Y-93750500D02*
G75*
G02*
X107773800Y-93750500I-594500J0D01*
G01*
X107773800Y-93750500D02*
G75*
G02*
X108962800Y-93750500I594500J0D01*
G01*
X108962800Y-96290500D02*
G75*
G02*
X107773800Y-96290500I-594500J0D01*
G01*
X107773800Y-96290500D02*
G75*
G02*
X108962800Y-96290500I594500J0D01*
G01*
X109005200Y-125617800D02*
G75*
G02*
X107816200Y-125617800I-594500J0D01*
G01*
X107816200Y-125617800D02*
G75*
G02*
X109005200Y-125617800I594500J0D01*
G01*
X109005200Y-128157800D02*
G75*
G02*
X107816200Y-128157800I-594500J0D01*
G01*
X107816200Y-128157800D02*
G75*
G02*
X109005200Y-128157800I594500J0D01*
G01*
X109005200Y-130697800D02*
G75*
G02*
X107816200Y-130697800I-594500J0D01*
G01*
X107816200Y-130697800D02*
G75*
G02*
X109005200Y-130697800I594500J0D01*
G01*
X109005200Y-133237800D02*
G75*
G02*
X107816200Y-133237800I-594500J0D01*
G01*
X107816200Y-133237800D02*
G75*
G02*
X109005200Y-133237800I594500J0D01*
G01*
X109005200Y-135777800D02*
G75*
G02*
X107816200Y-135777800I-594500J0D01*
G01*
X107816200Y-135777800D02*
G75*
G02*
X109005200Y-135777800I594500J0D01*
G01*
X109005200Y-138317800D02*
G75*
G02*
X107816200Y-138317800I-594500J0D01*
G01*
X107816200Y-138317800D02*
G75*
G02*
X109005200Y-138317800I594500J0D01*
G01*
X109005200Y-140857800D02*
G75*
G02*
X107816200Y-140857800I-594500J0D01*
G01*
X107816200Y-140857800D02*
G75*
G02*
X109005200Y-140857800I594500J0D01*
G01*
X109005200Y-143397800D02*
G75*
G02*
X107816200Y-143397800I-594500J0D01*
G01*
X107816200Y-143397800D02*
G75*
G02*
X109005200Y-143397800I594500J0D01*
G01*
X110115500Y-51964000D02*
G75*
G02*
X108926500Y-51964000I-594500J0D01*
G01*
X108926500Y-51964000D02*
G75*
G02*
X110115500Y-51964000I594500J0D01*
G01*
X110293300Y-39518000D02*
G75*
G02*
X109104300Y-39518000I-594500J0D01*
G01*
X109104300Y-39518000D02*
G75*
G02*
X110293300Y-39518000I594500J0D01*
G01*
X111472800Y-121190600D02*
G75*
G02*
X110283800Y-121190600I-594500J0D01*
G01*
X110283800Y-121190600D02*
G75*
G02*
X111472800Y-121190600I594500J0D01*
G01*
X111576300Y-125607200D02*
G75*
G02*
X110387300Y-125607200I-594500J0D01*
G01*
X110387300Y-125607200D02*
G75*
G02*
X111576300Y-125607200I594500J0D01*
G01*
X111576300Y-128147200D02*
G75*
G02*
X110387300Y-128147200I-594500J0D01*
G01*
X110387300Y-128147200D02*
G75*
G02*
X111576300Y-128147200I594500J0D01*
G01*
X111576300Y-130687200D02*
G75*
G02*
X110387300Y-130687200I-594500J0D01*
G01*
X110387300Y-130687200D02*
G75*
G02*
X111576300Y-130687200I594500J0D01*
G01*
X111576300Y-133227200D02*
G75*
G02*
X110387300Y-133227200I-594500J0D01*
G01*
X110387300Y-133227200D02*
G75*
G02*
X111576300Y-133227200I594500J0D01*
G01*
X111576300Y-135767200D02*
G75*
G02*
X110387300Y-135767200I-594500J0D01*
G01*
X110387300Y-135767200D02*
G75*
G02*
X111576300Y-135767200I594500J0D01*
G01*
X111576300Y-138307200D02*
G75*
G02*
X110387300Y-138307200I-594500J0D01*
G01*
X110387300Y-138307200D02*
G75*
G02*
X111576300Y-138307200I594500J0D01*
G01*
X111576300Y-140847200D02*
G75*
G02*
X110387300Y-140847200I-594500J0D01*
G01*
X110387300Y-140847200D02*
G75*
G02*
X111576300Y-140847200I594500J0D01*
G01*
X111576300Y-143387200D02*
G75*
G02*
X110387300Y-143387200I-594500J0D01*
G01*
X110387300Y-143387200D02*
G75*
G02*
X111576300Y-143387200I594500J0D01*
G01*
X111639500Y-65934000D02*
G75*
G02*
X110450500Y-65934000I-594500J0D01*
G01*
X110450500Y-65934000D02*
G75*
G02*
X111639500Y-65934000I594500J0D01*
G01*
X111639500Y-68474000D02*
G75*
G02*
X110450500Y-68474000I-594500J0D01*
G01*
X110450500Y-68474000D02*
G75*
G02*
X111639500Y-68474000I594500J0D01*
G01*
X111639500Y-71014000D02*
G75*
G02*
X110450500Y-71014000I-594500J0D01*
G01*
X110450500Y-71014000D02*
G75*
G02*
X111639500Y-71014000I594500J0D01*
G01*
X111639500Y-73554000D02*
G75*
G02*
X110450500Y-73554000I-594500J0D01*
G01*
X110450500Y-73554000D02*
G75*
G02*
X111639500Y-73554000I594500J0D01*
G01*
X111639500Y-76094000D02*
G75*
G02*
X110450500Y-76094000I-594500J0D01*
G01*
X110450500Y-76094000D02*
G75*
G02*
X111639500Y-76094000I594500J0D01*
G01*
X111639500Y-78634000D02*
G75*
G02*
X110450500Y-78634000I-594500J0D01*
G01*
X110450500Y-78634000D02*
G75*
G02*
X111639500Y-78634000I594500J0D01*
G01*
X111639500Y-81174000D02*
G75*
G02*
X110450500Y-81174000I-594500J0D01*
G01*
X110450500Y-81174000D02*
G75*
G02*
X111639500Y-81174000I594500J0D01*
G01*
X111639500Y-83714000D02*
G75*
G02*
X110450500Y-83714000I-594500J0D01*
G01*
X110450500Y-83714000D02*
G75*
G02*
X111639500Y-83714000I594500J0D01*
G01*
X111639500Y-86254000D02*
G75*
G02*
X110450500Y-86254000I-594500J0D01*
G01*
X110450500Y-86254000D02*
G75*
G02*
X111639500Y-86254000I594500J0D01*
G01*
X111639500Y-88794000D02*
G75*
G02*
X110450500Y-88794000I-594500J0D01*
G01*
X110450500Y-88794000D02*
G75*
G02*
X111639500Y-88794000I594500J0D01*
G01*
X111639500Y-91334000D02*
G75*
G02*
X110450500Y-91334000I-594500J0D01*
G01*
X110450500Y-91334000D02*
G75*
G02*
X111639500Y-91334000I594500J0D01*
G01*
X111639500Y-93874000D02*
G75*
G02*
X110450500Y-93874000I-594500J0D01*
G01*
X110450500Y-93874000D02*
G75*
G02*
X111639500Y-93874000I594500J0D01*
G01*
X111639500Y-96414000D02*
G75*
G02*
X110450500Y-96414000I-594500J0D01*
G01*
X110450500Y-96414000D02*
G75*
G02*
X111639500Y-96414000I594500J0D01*
G01*
X111639500Y-98954000D02*
G75*
G02*
X110450500Y-98954000I-594500J0D01*
G01*
X110450500Y-98954000D02*
G75*
G02*
X111639500Y-98954000I594500J0D01*
G01*
X111639500Y-101494000D02*
G75*
G02*
X110450500Y-101494000I-594500J0D01*
G01*
X110450500Y-101494000D02*
G75*
G02*
X111639500Y-101494000I594500J0D01*
G01*
X111639500Y-104034000D02*
G75*
G02*
X110450500Y-104034000I-594500J0D01*
G01*
X110450500Y-104034000D02*
G75*
G02*
X111639500Y-104034000I594500J0D01*
G01*
X111639500Y-106574000D02*
G75*
G02*
X110450500Y-106574000I-594500J0D01*
G01*
X110450500Y-106574000D02*
G75*
G02*
X111639500Y-106574000I594500J0D01*
G01*
X111639500Y-109114000D02*
G75*
G02*
X110450500Y-109114000I-594500J0D01*
G01*
X110450500Y-109114000D02*
G75*
G02*
X111639500Y-109114000I594500J0D01*
G01*
X111639500Y-111654000D02*
G75*
G02*
X110450500Y-111654000I-594500J0D01*
G01*
X110450500Y-111654000D02*
G75*
G02*
X111639500Y-111654000I594500J0D01*
G01*
X111639500Y-114194000D02*
G75*
G02*
X110450500Y-114194000I-594500J0D01*
G01*
X110450500Y-114194000D02*
G75*
G02*
X111639500Y-114194000I594500J0D01*
G01*
D14*
X113354000Y-31821800D02*
G75*
G02*
X111276000Y-31821800I-1039000J0D01*
G01*
X111276000Y-31821800D02*
G75*
G02*
X113354000Y-31821800I1039000J0D01*
G01*
X113354000Y-35962000D02*
G75*
G02*
X111276000Y-35962000I-1039000J0D01*
G01*
X111276000Y-35962000D02*
G75*
G02*
X113354000Y-35962000I1039000J0D01*
G01*
D11*
X113015600Y-41972800D02*
G75*
G02*
X111826600Y-41972800I-594500J0D01*
G01*
X111826600Y-41972800D02*
G75*
G02*
X113015600Y-41972800I594500J0D01*
G01*
X113015600Y-44512800D02*
G75*
G02*
X111826600Y-44512800I-594500J0D01*
G01*
X111826600Y-44512800D02*
G75*
G02*
X113015600Y-44512800I594500J0D01*
G01*
X113015600Y-47052800D02*
G75*
G02*
X111826600Y-47052800I-594500J0D01*
G01*
X111826600Y-47052800D02*
G75*
G02*
X113015600Y-47052800I594500J0D01*
G01*
X113015600Y-49592800D02*
G75*
G02*
X111826600Y-49592800I-594500J0D01*
G01*
X111826600Y-49592800D02*
G75*
G02*
X113015600Y-49592800I594500J0D01*
G01*
X113015600Y-52132800D02*
G75*
G02*
X111826600Y-52132800I-594500J0D01*
G01*
X111826600Y-52132800D02*
G75*
G02*
X113015600Y-52132800I594500J0D01*
G01*
X113015600Y-54672800D02*
G75*
G02*
X111826600Y-54672800I-594500J0D01*
G01*
X111826600Y-54672800D02*
G75*
G02*
X113015600Y-54672800I594500J0D01*
G01*
X113015600Y-57212800D02*
G75*
G02*
X111826600Y-57212800I-594500J0D01*
G01*
X111826600Y-57212800D02*
G75*
G02*
X113015600Y-57212800I594500J0D01*
G01*
X113015600Y-59752800D02*
G75*
G02*
X111826600Y-59752800I-594500J0D01*
G01*
X111826600Y-59752800D02*
G75*
G02*
X113015600Y-59752800I594500J0D01*
G01*
X113015600Y-62292800D02*
G75*
G02*
X111826600Y-62292800I-594500J0D01*
G01*
X111826600Y-62292800D02*
G75*
G02*
X113015600Y-62292800I594500J0D01*
G01*
X114084700Y-147781700D02*
G75*
G02*
X112895700Y-147781700I-594500J0D01*
G01*
X112895700Y-147781700D02*
G75*
G02*
X114084700Y-147781700I594500J0D01*
G01*
X119196300Y-125607200D02*
G75*
G02*
X118007300Y-125607200I-594500J0D01*
G01*
X118007300Y-125607200D02*
G75*
G02*
X119196300Y-125607200I594500J0D01*
G01*
X119196300Y-128147200D02*
G75*
G02*
X118007300Y-128147200I-594500J0D01*
G01*
X118007300Y-128147200D02*
G75*
G02*
X119196300Y-128147200I594500J0D01*
G01*
X119196300Y-130687200D02*
G75*
G02*
X118007300Y-130687200I-594500J0D01*
G01*
X118007300Y-130687200D02*
G75*
G02*
X119196300Y-130687200I594500J0D01*
G01*
X119196300Y-133227200D02*
G75*
G02*
X118007300Y-133227200I-594500J0D01*
G01*
X118007300Y-133227200D02*
G75*
G02*
X119196300Y-133227200I594500J0D01*
G01*
X119196300Y-135767200D02*
G75*
G02*
X118007300Y-135767200I-594500J0D01*
G01*
X118007300Y-135767200D02*
G75*
G02*
X119196300Y-135767200I594500J0D01*
G01*
X119196300Y-138307200D02*
G75*
G02*
X118007300Y-138307200I-594500J0D01*
G01*
X118007300Y-138307200D02*
G75*
G02*
X119196300Y-138307200I594500J0D01*
G01*
X119196300Y-140847200D02*
G75*
G02*
X118007300Y-140847200I-594500J0D01*
G01*
X118007300Y-140847200D02*
G75*
G02*
X119196300Y-140847200I594500J0D01*
G01*
X119196300Y-143387200D02*
G75*
G02*
X118007300Y-143387200I-594500J0D01*
G01*
X118007300Y-143387200D02*
G75*
G02*
X119196300Y-143387200I594500J0D01*
G01*
X121617100Y-147749400D02*
G75*
G02*
X120428100Y-147749400I-594500J0D01*
G01*
X120428100Y-147749400D02*
G75*
G02*
X121617100Y-147749400I594500J0D01*
G01*
X121785700Y-125607100D02*
G75*
G02*
X120596700Y-125607100I-594500J0D01*
G01*
X120596700Y-125607100D02*
G75*
G02*
X121785700Y-125607100I594500J0D01*
G01*
X121785700Y-128147100D02*
G75*
G02*
X120596700Y-128147100I-594500J0D01*
G01*
X120596700Y-128147100D02*
G75*
G02*
X121785700Y-128147100I594500J0D01*
G01*
X121785700Y-130687100D02*
G75*
G02*
X120596700Y-130687100I-594500J0D01*
G01*
X120596700Y-130687100D02*
G75*
G02*
X121785700Y-130687100I594500J0D01*
G01*
X121785700Y-133227100D02*
G75*
G02*
X120596700Y-133227100I-594500J0D01*
G01*
X120596700Y-133227100D02*
G75*
G02*
X121785700Y-133227100I594500J0D01*
G01*
X121785700Y-135767100D02*
G75*
G02*
X120596700Y-135767100I-594500J0D01*
G01*
X120596700Y-135767100D02*
G75*
G02*
X121785700Y-135767100I594500J0D01*
G01*
X121785700Y-138307100D02*
G75*
G02*
X120596700Y-138307100I-594500J0D01*
G01*
X120596700Y-138307100D02*
G75*
G02*
X121785700Y-138307100I594500J0D01*
G01*
X121785700Y-140847100D02*
G75*
G02*
X120596700Y-140847100I-594500J0D01*
G01*
X120596700Y-140847100D02*
G75*
G02*
X121785700Y-140847100I594500J0D01*
G01*
X121785700Y-143387100D02*
G75*
G02*
X120596700Y-143387100I-594500J0D01*
G01*
X120596700Y-143387100D02*
G75*
G02*
X121785700Y-143387100I594500J0D01*
G01*
D14*
X123006000Y-35962000D02*
G75*
G02*
X120928000Y-35962000I-1039000J0D01*
G01*
X120928000Y-35962000D02*
G75*
G02*
X123006000Y-35962000I1039000J0D01*
G01*
D11*
X124168600Y-121190600D02*
G75*
G02*
X122979600Y-121190600I-594500J0D01*
G01*
X122979600Y-121190600D02*
G75*
G02*
X124168600Y-121190600I594500J0D01*
G01*
X125656700Y-41936400D02*
G75*
G02*
X124467700Y-41936400I-594500J0D01*
G01*
X124467700Y-41936400D02*
G75*
G02*
X125656700Y-41936400I594500J0D01*
G01*
X125656700Y-44476400D02*
G75*
G02*
X124467700Y-44476400I-594500J0D01*
G01*
X124467700Y-44476400D02*
G75*
G02*
X125656700Y-44476400I594500J0D01*
G01*
X125656700Y-47016400D02*
G75*
G02*
X124467700Y-47016400I-594500J0D01*
G01*
X124467700Y-47016400D02*
G75*
G02*
X125656700Y-47016400I594500J0D01*
G01*
X125656700Y-49556400D02*
G75*
G02*
X124467700Y-49556400I-594500J0D01*
G01*
X124467700Y-49556400D02*
G75*
G02*
X125656700Y-49556400I594500J0D01*
G01*
X125656700Y-52096400D02*
G75*
G02*
X124467700Y-52096400I-594500J0D01*
G01*
X124467700Y-52096400D02*
G75*
G02*
X125656700Y-52096400I594500J0D01*
G01*
X125656700Y-54636400D02*
G75*
G02*
X124467700Y-54636400I-594500J0D01*
G01*
X124467700Y-54636400D02*
G75*
G02*
X125656700Y-54636400I594500J0D01*
G01*
X125656700Y-57176400D02*
G75*
G02*
X124467700Y-57176400I-594500J0D01*
G01*
X124467700Y-57176400D02*
G75*
G02*
X125656700Y-57176400I594500J0D01*
G01*
X125656700Y-59716400D02*
G75*
G02*
X124467700Y-59716400I-594500J0D01*
G01*
X124467700Y-59716400D02*
G75*
G02*
X125656700Y-59716400I594500J0D01*
G01*
X125656700Y-62256400D02*
G75*
G02*
X124467700Y-62256400I-594500J0D01*
G01*
X124467700Y-62256400D02*
G75*
G02*
X125656700Y-62256400I594500J0D01*
G01*
X126879500Y-65934000D02*
G75*
G02*
X125690500Y-65934000I-594500J0D01*
G01*
X125690500Y-65934000D02*
G75*
G02*
X126879500Y-65934000I594500J0D01*
G01*
X126879500Y-68474000D02*
G75*
G02*
X125690500Y-68474000I-594500J0D01*
G01*
X125690500Y-68474000D02*
G75*
G02*
X126879500Y-68474000I594500J0D01*
G01*
X126879500Y-71014000D02*
G75*
G02*
X125690500Y-71014000I-594500J0D01*
G01*
X125690500Y-71014000D02*
G75*
G02*
X126879500Y-71014000I594500J0D01*
G01*
X126879500Y-73554000D02*
G75*
G02*
X125690500Y-73554000I-594500J0D01*
G01*
X125690500Y-73554000D02*
G75*
G02*
X126879500Y-73554000I594500J0D01*
G01*
X126879500Y-76094000D02*
G75*
G02*
X125690500Y-76094000I-594500J0D01*
G01*
X125690500Y-76094000D02*
G75*
G02*
X126879500Y-76094000I594500J0D01*
G01*
X126879500Y-78634000D02*
G75*
G02*
X125690500Y-78634000I-594500J0D01*
G01*
X125690500Y-78634000D02*
G75*
G02*
X126879500Y-78634000I594500J0D01*
G01*
X126879500Y-81174000D02*
G75*
G02*
X125690500Y-81174000I-594500J0D01*
G01*
X125690500Y-81174000D02*
G75*
G02*
X126879500Y-81174000I594500J0D01*
G01*
X126879500Y-83714000D02*
G75*
G02*
X125690500Y-83714000I-594500J0D01*
G01*
X125690500Y-83714000D02*
G75*
G02*
X126879500Y-83714000I594500J0D01*
G01*
X126879500Y-86254000D02*
G75*
G02*
X125690500Y-86254000I-594500J0D01*
G01*
X125690500Y-86254000D02*
G75*
G02*
X126879500Y-86254000I594500J0D01*
G01*
X126879500Y-88794000D02*
G75*
G02*
X125690500Y-88794000I-594500J0D01*
G01*
X125690500Y-88794000D02*
G75*
G02*
X126879500Y-88794000I594500J0D01*
G01*
X126879500Y-91334000D02*
G75*
G02*
X125690500Y-91334000I-594500J0D01*
G01*
X125690500Y-91334000D02*
G75*
G02*
X126879500Y-91334000I594500J0D01*
G01*
X126879500Y-93874000D02*
G75*
G02*
X125690500Y-93874000I-594500J0D01*
G01*
X125690500Y-93874000D02*
G75*
G02*
X126879500Y-93874000I594500J0D01*
G01*
X126879500Y-96414000D02*
G75*
G02*
X125690500Y-96414000I-594500J0D01*
G01*
X125690500Y-96414000D02*
G75*
G02*
X126879500Y-96414000I594500J0D01*
G01*
X126879500Y-98954000D02*
G75*
G02*
X125690500Y-98954000I-594500J0D01*
G01*
X125690500Y-98954000D02*
G75*
G02*
X126879500Y-98954000I594500J0D01*
G01*
X126879500Y-101494000D02*
G75*
G02*
X125690500Y-101494000I-594500J0D01*
G01*
X125690500Y-101494000D02*
G75*
G02*
X126879500Y-101494000I594500J0D01*
G01*
X126879500Y-104034000D02*
G75*
G02*
X125690500Y-104034000I-594500J0D01*
G01*
X125690500Y-104034000D02*
G75*
G02*
X126879500Y-104034000I594500J0D01*
G01*
X126879500Y-106574000D02*
G75*
G02*
X125690500Y-106574000I-594500J0D01*
G01*
X125690500Y-106574000D02*
G75*
G02*
X126879500Y-106574000I594500J0D01*
G01*
X126879500Y-109114000D02*
G75*
G02*
X125690500Y-109114000I-594500J0D01*
G01*
X125690500Y-109114000D02*
G75*
G02*
X126879500Y-109114000I594500J0D01*
G01*
X126879500Y-111654000D02*
G75*
G02*
X125690500Y-111654000I-594500J0D01*
G01*
X125690500Y-111654000D02*
G75*
G02*
X126879500Y-111654000I594500J0D01*
G01*
X126879500Y-114194000D02*
G75*
G02*
X125690500Y-114194000I-594500J0D01*
G01*
X125690500Y-114194000D02*
G75*
G02*
X126879500Y-114194000I594500J0D01*
G01*
X129323400Y-111609600D02*
G75*
G02*
X128134400Y-111609600I-594500J0D01*
G01*
X128134400Y-111609600D02*
G75*
G02*
X129323400Y-111609600I594500J0D01*
G01*
X129341600Y-96326900D02*
G75*
G02*
X128152600Y-96326900I-594500J0D01*
G01*
X128152600Y-96326900D02*
G75*
G02*
X129341600Y-96326900I594500J0D01*
G01*
X129341600Y-98866900D02*
G75*
G02*
X128152600Y-98866900I-594500J0D01*
G01*
X128152600Y-98866900D02*
G75*
G02*
X129341600Y-98866900I594500J0D01*
G01*
X129341600Y-101406900D02*
G75*
G02*
X128152600Y-101406900I-594500J0D01*
G01*
X128152600Y-101406900D02*
G75*
G02*
X129341600Y-101406900I594500J0D01*
G01*
X129341600Y-103922800D02*
G75*
G02*
X128152600Y-103922800I-594500J0D01*
G01*
X128152600Y-103922800D02*
G75*
G02*
X129341600Y-103922800I594500J0D01*
G01*
X129341600Y-106486900D02*
G75*
G02*
X128152600Y-106486900I-594500J0D01*
G01*
X128152600Y-106486900D02*
G75*
G02*
X129341600Y-106486900I594500J0D01*
G01*
X129341600Y-109026900D02*
G75*
G02*
X128152600Y-109026900I-594500J0D01*
G01*
X128152600Y-109026900D02*
G75*
G02*
X129341600Y-109026900I594500J0D01*
G01*
X129341600Y-114106900D02*
G75*
G02*
X128152600Y-114106900I-594500J0D01*
G01*
X128152600Y-114106900D02*
G75*
G02*
X129341600Y-114106900I594500J0D01*
G01*
X129341600Y-116621500D02*
G75*
G02*
X128152600Y-116621500I-594500J0D01*
G01*
X128152600Y-116621500D02*
G75*
G02*
X129341600Y-116621500I594500J0D01*
G01*
X129341600Y-119186900D02*
G75*
G02*
X128152600Y-119186900I-594500J0D01*
G01*
X128152600Y-119186900D02*
G75*
G02*
X129341600Y-119186900I594500J0D01*
G01*
X129405700Y-125607100D02*
G75*
G02*
X128216700Y-125607100I-594500J0D01*
G01*
X128216700Y-125607100D02*
G75*
G02*
X129405700Y-125607100I594500J0D01*
G01*
X129405700Y-128147100D02*
G75*
G02*
X128216700Y-128147100I-594500J0D01*
G01*
X128216700Y-128147100D02*
G75*
G02*
X129405700Y-128147100I594500J0D01*
G01*
X129405700Y-130687100D02*
G75*
G02*
X128216700Y-130687100I-594500J0D01*
G01*
X128216700Y-130687100D02*
G75*
G02*
X129405700Y-130687100I594500J0D01*
G01*
X129405700Y-133227100D02*
G75*
G02*
X128216700Y-133227100I-594500J0D01*
G01*
X128216700Y-133227100D02*
G75*
G02*
X129405700Y-133227100I594500J0D01*
G01*
X129405700Y-135767100D02*
G75*
G02*
X128216700Y-135767100I-594500J0D01*
G01*
X128216700Y-135767100D02*
G75*
G02*
X129405700Y-135767100I594500J0D01*
G01*
X129405700Y-138307100D02*
G75*
G02*
X128216700Y-138307100I-594500J0D01*
G01*
X128216700Y-138307100D02*
G75*
G02*
X129405700Y-138307100I594500J0D01*
G01*
X129405700Y-140847100D02*
G75*
G02*
X128216700Y-140847100I-594500J0D01*
G01*
X128216700Y-140847100D02*
G75*
G02*
X129405700Y-140847100I594500J0D01*
G01*
X129405700Y-143387100D02*
G75*
G02*
X128216700Y-143387100I-594500J0D01*
G01*
X128216700Y-143387100D02*
G75*
G02*
X129405700Y-143387100I594500J0D01*
G01*
X131197500Y-42058000D02*
G75*
G02*
X130008500Y-42058000I-594500J0D01*
G01*
X130008500Y-42058000D02*
G75*
G02*
X131197500Y-42058000I594500J0D01*
G01*
X131197500Y-64664000D02*
G75*
G02*
X130008500Y-64664000I-594500J0D01*
G01*
X130008500Y-64664000D02*
G75*
G02*
X131197500Y-64664000I594500J0D01*
G01*
X131705500Y-68474000D02*
G75*
G02*
X130516500Y-68474000I-594500J0D01*
G01*
X130516500Y-68474000D02*
G75*
G02*
X131705500Y-68474000I594500J0D01*
G01*
X131705500Y-88794000D02*
G75*
G02*
X130516500Y-88794000I-594500J0D01*
G01*
X130516500Y-88794000D02*
G75*
G02*
X131705500Y-88794000I594500J0D01*
G01*
X133229500Y-137816000D02*
G75*
G02*
X132040500Y-137816000I-594500J0D01*
G01*
X132040500Y-137816000D02*
G75*
G02*
X133229500Y-137816000I594500J0D01*
G01*
X133229500Y-143912000D02*
G75*
G02*
X132040500Y-143912000I-594500J0D01*
G01*
X132040500Y-143912000D02*
G75*
G02*
X133229500Y-143912000I594500J0D01*
G01*
X134311000Y-147717000D02*
G75*
G02*
X133122000Y-147717000I-594500J0D01*
G01*
X133122000Y-147717000D02*
G75*
G02*
X134311000Y-147717000I594500J0D01*
G01*
X138309500Y-43074000D02*
G75*
G02*
X137120500Y-43074000I-594500J0D01*
G01*
X137120500Y-43074000D02*
G75*
G02*
X138309500Y-43074000I594500J0D01*
G01*
X138309500Y-45614000D02*
G75*
G02*
X137120500Y-45614000I-594500J0D01*
G01*
X137120500Y-45614000D02*
G75*
G02*
X138309500Y-45614000I594500J0D01*
G01*
X138309500Y-48154000D02*
G75*
G02*
X137120500Y-48154000I-594500J0D01*
G01*
X137120500Y-48154000D02*
G75*
G02*
X138309500Y-48154000I594500J0D01*
G01*
X138309500Y-50694000D02*
G75*
G02*
X137120500Y-50694000I-594500J0D01*
G01*
X137120500Y-50694000D02*
G75*
G02*
X138309500Y-50694000I594500J0D01*
G01*
X138309500Y-53234000D02*
G75*
G02*
X137120500Y-53234000I-594500J0D01*
G01*
X137120500Y-53234000D02*
G75*
G02*
X138309500Y-53234000I594500J0D01*
G01*
X138309500Y-55774000D02*
G75*
G02*
X137120500Y-55774000I-594500J0D01*
G01*
X137120500Y-55774000D02*
G75*
G02*
X138309500Y-55774000I594500J0D01*
G01*
X138309500Y-58314000D02*
G75*
G02*
X137120500Y-58314000I-594500J0D01*
G01*
X137120500Y-58314000D02*
G75*
G02*
X138309500Y-58314000I594500J0D01*
G01*
X138309500Y-60854000D02*
G75*
G02*
X137120500Y-60854000I-594500J0D01*
G01*
X137120500Y-60854000D02*
G75*
G02*
X138309500Y-60854000I594500J0D01*
G01*
X139533900Y-133295500D02*
G75*
G02*
X138344900Y-133295500I-594500J0D01*
G01*
X138344900Y-133295500D02*
G75*
G02*
X139533900Y-133295500I594500J0D01*
G01*
X139539100Y-125521400D02*
G75*
G02*
X138350100Y-125521400I-594500J0D01*
G01*
X138350100Y-125521400D02*
G75*
G02*
X139539100Y-125521400I594500J0D01*
G01*
X139539100Y-128102600D02*
G75*
G02*
X138350100Y-128102600I-594500J0D01*
G01*
X138350100Y-128102600D02*
G75*
G02*
X139539100Y-128102600I594500J0D01*
G01*
X139542500Y-130685500D02*
G75*
G02*
X138353500Y-130685500I-594500J0D01*
G01*
X138353500Y-130685500D02*
G75*
G02*
X139542500Y-130685500I594500J0D01*
G01*
X140087500Y-68474000D02*
G75*
G02*
X138898500Y-68474000I-594500J0D01*
G01*
X138898500Y-68474000D02*
G75*
G02*
X140087500Y-68474000I594500J0D01*
G01*
X140087500Y-71014000D02*
G75*
G02*
X138898500Y-71014000I-594500J0D01*
G01*
X138898500Y-71014000D02*
G75*
G02*
X140087500Y-71014000I594500J0D01*
G01*
X140087500Y-73554000D02*
G75*
G02*
X138898500Y-73554000I-594500J0D01*
G01*
X138898500Y-73554000D02*
G75*
G02*
X140087500Y-73554000I594500J0D01*
G01*
X140087500Y-76094000D02*
G75*
G02*
X138898500Y-76094000I-594500J0D01*
G01*
X138898500Y-76094000D02*
G75*
G02*
X140087500Y-76094000I594500J0D01*
G01*
X140087500Y-78634000D02*
G75*
G02*
X138898500Y-78634000I-594500J0D01*
G01*
X138898500Y-78634000D02*
G75*
G02*
X140087500Y-78634000I594500J0D01*
G01*
X140087500Y-81174000D02*
G75*
G02*
X138898500Y-81174000I-594500J0D01*
G01*
X138898500Y-81174000D02*
G75*
G02*
X140087500Y-81174000I594500J0D01*
G01*
X140087500Y-83714000D02*
G75*
G02*
X138898500Y-83714000I-594500J0D01*
G01*
X138898500Y-83714000D02*
G75*
G02*
X140087500Y-83714000I594500J0D01*
G01*
X140087500Y-86254000D02*
G75*
G02*
X138898500Y-86254000I-594500J0D01*
G01*
X138898500Y-86254000D02*
G75*
G02*
X140087500Y-86254000I594500J0D01*
G01*
X141964600Y-111573200D02*
G75*
G02*
X140775600Y-111573200I-594500J0D01*
G01*
X140775600Y-111573200D02*
G75*
G02*
X141964600Y-111573200I594500J0D01*
G01*
X141982800Y-96290500D02*
G75*
G02*
X140793800Y-96290500I-594500J0D01*
G01*
X140793800Y-96290500D02*
G75*
G02*
X141982800Y-96290500I594500J0D01*
G01*
X141982800Y-98830500D02*
G75*
G02*
X140793800Y-98830500I-594500J0D01*
G01*
X140793800Y-98830500D02*
G75*
G02*
X141982800Y-98830500I594500J0D01*
G01*
X141982800Y-101370500D02*
G75*
G02*
X140793800Y-101370500I-594500J0D01*
G01*
X140793800Y-101370500D02*
G75*
G02*
X141982800Y-101370500I594500J0D01*
G01*
X141982800Y-103886400D02*
G75*
G02*
X140793800Y-103886400I-594500J0D01*
G01*
X140793800Y-103886400D02*
G75*
G02*
X141982800Y-103886400I594500J0D01*
G01*
X141982800Y-106450500D02*
G75*
G02*
X140793800Y-106450500I-594500J0D01*
G01*
X140793800Y-106450500D02*
G75*
G02*
X141982800Y-106450500I594500J0D01*
G01*
X141982800Y-108990500D02*
G75*
G02*
X140793800Y-108990500I-594500J0D01*
G01*
X140793800Y-108990500D02*
G75*
G02*
X141982800Y-108990500I594500J0D01*
G01*
X141982800Y-114070500D02*
G75*
G02*
X140793800Y-114070500I-594500J0D01*
G01*
X140793800Y-114070500D02*
G75*
G02*
X141982800Y-114070500I594500J0D01*
G01*
X141982800Y-116585100D02*
G75*
G02*
X140793800Y-116585100I-594500J0D01*
G01*
X140793800Y-116585100D02*
G75*
G02*
X141982800Y-116585100I594500J0D01*
G01*
X141982800Y-119150500D02*
G75*
G02*
X140793800Y-119150500I-594500J0D01*
G01*
X140793800Y-119150500D02*
G75*
G02*
X141982800Y-119150500I594500J0D01*
G01*
X145851600Y-97647700D02*
G75*
G02*
X144662600Y-97647700I-594500J0D01*
G01*
X144662600Y-97647700D02*
G75*
G02*
X145851600Y-97647700I594500J0D01*
G01*
X145851600Y-100213100D02*
G75*
G02*
X144662600Y-100213100I-594500J0D01*
G01*
X144662600Y-100213100D02*
G75*
G02*
X145851600Y-100213100I594500J0D01*
G01*
X145851600Y-102727700D02*
G75*
G02*
X144662600Y-102727700I-594500J0D01*
G01*
X144662600Y-102727700D02*
G75*
G02*
X145851600Y-102727700I594500J0D01*
G01*
X145851600Y-105343900D02*
G75*
G02*
X144662600Y-105343900I-594500J0D01*
G01*
X144662600Y-105343900D02*
G75*
G02*
X145851600Y-105343900I594500J0D01*
G01*
X145851600Y-107807700D02*
G75*
G02*
X144662600Y-107807700I-594500J0D01*
G01*
X144662600Y-107807700D02*
G75*
G02*
X145851600Y-107807700I594500J0D01*
G01*
X145851600Y-110347700D02*
G75*
G02*
X144662600Y-110347700I-594500J0D01*
G01*
X144662600Y-110347700D02*
G75*
G02*
X145851600Y-110347700I594500J0D01*
G01*
X145929500Y-43074000D02*
G75*
G02*
X144740500Y-43074000I-594500J0D01*
G01*
X144740500Y-43074000D02*
G75*
G02*
X145929500Y-43074000I594500J0D01*
G01*
X145929500Y-45614000D02*
G75*
G02*
X144740500Y-45614000I-594500J0D01*
G01*
X144740500Y-45614000D02*
G75*
G02*
X145929500Y-45614000I594500J0D01*
G01*
X145929500Y-48154000D02*
G75*
G02*
X144740500Y-48154000I-594500J0D01*
G01*
X144740500Y-48154000D02*
G75*
G02*
X145929500Y-48154000I594500J0D01*
G01*
X145929500Y-50694000D02*
G75*
G02*
X144740500Y-50694000I-594500J0D01*
G01*
X144740500Y-50694000D02*
G75*
G02*
X145929500Y-50694000I594500J0D01*
G01*
X145929500Y-53234000D02*
G75*
G02*
X144740500Y-53234000I-594500J0D01*
G01*
X144740500Y-53234000D02*
G75*
G02*
X145929500Y-53234000I594500J0D01*
G01*
X145929500Y-55774000D02*
G75*
G02*
X144740500Y-55774000I-594500J0D01*
G01*
X144740500Y-55774000D02*
G75*
G02*
X145929500Y-55774000I594500J0D01*
G01*
X145929500Y-58314000D02*
G75*
G02*
X144740500Y-58314000I-594500J0D01*
G01*
X144740500Y-58314000D02*
G75*
G02*
X145929500Y-58314000I594500J0D01*
G01*
X145929500Y-60854000D02*
G75*
G02*
X144740500Y-60854000I-594500J0D01*
G01*
X144740500Y-60854000D02*
G75*
G02*
X145929500Y-60854000I594500J0D01*
G01*
X147121600Y-119948900D02*
G75*
G02*
X145932600Y-119948900I-594500J0D01*
G01*
X145932600Y-119948900D02*
G75*
G02*
X147121600Y-119948900I594500J0D01*
G01*
X147707500Y-68474000D02*
G75*
G02*
X146518500Y-68474000I-594500J0D01*
G01*
X146518500Y-68474000D02*
G75*
G02*
X147707500Y-68474000I594500J0D01*
G01*
X147707500Y-71014000D02*
G75*
G02*
X146518500Y-71014000I-594500J0D01*
G01*
X146518500Y-71014000D02*
G75*
G02*
X147707500Y-71014000I594500J0D01*
G01*
X147707500Y-73554000D02*
G75*
G02*
X146518500Y-73554000I-594500J0D01*
G01*
X146518500Y-73554000D02*
G75*
G02*
X147707500Y-73554000I594500J0D01*
G01*
X147707500Y-76094000D02*
G75*
G02*
X146518500Y-76094000I-594500J0D01*
G01*
X146518500Y-76094000D02*
G75*
G02*
X147707500Y-76094000I594500J0D01*
G01*
X147707500Y-78634000D02*
G75*
G02*
X146518500Y-78634000I-594500J0D01*
G01*
X146518500Y-78634000D02*
G75*
G02*
X147707500Y-78634000I594500J0D01*
G01*
X147707500Y-81174000D02*
G75*
G02*
X146518500Y-81174000I-594500J0D01*
G01*
X146518500Y-81174000D02*
G75*
G02*
X147707500Y-81174000I594500J0D01*
G01*
X147707500Y-83714000D02*
G75*
G02*
X146518500Y-83714000I-594500J0D01*
G01*
X146518500Y-83714000D02*
G75*
G02*
X147707500Y-83714000I594500J0D01*
G01*
X147707500Y-86254000D02*
G75*
G02*
X146518500Y-86254000I-594500J0D01*
G01*
X146518500Y-86254000D02*
G75*
G02*
X147707500Y-86254000I594500J0D01*
G01*
X150814000Y-43050800D02*
G75*
G02*
X149625000Y-43050800I-594500J0D01*
G01*
X149625000Y-43050800D02*
G75*
G02*
X150814000Y-43050800I594500J0D01*
G01*
X150850400Y-55692000D02*
G75*
G02*
X149661400Y-55692000I-594500J0D01*
G01*
X149661400Y-55692000D02*
G75*
G02*
X150850400Y-55692000I594500J0D01*
G01*
X152175100Y-133259100D02*
G75*
G02*
X150986100Y-133259100I-594500J0D01*
G01*
X150986100Y-133259100D02*
G75*
G02*
X152175100Y-133259100I594500J0D01*
G01*
X152180200Y-125485000D02*
G75*
G02*
X150991200Y-125485000I-594500J0D01*
G01*
X150991200Y-125485000D02*
G75*
G02*
X152180200Y-125485000I594500J0D01*
G01*
X152180200Y-128066200D02*
G75*
G02*
X150991200Y-128066200I-594500J0D01*
G01*
X150991200Y-128066200D02*
G75*
G02*
X152180200Y-128066200I594500J0D01*
G01*
X152183700Y-130649100D02*
G75*
G02*
X150994700Y-130649100I-594500J0D01*
G01*
X150994700Y-130649100D02*
G75*
G02*
X152183700Y-130649100I594500J0D01*
G01*
X153295500Y-43074000D02*
G75*
G02*
X152106500Y-43074000I-594500J0D01*
G01*
X152106500Y-43074000D02*
G75*
G02*
X153295500Y-43074000I594500J0D01*
G01*
X153295500Y-45614000D02*
G75*
G02*
X152106500Y-45614000I-594500J0D01*
G01*
X152106500Y-45614000D02*
G75*
G02*
X153295500Y-45614000I594500J0D01*
G01*
X153295500Y-48154000D02*
G75*
G02*
X152106500Y-48154000I-594500J0D01*
G01*
X152106500Y-48154000D02*
G75*
G02*
X153295500Y-48154000I594500J0D01*
G01*
X153295500Y-50694000D02*
G75*
G02*
X152106500Y-50694000I-594500J0D01*
G01*
X152106500Y-50694000D02*
G75*
G02*
X153295500Y-50694000I594500J0D01*
G01*
X153295500Y-53234000D02*
G75*
G02*
X152106500Y-53234000I-594500J0D01*
G01*
X152106500Y-53234000D02*
G75*
G02*
X153295500Y-53234000I594500J0D01*
G01*
X153295500Y-55774000D02*
G75*
G02*
X152106500Y-55774000I-594500J0D01*
G01*
X152106500Y-55774000D02*
G75*
G02*
X153295500Y-55774000I594500J0D01*
G01*
X153295500Y-58314000D02*
G75*
G02*
X152106500Y-58314000I-594500J0D01*
G01*
X152106500Y-58314000D02*
G75*
G02*
X153295500Y-58314000I594500J0D01*
G01*
X153295500Y-60854000D02*
G75*
G02*
X152106500Y-60854000I-594500J0D01*
G01*
X152106500Y-60854000D02*
G75*
G02*
X153295500Y-60854000I594500J0D01*
G01*
X153525500Y-147838500D02*
G75*
G02*
X152336500Y-147838500I-594500J0D01*
G01*
X152336500Y-147838500D02*
G75*
G02*
X153525500Y-147838500I594500J0D01*
G01*
X153549500Y-68474000D02*
G75*
G02*
X152360500Y-68474000I-594500J0D01*
G01*
X152360500Y-68474000D02*
G75*
G02*
X153549500Y-68474000I594500J0D01*
G01*
X153549500Y-71014000D02*
G75*
G02*
X152360500Y-71014000I-594500J0D01*
G01*
X152360500Y-71014000D02*
G75*
G02*
X153549500Y-71014000I594500J0D01*
G01*
X153549500Y-73554000D02*
G75*
G02*
X152360500Y-73554000I-594500J0D01*
G01*
X152360500Y-73554000D02*
G75*
G02*
X153549500Y-73554000I594500J0D01*
G01*
X153549500Y-76094000D02*
G75*
G02*
X152360500Y-76094000I-594500J0D01*
G01*
X152360500Y-76094000D02*
G75*
G02*
X153549500Y-76094000I594500J0D01*
G01*
X153549500Y-78634000D02*
G75*
G02*
X152360500Y-78634000I-594500J0D01*
G01*
X152360500Y-78634000D02*
G75*
G02*
X153549500Y-78634000I594500J0D01*
G01*
X153549500Y-81174000D02*
G75*
G02*
X152360500Y-81174000I-594500J0D01*
G01*
X152360500Y-81174000D02*
G75*
G02*
X153549500Y-81174000I594500J0D01*
G01*
X153549500Y-83714000D02*
G75*
G02*
X152360500Y-83714000I-594500J0D01*
G01*
X152360500Y-83714000D02*
G75*
G02*
X153549500Y-83714000I594500J0D01*
G01*
X153549500Y-137816000D02*
G75*
G02*
X152360500Y-137816000I-594500J0D01*
G01*
X152360500Y-137816000D02*
G75*
G02*
X153549500Y-137816000I594500J0D01*
G01*
X153549500Y-143912000D02*
G75*
G02*
X152360500Y-143912000I-594500J0D01*
G01*
X152360500Y-143912000D02*
G75*
G02*
X153549500Y-143912000I594500J0D01*
G01*
X155835500Y-125624000D02*
G75*
G02*
X154646500Y-125624000I-594500J0D01*
G01*
X154646500Y-125624000D02*
G75*
G02*
X155835500Y-125624000I594500J0D01*
G01*
X155835500Y-128164000D02*
G75*
G02*
X154646500Y-128164000I-594500J0D01*
G01*
X154646500Y-128164000D02*
G75*
G02*
X155835500Y-128164000I594500J0D01*
G01*
X155835500Y-130704000D02*
G75*
G02*
X154646500Y-130704000I-594500J0D01*
G01*
X154646500Y-130704000D02*
G75*
G02*
X155835500Y-130704000I594500J0D01*
G01*
X155835500Y-133244000D02*
G75*
G02*
X154646500Y-133244000I-594500J0D01*
G01*
X154646500Y-133244000D02*
G75*
G02*
X155835500Y-133244000I594500J0D01*
G01*
X155835500Y-135784000D02*
G75*
G02*
X154646500Y-135784000I-594500J0D01*
G01*
X154646500Y-135784000D02*
G75*
G02*
X155835500Y-135784000I594500J0D01*
G01*
X155835500Y-138324000D02*
G75*
G02*
X154646500Y-138324000I-594500J0D01*
G01*
X154646500Y-138324000D02*
G75*
G02*
X155835500Y-138324000I594500J0D01*
G01*
X155835500Y-140864000D02*
G75*
G02*
X154646500Y-140864000I-594500J0D01*
G01*
X154646500Y-140864000D02*
G75*
G02*
X155835500Y-140864000I594500J0D01*
G01*
X155835500Y-143404000D02*
G75*
G02*
X154646500Y-143404000I-594500J0D01*
G01*
X154646500Y-143404000D02*
G75*
G02*
X155835500Y-143404000I594500J0D01*
G01*
X158492800Y-97611300D02*
G75*
G02*
X157303800Y-97611300I-594500J0D01*
G01*
X157303800Y-97611300D02*
G75*
G02*
X158492800Y-97611300I594500J0D01*
G01*
X158492800Y-100176700D02*
G75*
G02*
X157303800Y-100176700I-594500J0D01*
G01*
X157303800Y-100176700D02*
G75*
G02*
X158492800Y-100176700I594500J0D01*
G01*
X158492800Y-102691300D02*
G75*
G02*
X157303800Y-102691300I-594500J0D01*
G01*
X157303800Y-102691300D02*
G75*
G02*
X158492800Y-102691300I594500J0D01*
G01*
X158492800Y-105307500D02*
G75*
G02*
X157303800Y-105307500I-594500J0D01*
G01*
X157303800Y-105307500D02*
G75*
G02*
X158492800Y-105307500I594500J0D01*
G01*
X158492800Y-107771300D02*
G75*
G02*
X157303800Y-107771300I-594500J0D01*
G01*
X157303800Y-107771300D02*
G75*
G02*
X158492800Y-107771300I594500J0D01*
G01*
X158492800Y-110311300D02*
G75*
G02*
X157303800Y-110311300I-594500J0D01*
G01*
X157303800Y-110311300D02*
G75*
G02*
X158492800Y-110311300I594500J0D01*
G01*
X159762800Y-119912500D02*
G75*
G02*
X158573800Y-119912500I-594500J0D01*
G01*
X158573800Y-119912500D02*
G75*
G02*
X159762800Y-119912500I594500J0D01*
G01*
D15*
X160128100Y-27264100D02*
X160134900Y-33417600D01*
X160134900Y-33417600D02*
X161618300Y-33419700D01*
D11*
X160915500Y-43074000D02*
G75*
G02*
X159726500Y-43074000I-594500J0D01*
G01*
X159726500Y-43074000D02*
G75*
G02*
X160915500Y-43074000I594500J0D01*
G01*
X160915500Y-45614000D02*
G75*
G02*
X159726500Y-45614000I-594500J0D01*
G01*
X159726500Y-45614000D02*
G75*
G02*
X160915500Y-45614000I594500J0D01*
G01*
X160915500Y-48154000D02*
G75*
G02*
X159726500Y-48154000I-594500J0D01*
G01*
X159726500Y-48154000D02*
G75*
G02*
X160915500Y-48154000I594500J0D01*
G01*
X160915500Y-50694000D02*
G75*
G02*
X159726500Y-50694000I-594500J0D01*
G01*
X159726500Y-50694000D02*
G75*
G02*
X160915500Y-50694000I594500J0D01*
G01*
X160915500Y-53234000D02*
G75*
G02*
X159726500Y-53234000I-594500J0D01*
G01*
X159726500Y-53234000D02*
G75*
G02*
X160915500Y-53234000I594500J0D01*
G01*
X160915500Y-55774000D02*
G75*
G02*
X159726500Y-55774000I-594500J0D01*
G01*
X159726500Y-55774000D02*
G75*
G02*
X160915500Y-55774000I594500J0D01*
G01*
X160915500Y-58314000D02*
G75*
G02*
X159726500Y-58314000I-594500J0D01*
G01*
X159726500Y-58314000D02*
G75*
G02*
X160915500Y-58314000I594500J0D01*
G01*
X160915500Y-60854000D02*
G75*
G02*
X159726500Y-60854000I-594500J0D01*
G01*
X159726500Y-60854000D02*
G75*
G02*
X160915500Y-60854000I594500J0D01*
G01*
X161169500Y-68474000D02*
G75*
G02*
X159980500Y-68474000I-594500J0D01*
G01*
X159980500Y-68474000D02*
G75*
G02*
X161169500Y-68474000I594500J0D01*
G01*
X161169500Y-71014000D02*
G75*
G02*
X159980500Y-71014000I-594500J0D01*
G01*
X159980500Y-71014000D02*
G75*
G02*
X161169500Y-71014000I594500J0D01*
G01*
X161169500Y-73554000D02*
G75*
G02*
X159980500Y-73554000I-594500J0D01*
G01*
X159980500Y-73554000D02*
G75*
G02*
X161169500Y-73554000I594500J0D01*
G01*
X161169500Y-76094000D02*
G75*
G02*
X159980500Y-76094000I-594500J0D01*
G01*
X159980500Y-76094000D02*
G75*
G02*
X161169500Y-76094000I594500J0D01*
G01*
X161169500Y-78634000D02*
G75*
G02*
X159980500Y-78634000I-594500J0D01*
G01*
X159980500Y-78634000D02*
G75*
G02*
X161169500Y-78634000I594500J0D01*
G01*
X161169500Y-81174000D02*
G75*
G02*
X159980500Y-81174000I-594500J0D01*
G01*
X159980500Y-81174000D02*
G75*
G02*
X161169500Y-81174000I594500J0D01*
G01*
X161169500Y-83714000D02*
G75*
G02*
X159980500Y-83714000I-594500J0D01*
G01*
X159980500Y-83714000D02*
G75*
G02*
X161169500Y-83714000I594500J0D01*
G01*
X161169500Y-97684000D02*
G75*
G02*
X159980500Y-97684000I-594500J0D01*
G01*
X159980500Y-97684000D02*
G75*
G02*
X161169500Y-97684000I594500J0D01*
G01*
X161169500Y-100224000D02*
G75*
G02*
X159980500Y-100224000I-594500J0D01*
G01*
X159980500Y-100224000D02*
G75*
G02*
X161169500Y-100224000I594500J0D01*
G01*
X161169500Y-102764000D02*
G75*
G02*
X159980500Y-102764000I-594500J0D01*
G01*
X159980500Y-102764000D02*
G75*
G02*
X161169500Y-102764000I594500J0D01*
G01*
X161169500Y-105304000D02*
G75*
G02*
X159980500Y-105304000I-594500J0D01*
G01*
X159980500Y-105304000D02*
G75*
G02*
X161169500Y-105304000I594500J0D01*
G01*
X161169500Y-107844000D02*
G75*
G02*
X159980500Y-107844000I-594500J0D01*
G01*
X159980500Y-107844000D02*
G75*
G02*
X161169500Y-107844000I594500J0D01*
G01*
X161169500Y-110384000D02*
G75*
G02*
X159980500Y-110384000I-594500J0D01*
G01*
X159980500Y-110384000D02*
G75*
G02*
X161169500Y-110384000I594500J0D01*
G01*
X161169500Y-112924000D02*
G75*
G02*
X159980500Y-112924000I-594500J0D01*
G01*
X159980500Y-112924000D02*
G75*
G02*
X161169500Y-112924000I594500J0D01*
G01*
X161169500Y-115464000D02*
G75*
G02*
X159980500Y-115464000I-594500J0D01*
G01*
X159980500Y-115464000D02*
G75*
G02*
X161169500Y-115464000I594500J0D01*
G01*
D15*
X161613000Y-27266400D02*
X160128100Y-27264100D01*
X161618300Y-33419700D02*
X161613000Y-27266400D01*
D11*
X162539400Y-119694900D02*
G75*
G02*
X161350400Y-119694900I-594500J0D01*
G01*
X161350400Y-119694900D02*
G75*
G02*
X162539400Y-119694900I594500J0D01*
G01*
D15*
X162668100Y-27264100D02*
X162674900Y-33417600D01*
X162674900Y-33417600D02*
X164158300Y-33419700D01*
D11*
X163455500Y-125624000D02*
G75*
G02*
X162266500Y-125624000I-594500J0D01*
G01*
X162266500Y-125624000D02*
G75*
G02*
X163455500Y-125624000I594500J0D01*
G01*
X163455500Y-128164000D02*
G75*
G02*
X162266500Y-128164000I-594500J0D01*
G01*
X162266500Y-128164000D02*
G75*
G02*
X163455500Y-128164000I594500J0D01*
G01*
X163455500Y-130704000D02*
G75*
G02*
X162266500Y-130704000I-594500J0D01*
G01*
X162266500Y-130704000D02*
G75*
G02*
X163455500Y-130704000I594500J0D01*
G01*
X163455500Y-133244000D02*
G75*
G02*
X162266500Y-133244000I-594500J0D01*
G01*
X162266500Y-133244000D02*
G75*
G02*
X163455500Y-133244000I594500J0D01*
G01*
X163455500Y-135784000D02*
G75*
G02*
X162266500Y-135784000I-594500J0D01*
G01*
X162266500Y-135784000D02*
G75*
G02*
X163455500Y-135784000I594500J0D01*
G01*
X163455500Y-138324000D02*
G75*
G02*
X162266500Y-138324000I-594500J0D01*
G01*
X162266500Y-138324000D02*
G75*
G02*
X163455500Y-138324000I594500J0D01*
G01*
X163455500Y-140864000D02*
G75*
G02*
X162266500Y-140864000I-594500J0D01*
G01*
X162266500Y-140864000D02*
G75*
G02*
X163455500Y-140864000I594500J0D01*
G01*
X163455500Y-143404000D02*
G75*
G02*
X162266500Y-143404000I-594500J0D01*
G01*
X162266500Y-143404000D02*
G75*
G02*
X163455500Y-143404000I594500J0D01*
G01*
X163815600Y-39432800D02*
G75*
G02*
X162626600Y-39432800I-594500J0D01*
G01*
X162626600Y-39432800D02*
G75*
G02*
X163815600Y-39432800I594500J0D01*
G01*
D15*
X164153000Y-27266400D02*
X162668100Y-27264100D01*
X164158300Y-33419700D02*
X164153000Y-27266400D01*
D11*
X164979500Y-50186000D02*
G75*
G02*
X163790500Y-50186000I-594500J0D01*
G01*
X163790500Y-50186000D02*
G75*
G02*
X164979500Y-50186000I594500J0D01*
G01*
X164979500Y-52726000D02*
G75*
G02*
X163790500Y-52726000I-594500J0D01*
G01*
X163790500Y-52726000D02*
G75*
G02*
X164979500Y-52726000I594500J0D01*
G01*
X164979500Y-55266000D02*
G75*
G02*
X163790500Y-55266000I-594500J0D01*
G01*
X163790500Y-55266000D02*
G75*
G02*
X164979500Y-55266000I594500J0D01*
G01*
D15*
X165208100Y-27264100D02*
X165214900Y-33417600D01*
X165214900Y-33417600D02*
X166698300Y-33419700D01*
D11*
X166166700Y-147802100D02*
G75*
G02*
X164977700Y-147802100I-594500J0D01*
G01*
X164977700Y-147802100D02*
G75*
G02*
X166166700Y-147802100I594500J0D01*
G01*
X166249500Y-125624000D02*
G75*
G02*
X165060500Y-125624000I-594500J0D01*
G01*
X165060500Y-125624000D02*
G75*
G02*
X166249500Y-125624000I594500J0D01*
G01*
X166249500Y-128164000D02*
G75*
G02*
X165060500Y-128164000I-594500J0D01*
G01*
X165060500Y-128164000D02*
G75*
G02*
X166249500Y-128164000I594500J0D01*
G01*
X166249500Y-130704000D02*
G75*
G02*
X165060500Y-130704000I-594500J0D01*
G01*
X165060500Y-130704000D02*
G75*
G02*
X166249500Y-130704000I594500J0D01*
G01*
X166249500Y-133244000D02*
G75*
G02*
X165060500Y-133244000I-594500J0D01*
G01*
X165060500Y-133244000D02*
G75*
G02*
X166249500Y-133244000I594500J0D01*
G01*
X166249500Y-135784000D02*
G75*
G02*
X165060500Y-135784000I-594500J0D01*
G01*
X165060500Y-135784000D02*
G75*
G02*
X166249500Y-135784000I594500J0D01*
G01*
X166249500Y-138324000D02*
G75*
G02*
X165060500Y-138324000I-594500J0D01*
G01*
X165060500Y-138324000D02*
G75*
G02*
X166249500Y-138324000I594500J0D01*
G01*
X166249500Y-140864000D02*
G75*
G02*
X165060500Y-140864000I-594500J0D01*
G01*
X165060500Y-140864000D02*
G75*
G02*
X166249500Y-140864000I594500J0D01*
G01*
X166249500Y-143404000D02*
G75*
G02*
X165060500Y-143404000I-594500J0D01*
G01*
X165060500Y-143404000D02*
G75*
G02*
X166249500Y-143404000I594500J0D01*
G01*
D15*
X166693000Y-27266400D02*
X165208100Y-27264100D01*
X166698300Y-33419700D02*
X166693000Y-27266400D01*
X167748100Y-27264100D02*
X167754900Y-33417600D01*
X167754900Y-33417600D02*
X169238300Y-33419700D01*
D11*
X168754500Y-147842500D02*
G75*
G02*
X167565500Y-147842500I-594500J0D01*
G01*
X167565500Y-147842500D02*
G75*
G02*
X168754500Y-147842500I594500J0D01*
G01*
X168789500Y-43074000D02*
G75*
G02*
X167600500Y-43074000I-594500J0D01*
G01*
X167600500Y-43074000D02*
G75*
G02*
X168789500Y-43074000I594500J0D01*
G01*
X168789500Y-45614000D02*
G75*
G02*
X167600500Y-45614000I-594500J0D01*
G01*
X167600500Y-45614000D02*
G75*
G02*
X168789500Y-45614000I594500J0D01*
G01*
X168789500Y-48154000D02*
G75*
G02*
X167600500Y-48154000I-594500J0D01*
G01*
X167600500Y-48154000D02*
G75*
G02*
X168789500Y-48154000I594500J0D01*
G01*
X168789500Y-50694000D02*
G75*
G02*
X167600500Y-50694000I-594500J0D01*
G01*
X167600500Y-50694000D02*
G75*
G02*
X168789500Y-50694000I594500J0D01*
G01*
X168789500Y-53234000D02*
G75*
G02*
X167600500Y-53234000I-594500J0D01*
G01*
X167600500Y-53234000D02*
G75*
G02*
X168789500Y-53234000I594500J0D01*
G01*
X168789500Y-55774000D02*
G75*
G02*
X167600500Y-55774000I-594500J0D01*
G01*
X167600500Y-55774000D02*
G75*
G02*
X168789500Y-55774000I594500J0D01*
G01*
X168789500Y-58314000D02*
G75*
G02*
X167600500Y-58314000I-594500J0D01*
G01*
X167600500Y-58314000D02*
G75*
G02*
X168789500Y-58314000I594500J0D01*
G01*
X168789500Y-60854000D02*
G75*
G02*
X167600500Y-60854000I-594500J0D01*
G01*
X167600500Y-60854000D02*
G75*
G02*
X168789500Y-60854000I594500J0D01*
G01*
X168789500Y-68474000D02*
G75*
G02*
X167600500Y-68474000I-594500J0D01*
G01*
X167600500Y-68474000D02*
G75*
G02*
X168789500Y-68474000I594500J0D01*
G01*
X168789500Y-71014000D02*
G75*
G02*
X167600500Y-71014000I-594500J0D01*
G01*
X167600500Y-71014000D02*
G75*
G02*
X168789500Y-71014000I594500J0D01*
G01*
X168789500Y-73554000D02*
G75*
G02*
X167600500Y-73554000I-594500J0D01*
G01*
X167600500Y-73554000D02*
G75*
G02*
X168789500Y-73554000I594500J0D01*
G01*
X168789500Y-76094000D02*
G75*
G02*
X167600500Y-76094000I-594500J0D01*
G01*
X167600500Y-76094000D02*
G75*
G02*
X168789500Y-76094000I594500J0D01*
G01*
X168789500Y-78634000D02*
G75*
G02*
X167600500Y-78634000I-594500J0D01*
G01*
X167600500Y-78634000D02*
G75*
G02*
X168789500Y-78634000I594500J0D01*
G01*
X168789500Y-81174000D02*
G75*
G02*
X167600500Y-81174000I-594500J0D01*
G01*
X167600500Y-81174000D02*
G75*
G02*
X168789500Y-81174000I594500J0D01*
G01*
X168789500Y-83714000D02*
G75*
G02*
X167600500Y-83714000I-594500J0D01*
G01*
X167600500Y-83714000D02*
G75*
G02*
X168789500Y-83714000I594500J0D01*
G01*
X168789500Y-97684000D02*
G75*
G02*
X167600500Y-97684000I-594500J0D01*
G01*
X167600500Y-97684000D02*
G75*
G02*
X168789500Y-97684000I594500J0D01*
G01*
X168789500Y-100224000D02*
G75*
G02*
X167600500Y-100224000I-594500J0D01*
G01*
X167600500Y-100224000D02*
G75*
G02*
X168789500Y-100224000I594500J0D01*
G01*
X168789500Y-102764000D02*
G75*
G02*
X167600500Y-102764000I-594500J0D01*
G01*
X167600500Y-102764000D02*
G75*
G02*
X168789500Y-102764000I594500J0D01*
G01*
X168789500Y-105304000D02*
G75*
G02*
X167600500Y-105304000I-594500J0D01*
G01*
X167600500Y-105304000D02*
G75*
G02*
X168789500Y-105304000I594500J0D01*
G01*
X168789500Y-107844000D02*
G75*
G02*
X167600500Y-107844000I-594500J0D01*
G01*
X167600500Y-107844000D02*
G75*
G02*
X168789500Y-107844000I594500J0D01*
G01*
X168789500Y-110384000D02*
G75*
G02*
X167600500Y-110384000I-594500J0D01*
G01*
X167600500Y-110384000D02*
G75*
G02*
X168789500Y-110384000I594500J0D01*
G01*
X168789500Y-112924000D02*
G75*
G02*
X167600500Y-112924000I-594500J0D01*
G01*
X167600500Y-112924000D02*
G75*
G02*
X168789500Y-112924000I594500J0D01*
G01*
X168789500Y-115464000D02*
G75*
G02*
X167600500Y-115464000I-594500J0D01*
G01*
X167600500Y-115464000D02*
G75*
G02*
X168789500Y-115464000I594500J0D01*
G01*
D15*
X169233000Y-27266400D02*
X167748100Y-27264100D01*
X169238300Y-33419700D02*
X169233000Y-27266400D01*
D11*
X171329500Y-97684000D02*
G75*
G02*
X170140500Y-97684000I-594500J0D01*
G01*
X170140500Y-97684000D02*
G75*
G02*
X171329500Y-97684000I594500J0D01*
G01*
X171329500Y-100224000D02*
G75*
G02*
X170140500Y-100224000I-594500J0D01*
G01*
X170140500Y-100224000D02*
G75*
G02*
X171329500Y-100224000I594500J0D01*
G01*
X171329500Y-102764000D02*
G75*
G02*
X170140500Y-102764000I-594500J0D01*
G01*
X170140500Y-102764000D02*
G75*
G02*
X171329500Y-102764000I594500J0D01*
G01*
X171329500Y-105304000D02*
G75*
G02*
X170140500Y-105304000I-594500J0D01*
G01*
X170140500Y-105304000D02*
G75*
G02*
X171329500Y-105304000I594500J0D01*
G01*
X171329500Y-107844000D02*
G75*
G02*
X170140500Y-107844000I-594500J0D01*
G01*
X170140500Y-107844000D02*
G75*
G02*
X171329500Y-107844000I594500J0D01*
G01*
X171329500Y-110384000D02*
G75*
G02*
X170140500Y-110384000I-594500J0D01*
G01*
X170140500Y-110384000D02*
G75*
G02*
X171329500Y-110384000I594500J0D01*
G01*
X171329500Y-112924000D02*
G75*
G02*
X170140500Y-112924000I-594500J0D01*
G01*
X170140500Y-112924000D02*
G75*
G02*
X171329500Y-112924000I594500J0D01*
G01*
X171329500Y-115464000D02*
G75*
G02*
X170140500Y-115464000I-594500J0D01*
G01*
X170140500Y-115464000D02*
G75*
G02*
X171329500Y-115464000I594500J0D01*
G01*
D15*
X172828100Y-27264100D02*
X172834900Y-33417600D01*
X172834900Y-33417600D02*
X174318300Y-33419700D01*
D11*
X173869500Y-125624000D02*
G75*
G02*
X172680500Y-125624000I-594500J0D01*
G01*
X172680500Y-125624000D02*
G75*
G02*
X173869500Y-125624000I594500J0D01*
G01*
X173869500Y-128164000D02*
G75*
G02*
X172680500Y-128164000I-594500J0D01*
G01*
X172680500Y-128164000D02*
G75*
G02*
X173869500Y-128164000I594500J0D01*
G01*
X173869500Y-130704000D02*
G75*
G02*
X172680500Y-130704000I-594500J0D01*
G01*
X172680500Y-130704000D02*
G75*
G02*
X173869500Y-130704000I594500J0D01*
G01*
X173869500Y-133244000D02*
G75*
G02*
X172680500Y-133244000I-594500J0D01*
G01*
X172680500Y-133244000D02*
G75*
G02*
X173869500Y-133244000I594500J0D01*
G01*
X173869500Y-135784000D02*
G75*
G02*
X172680500Y-135784000I-594500J0D01*
G01*
X172680500Y-135784000D02*
G75*
G02*
X173869500Y-135784000I594500J0D01*
G01*
X173869500Y-138324000D02*
G75*
G02*
X172680500Y-138324000I-594500J0D01*
G01*
X172680500Y-138324000D02*
G75*
G02*
X173869500Y-138324000I594500J0D01*
G01*
X173869500Y-140864000D02*
G75*
G02*
X172680500Y-140864000I-594500J0D01*
G01*
X172680500Y-140864000D02*
G75*
G02*
X173869500Y-140864000I594500J0D01*
G01*
X173869500Y-143404000D02*
G75*
G02*
X172680500Y-143404000I-594500J0D01*
G01*
X172680500Y-143404000D02*
G75*
G02*
X173869500Y-143404000I594500J0D01*
G01*
D15*
X174313000Y-27266400D02*
X172828100Y-27264100D01*
X174318300Y-33419700D02*
X174313000Y-27266400D01*
D11*
X175180600Y-119658500D02*
G75*
G02*
X173991600Y-119658500I-594500J0D01*
G01*
X173991600Y-119658500D02*
G75*
G02*
X175180600Y-119658500I594500J0D01*
G01*
D15*
X175368100Y-27264100D02*
X175374900Y-33417600D01*
X175374900Y-33417600D02*
X176858300Y-33419700D01*
D11*
X176409500Y-43074000D02*
G75*
G02*
X175220500Y-43074000I-594500J0D01*
G01*
X175220500Y-43074000D02*
G75*
G02*
X176409500Y-43074000I594500J0D01*
G01*
X176409500Y-45614000D02*
G75*
G02*
X175220500Y-45614000I-594500J0D01*
G01*
X175220500Y-45614000D02*
G75*
G02*
X176409500Y-45614000I594500J0D01*
G01*
X176409500Y-48154000D02*
G75*
G02*
X175220500Y-48154000I-594500J0D01*
G01*
X175220500Y-48154000D02*
G75*
G02*
X176409500Y-48154000I594500J0D01*
G01*
X176409500Y-50694000D02*
G75*
G02*
X175220500Y-50694000I-594500J0D01*
G01*
X175220500Y-50694000D02*
G75*
G02*
X176409500Y-50694000I594500J0D01*
G01*
X176409500Y-53234000D02*
G75*
G02*
X175220500Y-53234000I-594500J0D01*
G01*
X175220500Y-53234000D02*
G75*
G02*
X176409500Y-53234000I594500J0D01*
G01*
X176409500Y-55774000D02*
G75*
G02*
X175220500Y-55774000I-594500J0D01*
G01*
X175220500Y-55774000D02*
G75*
G02*
X176409500Y-55774000I594500J0D01*
G01*
X176409500Y-58314000D02*
G75*
G02*
X175220500Y-58314000I-594500J0D01*
G01*
X175220500Y-58314000D02*
G75*
G02*
X176409500Y-58314000I594500J0D01*
G01*
X176409500Y-60854000D02*
G75*
G02*
X175220500Y-60854000I-594500J0D01*
G01*
X175220500Y-60854000D02*
G75*
G02*
X176409500Y-60854000I594500J0D01*
G01*
X176409500Y-68474000D02*
G75*
G02*
X175220500Y-68474000I-594500J0D01*
G01*
X175220500Y-68474000D02*
G75*
G02*
X176409500Y-68474000I594500J0D01*
G01*
X176409500Y-71014000D02*
G75*
G02*
X175220500Y-71014000I-594500J0D01*
G01*
X175220500Y-71014000D02*
G75*
G02*
X176409500Y-71014000I594500J0D01*
G01*
X176409500Y-73554000D02*
G75*
G02*
X175220500Y-73554000I-594500J0D01*
G01*
X175220500Y-73554000D02*
G75*
G02*
X176409500Y-73554000I594500J0D01*
G01*
X176409500Y-76094000D02*
G75*
G02*
X175220500Y-76094000I-594500J0D01*
G01*
X175220500Y-76094000D02*
G75*
G02*
X176409500Y-76094000I594500J0D01*
G01*
X176409500Y-78634000D02*
G75*
G02*
X175220500Y-78634000I-594500J0D01*
G01*
X175220500Y-78634000D02*
G75*
G02*
X176409500Y-78634000I594500J0D01*
G01*
X176409500Y-81174000D02*
G75*
G02*
X175220500Y-81174000I-594500J0D01*
G01*
X175220500Y-81174000D02*
G75*
G02*
X176409500Y-81174000I594500J0D01*
G01*
X176409500Y-83714000D02*
G75*
G02*
X175220500Y-83714000I-594500J0D01*
G01*
X175220500Y-83714000D02*
G75*
G02*
X176409500Y-83714000I594500J0D01*
G01*
X176409500Y-125624000D02*
G75*
G02*
X175220500Y-125624000I-594500J0D01*
G01*
X175220500Y-125624000D02*
G75*
G02*
X176409500Y-125624000I594500J0D01*
G01*
X176409500Y-128164000D02*
G75*
G02*
X175220500Y-128164000I-594500J0D01*
G01*
X175220500Y-128164000D02*
G75*
G02*
X176409500Y-128164000I594500J0D01*
G01*
X176409500Y-130704000D02*
G75*
G02*
X175220500Y-130704000I-594500J0D01*
G01*
X175220500Y-130704000D02*
G75*
G02*
X176409500Y-130704000I594500J0D01*
G01*
X176409500Y-133244000D02*
G75*
G02*
X175220500Y-133244000I-594500J0D01*
G01*
X175220500Y-133244000D02*
G75*
G02*
X176409500Y-133244000I594500J0D01*
G01*
X176409500Y-135784000D02*
G75*
G02*
X175220500Y-135784000I-594500J0D01*
G01*
X175220500Y-135784000D02*
G75*
G02*
X176409500Y-135784000I594500J0D01*
G01*
X176409500Y-138324000D02*
G75*
G02*
X175220500Y-138324000I-594500J0D01*
G01*
X175220500Y-138324000D02*
G75*
G02*
X176409500Y-138324000I594500J0D01*
G01*
X176409500Y-140864000D02*
G75*
G02*
X175220500Y-140864000I-594500J0D01*
G01*
X175220500Y-140864000D02*
G75*
G02*
X176409500Y-140864000I594500J0D01*
G01*
X176409500Y-143404000D02*
G75*
G02*
X175220500Y-143404000I-594500J0D01*
G01*
X175220500Y-143404000D02*
G75*
G02*
X176409500Y-143404000I594500J0D01*
G01*
X176456700Y-39396400D02*
G75*
G02*
X175267700Y-39396400I-594500J0D01*
G01*
X175267700Y-39396400D02*
G75*
G02*
X176456700Y-39396400I594500J0D01*
G01*
D15*
X176853000Y-27266400D02*
X175368100Y-27264100D01*
X176858300Y-33419700D02*
X176853000Y-27266400D01*
D11*
X177587100Y-119705500D02*
G75*
G02*
X176398100Y-119705500I-594500J0D01*
G01*
X176398100Y-119705500D02*
G75*
G02*
X177587100Y-119705500I594500J0D01*
G01*
D15*
X177908100Y-27264100D02*
X177914900Y-33417600D01*
X177914900Y-33417600D02*
X179398300Y-33419700D01*
D11*
X178949500Y-97684000D02*
G75*
G02*
X177760500Y-97684000I-594500J0D01*
G01*
X177760500Y-97684000D02*
G75*
G02*
X178949500Y-97684000I594500J0D01*
G01*
X178949500Y-100224000D02*
G75*
G02*
X177760500Y-100224000I-594500J0D01*
G01*
X177760500Y-100224000D02*
G75*
G02*
X178949500Y-100224000I594500J0D01*
G01*
X178949500Y-102764000D02*
G75*
G02*
X177760500Y-102764000I-594500J0D01*
G01*
X177760500Y-102764000D02*
G75*
G02*
X178949500Y-102764000I594500J0D01*
G01*
X178949500Y-105304000D02*
G75*
G02*
X177760500Y-105304000I-594500J0D01*
G01*
X177760500Y-105304000D02*
G75*
G02*
X178949500Y-105304000I594500J0D01*
G01*
X178949500Y-107844000D02*
G75*
G02*
X177760500Y-107844000I-594500J0D01*
G01*
X177760500Y-107844000D02*
G75*
G02*
X178949500Y-107844000I594500J0D01*
G01*
X178949500Y-110384000D02*
G75*
G02*
X177760500Y-110384000I-594500J0D01*
G01*
X177760500Y-110384000D02*
G75*
G02*
X178949500Y-110384000I594500J0D01*
G01*
X178949500Y-112924000D02*
G75*
G02*
X177760500Y-112924000I-594500J0D01*
G01*
X177760500Y-112924000D02*
G75*
G02*
X178949500Y-112924000I594500J0D01*
G01*
X178949500Y-115464000D02*
G75*
G02*
X177760500Y-115464000I-594500J0D01*
G01*
X177760500Y-115464000D02*
G75*
G02*
X178949500Y-115464000I594500J0D01*
G01*
D15*
X179393000Y-27266400D02*
X177908100Y-27264100D01*
X179398300Y-33419700D02*
X179393000Y-27266400D01*
X180448100Y-27264100D02*
X180454900Y-33417600D01*
X180454900Y-33417600D02*
X181938300Y-33419700D01*
D11*
X181395700Y-147806100D02*
G75*
G02*
X180206700Y-147806100I-594500J0D01*
G01*
X180206700Y-147806100D02*
G75*
G02*
X181395700Y-147806100I594500J0D01*
G01*
X181489500Y-97684000D02*
G75*
G02*
X180300500Y-97684000I-594500J0D01*
G01*
X180300500Y-97684000D02*
G75*
G02*
X181489500Y-97684000I594500J0D01*
G01*
X181489500Y-100224000D02*
G75*
G02*
X180300500Y-100224000I-594500J0D01*
G01*
X180300500Y-100224000D02*
G75*
G02*
X181489500Y-100224000I594500J0D01*
G01*
X181489500Y-102764000D02*
G75*
G02*
X180300500Y-102764000I-594500J0D01*
G01*
X180300500Y-102764000D02*
G75*
G02*
X181489500Y-102764000I594500J0D01*
G01*
X181489500Y-105304000D02*
G75*
G02*
X180300500Y-105304000I-594500J0D01*
G01*
X180300500Y-105304000D02*
G75*
G02*
X181489500Y-105304000I594500J0D01*
G01*
X181489500Y-107844000D02*
G75*
G02*
X180300500Y-107844000I-594500J0D01*
G01*
X180300500Y-107844000D02*
G75*
G02*
X181489500Y-107844000I594500J0D01*
G01*
X181489500Y-110384000D02*
G75*
G02*
X180300500Y-110384000I-594500J0D01*
G01*
X180300500Y-110384000D02*
G75*
G02*
X181489500Y-110384000I594500J0D01*
G01*
X181489500Y-112924000D02*
G75*
G02*
X180300500Y-112924000I-594500J0D01*
G01*
X180300500Y-112924000D02*
G75*
G02*
X181489500Y-112924000I594500J0D01*
G01*
X181489500Y-115464000D02*
G75*
G02*
X180300500Y-115464000I-594500J0D01*
G01*
X180300500Y-115464000D02*
G75*
G02*
X181489500Y-115464000I594500J0D01*
G01*
D15*
X181933000Y-27266400D02*
X180448100Y-27264100D01*
X181938300Y-33419700D02*
X181933000Y-27266400D01*
X182988100Y-27264100D02*
X182994900Y-33417600D01*
X182994900Y-33417600D02*
X184478300Y-33419700D01*
D11*
X184016200Y-147814000D02*
G75*
G02*
X182827200Y-147814000I-594500J0D01*
G01*
X182827200Y-147814000D02*
G75*
G02*
X184016200Y-147814000I594500J0D01*
G01*
X184029500Y-43074000D02*
G75*
G02*
X182840500Y-43074000I-594500J0D01*
G01*
X182840500Y-43074000D02*
G75*
G02*
X184029500Y-43074000I594500J0D01*
G01*
X184029500Y-45614000D02*
G75*
G02*
X182840500Y-45614000I-594500J0D01*
G01*
X182840500Y-45614000D02*
G75*
G02*
X184029500Y-45614000I594500J0D01*
G01*
X184029500Y-48154000D02*
G75*
G02*
X182840500Y-48154000I-594500J0D01*
G01*
X182840500Y-48154000D02*
G75*
G02*
X184029500Y-48154000I594500J0D01*
G01*
X184029500Y-50694000D02*
G75*
G02*
X182840500Y-50694000I-594500J0D01*
G01*
X182840500Y-50694000D02*
G75*
G02*
X184029500Y-50694000I594500J0D01*
G01*
X184029500Y-53234000D02*
G75*
G02*
X182840500Y-53234000I-594500J0D01*
G01*
X182840500Y-53234000D02*
G75*
G02*
X184029500Y-53234000I594500J0D01*
G01*
X184029500Y-55774000D02*
G75*
G02*
X182840500Y-55774000I-594500J0D01*
G01*
X182840500Y-55774000D02*
G75*
G02*
X184029500Y-55774000I594500J0D01*
G01*
X184029500Y-58314000D02*
G75*
G02*
X182840500Y-58314000I-594500J0D01*
G01*
X182840500Y-58314000D02*
G75*
G02*
X184029500Y-58314000I594500J0D01*
G01*
X184029500Y-60854000D02*
G75*
G02*
X182840500Y-60854000I-594500J0D01*
G01*
X182840500Y-60854000D02*
G75*
G02*
X184029500Y-60854000I594500J0D01*
G01*
X184029500Y-63394000D02*
G75*
G02*
X182840500Y-63394000I-594500J0D01*
G01*
X182840500Y-63394000D02*
G75*
G02*
X184029500Y-63394000I594500J0D01*
G01*
X184029500Y-65934000D02*
G75*
G02*
X182840500Y-65934000I-594500J0D01*
G01*
X182840500Y-65934000D02*
G75*
G02*
X184029500Y-65934000I594500J0D01*
G01*
X184029500Y-68474000D02*
G75*
G02*
X182840500Y-68474000I-594500J0D01*
G01*
X182840500Y-68474000D02*
G75*
G02*
X184029500Y-68474000I594500J0D01*
G01*
X184029500Y-71014000D02*
G75*
G02*
X182840500Y-71014000I-594500J0D01*
G01*
X182840500Y-71014000D02*
G75*
G02*
X184029500Y-71014000I594500J0D01*
G01*
X184029500Y-73554000D02*
G75*
G02*
X182840500Y-73554000I-594500J0D01*
G01*
X182840500Y-73554000D02*
G75*
G02*
X184029500Y-73554000I594500J0D01*
G01*
X184029500Y-76094000D02*
G75*
G02*
X182840500Y-76094000I-594500J0D01*
G01*
X182840500Y-76094000D02*
G75*
G02*
X184029500Y-76094000I594500J0D01*
G01*
X184029500Y-78634000D02*
G75*
G02*
X182840500Y-78634000I-594500J0D01*
G01*
X182840500Y-78634000D02*
G75*
G02*
X184029500Y-78634000I594500J0D01*
G01*
X184029500Y-81174000D02*
G75*
G02*
X182840500Y-81174000I-594500J0D01*
G01*
X182840500Y-81174000D02*
G75*
G02*
X184029500Y-81174000I594500J0D01*
G01*
X184029500Y-83714000D02*
G75*
G02*
X182840500Y-83714000I-594500J0D01*
G01*
X182840500Y-83714000D02*
G75*
G02*
X184029500Y-83714000I594500J0D01*
G01*
X184029500Y-86254000D02*
G75*
G02*
X182840500Y-86254000I-594500J0D01*
G01*
X182840500Y-86254000D02*
G75*
G02*
X184029500Y-86254000I594500J0D01*
G01*
X184029500Y-88794000D02*
G75*
G02*
X182840500Y-88794000I-594500J0D01*
G01*
X182840500Y-88794000D02*
G75*
G02*
X184029500Y-88794000I594500J0D01*
G01*
X184029500Y-91334000D02*
G75*
G02*
X182840500Y-91334000I-594500J0D01*
G01*
X182840500Y-91334000D02*
G75*
G02*
X184029500Y-91334000I594500J0D01*
G01*
X184029500Y-125624000D02*
G75*
G02*
X182840500Y-125624000I-594500J0D01*
G01*
X182840500Y-125624000D02*
G75*
G02*
X184029500Y-125624000I594500J0D01*
G01*
X184029500Y-128164000D02*
G75*
G02*
X182840500Y-128164000I-594500J0D01*
G01*
X182840500Y-128164000D02*
G75*
G02*
X184029500Y-128164000I594500J0D01*
G01*
X184029500Y-130704000D02*
G75*
G02*
X182840500Y-130704000I-594500J0D01*
G01*
X182840500Y-130704000D02*
G75*
G02*
X184029500Y-130704000I594500J0D01*
G01*
X184029500Y-133244000D02*
G75*
G02*
X182840500Y-133244000I-594500J0D01*
G01*
X182840500Y-133244000D02*
G75*
G02*
X184029500Y-133244000I594500J0D01*
G01*
X184029500Y-135784000D02*
G75*
G02*
X182840500Y-135784000I-594500J0D01*
G01*
X182840500Y-135784000D02*
G75*
G02*
X184029500Y-135784000I594500J0D01*
G01*
X184029500Y-138324000D02*
G75*
G02*
X182840500Y-138324000I-594500J0D01*
G01*
X182840500Y-138324000D02*
G75*
G02*
X184029500Y-138324000I594500J0D01*
G01*
X184029500Y-140864000D02*
G75*
G02*
X182840500Y-140864000I-594500J0D01*
G01*
X182840500Y-140864000D02*
G75*
G02*
X184029500Y-140864000I594500J0D01*
G01*
X184029500Y-143404000D02*
G75*
G02*
X182840500Y-143404000I-594500J0D01*
G01*
X182840500Y-143404000D02*
G75*
G02*
X184029500Y-143404000I594500J0D01*
G01*
D15*
X184473000Y-27266400D02*
X182988100Y-27264100D01*
X184478300Y-33419700D02*
X184473000Y-27266400D01*
X185528100Y-27264100D02*
X185534900Y-33417600D01*
X185534900Y-33417600D02*
X187018300Y-33419700D01*
D11*
X186569500Y-125624000D02*
G75*
G02*
X185380500Y-125624000I-594500J0D01*
G01*
X185380500Y-125624000D02*
G75*
G02*
X186569500Y-125624000I594500J0D01*
G01*
X186569500Y-128164000D02*
G75*
G02*
X185380500Y-128164000I-594500J0D01*
G01*
X185380500Y-128164000D02*
G75*
G02*
X186569500Y-128164000I594500J0D01*
G01*
X186569500Y-130704000D02*
G75*
G02*
X185380500Y-130704000I-594500J0D01*
G01*
X185380500Y-130704000D02*
G75*
G02*
X186569500Y-130704000I594500J0D01*
G01*
X186569500Y-133244000D02*
G75*
G02*
X185380500Y-133244000I-594500J0D01*
G01*
X185380500Y-133244000D02*
G75*
G02*
X186569500Y-133244000I594500J0D01*
G01*
X186569500Y-135784000D02*
G75*
G02*
X185380500Y-135784000I-594500J0D01*
G01*
X185380500Y-135784000D02*
G75*
G02*
X186569500Y-135784000I594500J0D01*
G01*
X186569500Y-138324000D02*
G75*
G02*
X185380500Y-138324000I-594500J0D01*
G01*
X185380500Y-138324000D02*
G75*
G02*
X186569500Y-138324000I594500J0D01*
G01*
X186569500Y-140864000D02*
G75*
G02*
X185380500Y-140864000I-594500J0D01*
G01*
X185380500Y-140864000D02*
G75*
G02*
X186569500Y-140864000I594500J0D01*
G01*
X186569500Y-143404000D02*
G75*
G02*
X185380500Y-143404000I-594500J0D01*
G01*
X185380500Y-143404000D02*
G75*
G02*
X186569500Y-143404000I594500J0D01*
G01*
D15*
X187013000Y-27266400D02*
X185528100Y-27264100D01*
X187018300Y-33419700D02*
X187013000Y-27266400D01*
X188068100Y-27264100D02*
X188074900Y-33417600D01*
X188074900Y-33417600D02*
X189558300Y-33419700D01*
D11*
X189109500Y-97684000D02*
G75*
G02*
X187920500Y-97684000I-594500J0D01*
G01*
X187920500Y-97684000D02*
G75*
G02*
X189109500Y-97684000I594500J0D01*
G01*
X189109500Y-100224000D02*
G75*
G02*
X187920500Y-100224000I-594500J0D01*
G01*
X187920500Y-100224000D02*
G75*
G02*
X189109500Y-100224000I594500J0D01*
G01*
X189109500Y-102764000D02*
G75*
G02*
X187920500Y-102764000I-594500J0D01*
G01*
X187920500Y-102764000D02*
G75*
G02*
X189109500Y-102764000I594500J0D01*
G01*
X189109500Y-105304000D02*
G75*
G02*
X187920500Y-105304000I-594500J0D01*
G01*
X187920500Y-105304000D02*
G75*
G02*
X189109500Y-105304000I594500J0D01*
G01*
X189109500Y-107844000D02*
G75*
G02*
X187920500Y-107844000I-594500J0D01*
G01*
X187920500Y-107844000D02*
G75*
G02*
X189109500Y-107844000I594500J0D01*
G01*
X189109500Y-110384000D02*
G75*
G02*
X187920500Y-110384000I-594500J0D01*
G01*
X187920500Y-110384000D02*
G75*
G02*
X189109500Y-110384000I594500J0D01*
G01*
X189109500Y-112924000D02*
G75*
G02*
X187920500Y-112924000I-594500J0D01*
G01*
X187920500Y-112924000D02*
G75*
G02*
X189109500Y-112924000I594500J0D01*
G01*
X189109500Y-115464000D02*
G75*
G02*
X187920500Y-115464000I-594500J0D01*
G01*
X187920500Y-115464000D02*
G75*
G02*
X189109500Y-115464000I594500J0D01*
G01*
D15*
X189553000Y-27266400D02*
X188068100Y-27264100D01*
X189558300Y-33419700D02*
X189553000Y-27266400D01*
D11*
X190228300Y-119669100D02*
G75*
G02*
X189039300Y-119669100I-594500J0D01*
G01*
X189039300Y-119669100D02*
G75*
G02*
X190228300Y-119669100I594500J0D01*
G01*
D15*
X190608100Y-27264100D02*
X190614900Y-33417600D01*
X190614900Y-33417600D02*
X192098300Y-33419700D01*
D11*
X191649500Y-97684000D02*
G75*
G02*
X190460500Y-97684000I-594500J0D01*
G01*
X190460500Y-97684000D02*
G75*
G02*
X191649500Y-97684000I594500J0D01*
G01*
X191649500Y-100224000D02*
G75*
G02*
X190460500Y-100224000I-594500J0D01*
G01*
X190460500Y-100224000D02*
G75*
G02*
X191649500Y-100224000I594500J0D01*
G01*
X191649500Y-102764000D02*
G75*
G02*
X190460500Y-102764000I-594500J0D01*
G01*
X190460500Y-102764000D02*
G75*
G02*
X191649500Y-102764000I594500J0D01*
G01*
X191649500Y-105304000D02*
G75*
G02*
X190460500Y-105304000I-594500J0D01*
G01*
X190460500Y-105304000D02*
G75*
G02*
X191649500Y-105304000I594500J0D01*
G01*
X191649500Y-107844000D02*
G75*
G02*
X190460500Y-107844000I-594500J0D01*
G01*
X190460500Y-107844000D02*
G75*
G02*
X191649500Y-107844000I594500J0D01*
G01*
X191649500Y-110384000D02*
G75*
G02*
X190460500Y-110384000I-594500J0D01*
G01*
X190460500Y-110384000D02*
G75*
G02*
X191649500Y-110384000I594500J0D01*
G01*
X191649500Y-112924000D02*
G75*
G02*
X190460500Y-112924000I-594500J0D01*
G01*
X190460500Y-112924000D02*
G75*
G02*
X191649500Y-112924000I594500J0D01*
G01*
X191649500Y-115464000D02*
G75*
G02*
X190460500Y-115464000I-594500J0D01*
G01*
X190460500Y-115464000D02*
G75*
G02*
X191649500Y-115464000I594500J0D01*
G01*
D15*
X192093000Y-27266400D02*
X190608100Y-27264100D01*
X192098300Y-33419700D02*
X192093000Y-27266400D01*
D11*
X192853200Y-119716900D02*
G75*
G02*
X191664200Y-119716900I-594500J0D01*
G01*
X191664200Y-119716900D02*
G75*
G02*
X192853200Y-119716900I594500J0D01*
G01*
D15*
X193148100Y-27264100D02*
X193154900Y-33417600D01*
X193154900Y-33417600D02*
X194638300Y-33419700D01*
D11*
X194189500Y-125624000D02*
G75*
G02*
X193000500Y-125624000I-594500J0D01*
G01*
X193000500Y-125624000D02*
G75*
G02*
X194189500Y-125624000I594500J0D01*
G01*
X194189500Y-128164000D02*
G75*
G02*
X193000500Y-128164000I-594500J0D01*
G01*
X193000500Y-128164000D02*
G75*
G02*
X194189500Y-128164000I594500J0D01*
G01*
X194189500Y-130704000D02*
G75*
G02*
X193000500Y-130704000I-594500J0D01*
G01*
X193000500Y-130704000D02*
G75*
G02*
X194189500Y-130704000I594500J0D01*
G01*
X194189500Y-133244000D02*
G75*
G02*
X193000500Y-133244000I-594500J0D01*
G01*
X193000500Y-133244000D02*
G75*
G02*
X194189500Y-133244000I594500J0D01*
G01*
X194189500Y-135784000D02*
G75*
G02*
X193000500Y-135784000I-594500J0D01*
G01*
X193000500Y-135784000D02*
G75*
G02*
X194189500Y-135784000I594500J0D01*
G01*
X194189500Y-138324000D02*
G75*
G02*
X193000500Y-138324000I-594500J0D01*
G01*
X193000500Y-138324000D02*
G75*
G02*
X194189500Y-138324000I594500J0D01*
G01*
X194189500Y-140864000D02*
G75*
G02*
X193000500Y-140864000I-594500J0D01*
G01*
X193000500Y-140864000D02*
G75*
G02*
X194189500Y-140864000I594500J0D01*
G01*
X194189500Y-143404000D02*
G75*
G02*
X193000500Y-143404000I-594500J0D01*
G01*
X193000500Y-143404000D02*
G75*
G02*
X194189500Y-143404000I594500J0D01*
G01*
D15*
X194633000Y-27266400D02*
X193148100Y-27264100D01*
X194638300Y-33419700D02*
X194633000Y-27266400D01*
X195688100Y-27264100D02*
X195694900Y-33417600D01*
X195694900Y-33417600D02*
X197178300Y-33419700D01*
D11*
X196657400Y-147777600D02*
G75*
G02*
X195468400Y-147777600I-594500J0D01*
G01*
X195468400Y-147777600D02*
G75*
G02*
X196657400Y-147777600I594500J0D01*
G01*
D15*
X197173000Y-27266400D02*
X195688100Y-27264100D01*
X197178300Y-33419700D02*
X197173000Y-27266400D01*
X198228100Y-27264100D02*
X198234900Y-33417600D01*
X198234900Y-33417600D02*
X199718300Y-33419700D01*
D11*
X199269500Y-43074000D02*
G75*
G02*
X198080500Y-43074000I-594500J0D01*
G01*
X198080500Y-43074000D02*
G75*
G02*
X199269500Y-43074000I594500J0D01*
G01*
X199269500Y-45614000D02*
G75*
G02*
X198080500Y-45614000I-594500J0D01*
G01*
X198080500Y-45614000D02*
G75*
G02*
X199269500Y-45614000I594500J0D01*
G01*
X199269500Y-48154000D02*
G75*
G02*
X198080500Y-48154000I-594500J0D01*
G01*
X198080500Y-48154000D02*
G75*
G02*
X199269500Y-48154000I594500J0D01*
G01*
X199269500Y-50694000D02*
G75*
G02*
X198080500Y-50694000I-594500J0D01*
G01*
X198080500Y-50694000D02*
G75*
G02*
X199269500Y-50694000I594500J0D01*
G01*
X199269500Y-53234000D02*
G75*
G02*
X198080500Y-53234000I-594500J0D01*
G01*
X198080500Y-53234000D02*
G75*
G02*
X199269500Y-53234000I594500J0D01*
G01*
X199269500Y-55774000D02*
G75*
G02*
X198080500Y-55774000I-594500J0D01*
G01*
X198080500Y-55774000D02*
G75*
G02*
X199269500Y-55774000I594500J0D01*
G01*
X199269500Y-58314000D02*
G75*
G02*
X198080500Y-58314000I-594500J0D01*
G01*
X198080500Y-58314000D02*
G75*
G02*
X199269500Y-58314000I594500J0D01*
G01*
X199269500Y-60854000D02*
G75*
G02*
X198080500Y-60854000I-594500J0D01*
G01*
X198080500Y-60854000D02*
G75*
G02*
X199269500Y-60854000I594500J0D01*
G01*
X199269500Y-63394000D02*
G75*
G02*
X198080500Y-63394000I-594500J0D01*
G01*
X198080500Y-63394000D02*
G75*
G02*
X199269500Y-63394000I594500J0D01*
G01*
X199269500Y-65934000D02*
G75*
G02*
X198080500Y-65934000I-594500J0D01*
G01*
X198080500Y-65934000D02*
G75*
G02*
X199269500Y-65934000I594500J0D01*
G01*
X199269500Y-68474000D02*
G75*
G02*
X198080500Y-68474000I-594500J0D01*
G01*
X198080500Y-68474000D02*
G75*
G02*
X199269500Y-68474000I594500J0D01*
G01*
X199269500Y-71014000D02*
G75*
G02*
X198080500Y-71014000I-594500J0D01*
G01*
X198080500Y-71014000D02*
G75*
G02*
X199269500Y-71014000I594500J0D01*
G01*
X199269500Y-73554000D02*
G75*
G02*
X198080500Y-73554000I-594500J0D01*
G01*
X198080500Y-73554000D02*
G75*
G02*
X199269500Y-73554000I594500J0D01*
G01*
X199269500Y-76094000D02*
G75*
G02*
X198080500Y-76094000I-594500J0D01*
G01*
X198080500Y-76094000D02*
G75*
G02*
X199269500Y-76094000I594500J0D01*
G01*
X199269500Y-78634000D02*
G75*
G02*
X198080500Y-78634000I-594500J0D01*
G01*
X198080500Y-78634000D02*
G75*
G02*
X199269500Y-78634000I594500J0D01*
G01*
X199269500Y-81174000D02*
G75*
G02*
X198080500Y-81174000I-594500J0D01*
G01*
X198080500Y-81174000D02*
G75*
G02*
X199269500Y-81174000I594500J0D01*
G01*
X199269500Y-83714000D02*
G75*
G02*
X198080500Y-83714000I-594500J0D01*
G01*
X198080500Y-83714000D02*
G75*
G02*
X199269500Y-83714000I594500J0D01*
G01*
X199269500Y-86254000D02*
G75*
G02*
X198080500Y-86254000I-594500J0D01*
G01*
X198080500Y-86254000D02*
G75*
G02*
X199269500Y-86254000I594500J0D01*
G01*
X199269500Y-88794000D02*
G75*
G02*
X198080500Y-88794000I-594500J0D01*
G01*
X198080500Y-88794000D02*
G75*
G02*
X199269500Y-88794000I594500J0D01*
G01*
X199269500Y-91334000D02*
G75*
G02*
X198080500Y-91334000I-594500J0D01*
G01*
X198080500Y-91334000D02*
G75*
G02*
X199269500Y-91334000I594500J0D01*
G01*
X199269500Y-97684000D02*
G75*
G02*
X198080500Y-97684000I-594500J0D01*
G01*
X198080500Y-97684000D02*
G75*
G02*
X199269500Y-97684000I594500J0D01*
G01*
X199269500Y-100224000D02*
G75*
G02*
X198080500Y-100224000I-594500J0D01*
G01*
X198080500Y-100224000D02*
G75*
G02*
X199269500Y-100224000I594500J0D01*
G01*
X199269500Y-102764000D02*
G75*
G02*
X198080500Y-102764000I-594500J0D01*
G01*
X198080500Y-102764000D02*
G75*
G02*
X199269500Y-102764000I594500J0D01*
G01*
X199269500Y-105304000D02*
G75*
G02*
X198080500Y-105304000I-594500J0D01*
G01*
X198080500Y-105304000D02*
G75*
G02*
X199269500Y-105304000I594500J0D01*
G01*
X199269500Y-107844000D02*
G75*
G02*
X198080500Y-107844000I-594500J0D01*
G01*
X198080500Y-107844000D02*
G75*
G02*
X199269500Y-107844000I594500J0D01*
G01*
X199269500Y-110384000D02*
G75*
G02*
X198080500Y-110384000I-594500J0D01*
G01*
X198080500Y-110384000D02*
G75*
G02*
X199269500Y-110384000I594500J0D01*
G01*
X199269500Y-112924000D02*
G75*
G02*
X198080500Y-112924000I-594500J0D01*
G01*
X198080500Y-112924000D02*
G75*
G02*
X199269500Y-112924000I594500J0D01*
G01*
X199269500Y-115464000D02*
G75*
G02*
X198080500Y-115464000I-594500J0D01*
G01*
X198080500Y-115464000D02*
G75*
G02*
X199269500Y-115464000I594500J0D01*
G01*
X199343000Y-147754500D02*
G75*
G02*
X198154000Y-147754500I-594500J0D01*
G01*
X198154000Y-147754500D02*
G75*
G02*
X199343000Y-147754500I594500J0D01*
G01*
D15*
X199713000Y-27266400D02*
X198228100Y-27264100D01*
X199718300Y-33419700D02*
X199713000Y-27266400D01*
X200768100Y-27264100D02*
X200774900Y-33417600D01*
X200774900Y-33417600D02*
X202258300Y-33419700D01*
D16*
X202254000Y-122830000D02*
G75*
G02*
X201192000Y-122830000I-531000J0D01*
G01*
X201192000Y-122830000D02*
G75*
G02*
X202254000Y-122830000I531000J0D01*
G01*
X202533400Y-143200800D02*
G75*
G02*
X201471400Y-143200800I-531000J0D01*
G01*
X201471400Y-143200800D02*
G75*
G02*
X202533400Y-143200800I531000J0D01*
G01*
D15*
X202253000Y-27266400D02*
X200768100Y-27264100D01*
X202258300Y-33419700D02*
X202253000Y-27266400D01*
X203308100Y-27264100D02*
X203314900Y-33417600D01*
X203314900Y-33417600D02*
X204798300Y-33419700D01*
D11*
X204857500Y-96414000D02*
G75*
G02*
X203668500Y-96414000I-594500J0D01*
G01*
X203668500Y-96414000D02*
G75*
G02*
X204857500Y-96414000I594500J0D01*
G01*
X204857500Y-116480000D02*
G75*
G02*
X203668500Y-116480000I-594500J0D01*
G01*
X203668500Y-116480000D02*
G75*
G02*
X204857500Y-116480000I594500J0D01*
G01*
D15*
X204793000Y-27266400D02*
X203308100Y-27264100D01*
X204798300Y-33419700D02*
X204793000Y-27266400D01*
D11*
X205494400Y-119680500D02*
G75*
G02*
X204305400Y-119680500I-594500J0D01*
G01*
X204305400Y-119680500D02*
G75*
G02*
X205494400Y-119680500I594500J0D01*
G01*
D15*
X205848100Y-27264100D02*
X205854900Y-33417600D01*
X205854900Y-33417600D02*
X207338300Y-33419700D01*
D11*
X206889500Y-43074000D02*
G75*
G02*
X205700500Y-43074000I-594500J0D01*
G01*
X205700500Y-43074000D02*
G75*
G02*
X206889500Y-43074000I594500J0D01*
G01*
X206889500Y-45614000D02*
G75*
G02*
X205700500Y-45614000I-594500J0D01*
G01*
X205700500Y-45614000D02*
G75*
G02*
X206889500Y-45614000I594500J0D01*
G01*
X206889500Y-48154000D02*
G75*
G02*
X205700500Y-48154000I-594500J0D01*
G01*
X205700500Y-48154000D02*
G75*
G02*
X206889500Y-48154000I594500J0D01*
G01*
X206889500Y-50694000D02*
G75*
G02*
X205700500Y-50694000I-594500J0D01*
G01*
X205700500Y-50694000D02*
G75*
G02*
X206889500Y-50694000I594500J0D01*
G01*
X206889500Y-53234000D02*
G75*
G02*
X205700500Y-53234000I-594500J0D01*
G01*
X205700500Y-53234000D02*
G75*
G02*
X206889500Y-53234000I594500J0D01*
G01*
X206889500Y-55774000D02*
G75*
G02*
X205700500Y-55774000I-594500J0D01*
G01*
X205700500Y-55774000D02*
G75*
G02*
X206889500Y-55774000I594500J0D01*
G01*
X206889500Y-58314000D02*
G75*
G02*
X205700500Y-58314000I-594500J0D01*
G01*
X205700500Y-58314000D02*
G75*
G02*
X206889500Y-58314000I594500J0D01*
G01*
X206889500Y-60854000D02*
G75*
G02*
X205700500Y-60854000I-594500J0D01*
G01*
X205700500Y-60854000D02*
G75*
G02*
X206889500Y-60854000I594500J0D01*
G01*
X206889500Y-63394000D02*
G75*
G02*
X205700500Y-63394000I-594500J0D01*
G01*
X205700500Y-63394000D02*
G75*
G02*
X206889500Y-63394000I594500J0D01*
G01*
X206889500Y-65934000D02*
G75*
G02*
X205700500Y-65934000I-594500J0D01*
G01*
X205700500Y-65934000D02*
G75*
G02*
X206889500Y-65934000I594500J0D01*
G01*
X206889500Y-68474000D02*
G75*
G02*
X205700500Y-68474000I-594500J0D01*
G01*
X205700500Y-68474000D02*
G75*
G02*
X206889500Y-68474000I594500J0D01*
G01*
X206889500Y-71014000D02*
G75*
G02*
X205700500Y-71014000I-594500J0D01*
G01*
X205700500Y-71014000D02*
G75*
G02*
X206889500Y-71014000I594500J0D01*
G01*
X206889500Y-73554000D02*
G75*
G02*
X205700500Y-73554000I-594500J0D01*
G01*
X205700500Y-73554000D02*
G75*
G02*
X206889500Y-73554000I594500J0D01*
G01*
X206889500Y-76094000D02*
G75*
G02*
X205700500Y-76094000I-594500J0D01*
G01*
X205700500Y-76094000D02*
G75*
G02*
X206889500Y-76094000I594500J0D01*
G01*
D15*
X207333000Y-27266400D02*
X205848100Y-27264100D01*
X207338300Y-33419700D02*
X207333000Y-27266400D01*
X208388100Y-27264100D02*
X208394900Y-33417600D01*
X208394900Y-33417600D02*
X209878300Y-33419700D01*
X209873000Y-27266400D02*
X208388100Y-27264100D01*
X209878300Y-33419700D02*
X209873000Y-27266400D01*
D11*
X210570300Y-130513600D02*
G75*
G02*
X209381300Y-130513600I-594500J0D01*
G01*
X209381300Y-130513600D02*
G75*
G02*
X210570300Y-130513600I594500J0D01*
G01*
X210612300Y-125373500D02*
G75*
G02*
X209423300Y-125373500I-594500J0D01*
G01*
X209423300Y-125373500D02*
G75*
G02*
X210612300Y-125373500I594500J0D01*
G01*
X210612300Y-127936600D02*
G75*
G02*
X209423300Y-127936600I-594500J0D01*
G01*
X209423300Y-127936600D02*
G75*
G02*
X210612300Y-127936600I594500J0D01*
G01*
D15*
X210928100Y-27264100D02*
X210934900Y-33417600D01*
X210934900Y-33417600D02*
X212418300Y-33419700D01*
D11*
X211969500Y-113432000D02*
G75*
G02*
X210780500Y-113432000I-594500J0D01*
G01*
X210780500Y-113432000D02*
G75*
G02*
X211969500Y-113432000I594500J0D01*
G01*
X211969500Y-115464000D02*
G75*
G02*
X210780500Y-115464000I-594500J0D01*
G01*
X210780500Y-115464000D02*
G75*
G02*
X211969500Y-115464000I594500J0D01*
G01*
X211984200Y-147718100D02*
G75*
G02*
X210795200Y-147718100I-594500J0D01*
G01*
X210795200Y-147718100D02*
G75*
G02*
X211984200Y-147718100I594500J0D01*
G01*
X212477500Y-134260000D02*
G75*
G02*
X211288500Y-134260000I-594500J0D01*
G01*
X211288500Y-134260000D02*
G75*
G02*
X212477500Y-134260000I594500J0D01*
G01*
D16*
X212668000Y-39264000D02*
G75*
G02*
X211606000Y-39264000I-531000J0D01*
G01*
X211606000Y-39264000D02*
G75*
G02*
X212668000Y-39264000I531000J0D01*
G01*
D15*
X212413000Y-27266400D02*
X210928100Y-27264100D01*
X212418300Y-33419700D02*
X212413000Y-27266400D01*
X213468100Y-27264100D02*
X213474900Y-33417600D01*
X213474900Y-33417600D02*
X214953000Y-33414400D01*
D11*
X214509500Y-113432000D02*
G75*
G02*
X213320500Y-113432000I-594500J0D01*
G01*
X213320500Y-113432000D02*
G75*
G02*
X214509500Y-113432000I594500J0D01*
G01*
X214509500Y-115464000D02*
G75*
G02*
X213320500Y-115464000I-594500J0D01*
G01*
X213320500Y-115464000D02*
G75*
G02*
X214509500Y-115464000I594500J0D01*
G01*
X215113900Y-134260000D02*
G75*
G02*
X213924900Y-134260000I-594500J0D01*
G01*
X213924900Y-134260000D02*
G75*
G02*
X215113900Y-134260000I594500J0D01*
G01*
D15*
X214953000Y-27266400D02*
X213468100Y-27264100D01*
X214953000Y-33414400D02*
X214953000Y-27266400D01*
X216008100Y-27264100D02*
X216014900Y-33417600D01*
X216014900Y-33417600D02*
X217493000Y-33414400D01*
D11*
X217049500Y-113432000D02*
G75*
G02*
X215860500Y-113432000I-594500J0D01*
G01*
X215860500Y-113432000D02*
G75*
G02*
X217049500Y-113432000I594500J0D01*
G01*
X217049500Y-115464000D02*
G75*
G02*
X215860500Y-115464000I-594500J0D01*
G01*
X215860500Y-115464000D02*
G75*
G02*
X217049500Y-115464000I594500J0D01*
G01*
X217732200Y-134243400D02*
G75*
G02*
X216543200Y-134243400I-594500J0D01*
G01*
X216543200Y-134243400D02*
G75*
G02*
X217732200Y-134243400I594500J0D01*
G01*
D15*
X217493000Y-27266400D02*
X216008100Y-27264100D01*
X217493000Y-33414400D02*
X217493000Y-27266400D01*
X218548100Y-27264100D02*
X218554900Y-33417600D01*
X218554900Y-33417600D02*
X220038300Y-33419700D01*
D11*
X219589500Y-113432000D02*
G75*
G02*
X218400500Y-113432000I-594500J0D01*
G01*
X218400500Y-113432000D02*
G75*
G02*
X219589500Y-113432000I594500J0D01*
G01*
X219589500Y-115464000D02*
G75*
G02*
X218400500Y-115464000I-594500J0D01*
G01*
X218400500Y-115464000D02*
G75*
G02*
X219589500Y-115464000I594500J0D01*
G01*
D15*
X220033000Y-27266400D02*
X218548100Y-27264100D01*
X220038300Y-33419700D02*
X220033000Y-27266400D01*
X221088100Y-27264100D02*
X221094900Y-33417600D01*
X221094900Y-33417600D02*
X222578300Y-33419700D01*
D11*
X222129500Y-43074000D02*
G75*
G02*
X220940500Y-43074000I-594500J0D01*
G01*
X220940500Y-43074000D02*
G75*
G02*
X222129500Y-43074000I594500J0D01*
G01*
X222129500Y-45614000D02*
G75*
G02*
X220940500Y-45614000I-594500J0D01*
G01*
X220940500Y-45614000D02*
G75*
G02*
X222129500Y-45614000I594500J0D01*
G01*
X222129500Y-48154000D02*
G75*
G02*
X220940500Y-48154000I-594500J0D01*
G01*
X220940500Y-48154000D02*
G75*
G02*
X222129500Y-48154000I594500J0D01*
G01*
X222129500Y-50694000D02*
G75*
G02*
X220940500Y-50694000I-594500J0D01*
G01*
X220940500Y-50694000D02*
G75*
G02*
X222129500Y-50694000I594500J0D01*
G01*
X222129500Y-53234000D02*
G75*
G02*
X220940500Y-53234000I-594500J0D01*
G01*
X220940500Y-53234000D02*
G75*
G02*
X222129500Y-53234000I594500J0D01*
G01*
X222129500Y-55774000D02*
G75*
G02*
X220940500Y-55774000I-594500J0D01*
G01*
X220940500Y-55774000D02*
G75*
G02*
X222129500Y-55774000I594500J0D01*
G01*
X222129500Y-58314000D02*
G75*
G02*
X220940500Y-58314000I-594500J0D01*
G01*
X220940500Y-58314000D02*
G75*
G02*
X222129500Y-58314000I594500J0D01*
G01*
X222129500Y-60854000D02*
G75*
G02*
X220940500Y-60854000I-594500J0D01*
G01*
X220940500Y-60854000D02*
G75*
G02*
X222129500Y-60854000I594500J0D01*
G01*
X222129500Y-63394000D02*
G75*
G02*
X220940500Y-63394000I-594500J0D01*
G01*
X220940500Y-63394000D02*
G75*
G02*
X222129500Y-63394000I594500J0D01*
G01*
X222129500Y-65934000D02*
G75*
G02*
X220940500Y-65934000I-594500J0D01*
G01*
X220940500Y-65934000D02*
G75*
G02*
X222129500Y-65934000I594500J0D01*
G01*
X222129500Y-68474000D02*
G75*
G02*
X220940500Y-68474000I-594500J0D01*
G01*
X220940500Y-68474000D02*
G75*
G02*
X222129500Y-68474000I594500J0D01*
G01*
X222129500Y-71014000D02*
G75*
G02*
X220940500Y-71014000I-594500J0D01*
G01*
X220940500Y-71014000D02*
G75*
G02*
X222129500Y-71014000I594500J0D01*
G01*
X222129500Y-73554000D02*
G75*
G02*
X220940500Y-73554000I-594500J0D01*
G01*
X220940500Y-73554000D02*
G75*
G02*
X222129500Y-73554000I594500J0D01*
G01*
X222129500Y-76094000D02*
G75*
G02*
X220940500Y-76094000I-594500J0D01*
G01*
X220940500Y-76094000D02*
G75*
G02*
X222129500Y-76094000I594500J0D01*
G01*
X222129500Y-113432000D02*
G75*
G02*
X220940500Y-113432000I-594500J0D01*
G01*
X220940500Y-113432000D02*
G75*
G02*
X222129500Y-113432000I594500J0D01*
G01*
X222129500Y-115464000D02*
G75*
G02*
X220940500Y-115464000I-594500J0D01*
G01*
X220940500Y-115464000D02*
G75*
G02*
X222129500Y-115464000I594500J0D01*
G01*
D15*
X222573000Y-27266400D02*
X221088100Y-27264100D01*
X222578300Y-33419700D02*
X222573000Y-27266400D01*
D11*
X223211500Y-130477200D02*
G75*
G02*
X222022500Y-130477200I-594500J0D01*
G01*
X222022500Y-130477200D02*
G75*
G02*
X223211500Y-130477200I594500J0D01*
G01*
X223253500Y-125337100D02*
G75*
G02*
X222064500Y-125337100I-594500J0D01*
G01*
X222064500Y-125337100D02*
G75*
G02*
X223253500Y-125337100I594500J0D01*
G01*
X223253500Y-127900200D02*
G75*
G02*
X222064500Y-127900200I-594500J0D01*
G01*
X222064500Y-127900200D02*
G75*
G02*
X223253500Y-127900200I594500J0D01*
G01*
D15*
X223628100Y-27264100D02*
X223634900Y-33417600D01*
X223634900Y-33417600D02*
X225118300Y-33419700D01*
D11*
X224669500Y-113432000D02*
G75*
G02*
X223480500Y-113432000I-594500J0D01*
G01*
X223480500Y-113432000D02*
G75*
G02*
X224669500Y-113432000I594500J0D01*
G01*
X224669500Y-115464000D02*
G75*
G02*
X223480500Y-115464000I-594500J0D01*
G01*
X223480500Y-115464000D02*
G75*
G02*
X224669500Y-115464000I594500J0D01*
G01*
D16*
X225368000Y-39264000D02*
G75*
G02*
X224306000Y-39264000I-531000J0D01*
G01*
X224306000Y-39264000D02*
G75*
G02*
X225368000Y-39264000I531000J0D01*
G01*
D15*
X225113000Y-27266400D02*
X223628100Y-27264100D01*
X225118300Y-33419700D02*
X225113000Y-27266400D01*
D11*
X225899000Y-128531200D02*
G75*
G02*
X224710000Y-128531200I-594500J0D01*
G01*
X224710000Y-128531200D02*
G75*
G02*
X225899000Y-128531200I594500J0D01*
G01*
X225903800Y-125995000D02*
G75*
G02*
X224714800Y-125995000I-594500J0D01*
G01*
X224714800Y-125995000D02*
G75*
G02*
X225903800Y-125995000I594500J0D01*
G01*
X225906400Y-123440800D02*
G75*
G02*
X224717400Y-123440800I-594500J0D01*
G01*
X224717400Y-123440800D02*
G75*
G02*
X225906400Y-123440800I594500J0D01*
G01*
X225939500Y-69490000D02*
G75*
G02*
X224750500Y-69490000I-594500J0D01*
G01*
X224750500Y-69490000D02*
G75*
G02*
X225939500Y-69490000I594500J0D01*
G01*
X225939500Y-76094000D02*
G75*
G02*
X224750500Y-76094000I-594500J0D01*
G01*
X224750500Y-76094000D02*
G75*
G02*
X225939500Y-76094000I594500J0D01*
G01*
D17*
X226095000Y-120290000D02*
G75*
G02*
X224595000Y-120290000I-750000J0D01*
G01*
X224595000Y-120290000D02*
G75*
G02*
X226095000Y-120290000I750000J0D01*
G01*
D11*
X226045600Y-81088800D02*
G75*
G02*
X224856600Y-81088800I-594500J0D01*
G01*
X224856600Y-81088800D02*
G75*
G02*
X226045600Y-81088800I594500J0D01*
G01*
X226045600Y-83628800D02*
G75*
G02*
X224856600Y-83628800I-594500J0D01*
G01*
X224856600Y-83628800D02*
G75*
G02*
X226045600Y-83628800I594500J0D01*
G01*
X226045600Y-86168800D02*
G75*
G02*
X224856600Y-86168800I-594500J0D01*
G01*
X224856600Y-86168800D02*
G75*
G02*
X226045600Y-86168800I594500J0D01*
G01*
X226045600Y-88708800D02*
G75*
G02*
X224856600Y-88708800I-594500J0D01*
G01*
X224856600Y-88708800D02*
G75*
G02*
X226045600Y-88708800I594500J0D01*
G01*
X226045600Y-91248800D02*
G75*
G02*
X224856600Y-91248800I-594500J0D01*
G01*
X224856600Y-91248800D02*
G75*
G02*
X226045600Y-91248800I594500J0D01*
G01*
X226045600Y-93788800D02*
G75*
G02*
X224856600Y-93788800I-594500J0D01*
G01*
X224856600Y-93788800D02*
G75*
G02*
X226045600Y-93788800I594500J0D01*
G01*
D15*
X226168100Y-27264100D02*
X226174900Y-33417600D01*
X226174900Y-33417600D02*
X227658300Y-33419700D01*
D11*
X227209500Y-113432000D02*
G75*
G02*
X226020500Y-113432000I-594500J0D01*
G01*
X226020500Y-113432000D02*
G75*
G02*
X227209500Y-113432000I594500J0D01*
G01*
X227209500Y-115464000D02*
G75*
G02*
X226020500Y-115464000I-594500J0D01*
G01*
X226020500Y-115464000D02*
G75*
G02*
X227209500Y-115464000I594500J0D01*
G01*
D15*
X227653000Y-27266400D02*
X226168100Y-27264100D01*
X227658300Y-33419700D02*
X227653000Y-27266400D01*
X228708100Y-27264100D02*
X228714900Y-33417600D01*
X228714900Y-33417600D02*
X230198300Y-33419700D01*
D11*
X229749500Y-113432000D02*
G75*
G02*
X228560500Y-113432000I-594500J0D01*
G01*
X228560500Y-113432000D02*
G75*
G02*
X229749500Y-113432000I594500J0D01*
G01*
X229749500Y-115464000D02*
G75*
G02*
X228560500Y-115464000I-594500J0D01*
G01*
X228560500Y-115464000D02*
G75*
G02*
X229749500Y-115464000I594500J0D01*
G01*
D15*
X230193000Y-27266400D02*
X228708100Y-27264100D01*
X230198300Y-33419700D02*
X230193000Y-27266400D01*
D18*
X231949000Y-40534000D02*
X249475000Y-40534000D01*
X231949000Y-50440000D02*
X231949000Y-40534000D01*
D19*
X237675000Y-54504000D02*
G75*
G02*
X235875000Y-54504000I-900000J0D01*
G01*
X235875000Y-54504000D02*
G75*
G02*
X237675000Y-54504000I900000J0D01*
G01*
X237675000Y-58314000D02*
G75*
G02*
X235875000Y-58314000I-900000J0D01*
G01*
X235875000Y-58314000D02*
G75*
G02*
X237675000Y-58314000I900000J0D01*
G01*
X237675000Y-63140000D02*
G75*
G02*
X235875000Y-63140000I-900000J0D01*
G01*
X235875000Y-63140000D02*
G75*
G02*
X237675000Y-63140000I900000J0D01*
G01*
D11*
X238540200Y-128494800D02*
G75*
G02*
X237351200Y-128494800I-594500J0D01*
G01*
X237351200Y-128494800D02*
G75*
G02*
X238540200Y-128494800I594500J0D01*
G01*
X238545000Y-125958600D02*
G75*
G02*
X237356000Y-125958600I-594500J0D01*
G01*
X237356000Y-125958600D02*
G75*
G02*
X238545000Y-125958600I594500J0D01*
G01*
X238547600Y-123404400D02*
G75*
G02*
X237358600Y-123404400I-594500J0D01*
G01*
X237358600Y-123404400D02*
G75*
G02*
X238547600Y-123404400I594500J0D01*
G01*
X238639500Y-111400000D02*
G75*
G02*
X237450500Y-111400000I-594500J0D01*
G01*
X237450500Y-111400000D02*
G75*
G02*
X238639500Y-111400000I594500J0D01*
G01*
X238639500Y-113940000D02*
G75*
G02*
X237450500Y-113940000I-594500J0D01*
G01*
X237450500Y-113940000D02*
G75*
G02*
X238639500Y-113940000I594500J0D01*
G01*
X238639500Y-116480000D02*
G75*
G02*
X237450500Y-116480000I-594500J0D01*
G01*
X237450500Y-116480000D02*
G75*
G02*
X238639500Y-116480000I594500J0D01*
G01*
D17*
X238795000Y-120290000D02*
G75*
G02*
X237295000Y-120290000I-750000J0D01*
G01*
X237295000Y-120290000D02*
G75*
G02*
X238795000Y-120290000I750000J0D01*
G01*
D11*
X238686800Y-81052400D02*
G75*
G02*
X237497800Y-81052400I-594500J0D01*
G01*
X237497800Y-81052400D02*
G75*
G02*
X238686800Y-81052400I594500J0D01*
G01*
X238686800Y-83592400D02*
G75*
G02*
X237497800Y-83592400I-594500J0D01*
G01*
X237497800Y-83592400D02*
G75*
G02*
X238686800Y-83592400I594500J0D01*
G01*
X238686800Y-86132400D02*
G75*
G02*
X237497800Y-86132400I-594500J0D01*
G01*
X237497800Y-86132400D02*
G75*
G02*
X238686800Y-86132400I594500J0D01*
G01*
X238686800Y-88672400D02*
G75*
G02*
X237497800Y-88672400I-594500J0D01*
G01*
X237497800Y-88672400D02*
G75*
G02*
X238686800Y-88672400I594500J0D01*
G01*
X238686800Y-91212400D02*
G75*
G02*
X237497800Y-91212400I-594500J0D01*
G01*
X237497800Y-91212400D02*
G75*
G02*
X238686800Y-91212400I594500J0D01*
G01*
X238686800Y-93752400D02*
G75*
G02*
X237497800Y-93752400I-594500J0D01*
G01*
X237497800Y-93752400D02*
G75*
G02*
X238686800Y-93752400I594500J0D01*
G01*
X241261800Y-102544400D02*
G75*
G02*
X240072800Y-102544400I-594500J0D01*
G01*
X240072800Y-102544400D02*
G75*
G02*
X241261800Y-102544400I594500J0D01*
G01*
X241285600Y-81088800D02*
G75*
G02*
X240096600Y-81088800I-594500J0D01*
G01*
X240096600Y-81088800D02*
G75*
G02*
X241285600Y-81088800I594500J0D01*
G01*
X241285600Y-83628800D02*
G75*
G02*
X240096600Y-83628800I-594500J0D01*
G01*
X240096600Y-83628800D02*
G75*
G02*
X241285600Y-83628800I594500J0D01*
G01*
X241285600Y-86168800D02*
G75*
G02*
X240096600Y-86168800I-594500J0D01*
G01*
X240096600Y-86168800D02*
G75*
G02*
X241285600Y-86168800I594500J0D01*
G01*
X241285600Y-88708800D02*
G75*
G02*
X240096600Y-88708800I-594500J0D01*
G01*
X240096600Y-88708800D02*
G75*
G02*
X241285600Y-88708800I594500J0D01*
G01*
X241285600Y-91248800D02*
G75*
G02*
X240096600Y-91248800I-594500J0D01*
G01*
X240096600Y-91248800D02*
G75*
G02*
X241285600Y-91248800I594500J0D01*
G01*
X241285600Y-93788800D02*
G75*
G02*
X240096600Y-93788800I-594500J0D01*
G01*
X240096600Y-93788800D02*
G75*
G02*
X241285600Y-93788800I594500J0D01*
G01*
D16*
X241370000Y-122068000D02*
G75*
G02*
X240308000Y-122068000I-531000J0D01*
G01*
X240308000Y-122068000D02*
G75*
G02*
X241370000Y-122068000I531000J0D01*
G01*
X241370000Y-129688000D02*
G75*
G02*
X240308000Y-129688000I-531000J0D01*
G01*
X240308000Y-129688000D02*
G75*
G02*
X241370000Y-129688000I531000J0D01*
G01*
D11*
X243719500Y-111400000D02*
G75*
G02*
X242530500Y-111400000I-594500J0D01*
G01*
X242530500Y-111400000D02*
G75*
G02*
X243719500Y-111400000I594500J0D01*
G01*
X243719500Y-113940000D02*
G75*
G02*
X242530500Y-113940000I-594500J0D01*
G01*
X242530500Y-113940000D02*
G75*
G02*
X243719500Y-113940000I594500J0D01*
G01*
X243719500Y-116480000D02*
G75*
G02*
X242530500Y-116480000I-594500J0D01*
G01*
X242530500Y-116480000D02*
G75*
G02*
X243719500Y-116480000I594500J0D01*
G01*
D20*
X244862900Y-33676000D02*
G75*
G02*
X242911900Y-33676000I-975500J0D01*
G01*
X242911900Y-33676000D02*
G75*
G02*
X244862900Y-33676000I975500J0D01*
G01*
D19*
X246311000Y-54504000D02*
G75*
G02*
X244511000Y-54504000I-900000J0D01*
G01*
X244511000Y-54504000D02*
G75*
G02*
X246311000Y-54504000I900000J0D01*
G01*
X246311000Y-58314000D02*
G75*
G02*
X244511000Y-58314000I-900000J0D01*
G01*
X244511000Y-58314000D02*
G75*
G02*
X246311000Y-58314000I900000J0D01*
G01*
X246311000Y-63140000D02*
G75*
G02*
X244511000Y-63140000I-900000J0D01*
G01*
X244511000Y-63140000D02*
G75*
G02*
X246311000Y-63140000I900000J0D01*
G01*
D11*
X246259500Y-69490000D02*
G75*
G02*
X245070500Y-69490000I-594500J0D01*
G01*
X245070500Y-69490000D02*
G75*
G02*
X246259500Y-69490000I594500J0D01*
G01*
X246259500Y-76094000D02*
G75*
G02*
X245070500Y-76094000I-594500J0D01*
G01*
X245070500Y-76094000D02*
G75*
G02*
X246259500Y-76094000I594500J0D01*
G01*
D19*
X248426800Y-136594800D02*
G75*
G02*
X246626800Y-136594800I-900000J0D01*
G01*
X246626800Y-136594800D02*
G75*
G02*
X248426800Y-136594800I900000J0D01*
G01*
X248457600Y-146687100D02*
G75*
G02*
X246657600Y-146687100I-900000J0D01*
G01*
X246657600Y-146687100D02*
G75*
G02*
X248457600Y-146687100I900000J0D01*
G01*
D16*
X248990000Y-122068000D02*
G75*
G02*
X247928000Y-122068000I-531000J0D01*
G01*
X247928000Y-122068000D02*
G75*
G02*
X248990000Y-122068000I531000J0D01*
G01*
X248990000Y-129688000D02*
G75*
G02*
X247928000Y-129688000I-531000J0D01*
G01*
X247928000Y-129688000D02*
G75*
G02*
X248990000Y-129688000I531000J0D01*
G01*
D20*
X249434900Y-30120000D02*
G75*
G02*
X247483900Y-30120000I-975500J0D01*
G01*
X247483900Y-30120000D02*
G75*
G02*
X249434900Y-30120000I975500J0D01*
G01*
X249434900Y-37232000D02*
G75*
G02*
X247483900Y-37232000I-975500J0D01*
G01*
X247483900Y-37232000D02*
G75*
G02*
X249434900Y-37232000I975500J0D01*
G01*
D18*
X249475000Y-40534000D02*
X249475000Y-50440000D01*
X249475000Y-50440000D02*
X231949000Y-50440000D01*
D17*
X254035000Y-42794600D02*
G75*
G02*
X252535000Y-42794600I-750000J0D01*
G01*
X252535000Y-42794600D02*
G75*
G02*
X254035000Y-42794600I750000J0D01*
G01*
X254035000Y-45487000D02*
G75*
G02*
X252535000Y-45487000I-750000J0D01*
G01*
X252535000Y-45487000D02*
G75*
G02*
X254035000Y-45487000I750000J0D01*
G01*
X254035000Y-48154000D02*
G75*
G02*
X252535000Y-48154000I-750000J0D01*
G01*
X252535000Y-48154000D02*
G75*
G02*
X254035000Y-48154000I750000J0D01*
G01*
D11*
X253903000Y-102508000D02*
G75*
G02*
X252714000Y-102508000I-594500J0D01*
G01*
X252714000Y-102508000D02*
G75*
G02*
X253903000Y-102508000I594500J0D01*
G01*
X253926700Y-81052400D02*
G75*
G02*
X252737700Y-81052400I-594500J0D01*
G01*
X252737700Y-81052400D02*
G75*
G02*
X253926700Y-81052400I594500J0D01*
G01*
X253926700Y-83592400D02*
G75*
G02*
X252737700Y-83592400I-594500J0D01*
G01*
X252737700Y-83592400D02*
G75*
G02*
X253926700Y-83592400I594500J0D01*
G01*
X253926700Y-86132400D02*
G75*
G02*
X252737700Y-86132400I-594500J0D01*
G01*
X252737700Y-86132400D02*
G75*
G02*
X253926700Y-86132400I594500J0D01*
G01*
X253926700Y-88672400D02*
G75*
G02*
X252737700Y-88672400I-594500J0D01*
G01*
X252737700Y-88672400D02*
G75*
G02*
X253926700Y-88672400I594500J0D01*
G01*
X253926700Y-91212400D02*
G75*
G02*
X252737700Y-91212400I-594500J0D01*
G01*
X252737700Y-91212400D02*
G75*
G02*
X253926700Y-91212400I594500J0D01*
G01*
X253926700Y-93752400D02*
G75*
G02*
X252737700Y-93752400I-594500J0D01*
G01*
X252737700Y-93752400D02*
G75*
G02*
X253926700Y-93752400I594500J0D01*
G01*
D20*
X254514900Y-33676000D02*
G75*
G02*
X252563900Y-33676000I-975500J0D01*
G01*
X252563900Y-33676000D02*
G75*
G02*
X254514900Y-33676000I975500J0D01*
G01*
D21*
%TO.C,C56*%
X152843875Y-147800000D03*
X165543875Y-147800000D03*
%TD*%
D22*
%TO.C,X1*%
X102155000Y-55776000D03*
X97016700Y-55855600D03*
%TD*%
D21*
%TO.C,C61*%
X198748500Y-147800000D03*
X211448500Y-147800000D03*
%TD*%
D23*
%TO.C,C46*%
X225345000Y-98190000D03*
X245665000Y-98190000D03*
%TD*%
D21*
%TO.C,C60*%
X146468300Y-119900000D03*
X159168300Y-119900000D03*
%TD*%
%TO.C,IC1*%
X111045000Y-65930000D03*
X111045000Y-68470000D03*
X111045000Y-71010000D03*
X111045000Y-73550000D03*
X111045000Y-76090000D03*
X111045000Y-78630000D03*
X111045000Y-81170000D03*
X111045000Y-83710000D03*
X111045000Y-86250000D03*
X111045000Y-88790000D03*
X111045000Y-91330000D03*
X111045000Y-93870000D03*
X111045000Y-96410000D03*
X111045000Y-98950000D03*
X111045000Y-101490000D03*
X111045000Y-104030000D03*
X111045000Y-106570000D03*
X111045000Y-109110000D03*
X111045000Y-111650000D03*
X111045000Y-114190000D03*
X126285000Y-114190000D03*
X126285000Y-111650000D03*
X126285000Y-109110000D03*
X126285000Y-106570000D03*
X126285000Y-104030000D03*
X126285000Y-101490000D03*
X126285000Y-98950000D03*
X126285000Y-96410000D03*
X126285000Y-93870000D03*
X126285000Y-91330000D03*
X126285000Y-88790000D03*
X126285000Y-86250000D03*
X126285000Y-83710000D03*
X126285000Y-81170000D03*
X126285000Y-78630000D03*
X126285000Y-76090000D03*
X126285000Y-73550000D03*
X126285000Y-71010000D03*
X126285000Y-68470000D03*
X126285000Y-65930000D03*
%TD*%
%TO.C,IC17*%
X165655000Y-125600000D03*
X165655000Y-128140000D03*
X165655000Y-130680000D03*
X165655000Y-133220000D03*
X165655000Y-135760000D03*
X165655000Y-138300000D03*
X165655000Y-140840000D03*
X165655000Y-143380000D03*
X173275000Y-143380000D03*
X173275000Y-140840000D03*
X173275000Y-138300000D03*
X173275000Y-135760000D03*
X173275000Y-133220000D03*
X173275000Y-130680000D03*
X173275000Y-128140000D03*
X173275000Y-125600000D03*
%TD*%
%TO.C,C3*%
X90507800Y-121200000D03*
X103207800Y-121200000D03*
%TD*%
D24*
%TO.C,R53*%
X62765950Y-61110000D03*
X75465950Y-61110000D03*
%TD*%
%TO.C,R60*%
X240691100Y-88710000D03*
X253391100Y-88710000D03*
%TD*%
%TO.C,R10*%
X128753000Y-116600000D03*
X141453000Y-116600000D03*
%TD*%
%TO.C,R43*%
X79793000Y-76080000D03*
X92493000Y-76080000D03*
%TD*%
D21*
%TO.C,IC9*%
X90564300Y-125600000D03*
X90564300Y-128140000D03*
X90564300Y-130680000D03*
X90564300Y-133220000D03*
X90564300Y-135760000D03*
X90564300Y-138300000D03*
X90564300Y-140840000D03*
X90564300Y-143380000D03*
X98184300Y-143380000D03*
X98184300Y-140840000D03*
X98184300Y-138300000D03*
X98184300Y-135760000D03*
X98184300Y-133220000D03*
X98184300Y-130680000D03*
X98184300Y-128140000D03*
X98184300Y-125600000D03*
%TD*%
%TO.C,D13*%
X104441000Y-39520000D03*
X104441000Y-51920000D03*
%TD*%
%TO.C,D12*%
X238080000Y-102500000D03*
X225380000Y-102500000D03*
%TD*%
%TO.C,C26*%
X163221100Y-39430000D03*
X175921100Y-39430000D03*
%TD*%
%TO.C,D4*%
X222860000Y-98170000D03*
X210160000Y-98170000D03*
%TD*%
D24*
%TO.C,R28*%
X210180000Y-85410000D03*
X222880000Y-85410000D03*
%TD*%
D21*
%TO.C,IC14*%
X69643000Y-71010000D03*
X69643000Y-73550000D03*
X69643000Y-76090000D03*
X69643000Y-78630000D03*
X69643000Y-81170000D03*
X69643000Y-83710000D03*
X69643000Y-86250000D03*
X69643000Y-88790000D03*
X69643000Y-91330000D03*
X77263000Y-91330000D03*
X77263000Y-88790000D03*
X77263000Y-86250000D03*
X77263000Y-83710000D03*
X77263000Y-81170000D03*
X77263000Y-78630000D03*
X77263000Y-76090000D03*
X77263000Y-73550000D03*
X77263000Y-71010000D03*
%TD*%
%TO.C,C42*%
X47224325Y-61010000D03*
X59924325Y-61010000D03*
%TD*%
D24*
%TO.C,R59*%
X240691100Y-93790000D03*
X253391100Y-93790000D03*
%TD*%
D21*
%TO.C,C62*%
X183421700Y-147800000D03*
X196121700Y-147800000D03*
%TD*%
D25*
%TO.C,LS1*%
X247529125Y-136700525D03*
X247559925Y-146792825D03*
%TD*%
D24*
%TO.C,R21*%
X112423000Y-57200000D03*
X125123000Y-57200000D03*
%TD*%
%TO.C,R49*%
X54393000Y-68620000D03*
X67093000Y-68620000D03*
%TD*%
D21*
%TO.C,C59*%
X161944900Y-119700000D03*
X174644900Y-119700000D03*
%TD*%
D24*
%TO.C,R2*%
X128753000Y-111600000D03*
X141453000Y-111600000D03*
%TD*%
D26*
%TO.C,J7*%
X248582450Y-37380000D03*
D27*
X248582450Y-30268000D03*
X253662450Y-33824000D03*
X244010450Y-33824000D03*
%TD*%
D21*
%TO.C,C55*%
X168160000Y-147800000D03*
X180860000Y-147800000D03*
%TD*%
D24*
%TO.C,R14*%
X145253000Y-102700000D03*
X157953000Y-102700000D03*
%TD*%
D28*
%TO.C,OKI-H1*%
X133920000Y-35080000D03*
X126300000Y-35080000D03*
%TD*%
D29*
%TO.C,R34*%
X130603000Y-42050000D03*
X130603000Y-64650000D03*
%TD*%
D21*
%TO.C,IC22*%
X160575000Y-97680000D03*
X160575000Y-100220000D03*
X160575000Y-102760000D03*
X160575000Y-105300000D03*
X160575000Y-107840000D03*
X160575000Y-110380000D03*
X160575000Y-112920000D03*
X160575000Y-115460000D03*
X168195000Y-115460000D03*
X168195000Y-112920000D03*
X168195000Y-110380000D03*
X168195000Y-107840000D03*
X168195000Y-105300000D03*
X168195000Y-102760000D03*
X168195000Y-100220000D03*
X168195000Y-97680000D03*
%TD*%
D24*
%TO.C,R50*%
X54393000Y-73560000D03*
X67093000Y-73560000D03*
%TD*%
D23*
%TO.C,C47*%
X202073000Y-122800000D03*
X202073000Y-143120000D03*
%TD*%
D21*
%TO.C,C6*%
X80429900Y-148000000D03*
X93129900Y-148000000D03*
%TD*%
%TO.C,D15*%
X238045000Y-120300000D03*
X225345000Y-120300000D03*
%TD*%
D22*
%TO.C,TV1*%
X45881750Y-53833700D03*
X45881750Y-53833700D03*
X45782250Y-43979700D03*
D30*
X51005550Y-44532000D03*
X89867550Y-44532000D03*
%TD*%
D21*
%TO.C,IC19*%
X191055000Y-97680000D03*
X191055000Y-100220000D03*
X191055000Y-102760000D03*
X191055000Y-105300000D03*
X191055000Y-107840000D03*
X191055000Y-110380000D03*
X191055000Y-112920000D03*
X191055000Y-115460000D03*
X198675000Y-115460000D03*
X198675000Y-112920000D03*
X198675000Y-110380000D03*
X198675000Y-107840000D03*
X198675000Y-105300000D03*
X198675000Y-102760000D03*
X198675000Y-100220000D03*
X198675000Y-97680000D03*
%TD*%
D24*
%TO.C,R11*%
X145253000Y-110300000D03*
X157953000Y-110300000D03*
%TD*%
%TO.C,R17*%
X112419775Y-59760000D03*
X125119775Y-59760000D03*
%TD*%
D21*
%TO.C,C52*%
X79676000Y-93899400D03*
X92376000Y-93899400D03*
%TD*%
D24*
%TO.C,R27*%
X210031975Y-128000000D03*
X222731975Y-128000000D03*
%TD*%
D28*
%TO.C,TI-3*%
X137750000Y-32460000D03*
X145370000Y-32460000D03*
%TD*%
D21*
%TO.C,D11*%
X238092300Y-91210000D03*
X225392300Y-91210000D03*
%TD*%
D24*
%TO.C,R7*%
X128753000Y-98870000D03*
X141453000Y-98870000D03*
%TD*%
D21*
%TO.C,C70*%
X95676100Y-109100000D03*
X108376100Y-109100000D03*
%TD*%
D26*
%TO.C,EAR1*%
X97605000Y-31829800D03*
D31*
X97605000Y-35970000D03*
D27*
X107257000Y-35970000D03*
%TD*%
D23*
%TO.C,C44*%
X132635000Y-143900000D03*
X152955000Y-143900000D03*
%TD*%
D21*
%TO.C,C32*%
X99350000Y-51910000D03*
X99350000Y-39510000D03*
%TD*%
%TO.C,C41*%
X212137000Y-39260000D03*
X224837000Y-39260000D03*
%TD*%
D24*
%TO.C,R57*%
X225278000Y-123400000D03*
X237978000Y-123400000D03*
%TD*%
D21*
%TO.C,C57*%
X192258700Y-119700000D03*
X204958700Y-119700000D03*
%TD*%
%TO.C,IC3*%
X137753100Y-43120000D03*
X137753100Y-45660000D03*
X137753100Y-48200000D03*
X137753100Y-50740000D03*
X137753100Y-53280000D03*
X137753100Y-55820000D03*
X137753100Y-58360000D03*
X137753100Y-60900000D03*
X145373100Y-60900000D03*
X145373100Y-58360000D03*
X145373100Y-55820000D03*
X145373100Y-53280000D03*
X145373100Y-50740000D03*
X145373100Y-48200000D03*
X145373100Y-45660000D03*
X145373100Y-43120000D03*
%TD*%
D24*
%TO.C,R37*%
X94325450Y-39430000D03*
X94325450Y-51830000D03*
%TD*%
D32*
%TO.C,KB1*%
X73961000Y-103957500D03*
X76501000Y-103957500D03*
X79041000Y-103957500D03*
X81581000Y-103957500D03*
X84121000Y-103957500D03*
X73961000Y-102042500D03*
X76501000Y-102042500D03*
X79041000Y-102042500D03*
X81581000Y-102042500D03*
X84121000Y-102042500D03*
%TD*%
D21*
%TO.C,IC11*%
X70186300Y-125600000D03*
X70186300Y-128140000D03*
X70186300Y-130680000D03*
X70186300Y-133220000D03*
X70186300Y-135760000D03*
X70186300Y-138300000D03*
X70186300Y-140840000D03*
X70186300Y-143380000D03*
X77806300Y-143380000D03*
X77806300Y-140840000D03*
X77806300Y-138300000D03*
X77806300Y-135760000D03*
X77806300Y-133220000D03*
X77806300Y-130680000D03*
X77806300Y-128140000D03*
X77806300Y-125600000D03*
%TD*%
%TO.C,IC24*%
X152955000Y-68470000D03*
X152955000Y-71010000D03*
X152955000Y-73550000D03*
X152955000Y-76090000D03*
X152955000Y-78630000D03*
X152955000Y-81170000D03*
X152955000Y-83710000D03*
X160575000Y-83710000D03*
X160575000Y-81170000D03*
X160575000Y-78630000D03*
X160575000Y-76090000D03*
X160575000Y-73550000D03*
X160575000Y-71010000D03*
X160575000Y-68470000D03*
%TD*%
D25*
%TO.C,T1*%
X236752775Y-54479800D03*
X236752775Y-63115800D03*
X245388775Y-63115800D03*
X245388775Y-54479800D03*
X245388775Y-58289800D03*
X236752775Y-58289800D03*
%TD*%
D21*
%TO.C,C1*%
X49831000Y-121300000D03*
X62531000Y-121300000D03*
%TD*%
%TO.C,C43*%
X240691100Y-86170000D03*
X253391100Y-86170000D03*
%TD*%
%TO.C,C66*%
X240691100Y-81090000D03*
X253391100Y-81090000D03*
%TD*%
%TO.C,C7*%
X100807000Y-147800000D03*
X113507000Y-147800000D03*
%TD*%
D24*
%TO.C,R52*%
X54393000Y-71070000D03*
X67093000Y-71070000D03*
%TD*%
%TO.C,R44*%
X79793000Y-73540000D03*
X92493000Y-73540000D03*
%TD*%
D21*
%TO.C,C68*%
X95648100Y-106500000D03*
X108348100Y-106500000D03*
%TD*%
%TO.C,IC13*%
X49819700Y-125700000D03*
X49819700Y-128240000D03*
X49819700Y-130780000D03*
X49819700Y-133320000D03*
X49819700Y-135860000D03*
X49819700Y-138400000D03*
X49819700Y-140940000D03*
X49819700Y-143480000D03*
X57439700Y-143480000D03*
X57439700Y-140940000D03*
X57439700Y-138400000D03*
X57439700Y-135860000D03*
X57439700Y-133320000D03*
X57439700Y-130780000D03*
X57439700Y-128240000D03*
X57439700Y-125700000D03*
%TD*%
D24*
%TO.C,R22*%
X112407075Y-49590000D03*
X125107075Y-49590000D03*
%TD*%
%TO.C,R13*%
X145253000Y-105400000D03*
X157953000Y-105400000D03*
%TD*%
%TO.C,R65*%
X54393000Y-109100000D03*
X67093000Y-109100000D03*
%TD*%
%TO.C,R76*%
X95725625Y-74740000D03*
X108425625Y-74740000D03*
%TD*%
%TO.C,R24*%
X79793000Y-83710000D03*
X92493000Y-83710000D03*
%TD*%
D33*
%TO.C,TR9*%
X98345000Y-83830000D03*
X95800000Y-81188400D03*
X98345000Y-81188400D03*
X98345000Y-78572200D03*
%TD*%
D21*
%TO.C,IC23*%
X168195000Y-68470000D03*
X168195000Y-71010000D03*
X168195000Y-73550000D03*
X168195000Y-76090000D03*
X168195000Y-78630000D03*
X168195000Y-81170000D03*
X168195000Y-83710000D03*
X175815000Y-83710000D03*
X175815000Y-81170000D03*
X175815000Y-78630000D03*
X175815000Y-76090000D03*
X175815000Y-73550000D03*
X175815000Y-71010000D03*
X175815000Y-68470000D03*
%TD*%
D28*
%TO.C,TI-4*%
X137750000Y-35080000D03*
X145370000Y-35080000D03*
%TD*%
D21*
%TO.C,D2*%
X222860000Y-93060000D03*
X210160000Y-93060000D03*
%TD*%
D34*
%TO.C,E1*%
X160983300Y-30060000D03*
X163523300Y-30060000D03*
X166063300Y-30060000D03*
X168603300Y-30060000D03*
X173683300Y-30060000D03*
X176223300Y-30060000D03*
X178763300Y-30060000D03*
X181303300Y-30060000D03*
X183843300Y-30060000D03*
X186383300Y-30060000D03*
X188923300Y-30060000D03*
X191463300Y-30060000D03*
X194003300Y-30060000D03*
X196543300Y-30060000D03*
X199083300Y-30060000D03*
X201623300Y-30060000D03*
X204163300Y-30060000D03*
X206703300Y-30060000D03*
X209243300Y-30060000D03*
X211783300Y-30060000D03*
X214323300Y-30060000D03*
X216863300Y-30060000D03*
X219403300Y-30060000D03*
X221943300Y-30060000D03*
X224483300Y-30060000D03*
X227023300Y-30060000D03*
X229563300Y-30060000D03*
%TD*%
D21*
%TO.C,D16*%
X238092300Y-86130000D03*
X225392300Y-86130000D03*
%TD*%
%TO.C,C29*%
X112426125Y-41960000D03*
X125126125Y-41960000D03*
%TD*%
%TO.C,IC8*%
X100790700Y-125600000D03*
X100790700Y-128140000D03*
X100790700Y-130680000D03*
X100790700Y-133220000D03*
X100790700Y-135760000D03*
X100790700Y-138300000D03*
X100790700Y-140840000D03*
X100790700Y-143380000D03*
X108410700Y-143380000D03*
X108410700Y-140840000D03*
X108410700Y-138300000D03*
X108410700Y-135760000D03*
X108410700Y-133220000D03*
X108410700Y-130680000D03*
X108410700Y-128140000D03*
X108410700Y-125600000D03*
%TD*%
D33*
%TO.C,TR3*%
X84971900Y-81120000D03*
X82330300Y-81120000D03*
X79714100Y-81120000D03*
%TD*%
D24*
%TO.C,R12*%
X145253000Y-107800000D03*
X157953000Y-107800000D03*
%TD*%
D21*
%TO.C,C31*%
X109693000Y-51910000D03*
X109693000Y-39510000D03*
%TD*%
%TO.C,C72*%
X95723000Y-88710000D03*
X108423000Y-88710000D03*
%TD*%
D24*
%TO.C,R74*%
X95738325Y-91240000D03*
X108438325Y-91240000D03*
%TD*%
%TO.C,R58*%
X240691100Y-91250000D03*
X253391100Y-91250000D03*
%TD*%
D21*
%TO.C,IC12*%
X59992200Y-125600000D03*
X59992200Y-128140000D03*
X59992200Y-130680000D03*
X59992200Y-133220000D03*
X59992200Y-135760000D03*
X59992200Y-138300000D03*
X59992200Y-140840000D03*
X59992200Y-143380000D03*
X67612200Y-143380000D03*
X67612200Y-140840000D03*
X67612200Y-138300000D03*
X67612200Y-135760000D03*
X67612200Y-133220000D03*
X67612200Y-130680000D03*
X67612200Y-128140000D03*
X67612200Y-125600000D03*
%TD*%
D23*
%TO.C,C74*%
X225350000Y-106800000D03*
X245670000Y-106800000D03*
%TD*%
%TO.C,C45*%
X152950000Y-137770000D03*
X132630000Y-137770000D03*
%TD*%
D24*
%TO.C,R55*%
X225451100Y-93790000D03*
X238151100Y-93790000D03*
%TD*%
D33*
%TO.C,TR5*%
X243102675Y-111300000D03*
X243102675Y-113941600D03*
X243102675Y-116557800D03*
%TD*%
D21*
%TO.C,C8*%
X121022600Y-147800000D03*
X133722600Y-147800000D03*
%TD*%
D23*
%TO.C,C34*%
X225345000Y-69490000D03*
X245665000Y-69490000D03*
%TD*%
D21*
%TO.C,D7*%
X222860000Y-105800000D03*
X210160000Y-105800000D03*
%TD*%
D24*
%TO.C,R35*%
X107003000Y-39510000D03*
X107003000Y-51910000D03*
%TD*%
D35*
%TO.C,REG1*%
X238278925Y-45490000D03*
D36*
X253278925Y-48030000D03*
D37*
X253278925Y-45490000D03*
X253278925Y-42950000D03*
%TD*%
D21*
%TO.C,IC10*%
X80371000Y-125600000D03*
X80371000Y-128140000D03*
X80371000Y-130680000D03*
X80371000Y-133220000D03*
X80371000Y-135760000D03*
X80371000Y-138300000D03*
X80371000Y-140840000D03*
X80371000Y-143380000D03*
X87991000Y-143380000D03*
X87991000Y-140840000D03*
X87991000Y-138300000D03*
X87991000Y-135760000D03*
X87991000Y-133220000D03*
X87991000Y-130680000D03*
X87991000Y-128140000D03*
X87991000Y-125600000D03*
%TD*%
D24*
%TO.C,R29*%
X210180000Y-82910000D03*
X222880000Y-82910000D03*
%TD*%
D21*
%TO.C,D8*%
X222860000Y-108300000D03*
X210160000Y-108300000D03*
%TD*%
D33*
%TO.C,TR6*%
X164420000Y-55350000D03*
X164420000Y-52708400D03*
X164420000Y-50092200D03*
%TD*%
D24*
%TO.C,R32*%
X150219500Y-43050000D03*
X150219500Y-55750000D03*
%TD*%
D21*
%TO.C,C63*%
X138953250Y-128100000D03*
X151653250Y-128100000D03*
%TD*%
D24*
%TO.C,R26*%
X210031975Y-125400000D03*
X222731975Y-125400000D03*
%TD*%
%TO.C,R31*%
X210180000Y-87870000D03*
X222880000Y-87870000D03*
%TD*%
D33*
%TO.C,TR8*%
X105727425Y-78500000D03*
X108272425Y-81141600D03*
X105727425Y-81141600D03*
X105727425Y-83757800D03*
%TD*%
D32*
%TO.C,KB2*%
X211383000Y-115457500D03*
X213923000Y-115457500D03*
X216463000Y-115457500D03*
X219003000Y-115457500D03*
X221543000Y-115457500D03*
X224083000Y-115457500D03*
X226623000Y-115457500D03*
X229163000Y-115457500D03*
X211383000Y-113542500D03*
X213923000Y-113542500D03*
X216463000Y-113542500D03*
X219003000Y-113542500D03*
X221543000Y-113542500D03*
X224083000Y-113542500D03*
X226623000Y-113542500D03*
X229163000Y-113542500D03*
%TD*%
D21*
%TO.C,C53*%
X79904600Y-108400000D03*
X92604600Y-108400000D03*
%TD*%
%TO.C,IC6*%
X121191200Y-125600000D03*
X121191200Y-128140000D03*
X121191200Y-130680000D03*
X121191200Y-133220000D03*
X121191200Y-135760000D03*
X121191200Y-138300000D03*
X121191200Y-140840000D03*
X121191200Y-143380000D03*
X128811200Y-143380000D03*
X128811200Y-140840000D03*
X128811200Y-138300000D03*
X128811200Y-135760000D03*
X128811200Y-133220000D03*
X128811200Y-130680000D03*
X128811200Y-128140000D03*
X128811200Y-125600000D03*
%TD*%
D24*
%TO.C,R23*%
X112438825Y-54700000D03*
X125138825Y-54700000D03*
%TD*%
D23*
%TO.C,C50*%
X225345000Y-76090000D03*
X245665000Y-76090000D03*
%TD*%
D24*
%TO.C,R73*%
X79793000Y-91320000D03*
X92493000Y-91320000D03*
%TD*%
D21*
%TO.C,C33*%
X79860150Y-113700000D03*
X92560150Y-113700000D03*
%TD*%
D24*
%TO.C,R45*%
X79793000Y-71010000D03*
X92493000Y-71010000D03*
%TD*%
D21*
%TO.C,IC21*%
X170735000Y-97680000D03*
X170735000Y-100220000D03*
X170735000Y-102760000D03*
X170735000Y-105300000D03*
X170735000Y-107840000D03*
X170735000Y-110380000D03*
X170735000Y-112920000D03*
X170735000Y-115460000D03*
X178355000Y-115460000D03*
X178355000Y-112920000D03*
X178355000Y-110380000D03*
X178355000Y-107840000D03*
X178355000Y-105300000D03*
X178355000Y-102760000D03*
X178355000Y-100220000D03*
X178355000Y-97680000D03*
%TD*%
D24*
%TO.C,R56*%
X79713000Y-96570000D03*
X92413000Y-96570000D03*
%TD*%
%TO.C,R6*%
X128753000Y-101400000D03*
X141453000Y-101400000D03*
%TD*%
%TO.C,R16*%
X145253000Y-97660000D03*
X157953000Y-97660000D03*
%TD*%
D28*
%TO.C,OKI-L1*%
X133920000Y-32460000D03*
X126300000Y-32460000D03*
%TD*%
D24*
%TO.C,R66*%
X54393000Y-106100000D03*
X67093000Y-106100000D03*
%TD*%
D21*
%TO.C,C54*%
X225245700Y-128500000D03*
X237945700Y-128500000D03*
%TD*%
D22*
%TO.C,X2*%
X93255000Y-67200000D03*
X93255000Y-62120000D03*
%TD*%
D23*
%TO.C,C28*%
X131111000Y-88790000D03*
X131111000Y-68470000D03*
%TD*%
D21*
%TO.C,IC25*%
X139508875Y-68490000D03*
X139508875Y-71030000D03*
X139508875Y-73570000D03*
X139508875Y-76110000D03*
X139508875Y-78650000D03*
X139508875Y-81190000D03*
X139508875Y-83730000D03*
X139508875Y-86270000D03*
X147128875Y-86270000D03*
X147128875Y-83730000D03*
X147128875Y-81190000D03*
X147128875Y-78650000D03*
X147128875Y-76110000D03*
X147128875Y-73570000D03*
X147128875Y-71030000D03*
X147128875Y-68490000D03*
%TD*%
D24*
%TO.C,R72*%
X54393000Y-83710000D03*
X67093000Y-83710000D03*
%TD*%
D21*
%TO.C,C67*%
X79793000Y-88860000D03*
X92493000Y-88860000D03*
%TD*%
D33*
%TO.C,TR7*%
X217137700Y-134200000D03*
X214496100Y-134200000D03*
X211879900Y-134200000D03*
%TD*%
D24*
%TO.C,R70*%
X138965950Y-130700000D03*
X151665950Y-130700000D03*
%TD*%
D21*
%TO.C,C2*%
X70130700Y-121200000D03*
X82830700Y-121200000D03*
%TD*%
%TO.C,IC18*%
X155241000Y-125600000D03*
X155241000Y-128140000D03*
X155241000Y-130680000D03*
X155241000Y-133220000D03*
X155241000Y-135760000D03*
X155241000Y-138300000D03*
X155241000Y-140840000D03*
X155241000Y-143380000D03*
X162861000Y-143380000D03*
X162861000Y-140840000D03*
X162861000Y-138300000D03*
X162861000Y-135760000D03*
X162861000Y-133220000D03*
X162861000Y-130680000D03*
X162861000Y-128140000D03*
X162861000Y-125600000D03*
%TD*%
%TO.C,IC4*%
X152701000Y-43070000D03*
X152701000Y-45610000D03*
X152701000Y-48150000D03*
X152701000Y-50690000D03*
X152701000Y-53230000D03*
X152701000Y-55770000D03*
X152701000Y-58310000D03*
X152701000Y-60850000D03*
X160321000Y-60850000D03*
X160321000Y-58310000D03*
X160321000Y-55770000D03*
X160321000Y-53230000D03*
X160321000Y-50690000D03*
X160321000Y-48150000D03*
X160321000Y-45610000D03*
X160321000Y-43070000D03*
%TD*%
D24*
%TO.C,R9*%
X128753000Y-119200000D03*
X141453000Y-119200000D03*
%TD*%
D38*
%TO.C,JROM1*%
X240835825Y-129700000D03*
X240835825Y-122080000D03*
X248455825Y-129700000D03*
X248455825Y-122080000D03*
%TD*%
D21*
%TO.C,IC26*%
X168195000Y-43070000D03*
X168195000Y-45610000D03*
X168195000Y-48150000D03*
X168195000Y-50690000D03*
X168195000Y-53230000D03*
X168195000Y-55770000D03*
X168195000Y-58310000D03*
X168195000Y-60850000D03*
X175815000Y-60850000D03*
X175815000Y-58310000D03*
X175815000Y-55770000D03*
X175815000Y-53230000D03*
X175815000Y-50690000D03*
X175815000Y-48150000D03*
X175815000Y-45610000D03*
X175815000Y-43070000D03*
%TD*%
D24*
%TO.C,R68*%
X54393000Y-101500000D03*
X67093000Y-101500000D03*
%TD*%
D23*
%TO.C,C25*%
X49830000Y-98440000D03*
X49830000Y-118440000D03*
%TD*%
D21*
%TO.C,C71*%
X95665300Y-104000000D03*
X108365300Y-104000000D03*
%TD*%
%TO.C,C48*%
X79793000Y-78710000D03*
X92493000Y-78710000D03*
%TD*%
D24*
%TO.C,R51*%
X47320000Y-63526000D03*
X60020000Y-63526000D03*
%TD*%
%TO.C,R71*%
X138915150Y-133300000D03*
X151615150Y-133300000D03*
%TD*%
D21*
%TO.C,C35*%
X101894650Y-51910000D03*
X101894650Y-39510000D03*
%TD*%
D24*
%TO.C,R46*%
X78013000Y-60940000D03*
X90713000Y-60940000D03*
%TD*%
%TO.C,R42*%
X54393000Y-86260000D03*
X67093000Y-86260000D03*
%TD*%
D21*
%TO.C,C30*%
X95713000Y-96330000D03*
X108413000Y-96330000D03*
%TD*%
D24*
%TO.C,R30*%
X210180000Y-80400000D03*
X222880000Y-80400000D03*
%TD*%
D21*
%TO.C,IC20*%
X180895000Y-97680000D03*
X180895000Y-100220000D03*
X180895000Y-102760000D03*
X180895000Y-105300000D03*
X180895000Y-107840000D03*
X180895000Y-110380000D03*
X180895000Y-112920000D03*
X180895000Y-115460000D03*
X188515000Y-115460000D03*
X188515000Y-112920000D03*
X188515000Y-110380000D03*
X188515000Y-107840000D03*
X188515000Y-105300000D03*
X188515000Y-102760000D03*
X188515000Y-100220000D03*
X188515000Y-97680000D03*
%TD*%
%TO.C,IC15*%
X185975000Y-125600000D03*
X185975000Y-128140000D03*
X185975000Y-130680000D03*
X185975000Y-133220000D03*
X185975000Y-135760000D03*
X185975000Y-138300000D03*
X185975000Y-140840000D03*
X185975000Y-143380000D03*
X193595000Y-143380000D03*
X193595000Y-140840000D03*
X193595000Y-138300000D03*
X193595000Y-135760000D03*
X193595000Y-133220000D03*
X193595000Y-130680000D03*
X193595000Y-128140000D03*
X193595000Y-125600000D03*
%TD*%
%TO.C,C58*%
X176992600Y-119700000D03*
X189692600Y-119700000D03*
%TD*%
D24*
%TO.C,R1*%
X128753000Y-114100000D03*
X141453000Y-114100000D03*
%TD*%
D33*
%TO.C,TR4*%
X238073675Y-116600000D03*
X238073675Y-113958400D03*
X238073675Y-111342200D03*
%TD*%
D21*
%TO.C,C40*%
X54393000Y-93950000D03*
X67093000Y-93950000D03*
%TD*%
%TO.C,IC16*%
X175815000Y-125600000D03*
X175815000Y-128140000D03*
X175815000Y-130680000D03*
X175815000Y-133220000D03*
X175815000Y-135760000D03*
X175815000Y-138300000D03*
X175815000Y-140840000D03*
X175815000Y-143380000D03*
X183435000Y-143380000D03*
X183435000Y-140840000D03*
X183435000Y-138300000D03*
X183435000Y-135760000D03*
X183435000Y-133220000D03*
X183435000Y-130680000D03*
X183435000Y-128140000D03*
X183435000Y-125600000D03*
%TD*%
D33*
%TO.C,TR2*%
X62573000Y-66060000D03*
X65214600Y-66060000D03*
X67830800Y-66060000D03*
%TD*%
D24*
%TO.C,R62*%
X225451100Y-88710000D03*
X238151100Y-88710000D03*
%TD*%
%TO.C,R20*%
X112410250Y-62280000D03*
X125110250Y-62280000D03*
%TD*%
%TO.C,R15*%
X145253000Y-100200000D03*
X157953000Y-100200000D03*
%TD*%
%TO.C,R63*%
X79882375Y-111100000D03*
X92582375Y-111100000D03*
%TD*%
%TO.C,R47*%
X54393000Y-91260000D03*
X67093000Y-91260000D03*
%TD*%
D21*
%TO.C,C39*%
X78013000Y-66010000D03*
X90713000Y-66010000D03*
%TD*%
%TO.C,D3*%
X222860000Y-95600000D03*
X210160000Y-95600000D03*
%TD*%
D24*
%TO.C,R3*%
X128753000Y-109000000D03*
X141453000Y-109000000D03*
%TD*%
%TO.C,R77*%
X95733000Y-93780000D03*
X108433000Y-93780000D03*
%TD*%
D21*
%TO.C,D9*%
X222617000Y-130500000D03*
X209917000Y-130500000D03*
%TD*%
D24*
%TO.C,R36*%
X96821000Y-39510000D03*
X96821000Y-51910000D03*
%TD*%
D23*
%TO.C,C27*%
X204263000Y-96410000D03*
X204263000Y-116410000D03*
%TD*%
D24*
%TO.C,R5*%
X128753000Y-103900000D03*
X141453000Y-103900000D03*
%TD*%
D28*
%TO.C,TI1*%
X126300000Y-29850000D03*
X133920000Y-29850000D03*
%TD*%
D33*
%TO.C,TR1*%
X59023000Y-66110000D03*
X56381400Y-66110000D03*
X53765200Y-66110000D03*
%TD*%
D24*
%TO.C,R19*%
X112407075Y-52130000D03*
X125107075Y-52130000D03*
%TD*%
D21*
%TO.C,IC5*%
X206295000Y-43070000D03*
X206295000Y-45610000D03*
X206295000Y-48150000D03*
X206295000Y-50690000D03*
X206295000Y-53230000D03*
X206295000Y-55770000D03*
X206295000Y-58310000D03*
X206295000Y-60850000D03*
X206295000Y-63390000D03*
X206295000Y-65930000D03*
X206295000Y-68470000D03*
X206295000Y-71010000D03*
X206295000Y-73550000D03*
X206295000Y-76090000D03*
X221535000Y-76090000D03*
X221535000Y-73550000D03*
X221535000Y-71010000D03*
X221535000Y-68470000D03*
X221535000Y-65930000D03*
X221535000Y-63390000D03*
X221535000Y-60850000D03*
X221535000Y-58310000D03*
X221535000Y-55770000D03*
X221535000Y-53230000D03*
X221535000Y-50690000D03*
X221535000Y-48150000D03*
X221535000Y-45610000D03*
X221535000Y-43070000D03*
%TD*%
%TO.C,C4*%
X110848800Y-121200000D03*
X123548800Y-121200000D03*
%TD*%
D23*
%TO.C,C65*%
X49831000Y-95900000D03*
X49831000Y-75580000D03*
%TD*%
D24*
%TO.C,R18*%
X112435650Y-47050000D03*
X125135650Y-47050000D03*
%TD*%
D21*
%TO.C,D6*%
X222860000Y-103300000D03*
X210160000Y-103300000D03*
%TD*%
%TO.C,C5*%
X59991000Y-147900000D03*
X72691000Y-147900000D03*
%TD*%
D24*
%TO.C,R25*%
X79793000Y-86250000D03*
X92493000Y-86250000D03*
%TD*%
%TO.C,R48*%
X54393000Y-88780000D03*
X67093000Y-88780000D03*
%TD*%
D21*
%TO.C,IC7*%
X110981800Y-125600000D03*
X110981800Y-128140000D03*
X110981800Y-130680000D03*
X110981800Y-133220000D03*
X110981800Y-135760000D03*
X110981800Y-138300000D03*
X110981800Y-140840000D03*
X110981800Y-143380000D03*
X118601800Y-143380000D03*
X118601800Y-140840000D03*
X118601800Y-138300000D03*
X118601800Y-135760000D03*
X118601800Y-133220000D03*
X118601800Y-130680000D03*
X118601800Y-128140000D03*
X118601800Y-125600000D03*
%TD*%
%TO.C,C75*%
X95697500Y-98930000D03*
X108397500Y-98930000D03*
%TD*%
D24*
%TO.C,R67*%
X54393000Y-104000000D03*
X67093000Y-104000000D03*
%TD*%
D21*
%TO.C,C73*%
X112432475Y-44530000D03*
X125132475Y-44530000D03*
%TD*%
D24*
%TO.C,R61*%
X240691100Y-83630000D03*
X253391100Y-83630000D03*
%TD*%
D26*
%TO.C,MIC1*%
X112591850Y-31829800D03*
D31*
X112591850Y-35970000D03*
D27*
X122243850Y-35970000D03*
%TD*%
D21*
%TO.C,IC2*%
X183435000Y-43070000D03*
X183435000Y-45610000D03*
X183435000Y-48150000D03*
X183435000Y-50690000D03*
X183435000Y-53230000D03*
X183435000Y-55770000D03*
X183435000Y-58310000D03*
X183435000Y-60850000D03*
X183435000Y-63390000D03*
X183435000Y-65930000D03*
X183435000Y-68470000D03*
X183435000Y-71010000D03*
X183435000Y-73550000D03*
X183435000Y-76090000D03*
X183435000Y-78630000D03*
X183435000Y-81170000D03*
X183435000Y-83710000D03*
X183435000Y-86250000D03*
X183435000Y-88790000D03*
X183435000Y-91330000D03*
X198675000Y-91330000D03*
X198675000Y-88790000D03*
X198675000Y-86250000D03*
X198675000Y-83710000D03*
X198675000Y-81170000D03*
X198675000Y-78630000D03*
X198675000Y-76090000D03*
X198675000Y-73550000D03*
X198675000Y-71010000D03*
X198675000Y-68470000D03*
X198675000Y-65930000D03*
X198675000Y-63390000D03*
X198675000Y-60850000D03*
X198675000Y-58310000D03*
X198675000Y-55770000D03*
X198675000Y-53230000D03*
X198675000Y-50690000D03*
X198675000Y-48150000D03*
X198675000Y-45610000D03*
X198675000Y-43070000D03*
%TD*%
D24*
%TO.C,R75*%
X95648100Y-111700000D03*
X108348100Y-111700000D03*
%TD*%
%TO.C,R54*%
X240670725Y-102500000D03*
X253370725Y-102500000D03*
%TD*%
%TO.C,R33*%
X225303000Y-126000000D03*
X238003000Y-126000000D03*
%TD*%
D28*
%TO.C,OKI1*%
X145370000Y-29850000D03*
X137750000Y-29850000D03*
%TD*%
D21*
%TO.C,D1*%
X222860000Y-90430000D03*
X210160000Y-90430000D03*
%TD*%
%TO.C,C64*%
X138975475Y-125500000D03*
X151675475Y-125500000D03*
%TD*%
%TO.C,D5*%
X222860000Y-100700000D03*
X210160000Y-100700000D03*
%TD*%
%TO.C,C49*%
X225451100Y-83630000D03*
X238151100Y-83630000D03*
%TD*%
%TO.C,C69*%
X95673000Y-101400000D03*
X108373000Y-101400000D03*
%TD*%
D24*
%TO.C,R8*%
X128753000Y-96320000D03*
X141453000Y-96320000D03*
%TD*%
%TO.C,R78*%
X95723000Y-86230000D03*
X108423000Y-86230000D03*
%TD*%
D21*
%TO.C,C38*%
X78013000Y-63460000D03*
X90713000Y-63460000D03*
%TD*%
D24*
%TO.C,R64*%
X54393000Y-96460000D03*
X67093000Y-96460000D03*
%TD*%
D21*
%TO.C,C37*%
X78013000Y-68460000D03*
X90713000Y-68460000D03*
%TD*%
D24*
%TO.C,R4*%
X128753000Y-106500000D03*
X141453000Y-106500000D03*
%TD*%
%TO.C,R69*%
X54393000Y-98960000D03*
X67093000Y-98960000D03*
%TD*%
M02*
