ISO-10303-21;
HEADER;
FILE_DESCRIPTION (( 'STEP AP214' ),
    '1' );
FILE_NAME ('Capacitor Ceramic No Polarity axial 17.72.STEP',
    '2026-02-18T23:25:21',
    ( '' ),
    ( '' ),
    'SwSTEP 2.0',
    'SolidWorks 2026',
    '' );
FILE_SCHEMA (( 'AUTOMOTIVE_DESIGN' ));
ENDSEC;

DATA;
#1 = CARTESIAN_POINT ( 'NONE',  ( 3.362617346942188501, 2.609365052918086292, 0.000000000000000000 ) ) ;
#2 = DIRECTION ( 'NONE',  ( 0.000000000000000000, 0.000000000000000000, -1.000000000000000000 ) ) ;
#3 = CARTESIAN_POINT ( 'NONE',  ( 7.860000000000002096, 2.864365052918086185, 0.000000000000000000 ) ) ;
#4 = FILL_AREA_STYLE_COLOUR ( '', #155 ) ;
#5 = DIRECTION ( 'NONE',  ( -1.000000000000000000, -0.000000000000000000, -0.000000000000000000 ) ) ;
#6 = VERTEX_POINT ( 'NONE', #1134 ) ;
#7 =( NAMED_UNIT ( * ) SI_UNIT ( $, .STERADIAN. ) SOLID_ANGLE_UNIT ( ) );
#8 = PRESENTATION_STYLE_ASSIGNMENT (( #86 ) ) ;
#9 = DIRECTION ( 'NONE',  ( 0.000000000000000000, 0.000000000000000000, 1.000000000000000000 ) ) ;
#10 = FILL_AREA_STYLE ('',( #246 ) ) ;
#11 = COLOUR_RGB ( '',0.7529411764705882248, 0.7529411764705882248, 0.000000000000000000 ) ;
#12 = SURFACE_STYLE_FILL_AREA ( #710 ) ;
#13 = AXIS2_PLACEMENT_3D ( 'NONE', #555, #797, #1155 ) ;
#14 = ORIENTED_EDGE ( 'NONE', *, *, #247, .T. ) ;
#15 = CARTESIAN_POINT ( 'NONE',  ( 3.362617346942188501, 2.609365052918086292, 0.4047061138363206023 ) ) ;
#16 = CARTESIAN_POINT ( 'NONE',  ( -1.804968851620622594, 2.609365052918086292, 0.000000000000000000 ) ) ;
#17 = DIRECTION ( 'NONE',  ( 0.000000000000000000, 0.000000000000000000, -1.000000000000000000 ) ) ;
#18 = STYLED_ITEM ( 'NONE', ( #1138 ), #963 ) ;
#19 = ORIENTED_EDGE ( 'NONE', *, *, #788, .T. ) ;
#20 = CARTESIAN_POINT ( 'NONE',  ( 3.362617346942188501, 2.609365052918086292, 0.000000000000000000 ) ) ;
#21 =( NAMED_UNIT ( * ) PLANE_ANGLE_UNIT ( ) SI_UNIT ( $, .RADIAN. ) );
#22 = DIRECTION ( 'NONE',  ( 0.000000000000000000, 0.000000000000000000, 1.000000000000000000 ) ) ;
#23 = CARTESIAN_POINT ( 'NONE',  ( 8.860000000000001208, -3.000000000000000000, -0.2549999999999999489 ) ) ;
#24 = ORIENTED_EDGE ( 'NONE', *, *, #680, .F. ) ;
#25 =( LENGTH_UNIT ( ) NAMED_UNIT ( * ) SI_UNIT ( .MILLI., .METRE. ) );
#26 = DIRECTION ( 'NONE',  ( 0.000000000000000000, -1.000000000000000000, 0.000000000000000000 ) ) ;
#27 = AXIS2_PLACEMENT_3D ( 'NONE', #773, #239, #80 ) ;
#28 = ORIENTED_EDGE ( 'NONE', *, *, #250, .F. ) ;
#29 = AXIS2_PLACEMENT_3D ( 'NONE', #672, #76, #337 ) ;
#30 = UNCERTAINTY_MEASURE_WITH_UNIT (LENGTH_MEASURE( 1.000000000000000082E-05 ), #1102, 'distance_accuracy_value', 'NONE');
#31 = CIRCLE ( 'NONE', #1044, 0.2549999999999999489 ) ;
#32 = ORIENTED_EDGE ( 'NONE', *, *, #510, .T. ) ;
#33 = EDGE_CURVE ( 'NONE', #992, #98, #1110, .T. ) ;
#34 = SURFACE_SIDE_STYLE ('',( #833 ) ) ;
#35 = PRESENTATION_STYLE_ASSIGNMENT (( #580 ) ) ;
#36 = PRODUCT_CONTEXT ( 'NONE', #874, 'mechanical' ) ;
#37 = ORIENTED_EDGE ( 'NONE', *, *, #141, .T. ) ;
#38 = AXIS2_PLACEMENT_3D ( 'NONE', #16, #369, #118 ) ;
#39 = CARTESIAN_POINT ( 'NONE',  ( -7.860000000000002096, 2.609365052918086292, -0.2549999999999999489 ) ) ;
#40 = DIRECTION ( 'NONE',  ( 0.000000000000000000, 0.000000000000000000, -1.000000000000000000 ) ) ;
#41 = VECTOR ( 'NONE', #746, 1000.000000000000000 ) ;
#42 = ORIENTED_EDGE ( 'NONE', *, *, #577, .T. ) ;
#43 = DIRECTION ( 'NONE',  ( 0.000000000000000000, 0.000000000000000000, -1.000000000000000000 ) ) ;
#44 = CARTESIAN_POINT ( 'NONE',  ( 9.115000000000001990, 1.609365052918086292, 0.000000000000000000 ) ) ;
#45 = PRESENTATION_STYLE_ASSIGNMENT (( #759 ) ) ;
#46 = EDGE_CURVE ( 'NONE', #414, #103, #837, .T. ) ;
#47 = VERTEX_POINT ( 'NONE', #953 ) ;
#48 = PRESENTATION_STYLE_ASSIGNMENT (( #878 ) ) ;
#49 = EDGE_CURVE ( 'NONE', #519, #620, #323, .T. ) ;
#50 = CARTESIAN_POINT ( 'NONE',  ( -10.09675116564010722, 2.609365052918086292, 1.609365052918086292 ) ) ;
#51 = DIRECTION ( 'NONE',  ( 2.832769448823989808E-16, -1.000000000000000000, 0.000000000000000000 ) ) ;
#52 = DIRECTION ( 'NONE',  ( 0.000000000000000000, 0.000000000000000000, -1.000000000000000000 ) ) ;
#53 = AXIS2_PLACEMENT_3D ( 'NONE', #983, #559, #621 ) ;
#54 = VERTEX_POINT ( 'NONE', #524 ) ;
#55 = DIRECTION ( 'NONE',  ( 0.000000000000000000, -1.000000000000000000, -1.224646799147353207E-16 ) ) ;
#56 = FILL_AREA_STYLE_COLOUR ( '', #811 ) ;
#57 = DIRECTION ( 'NONE',  ( -1.000000000000000000, -0.000000000000000000, -0.000000000000000000 ) ) ;
#58 =( LENGTH_UNIT ( ) NAMED_UNIT ( * ) SI_UNIT ( .MILLI., .METRE. ) );
#59 = SURFACE_SIDE_STYLE ('',( #587 ) ) ;
#60 = DIRECTION ( 'NONE',  ( -1.000000000000000000, -0.000000000000000000, -0.000000000000000000 ) ) ;
#61 = AXIS2_PLACEMENT_3D ( 'NONE', #1143, #769, #335 ) ;
#62 = FILL_AREA_STYLE_COLOUR ( '', #1115 ) ;
#63 = STYLED_ITEM ( 'NONE', ( #237 ), #617 ) ;
#64 = DIRECTION ( 'NONE',  ( -1.000000000000000000, -0.000000000000000000, -0.000000000000000000 ) ) ;
#65 = AXIS2_PLACEMENT_3D ( 'NONE', #870, #1118, #775 ) ;
#66 = EDGE_CURVE ( 'NONE', #939, #47, #864, .T. ) ;
#67 = SURFACE_STYLE_USAGE ( .BOTH. , #783 ) ;
#68 = AXIS2_PLACEMENT_3D ( 'NONE', #683, #875, #1036 ) ;
#69 = PRESENTATION_STYLE_ASSIGNMENT (( #325 ) ) ;
#70 = SURFACE_STYLE_FILL_AREA ( #78 ) ;
#71 = EDGE_LOOP ( 'NONE', ( #845, #476, #666, #676, #761 ) ) ;
#72 = CARTESIAN_POINT ( 'NONE',  ( 3.362617346942188501, 2.609365052918086292, -0.4047061138363206023 ) ) ;
#73 = CARTESIAN_POINT ( 'NONE',  ( -7.860000000000002096, 2.609365052918086292, 0.000000000000000000 ) ) ;
#74 = CIRCLE ( 'NONE', #1016, 0.4047061138363226562 ) ;
#75 = MECHANICAL_DESIGN_GEOMETRIC_PRESENTATION_REPRESENTATION (  '', ( #349 ), #529 ) ;
#76 = DIRECTION ( 'NONE',  ( 1.000000000000000000, -0.000000000000000000, -0.000000000000000000 ) ) ;
#77 = DIRECTION ( 'NONE',  ( 0.000000000000000000, 0.000000000000000000, 1.000000000000000000 ) ) ;
#78 = FILL_AREA_STYLE ('',( #227 ) ) ;
#79 = ORIENTED_EDGE ( 'NONE', *, *, #218, .T. ) ;
#80 = DIRECTION ( 'NONE',  ( 0.000000000000000000, 0.000000000000000000, 1.000000000000000000 ) ) ;
#81 =( NAMED_UNIT ( * ) PLANE_ANGLE_UNIT ( ) SI_UNIT ( $, .RADIAN. ) );
#82 = FACE_OUTER_BOUND ( 'NONE', #658, .T. ) ;
#83 =( GEOMETRIC_REPRESENTATION_CONTEXT ( 3 ) GLOBAL_UNCERTAINTY_ASSIGNED_CONTEXT ( ( #575 ) ) GLOBAL_UNIT_ASSIGNED_CONTEXT ( ( #326, #946, #855 ) ) REPRESENTATION_CONTEXT ( 'NONE', 'WORKASPACE' ) );
#84 = ORIENTED_EDGE ( 'NONE', *, *, #997, .F. ) ;
#85 = MECHANICAL_DESIGN_GEOMETRIC_PRESENTATION_REPRESENTATION (  '', ( #413 ), #479 ) ;
#86 = SURFACE_STYLE_USAGE ( .BOTH. , #254 ) ;
#87 = ADVANCED_FACE ( 'NONE', ( #869 ), #966, .T. ) ;
#88 = AXIS2_PLACEMENT_3D ( 'NONE', #1020, #594, #55 ) ;
#89 = ORIENTED_EDGE ( 'NONE', *, *, #165, .T. ) ;
#90 = DIRECTION ( 'NONE',  ( 1.000000000000000000, 0.000000000000000000, 0.000000000000000000 ) ) ;
#91 = CARTESIAN_POINT ( 'NONE',  ( -7.860000000000002096, 2.609365052918086292, 0.000000000000000000 ) ) ;
#92 = EDGE_CURVE ( 'NONE', #222, #352, #1156, .T. ) ;
#93 = SURFACE_STYLE_FILL_AREA ( #10 ) ;
#94 = DIRECTION ( 'NONE',  ( 0.000000000000000000, 0.000000000000000000, -1.000000000000000000 ) ) ;
#95 = UNCERTAINTY_MEASURE_WITH_UNIT (LENGTH_MEASURE( 1.000000000000000082E-05 ), #619, 'distance_accuracy_value', 'NONE');
#96 = CARTESIAN_POINT ( 'NONE',  ( 1.804968851620623482, 2.609365052918086292, 0.000000000000000000 ) ) ;
#97 = PRESENTATION_LAYER_ASSIGNMENT (  '', '', ( #801 ) ) ;
#98 = VERTEX_POINT ( 'NONE', #505 ) ;
#99 = LINE ( 'NONE', #705, #370 ) ;
#100 = FACE_OUTER_BOUND ( 'NONE', #944, .T. ) ;
#101 = SURFACE_STYLE_USAGE ( .BOTH. , #608 ) ;
#102 = CARTESIAN_POINT ( 'NONE',  ( 7.860000000000002096, 1.609365052918086292, 3.122849337825749926E-17 ) ) ;
#103 = VERTEX_POINT ( 'NONE', #217 ) ;
#104 = FACE_OUTER_BOUND ( 'NONE', #860, .T. ) ;
#105 = DIRECTION ( 'NONE',  ( 0.000000000000000000, -1.000000000000000000, 0.000000000000000000 ) ) ;
#106 =( LENGTH_UNIT ( ) NAMED_UNIT ( * ) SI_UNIT ( .MILLI., .METRE. ) );
#107 = VECTOR ( 'NONE', #296, 1000.000000000000000 ) ;
#108 = EDGE_CURVE ( 'NONE', #98, #6, #1031, .T. ) ;
#109 =( GEOMETRIC_REPRESENTATION_CONTEXT ( 3 ) GLOBAL_UNCERTAINTY_ASSIGNED_CONTEXT ( ( #95 ) ) GLOBAL_UNIT_ASSIGNED_CONTEXT ( ( #619, #614, #449 ) ) REPRESENTATION_CONTEXT ( 'NONE', 'WORKASPACE' ) );
#110 = ORIENTED_EDGE ( 'NONE', *, *, #1010, .T. ) ;
#111 = DIRECTION ( 'NONE',  ( 0.000000000000000000, -1.000000000000000000, 0.000000000000000000 ) ) ;
#112 = FILL_AREA_STYLE ('',( #1068 ) ) ;
#113 = DIRECTION ( 'NONE',  ( -1.000000000000000000, -0.000000000000000000, -0.000000000000000000 ) ) ;
#114 = FILL_AREA_STYLE_COLOUR ( '', #123 ) ;
#115 = ORIENTED_EDGE ( 'NONE', *, *, #1010, .F. ) ;
#116 = AXIS2_PLACEMENT_3D ( 'NONE', #1121, #240, #1021 ) ;
#117 = AXIS2_PLACEMENT_3D ( 'NONE', #1095, #995, #198 ) ;
#118 = DIRECTION ( 'NONE',  ( 0.000000000000000000, -1.000000000000000000, 0.000000000000000000 ) ) ;
#119 = ORIENTED_EDGE ( 'NONE', *, *, #49, .F. ) ;
#120 =( LENGTH_UNIT ( ) NAMED_UNIT ( * ) SI_UNIT ( .MILLI., .METRE. ) );
#121 = AXIS2_PLACEMENT_3D ( 'NONE', #613, #447, #970 ) ;
#122 = ADVANCED_FACE ( 'NONE', ( #600 ), #1125, .T. ) ;
#123 = COLOUR_RGB ( '',0.8980392156862745390, 0.9176470588235293713, 0.9294117647058823817 ) ;
#124 =( NAMED_UNIT ( * ) PLANE_ANGLE_UNIT ( ) SI_UNIT ( $, .RADIAN. ) );
#125 = AXIS2_PLACEMENT_3D ( 'NONE', #996, #546, #9 ) ;
#126 = EDGE_LOOP ( 'NONE', ( #890, #664, #1094, #735, #578, #967 ) ) ;
#127 = EDGE_CURVE ( 'NONE', #637, #204, #699, .T. ) ;
#128 = FILL_AREA_STYLE_COLOUR ( '', #731 ) ;
#129 = DIRECTION ( 'NONE',  ( 1.000000000000000000, 0.000000000000000000, 0.000000000000000000 ) ) ;
#130 = UNCERTAINTY_MEASURE_WITH_UNIT (LENGTH_MEASURE( 1.000000000000000082E-05 ), #472, 'distance_accuracy_value', 'NONE');
#131 = VERTEX_POINT ( 'NONE', #938 ) ;
#132 =( GEOMETRIC_REPRESENTATION_CONTEXT ( 3 ) GLOBAL_UNCERTAINTY_ASSIGNED_CONTEXT ( ( #545 ) ) GLOBAL_UNIT_ASSIGNED_CONTEXT ( ( #1086, #124, #895 ) ) REPRESENTATION_CONTEXT ( 'NONE', 'WORKASPACE' ) );
#133 = PRESENTATION_LAYER_ASSIGNMENT (  '', '', ( #1132 ) ) ;
#134 = COLOUR_RGB ( '',0.7529411764705882248, 0.7529411764705882248, 0.000000000000000000 ) ;
#135 = CARTESIAN_POINT ( 'NONE',  ( -7.860000000000002096, 2.609365052918086292, 0.2549999999999999489 ) ) ;
#136 = ORIENTED_EDGE ( 'NONE', *, *, #510, .F. ) ;
#137 = ADVANCED_FACE ( 'NONE', ( #515 ), #1075, .F. ) ;
#138 = SURFACE_STYLE_USAGE ( .BOTH. , #496 ) ;
#139 = MECHANICAL_DESIGN_GEOMETRIC_PRESENTATION_REPRESENTATION (  '', ( #571 ), #574 ) ;
#140 =( GEOMETRIC_REPRESENTATION_CONTEXT ( 3 ) GLOBAL_UNCERTAINTY_ASSIGNED_CONTEXT ( ( #212 ) ) GLOBAL_UNIT_ASSIGNED_CONTEXT ( ( #747, #930, #334 ) ) REPRESENTATION_CONTEXT ( 'NONE', 'WORKASPACE' ) );
#141 = EDGE_CURVE ( 'NONE', #669, #1038, #527, .T. ) ;
#142 = ORIENTED_EDGE ( 'NONE', *, *, #408, .F. ) ;
#143 = STYLED_ITEM ( 'NONE', ( #69 ), #1027 ) ;
#144 = CARTESIAN_POINT ( 'NONE',  ( 8.860000000000001208, -3.000000000000000000, 0.000000000000000000 ) ) ;
#145 = ORIENTED_EDGE ( 'NONE', *, *, #834, .F. ) ;
#146 = DIRECTION ( 'NONE',  ( 1.000000000000000000, 0.000000000000000000, 0.000000000000000000 ) ) ;
#147 = CARTESIAN_POINT ( 'NONE',  ( 1.804968851620622594, 2.609365052918086292, 0.000000000000000000 ) ) ;
#148 =( NAMED_UNIT ( * ) PLANE_ANGLE_UNIT ( ) SI_UNIT ( $, .RADIAN. ) );
#149 = CIRCLE ( 'NONE', #800, 0.4047061138363222121 ) ;
#150 = ORIENTED_EDGE ( 'NONE', *, *, #1041, .F. ) ;
#151 =( LENGTH_UNIT ( ) NAMED_UNIT ( * ) SI_UNIT ( .MILLI., .METRE. ) );
#152 = DIRECTION ( 'NONE',  ( 0.000000000000000000, 0.000000000000000000, 1.000000000000000000 ) ) ;
#153 = ADVANCED_FACE ( 'NONE', ( #248 ), #1018, .F. ) ;
#154 = DIRECTION ( 'NONE',  ( 1.000000000000000000, 0.000000000000000000, 0.000000000000000000 ) ) ;
#155 = COLOUR_RGB ( '',0.7529411764705882248, 0.7529411764705882248, 0.000000000000000000 ) ;
#156 = DIRECTION ( 'NONE',  ( 1.000000000000000000, -0.000000000000000000, -0.000000000000000000 ) ) ;
#157 = ORIENTED_EDGE ( 'NONE', *, *, #523, .F. ) ;
#158 = STYLED_ITEM ( 'NONE', ( #177 ), #1101 ) ;
#159 = SURFACE_STYLE_FILL_AREA ( #1059 ) ;
#160 = DIRECTION ( 'NONE',  ( 0.000000000000000000, 0.000000000000000000, -1.000000000000000000 ) ) ;
#161 = CYLINDRICAL_SURFACE ( 'NONE', #1064, 1.609365052918086292 ) ;
#162 = ORIENTED_EDGE ( 'NONE', *, *, #722, .T. ) ;
#163 = DIRECTION ( 'NONE',  ( -1.000000000000000000, -0.000000000000000000, -0.000000000000000000 ) ) ;
#164 =( LENGTH_UNIT ( ) NAMED_UNIT ( * ) SI_UNIT ( .MILLI., .METRE. ) );
#165 = EDGE_CURVE ( 'NONE', #1128, #949, #494, .T. ) ;
#166 = CARTESIAN_POINT ( 'NONE',  ( -3.556190395207061261, 2.609365052918086292, 0.000000000000000000 ) ) ;
#167 = CARTESIAN_POINT ( 'NONE',  ( 1.804968851620622594, 2.609365052918086292, 0.000000000000000000 ) ) ;
#168 = PRODUCT_DEFINITION ( 'UNKNOWN', '', #483, #356 ) ;
#169 = UNCERTAINTY_MEASURE_WITH_UNIT (LENGTH_MEASURE( 1.000000000000000082E-05 ), #743, 'distance_accuracy_value', 'NONE');
#170 = DIRECTION ( 'NONE',  ( 0.000000000000000000, -1.000000000000000000, 0.000000000000000000 ) ) ;
#171 = DIRECTION ( 'NONE',  ( -0.000000000000000000, 1.000000000000000000, 1.224646799147353207E-16 ) ) ;
#172 = VERTEX_POINT ( 'NONE', #700 ) ;
#173 = DIRECTION ( 'NONE',  ( 0.000000000000000000, 0.000000000000000000, -1.000000000000000000 ) ) ;
#174 = PRESENTATION_STYLE_ASSIGNMENT (( #1069 ) ) ;
#175 = CIRCLE ( 'NONE', #61, 1.609365052918086292 ) ;
#176 = MECHANICAL_DESIGN_GEOMETRIC_PRESENTATION_REPRESENTATION (  '', ( #907 ), #745 ) ;
#177 = PRESENTATION_STYLE_ASSIGNMENT (( #1148 ) ) ;
#178 = VERTEX_POINT ( 'NONE', #898 ) ;
#179 = AXIS2_PLACEMENT_3D ( 'NONE', #552, #181, #477 ) ;
#180 = EDGE_LOOP ( 'NONE', ( #301, #550, #823, #434, #697 ) ) ;
#181 = DIRECTION ( 'NONE',  ( -1.000000000000000000, -0.000000000000000000, -0.000000000000000000 ) ) ;
#182 = SURFACE_STYLE_USAGE ( .BOTH. , #553 ) ;
#183 = EDGE_CURVE ( 'NONE', #172, #1128, #467, .T. ) ;
#184 = CARTESIAN_POINT ( 'NONE',  ( 8.860000000000001208, 1.609365052918086292, 0.000000000000000000 ) ) ;
#185 = ORIENTED_EDGE ( 'NONE', *, *, #33, .T. ) ;
#186 = DIRECTION ( 'NONE',  ( -1.000000000000000000, -0.000000000000000000, -0.000000000000000000 ) ) ;
#187 = SURFACE_STYLE_FILL_AREA ( #295 ) ;
#188 = CARTESIAN_POINT ( 'NONE',  ( -8.860000000000001208, -3.000000000000000000, -0.2549999999999999489 ) ) ;
#189 = CIRCLE ( 'NONE', #668, 0.2549999999999999489 ) ;
#190 = CIRCLE ( 'NONE', #605, 1.609365052918086070 ) ;
#191 = CIRCLE ( 'NONE', #1108, 0.2000000000000004829 ) ;
#192 = EDGE_LOOP ( 'NONE', ( #32, #1074, #1008, #278, #817, #305 ) ) ;
#193 = DIRECTION ( 'NONE',  ( 0.000000000000000000, 0.000000000000000000, 1.000000000000000000 ) ) ;
#194 = FILL_AREA_STYLE ('',( #114 ) ) ;
#195 = SURFACE_STYLE_FILL_AREA ( #482 ) ;
#196 = CIRCLE ( 'NONE', #858, 0.2549999999999999489 ) ;
#197 = ORIENTED_EDGE ( 'NONE', *, *, #558, .F. ) ;
#198 = DIRECTION ( 'NONE',  ( 0.000000000000000000, 0.000000000000000000, -1.000000000000000000 ) ) ;
#199 = CARTESIAN_POINT ( 'NONE',  ( 1.804968851620623482, 2.609365052918086292, -1.609365052918086292 ) ) ;
#200 = LINE ( 'NONE', #50, #249 ) ;
#201 = ADVANCED_FACE ( 'NONE', ( #100 ), #539, .T. ) ;
#202 = FACE_OUTER_BOUND ( 'NONE', #744, .T. ) ;
#203 = PRESENTATION_STYLE_ASSIGNMENT (( #986 ) ) ;
#204 = VERTEX_POINT ( 'NONE', #884 ) ;
#205 = EDGE_CURVE ( 'NONE', #640, #311, #821, .T. ) ;
#206 = SURFACE_STYLE_USAGE ( .BOTH. , #937 ) ;
#207 = ORIENTED_EDGE ( 'NONE', *, *, #247, .F. ) ;
#208 = AXIS2_PLACEMENT_3D ( 'NONE', #673, #865, #234 ) ;
#209 = PRESENTATION_LAYER_ASSIGNMENT (  '', '', ( #143 ) ) ;
#210 = FILL_AREA_STYLE_COLOUR ( '', #576 ) ;
#211 = PRESENTATION_STYLE_ASSIGNMENT (( #206 ) ) ;
#212 = UNCERTAINTY_MEASURE_WITH_UNIT (LENGTH_MEASURE( 1.000000000000000082E-05 ), #747, 'distance_accuracy_value', 'NONE');
#213 = ORIENTED_EDGE ( 'NONE', *, *, #66, .F. ) ;
#214 = AXIS2_PLACEMENT_3D ( 'NONE', #1, #186, #359 ) ;
#215 = AXIS2_PLACEMENT_3D ( 'NONE', #241, #57, #679 ) ;
#216 = DIRECTION ( 'NONE',  ( 0.000000000000000000, 0.000000000000000000, -1.000000000000000000 ) ) ;
#217 = CARTESIAN_POINT ( 'NONE',  ( 8.860000000000001208, 1.609365052918086292, 0.2549999999999999489 ) ) ;
#218 = EDGE_CURVE ( 'NONE', #47, #131, #371, .T. ) ;
#219 = ORIENTED_EDGE ( 'NONE', *, *, #563, .F. ) ;
#220 = DIRECTION ( 'NONE',  ( 0.000000000000000000, 0.000000000000000000, -1.000000000000000000 ) ) ;
#221 = STYLED_ITEM ( 'NONE', ( #1052 ), #506 ) ;
#222 = VERTEX_POINT ( 'NONE', #825 ) ;
#223 = COLOUR_RGB ( '',0.8980392156862745390, 0.9176470588235293713, 0.9294117647058823817 ) ;
#224 =( GEOMETRIC_REPRESENTATION_CONTEXT ( 3 ) GLOBAL_UNCERTAINTY_ASSIGNED_CONTEXT ( ( #293 ) ) GLOBAL_UNIT_ASSIGNED_CONTEXT ( ( #1084, #808, #841 ) ) REPRESENTATION_CONTEXT ( 'NONE', 'WORKASPACE' ) );
#225 = EDGE_LOOP ( 'NONE', ( #959, #1136, #814, #460, #650 ) ) ;
#226 = CARTESIAN_POINT ( 'NONE',  ( -7.860000000000002096, 2.609365052918086292, 0.2549999999999999489 ) ) ;
#227 = FILL_AREA_STYLE_COLOUR ( '', #952 ) ;
#228 = FILL_AREA_STYLE ('',( #1033 ) ) ;
#229 = DIRECTION ( 'NONE',  ( -1.000000000000000000, -0.000000000000000000, -0.000000000000000000 ) ) ;
#230 = EDGE_CURVE ( 'NONE', #591, #507, #755, .T. ) ;
#231 = FACE_OUTER_BOUND ( 'NONE', #750, .T. ) ;
#232 = AXIS2_PLACEMENT_3D ( 'NONE', #329, #420, #500 ) ;
#233 = ORIENTED_EDGE ( 'NONE', *, *, #577, .F. ) ;
#234 = DIRECTION ( 'NONE',  ( 0.000000000000000000, 0.000000000000000000, -1.000000000000000000 ) ) ;
#235 = ORIENTED_EDGE ( 'NONE', *, *, #183, .F. ) ;
#236 = MECHANICAL_DESIGN_GEOMETRIC_PRESENTATION_REPRESENTATION (  '', ( #648 ), #390 ) ;
#237 = PRESENTATION_STYLE_ASSIGNMENT (( #514 ) ) ;
#238 = CYLINDRICAL_SURFACE ( 'NONE', #690, 0.2549999999999999489 ) ;
#239 = DIRECTION ( 'NONE',  ( -1.000000000000000000, -0.000000000000000000, -0.000000000000000000 ) ) ;
#240 = DIRECTION ( 'NONE',  ( -0.000000000000000000, 0.000000000000000000, 1.000000000000000000 ) ) ;
#241 = CARTESIAN_POINT ( 'NONE',  ( -1.804968851620623482, 2.609365052918086292, 0.000000000000000000 ) ) ;
#242 = CIRCLE ( 'NONE', #956, 0.7449999999999999956 ) ;
#243 = DIRECTION ( 'NONE',  ( 0.000000000000000000, 0.000000000000000000, -1.000000000000000000 ) ) ;
#244 = ORIENTED_EDGE ( 'NONE', *, *, #1024, .T. ) ;
#245 = STYLED_ITEM ( 'NONE', ( #48 ), #1080 ) ;
#246 = FILL_AREA_STYLE_COLOUR ( '', #1141 ) ;
#247 = EDGE_CURVE ( 'NONE', #131, #47, #330, .T. ) ;
#248 = FACE_OUTER_BOUND ( 'NONE', #180, .T. ) ;
#249 = VECTOR ( 'NONE', #456, 1000.000000000000000 ) ;
#250 = EDGE_CURVE ( 'NONE', #332, #669, #924, .T. ) ;
#251 = AXIS2_PLACEMENT_3D ( 'NONE', #891, #716, #534 ) ;
#252 = LINE ( 'NONE', #1072, #419 ) ;
#253 = ORIENTED_EDGE ( 'NONE', *, *, #663, .F. ) ;
#254 = SURFACE_SIDE_STYLE ('',( #807 ) ) ;
#255 = CARTESIAN_POINT ( 'NONE',  ( -8.860000000000001208, -3.000000000000000000, 0.000000000000000000 ) ) ;
#256 = ORIENTED_EDGE ( 'NONE', *, *, #360, .T. ) ;
#257 = AXIS2_PLACEMENT_3D ( 'NONE', #809, #268, #429 ) ;
#258 = FILL_AREA_STYLE ('',( #780 ) ) ;
#259 = AXIS2_PLACEMENT_3D ( 'NONE', #184, #990, #17 ) ;
#260 = DIRECTION ( 'NONE',  ( 0.000000000000000000, -1.000000000000000000, -1.224646799147353207E-16 ) ) ;
#261 = SURFACE_SIDE_STYLE ('',( #726 ) ) ;
#262 = AXIS2_PLACEMENT_3D ( 'NONE', #940, #156, #513 ) ;
#263 = DIRECTION ( 'NONE',  ( 0.000000000000000000, -1.000000000000000000, 0.000000000000000000 ) ) ;
#264 = EDGE_LOOP ( 'NONE', ( #367, #1045, #79, #145, #119 ) ) ;
#265 = DIRECTION ( 'NONE',  ( -1.000000000000000000, -0.000000000000000000, -0.000000000000000000 ) ) ;
#266 = ADVANCED_FACE ( 'NONE', ( #104 ), #984, .T. ) ;
#267 = SURFACE_STYLE_USAGE ( .BOTH. , #459 ) ;
#268 = DIRECTION ( 'NONE',  ( 0.000000000000000000, 0.000000000000000000, 1.000000000000000000 ) ) ;
#269 =( NAMED_UNIT ( * ) SI_UNIT ( $, .STERADIAN. ) SOLID_ANGLE_UNIT ( ) );
#270 = CIRCLE ( 'NONE', #724, 1.255000000000000115 ) ;
#271 = DIRECTION ( 'NONE',  ( 0.000000000000000000, 0.000000000000000000, 1.000000000000000000 ) ) ;
#272 = STYLED_ITEM ( 'NONE', ( #457 ), #266 ) ;
#273 = ADVANCED_FACE ( 'NONE', ( #469 ), #824, .F. ) ;
#274 = ORIENTED_EDGE ( 'NONE', *, *, #1083, .T. ) ;
#275 = PRESENTATION_STYLE_ASSIGNMENT (( #903 ) ) ;
#276 = DIRECTION ( 'NONE',  ( 0.000000000000000000, 0.000000000000000000, -1.000000000000000000 ) ) ;
#277 = DIRECTION ( 'NONE',  ( -0.000000000000000000, -0.000000000000000000, -1.000000000000000000 ) ) ;
#278 = ORIENTED_EDGE ( 'NONE', *, *, #635, .F. ) ;
#279 =( LENGTH_UNIT ( ) NAMED_UNIT ( * ) SI_UNIT ( .MILLI., .METRE. ) );
#280 =( NAMED_UNIT ( * ) SI_UNIT ( $, .STERADIAN. ) SOLID_ANGLE_UNIT ( ) );
#281 = CIRCLE ( 'NONE', #942, 0.2549999999999999489 ) ;
#282 = APPLICATION_PROTOCOL_DEFINITION ( 'draft international standard', 'automotive_design', 1998, #874 ) ;
#283 = ORIENTED_EDGE ( 'NONE', *, *, #558, .T. ) ;
#284 = EDGE_CURVE ( 'NONE', #484, #645, #615, .T. ) ;
#285 =( NAMED_UNIT ( * ) SI_UNIT ( $, .STERADIAN. ) SOLID_ANGLE_UNIT ( ) );
#286 = SURFACE_SIDE_STYLE ('',( #159 ) ) ;
#287 = ADVANCED_FACE ( 'NONE', ( #729 ), #921, .T. ) ;
#288 = AXIS2_PLACEMENT_3D ( 'NONE', #373, #90, #713 ) ;
#289 = ORIENTED_EDGE ( 'NONE', *, *, #33, .F. ) ;
#290 = MECHANICAL_DESIGN_GEOMETRIC_PRESENTATION_REPRESENTATION (  '', ( #801 ), #677 ) ;
#291 =( NAMED_UNIT ( * ) SI_UNIT ( $, .STERADIAN. ) SOLID_ANGLE_UNIT ( ) );
#292 = LINE ( 'NONE', #135, #1070 ) ;
#293 = UNCERTAINTY_MEASURE_WITH_UNIT (LENGTH_MEASURE( 1.000000000000000082E-05 ), #1084, 'distance_accuracy_value', 'NONE');
#294 = ORIENTED_EDGE ( 'NONE', *, *, #993, .F. ) ;
#295 = FILL_AREA_STYLE ('',( #1090 ) ) ;
#296 = DIRECTION ( 'NONE',  ( 1.000000000000000000, -0.000000000000000000, -0.000000000000000000 ) ) ;
#297 = DIRECTION ( 'NONE',  ( 0.000000000000000000, 0.000000000000000000, -1.000000000000000000 ) ) ;
#298 = MECHANICAL_DESIGN_GEOMETRIC_PRESENTATION_REPRESENTATION (  '', ( #533 ), #83 ) ;
#299 = COLOUR_RGB ( '',0.8980392156862745390, 0.9176470588235293713, 0.9294117647058823817 ) ;
#300 = AXIS2_PLACEMENT_3D ( 'NONE', #894, #709, #636 ) ;
#301 = ORIENTED_EDGE ( 'NONE', *, *, #1116, .F. ) ;
#302 = MECHANICAL_DESIGN_GEOMETRIC_PRESENTATION_REPRESENTATION (  '', ( #158 ), #109 ) ;
#303 = ADVANCED_FACE ( 'NONE', ( #1119 ), #667, .T. ) ;
#304 = SURFACE_SIDE_STYLE ('',( #584 ) ) ;
#305 = ORIENTED_EDGE ( 'NONE', *, *, #752, .F. ) ;
#306 = FILL_AREA_STYLE_COLOUR ( '', #540 ) ;
#307 =( GEOMETRIC_REPRESENTATION_CONTEXT ( 3 ) GLOBAL_UNCERTAINTY_ASSIGNED_CONTEXT ( ( #739 ) ) GLOBAL_UNIT_ASSIGNED_CONTEXT ( ( #659, #941, #596 ) ) REPRESENTATION_CONTEXT ( 'NONE', 'WORKASPACE' ) );
#308 = CARTESIAN_POINT ( 'NONE',  ( 3.556190395207061261, 2.609365052918086292, 0.000000000000000000 ) ) ;
#309 = AXIS2_PLACEMENT_3D ( 'NONE', #73, #1050, #2 ) ;
#310 =( NAMED_UNIT ( * ) SI_UNIT ( $, .STERADIAN. ) SOLID_ANGLE_UNIT ( ) );
#311 = VERTEX_POINT ( 'NONE', #682 ) ;
#312 = CARTESIAN_POINT ( 'NONE',  ( 7.860000000000002096, 1.609365052918086292, 0.000000000000000000 ) ) ;
#313 = DIRECTION ( 'NONE',  ( -1.000000000000000000, -0.000000000000000000, -0.000000000000000000 ) ) ;
#314 =( GEOMETRIC_REPRESENTATION_CONTEXT ( 3 ) GLOBAL_UNCERTAINTY_ASSIGNED_CONTEXT ( ( #932 ) ) GLOBAL_UNIT_ASSIGNED_CONTEXT ( ( #164, #881, #695 ) ) REPRESENTATION_CONTEXT ( 'NONE', 'WORKASPACE' ) );
#315 = ORIENTED_EDGE ( 'NONE', *, *, #375, .F. ) ;
#316 =( NAMED_UNIT ( * ) PLANE_ANGLE_UNIT ( ) SI_UNIT ( $, .RADIAN. ) );
#317 = CIRCLE ( 'NONE', #689, 0.2000000000000004829 ) ;
#318 = SURFACE_SIDE_STYLE ('',( #763 ) ) ;
#319 = CARTESIAN_POINT ( 'NONE',  ( -3.362617346942187613, 2.609365052918086292, 0.000000000000000000 ) ) ;
#320 =( GEOMETRIC_REPRESENTATION_CONTEXT ( 3 ) GLOBAL_UNCERTAINTY_ASSIGNED_CONTEXT ( ( #887 ) ) GLOBAL_UNIT_ASSIGNED_CONTEXT ( ( #402, #945, #1037 ) ) REPRESENTATION_CONTEXT ( 'NONE', 'WORKASPACE' ) );
#321 = CARTESIAN_POINT ( 'NONE',  ( 7.860000000000002096, 2.609365052918086292, 0.000000000000000000 ) ) ;
#322 = SURFACE_STYLE_FILL_AREA ( #660 ) ;
#323 = CIRCLE ( 'NONE', #720, 0.2549999999999999489 ) ;
#324 =( NAMED_UNIT ( * ) PLANE_ANGLE_UNIT ( ) SI_UNIT ( $, .RADIAN. ) );
#325 = SURFACE_STYLE_USAGE ( .BOTH. , #604 ) ;
#326 =( LENGTH_UNIT ( ) NAMED_UNIT ( * ) SI_UNIT ( .MILLI., .METRE. ) );
#327 = CYLINDRICAL_SURFACE ( 'NONE', #1009, 0.2549999999999999489 ) ;
#328 = MECHANICAL_DESIGN_GEOMETRIC_PRESENTATION_REPRESENTATION (  '', ( #753 ), #776 ) ;
#329 = CARTESIAN_POINT ( 'NONE',  ( 7.860000000000002096, 1.609365052918086292, 0.000000000000000000 ) ) ;
#330 = CIRCLE ( 'NONE', #778, 0.2549999999999999489 ) ;
#331 = CARTESIAN_POINT ( 'NONE',  ( -10.09675116564010722, 2.609365052918086292, 0.000000000000000000 ) ) ;
#332 = VERTEX_POINT ( 'NONE', #1137 ) ;
#333 = ORIENTED_EDGE ( 'NONE', *, *, #934, .F. ) ;
#334 =( NAMED_UNIT ( * ) SI_UNIT ( $, .STERADIAN. ) SOLID_ANGLE_UNIT ( ) );
#335 = DIRECTION ( 'NONE',  ( 0.000000000000000000, 0.000000000000000000, 1.000000000000000000 ) ) ;
#336 = EDGE_CURVE ( 'NONE', #178, #450, #175, .T. ) ;
#337 = DIRECTION ( 'NONE',  ( 0.000000000000000000, 0.000000000000000000, -1.000000000000000000 ) ) ;
#338 = CIRCLE ( 'NONE', #991, 1.609365052918086292 ) ;
#339 = ORIENTED_EDGE ( 'NONE', *, *, #523, .T. ) ;
#340 = PRESENTATION_LAYER_ASSIGNMENT (  '', '', ( #502 ) ) ;
#341 = ADVANCED_FACE ( 'NONE', ( #694 ), #892, .T. ) ;
#342 = FILL_AREA_STYLE ('',( #1147 ) ) ;
#343 = CYLINDRICAL_SURFACE ( 'NONE', #1131, 0.2549999999999999489 ) ;
#344 = EDGE_LOOP ( 'NONE', ( #1022, #798, #982, #988, #1056, #1079 ) ) ;
#345 = CIRCLE ( 'NONE', #642, 0.4047061138363226562 ) ;
#346 = DIRECTION ( 'NONE',  ( 0.000000000000000000, 0.000000000000000000, 1.000000000000000000 ) ) ;
#347 = CIRCLE ( 'NONE', #214, 0.4047061138363226562 ) ;
#348 =( NAMED_UNIT ( * ) SI_UNIT ( $, .STERADIAN. ) SOLID_ANGLE_UNIT ( ) );
#349 = STYLED_ITEM ( 'NONE', ( #8 ), #153 ) ;
#350 = DIRECTION ( 'NONE',  ( 0.000000000000000000, 0.000000000000000000, -1.000000000000000000 ) ) ;
#351 = CARTESIAN_POINT ( 'NONE',  ( -3.362617346942187613, 2.609365052918086292, 0.4047061138363221011 ) ) ;
#352 = VERTEX_POINT ( 'NONE', #802 ) ;
#353 = DIRECTION ( 'NONE',  ( -1.000000000000000000, -0.000000000000000000, -0.000000000000000000 ) ) ;
#354 = DIRECTION ( 'NONE',  ( 0.000000000000000000, -1.224646799147353207E-16, 1.000000000000000000 ) ) ;
#355 = CARTESIAN_POINT ( 'NONE',  ( -8.860000000000001208, 1.609365052918086292, 0.000000000000000000 ) ) ;
#356 = PRODUCT_DEFINITION_CONTEXT ( 'detailed design', #681, 'design' ) ;
#357 = FACE_OUTER_BOUND ( 'NONE', #727, .T. ) ;
#358 = VERTEX_POINT ( 'NONE', #1097 ) ;
#359 = DIRECTION ( 'NONE',  ( 0.000000000000000000, 0.000000000000000000, 1.000000000000000000 ) ) ;
#360 = EDGE_CURVE ( 'NONE', #450, #704, #873, .T. ) ;
#361 =( NAMED_UNIT ( * ) SI_UNIT ( $, .STERADIAN. ) SOLID_ANGLE_UNIT ( ) );
#362 = AXIS2_PLACEMENT_3D ( 'NONE', #708, #554, #579 ) ;
#363 = MECHANICAL_DESIGN_GEOMETRIC_PRESENTATION_REPRESENTATION (  '', ( #245 ), #656 ) ;
#364 = DIRECTION ( 'NONE',  ( -1.000000000000000000, 0.000000000000000000, 0.000000000000000000 ) ) ;
#365 = SURFACE_STYLE_USAGE ( .BOTH. , #626 ) ;
#366 = CIRCLE ( 'NONE', #840, 0.2549999999999999489 ) ;
#367 = ORIENTED_EDGE ( 'NONE', *, *, #590, .F. ) ;
#368 = CARTESIAN_POINT ( 'NONE',  ( 7.860000000000002096, 2.609365052918086292, 0.2549999999999999489 ) ) ;
#369 = DIRECTION ( 'NONE',  ( 0.000000000000000000, 0.000000000000000000, 1.000000000000000000 ) ) ;
#370 = VECTOR ( 'NONE', #111, 1000.000000000000000 ) ;
#371 = CIRCLE ( 'NONE', #117, 0.2549999999999999489 ) ;
#372 = VERTEX_POINT ( 'NONE', #488 ) ;
#373 = CARTESIAN_POINT ( 'NONE',  ( 7.860000000000002096, 2.609365052918086292, 0.000000000000000000 ) ) ;
#374 =( NAMED_UNIT ( * ) PLANE_ANGLE_UNIT ( ) SI_UNIT ( $, .RADIAN. ) );
#375 = EDGE_CURVE ( 'NONE', #992, #640, #292, .T. ) ;
#376 = PRODUCT_DEFINITION_SHAPE ( 'NONE', 'NONE',  #168 ) ;
#377 = VERTEX_POINT ( 'NONE', #665 ) ;
#378 = STYLED_ITEM ( 'NONE', ( #211 ), #433 ) ;
#379 = EDGE_CURVE ( 'NONE', #377, #712, #1127, .T. ) ;
#380 = PRESENTATION_LAYER_ASSIGNMENT (  '', '', ( #852 ) ) ;
#381 = SURFACE_STYLE_USAGE ( .BOTH. , #475 ) ;
#382 = ORIENTED_EDGE ( 'NONE', *, *, #46, .T. ) ;
#383 = VECTOR ( 'NONE', #603, 1000.000000000000000 ) ;
#384 =( NAMED_UNIT ( * ) PLANE_ANGLE_UNIT ( ) SI_UNIT ( $, .RADIAN. ) );
#385 = CARTESIAN_POINT ( 'NONE',  ( -3.556190395207061261, 2.609365052918086292, 0.4550000000000005151 ) ) ;
#386 = ORIENTED_EDGE ( 'NONE', *, *, #980, .F. ) ;
#387 = FILL_AREA_STYLE ('',( #1078 ) ) ;
#388 = DIRECTION ( 'NONE',  ( 0.000000000000000000, 0.000000000000000000, -1.000000000000000000 ) ) ;
#389 = UNCERTAINTY_MEASURE_WITH_UNIT (LENGTH_MEASURE( 1.000000000000000082E-05 ), #120, 'distance_accuracy_value', 'NONE');
#390 =( GEOMETRIC_REPRESENTATION_CONTEXT ( 3 ) GLOBAL_UNCERTAINTY_ASSIGNED_CONTEXT ( ( #389 ) ) GLOBAL_UNIT_ASSIGNED_CONTEXT ( ( #120, #384, #291 ) ) REPRESENTATION_CONTEXT ( 'NONE', 'WORKASPACE' ) );
#391 = EDGE_CURVE ( 'NONE', #103, #497, #366, .T. ) ;
#392 = ORIENTED_EDGE ( 'NONE', *, *, #1104, .T. ) ;
#393 = DIRECTION ( 'NONE',  ( 2.832769448823989808E-16, 1.000000000000000000, -0.000000000000000000 ) ) ;
#394 = MECHANICAL_DESIGN_GEOMETRIC_PRESENTATION_REPRESENTATION (  '', ( #832 ), #1039 ) ;
#395 = UNCERTAINTY_MEASURE_WITH_UNIT (LENGTH_MEASURE( 1.000000000000000082E-05 ), #58, 'distance_accuracy_value', 'NONE');
#396 = MECHANICAL_DESIGN_GEOMETRIC_PRESENTATION_REPRESENTATION (  '', ( #714 ), #307 ) ;
#397 = ORIENTED_EDGE ( 'NONE', *, *, #493, .T. ) ;
#398 = CIRCLE ( 'NONE', #65, 0.2549999999999999489 ) ;
#399 = FILL_AREA_STYLE_COLOUR ( '', #767 ) ;
#400 =( NAMED_UNIT ( * ) SI_UNIT ( $, .STERADIAN. ) SOLID_ANGLE_UNIT ( ) );
#401 = ORIENTED_EDGE ( 'NONE', *, *, #230, .F. ) ;
#402 =( LENGTH_UNIT ( ) NAMED_UNIT ( * ) SI_UNIT ( .MILLI., .METRE. ) );
#403 = CIRCLE ( 'NONE', #53, 0.4047061138363222121 ) ;
#404 = AXIS2_PLACEMENT_3D ( 'NONE', #411, #1058, #629 ) ;
#405 = AXIS2_PLACEMENT_3D ( 'NONE', #962, #163, #528 ) ;
#406 = CARTESIAN_POINT ( 'NONE',  ( 3.362617346942188501, 2.609365052918086292, 0.000000000000000000 ) ) ;
#407 =( LENGTH_UNIT ( ) NAMED_UNIT ( * ) SI_UNIT ( .MILLI., .METRE. ) );
#408 = EDGE_CURVE ( 'NONE', #507, #777, #345, .T. ) ;
#409 = ORIENTED_EDGE ( 'NONE', *, *, #1104, .F. ) ;
#410 = FACE_OUTER_BOUND ( 'NONE', #954, .T. ) ;
#411 = CARTESIAN_POINT ( 'NONE',  ( 8.860000000000001208, -3.000000000000000000, 0.000000000000000000 ) ) ;
#412 = EDGE_CURVE ( 'NONE', #358, #949, #31, .T. ) ;
#413 = STYLED_ITEM ( 'NONE', ( #35 ), #463 ) ;
#414 = VERTEX_POINT ( 'NONE', #44 ) ;
#415 =( NAMED_UNIT ( * ) SI_UNIT ( $, .STERADIAN. ) SOLID_ANGLE_UNIT ( ) );
#416 = CIRCLE ( 'NONE', #1062, 0.2549999999999999489 ) ;
#417 = DIRECTION ( 'NONE',  ( -0.000000000000000000, 0.000000000000000000, 1.000000000000000000 ) ) ;
#418 = DIRECTION ( 'NONE',  ( 0.000000000000000000, 0.000000000000000000, 1.000000000000000000 ) ) ;
#419 = VECTOR ( 'NONE', #263, 1000.000000000000000 ) ;
#420 = DIRECTION ( 'NONE',  ( -0.000000000000000000, -0.000000000000000000, -1.000000000000000000 ) ) ;
#421 = FILL_AREA_STYLE_COLOUR ( '', #931 ) ;
#422 = AXIS2_PLACEMENT_3D ( 'NONE', #1120, #297, #856 ) ;
#423 = PRESENTATION_STYLE_ASSIGNMENT (( #67 ) ) ;
#424 = ORIENTED_EDGE ( 'NONE', *, *, #230, .T. ) ;
#425 = FACE_OUTER_BOUND ( 'NONE', #264, .T. ) ;
#426 = AXIS2_PLACEMENT_3D ( 'NONE', #692, #451, #969 ) ;
#427 = PRESENTATION_LAYER_ASSIGNMENT (  '', '', ( #272 ) ) ;
#428 = DIRECTION ( 'NONE',  ( -1.000000000000000000, -0.000000000000000000, -0.000000000000000000 ) ) ;
#429 = DIRECTION ( 'NONE',  ( 0.000000000000000000, -1.000000000000000000, 0.000000000000000000 ) ) ;
#430 = CARTESIAN_POINT ( 'NONE',  ( 7.860000000000002096, 2.609365052918086292, -0.2549999999999999489 ) ) ;
#431 = SURFACE_STYLE_USAGE ( .BOTH. , #609 ) ;
#432 = FILL_AREA_STYLE ('',( #981 ) ) ;
#433 = ADVANCED_FACE ( 'NONE', ( #202 ), #920, .T. ) ;
#434 = ORIENTED_EDGE ( 'NONE', *, *, #829, .T. ) ;
#435 = DIRECTION ( 'NONE',  ( 0.000000000000000000, 0.000000000000000000, 1.000000000000000000 ) ) ;
#436 = CARTESIAN_POINT ( 'NONE',  ( -1.804968851620623482, 1.000000000000000000, 0.000000000000000000 ) ) ;
#437 =( NAMED_UNIT ( * ) PLANE_ANGLE_UNIT ( ) SI_UNIT ( $, .RADIAN. ) );
#438 = SPHERICAL_SURFACE ( 'NONE', #925, 1.609365052918086070 ) ;
#439 = CIRCLE ( 'NONE', #973, 1.609365052918086292 ) ;
#440 =( NAMED_UNIT ( * ) PLANE_ANGLE_UNIT ( ) SI_UNIT ( $, .RADIAN. ) );
#441 = CARTESIAN_POINT ( 'NONE',  ( 1.804968851620623482, 2.609365052918086292, 0.000000000000000000 ) ) ;
#442 = UNCERTAINTY_MEASURE_WITH_UNIT (LENGTH_MEASURE( 1.000000000000000082E-05 ), #756, 'distance_accuracy_value', 'NONE');
#443 = CYLINDRICAL_SURFACE ( 'NONE', #13, 0.2549999999999999489 ) ;
#444 = ORIENTED_EDGE ( 'NONE', *, *, #722, .F. ) ;
#445 = FACE_OUTER_BOUND ( 'NONE', #1157, .T. ) ;
#446 = MECHANICAL_DESIGN_GEOMETRIC_PRESENTATION_REPRESENTATION (  '', ( #611 ), #132 ) ;
#447 = DIRECTION ( 'NONE',  ( 0.000000000000000000, -1.000000000000000000, 0.000000000000000000 ) ) ;
#448 = EDGE_CURVE ( 'NONE', #311, #640, #1085, .T. ) ;
#449 =( NAMED_UNIT ( * ) SI_UNIT ( $, .STERADIAN. ) SOLID_ANGLE_UNIT ( ) );
#450 = VERTEX_POINT ( 'NONE', #436 ) ;
#451 = DIRECTION ( 'NONE',  ( -1.000000000000000000, -0.000000000000000000, -0.000000000000000000 ) ) ;
#452 =( NAMED_UNIT ( * ) PLANE_ANGLE_UNIT ( ) SI_UNIT ( $, .RADIAN. ) );
#453 = DIRECTION ( 'NONE',  ( 0.000000000000000000, 0.000000000000000000, -1.000000000000000000 ) ) ;
#454 = ORIENTED_EDGE ( 'NONE', *, *, #108, .F. ) ;
#455 = CIRCLE ( 'NONE', #125, 1.609365052918086292 ) ;
#456 = DIRECTION ( 'NONE',  ( -1.000000000000000000, -0.000000000000000000, -0.000000000000000000 ) ) ;
#457 = PRESENTATION_STYLE_ASSIGNMENT (( #572 ) ) ;
#458 = PRESENTATION_LAYER_ASSIGNMENT (  '', '', ( #714 ) ) ;
#459 = SURFACE_SIDE_STYLE ('',( #1092 ) ) ;
#460 = ORIENTED_EDGE ( 'NONE', *, *, #250, .T. ) ;
#461 = CARTESIAN_POINT ( 'NONE',  ( 3.556190395207061261, 2.609365052918086292, 0.4550000000000005151 ) ) ;
#462 =( LENGTH_UNIT ( ) NAMED_UNIT ( * ) SI_UNIT ( .MILLI., .METRE. ) );
#463 = ADVANCED_FACE ( 'NONE', ( #521 ), #544, .T. ) ;
#464 = PRESENTATION_STYLE_ASSIGNMENT (( #267 ) ) ;
#465 =( NAMED_UNIT ( * ) SI_UNIT ( $, .STERADIAN. ) SOLID_ANGLE_UNIT ( ) );
#466 =( GEOMETRIC_REPRESENTATION_CONTEXT ( 3 ) GLOBAL_UNCERTAINTY_ASSIGNED_CONTEXT ( ( #804 ) ) GLOBAL_UNIT_ASSIGNED_CONTEXT ( ( #462, #21, #7 ) ) REPRESENTATION_CONTEXT ( 'NONE', 'WORKASPACE' ) );
#467 = CIRCLE ( 'NONE', #309, 0.2549999999999999489 ) ;
#468 = ORIENTED_EDGE ( 'NONE', *, *, #127, .T. ) ;
#469 = FACE_OUTER_BOUND ( 'NONE', #971, .T. ) ;
#470 = CARTESIAN_POINT ( 'NONE',  ( -3.556190395207061261, 2.609365052918086292, 0.2550000000000000044 ) ) ;
#471 = AXIS2_PLACEMENT_3D ( 'NONE', #989, #909, #639 ) ;
#472 =( LENGTH_UNIT ( ) NAMED_UNIT ( * ) SI_UNIT ( .MILLI., .METRE. ) );
#473 = SURFACE_STYLE_USAGE ( .BOTH. , #318 ) ;
#474 = CARTESIAN_POINT ( 'NONE',  ( 0.000000000000000000, 0.000000000000000000, 0.000000000000000000 ) ) ;
#475 = SURFACE_SIDE_STYLE ('',( #195 ) ) ;
#476 = ORIENTED_EDGE ( 'NONE', *, *, #880, .F. ) ;
#477 = DIRECTION ( 'NONE',  ( 0.000000000000000000, 0.000000000000000000, 1.000000000000000000 ) ) ;
#478 = FILL_AREA_STYLE_COLOUR ( '', #299 ) ;
#479 =( GEOMETRIC_REPRESENTATION_CONTEXT ( 3 ) GLOBAL_UNCERTAINTY_ASSIGNED_CONTEXT ( ( #30 ) ) GLOBAL_UNIT_ASSIGNED_CONTEXT ( ( #1102, #499, #348 ) ) REPRESENTATION_CONTEXT ( 'NONE', 'WORKASPACE' ) );
#480 = UNCERTAINTY_MEASURE_WITH_UNIT (LENGTH_MEASURE( 1.000000000000000082E-05 ), #106, 'distance_accuracy_value', 'NONE');
#481 =( NAMED_UNIT ( * ) PLANE_ANGLE_UNIT ( ) SI_UNIT ( $, .RADIAN. ) );
#482 = FILL_AREA_STYLE ('',( #421 ) ) ;
#483 = PRODUCT_DEFINITION_FORMATION_WITH_SPECIFIED_SOURCE ( 'ANY', '', #706, .NOT_KNOWN. ) ;
#484 = VERTEX_POINT ( 'NONE', #782 ) ;
#485 = SURFACE_SIDE_STYLE ('',( #999 ) ) ;
#486 = LINE ( 'NONE', #39, #107 ) ;
#487 = FILL_AREA_STYLE ('',( #128 ) ) ;
#488 = CARTESIAN_POINT ( 'NONE',  ( 3.362617346942188501, 3.014071166754408893, 1.233262903810380613E-16 ) ) ;
#489 = UNCERTAINTY_MEASURE_WITH_UNIT (LENGTH_MEASURE( 1.000000000000000082E-05 ), #618, 'distance_accuracy_value', 'NONE');
#490 = CIRCLE ( 'NONE', #774, 1.609365052918086292 ) ;
#491 =( NAMED_UNIT ( * ) SI_UNIT ( $, .STERADIAN. ) SOLID_ANGLE_UNIT ( ) );
#492 = ORIENTED_EDGE ( 'NONE', *, *, #589, .F. ) ;
#493 = EDGE_CURVE ( 'NONE', #204, #593, #439, .T. ) ;
#494 = CIRCLE ( 'NONE', #251, 1.255000000000000115 ) ;
#495 = DIRECTION ( 'NONE',  ( 1.000000000000000000, -0.000000000000000000, -0.000000000000000000 ) ) ;
#496 = SURFACE_SIDE_STYLE ('',( #957 ) ) ;
#497 = VERTEX_POINT ( 'NONE', #789 ) ;
#498 = DIRECTION ( 'NONE',  ( -1.000000000000000000, 0.000000000000000000, 0.000000000000000000 ) ) ;
#499 =( NAMED_UNIT ( * ) PLANE_ANGLE_UNIT ( ) SI_UNIT ( $, .RADIAN. ) );
#500 = DIRECTION ( 'NONE',  ( -1.000000000000000000, 0.000000000000000000, 0.000000000000000000 ) ) ;
#501 = UNCERTAINTY_MEASURE_WITH_UNIT (LENGTH_MEASURE( 1.000000000000000082E-05 ), #407, 'distance_accuracy_value', 'NONE');
#502 = STYLED_ITEM ( 'NONE', ( #904 ), #647 ) ;
#503 = ORIENTED_EDGE ( 'NONE', *, *, #165, .F. ) ;
#504 = DIRECTION ( 'NONE',  ( 2.832769448823989808E-16, 1.000000000000000000, -0.000000000000000000 ) ) ;
#505 = CARTESIAN_POINT ( 'NONE',  ( -7.860000000000002096, 2.354365052918086398, -3.122849337825749310E-17 ) ) ;
#506 = ADVANCED_FACE ( 'NONE', ( #535 ), #1144, .T. ) ;
#507 = VERTEX_POINT ( 'NONE', #886 ) ;
#508 = FILL_AREA_STYLE ('',( #306 ) ) ;
#509 = DIRECTION ( 'NONE',  ( 0.000000000000000000, 0.000000000000000000, -1.000000000000000000 ) ) ;
#510 = EDGE_CURVE ( 'NONE', #593, #54, #338, .T. ) ;
#511 = CARTESIAN_POINT ( 'NONE',  ( 1.804968851620623482, 2.609365052918086292, 0.000000000000000000 ) ) ;
#512 = SURFACE_STYLE_FILL_AREA ( #598 ) ;
#513 = DIRECTION ( 'NONE',  ( 0.000000000000000000, 0.000000000000000000, -1.000000000000000000 ) ) ;
#514 = SURFACE_STYLE_USAGE ( .BOTH. , #595 ) ;
#515 = FACE_OUTER_BOUND ( 'NONE', #71, .T. ) ;
#516 = FILL_AREA_STYLE_COLOUR ( '', #1017 ) ;
#517 = CARTESIAN_POINT ( 'NONE',  ( 7.860000000000002096, 2.609365052918086292, 0.000000000000000000 ) ) ;
#518 = AXIS2_PLACEMENT_3D ( 'NONE', #312, #861, #854 ) ;
#519 = VERTEX_POINT ( 'NONE', #3 ) ;
#520 = DIRECTION ( 'NONE',  ( -0.000000000000000000, -0.000000000000000000, -1.000000000000000000 ) ) ;
#521 = FACE_OUTER_BOUND ( 'NONE', #126, .T. ) ;
#522 = DIRECTION ( 'NONE',  ( 0.000000000000000000, 0.000000000000000000, -1.000000000000000000 ) ) ;
#523 = EDGE_CURVE ( 'NONE', #372, #54, #638, .T. ) ;
#524 = CARTESIAN_POINT ( 'NONE',  ( 1.804968851620623482, 4.218730105836172584, 1.970903760715744989E-16 ) ) ;
#525 = FILL_AREA_STYLE ('',( #950 ) ) ;
#526 = ORIENTED_EDGE ( 'NONE', *, *, #997, .T. ) ;
#527 = CIRCLE ( 'NONE', #404, 0.2549999999999999489 ) ;
#528 = DIRECTION ( 'NONE',  ( 0.000000000000000000, 0.000000000000000000, 1.000000000000000000 ) ) ;
#529 =( GEOMETRIC_REPRESENTATION_CONTEXT ( 3 ) GLOBAL_UNCERTAINTY_ASSIGNED_CONTEXT ( ( #835 ) ) GLOBAL_UNIT_ASSIGNED_CONTEXT ( ( #623, #81, #361 ) ) REPRESENTATION_CONTEXT ( 'NONE', 'WORKASPACE' ) );
#530 = FILL_AREA_STYLE_COLOUR ( '', #223 ) ;
#531 =( GEOMETRIC_REPRESENTATION_CONTEXT ( 3 ) GLOBAL_UNCERTAINTY_ASSIGNED_CONTEXT ( ( #1006 ) ) GLOBAL_UNIT_ASSIGNED_CONTEXT ( ( #279, #1004, #732 ) ) REPRESENTATION_CONTEXT ( 'NONE', 'WORKASPACE' ) );
#532 = ORIENTED_EDGE ( 'NONE', *, *, #379, .T. ) ;
#533 = STYLED_ITEM ( 'NONE', ( #784 ), #287 ) ;
#534 = DIRECTION ( 'NONE',  ( 1.000000000000000000, 0.000000000000000000, 0.000000000000000000 ) ) ;
#535 = FACE_OUTER_BOUND ( 'NONE', #691, .T. ) ;
#536 = CARTESIAN_POINT ( 'NONE',  ( -8.860000000000001208, 1.609365052918086292, 0.000000000000000000 ) ) ;
#537 = PRESENTATION_LAYER_ASSIGNMENT (  '', '', ( #711 ) ) ;
#538 = EDGE_LOOP ( 'NONE', ( #24, #392, #532, #1117, #444 ) ) ;
#539 = CYLINDRICAL_SURFACE ( 'NONE', #844, 0.2549999999999999489 ) ;
#540 = COLOUR_RGB ( '',0.8980392156862745390, 0.9176470588235293713, 0.9294117647058823817 ) ;
#541 = MANIFOLD_SOLID_BREP ( 'Mirror1', #1071 ) ;
#542 = AXIS2_PLACEMENT_3D ( 'NONE', #474, #838, #1012 ) ;
#543 = EDGE_CURVE ( 'NONE', #591, #47, #557, .T. ) ;
#544 = SPHERICAL_SURFACE ( 'NONE', #257, 1.609365052918086070 ) ;
#545 = UNCERTAINTY_MEASURE_WITH_UNIT (LENGTH_MEASURE( 1.000000000000000082E-05 ), #1086, 'distance_accuracy_value', 'NONE');
#546 = DIRECTION ( 'NONE',  ( -1.000000000000000000, -0.000000000000000000, -0.000000000000000000 ) ) ;
#547 = FILL_AREA_STYLE_COLOUR ( '', #812 ) ;
#548 =( GEOMETRIC_REPRESENTATION_CONTEXT ( 3 ) GLOBAL_UNCERTAINTY_ASSIGNED_CONTEXT ( ( #1109 ) ) GLOBAL_UNIT_ASSIGNED_CONTEXT ( ( #848, #148, #400 ) ) REPRESENTATION_CONTEXT ( 'NONE', 'WORKASPACE' ) );
#549 = CARTESIAN_POINT ( 'NONE',  ( -3.556190395207061261, 2.609365052918086292, -0.4550000000000005151 ) ) ;
#550 = ORIENTED_EDGE ( 'NONE', *, *, #205, .F. ) ;
#551 = SURFACE_SIDE_STYLE ('',( #628 ) ) ;
#552 = CARTESIAN_POINT ( 'NONE',  ( 3.362617346942188501, 2.609365052918086292, 0.000000000000000000 ) ) ;
#553 = SURFACE_SIDE_STYLE ('',( #985 ) ) ;
#554 = DIRECTION ( 'NONE',  ( -0.000000000000000000, 1.000000000000000000, 1.224646799147353207E-16 ) ) ;
#555 = CARTESIAN_POINT ( 'NONE',  ( -7.860000000000002096, 2.609365052918086292, 0.000000000000000000 ) ) ;
#556 = EDGE_LOOP ( 'NONE', ( #401, #897, #207, #1140, #142 ) ) ;
#557 = CIRCLE ( 'NONE', #362, 0.2000000000000004829 ) ;
#558 = EDGE_CURVE ( 'NONE', #507, #204, #190, .T. ) ;
#559 = DIRECTION ( 'NONE',  ( -1.000000000000000000, -0.000000000000000000, -0.000000000000000000 ) ) ;
#560 = CARTESIAN_POINT ( 'NONE',  ( 3.556190395207061261, 2.609365052918086292, 0.000000000000000000 ) ) ;
#561 = FACE_OUTER_BOUND ( 'NONE', #556, .T. ) ;
#562 = VECTOR ( 'NONE', #805, 1000.000000000000000 ) ;
#563 = EDGE_CURVE ( 'NONE', #640, #1111, #317, .T. ) ;
#564 = ORIENTED_EDGE ( 'NONE', *, *, #914, .T. ) ;
#565 = SURFACE_SIDE_STYLE ('',( #187 ) ) ;
#566 = AXIS2_PLACEMENT_3D ( 'NONE', #308, #60, #418 ) ;
#567 = COLOUR_RGB ( '',0.8980392156862745390, 0.9176470588235293713, 0.9294117647058823817 ) ;
#568 = ORIENTED_EDGE ( 'NONE', *, *, #993, .T. ) ;
#569 = FILL_AREA_STYLE ('',( #210 ) ) ;
#570 = ORIENTED_EDGE ( 'NONE', *, *, #141, .F. ) ;
#571 = STYLED_ITEM ( 'NONE', ( #943 ), #303 ) ;
#572 = SURFACE_STYLE_USAGE ( .BOTH. , #565 ) ;
#573 = MECHANICAL_DESIGN_GEOMETRIC_PRESENTATION_REPRESENTATION (  '', ( #378 ), #140 ) ;
#574 =( GEOMETRIC_REPRESENTATION_CONTEXT ( 3 ) GLOBAL_UNCERTAINTY_ASSIGNED_CONTEXT ( ( #654 ) ) GLOBAL_UNIT_ASSIGNED_CONTEXT ( ( #836, #1098, #927 ) ) REPRESENTATION_CONTEXT ( 'NONE', 'WORKASPACE' ) );
#575 = UNCERTAINTY_MEASURE_WITH_UNIT (LENGTH_MEASURE( 1.000000000000000082E-05 ), #326, 'distance_accuracy_value', 'NONE');
#576 = COLOUR_RGB ( '',0.7529411764705882248, 0.7529411764705882248, 0.000000000000000000 ) ;
#577 = EDGE_CURVE ( 'NONE', #172, #311, #486, .T. ) ;
#578 = ORIENTED_EDGE ( 'NONE', *, *, #914, .F. ) ;
#579 = DIRECTION ( 'NONE',  ( 0.000000000000000000, 0.000000000000000000, 1.000000000000000000 ) ) ;
#580 = SURFACE_STYLE_USAGE ( .BOTH. , #304 ) ;
#581 = PRESENTATION_LAYER_ASSIGNMENT (  '', '', ( #18 ) ) ;
#582 = ORIENTED_EDGE ( 'NONE', *, *, #448, .F. ) ;
#583 = STYLED_ITEM ( 'NONE', ( #174 ), #201 ) ;
#584 = SURFACE_STYLE_FILL_AREA ( #487 ) ;
#585 = CARTESIAN_POINT ( 'NONE',  ( -8.860000000000001208, -3.000000000000000000, 0.000000000000000000 ) ) ;
#586 = EDGE_LOOP ( 'NONE', ( #84, #89, #599, #922, #454, #289 ) ) ;
#587 = SURFACE_STYLE_FILL_AREA ( #525 ) ;
#588 = CARTESIAN_POINT ( 'NONE',  ( -7.860000000000002096, 1.609365052918086292, 0.000000000000000000 ) ) ;
#589 = EDGE_CURVE ( 'NONE', #637, #178, #1014, .T. ) ;
#590 = EDGE_CURVE ( 'NONE', #939, #519, #189, .T. ) ;
#591 = VERTEX_POINT ( 'NONE', #72 ) ;
#592 =( NAMED_UNIT ( * ) PLANE_ANGLE_UNIT ( ) SI_UNIT ( $, .RADIAN. ) );
#593 = VERTEX_POINT ( 'NONE', #1124 ) ;
#594 = DIRECTION ( 'NONE',  ( 0.000000000000000000, -1.224646799147353207E-16, 1.000000000000000000 ) ) ;
#595 = SURFACE_SIDE_STYLE ('',( #671 ) ) ;
#596 =( NAMED_UNIT ( * ) SI_UNIT ( $, .STERADIAN. ) SOLID_ANGLE_UNIT ( ) );
#597 = COLOUR_RGB ( '',0.7529411764705882248, 0.7529411764705882248, 0.000000000000000000 ) ;
#598 = FILL_AREA_STYLE ('',( #516 ) ) ;
#599 = ORIENTED_EDGE ( 'NONE', *, *, #980, .T. ) ;
#600 = FACE_OUTER_BOUND ( 'NONE', #730, .T. ) ;
#601 = EDGE_CURVE ( 'NONE', #645, #704, #851, .T. ) ;
#602 = PRESENTATION_LAYER_ASSIGNMENT (  '', '', ( #907 ) ) ;
#603 = DIRECTION ( 'NONE',  ( -1.000000000000000000, -0.000000000000000000, -0.000000000000000000 ) ) ;
#604 = SURFACE_SIDE_STYLE ('',( #762 ) ) ;
#605 = AXIS2_PLACEMENT_3D ( 'NONE', #147, #43, #498 ) ;
#606 = PRESENTATION_LAYER_ASSIGNMENT (  '', '', ( #158 ) ) ;
#607 = ORIENTED_EDGE ( 'NONE', *, *, #448, .T. ) ;
#608 = SURFACE_SIDE_STYLE ('',( #93 ) ) ;
#609 = SURFACE_SIDE_STYLE ('',( #876 ) ) ;
#610 = ORIENTED_EDGE ( 'NONE', *, *, #601, .F. ) ;
#611 = STYLED_ITEM ( 'NONE', ( #644 ), #917 ) ;
#612 = SPHERICAL_SURFACE ( 'NONE', #1153, 1.609365052918086070 ) ;
#613 = CARTESIAN_POINT ( 'NONE',  ( 8.860000000000001208, 1.609365052918086292, 0.000000000000000000 ) ) ;
#614 =( NAMED_UNIT ( * ) PLANE_ANGLE_UNIT ( ) SI_UNIT ( $, .RADIAN. ) );
#615 = CIRCLE ( 'NONE', #760, 0.4047061138363222121 ) ;
#616 = ORIENTED_EDGE ( 'NONE', *, *, #1116, .T. ) ;
#617 = ADVANCED_FACE ( 'NONE', ( #779 ), #327, .T. ) ;
#618 =( LENGTH_UNIT ( ) NAMED_UNIT ( * ) SI_UNIT ( .MILLI., .METRE. ) );
#619 =( LENGTH_UNIT ( ) NAMED_UNIT ( * ) SI_UNIT ( .MILLI., .METRE. ) );
#620 = VERTEX_POINT ( 'NONE', #1091 ) ;
#621 = DIRECTION ( 'NONE',  ( 0.000000000000000000, 0.000000000000000000, 1.000000000000000000 ) ) ;
#622 =( GEOMETRIC_REPRESENTATION_CONTEXT ( 3 ) GLOBAL_UNCERTAINTY_ASSIGNED_CONTEXT ( ( #1103 ) ) GLOBAL_UNIT_ASSIGNED_CONTEXT ( ( #151, #1051, #285 ) ) REPRESENTATION_CONTEXT ( 'NONE', 'WORKASPACE' ) );
#623 =( LENGTH_UNIT ( ) NAMED_UNIT ( * ) SI_UNIT ( .MILLI., .METRE. ) );
#624 = PRESENTATION_STYLE_ASSIGNMENT (( #987 ) ) ;
#625 = UNCERTAINTY_MEASURE_WITH_UNIT (LENGTH_MEASURE( 1.000000000000000082E-05 ), #632, 'distance_accuracy_value', 'NONE');
#626 = SURFACE_SIDE_STYLE ('',( #12 ) ) ;
#627 = ORIENTED_EDGE ( 'NONE', *, *, #375, .T. ) ;
#628 = SURFACE_STYLE_FILL_AREA ( #112 ) ;
#629 = DIRECTION ( 'NONE',  ( 0.000000000000000000, 0.000000000000000000, -1.000000000000000000 ) ) ;
#630 = FILL_AREA_STYLE ('',( #478 ) ) ;
#631 = CYLINDRICAL_SURFACE ( 'NONE', #1105, 0.2549999999999999489 ) ;
#632 =( LENGTH_UNIT ( ) NAMED_UNIT ( * ) SI_UNIT ( .MILLI., .METRE. ) );
#633 = ORIENTED_EDGE ( 'NONE', *, *, #336, .T. ) ;
#634 = DIRECTION ( 'NONE',  ( 0.000000000000000000, 0.000000000000000000, -1.000000000000000000 ) ) ;
#635 = EDGE_CURVE ( 'NONE', #352, #178, #455, .T. ) ;
#636 = DIRECTION ( 'NONE',  ( 0.000000000000000000, 0.000000000000000000, -1.000000000000000000 ) ) ;
#637 = VERTEX_POINT ( 'NONE', #199 ) ;
#638 = CIRCLE ( 'NONE', #787, 1.609365052918086070 ) ;
#639 = DIRECTION ( 'NONE',  ( 0.000000000000000000, 0.000000000000000000, 1.000000000000000000 ) ) ;
#640 = VERTEX_POINT ( 'NONE', #470 ) ;
#641 = CARTESIAN_POINT ( 'NONE',  ( 8.860000000000001208, 1.609365052918086292, -0.2549999999999999489 ) ) ;
#642 = AXIS2_PLACEMENT_3D ( 'NONE', #406, #1002, #1005 ) ;
#643 = STYLED_ITEM ( 'NONE', ( #275 ), #900 ) ;
#644 = PRESENTATION_STYLE_ASSIGNMENT (( #381 ) ) ;
#645 = VERTEX_POINT ( 'NONE', #826 ) ;
#646 = DIRECTION ( 'NONE',  ( 2.832769448823989808E-16, 1.000000000000000000, -0.000000000000000000 ) ) ;
#647 = ADVANCED_FACE ( 'NONE', ( #717 ), #631, .T. ) ;
#648 = STYLED_ITEM ( 'NONE', ( #819 ), #273 ) ;
#649 = CARTESIAN_POINT ( 'NONE',  ( 8.860000000000001208, 1.609365052918086292, 0.000000000000000000 ) ) ;
#650 = ORIENTED_EDGE ( 'NONE', *, *, #1057, .F. ) ;
#651 = MECHANICAL_DESIGN_GEOMETRIC_PRESENTATION_REPRESENTATION (  '', ( #502 ), #686 ) ;
#652 = CARTESIAN_POINT ( 'NONE',  ( -10.09675116564010722, 2.609365052918086292, -1.609365052918086292 ) ) ;
#653 = DIRECTION ( 'NONE',  ( 0.000000000000000000, 0.000000000000000000, -1.000000000000000000 ) ) ;
#654 = UNCERTAINTY_MEASURE_WITH_UNIT (LENGTH_MEASURE( 1.000000000000000082E-05 ), #836, 'distance_accuracy_value', 'NONE');
#655 = PRESENTATION_LAYER_ASSIGNMENT (  '', '', ( #63 ) ) ;
#656 =( GEOMETRIC_REPRESENTATION_CONTEXT ( 3 ) GLOBAL_UNCERTAINTY_ASSIGNED_CONTEXT ( ( #442 ) ) GLOBAL_UNIT_ASSIGNED_CONTEXT ( ( #756, #316, #415 ) ) REPRESENTATION_CONTEXT ( 'NONE', 'WORKASPACE' ) );
#657 = SHAPE_DEFINITION_REPRESENTATION ( #376, #742 ) ;
#658 = EDGE_LOOP ( 'NONE', ( #315, #185, #978, #42, #607 ) ) ;
#659 =( LENGTH_UNIT ( ) NAMED_UNIT ( * ) SI_UNIT ( .MILLI., .METRE. ) );
#660 = FILL_AREA_STYLE ('',( #766 ) ) ;
#661 = AXIS2_PLACEMENT_3D ( 'NONE', #585, #504, #653 ) ;
#662 = MECHANICAL_DESIGN_GEOMETRIC_PRESENTATION_REPRESENTATION (  '', ( #18 ), #718 ) ;
#663 = EDGE_CURVE ( 'NONE', #1028, #497, #242, .T. ) ;
#664 = ORIENTED_EDGE ( 'NONE', *, *, #92, .T. ) ;
#665 = CARTESIAN_POINT ( 'NONE',  ( -8.860000000000001208, -3.000000000000000000, 0.2549999999999999489 ) ) ;
#666 = ORIENTED_EDGE ( 'NONE', *, *, #788, .F. ) ;
#667 = CYLINDRICAL_SURFACE ( 'NONE', #1061, 1.609365052918086292 ) ;
#668 = AXIS2_PLACEMENT_3D ( 'NONE', #764, #955, #509 ) ;
#669 = VERTEX_POINT ( 'NONE', #23 ) ;
#670 = CIRCLE ( 'NONE', #262, 0.2549999999999999489 ) ;
#671 = SURFACE_STYLE_FILL_AREA ( #228 ) ;
#672 = CARTESIAN_POINT ( 'NONE',  ( -7.860000000000002096, 2.609365052918086292, 0.000000000000000000 ) ) ;
#673 = CARTESIAN_POINT ( 'NONE',  ( 8.860000000000001208, -3.000000000000000000, 0.000000000000000000 ) ) ;
#674 = AXIS2_PLACEMENT_3D ( 'NONE', #511, #313, #1025 ) ;
#675 = FILL_AREA_STYLE ('',( #56 ) ) ;
#676 = ORIENTED_EDGE ( 'NONE', *, *, #771, .T. ) ;
#677 =( GEOMETRIC_REPRESENTATION_CONTEXT ( 3 ) GLOBAL_UNCERTAINTY_ASSIGNED_CONTEXT ( ( #395 ) ) GLOBAL_UNIT_ASSIGNED_CONTEXT ( ( #58, #324, #1015 ) ) REPRESENTATION_CONTEXT ( 'NONE', 'WORKASPACE' ) );
#678 = CARTESIAN_POINT ( 'NONE',  ( 7.860000000000002096, 1.609365052918086292, 0.000000000000000000 ) ) ;
#679 = DIRECTION ( 'NONE',  ( 0.000000000000000000, 0.000000000000000000, 1.000000000000000000 ) ) ;
#680 = EDGE_CURVE ( 'NONE', #754, #6, #770, .T. ) ;
#681 = APPLICATION_CONTEXT ( 'automotive_design' ) ;
#682 = CARTESIAN_POINT ( 'NONE',  ( -3.556190395207061261, 2.609365052918086292, -0.2550000000000000044 ) ) ;
#683 = CARTESIAN_POINT ( 'NONE',  ( 8.860000000000001208, 1.609365052918086292, 0.000000000000000000 ) ) ;
#684 = FACE_OUTER_BOUND ( 'NONE', #1106, .T. ) ;
#685 = ORIENTED_EDGE ( 'NONE', *, *, #1057, .T. ) ;
#686 =( GEOMETRIC_REPRESENTATION_CONTEXT ( 3 ) GLOBAL_UNCERTAINTY_ASSIGNED_CONTEXT ( ( #480 ) ) GLOBAL_UNIT_ASSIGNED_CONTEXT ( ( #106, #810, #465 ) ) REPRESENTATION_CONTEXT ( 'NONE', 'WORKASPACE' ) );
#687 = CARTESIAN_POINT ( 'NONE',  ( 7.860000000000002096, 2.609365052918086292, 0.000000000000000000 ) ) ;
#688 = SURFACE_STYLE_FILL_AREA ( #432 ) ;
#689 = AXIS2_PLACEMENT_3D ( 'NONE', #385, #846, #1096 ) ;
#690 = AXIS2_PLACEMENT_3D ( 'NONE', #799, #64, #828 ) ;
#691 = EDGE_LOOP ( 'NONE', ( #568, #382, #274, #570, #28 ) ) ;
#692 = CARTESIAN_POINT ( 'NONE',  ( 3.556190395207061261, 2.609365052918086292, 0.000000000000000000 ) ) ;
#693 = MECHANICAL_DESIGN_GEOMETRIC_PRESENTATION_REPRESENTATION (  '', ( #711 ), #224 ) ;
#694 = FACE_OUTER_BOUND ( 'NONE', #586, .T. ) ;
#695 =( NAMED_UNIT ( * ) SI_UNIT ( $, .STERADIAN. ) SOLID_ANGLE_UNIT ( ) );
#696 = EDGE_CURVE ( 'NONE', #497, #332, #1145, .T. ) ;
#697 = ORIENTED_EDGE ( 'NONE', *, *, #284, .T. ) ;
#698 = VECTOR ( 'NONE', #906, 1000.000000000000000 ) ;
#699 = CIRCLE ( 'NONE', #674, 1.609365052918086292 ) ;
#700 = CARTESIAN_POINT ( 'NONE',  ( -7.860000000000002096, 2.609365052918086292, -0.2549999999999999489 ) ) ;
#701 = ADVANCED_FACE ( 'NONE', ( #911 ), #438, .T. ) ;
#702 = CARTESIAN_POINT ( 'NONE',  ( -1.804968851620623482, 2.609365052918086292, 0.000000000000000000 ) ) ;
#703 = PRESENTATION_STYLE_ASSIGNMENT (( #365 ) ) ;
#704 = VERTEX_POINT ( 'NONE', #1082 ) ;
#705 = CARTESIAN_POINT ( 'NONE',  ( -8.860000000000001208, 1.609365052918086292, -0.2549999999999999489 ) ) ;
#706 = PRODUCT ( 'Capacitor Ceramic No Polarity axial 17.72', 'Capacitor Ceramic No Polarity axial 17.72', '', ( #36 ) ) ;
#707 = DIRECTION ( 'NONE',  ( 1.000000000000000000, -0.000000000000000000, -0.000000000000000000 ) ) ;
#708 = CARTESIAN_POINT ( 'NONE',  ( 3.556190395207061261, 2.609365052918086292, -0.4550000000000005151 ) ) ;
#709 = DIRECTION ( 'NONE',  ( 2.832769448823989808E-16, 1.000000000000000000, -0.000000000000000000 ) ) ;
#710 = FILL_AREA_STYLE ('',( #530 ) ) ;
#711 = STYLED_ITEM ( 'NONE', ( #464 ), #341 ) ;
#712 = VERTEX_POINT ( 'NONE', #188 ) ;
#713 = DIRECTION ( 'NONE',  ( 0.000000000000000000, 0.000000000000000000, -1.000000000000000000 ) ) ;
#714 = STYLED_ITEM ( 'NONE', ( #929 ), #736 ) ;
#715 = TOROIDAL_SURFACE ( 'NONE', #518, 1.000000000000000000, 0.2549999999999999489 ) ;
#716 = DIRECTION ( 'NONE',  ( -0.000000000000000000, 0.000000000000000000, 1.000000000000000000 ) ) ;
#717 = FACE_OUTER_BOUND ( 'NONE', #538, .T. ) ;
#718 =( GEOMETRIC_REPRESENTATION_CONTEXT ( 3 ) GLOBAL_UNCERTAINTY_ASSIGNED_CONTEXT ( ( #974 ) ) GLOBAL_UNIT_ASSIGNED_CONTEXT ( ( #25, #1088, #918 ) ) REPRESENTATION_CONTEXT ( 'NONE', 'WORKASPACE' ) );
#719 = CARTESIAN_POINT ( 'NONE',  ( 1.804968851620622594, 2.609365052918086292, 0.000000000000000000 ) ) ;
#720 = AXIS2_PLACEMENT_3D ( 'NONE', #687, #154, #160 ) ;
#721 = ORIENTED_EDGE ( 'NONE', *, *, #696, .F. ) ;
#722 = EDGE_CURVE ( 'NONE', #6, #358, #416, .T. ) ;
#723 = SURFACE_STYLE_USAGE ( .BOTH. , #485 ) ;
#724 = AXIS2_PLACEMENT_3D ( 'NONE', #678, #520, #872 ) ;
#725 = AXIS2_PLACEMENT_3D ( 'NONE', #166, #353, #346 ) ;
#726 = SURFACE_STYLE_FILL_AREA ( #1060 ) ;
#727 = EDGE_LOOP ( 'NONE', ( #115, #928 ) ) ;
#728 = PRESENTATION_LAYER_ASSIGNMENT (  '', '', ( #648 ) ) ;
#729 = FACE_OUTER_BOUND ( 'NONE', #1065, .T. ) ;
#730 = EDGE_LOOP ( 'NONE', ( #37, #685 ) ) ;
#731 = COLOUR_RGB ( '',0.7529411764705882248, 0.7529411764705882248, 0.000000000000000000 ) ;
#732 =( NAMED_UNIT ( * ) SI_UNIT ( $, .STERADIAN. ) SOLID_ANGLE_UNIT ( ) );
#733 = DIRECTION ( 'NONE',  ( 2.832769448823989808E-16, 1.000000000000000000, -0.000000000000000000 ) ) ;
#734 = CIRCLE ( 'NONE', #908, 1.609365052918086292 ) ;
#735 = ORIENTED_EDGE ( 'NONE', *, *, #829, .F. ) ;
#736 = ADVANCED_FACE ( 'NONE', ( #561 ), #1048, .F. ) ;
#737 = CARTESIAN_POINT ( 'NONE',  ( -8.860000000000001208, 1.609365052918086292, 0.000000000000000000 ) ) ;
#738 = DIRECTION ( 'NONE',  ( -0.000000000000000000, 0.000000000000000000, 1.000000000000000000 ) ) ;
#739 = UNCERTAINTY_MEASURE_WITH_UNIT (LENGTH_MEASURE( 1.000000000000000082E-05 ), #659, 'distance_accuracy_value', 'NONE');
#740 = MECHANICAL_DESIGN_GEOMETRIC_PRESENTATION_REPRESENTATION (  '', ( #1132 ), #548 ) ;
#741 = ORIENTED_EDGE ( 'NONE', *, *, #947, .T. ) ;
#742 = ADVANCED_BREP_SHAPE_REPRESENTATION ( 'Capacitor Ceramic No Polarity axial 17.72', ( #541, #542 ), #1067 ) ;
#743 =( LENGTH_UNIT ( ) NAMED_UNIT ( * ) SI_UNIT ( .MILLI., .METRE. ) );
#744 = EDGE_LOOP ( 'NONE', ( #213, #902, #883, #905, #14 ) ) ;
#745 =( GEOMETRIC_REPRESENTATION_CONTEXT ( 3 ) GLOBAL_UNCERTAINTY_ASSIGNED_CONTEXT ( ( #842 ) ) GLOBAL_UNIT_ASSIGNED_CONTEXT ( ( #899, #452, #269 ) ) REPRESENTATION_CONTEXT ( 'NONE', 'WORKASPACE' ) );
#746 = DIRECTION ( 'NONE',  ( -1.000000000000000000, -0.000000000000000000, -0.000000000000000000 ) ) ;
#747 =( LENGTH_UNIT ( ) NAMED_UNIT ( * ) SI_UNIT ( .MILLI., .METRE. ) );
#748 = FILL_AREA_STYLE ('',( #62 ) ) ;
#749 = CIRCLE ( 'NONE', #1043, 0.2549999999999999489 ) ;
#750 = EDGE_LOOP ( 'NONE', ( #409, #386, #793, #871, #110 ) ) ;
#751 = DIRECTION ( 'NONE',  ( 2.832769448823989808E-16, -1.000000000000000000, 0.000000000000000000 ) ) ;
#752 = EDGE_CURVE ( 'NONE', #593, #222, #200, .T. ) ;
#753 = STYLED_ITEM ( 'NONE', ( #45 ), #137 ) ;
#754 = VERTEX_POINT ( 'NONE', #794 ) ;
#755 = CIRCLE ( 'NONE', #179, 0.4047061138363226562 ) ;
#756 =( LENGTH_UNIT ( ) NAMED_UNIT ( * ) SI_UNIT ( .MILLI., .METRE. ) );
#757 = DIRECTION ( 'NONE',  ( 1.000000000000000000, 0.000000000000000000, 0.000000000000000000 ) ) ;
#758 = CARTESIAN_POINT ( 'NONE',  ( -7.860000000000002096, 1.609365052918086292, 0.000000000000000000 ) ) ;
#759 = SURFACE_STYLE_USAGE ( .BOTH. , #866 ) ;
#760 = AXIS2_PLACEMENT_3D ( 'NONE', #919, #113, #22 ) ;
#761 = ORIENTED_EDGE ( 'NONE', *, *, #218, .F. ) ;
#762 = SURFACE_STYLE_FILL_AREA ( #508 ) ;
#763 = SURFACE_STYLE_FILL_AREA ( #675 ) ;
#764 = CARTESIAN_POINT ( 'NONE',  ( 7.860000000000002096, 2.609365052918086292, 0.000000000000000000 ) ) ;
#765 = PRESENTATION_LAYER_ASSIGNMENT (  '', '', ( #533 ) ) ;
#766 = FILL_AREA_STYLE_COLOUR ( '', #843 ) ;
#767 = COLOUR_RGB ( '',0.8980392156862745390, 0.9176470588235293713, 0.9294117647058823817 ) ;
#768 = DIRECTION ( 'NONE',  ( 0.000000000000000000, -1.000000000000000000, 0.000000000000000000 ) ) ;
#769 = DIRECTION ( 'NONE',  ( -1.000000000000000000, -0.000000000000000000, -0.000000000000000000 ) ) ;
#770 = CIRCLE ( 'NONE', #300, 0.2549999999999999489 ) ;
#771 = EDGE_CURVE ( 'NONE', #777, #131, #913, .T. ) ;
#772 = DIRECTION ( 'NONE',  ( 0.000000000000000000, 0.000000000000000000, 1.000000000000000000 ) ) ;
#773 = CARTESIAN_POINT ( 'NONE',  ( -3.556190395207061261, 2.609365052918086292, 0.000000000000000000 ) ) ;
#774 = AXIS2_PLACEMENT_3D ( 'NONE', #702, #1054, #435 ) ;
#775 = DIRECTION ( 'NONE',  ( 0.000000000000000000, 0.000000000000000000, -1.000000000000000000 ) ) ;
#776 =( GEOMETRIC_REPRESENTATION_CONTEXT ( 3 ) GLOBAL_UNCERTAINTY_ASSIGNED_CONTEXT ( ( #501 ) ) GLOBAL_UNIT_ASSIGNED_CONTEXT ( ( #407, #592, #310 ) ) REPRESENTATION_CONTEXT ( 'NONE', 'WORKASPACE' ) );
#777 = VERTEX_POINT ( 'NONE', #15 ) ;
#778 = AXIS2_PLACEMENT_3D ( 'NONE', #560, #1081, #276 ) ;
#779 = FACE_OUTER_BOUND ( 'NONE', #225, .T. ) ;
#780 = FILL_AREA_STYLE_COLOUR ( '', #933 ) ;
#781 = DIRECTION ( 'NONE',  ( 0.000000000000000000, 0.000000000000000000, 1.000000000000000000 ) ) ;
#782 = CARTESIAN_POINT ( 'NONE',  ( -3.362617346942187613, 3.014071166754408448, 1.233262903810380613E-16 ) ) ;
#783 = SURFACE_SIDE_STYLE ('',( #512 ) ) ;
#784 = PRESENTATION_STYLE_ASSIGNMENT (( #951 ) ) ;
#785 = ORIENTED_EDGE ( 'NONE', *, *, #412, .T. ) ;
#786 = CARTESIAN_POINT ( 'NONE',  ( 7.860000000000002096, 2.609365052918086292, -0.2549999999999999489 ) ) ;
#787 = AXIS2_PLACEMENT_3D ( 'NONE', #719, #354, #260 ) ;
#788 = EDGE_CURVE ( 'NONE', #777, #372, #347, .T. ) ;
#789 = CARTESIAN_POINT ( 'NONE',  ( 8.605000000000002203, 1.609365052918086292, 3.122849337825749310E-17 ) ) ;
#790 = CARTESIAN_POINT ( 'NONE',  ( -8.860000000000001208, 1.609365052918086292, 0.000000000000000000 ) ) ;
#791 = SURFACE_SIDE_STYLE ('',( #688 ) ) ;
#792 = CIRCLE ( 'NONE', #208, 0.2549999999999999489 ) ;
#793 = ORIENTED_EDGE ( 'NONE', *, *, #412, .F. ) ;
#794 = CARTESIAN_POINT ( 'NONE',  ( -8.860000000000001208, 1.609365052918086292, 0.2549999999999999489 ) ) ;
#795 = FILL_AREA_STYLE_COLOUR ( '', #567 ) ;
#796 = EDGE_CURVE ( 'NONE', #358, #712, #99, .T. ) ;
#797 = DIRECTION ( 'NONE',  ( 1.000000000000000000, -0.000000000000000000, -0.000000000000000000 ) ) ;
#798 = ORIENTED_EDGE ( 'NONE', *, *, #49, .T. ) ;
#799 = CARTESIAN_POINT ( 'NONE',  ( 7.860000000000002096, 2.609365052918086292, 0.000000000000000000 ) ) ;
#800 = AXIS2_PLACEMENT_3D ( 'NONE', #1046, #1030, #867 ) ;
#801 = STYLED_ITEM ( 'NONE', ( #423 ), #87 ) ;
#802 = CARTESIAN_POINT ( 'NONE',  ( -1.804968851620623482, 4.218730105836172584, 1.970903760715744989E-16 ) ) ;
#803 = DIRECTION ( 'NONE',  ( -1.000000000000000000, -0.000000000000000000, -0.000000000000000000 ) ) ;
#804 = UNCERTAINTY_MEASURE_WITH_UNIT (LENGTH_MEASURE( 1.000000000000000082E-05 ), #462, 'distance_accuracy_value', 'NONE');
#805 = DIRECTION ( 'NONE',  ( 0.000000000000000000, -1.000000000000000000, 0.000000000000000000 ) ) ;
#806 = ORIENTED_EDGE ( 'NONE', *, *, #752, .T. ) ;
#807 = SURFACE_STYLE_FILL_AREA ( #258 ) ;
#808 =( NAMED_UNIT ( * ) PLANE_ANGLE_UNIT ( ) SI_UNIT ( $, .RADIAN. ) );
#809 = CARTESIAN_POINT ( 'NONE',  ( -1.804968851620622594, 2.609365052918086292, 0.000000000000000000 ) ) ;
#810 =( NAMED_UNIT ( * ) PLANE_ANGLE_UNIT ( ) SI_UNIT ( $, .RADIAN. ) );
#811 = COLOUR_RGB ( '',0.7529411764705882248, 0.7529411764705882248, 0.000000000000000000 ) ;
#812 = COLOUR_RGB ( '',0.8941176470588234615, 0.8941176470588234615, 0.8941176470588234615 ) ;
#813 = DIRECTION ( 'NONE',  ( 0.000000000000000000, 0.000000000000000000, 1.000000000000000000 ) ) ;
#814 = ORIENTED_EDGE ( 'NONE', *, *, #696, .T. ) ;
#815 = DIRECTION ( 'NONE',  ( 0.000000000000000000, -1.000000000000000000, 0.000000000000000000 ) ) ;
#816 = MECHANICAL_DESIGN_GEOMETRIC_PRESENTATION_REPRESENTATION (  '', ( #143 ), #320 ) ;
#817 = ORIENTED_EDGE ( 'NONE', *, *, #92, .F. ) ;
#818 = DIRECTION ( 'NONE',  ( 1.000000000000000000, -0.000000000000000000, -0.000000000000000000 ) ) ;
#819 = PRESENTATION_STYLE_ASSIGNMENT (( #723 ) ) ;
#820 = PRESENTATION_LAYER_ASSIGNMENT (  '', '', ( #643 ) ) ;
#821 = CIRCLE ( 'NONE', #405, 0.2550000000000000044 ) ;
#822 = DIRECTION ( 'NONE',  ( 0.000000000000000000, -1.000000000000000000, 0.000000000000000000 ) ) ;
#823 = ORIENTED_EDGE ( 'NONE', *, *, #563, .T. ) ;
#824 = TOROIDAL_SURFACE ( 'NONE', #471, 0.4550000000000005151, 0.2000000000000004829 ) ;
#825 = CARTESIAN_POINT ( 'NONE',  ( -1.804968851620623482, 2.609365052918086292, 1.609365052918086292 ) ) ;
#826 = CARTESIAN_POINT ( 'NONE',  ( -3.362617346942187613, 2.609365052918086292, -0.4047061138363221011 ) ) ;
#827 = DIRECTION ( 'NONE',  ( 0.000000000000000000, -1.000000000000000000, 0.000000000000000000 ) ) ;
#828 = DIRECTION ( 'NONE',  ( 0.000000000000000000, 0.000000000000000000, 1.000000000000000000 ) ) ;
#829 = EDGE_CURVE ( 'NONE', #1111, #484, #403, .T. ) ;
#830 = ORIENTED_EDGE ( 'NONE', *, *, #408, .T. ) ;
#831 = PRESENTATION_LAYER_ASSIGNMENT (  '', '', ( #413 ) ) ;
#832 = STYLED_ITEM ( 'NONE', ( #203 ), #541 ) ;
#833 = SURFACE_STYLE_FILL_AREA ( #569 ) ;
#834 = EDGE_CURVE ( 'NONE', #620, #131, #1066, .T. ) ;
#835 = UNCERTAINTY_MEASURE_WITH_UNIT (LENGTH_MEASURE( 1.000000000000000082E-05 ), #623, 'distance_accuracy_value', 'NONE');
#836 =( LENGTH_UNIT ( ) NAMED_UNIT ( * ) SI_UNIT ( .MILLI., .METRE. ) );
#837 = CIRCLE ( 'NONE', #68, 0.2549999999999999489 ) ;
#838 = DIRECTION ( 'NONE',  ( 0.000000000000000000, 0.000000000000000000, 1.000000000000000000 ) ) ;
#839 = ORIENTED_EDGE ( 'NONE', *, *, #127, .F. ) ;
#840 = AXIS2_PLACEMENT_3D ( 'NONE', #649, #51, #388 ) ;
#841 =( NAMED_UNIT ( * ) SI_UNIT ( $, .STERADIAN. ) SOLID_ANGLE_UNIT ( ) );
#842 = UNCERTAINTY_MEASURE_WITH_UNIT (LENGTH_MEASURE( 1.000000000000000082E-05 ), #899, 'distance_accuracy_value', 'NONE');
#843 = COLOUR_RGB ( '',0.7529411764705882248, 0.7529411764705882248, 0.000000000000000000 ) ;
#844 = AXIS2_PLACEMENT_3D ( 'NONE', #91, #707, #522 ) ;
#845 = ORIENTED_EDGE ( 'NONE', *, *, #543, .F. ) ;
#846 = DIRECTION ( 'NONE',  ( 0.000000000000000000, -1.000000000000000000, 0.000000000000000000 ) ) ;
#847 = CARTESIAN_POINT ( 'NONE',  ( -8.860000000000001208, 1.609365052918086292, 0.000000000000000000 ) ) ;
#848 =( LENGTH_UNIT ( ) NAMED_UNIT ( * ) SI_UNIT ( .MILLI., .METRE. ) );
#849 = EDGE_CURVE ( 'NONE', #98, #172, #196, .T. ) ;
#850 = ORIENTED_EDGE ( 'NONE', *, *, #880, .T. ) ;
#851 = CIRCLE ( 'NONE', #975, 0.4047061138363222121 ) ;
#852 = STYLED_ITEM ( 'NONE', ( #703 ), #1154 ) ;
#853 = ORIENTED_EDGE ( 'NONE', *, *, #849, .F. ) ;
#854 = DIRECTION ( 'NONE',  ( -1.000000000000000000, 0.000000000000000000, 0.000000000000000000 ) ) ;
#855 =( NAMED_UNIT ( * ) SI_UNIT ( $, .STERADIAN. ) SOLID_ANGLE_UNIT ( ) );
#856 = DIRECTION ( 'NONE',  ( -1.000000000000000000, 0.000000000000000000, 0.000000000000000000 ) ) ;
#857 = DIRECTION ( 'NONE',  ( 2.832769448823989808E-16, -1.000000000000000000, 0.000000000000000000 ) ) ;
#858 = AXIS2_PLACEMENT_3D ( 'NONE', #1076, #818, #173 ) ;
#859 = AXIS2_PLACEMENT_3D ( 'NONE', #144, #857, #52 ) ;
#860 = EDGE_LOOP ( 'NONE', ( #150, #936, #633, #256, #610, #1019 ) ) ;
#861 = DIRECTION ( 'NONE',  ( -0.000000000000000000, -0.000000000000000000, -1.000000000000000000 ) ) ;
#862 = DIRECTION ( 'NONE',  ( 0.000000000000000000, 0.000000000000000000, 1.000000000000000000 ) ) ;
#863 = EDGE_CURVE ( 'NONE', #620, #1028, #1114, .T. ) ;
#864 = LINE ( 'NONE', #430, #383 ) ;
#865 = DIRECTION ( 'NONE',  ( 2.832769448823989808E-16, -1.000000000000000000, 0.000000000000000000 ) ) ;
#866 = SURFACE_SIDE_STYLE ('',( #322 ) ) ;
#867 = DIRECTION ( 'NONE',  ( 0.000000000000000000, 0.000000000000000000, 1.000000000000000000 ) ) ;
#868 = COLOUR_RGB ( '',0.8980392156862745390, 0.9176470588235293713, 0.9294117647058823817 ) ;
#869 = FACE_OUTER_BOUND ( 'NONE', #344, .T. ) ;
#870 = CARTESIAN_POINT ( 'NONE',  ( -8.860000000000001208, -3.000000000000000000, 0.000000000000000000 ) ) ;
#871 = ORIENTED_EDGE ( 'NONE', *, *, #796, .T. ) ;
#872 = DIRECTION ( 'NONE',  ( -1.000000000000000000, 0.000000000000000000, 0.000000000000000000 ) ) ;
#873 = CIRCLE ( 'NONE', #422, 1.609365052918086292 ) ;
#874 = APPLICATION_CONTEXT ( 'automotive_design' ) ;
#875 = DIRECTION ( 'NONE',  ( 2.832769448823989808E-16, -1.000000000000000000, 0.000000000000000000 ) ) ;
#876 = SURFACE_STYLE_FILL_AREA ( #342 ) ;
#877 = COLOUR_RGB ( '',0.7529411764705882248, 0.7529411764705882248, 0.000000000000000000 ) ;
#878 = SURFACE_STYLE_USAGE ( .BOTH. , #59 ) ;
#879 = MECHANICAL_DESIGN_GEOMETRIC_PRESENTATION_REPRESENTATION (  '', ( #583 ), #935 ) ;
#880 = EDGE_CURVE ( 'NONE', #372, #591, #74, .T. ) ;
#881 =( NAMED_UNIT ( * ) PLANE_ANGLE_UNIT ( ) SI_UNIT ( $, .RADIAN. ) );
#882 = CARTESIAN_POINT ( 'NONE',  ( -7.860000000000002096, 2.864365052918086185, 0.000000000000000000 ) ) ;
#883 = ORIENTED_EDGE ( 'NONE', *, *, #863, .F. ) ;
#884 = CARTESIAN_POINT ( 'NONE',  ( 1.804968851620623482, 1.000000000000000000, 0.000000000000000000 ) ) ;
#885 = MECHANICAL_DESIGN_GEOMETRIC_PRESENTATION_REPRESENTATION (  '', ( #221 ), #314 ) ;
#886 = CARTESIAN_POINT ( 'NONE',  ( 3.362617346942188501, 2.204658939081763691, 0.000000000000000000 ) ) ;
#887 = UNCERTAINTY_MEASURE_WITH_UNIT (LENGTH_MEASURE( 1.000000000000000082E-05 ), #402, 'distance_accuracy_value', 'NONE');
#888 =( NAMED_UNIT ( * ) SI_UNIT ( $, .STERADIAN. ) SOLID_ANGLE_UNIT ( ) );
#889 = CIRCLE ( 'NONE', #1089, 0.2549999999999999489 ) ;
#890 = ORIENTED_EDGE ( 'NONE', *, *, #934, .T. ) ;
#891 = CARTESIAN_POINT ( 'NONE',  ( -7.860000000000002096, 1.609365052918086292, 0.000000000000000000 ) ) ;
#892 = TOROIDAL_SURFACE ( 'NONE', #1029, 1.000000000000000000, 0.2549999999999999489 ) ;
#893 = DIRECTION ( 'NONE',  ( -1.000000000000000000, -0.000000000000000000, -0.000000000000000000 ) ) ;
#894 = CARTESIAN_POINT ( 'NONE',  ( -8.860000000000001208, 1.609365052918086292, 0.000000000000000000 ) ) ;
#895 =( NAMED_UNIT ( * ) SI_UNIT ( $, .STERADIAN. ) SOLID_ANGLE_UNIT ( ) );
#896 = DIRECTION ( 'NONE',  ( -2.832769448823989808E-16, -1.000000000000000000, -0.000000000000000000 ) ) ;
#897 = ORIENTED_EDGE ( 'NONE', *, *, #543, .T. ) ;
#898 = CARTESIAN_POINT ( 'NONE',  ( -1.804968851620623482, 2.609365052918086292, -1.609365052918086292 ) ) ;
#899 =( LENGTH_UNIT ( ) NAMED_UNIT ( * ) SI_UNIT ( .MILLI., .METRE. ) );
#900 = ADVANCED_FACE ( 'NONE', ( #445 ), #612, .T. ) ;
#901 = CARTESIAN_POINT ( 'NONE',  ( -10.09675116564010722, 2.609365052918086292, 0.000000000000000000 ) ) ;
#902 = ORIENTED_EDGE ( 'NONE', *, *, #1024, .F. ) ;
#903 = SURFACE_STYLE_USAGE ( .BOTH. , #551 ) ;
#904 = PRESENTATION_STYLE_ASSIGNMENT (( #182 ) ) ;
#905 = ORIENTED_EDGE ( 'NONE', *, *, #834, .T. ) ;
#906 = DIRECTION ( 'NONE',  ( -1.000000000000000000, -0.000000000000000000, -0.000000000000000000 ) ) ;
#907 = STYLED_ITEM ( 'NONE', ( #624 ), #701 ) ;
#908 = AXIS2_PLACEMENT_3D ( 'NONE', #96, #5, #271 ) ;
#909 = DIRECTION ( 'NONE',  ( -1.000000000000000000, -0.000000000000000000, -0.000000000000000000 ) ) ;
#910 = CARTESIAN_POINT ( 'NONE',  ( 8.860000000000001208, 1.609365052918086292, 0.000000000000000000 ) ) ;
#911 = FACE_OUTER_BOUND ( 'NONE', #1122, .T. ) ;
#912 = ORIENTED_EDGE ( 'NONE', *, *, #493, .F. ) ;
#913 = CIRCLE ( 'NONE', #964, 0.2000000000000004829 ) ;
#914 = EDGE_CURVE ( 'NONE', #704, #1111, #149, .T. ) ;
#915 = PRODUCT_RELATED_PRODUCT_CATEGORY ( 'part', '', ( #706 ) ) ;
#916 = ORIENTED_EDGE ( 'NONE', *, *, #108, .T. ) ;
#917 = ADVANCED_FACE ( 'NONE', ( #231 ), #343, .T. ) ;
#918 =( NAMED_UNIT ( * ) SI_UNIT ( $, .STERADIAN. ) SOLID_ANGLE_UNIT ( ) );
#919 = CARTESIAN_POINT ( 'NONE',  ( -3.362617346942187613, 2.609365052918086292, 0.000000000000000000 ) ) ;
#920 = CYLINDRICAL_SURFACE ( 'NONE', #1023, 0.2549999999999999489 ) ;
#921 = TOROIDAL_SURFACE ( 'NONE', #1139, 1.000000000000000000, 0.2549999999999999489 ) ;
#922 = ORIENTED_EDGE ( 'NONE', *, *, #680, .T. ) ;
#923 = PRESENTATION_LAYER_ASSIGNMENT (  '', '', ( #378 ) ) ;
#924 = LINE ( 'NONE', #641, #1133 ) ;
#925 = AXIS2_PLACEMENT_3D ( 'NONE', #1053, #193, #827 ) ;
#926 = CIRCLE ( 'NONE', #88, 1.609365052918086070 ) ;
#927 =( NAMED_UNIT ( * ) SI_UNIT ( $, .STERADIAN. ) SOLID_ANGLE_UNIT ( ) );
#928 = ORIENTED_EDGE ( 'NONE', *, *, #379, .F. ) ;
#929 = PRESENTATION_STYLE_ASSIGNMENT (( #1100 ) ) ;
#930 =( NAMED_UNIT ( * ) PLANE_ANGLE_UNIT ( ) SI_UNIT ( $, .RADIAN. ) );
#931 = COLOUR_RGB ( '',0.8980392156862745390, 0.9176470588235293713, 0.9294117647058823817 ) ;
#932 = UNCERTAINTY_MEASURE_WITH_UNIT (LENGTH_MEASURE( 1.000000000000000082E-05 ), #164, 'distance_accuracy_value', 'NONE');
#933 = COLOUR_RGB ( '',0.7529411764705882248, 0.7529411764705882248, 0.000000000000000000 ) ;
#934 = EDGE_CURVE ( 'NONE', #450, #222, #490, .T. ) ;
#935 =( GEOMETRIC_REPRESENTATION_CONTEXT ( 3 ) GLOBAL_UNCERTAINTY_ASSIGNED_CONTEXT ( ( #489 ) ) GLOBAL_UNIT_ASSIGNED_CONTEXT ( ( #618, #437, #1040 ) ) REPRESENTATION_CONTEXT ( 'NONE', 'WORKASPACE' ) );
#936 = ORIENTED_EDGE ( 'NONE', *, *, #635, .T. ) ;
#937 = SURFACE_SIDE_STYLE ('',( #1113 ) ) ;
#938 = CARTESIAN_POINT ( 'NONE',  ( 3.556190395207061261, 2.609365052918086292, 0.2549999999999999489 ) ) ;
#939 = VERTEX_POINT ( 'NONE', #786 ) ;
#940 = CARTESIAN_POINT ( 'NONE',  ( -7.860000000000002096, 2.609365052918086292, 0.000000000000000000 ) ) ;
#941 =( NAMED_UNIT ( * ) PLANE_ANGLE_UNIT ( ) SI_UNIT ( $, .RADIAN. ) );
#942 = AXIS2_PLACEMENT_3D ( 'NONE', #536, #646, #243 ) ;
#943 = PRESENTATION_STYLE_ASSIGNMENT (( #473 ) ) ;
#944 = EDGE_LOOP ( 'NONE', ( #1087, #526, #627, #1149, #233 ) ) ;
#945 =( NAMED_UNIT ( * ) PLANE_ANGLE_UNIT ( ) SI_UNIT ( $, .RADIAN. ) );
#946 =( NAMED_UNIT ( * ) PLANE_ANGLE_UNIT ( ) SI_UNIT ( $, .RADIAN. ) );
#947 = EDGE_CURVE ( 'NONE', #519, #414, #270, .T. ) ;
#948 = PRESENTATION_LAYER_ASSIGNMENT (  '', '', ( #611 ) ) ;
#949 = VERTEX_POINT ( 'NONE', #1034 ) ;
#950 = FILL_AREA_STYLE_COLOUR ( '', #11 ) ;
#951 = SURFACE_STYLE_USAGE ( .BOTH. , #961 ) ;
#952 = COLOUR_RGB ( '',0.8980392156862745390, 0.9176470588235293713, 0.9294117647058823817 ) ;
#953 = CARTESIAN_POINT ( 'NONE',  ( 3.556190395207061261, 2.609365052918086292, -0.2549999999999999489 ) ) ;
#954 = EDGE_LOOP ( 'NONE', ( #998, #741, #294, #721, #253, #244 ) ) ;
#955 = DIRECTION ( 'NONE',  ( 1.000000000000000000, 0.000000000000000000, 0.000000000000000000 ) ) ;
#956 = AXIS2_PLACEMENT_3D ( 'NONE', #102, #277, #364 ) ;
#957 = SURFACE_STYLE_FILL_AREA ( #748 ) ;
#958 = AXIS2_PLACEMENT_3D ( 'NONE', #255, #896, #453 ) ;
#959 = ORIENTED_EDGE ( 'NONE', *, *, #1083, .F. ) ;
#960 = CARTESIAN_POINT ( 'NONE',  ( 8.860000000000001208, -3.000000000000000000, 0.2549999999999999489 ) ) ;
#961 = SURFACE_SIDE_STYLE ('',( #70 ) ) ;
#962 = CARTESIAN_POINT ( 'NONE',  ( -3.556190395207061261, 2.609365052918086292, 0.000000000000000000 ) ) ;
#963 = ADVANCED_FACE ( 'NONE', ( #425 ), #238, .T. ) ;
#964 = AXIS2_PLACEMENT_3D ( 'NONE', #461, #815, #634 ) ;
#965 = CARTESIAN_POINT ( 'NONE',  ( 8.860000000000001208, 1.609365052918086292, 0.2549999999999999489 ) ) ;
#966 = TOROIDAL_SURFACE ( 'NONE', #232, 1.000000000000000000, 0.2549999999999999489 ) ;
#967 = ORIENTED_EDGE ( 'NONE', *, *, #360, .F. ) ;
#968 = PRESENTATION_LAYER_ASSIGNMENT (  '', '', ( #583 ) ) ;
#969 = DIRECTION ( 'NONE',  ( 0.000000000000000000, 0.000000000000000000, 1.000000000000000000 ) ) ;
#970 = DIRECTION ( 'NONE',  ( 0.000000000000000000, 0.000000000000000000, -1.000000000000000000 ) ) ;
#971 = EDGE_LOOP ( 'NONE', ( #582, #616, #1013, #564, #219 ) ) ;
#972 = SURFACE_STYLE_FILL_AREA ( #1151 ) ;
#973 = AXIS2_PLACEMENT_3D ( 'NONE', #1047, #893, #1042 ) ;
#974 = UNCERTAINTY_MEASURE_WITH_UNIT (LENGTH_MEASURE( 1.000000000000000082E-05 ), #25, 'distance_accuracy_value', 'NONE');
#975 = AXIS2_PLACEMENT_3D ( 'NONE', #319, #1130, #772 ) ;
#976 = DIRECTION ( 'NONE',  ( -1.000000000000000000, -0.000000000000000000, -0.000000000000000000 ) ) ;
#977 = COLOUR_RGB ( '',0.8980392156862745390, 0.9176470588235293713, 0.9294117647058823817 ) ;
#978 = ORIENTED_EDGE ( 'NONE', *, *, #849, .T. ) ;
#979 = DIRECTION ( 'NONE',  ( 0.000000000000000000, 0.000000000000000000, -1.000000000000000000 ) ) ;
#980 = EDGE_CURVE ( 'NONE', #949, #754, #281, .T. ) ;
#981 = FILL_AREA_STYLE_COLOUR ( '', #977 ) ;
#982 = ORIENTED_EDGE ( 'NONE', *, *, #863, .T. ) ;
#983 = CARTESIAN_POINT ( 'NONE',  ( -3.362617346942187613, 2.609365052918086292, 0.000000000000000000 ) ) ;
#984 = SPHERICAL_SURFACE ( 'NONE', #38, 1.609365052918086070 ) ;
#985 = SURFACE_STYLE_FILL_AREA ( #630 ) ;
#986 = SURFACE_STYLE_USAGE ( .BOTH. , #286 ) ;
#987 = SURFACE_STYLE_USAGE ( .BOTH. , #261 ) ;
#988 = ORIENTED_EDGE ( 'NONE', *, *, #663, .T. ) ;
#989 = CARTESIAN_POINT ( 'NONE',  ( -3.556190395207061261, 2.609365052918086292, 0.000000000000000000 ) ) ;
#990 = DIRECTION ( 'NONE',  ( 2.832769448823989808E-16, -1.000000000000000000, 0.000000000000000000 ) ) ;
#991 = AXIS2_PLACEMENT_3D ( 'NONE', #441, #803, #1152 ) ;
#992 = VERTEX_POINT ( 'NONE', #226 ) ;
#993 = EDGE_CURVE ( 'NONE', #332, #414, #889, .T. ) ;
#994 = MECHANICAL_DESIGN_GEOMETRIC_PRESENTATION_REPRESENTATION (  '', ( #63 ), #622 ) ;
#995 = DIRECTION ( 'NONE',  ( 1.000000000000000000, 0.000000000000000000, 0.000000000000000000 ) ) ;
#996 = CARTESIAN_POINT ( 'NONE',  ( -1.804968851620623482, 2.609365052918086292, 0.000000000000000000 ) ) ;
#997 = EDGE_CURVE ( 'NONE', #1128, #992, #670, .T. ) ;
#998 = ORIENTED_EDGE ( 'NONE', *, *, #590, .T. ) ;
#999 = SURFACE_STYLE_FILL_AREA ( #387 ) ;
#1000 = MECHANICAL_DESIGN_GEOMETRIC_PRESENTATION_REPRESENTATION (  '', ( #643 ), #466 ) ;
#1001 = PRESENTATION_LAYER_ASSIGNMENT (  '', '', ( #349 ) ) ;
#1002 = DIRECTION ( 'NONE',  ( -1.000000000000000000, -0.000000000000000000, -0.000000000000000000 ) ) ;
#1003 = ORIENTED_EDGE ( 'NONE', *, *, #1135, .F. ) ;
#1004 =( NAMED_UNIT ( * ) PLANE_ANGLE_UNIT ( ) SI_UNIT ( $, .RADIAN. ) );
#1005 = DIRECTION ( 'NONE',  ( 0.000000000000000000, 0.000000000000000000, 1.000000000000000000 ) ) ;
#1006 = UNCERTAINTY_MEASURE_WITH_UNIT (LENGTH_MEASURE( 1.000000000000000082E-05 ), #279, 'distance_accuracy_value', 'NONE');
#1007 = PRESENTATION_LAYER_ASSIGNMENT (  '', '', ( #571 ) ) ;
#1008 = ORIENTED_EDGE ( 'NONE', *, *, #589, .T. ) ;
#1009 = AXIS2_PLACEMENT_3D ( 'NONE', #910, #105, #979 ) ;
#1010 = EDGE_CURVE ( 'NONE', #712, #377, #398, .T. ) ;
#1011 = FILL_AREA_STYLE ('',( #399 ) ) ;
#1012 = DIRECTION ( 'NONE',  ( 1.000000000000000000, 0.000000000000000000, 0.000000000000000000 ) ) ;
#1013 = ORIENTED_EDGE ( 'NONE', *, *, #601, .T. ) ;
#1014 = LINE ( 'NONE', #652, #41 ) ;
#1015 =( NAMED_UNIT ( * ) SI_UNIT ( $, .STERADIAN. ) SOLID_ANGLE_UNIT ( ) );
#1016 = AXIS2_PLACEMENT_3D ( 'NONE', #20, #265, #1150 ) ;
#1017 = COLOUR_RGB ( '',0.8980392156862745390, 0.9176470588235293713, 0.9294117647058823817 ) ;
#1018 = TOROIDAL_SURFACE ( 'NONE', #725, 0.4550000000000005151, 0.2000000000000004829 ) ;
#1019 = ORIENTED_EDGE ( 'NONE', *, *, #284, .F. ) ;
#1020 = CARTESIAN_POINT ( 'NONE',  ( -1.804968851620622594, 2.609365052918086292, 0.000000000000000000 ) ) ;
#1021 = DIRECTION ( 'NONE',  ( 1.000000000000000000, 0.000000000000000000, 0.000000000000000000 ) ) ;
#1022 = ORIENTED_EDGE ( 'NONE', *, *, #947, .F. ) ;
#1023 = AXIS2_PLACEMENT_3D ( 'NONE', #321, #229, #152 ) ;
#1024 = EDGE_CURVE ( 'NONE', #1028, #939, #749, .T. ) ;
#1025 = DIRECTION ( 'NONE',  ( 0.000000000000000000, 0.000000000000000000, 1.000000000000000000 ) ) ;
#1026 = MECHANICAL_DESIGN_GEOMETRIC_PRESENTATION_REPRESENTATION (  '', ( #852 ), #1126 ) ;
#1027 = ADVANCED_FACE ( 'NONE', ( #410 ), #715, .T. ) ;
#1028 = VERTEX_POINT ( 'NONE', #1129 ) ;
#1029 = AXIS2_PLACEMENT_3D ( 'NONE', #758, #738, #129 ) ;
#1030 = DIRECTION ( 'NONE',  ( -1.000000000000000000, -0.000000000000000000, -0.000000000000000000 ) ) ;
#1031 = CIRCLE ( 'NONE', #116, 0.7449999999999999956 ) ;
#1032 = DIRECTION ( 'NONE',  ( 0.000000000000000000, 0.000000000000000000, -1.000000000000000000 ) ) ;
#1033 = FILL_AREA_STYLE_COLOUR ( '', #868 ) ;
#1034 = CARTESIAN_POINT ( 'NONE',  ( -9.115000000000001990, 1.609365052918086292, 0.000000000000000000 ) ) ;
#1035 = PRESENTATION_STYLE_ASSIGNMENT (( #138 ) ) ;
#1036 = DIRECTION ( 'NONE',  ( 0.000000000000000000, 0.000000000000000000, -1.000000000000000000 ) ) ;
#1037 =( NAMED_UNIT ( * ) SI_UNIT ( $, .STERADIAN. ) SOLID_ANGLE_UNIT ( ) );
#1038 = VERTEX_POINT ( 'NONE', #960 ) ;
#1039 =( GEOMETRIC_REPRESENTATION_CONTEXT ( 3 ) GLOBAL_UNCERTAINTY_ASSIGNED_CONTEXT ( ( #130 ) ) GLOBAL_UNIT_ASSIGNED_CONTEXT ( ( #472, #374, #280 ) ) REPRESENTATION_CONTEXT ( 'NONE', 'WORKASPACE' ) );
#1040 =( NAMED_UNIT ( * ) SI_UNIT ( $, .STERADIAN. ) SOLID_ANGLE_UNIT ( ) );
#1041 = EDGE_CURVE ( 'NONE', #352, #484, #926, .T. ) ;
#1042 = DIRECTION ( 'NONE',  ( 0.000000000000000000, 0.000000000000000000, 1.000000000000000000 ) ) ;
#1043 = AXIS2_PLACEMENT_3D ( 'NONE', #517, #146, #220 ) ;
#1044 = AXIS2_PLACEMENT_3D ( 'NONE', #847, #393, #216 ) ;
#1045 = ORIENTED_EDGE ( 'NONE', *, *, #66, .T. ) ;
#1046 = CARTESIAN_POINT ( 'NONE',  ( -3.362617346942187613, 2.609365052918086292, 0.000000000000000000 ) ) ;
#1047 = CARTESIAN_POINT ( 'NONE',  ( 1.804968851620623482, 2.609365052918086292, 0.000000000000000000 ) ) ;
#1048 = TOROIDAL_SURFACE ( 'NONE', #566, 0.4550000000000005151, 0.2000000000000004829 ) ;
#1049 = PRESENTATION_LAYER_ASSIGNMENT (  '', '', ( #753 ) ) ;
#1050 = DIRECTION ( 'NONE',  ( 1.000000000000000000, -0.000000000000000000, -0.000000000000000000 ) ) ;
#1051 =( NAMED_UNIT ( * ) PLANE_ANGLE_UNIT ( ) SI_UNIT ( $, .RADIAN. ) );
#1052 = PRESENTATION_STYLE_ASSIGNMENT (( #101 ) ) ;
#1053 = CARTESIAN_POINT ( 'NONE',  ( 1.804968851620622594, 2.609365052918086292, 0.000000000000000000 ) ) ;
#1054 = DIRECTION ( 'NONE',  ( -1.000000000000000000, -0.000000000000000000, -0.000000000000000000 ) ) ;
#1055 = PLANE ( 'NONE',  #958 ) ;
#1056 = ORIENTED_EDGE ( 'NONE', *, *, #391, .F. ) ;
#1057 = EDGE_CURVE ( 'NONE', #1038, #669, #792, .T. ) ;
#1058 = DIRECTION ( 'NONE',  ( 2.832769448823989808E-16, -1.000000000000000000, 0.000000000000000000 ) ) ;
#1059 = FILL_AREA_STYLE ('',( #547 ) ) ;
#1060 = FILL_AREA_STYLE ('',( #4 ) ) ;
#1061 = AXIS2_PLACEMENT_3D ( 'NONE', #331, #428, #781 ) ;
#1062 = AXIS2_PLACEMENT_3D ( 'NONE', #737, #733, #40 ) ;
#1063 = LINE ( 'NONE', #965, #562 ) ;
#1064 = AXIS2_PLACEMENT_3D ( 'NONE', #901, #976, #77 ) ;
#1065 = EDGE_LOOP ( 'NONE', ( #503, #235, #853, #916, #162, #785 ) ) ;
#1066 = LINE ( 'NONE', #368, #698 ) ;
#1067 =( GEOMETRIC_REPRESENTATION_CONTEXT ( 3 ) GLOBAL_UNCERTAINTY_ASSIGNED_CONTEXT ( ( #169 ) ) GLOBAL_UNIT_ASSIGNED_CONTEXT ( ( #743, #481, #491 ) ) REPRESENTATION_CONTEXT ( 'NONE', 'WORKASPACE' ) );
#1068 = FILL_AREA_STYLE_COLOUR ( '', #877 ) ;
#1069 = SURFACE_STYLE_USAGE ( .BOTH. , #1142 ) ;
#1070 = VECTOR ( 'NONE', #495, 1000.000000000000000 ) ;
#1071 = CLOSED_SHELL ( 'NONE', ( #341, #1027, #201, #647, #963, #506, #273, #736, #701, #303, #463, #266, #1080, #900, #137, #153, #617, #87, #433, #122, #917, #287, #1154, #1101 ) ) ;
#1072 = CARTESIAN_POINT ( 'NONE',  ( -8.860000000000001208, 1.609365052918086292, 0.2549999999999999489 ) ) ;
#1073 = COLOUR_RGB ( '',0.8980392156862745390, 0.9176470588235293713, 0.9294117647058823817 ) ;
#1074 = ORIENTED_EDGE ( 'NONE', *, *, #1135, .T. ) ;
#1075 = TOROIDAL_SURFACE ( 'NONE', #426, 0.4550000000000005151, 0.2000000000000004829 ) ;
#1076 = CARTESIAN_POINT ( 'NONE',  ( -7.860000000000002096, 2.609365052918086292, 0.000000000000000000 ) ) ;
#1077 = MECHANICAL_DESIGN_GEOMETRIC_PRESENTATION_REPRESENTATION (  '', ( #272 ), #531 ) ;
#1078 = FILL_AREA_STYLE_COLOUR ( '', #597 ) ;
#1079 = ORIENTED_EDGE ( 'NONE', *, *, #46, .F. ) ;
#1080 = ADVANCED_FACE ( 'NONE', ( #684 ), #161, .T. ) ;
#1081 = DIRECTION ( 'NONE',  ( 1.000000000000000000, 0.000000000000000000, 0.000000000000000000 ) ) ;
#1082 = CARTESIAN_POINT ( 'NONE',  ( -3.362617346942187613, 2.204658939081764135, 0.000000000000000000 ) ) ;
#1083 = EDGE_CURVE ( 'NONE', #103, #1038, #1063, .T. ) ;
#1084 =( LENGTH_UNIT ( ) NAMED_UNIT ( * ) SI_UNIT ( .MILLI., .METRE. ) );
#1085 = CIRCLE ( 'NONE', #27, 0.2550000000000000044 ) ;
#1086 =( LENGTH_UNIT ( ) NAMED_UNIT ( * ) SI_UNIT ( .MILLI., .METRE. ) );
#1087 = ORIENTED_EDGE ( 'NONE', *, *, #183, .T. ) ;
#1088 =( NAMED_UNIT ( * ) PLANE_ANGLE_UNIT ( ) SI_UNIT ( $, .RADIAN. ) );
#1089 = AXIS2_PLACEMENT_3D ( 'NONE', #1112, #751, #1032 ) ;
#1090 = FILL_AREA_STYLE_COLOUR ( '', #134 ) ;
#1091 = CARTESIAN_POINT ( 'NONE',  ( 7.860000000000002096, 2.609365052918086292, 0.2549999999999999489 ) ) ;
#1092 = SURFACE_STYLE_FILL_AREA ( #194 ) ;
#1093 = APPLICATION_PROTOCOL_DEFINITION ( 'draft international standard', 'automotive_design', 1998, #681 ) ;
#1094 = ORIENTED_EDGE ( 'NONE', *, *, #1041, .T. ) ;
#1095 = CARTESIAN_POINT ( 'NONE',  ( 3.556190395207061261, 2.609365052918086292, 0.000000000000000000 ) ) ;
#1096 = DIRECTION ( 'NONE',  ( 0.000000000000000000, 0.000000000000000000, -1.000000000000000000 ) ) ;
#1097 = CARTESIAN_POINT ( 'NONE',  ( -8.860000000000001208, 1.609365052918086292, -0.2549999999999999489 ) ) ;
#1098 =( NAMED_UNIT ( * ) PLANE_ANGLE_UNIT ( ) SI_UNIT ( $, .RADIAN. ) );
#1099 = ORIENTED_EDGE ( 'NONE', *, *, #336, .F. ) ;
#1100 = SURFACE_STYLE_USAGE ( .BOTH. , #34 ) ;
#1101 = ADVANCED_FACE ( 'NONE', ( #357 ), #1055, .T. ) ;
#1102 =( LENGTH_UNIT ( ) NAMED_UNIT ( * ) SI_UNIT ( .MILLI., .METRE. ) );
#1103 = UNCERTAINTY_MEASURE_WITH_UNIT (LENGTH_MEASURE( 1.000000000000000082E-05 ), #151, 'distance_accuracy_value', 'NONE');
#1104 = EDGE_CURVE ( 'NONE', #754, #377, #252, .T. ) ;
#1105 = AXIS2_PLACEMENT_3D ( 'NONE', #355, #822, #94 ) ;
#1106 = EDGE_LOOP ( 'NONE', ( #492, #468, #397, #806, #333, #1099 ) ) ;
#1107 = PRESENTATION_LAYER_ASSIGNMENT (  '', '', ( #832 ) ) ;
#1108 = AXIS2_PLACEMENT_3D ( 'NONE', #549, #171, #813 ) ;
#1109 = UNCERTAINTY_MEASURE_WITH_UNIT (LENGTH_MEASURE( 1.000000000000000082E-05 ), #848, 'distance_accuracy_value', 'NONE');
#1110 = CIRCLE ( 'NONE', #29, 0.2549999999999999489 ) ;
#1111 = VERTEX_POINT ( 'NONE', #351 ) ;
#1112 = CARTESIAN_POINT ( 'NONE',  ( 8.860000000000001208, 1.609365052918086292, 0.000000000000000000 ) ) ;
#1113 = SURFACE_STYLE_FILL_AREA ( #1011 ) ;
#1114 = CIRCLE ( 'NONE', #288, 0.2549999999999999489 ) ;
#1115 = COLOUR_RGB ( '',0.8980392156862745390, 0.9176470588235293713, 0.9294117647058823817 ) ;
#1116 = EDGE_CURVE ( 'NONE', #311, #645, #191, .T. ) ;
#1117 = ORIENTED_EDGE ( 'NONE', *, *, #796, .F. ) ;
#1118 = DIRECTION ( 'NONE',  ( 2.832769448823989808E-16, 1.000000000000000000, -0.000000000000000000 ) ) ;
#1119 = FACE_OUTER_BOUND ( 'NONE', #192, .T. ) ;
#1120 = CARTESIAN_POINT ( 'NONE',  ( -1.804968851620622594, 2.609365052918086292, 0.000000000000000000 ) ) ;
#1121 = CARTESIAN_POINT ( 'NONE',  ( -7.860000000000002096, 1.609365052918086292, -3.122849337825749926E-17 ) ) ;
#1122 = EDGE_LOOP ( 'NONE', ( #830, #19, #339, #136, #912, #197 ) ) ;
#1123 = PRESENTATION_LAYER_ASSIGNMENT (  '', '', ( #221 ) ) ;
#1124 = CARTESIAN_POINT ( 'NONE',  ( 1.804968851620623482, 2.609365052918086292, 1.609365052918086292 ) ) ;
#1125 = PLANE ( 'NONE',  #859 ) ;
#1126 =( GEOMETRIC_REPRESENTATION_CONTEXT ( 3 ) GLOBAL_UNCERTAINTY_ASSIGNED_CONTEXT ( ( #625 ) ) GLOBAL_UNIT_ASSIGNED_CONTEXT ( ( #632, #440, #888 ) ) REPRESENTATION_CONTEXT ( 'NONE', 'WORKASPACE' ) );
#1127 = CIRCLE ( 'NONE', #661, 0.2549999999999999489 ) ;
#1128 = VERTEX_POINT ( 'NONE', #882 ) ;
#1129 = CARTESIAN_POINT ( 'NONE',  ( 7.860000000000002096, 2.354365052918086398, 3.122849337825749310E-17 ) ) ;
#1130 = DIRECTION ( 'NONE',  ( -1.000000000000000000, -0.000000000000000000, -0.000000000000000000 ) ) ;
#1131 = AXIS2_PLACEMENT_3D ( 'NONE', #790, #170, #350 ) ;
#1132 = STYLED_ITEM ( 'NONE', ( #1035 ), #122 ) ;
#1133 = VECTOR ( 'NONE', #26, 1000.000000000000000 ) ;
#1134 = CARTESIAN_POINT ( 'NONE',  ( -8.605000000000002203, 1.609365052918086292, -3.122849337825749310E-17 ) ) ;
#1135 = EDGE_CURVE ( 'NONE', #54, #637, #734, .T. ) ;
#1136 = ORIENTED_EDGE ( 'NONE', *, *, #391, .T. ) ;
#1137 = CARTESIAN_POINT ( 'NONE',  ( 8.860000000000001208, 1.609365052918086292, -0.2549999999999999489 ) ) ;
#1138 = PRESENTATION_STYLE_ASSIGNMENT (( #431 ) ) ;
#1139 = AXIS2_PLACEMENT_3D ( 'NONE', #588, #417, #757 ) ;
#1140 = ORIENTED_EDGE ( 'NONE', *, *, #771, .F. ) ;
#1141 = COLOUR_RGB ( '',0.8980392156862745390, 0.9176470588235293713, 0.9294117647058823817 ) ;
#1142 = SURFACE_SIDE_STYLE ('',( #972 ) ) ;
#1143 = CARTESIAN_POINT ( 'NONE',  ( -1.804968851620623482, 2.609365052918086292, 0.000000000000000000 ) ) ;
#1144 = CYLINDRICAL_SURFACE ( 'NONE', #121, 0.2549999999999999489 ) ;
#1145 = CIRCLE ( 'NONE', #259, 0.2549999999999999489 ) ;
#1146 = PRESENTATION_LAYER_ASSIGNMENT (  '', '', ( #245 ) ) ;
#1147 = FILL_AREA_STYLE_COLOUR ( '', #1073 ) ;
#1148 = SURFACE_STYLE_USAGE ( .BOTH. , #791 ) ;
#1149 = ORIENTED_EDGE ( 'NONE', *, *, #205, .T. ) ;
#1150 = DIRECTION ( 'NONE',  ( 0.000000000000000000, 0.000000000000000000, 1.000000000000000000 ) ) ;
#1151 = FILL_AREA_STYLE ('',( #795 ) ) ;
#1152 = DIRECTION ( 'NONE',  ( 0.000000000000000000, 0.000000000000000000, 1.000000000000000000 ) ) ;
#1153 = AXIS2_PLACEMENT_3D ( 'NONE', #167, #862, #768 ) ;
#1154 = ADVANCED_FACE ( 'NONE', ( #82 ), #443, .T. ) ;
#1155 = DIRECTION ( 'NONE',  ( 0.000000000000000000, 0.000000000000000000, -1.000000000000000000 ) ) ;
#1156 = CIRCLE ( 'NONE', #215, 1.609365052918086292 ) ;
#1157 = EDGE_LOOP ( 'NONE', ( #157, #850, #424, #283, #839, #1003 ) ) ;
ENDSEC;
END-ISO-10303-21;
