ISO-10303-21;
HEADER;
FILE_DESCRIPTION (( 'STEP AP214' ),
    '1' );
FILE_NAME ('Capacitor Ceramic No Polarity axial 20.32.STEP',
    '2026-02-18T23:22:49',
    ( '' ),
    ( '' ),
    'SwSTEP 2.0',
    'SolidWorks 2026',
    '' );
FILE_SCHEMA (( 'AUTOMOTIVE_DESIGN' ));
ENDSEC;

DATA;
#1 = EDGE_CURVE ( 'NONE', #381, #861, #808, .T. ) ;
#2 = ORIENTED_EDGE ( 'NONE', *, *, #668, .F. ) ;
#3 = AXIS2_PLACEMENT_3D ( 'NONE', #219, #892, #556 ) ;
#4 = AXIS2_PLACEMENT_3D ( 'NONE', #697, #1067, #713 ) ;
#5 =( GEOMETRIC_REPRESENTATION_CONTEXT ( 3 ) GLOBAL_UNCERTAINTY_ASSIGNED_CONTEXT ( ( #830 ) ) GLOBAL_UNIT_ASSIGNED_CONTEXT ( ( #10, #282, #980 ) ) REPRESENTATION_CONTEXT ( 'NONE', 'WORKASPACE' ) );
#6 = CIRCLE ( 'NONE', #208, 1.609365052918086292 ) ;
#7 = STYLED_ITEM ( 'NONE', ( #1008 ), #432 ) ;
#8 = AXIS2_PLACEMENT_3D ( 'NONE', #279, #983, #1053 ) ;
#9 = ORIENTED_EDGE ( 'NONE', *, *, #175, .T. ) ;
#10 =( LENGTH_UNIT ( ) NAMED_UNIT ( * ) SI_UNIT ( .MILLI., .METRE. ) );
#11 = DIRECTION ( 'NONE',  ( 0.000000000000000000, 0.000000000000000000, 1.000000000000000000 ) ) ;
#12 = VERTEX_POINT ( 'NONE', #914 ) ;
#13 = UNCERTAINTY_MEASURE_WITH_UNIT (LENGTH_MEASURE( 1.000000000000000082E-05 ), #769, 'distance_accuracy_value', 'NONE');
#14 = DIRECTION ( 'NONE',  ( -3.763476001707854080E-16, -1.000000000000000000, 0.000000000000000000 ) ) ;
#15 = SURFACE_STYLE_FILL_AREA ( #450 ) ;
#16 = SURFACE_STYLE_FILL_AREA ( #200 ) ;
#17 = ORIENTED_EDGE ( 'NONE', *, *, #957, .T. ) ;
#18 = DIRECTION ( 'NONE',  ( -1.000000000000000000, -0.000000000000000000, -0.000000000000000000 ) ) ;
#19 = CARTESIAN_POINT ( 'NONE',  ( -9.160000000000001918, 2.609365052918086292, 0.2549999999999999489 ) ) ;
#20 = SURFACE_SIDE_STYLE ('',( #120 ) ) ;
#21 = DIRECTION ( 'NONE',  ( -1.000000000000000000, -0.000000000000000000, -0.000000000000000000 ) ) ;
#22 = CARTESIAN_POINT ( 'NONE',  ( -3.556190395207061261, 2.609365052918086292, -0.2550000000000000044 ) ) ;
#23 = DIRECTION ( 'NONE',  ( -1.000000000000000000, 0.000000000000000000, 0.000000000000000000 ) ) ;
#24 = CIRCLE ( 'NONE', #625, 0.4047061138363222121 ) ;
#25 = UNCERTAINTY_MEASURE_WITH_UNIT (LENGTH_MEASURE( 1.000000000000000082E-05 ), #126, 'distance_accuracy_value', 'NONE');
#26 = AXIS2_PLACEMENT_3D ( 'NONE', #688, #96, #367 ) ;
#27 = PRESENTATION_LAYER_ASSIGNMENT (  '', '', ( #487 ) ) ;
#28 = AXIS2_PLACEMENT_3D ( 'NONE', #567, #575, #169 ) ;
#29 = FILL_AREA_STYLE_COLOUR ( '', #739 ) ;
#30 = EDGE_CURVE ( 'NONE', #274, #669, #754, .T. ) ;
#31 =( GEOMETRIC_REPRESENTATION_CONTEXT ( 3 ) GLOBAL_UNCERTAINTY_ASSIGNED_CONTEXT ( ( #858 ) ) GLOBAL_UNIT_ASSIGNED_CONTEXT ( ( #551, #720, #220 ) ) REPRESENTATION_CONTEXT ( 'NONE', 'WORKASPACE' ) );
#32 = CARTESIAN_POINT ( 'NONE',  ( 10.41500000000000092, 1.609365052918086292, 0.000000000000000000 ) ) ;
#33 = FILL_AREA_STYLE_COLOUR ( '', #662 ) ;
#34 = EDGE_LOOP ( 'NONE', ( #770, #1038, #513, #62, #690, #1007 ) ) ;
#35 = DIRECTION ( 'NONE',  ( 1.000000000000000000, -0.000000000000000000, -0.000000000000000000 ) ) ;
#36 =( LENGTH_UNIT ( ) NAMED_UNIT ( * ) SI_UNIT ( .MILLI., .METRE. ) );
#37 = DIRECTION ( 'NONE',  ( -0.000000000000000000, -0.000000000000000000, -1.000000000000000000 ) ) ;
#38 = CARTESIAN_POINT ( 'NONE',  ( 10.16000000000000014, 1.609365052918086292, 0.000000000000000000 ) ) ;
#39 = FILL_AREA_STYLE ('',( #1052 ) ) ;
#40 = DIRECTION ( 'NONE',  ( 0.000000000000000000, 0.000000000000000000, -1.000000000000000000 ) ) ;
#41 = EDGE_CURVE ( 'NONE', #880, #274, #410, .T. ) ;
#42 =( LENGTH_UNIT ( ) NAMED_UNIT ( * ) SI_UNIT ( .MILLI., .METRE. ) );
#43 = FILL_AREA_STYLE_COLOUR ( '', #184 ) ;
#44 = ORIENTED_EDGE ( 'NONE', *, *, #30, .T. ) ;
#45 = DIRECTION ( 'NONE',  ( 0.000000000000000000, 0.000000000000000000, 1.000000000000000000 ) ) ;
#46 = APPLICATION_PROTOCOL_DEFINITION ( 'draft international standard', 'automotive_design', 1998, #264 ) ;
#47 = LINE ( 'NONE', #327, #463 ) ;
#48 = SPHERICAL_SURFACE ( 'NONE', #505, 1.609365052918086070 ) ;
#49 = STYLED_ITEM ( 'NONE', ( #797 ), #98 ) ;
#50 = PRESENTATION_LAYER_ASSIGNMENT (  '', '', ( #833 ) ) ;
#51 =( GEOMETRIC_REPRESENTATION_CONTEXT ( 3 ) GLOBAL_UNCERTAINTY_ASSIGNED_CONTEXT ( ( #25 ) ) GLOBAL_UNIT_ASSIGNED_CONTEXT ( ( #126, #114, #555 ) ) REPRESENTATION_CONTEXT ( 'NONE', 'WORKASPACE' ) );
#52 = COLOUR_RGB ( '',0.8980392156862745390, 0.9176470588235293713, 0.9294117647058823817 ) ;
#53 =( NAMED_UNIT ( * ) SI_UNIT ( $, .STERADIAN. ) SOLID_ANGLE_UNIT ( ) );
#54 = AXIS2_PLACEMENT_3D ( 'NONE', #937, #481, #386 ) ;
#55 = VECTOR ( 'NONE', #335, 1000.000000000000000 ) ;
#56 = AXIS2_PLACEMENT_3D ( 'NONE', #295, #35, #941 ) ;
#57 = SURFACE_STYLE_USAGE ( .BOTH. , #850 ) ;
#58 = AXIS2_PLACEMENT_3D ( 'NONE', #38, #525, #277 ) ;
#59 =( NAMED_UNIT ( * ) SI_UNIT ( $, .STERADIAN. ) SOLID_ANGLE_UNIT ( ) );
#60 = CARTESIAN_POINT ( 'NONE',  ( -1.804968851620623482, 2.609365052918086292, 1.609365052918086292 ) ) ;
#61 = SURFACE_SIDE_STYLE ('',( #841 ) ) ;
#62 = ORIENTED_EDGE ( 'NONE', *, *, #929, .T. ) ;
#63 = CARTESIAN_POINT ( 'NONE',  ( 9.905000000000001137, 1.609365052918086292, 3.122849337825749926E-17 ) ) ;
#64 = EDGE_CURVE ( 'NONE', #861, #381, #349, .T. ) ;
#65 = DIRECTION ( 'NONE',  ( 0.000000000000000000, 0.000000000000000000, -1.000000000000000000 ) ) ;
#66 =( NAMED_UNIT ( * ) PLANE_ANGLE_UNIT ( ) SI_UNIT ( $, .RADIAN. ) );
#67 = CARTESIAN_POINT ( 'NONE',  ( -10.09675116564010722, 2.609365052918086292, 1.609365052918086292 ) ) ;
#68 = ORIENTED_EDGE ( 'NONE', *, *, #878, .F. ) ;
#69 = FILL_AREA_STYLE_COLOUR ( '', #779 ) ;
#70 = AXIS2_PLACEMENT_3D ( 'NONE', #223, #234, #824 ) ;
#71 = EDGE_CURVE ( 'NONE', #954, #676, #995, .T. ) ;
#72 = FACE_OUTER_BOUND ( 'NONE', #907, .T. ) ;
#73 = STYLED_ITEM ( 'NONE', ( #472 ), #417 ) ;
#74 =( NAMED_UNIT ( * ) SI_UNIT ( $, .STERADIAN. ) SOLID_ANGLE_UNIT ( ) );
#75 = STYLED_ITEM ( 'NONE', ( #182 ), #445 ) ;
#76 = DIRECTION ( 'NONE',  ( 0.000000000000000000, 0.000000000000000000, 1.000000000000000000 ) ) ;
#77 =( NAMED_UNIT ( * ) SI_UNIT ( $, .STERADIAN. ) SOLID_ANGLE_UNIT ( ) );
#78 = DIRECTION ( 'NONE',  ( 0.000000000000000000, 0.000000000000000000, -1.000000000000000000 ) ) ;
#79 =( NAMED_UNIT ( * ) SI_UNIT ( $, .STERADIAN. ) SOLID_ANGLE_UNIT ( ) );
#80 = EDGE_CURVE ( 'NONE', #861, #1037, #284, .T. ) ;
#81 = ORIENTED_EDGE ( 'NONE', *, *, #871, .F. ) ;
#82 = ORIENTED_EDGE ( 'NONE', *, *, #1095, .F. ) ;
#83 = FILL_AREA_STYLE_COLOUR ( '', #839 ) ;
#84 =( NAMED_UNIT ( * ) PLANE_ANGLE_UNIT ( ) SI_UNIT ( $, .RADIAN. ) );
#85 = ORIENTED_EDGE ( 'NONE', *, *, #866, .T. ) ;
#86 = EDGE_CURVE ( 'NONE', #658, #147, #943, .T. ) ;
#87 = ORIENTED_EDGE ( 'NONE', *, *, #547, .T. ) ;
#88 = AXIS2_PLACEMENT_3D ( 'NONE', #998, #526, #719 ) ;
#89 = SURFACE_STYLE_FILL_AREA ( #514 ) ;
#90 = CIRCLE ( 'NONE', #810, 0.2549999999999999489 ) ;
#91 =( GEOMETRIC_REPRESENTATION_CONTEXT ( 3 ) GLOBAL_UNCERTAINTY_ASSIGNED_CONTEXT ( ( #1049 ) ) GLOBAL_UNIT_ASSIGNED_CONTEXT ( ( #36, #566, #110 ) ) REPRESENTATION_CONTEXT ( 'NONE', 'WORKASPACE' ) );
#92 = CIRCLE ( 'NONE', #761, 1.254999999999999227 ) ;
#93 = CIRCLE ( 'NONE', #270, 1.254999999999999227 ) ;
#94 = SURFACE_STYLE_USAGE ( .BOTH. , #524 ) ;
#95 = ORIENTED_EDGE ( 'NONE', *, *, #133, .F. ) ;
#96 = DIRECTION ( 'NONE',  ( -0.000000000000000000, 0.000000000000000000, 1.000000000000000000 ) ) ;
#97 = ORIENTED_EDGE ( 'NONE', *, *, #596, .T. ) ;
#98 = ADVANCED_FACE ( 'NONE', ( #703 ), #1063, .T. ) ;
#99 = ORIENTED_EDGE ( 'NONE', *, *, #1, .T. ) ;
#100 = VERTEX_POINT ( 'NONE', #22 ) ;
#101 = AXIS2_PLACEMENT_3D ( 'NONE', #821, #904, #364 ) ;
#102 = SURFACE_STYLE_USAGE ( .BOTH. , #982 ) ;
#103 = CIRCLE ( 'NONE', #426, 0.2549999999999999489 ) ;
#104 = DIRECTION ( 'NONE',  ( 0.000000000000000000, 0.000000000000000000, -1.000000000000000000 ) ) ;
#105 = TOROIDAL_SURFACE ( 'NONE', #26, 1.000000000000000000, 0.2549999999999999489 ) ;
#106 = DIRECTION ( 'NONE',  ( 1.000000000000000000, -0.000000000000000000, -0.000000000000000000 ) ) ;
#107 = CIRCLE ( 'NONE', #672, 1.609365052918086292 ) ;
#108 = VECTOR ( 'NONE', #385, 1000.000000000000000 ) ;
#109 = CIRCLE ( 'NONE', #743, 0.2549999999999999489 ) ;
#110 =( NAMED_UNIT ( * ) SI_UNIT ( $, .STERADIAN. ) SOLID_ANGLE_UNIT ( ) );
#111 = FILL_AREA_STYLE_COLOUR ( '', #268 ) ;
#112 = STYLED_ITEM ( 'NONE', ( #496 ), #675 ) ;
#113 = ORIENTED_EDGE ( 'NONE', *, *, #204, .T. ) ;
#114 =( NAMED_UNIT ( * ) PLANE_ANGLE_UNIT ( ) SI_UNIT ( $, .RADIAN. ) );
#115 = CARTESIAN_POINT ( 'NONE',  ( -3.556190395207061261, 2.609365052918086292, 0.000000000000000000 ) ) ;
#116 = CARTESIAN_POINT ( 'NONE',  ( -3.362617346942187613, 2.204658939081764135, 0.000000000000000000 ) ) ;
#117 = SPHERICAL_SURFACE ( 'NONE', #674, 1.609365052918086070 ) ;
#118 = EDGE_LOOP ( 'NONE', ( #509, #741, #562, #553, #644, #276 ) ) ;
#119 = UNCERTAINTY_MEASURE_WITH_UNIT (LENGTH_MEASURE( 1.000000000000000082E-05 ), #232, 'distance_accuracy_value', 'NONE');
#120 = SURFACE_STYLE_FILL_AREA ( #889 ) ;
#121 = PRESENTATION_STYLE_ASSIGNMENT (( #541 ) ) ;
#122 = DIRECTION ( 'NONE',  ( -1.000000000000000000, -0.000000000000000000, -0.000000000000000000 ) ) ;
#123 = FILL_AREA_STYLE_COLOUR ( '', #210 ) ;
#124 = EDGE_CURVE ( 'NONE', #676, #867, #24, .T. ) ;
#125 = FACE_OUTER_BOUND ( 'NONE', #1027, .T. ) ;
#126 =( LENGTH_UNIT ( ) NAMED_UNIT ( * ) SI_UNIT ( .MILLI., .METRE. ) );
#127 = VERTEX_POINT ( 'NONE', #642 ) ;
#128 =( NAMED_UNIT ( * ) PLANE_ANGLE_UNIT ( ) SI_UNIT ( $, .RADIAN. ) );
#129 = DIRECTION ( 'NONE',  ( 1.000000000000000000, 0.000000000000000000, 0.000000000000000000 ) ) ;
#130 = STYLED_ITEM ( 'NONE', ( #1113 ), #989 ) ;
#131 = STYLED_ITEM ( 'NONE', ( #1109 ), #401 ) ;
#132 = CIRCLE ( 'NONE', #836, 0.4047061138363222121 ) ;
#133 = EDGE_CURVE ( 'NONE', #462, #100, #577, .T. ) ;
#134 = CIRCLE ( 'NONE', #1045, 0.2000000000000004829 ) ;
#135 =( NAMED_UNIT ( * ) PLANE_ANGLE_UNIT ( ) SI_UNIT ( $, .RADIAN. ) );
#136 = SURFACE_STYLE_USAGE ( .BOTH. , #895 ) ;
#137 = DIRECTION ( 'NONE',  ( 1.000000000000000000, -0.000000000000000000, -0.000000000000000000 ) ) ;
#138 = FILL_AREA_STYLE_COLOUR ( '', #559 ) ;
#139 = DIRECTION ( 'NONE',  ( 0.000000000000000000, 0.000000000000000000, 1.000000000000000000 ) ) ;
#140 = ORIENTED_EDGE ( 'NONE', *, *, #162, .T. ) ;
#141 = SURFACE_STYLE_FILL_AREA ( #911 ) ;
#142 = CYLINDRICAL_SURFACE ( 'NONE', #581, 1.609365052918086292 ) ;
#143 = CARTESIAN_POINT ( 'NONE',  ( -9.160000000000001918, 2.609365052918086292, 0.000000000000000000 ) ) ;
#144 = CARTESIAN_POINT ( 'NONE',  ( 3.362617346942188501, 2.609365052918086292, 0.000000000000000000 ) ) ;
#145 = PRODUCT ( 'Capacitor Ceramic No Polarity axial 20.32', 'Capacitor Ceramic No Polarity axial 20.32', '', ( #827 ) ) ;
#146 = CARTESIAN_POINT ( 'NONE',  ( 9.905000000000002913, -3.000000000000000000, 3.122849337825749310E-17 ) ) ;
#147 = VERTEX_POINT ( 'NONE', #369 ) ;
#148 = SPHERICAL_SURFACE ( 'NONE', #54, 1.609365052918086070 ) ;
#149 = FILL_AREA_STYLE_COLOUR ( '', #188 ) ;
#150 = DIRECTION ( 'NONE',  ( 0.000000000000000000, 0.000000000000000000, -1.000000000000000000 ) ) ;
#151 = FILL_AREA_STYLE_COLOUR ( '', #956 ) ;
#152 = CARTESIAN_POINT ( 'NONE',  ( 3.362617346942188501, 3.014071166754408893, 1.233262903810380613E-16 ) ) ;
#153 = CARTESIAN_POINT ( 'NONE',  ( 3.556190395207061261, 2.609365052918086292, 0.4550000000000005151 ) ) ;
#154 = ORIENTED_EDGE ( 'NONE', *, *, #167, .T. ) ;
#155 = VECTOR ( 'NONE', #692, 1000.000000000000000 ) ;
#156 = AXIS2_PLACEMENT_3D ( 'NONE', #251, #828, #919 ) ;
#157 = MECHANICAL_DESIGN_GEOMETRIC_PRESENTATION_REPRESENTATION (  '', ( #414 ), #593 ) ;
#158 = DIRECTION ( 'NONE',  ( 1.000000000000000000, -0.000000000000000000, -0.000000000000000000 ) ) ;
#159 = MECHANICAL_DESIGN_GEOMETRIC_PRESENTATION_REPRESENTATION (  '', ( #777 ), #605 ) ;
#160 = DIRECTION ( 'NONE',  ( 0.000000000000000000, 0.000000000000000000, 1.000000000000000000 ) ) ;
#161 = ORIENTED_EDGE ( 'NONE', *, *, #929, .F. ) ;
#162 = EDGE_CURVE ( 'NONE', #100, #462, #305, .T. ) ;
#163 = LINE ( 'NONE', #63, #108 ) ;
#164 =( LENGTH_UNIT ( ) NAMED_UNIT ( * ) SI_UNIT ( .MILLI., .METRE. ) );
#165 = SURFACE_SIDE_STYLE ('',( #842 ) ) ;
#166 = ORIENTED_EDGE ( 'NONE', *, *, #1062, .T. ) ;
#167 = EDGE_CURVE ( 'NONE', #1070, #357, #435, .T. ) ;
#168 = DIRECTION ( 'NONE',  ( 0.000000000000000000, 0.000000000000000000, 1.000000000000000000 ) ) ;
#169 = DIRECTION ( 'NONE',  ( 0.000000000000000000, 0.000000000000000000, 1.000000000000000000 ) ) ;
#170 = CARTESIAN_POINT ( 'NONE',  ( -10.41500000000000270, -3.000000000000000000, 3.122849337825771497E-17 ) ) ;
#171 = CARTESIAN_POINT ( 'NONE',  ( 9.160000000000001918, 2.609365052918086292, 0.000000000000000000 ) ) ;
#172 = CYLINDRICAL_SURFACE ( 'NONE', #592, 1.609365052918086292 ) ;
#173 =( GEOMETRIC_REPRESENTATION_CONTEXT ( 3 ) GLOBAL_UNCERTAINTY_ASSIGNED_CONTEXT ( ( #552 ) ) GLOBAL_UNIT_ASSIGNED_CONTEXT ( ( #986, #550, #205 ) ) REPRESENTATION_CONTEXT ( 'NONE', 'WORKASPACE' ) );
#174 = PRESENTATION_LAYER_ASSIGNMENT (  '', '', ( #851 ) ) ;
#175 = EDGE_CURVE ( 'NONE', #12, #183, #659, .T. ) ;
#176 = COLOUR_RGB ( '',0.7529411764705882248, 0.7529411764705882248, 0.000000000000000000 ) ;
#177 = STYLED_ITEM ( 'NONE', ( #649 ), #920 ) ;
#178 = UNCERTAINTY_MEASURE_WITH_UNIT (LENGTH_MEASURE( 1.000000000000000082E-05 ), #763, 'distance_accuracy_value', 'NONE');
#179 = ORIENTED_EDGE ( 'NONE', *, *, #354, .T. ) ;
#180 = ORIENTED_EDGE ( 'NONE', *, *, #1069, .T. ) ;
#181 = SURFACE_STYLE_USAGE ( .BOTH. , #262 ) ;
#182 = PRESENTATION_STYLE_ASSIGNMENT (( #973 ) ) ;
#183 = VERTEX_POINT ( 'NONE', #293 ) ;
#184 = COLOUR_RGB ( '',0.8941176470588234615, 0.8941176470588234615, 0.8941176470588234615 ) ;
#185 = PRESENTATION_LAYER_ASSIGNMENT (  '', '', ( #632 ) ) ;
#186 =( GEOMETRIC_REPRESENTATION_CONTEXT ( 3 ) GLOBAL_UNCERTAINTY_ASSIGNED_CONTEXT ( ( #1057 ) ) GLOBAL_UNIT_ASSIGNED_CONTEXT ( ( #656, #66, #667 ) ) REPRESENTATION_CONTEXT ( 'NONE', 'WORKASPACE' ) );
#187 = MECHANICAL_DESIGN_GEOMETRIC_PRESENTATION_REPRESENTATION (  '', ( #506 ), #256 ) ;
#188 = COLOUR_RGB ( '',0.8980392156862745390, 0.9176470588235293713, 0.9294117647058823817 ) ;
#189 = ADVANCED_BREP_SHAPE_REPRESENTATION ( 'Capacitor Ceramic No Polarity axial 20.32', ( #350, #628 ), #927 ) ;
#190 = EDGE_LOOP ( 'NONE', ( #1046, #253, #791, #847, #154 ) ) ;
#191 =( NAMED_UNIT ( * ) SI_UNIT ( $, .STERADIAN. ) SOLID_ANGLE_UNIT ( ) );
#192 = ORIENTED_EDGE ( 'NONE', *, *, #849, .F. ) ;
#193 = ORIENTED_EDGE ( 'NONE', *, *, #665, .F. ) ;
#194 = VERTEX_POINT ( 'NONE', #584 ) ;
#195 = DIRECTION ( 'NONE',  ( -0.000000000000000000, -0.000000000000000000, -1.000000000000000000 ) ) ;
#196 = ORIENTED_EDGE ( 'NONE', *, *, #175, .F. ) ;
#197 = UNCERTAINTY_MEASURE_WITH_UNIT (LENGTH_MEASURE( 1.000000000000000082E-05 ), #1065, 'distance_accuracy_value', 'NONE');
#198 = DIRECTION ( 'NONE',  ( -1.000000000000000000, -0.000000000000000000, -0.000000000000000000 ) ) ;
#199 = ORIENTED_EDGE ( 'NONE', *, *, #64, .F. ) ;
#200 = FILL_AREA_STYLE ('',( #358 ) ) ;
#201 = PRESENTATION_LAYER_ASSIGNMENT (  '', '', ( #49 ) ) ;
#202 = CARTESIAN_POINT ( 'NONE',  ( 10.16000000000000192, -3.000000000000000000, 0.000000000000000000 ) ) ;
#203 = AXIS2_PLACEMENT_3D ( 'NONE', #806, #729, #454 ) ;
#204 = EDGE_CURVE ( 'NONE', #1037, #332, #103, .T. ) ;
#205 =( NAMED_UNIT ( * ) SI_UNIT ( $, .STERADIAN. ) SOLID_ANGLE_UNIT ( ) );
#206 = DIRECTION ( 'NONE',  ( 1.000000000000000000, 0.000000000000000000, 0.000000000000000000 ) ) ;
#207 = ORIENTED_EDGE ( 'NONE', *, *, #844, .F. ) ;
#208 = AXIS2_PLACEMENT_3D ( 'NONE', #296, #748, #655 ) ;
#209 = CIRCLE ( 'NONE', #780, 0.2000000000000004829 ) ;
#210 = COLOUR_RGB ( '',0.7529411764705882248, 0.7529411764705882248, 0.000000000000000000 ) ;
#211 = SURFACE_SIDE_STYLE ('',( #967 ) ) ;
#212 = FACE_OUTER_BOUND ( 'NONE', #772, .T. ) ;
#213 = EDGE_CURVE ( 'NONE', #147, #658, #733, .T. ) ;
#214 = DIRECTION ( 'NONE',  ( 2.832769448823989808E-16, 1.000000000000000000, -0.000000000000000000 ) ) ;
#215 = DIRECTION ( 'NONE',  ( 0.000000000000000000, 0.000000000000000000, 1.000000000000000000 ) ) ;
#216 = EDGE_LOOP ( 'NONE', ( #261, #699, #456, #308 ) ) ;
#217 = SURFACE_STYLE_FILL_AREA ( #809 ) ;
#218 = FILL_AREA_STYLE_COLOUR ( '', #627 ) ;
#219 = CARTESIAN_POINT ( 'NONE',  ( -3.362617346942187613, 2.609365052918086292, 0.000000000000000000 ) ) ;
#220 =( NAMED_UNIT ( * ) SI_UNIT ( $, .STERADIAN. ) SOLID_ANGLE_UNIT ( ) );
#221 = DIRECTION ( 'NONE',  ( 1.000000000000000000, -0.000000000000000000, -0.000000000000000000 ) ) ;
#222 = UNCERTAINTY_MEASURE_WITH_UNIT (LENGTH_MEASURE( 1.000000000000000082E-05 ), #1076, 'distance_accuracy_value', 'NONE');
#223 = CARTESIAN_POINT ( 'NONE',  ( 10.16000000000000192, -3.000000000000000000, 0.000000000000000000 ) ) ;
#224 =( GEOMETRIC_REPRESENTATION_CONTEXT ( 3 ) GLOBAL_UNCERTAINTY_ASSIGNED_CONTEXT ( ( #921 ) ) GLOBAL_UNIT_ASSIGNED_CONTEXT ( ( #640, #831, #897 ) ) REPRESENTATION_CONTEXT ( 'NONE', 'WORKASPACE' ) );
#225 = MECHANICAL_DESIGN_GEOMETRIC_PRESENTATION_REPRESENTATION (  '', ( #73 ), #91 ) ;
#226 = SURFACE_STYLE_USAGE ( .BOTH. , #611 ) ;
#227 = EDGE_CURVE ( 'NONE', #666, #880, #945, .T. ) ;
#228 =( LENGTH_UNIT ( ) NAMED_UNIT ( * ) SI_UNIT ( .MILLI., .METRE. ) );
#229 = CARTESIAN_POINT ( 'NONE',  ( 1.804968851620622594, 2.609365052918086292, 0.000000000000000000 ) ) ;
#230 = SURFACE_STYLE_USAGE ( .BOTH. , #1002 ) ;
#231 = DIRECTION ( 'NONE',  ( -0.000000000000000000, 0.000000000000000000, 1.000000000000000000 ) ) ;
#232 =( LENGTH_UNIT ( ) NAMED_UNIT ( * ) SI_UNIT ( .MILLI., .METRE. ) );
#233 = FACE_OUTER_BOUND ( 'NONE', #725, .T. ) ;
#234 = DIRECTION ( 'NONE',  ( 2.832769448823989808E-16, -1.000000000000000000, 0.000000000000000000 ) ) ;
#235 = ORIENTED_EDGE ( 'NONE', *, *, #124, .T. ) ;
#236 = EDGE_CURVE ( 'NONE', #641, #437, #1014, .T. ) ;
#237 = CARTESIAN_POINT ( 'NONE',  ( -9.160000000000001918, 2.609365052918086292, 0.000000000000000000 ) ) ;
#238 = PRESENTATION_STYLE_ASSIGNMENT (( #230 ) ) ;
#239 = VERTEX_POINT ( 'NONE', #247 ) ;
#240 = CARTESIAN_POINT ( 'NONE',  ( 9.160000000000001918, 1.609365052918086292, 0.000000000000000000 ) ) ;
#241 =( GEOMETRIC_REPRESENTATION_CONTEXT ( 3 ) GLOBAL_UNCERTAINTY_ASSIGNED_CONTEXT ( ( #768 ) ) GLOBAL_UNIT_ASSIGNED_CONTEXT ( ( #990, #724, #59 ) ) REPRESENTATION_CONTEXT ( 'NONE', 'WORKASPACE' ) );
#242 = MECHANICAL_DESIGN_GEOMETRIC_PRESENTATION_REPRESENTATION (  '', ( #632 ), #51 ) ;
#243 = AXIS2_PLACEMENT_3D ( 'NONE', #1104, #198, #677 ) ;
#244 = AXIS2_PLACEMENT_3D ( 'NONE', #896, #1055, #286 ) ;
#245 = EDGE_CURVE ( 'NONE', #602, #433, #1093, .T. ) ;
#246 = ORIENTED_EDGE ( 'NONE', *, *, #516, .F. ) ;
#247 = CARTESIAN_POINT ( 'NONE',  ( 3.362617346942188501, 2.609365052918086292, -0.4047061138363206023 ) ) ;
#248 = CARTESIAN_POINT ( 'NONE',  ( -9.160000000000001918, 2.609365052918086292, 0.2549999999999999489 ) ) ;
#249 = ORIENTED_EDGE ( 'NONE', *, *, #80, .T. ) ;
#250 = EDGE_CURVE ( 'NONE', #1035, #950, #90, .T. ) ;
#251 = CARTESIAN_POINT ( 'NONE',  ( -10.16000000000000014, 1.609365052918086292, 0.000000000000000000 ) ) ;
#252 = LINE ( 'NONE', #859, #55 ) ;
#253 = ORIENTED_EDGE ( 'NONE', *, *, #41, .F. ) ;
#254 = AXIS2_PLACEMENT_3D ( 'NONE', #708, #14, #819 ) ;
#255 = DIRECTION ( 'NONE',  ( 0.000000000000000000, 0.000000000000000000, 1.000000000000000000 ) ) ;
#256 =( GEOMETRIC_REPRESENTATION_CONTEXT ( 3 ) GLOBAL_UNCERTAINTY_ASSIGNED_CONTEXT ( ( #178 ) ) GLOBAL_UNIT_ASSIGNED_CONTEXT ( ( #763, #654, #734 ) ) REPRESENTATION_CONTEXT ( 'NONE', 'WORKASPACE' ) );
#257 = DIRECTION ( 'NONE',  ( -1.000000000000000000, -0.000000000000000000, -0.000000000000000000 ) ) ;
#258 = STYLED_ITEM ( 'NONE', ( #405 ), #753 ) ;
#259 = ORIENTED_EDGE ( 'NONE', *, *, #721, .F. ) ;
#260 = FACE_OUTER_BOUND ( 'NONE', #1103, .T. ) ;
#261 = ORIENTED_EDGE ( 'NONE', *, *, #64, .T. ) ;
#262 = SURFACE_SIDE_STYLE ('',( #955 ) ) ;
#263 = ORIENTED_EDGE ( 'NONE', *, *, #783, .F. ) ;
#264 = APPLICATION_CONTEXT ( 'automotive_design' ) ;
#265 = PRESENTATION_LAYER_ASSIGNMENT (  '', '', ( #976 ) ) ;
#266 = PRESENTATION_LAYER_ASSIGNMENT (  '', '', ( #777 ) ) ;
#267 = ORIENTED_EDGE ( 'NONE', *, *, #269, .T. ) ;
#268 = COLOUR_RGB ( '',0.7529411764705882248, 0.7529411764705882248, 0.000000000000000000 ) ;
#269 = EDGE_CURVE ( 'NONE', #1097, #351, #352, .T. ) ;
#270 = AXIS2_PLACEMENT_3D ( 'NONE', #698, #622, #206 ) ;
#271 = ORIENTED_EDGE ( 'NONE', *, *, #554, .F. ) ;
#272 = PRESENTATION_STYLE_ASSIGNMENT (( #794 ) ) ;
#273 = CARTESIAN_POINT ( 'NONE',  ( 10.41500000000000270, -3.000000000000000000, 0.000000000000000000 ) ) ;
#274 = VERTEX_POINT ( 'NONE', #347 ) ;
#275 = FILL_AREA_STYLE ('',( #789 ) ) ;
#276 = ORIENTED_EDGE ( 'NONE', *, *, #71, .F. ) ;
#277 = DIRECTION ( 'NONE',  ( 1.000000000000000000, 0.000000000000000000, 0.000000000000000000 ) ) ;
#278 = DIRECTION ( 'NONE',  ( 0.000000000000000000, 0.000000000000000000, 1.000000000000000000 ) ) ;
#279 = CARTESIAN_POINT ( 'NONE',  ( 3.556190395207061261, 2.609365052918086292, 0.000000000000000000 ) ) ;
#280 = UNCERTAINTY_MEASURE_WITH_UNIT (LENGTH_MEASURE( 1.000000000000000082E-05 ), #453, 'distance_accuracy_value', 'NONE');
#281 = CARTESIAN_POINT ( 'NONE',  ( 1.804968851620623482, 1.000000000000000000, 0.000000000000000000 ) ) ;
#282 =( NAMED_UNIT ( * ) PLANE_ANGLE_UNIT ( ) SI_UNIT ( $, .RADIAN. ) );
#283 = EDGE_CURVE ( 'NONE', #12, #437, #1105, .T. ) ;
#284 = LINE ( 'NONE', #32, #302 ) ;
#285 =( GEOMETRIC_REPRESENTATION_CONTEXT ( 3 ) GLOBAL_UNCERTAINTY_ASSIGNED_CONTEXT ( ( #485 ) ) GLOBAL_UNIT_ASSIGNED_CONTEXT ( ( #508, #84, #765 ) ) REPRESENTATION_CONTEXT ( 'NONE', 'WORKASPACE' ) );
#286 = DIRECTION ( 'NONE',  ( 0.000000000000000000, 0.000000000000000000, 1.000000000000000000 ) ) ;
#287 =( LENGTH_UNIT ( ) NAMED_UNIT ( * ) SI_UNIT ( .MILLI., .METRE. ) );
#288 = STYLED_ITEM ( 'NONE', ( #829 ), #408 ) ;
#289 = PRESENTATION_LAYER_ASSIGNMENT (  '', '', ( #902 ) ) ;
#290 =( LENGTH_UNIT ( ) NAMED_UNIT ( * ) SI_UNIT ( .MILLI., .METRE. ) );
#291 = CARTESIAN_POINT ( 'NONE',  ( -1.804968851620622594, 2.609365052918086292, 0.000000000000000000 ) ) ;
#292 = EDGE_LOOP ( 'NONE', ( #207, #424, #259, #1050, #718 ) ) ;
#293 = CARTESIAN_POINT ( 'NONE',  ( 3.362617346942188501, 2.609365052918086292, 0.4047061138363206023 ) ) ;
#294 = PRESENTATION_STYLE_ASSIGNMENT (( #814 ) ) ;
#295 = CARTESIAN_POINT ( 'NONE',  ( -9.160000000000001918, 2.609365052918086292, 0.000000000000000000 ) ) ;
#296 = CARTESIAN_POINT ( 'NONE',  ( 1.804968851620623482, 2.609365052918086292, 0.000000000000000000 ) ) ;
#297 = CARTESIAN_POINT ( 'NONE',  ( 10.16000000000000014, 1.609365052918086292, 0.000000000000000000 ) ) ;
#298 = EDGE_CURVE ( 'NONE', #357, #658, #1039, .T. ) ;
#299 = FILL_AREA_STYLE_COLOUR ( '', #864 ) ;
#300 = ORIENTED_EDGE ( 'NONE', *, *, #701, .T. ) ;
#301 = SURFACE_SIDE_STYLE ('',( #1072 ) ) ;
#302 = VECTOR ( 'NONE', #543, 1000.000000000000000 ) ;
#303 = DIRECTION ( 'NONE',  ( -1.000000000000000000, -0.000000000000000000, -0.000000000000000000 ) ) ;
#304 = SURFACE_STYLE_FILL_AREA ( #1074 ) ;
#305 = CIRCLE ( 'NONE', #88, 0.2550000000000000044 ) ;
#306 = MECHANICAL_DESIGN_GEOMETRIC_PRESENTATION_REPRESENTATION (  '', ( #976 ), #224 ) ;
#307 = FACE_OUTER_BOUND ( 'NONE', #614, .T. ) ;
#308 = ORIENTED_EDGE ( 'NONE', *, *, #80, .F. ) ;
#309 = AXIS2_PLACEMENT_3D ( 'NONE', #1003, #315, #318 ) ;
#310 = AXIS2_PLACEMENT_3D ( 'NONE', #1100, #195, #680 ) ;
#311 = DIRECTION ( 'NONE',  ( -1.000000000000000000, -0.000000000000000000, -0.000000000000000000 ) ) ;
#312 = DIRECTION ( 'NONE',  ( 0.000000000000000000, 0.000000000000000000, -1.000000000000000000 ) ) ;
#313 =( NAMED_UNIT ( * ) SI_UNIT ( $, .STERADIAN. ) SOLID_ANGLE_UNIT ( ) );
#314 = SURFACE_STYLE_USAGE ( .BOTH. , #398 ) ;
#315 = DIRECTION ( 'NONE',  ( 0.000000000000000000, -1.224646799147353207E-16, 1.000000000000000000 ) ) ;
#316 = EDGE_CURVE ( 'NONE', #418, #767, #323, .T. ) ;
#317 = FILL_AREA_STYLE_COLOUR ( '', #52 ) ;
#318 = DIRECTION ( 'NONE',  ( 0.000000000000000000, -1.000000000000000000, -1.224646799147353207E-16 ) ) ;
#319 = ADVANCED_FACE ( 'NONE', ( #362 ), #105, .T. ) ;
#320 = CYLINDRICAL_SURFACE ( 'NONE', #156, 0.2550000000000000044 ) ;
#321 = CARTESIAN_POINT ( 'NONE',  ( -3.362617346942187613, 2.609365052918086292, -0.4047061138363221011 ) ) ;
#322 = ORIENTED_EDGE ( 'NONE', *, *, #245, .T. ) ;
#323 = CIRCLE ( 'NONE', #517, 0.2549999999999999489 ) ;
#324 = AXIS2_PLACEMENT_3D ( 'NONE', #144, #913, #478 ) ;
#325 = CIRCLE ( 'NONE', #795, 0.7449999999999991074 ) ;
#326 =( GEOMETRIC_REPRESENTATION_CONTEXT ( 3 ) GLOBAL_UNCERTAINTY_ASSIGNED_CONTEXT ( ( #474 ) ) GLOBAL_UNIT_ASSIGNED_CONTEXT ( ( #228, #128, #558 ) ) REPRESENTATION_CONTEXT ( 'NONE', 'WORKASPACE' ) );
#327 = CARTESIAN_POINT ( 'NONE',  ( 9.160000000000001918, 2.609365052918086292, 0.2549999999999999489 ) ) ;
#328 = ADVANCED_FACE ( 'NONE', ( #706 ), #786, .T. ) ;
#329 = ORIENTED_EDGE ( 'NONE', *, *, #236, .F. ) ;
#330 = PRESENTATION_STYLE_ASSIGNMENT (( #1090 ) ) ;
#331 = DIRECTION ( 'NONE',  ( 1.000000000000000000, 0.000000000000000000, 0.000000000000000000 ) ) ;
#332 = VERTEX_POINT ( 'NONE', #146 ) ;
#333 =( LENGTH_UNIT ( ) NAMED_UNIT ( * ) SI_UNIT ( .MILLI., .METRE. ) );
#334 = DIRECTION ( 'NONE',  ( -1.000000000000000000, -0.000000000000000000, -0.000000000000000000 ) ) ;
#335 = DIRECTION ( 'NONE',  ( 1.000000000000000000, -0.000000000000000000, -0.000000000000000000 ) ) ;
#336 = ORIENTED_EDGE ( 'NONE', *, *, #316, .T. ) ;
#337 =( GEOMETRIC_REPRESENTATION_CONTEXT ( 3 ) GLOBAL_UNCERTAINTY_ASSIGNED_CONTEXT ( ( #13 ) ) GLOBAL_UNIT_ASSIGNED_CONTEXT ( ( #769, #670, #531 ) ) REPRESENTATION_CONTEXT ( 'NONE', 'WORKASPACE' ) );
#338 =( GEOMETRIC_REPRESENTATION_CONTEXT ( 3 ) GLOBAL_UNCERTAINTY_ASSIGNED_CONTEXT ( ( #1022 ) ) GLOBAL_UNIT_ASSIGNED_CONTEXT ( ( #42, #915, #560 ) ) REPRESENTATION_CONTEXT ( 'NONE', 'WORKASPACE' ) );
#339 =( GEOMETRIC_REPRESENTATION_CONTEXT ( 3 ) GLOBAL_UNCERTAINTY_ASSIGNED_CONTEXT ( ( #119 ) ) GLOBAL_UNIT_ASSIGNED_CONTEXT ( ( #232, #651, #53 ) ) REPRESENTATION_CONTEXT ( 'NONE', 'WORKASPACE' ) );
#340 =( GEOMETRIC_REPRESENTATION_CONTEXT ( 3 ) GLOBAL_UNCERTAINTY_ASSIGNED_CONTEXT ( ( #616 ) ) GLOBAL_UNIT_ASSIGNED_CONTEXT ( ( #287, #906, #992 ) ) REPRESENTATION_CONTEXT ( 'NONE', 'WORKASPACE' ) );
#341 = DIRECTION ( 'NONE',  ( 0.000000000000000000, 0.000000000000000000, -1.000000000000000000 ) ) ;
#342 = AXIS2_PLACEMENT_3D ( 'NONE', #1099, #257, #1042 ) ;
#343 = VECTOR ( 'NONE', #334, 1000.000000000000000 ) ;
#344 = ORIENTED_EDGE ( 'NONE', *, *, #820, .T. ) ;
#345 = ADVANCED_FACE ( 'NONE', ( #399 ), #660, .F. ) ;
#346 = FACE_OUTER_BOUND ( 'NONE', #501, .T. ) ;
#347 = CARTESIAN_POINT ( 'NONE',  ( -9.160000000000001918, 2.864365052918086185, 0.000000000000000000 ) ) ;
#348 = ADVANCED_FACE ( 'NONE', ( #307 ), #492, .T. ) ;
#349 = CIRCLE ( 'NONE', #4, 0.2549999999999999489 ) ;
#350 = MANIFOLD_SOLID_BREP ( 'Mirror1', #707 ) ;
#351 = VERTEX_POINT ( 'NONE', #60 ) ;
#352 = CIRCLE ( 'NONE', #756, 1.609365052918086292 ) ;
#353 = MECHANICAL_DESIGN_GEOMETRIC_PRESENTATION_REPRESENTATION (  '', ( #75 ), #340 ) ;
#354 = EDGE_CURVE ( 'NONE', #467, #641, #1080, .T. ) ;
#355 = UNCERTAINTY_MEASURE_WITH_UNIT (LENGTH_MEASURE( 1.000000000000000082E-05 ), #376, 'distance_accuracy_value', 'NONE');
#356 = STYLED_ITEM ( 'NONE', ( #294 ), #899 ) ;
#357 = VERTEX_POINT ( 'NONE', #422 ) ;
#358 = FILL_AREA_STYLE_COLOUR ( '', #427 ) ;
#359 = DIRECTION ( 'NONE',  ( 0.000000000000000000, -1.000000000000000000, 0.000000000000000000 ) ) ;
#360 = LINE ( 'NONE', #629, #1108 ) ;
#361 = CARTESIAN_POINT ( 'NONE',  ( 9.160000000000001918, 2.354365052918086398, 3.122849337825749310E-17 ) ) ;
#362 = FACE_OUTER_BOUND ( 'NONE', #974, .T. ) ;
#363 = DIRECTION ( 'NONE',  ( 0.000000000000000000, 0.000000000000000000, 1.000000000000000000 ) ) ;
#364 = DIRECTION ( 'NONE',  ( 0.000000000000000000, 0.000000000000000000, -1.000000000000000000 ) ) ;
#365 = ORIENTED_EDGE ( 'NONE', *, *, #710, .F. ) ;
#366 = FILL_AREA_STYLE ('',( #571 ) ) ;
#367 = DIRECTION ( 'NONE',  ( 1.000000000000000000, 0.000000000000000000, 0.000000000000000000 ) ) ;
#368 = FILL_AREA_STYLE ('',( #218 ) ) ;
#369 = CARTESIAN_POINT ( 'NONE',  ( -9.905000000000002913, -3.000000000000000000, 0.000000000000000000 ) ) ;
#370 = DIRECTION ( 'NONE',  ( -2.832769448823989808E-16, -1.000000000000000000, -0.000000000000000000 ) ) ;
#371 = SURFACE_SIDE_STYLE ('',( #304 ) ) ;
#372 = PRESENTATION_LAYER_ASSIGNMENT (  '', '', ( #7 ) ) ;
#373 = CYLINDRICAL_SURFACE ( 'NONE', #56, 0.2549999999999999489 ) ;
#374 = EDGE_LOOP ( 'NONE', ( #113, #166 ) ) ;
#375 = PRESENTATION_LAYER_ASSIGNMENT (  '', '', ( #356 ) ) ;
#376 =( LENGTH_UNIT ( ) NAMED_UNIT ( * ) SI_UNIT ( .MILLI., .METRE. ) );
#377 = ADVANCED_FACE ( 'NONE', ( #72 ), #1026, .T. ) ;
#378 = CARTESIAN_POINT ( 'NONE',  ( -3.362617346942187613, 2.609365052918086292, 0.000000000000000000 ) ) ;
#379 = CARTESIAN_POINT ( 'NONE',  ( -3.556190395207061261, 2.609365052918086292, -0.4550000000000005151 ) ) ;
#380 = ORIENTED_EDGE ( 'NONE', *, *, #1004, .F. ) ;
#381 = VERTEX_POINT ( 'NONE', #773 ) ;
#382 = ORIENTED_EDGE ( 'NONE', *, *, #849, .T. ) ;
#383 = CARTESIAN_POINT ( 'NONE',  ( 9.160000000000001918, 2.609365052918086292, 0.000000000000000000 ) ) ;
#384 = PRODUCT_DEFINITION ( 'UNKNOWN', '', #1082, #538 ) ;
#385 = DIRECTION ( 'NONE',  ( 3.763476001707854080E-16, -1.000000000000000000, 0.000000000000000000 ) ) ;
#386 = DIRECTION ( 'NONE',  ( 0.000000000000000000, -1.000000000000000000, 0.000000000000000000 ) ) ;
#387 = COLOUR_RGB ( '',0.8980392156862745390, 0.9176470588235293713, 0.9294117647058823817 ) ;
#388 = FILL_AREA_STYLE_COLOUR ( '', #811 ) ;
#389 = DIRECTION ( 'NONE',  ( 0.000000000000000000, -1.000000000000000000, 0.000000000000000000 ) ) ;
#390 = CARTESIAN_POINT ( 'NONE',  ( 3.556190395207061261, 2.609365052918086292, 0.000000000000000000 ) ) ;
#391 = ORIENTED_EDGE ( 'NONE', *, *, #227, .T. ) ;
#392 = MECHANICAL_DESIGN_GEOMETRIC_PRESENTATION_REPRESENTATION (  '', ( #487 ), #1106 ) ;
#393 = MECHANICAL_DESIGN_GEOMETRIC_PRESENTATION_REPRESENTATION (  '', ( #7 ), #760 ) ;
#394 = STYLED_ITEM ( 'NONE', ( #476 ), #1111 ) ;
#395 = CIRCLE ( 'NONE', #1029, 0.2000000000000004829 ) ;
#396 = CIRCLE ( 'NONE', #8, 0.2549999999999999489 ) ;
#397 =( NAMED_UNIT ( * ) SI_UNIT ( $, .STERADIAN. ) SOLID_ANGLE_UNIT ( ) );
#398 = SURFACE_SIDE_STYLE ('',( #572 ) ) ;
#399 = FACE_OUTER_BOUND ( 'NONE', #292, .T. ) ;
#400 = SURFACE_STYLE_USAGE ( .BOTH. , #20 ) ;
#401 = ADVANCED_FACE ( 'NONE', ( #1071 ), #1016, .T. ) ;
#402 =( NAMED_UNIT ( * ) PLANE_ANGLE_UNIT ( ) SI_UNIT ( $, .RADIAN. ) );
#403 = ORIENTED_EDGE ( 'NONE', *, *, #497, .T. ) ;
#404 = SURFACE_STYLE_USAGE ( .BOTH. , #61 ) ;
#405 = PRESENTATION_STYLE_ASSIGNMENT (( #226 ) ) ;
#406 = ORIENTED_EDGE ( 'NONE', *, *, #766, .F. ) ;
#407 = DIRECTION ( 'NONE',  ( -1.000000000000000000, -0.000000000000000000, -0.000000000000000000 ) ) ;
#408 = ADVANCED_FACE ( 'NONE', ( #546 ), #48, .T. ) ;
#409 =( LENGTH_UNIT ( ) NAMED_UNIT ( * ) SI_UNIT ( .MILLI., .METRE. ) );
#410 = CIRCLE ( 'NONE', #425, 0.2549999999999999489 ) ;
#411 = EDGE_LOOP ( 'NONE', ( #263, #529, #391, #873, #140 ) ) ;
#412 = AXIS2_PLACEMENT_3D ( 'NONE', #868, #685, #607 ) ;
#413 = AXIS2_PLACEMENT_3D ( 'NONE', #818, #37, #726 ) ;
#414 = STYLED_ITEM ( 'NONE', ( #121 ), #589 ) ;
#415 = AXIS2_PLACEMENT_3D ( 'NONE', #807, #972, #704 ) ;
#416 =( NAMED_UNIT ( * ) PLANE_ANGLE_UNIT ( ) SI_UNIT ( $, .RADIAN. ) );
#417 = ADVANCED_FACE ( 'NONE', ( #893 ), #997, .F. ) ;
#418 = VERTEX_POINT ( 'NONE', #988 ) ;
#419 = CARTESIAN_POINT ( 'NONE',  ( 9.160000000000001918, 2.609365052918086292, 0.000000000000000000 ) ) ;
#420 = FILL_AREA_STYLE_COLOUR ( '', #887 ) ;
#421 = SURFACE_STYLE_USAGE ( .BOTH. , #826 ) ;
#422 = CARTESIAN_POINT ( 'NONE',  ( -10.41500000000000092, 1.609365052918086292, 3.122849337825749310E-17 ) ) ;
#423 = SURFACE_SIDE_STYLE ('',( #601 ) ) ;
#424 = ORIENTED_EDGE ( 'NONE', *, *, #1041, .F. ) ;
#425 = AXIS2_PLACEMENT_3D ( 'NONE', #237, #158, #812 ) ;
#426 = AXIS2_PLACEMENT_3D ( 'NONE', #918, #1005, #749 ) ;
#427 = COLOUR_RGB ( '',0.8980392156862745390, 0.9176470588235293713, 0.9294117647058823817 ) ;
#428 = ORIENTED_EDGE ( 'NONE', *, *, #167, .F. ) ;
#429 =( GEOMETRIC_REPRESENTATION_CONTEXT ( 3 ) GLOBAL_UNCERTAINTY_ASSIGNED_CONTEXT ( ( #881 ) ) GLOBAL_UNIT_ASSIGNED_CONTEXT ( ( #862, #1117, #951 ) ) REPRESENTATION_CONTEXT ( 'NONE', 'WORKASPACE' ) );
#430 = MECHANICAL_DESIGN_GEOMETRIC_PRESENTATION_REPRESENTATION (  '', ( #288 ), #338 ) ;
#431 = PRESENTATION_LAYER_ASSIGNMENT (  '', '', ( #112 ) ) ;
#432 = ADVANCED_FACE ( 'NONE', ( #528 ), #883, .T. ) ;
#433 = VERTEX_POINT ( 'NONE', #361 ) ;
#434 = DIRECTION ( 'NONE',  ( -1.000000000000000000, -0.000000000000000000, -0.000000000000000000 ) ) ;
#435 = CIRCLE ( 'NONE', #590, 0.2549999999999999489 ) ;
#436 = ORIENTED_EDGE ( 'NONE', *, *, #298, .T. ) ;
#437 = VERTEX_POINT ( 'NONE', #281 ) ;
#438 = PRESENTATION_LAYER_ASSIGNMENT (  '', '', ( #689 ) ) ;
#439 = CARTESIAN_POINT ( 'NONE',  ( 3.556190395207061261, 2.609365052918086292, 0.000000000000000000 ) ) ;
#440 = CIRCLE ( 'NONE', #782, 0.4047061138363226562 ) ;
#441 = STYLED_ITEM ( 'NONE', ( #330 ), #377 ) ;
#442 = CARTESIAN_POINT ( 'NONE',  ( 3.362617346942188501, 2.609365052918086292, 0.000000000000000000 ) ) ;
#443 = PRESENTATION_LAYER_ASSIGNMENT (  '', '', ( #288 ) ) ;
#444 = FACE_OUTER_BOUND ( 'NONE', #527, .T. ) ;
#445 = ADVANCED_FACE ( 'NONE', ( #540 ), #117, .T. ) ;
#446 = ORIENTED_EDGE ( 'NONE', *, *, #701, .F. ) ;
#447 = UNCERTAINTY_MEASURE_WITH_UNIT (LENGTH_MEASURE( 1.000000000000000082E-05 ), #774, 'distance_accuracy_value', 'NONE');
#448 = AXIS2_PLACEMENT_3D ( 'NONE', #1114, #869, #785 ) ;
#449 = SURFACE_STYLE_USAGE ( .BOTH. , #617 ) ;
#450 = FILL_AREA_STYLE ('',( #111 ) ) ;
#451 = ORIENTED_EDGE ( 'NONE', *, *, #965, .F. ) ;
#452 = DIRECTION ( 'NONE',  ( 1.000000000000000000, 0.000000000000000000, 0.000000000000000000 ) ) ;
#453 =( LENGTH_UNIT ( ) NAMED_UNIT ( * ) SI_UNIT ( .MILLI., .METRE. ) );
#454 = DIRECTION ( 'NONE',  ( 0.000000000000000000, 0.000000000000000000, -1.000000000000000000 ) ) ;
#455 = DIRECTION ( 'NONE',  ( 0.000000000000000000, 0.000000000000000000, 1.000000000000000000 ) ) ;
#456 = ORIENTED_EDGE ( 'NONE', *, *, #204, .F. ) ;
#457 = SURFACE_STYLE_FILL_AREA ( #275 ) ;
#458 = SURFACE_STYLE_FILL_AREA ( #39 ) ;
#459 = DIRECTION ( 'NONE',  ( 0.000000000000000000, 0.000000000000000000, -1.000000000000000000 ) ) ;
#460 = UNCERTAINTY_MEASURE_WITH_UNIT (LENGTH_MEASURE( 1.000000000000000082E-05 ), #409, 'distance_accuracy_value', 'NONE');
#461 = EDGE_CURVE ( 'NONE', #1097, #867, #928, .T. ) ;
#462 = VERTEX_POINT ( 'NONE', #471 ) ;
#463 = VECTOR ( 'NONE', #1010, 1000.000000000000000 ) ;
#464 = PRESENTATION_LAYER_ASSIGNMENT (  '', '', ( #73 ) ) ;
#465 = SURFACE_STYLE_FILL_AREA ( #1075 ) ;
#466 = PRESENTATION_LAYER_ASSIGNMENT (  '', '', ( #75 ) ) ;
#467 = VERTEX_POINT ( 'NONE', #823 ) ;
#468 = AXIS2_PLACEMENT_3D ( 'NONE', #565, #370, #40 ) ;
#469 = ADVANCED_FACE ( 'NONE', ( #544 ), #142, .T. ) ;
#470 = DIRECTION ( 'NONE',  ( 0.000000000000000000, 0.000000000000000000, -1.000000000000000000 ) ) ;
#471 = CARTESIAN_POINT ( 'NONE',  ( -3.556190395207061261, 2.609365052918086292, 0.2550000000000000044 ) ) ;
#472 = PRESENTATION_STYLE_ASSIGNMENT (( #717 ) ) ;
#473 = PRESENTATION_STYLE_ASSIGNMENT (( #314 ) ) ;
#474 = UNCERTAINTY_MEASURE_WITH_UNIT (LENGTH_MEASURE( 1.000000000000000082E-05 ), #228, 'distance_accuracy_value', 'NONE');
#475 = EDGE_LOOP ( 'NONE', ( #1023, #428, #758, #536 ) ) ;
#476 = PRESENTATION_STYLE_ASSIGNMENT (( #1086 ) ) ;
#477 = DIRECTION ( 'NONE',  ( 1.000000000000000000, -0.000000000000000000, -0.000000000000000000 ) ) ;
#478 = DIRECTION ( 'NONE',  ( 0.000000000000000000, 0.000000000000000000, 1.000000000000000000 ) ) ;
#479 = CARTESIAN_POINT ( 'NONE',  ( -1.804968851620622594, 2.609365052918086292, 0.000000000000000000 ) ) ;
#480 = FILL_AREA_STYLE_COLOUR ( '', #537 ) ;
#481 = DIRECTION ( 'NONE',  ( 0.000000000000000000, 0.000000000000000000, 1.000000000000000000 ) ) ;
#482 = CARTESIAN_POINT ( 'NONE',  ( -1.804968851620623482, 2.609365052918086292, -1.609365052918086292 ) ) ;
#483 = CARTESIAN_POINT ( 'NONE',  ( -9.160000000000001918, 2.609365052918086292, 0.000000000000000000 ) ) ;
#484 = MECHANICAL_DESIGN_GEOMETRIC_PRESENTATION_REPRESENTATION (  '', ( #603 ), #285 ) ;
#485 = UNCERTAINTY_MEASURE_WITH_UNIT (LENGTH_MEASURE( 1.000000000000000082E-05 ), #508, 'distance_accuracy_value', 'NONE');
#486 = ORIENTED_EDGE ( 'NONE', *, *, #283, .T. ) ;
#487 = STYLED_ITEM ( 'NONE', ( #788 ), #994 ) ;
#488 = VECTOR ( 'NONE', #137, 1000.000000000000000 ) ;
#489 = TOROIDAL_SURFACE ( 'NONE', #1025, 0.4550000000000005151, 0.2000000000000004829 ) ;
#490 = APPLICATION_PROTOCOL_DEFINITION ( 'draft international standard', 'automotive_design', 1998, #1011 ) ;
#491 = SURFACE_SIDE_STYLE ('',( #569 ) ) ;
#492 = CYLINDRICAL_SURFACE ( 'NONE', #557, 0.2549999999999999489 ) ;
#493 = DIRECTION ( 'NONE',  ( 0.000000000000000000, 0.000000000000000000, -1.000000000000000000 ) ) ;
#494 = DIRECTION ( 'NONE',  ( 1.000000000000000000, 0.000000000000000000, 0.000000000000000000 ) ) ;
#495 = DIRECTION ( 'NONE',  ( 2.832769448823989808E-16, 1.000000000000000000, -0.000000000000000000 ) ) ;
#496 = PRESENTATION_STYLE_ASSIGNMENT (( #757 ) ) ;
#497 = EDGE_CURVE ( 'NONE', #574, #467, #979, .T. ) ;
#498 =( NAMED_UNIT ( * ) PLANE_ANGLE_UNIT ( ) SI_UNIT ( $, .RADIAN. ) );
#499 = CARTESIAN_POINT ( 'NONE',  ( 9.160000000000001918, 2.609365052918086292, 0.000000000000000000 ) ) ;
#500 = CYLINDRICAL_SURFACE ( 'NONE', #925, 0.2550000000000000044 ) ;
#501 = EDGE_LOOP ( 'NONE', ( #267, #1116, #594, #610, #446, #936 ) ) ;
#502 = CARTESIAN_POINT ( 'NONE',  ( -10.09675116564010722, 2.609365052918086292, 0.000000000000000000 ) ) ;
#503 = AXIS2_PLACEMENT_3D ( 'NONE', #648, #664, #1020 ) ;
#504 = MECHANICAL_DESIGN_GEOMETRIC_PRESENTATION_REPRESENTATION (  '', ( #394 ), #339 ) ;
#505 = AXIS2_PLACEMENT_3D ( 'NONE', #229, #723, #389 ) ;
#506 = STYLED_ITEM ( 'NONE', ( #634 ), #469 ) ;
#507 = FILL_AREA_STYLE_COLOUR ( '', #1015 ) ;
#508 =( LENGTH_UNIT ( ) NAMED_UNIT ( * ) SI_UNIT ( .MILLI., .METRE. ) );
#509 = ORIENTED_EDGE ( 'NONE', *, *, #747, .F. ) ;
#510 = CARTESIAN_POINT ( 'NONE',  ( 9.160000000000001918, 1.609365052918086292, 0.000000000000000000 ) ) ;
#511 = EDGE_CURVE ( 'NONE', #357, #1070, #813, .T. ) ;
#512 = ORIENTED_EDGE ( 'NONE', *, *, #721, .T. ) ;
#513 = ORIENTED_EDGE ( 'NONE', *, *, #1095, .T. ) ;
#514 = FILL_AREA_STYLE ('',( #507 ) ) ;
#515 = DIRECTION ( 'NONE',  ( 0.000000000000000000, -1.000000000000000000, 0.000000000000000000 ) ) ;
#516 = EDGE_CURVE ( 'NONE', #381, #332, #163, .T. ) ;
#517 = AXIS2_PLACEMENT_3D ( 'NONE', #439, #452, #1047 ) ;
#518 = ORIENTED_EDGE ( 'NONE', *, *, #766, .T. ) ;
#519 = CIRCLE ( 'NONE', #324, 0.4047061138363226562 ) ;
#520 = CIRCLE ( 'NONE', #1096, 1.609365052918086292 ) ;
#521 = PRESENTATION_STYLE_ASSIGNMENT (( #181 ) ) ;
#522 = EDGE_CURVE ( 'NONE', #950, #861, #92, .T. ) ;
#523 = ORIENTED_EDGE ( 'NONE', *, *, #250, .F. ) ;
#524 = SURFACE_SIDE_STYLE ('',( #89 ) ) ;
#525 = DIRECTION ( 'NONE',  ( 3.763476001707854080E-16, -1.000000000000000000, 0.000000000000000000 ) ) ;
#526 = DIRECTION ( 'NONE',  ( -1.000000000000000000, -0.000000000000000000, -0.000000000000000000 ) ) ;
#527 = EDGE_LOOP ( 'NONE', ( #792, #436, #1031, #365 ) ) ;
#528 = FACE_OUTER_BOUND ( 'NONE', #475, .T. ) ;
#529 = ORIENTED_EDGE ( 'NONE', *, *, #804, .T. ) ;
#530 =( GEOMETRIC_REPRESENTATION_CONTEXT ( 3 ) GLOBAL_UNCERTAINTY_ASSIGNED_CONTEXT ( ( #222 ) ) GLOBAL_UNIT_ASSIGNED_CONTEXT ( ( #1076, #416, #79 ) ) REPRESENTATION_CONTEXT ( 'NONE', 'WORKASPACE' ) );
#531 =( NAMED_UNIT ( * ) SI_UNIT ( $, .STERADIAN. ) SOLID_ANGLE_UNIT ( ) );
#532 = PRODUCT_DEFINITION_SHAPE ( 'NONE', 'NONE',  #384 ) ;
#533 = DIRECTION ( 'NONE',  ( -1.000000000000000000, -0.000000000000000000, -0.000000000000000000 ) ) ;
#534 =( GEOMETRIC_REPRESENTATION_CONTEXT ( 3 ) GLOBAL_UNCERTAINTY_ASSIGNED_CONTEXT ( ( #280 ) ) GLOBAL_UNIT_ASSIGNED_CONTEXT ( ( #453, #135, #1009 ) ) REPRESENTATION_CONTEXT ( 'NONE', 'WORKASPACE' ) );
#535 = FILL_AREA_STYLE ('',( #123 ) ) ;
#536 = ORIENTED_EDGE ( 'NONE', *, *, #213, .T. ) ;
#537 = COLOUR_RGB ( '',0.8980392156862745390, 0.9176470588235293713, 0.9294117647058823817 ) ;
#538 = PRODUCT_DEFINITION_CONTEXT ( 'detailed design', #264, 'design' ) ;
#539 = FILL_AREA_STYLE_COLOUR ( '', #793 ) ;
#540 = FACE_OUTER_BOUND ( 'NONE', #118, .T. ) ;
#541 = SURFACE_STYLE_USAGE ( .BOTH. , #700 ) ;
#542 = CARTESIAN_POINT ( 'NONE',  ( 1.804968851620623482, 2.609365052918086292, 0.000000000000000000 ) ) ;
#543 = DIRECTION ( 'NONE',  ( 3.763476001707854080E-16, -1.000000000000000000, 0.000000000000000000 ) ) ;
#544 = FACE_OUTER_BOUND ( 'NONE', #34, .T. ) ;
#545 = DIRECTION ( 'NONE',  ( 0.000000000000000000, 0.000000000000000000, -1.000000000000000000 ) ) ;
#546 = FACE_OUTER_BOUND ( 'NONE', #962, .T. ) ;
#547 = EDGE_CURVE ( 'NONE', #194, #954, #132, .T. ) ;
#548 =( NAMED_UNIT ( * ) PLANE_ANGLE_UNIT ( ) SI_UNIT ( $, .RADIAN. ) );
#549 = CARTESIAN_POINT ( 'NONE',  ( 9.160000000000001918, 2.609365052918086292, -0.2549999999999999489 ) ) ;
#550 =( NAMED_UNIT ( * ) PLANE_ANGLE_UNIT ( ) SI_UNIT ( $, .RADIAN. ) );
#551 =( LENGTH_UNIT ( ) NAMED_UNIT ( * ) SI_UNIT ( .MILLI., .METRE. ) );
#552 = UNCERTAINTY_MEASURE_WITH_UNIT (LENGTH_MEASURE( 1.000000000000000082E-05 ), #986, 'distance_accuracy_value', 'NONE');
#553 = ORIENTED_EDGE ( 'NONE', *, *, #461, .T. ) ;
#554 = EDGE_CURVE ( 'NONE', #666, #1070, #325, .T. ) ;
#555 =( NAMED_UNIT ( * ) SI_UNIT ( $, .STERADIAN. ) SOLID_ANGLE_UNIT ( ) );
#556 = DIRECTION ( 'NONE',  ( 0.000000000000000000, 0.000000000000000000, 1.000000000000000000 ) ) ;
#557 = AXIS2_PLACEMENT_3D ( 'NONE', #171, #635, #139 ) ;
#558 =( NAMED_UNIT ( * ) SI_UNIT ( $, .STERADIAN. ) SOLID_ANGLE_UNIT ( ) );
#559 = COLOUR_RGB ( '',0.7529411764705882248, 0.7529411764705882248, 0.000000000000000000 ) ;
#560 =( NAMED_UNIT ( * ) SI_UNIT ( $, .STERADIAN. ) SOLID_ANGLE_UNIT ( ) );
#561 = PRESENTATION_LAYER_ASSIGNMENT (  '', '', ( #414 ) ) ;
#562 = ORIENTED_EDGE ( 'NONE', *, *, #586, .T. ) ;
#563 = PRESENTATION_LAYER_ASSIGNMENT (  '', '', ( #258 ) ) ;
#564 = FILL_AREA_STYLE_COLOUR ( '', #606 ) ;
#565 = CARTESIAN_POINT ( 'NONE',  ( -10.16000000000000192, -3.000000000000000000, 0.000000000000000000 ) ) ;
#566 =( NAMED_UNIT ( * ) PLANE_ANGLE_UNIT ( ) SI_UNIT ( $, .RADIAN. ) );
#567 = CARTESIAN_POINT ( 'NONE',  ( 1.804968851620623482, 2.609365052918086292, 0.000000000000000000 ) ) ;
#568 = ORIENTED_EDGE ( 'NONE', *, *, #844, .T. ) ;
#569 = SURFACE_STYLE_FILL_AREA ( #746 ) ;
#570 = ORIENTED_EDGE ( 'NONE', *, *, #354, .F. ) ;
#571 = FILL_AREA_STYLE_COLOUR ( '', #176 ) ;
#572 = SURFACE_STYLE_FILL_AREA ( #838 ) ;
#573 = DIRECTION ( 'NONE',  ( 0.000000000000000000, -1.000000000000000000, 0.000000000000000000 ) ) ;
#574 = VERTEX_POINT ( 'NONE', #152 ) ;
#575 = DIRECTION ( 'NONE',  ( -1.000000000000000000, -0.000000000000000000, -0.000000000000000000 ) ) ;
#576 =( NAMED_UNIT ( * ) SI_UNIT ( $, .STERADIAN. ) SOLID_ANGLE_UNIT ( ) );
#577 = CIRCLE ( 'NONE', #775, 0.2550000000000000044 ) ;
#578 = MECHANICAL_DESIGN_GEOMETRIC_PRESENTATION_REPRESENTATION (  '', ( #833 ), #5 ) ;
#579 = FILL_AREA_STYLE ('',( #480 ) ) ;
#580 = MECHANICAL_DESIGN_GEOMETRIC_PRESENTATION_REPRESENTATION (  '', ( #441 ), #186 ) ;
#581 = AXIS2_PLACEMENT_3D ( 'NONE', #582, #1088, #45 ) ;
#582 = CARTESIAN_POINT ( 'NONE',  ( -10.09675116564010722, 2.609365052918086292, 0.000000000000000000 ) ) ;
#583 = CIRCLE ( 'NONE', #854, 0.2549999999999999489 ) ;
#584 = CARTESIAN_POINT ( 'NONE',  ( -3.362617346942187613, 2.609365052918086292, 0.4047061138363221011 ) ) ;
#585 = LINE ( 'NONE', #67, #661 ) ;
#586 = EDGE_CURVE ( 'NONE', #952, #1097, #520, .T. ) ;
#587 = CARTESIAN_POINT ( 'NONE',  ( 9.160000000000001918, 2.609365052918086292, 0.000000000000000000 ) ) ;
#588 = ORIENTED_EDGE ( 'NONE', *, *, #1062, .F. ) ;
#589 = ADVANCED_FACE ( 'NONE', ( #125 ), #172, .T. ) ;
#590 = AXIS2_PLACEMENT_3D ( 'NONE', #879, #214, #104 ) ;
#591 = MECHANICAL_DESIGN_GEOMETRIC_PRESENTATION_REPRESENTATION (  '', ( #130 ), #429 ) ;
#592 = AXIS2_PLACEMENT_3D ( 'NONE', #502, #853, #76 ) ;
#593 =( GEOMETRIC_REPRESENTATION_CONTEXT ( 3 ) GLOBAL_UNCERTAINTY_ASSIGNED_CONTEXT ( ( #355 ) ) GLOBAL_UNIT_ASSIGNED_CONTEXT ( ( #376, #924, #903 ) ) REPRESENTATION_CONTEXT ( 'NONE', 'WORKASPACE' ) );
#594 = ORIENTED_EDGE ( 'NONE', *, *, #747, .T. ) ;
#595 = CARTESIAN_POINT ( 'NONE',  ( -1.804968851620623482, 2.609365052918086292, 0.000000000000000000 ) ) ;
#596 = EDGE_CURVE ( 'NONE', #433, #1035, #109, .T. ) ;
#597 =( NAMED_UNIT ( * ) PLANE_ANGLE_UNIT ( ) SI_UNIT ( $, .RADIAN. ) );
#598 = CARTESIAN_POINT ( 'NONE',  ( -9.160000000000001918, 2.354365052918086398, -3.122849337825749310E-17 ) ) ;
#599 = FACE_OUTER_BOUND ( 'NONE', #216, .T. ) ;
#600 = EDGE_CURVE ( 'NONE', #462, #194, #395, .T. ) ;
#601 = SURFACE_STYLE_FILL_AREA ( #855 ) ;
#602 = VERTEX_POINT ( 'NONE', #755 ) ;
#603 = STYLED_ITEM ( 'NONE', ( #1091 ), #348 ) ;
#604 = EDGE_LOOP ( 'NONE', ( #860, #624 ) ) ;
#605 =( GEOMETRIC_REPRESENTATION_CONTEXT ( 3 ) GLOBAL_UNCERTAINTY_ASSIGNED_CONTEXT ( ( #1102 ) ) GLOBAL_UNIT_ASSIGNED_CONTEXT ( ( #164, #402, #576 ) ) REPRESENTATION_CONTEXT ( 'NONE', 'WORKASPACE' ) );
#606 = COLOUR_RGB ( '',0.8980392156862745390, 0.9176470588235293713, 0.9294117647058823817 ) ;
#607 = DIRECTION ( 'NONE',  ( -1.000000000000000000, 0.000000000000000000, 0.000000000000000000 ) ) ;
#608 = AXIS2_PLACEMENT_3D ( 'NONE', #832, #732, #493 ) ;
#609 = CIRCLE ( 'NONE', #415, 0.2000000000000004829 ) ;
#610 = ORIENTED_EDGE ( 'NONE', *, *, #547, .F. ) ;
#611 = SURFACE_SIDE_STYLE ('',( #217 ) ) ;
#612 = PRODUCT_RELATED_PRODUCT_CATEGORY ( 'part', '', ( #145 ) ) ;
#613 = FILL_AREA_STYLE ('',( #29 ) ) ;
#614 = EDGE_LOOP ( 'NONE', ( #380, #637, #825, #683, #382 ) ) ;
#615 = CARTESIAN_POINT ( 'NONE',  ( 3.362617346942188501, 2.609365052918086292, 0.000000000000000000 ) ) ;
#616 = UNCERTAINTY_MEASURE_WITH_UNIT (LENGTH_MEASURE( 1.000000000000000082E-05 ), #287, 'distance_accuracy_value', 'NONE');
#617 = SURFACE_SIDE_STYLE ('',( #457 ) ) ;
#618 = ORIENTED_EDGE ( 'NONE', *, *, #1041, .T. ) ;
#619 = CARTESIAN_POINT ( 'NONE',  ( -10.41500000000000092, 1.609365052918086292, 3.122849337825749926E-17 ) ) ;
#620 = FILL_AREA_STYLE_COLOUR ( '', #1110 ) ;
#621 = DIRECTION ( 'NONE',  ( -1.000000000000000000, -0.000000000000000000, -0.000000000000000000 ) ) ;
#622 = DIRECTION ( 'NONE',  ( -0.000000000000000000, 0.000000000000000000, 1.000000000000000000 ) ) ;
#623 = SURFACE_SIDE_STYLE ('',( #964 ) ) ;
#624 = ORIENTED_EDGE ( 'NONE', *, *, #86, .F. ) ;
#625 = AXIS2_PLACEMENT_3D ( 'NONE', #378, #18, #1073 ) ;
#626 = DIRECTION ( 'NONE',  ( 2.832769448823989808E-16, -1.000000000000000000, 0.000000000000000000 ) ) ;
#627 = COLOUR_RGB ( '',0.7529411764705882248, 0.7529411764705882248, 0.000000000000000000 ) ;
#628 = AXIS2_PLACEMENT_3D ( 'NONE', #840, #735, #494 ) ;
#629 = CARTESIAN_POINT ( 'NONE',  ( -10.09675116564010722, 2.609365052918086292, -1.609365052918086292 ) ) ;
#630 = CARTESIAN_POINT ( 'NONE',  ( -1.804968851620622594, 2.609365052918086292, 0.000000000000000000 ) ) ;
#631 = CIRCLE ( 'NONE', #342, 0.4047061138363226562 ) ;
#632 = STYLED_ITEM ( 'NONE', ( #696 ), #1021 ) ;
#633 = SURFACE_SIDE_STYLE ('',( #1064 ) ) ;
#634 = PRESENTATION_STYLE_ASSIGNMENT (( #715 ) ) ;
#635 = DIRECTION ( 'NONE',  ( -1.000000000000000000, -0.000000000000000000, -0.000000000000000000 ) ) ;
#636 = DIRECTION ( 'NONE',  ( 1.000000000000000000, 0.000000000000000000, 0.000000000000000000 ) ) ;
#637 = ORIENTED_EDGE ( 'NONE', *, *, #596, .F. ) ;
#638 = SURFACE_STYLE_USAGE ( .BOTH. , #1001 ) ;
#639 = UNCERTAINTY_MEASURE_WITH_UNIT (LENGTH_MEASURE( 1.000000000000000082E-05 ), #333, 'distance_accuracy_value', 'NONE');
#640 =( LENGTH_UNIT ( ) NAMED_UNIT ( * ) SI_UNIT ( .MILLI., .METRE. ) );
#641 = VERTEX_POINT ( 'NONE', #940 ) ;
#642 = CARTESIAN_POINT ( 'NONE',  ( 1.804968851620623482, 2.609365052918086292, 1.609365052918086292 ) ) ;
#643 = DIRECTION ( 'NONE',  ( -0.000000000000000000, 1.000000000000000000, 1.224646799147353207E-16 ) ) ;
#644 = ORIENTED_EDGE ( 'NONE', *, *, #124, .F. ) ;
#645 = AXIS2_PLACEMENT_3D ( 'NONE', #935, #311, #1006 ) ;
#646 = DIRECTION ( 'NONE',  ( -0.000000000000000000, -0.000000000000000000, -1.000000000000000000 ) ) ;
#647 = CARTESIAN_POINT ( 'NONE',  ( -1.804968851620623482, 1.000000000000000000, 0.000000000000000000 ) ) ;
#648 = CARTESIAN_POINT ( 'NONE',  ( 1.804968851620623482, 2.609365052918086292, 0.000000000000000000 ) ) ;
#649 = PRESENTATION_STYLE_ASSIGNMENT (( #740 ) ) ;
#650 = DIRECTION ( 'NONE',  ( -0.000000000000000000, 0.000000000000000000, 1.000000000000000000 ) ) ;
#651 =( NAMED_UNIT ( * ) PLANE_ANGLE_UNIT ( ) SI_UNIT ( $, .RADIAN. ) );
#652 = SURFACE_STYLE_FILL_AREA ( #934 ) ;
#653 = FILL_AREA_STYLE ('',( #299 ) ) ;
#654 =( NAMED_UNIT ( * ) PLANE_ANGLE_UNIT ( ) SI_UNIT ( $, .RADIAN. ) );
#655 = DIRECTION ( 'NONE',  ( 0.000000000000000000, 0.000000000000000000, 1.000000000000000000 ) ) ;
#656 =( LENGTH_UNIT ( ) NAMED_UNIT ( * ) SI_UNIT ( .MILLI., .METRE. ) );
#657 = CARTESIAN_POINT ( 'NONE',  ( 9.160000000000001918, 2.864365052918086185, 0.000000000000000000 ) ) ;
#658 = VERTEX_POINT ( 'NONE', #170 ) ;
#659 = CIRCLE ( 'NONE', #923, 0.4047061138363226562 ) ;
#660 = TOROIDAL_SURFACE ( 'NONE', #947, 0.4550000000000005151, 0.2000000000000004829 ) ;
#661 = VECTOR ( 'NONE', #1094, 1000.000000000000000 ) ;
#662 = COLOUR_RGB ( '',0.7529411764705882248, 0.7529411764705882248, 0.000000000000000000 ) ;
#663 = COLOUR_RGB ( '',0.8980392156862745390, 0.9176470588235293713, 0.9294117647058823817 ) ;
#664 = DIRECTION ( 'NONE',  ( -1.000000000000000000, -0.000000000000000000, -0.000000000000000000 ) ) ;
#665 = EDGE_CURVE ( 'NONE', #880, #100, #252, .T. ) ;
#666 = VERTEX_POINT ( 'NONE', #598 ) ;
#667 =( NAMED_UNIT ( * ) SI_UNIT ( $, .STERADIAN. ) SOLID_ANGLE_UNIT ( ) );
#668 = EDGE_CURVE ( 'NONE', #183, #767, #209, .T. ) ;
#669 = VERTEX_POINT ( 'NONE', #248 ) ;
#670 =( NAMED_UNIT ( * ) PLANE_ANGLE_UNIT ( ) SI_UNIT ( $, .RADIAN. ) );
#671 = ORIENTED_EDGE ( 'NONE', *, *, #1, .F. ) ;
#672 = AXIS2_PLACEMENT_3D ( 'NONE', #542, #122, #702 ) ;
#673 = STYLED_ITEM ( 'NONE', ( #711 ), #1077 ) ;
#674 = AXIS2_PLACEMENT_3D ( 'NONE', #630, #215, #984 ) ;
#675 = ADVANCED_FACE ( 'NONE', ( #1012 ), #373, .T. ) ;
#676 = VERTEX_POINT ( 'NONE', #321 ) ;
#677 = DIRECTION ( 'NONE',  ( 0.000000000000000000, 0.000000000000000000, 1.000000000000000000 ) ) ;
#678 = CIRCLE ( 'NONE', #977, 1.609365052918086292 ) ;
#679 = LINE ( 'NONE', #1033, #343 ) ;
#680 = DIRECTION ( 'NONE',  ( -1.000000000000000000, 0.000000000000000000, 0.000000000000000000 ) ) ;
#681 = ORIENTED_EDGE ( 'NONE', *, *, #162, .F. ) ;
#682 = ORIENTED_EDGE ( 'NONE', *, *, #283, .F. ) ;
#683 = ORIENTED_EDGE ( 'NONE', *, *, #965, .T. ) ;
#684 = ORIENTED_EDGE ( 'NONE', *, *, #1069, .F. ) ;
#685 = DIRECTION ( 'NONE',  ( 0.000000000000000000, 0.000000000000000000, -1.000000000000000000 ) ) ;
#686 = DIRECTION ( 'NONE',  ( -0.000000000000000000, -0.000000000000000000, -1.000000000000000000 ) ) ;
#687 = EDGE_CURVE ( 'NONE', #433, #381, #981, .T. ) ;
#688 = CARTESIAN_POINT ( 'NONE',  ( -9.160000000000001918, 1.609365052918086292, 0.000000000000000000 ) ) ;
#689 = STYLED_ITEM ( 'NONE', ( #473 ), #350 ) ;
#690 = ORIENTED_EDGE ( 'NONE', *, *, #269, .F. ) ;
#691 = AXIS2_PLACEMENT_3D ( 'NONE', #837, #650, #129 ) ;
#692 = DIRECTION ( 'NONE',  ( -3.763476001707854080E-16, -1.000000000000000000, 0.000000000000000000 ) ) ;
#693 = SURFACE_STYLE_USAGE ( .BOTH. , #423 ) ;
#694 = TOROIDAL_SURFACE ( 'NONE', #645, 0.4550000000000005151, 0.2000000000000004829 ) ;
#695 = ORIENTED_EDGE ( 'NONE', *, *, #600, .F. ) ;
#696 = PRESENTATION_STYLE_ASSIGNMENT (( #102 ) ) ;
#697 = CARTESIAN_POINT ( 'NONE',  ( 10.16000000000000014, 1.609365052918086292, 0.000000000000000000 ) ) ;
#698 = CARTESIAN_POINT ( 'NONE',  ( -9.160000000000001918, 1.609365052918086292, 0.000000000000000000 ) ) ;
#699 = ORIENTED_EDGE ( 'NONE', *, *, #516, .T. ) ;
#700 = SURFACE_SIDE_STYLE ('',( #15 ) ) ;
#701 = EDGE_CURVE ( 'NONE', #867, #194, #745, .T. ) ;
#702 = DIRECTION ( 'NONE',  ( 0.000000000000000000, 0.000000000000000000, 1.000000000000000000 ) ) ;
#703 = FACE_OUTER_BOUND ( 'NONE', #970, .T. ) ;
#704 = DIRECTION ( 'NONE',  ( 0.000000000000000000, 0.000000000000000000, 1.000000000000000000 ) ) ;
#705 = SURFACE_STYLE_FILL_AREA ( #366 ) ;
#706 = FACE_OUTER_BOUND ( 'NONE', #374, .T. ) ;
#707 = CLOSED_SHELL ( 'NONE', ( #319, #989, #98, #920, #1111, #1021, #417, #994, #408, #589, #1018, #445, #469, #1077, #345, #899, #969, #377, #348, #328, #432, #401, #675, #753 ) ) ;
#708 = CARTESIAN_POINT ( 'NONE',  ( -10.16000000000000014, 1.609365052918086292, 0.000000000000000000 ) ) ;
#709 = MECHANICAL_DESIGN_GEOMETRIC_PRESENTATION_REPRESENTATION (  '', ( #49 ), #173 ) ;
#710 = EDGE_CURVE ( 'NONE', #1070, #147, #803, .T. ) ;
#711 = PRESENTATION_STYLE_ASSIGNMENT (( #901 ) ) ;
#712 = AXIS2_PLACEMENT_3D ( 'NONE', #291, #11, #359 ) ;
#713 = DIRECTION ( 'NONE',  ( 0.000000000000000000, 0.000000000000000000, -1.000000000000000000 ) ) ;
#714 = CARTESIAN_POINT ( 'NONE',  ( -9.160000000000001918, 2.609365052918086292, 0.000000000000000000 ) ) ;
#715 = SURFACE_STYLE_USAGE ( .BOTH. , #371 ) ;
#716 = CIRCLE ( 'NONE', #244, 1.609365052918086292 ) ;
#717 = SURFACE_STYLE_USAGE ( .BOTH. , #816 ) ;
#718 = ORIENTED_EDGE ( 'NONE', *, *, #316, .F. ) ;
#719 = DIRECTION ( 'NONE',  ( 0.000000000000000000, 0.000000000000000000, 1.000000000000000000 ) ) ;
#720 =( NAMED_UNIT ( * ) PLANE_ANGLE_UNIT ( ) SI_UNIT ( $, .RADIAN. ) );
#721 = EDGE_CURVE ( 'NONE', #183, #574, #631, .T. ) ;
#722 = ORIENTED_EDGE ( 'NONE', *, *, #687, .T. ) ;
#723 = DIRECTION ( 'NONE',  ( 0.000000000000000000, 0.000000000000000000, 1.000000000000000000 ) ) ;
#724 =( NAMED_UNIT ( * ) PLANE_ANGLE_UNIT ( ) SI_UNIT ( $, .RADIAN. ) );
#725 = EDGE_LOOP ( 'NONE', ( #246, #99, #249, #588 ) ) ;
#726 = DIRECTION ( 'NONE',  ( -1.000000000000000000, 0.000000000000000000, 0.000000000000000000 ) ) ;
#727 = CARTESIAN_POINT ( 'NONE',  ( -1.804968851620623482, 2.609365052918086292, 0.000000000000000000 ) ) ;
#728 = DIRECTION ( 'NONE',  ( 0.000000000000000000, 0.000000000000000000, 1.000000000000000000 ) ) ;
#729 = DIRECTION ( 'NONE',  ( 1.000000000000000000, -0.000000000000000000, -0.000000000000000000 ) ) ;
#730 = DIRECTION ( 'NONE',  ( 0.000000000000000000, 0.000000000000000000, -1.000000000000000000 ) ) ;
#731 = DIRECTION ( 'NONE',  ( 0.000000000000000000, -1.000000000000000000, -1.224646799147353207E-16 ) ) ;
#732 = DIRECTION ( 'NONE',  ( 2.832769448823989808E-16, 1.000000000000000000, -0.000000000000000000 ) ) ;
#733 = CIRCLE ( 'NONE', #1056, 0.2549999999999999489 ) ;
#734 =( NAMED_UNIT ( * ) SI_UNIT ( $, .STERADIAN. ) SOLID_ANGLE_UNIT ( ) );
#735 = DIRECTION ( 'NONE',  ( 0.000000000000000000, 0.000000000000000000, 1.000000000000000000 ) ) ;
#736 = PRESENTATION_LAYER_ASSIGNMENT (  '', '', ( #603 ) ) ;
#737 = DIRECTION ( 'NONE',  ( 0.000000000000000000, 0.000000000000000000, -1.000000000000000000 ) ) ;
#738 = PRESENTATION_LAYER_ASSIGNMENT (  '', '', ( #130 ) ) ;
#739 = COLOUR_RGB ( '',0.7529411764705882248, 0.7529411764705882248, 0.000000000000000000 ) ;
#740 = SURFACE_STYLE_USAGE ( .BOTH. , #491 ) ;
#741 = ORIENTED_EDGE ( 'NONE', *, *, #871, .T. ) ;
#742 = PRESENTATION_LAYER_ASSIGNMENT (  '', '', ( #673 ) ) ;
#743 = AXIS2_PLACEMENT_3D ( 'NONE', #419, #942, #312 ) ;
#744 = ORIENTED_EDGE ( 'NONE', *, *, #41, .T. ) ;
#745 = CIRCLE ( 'NONE', #448, 0.4047061138363222121 ) ;
#746 = FILL_AREA_STYLE ('',( #149 ) ) ;
#747 = EDGE_CURVE ( 'NONE', #1034, #954, #949, .T. ) ;
#748 = DIRECTION ( 'NONE',  ( -1.000000000000000000, -0.000000000000000000, -0.000000000000000000 ) ) ;
#749 = DIRECTION ( 'NONE',  ( 0.000000000000000000, 0.000000000000000000, -1.000000000000000000 ) ) ;
#750 = SURFACE_SIDE_STYLE ('',( #652 ) ) ;
#751 =( NAMED_UNIT ( * ) SI_UNIT ( $, .STERADIAN. ) SOLID_ANGLE_UNIT ( ) );
#752 = DIRECTION ( 'NONE',  ( 0.000000000000000000, 0.000000000000000000, 1.000000000000000000 ) ) ;
#753 = ADVANCED_FACE ( 'NONE', ( #884 ), #822, .T. ) ;
#754 = CIRCLE ( 'NONE', #898, 0.2549999999999999489 ) ;
#755 = CARTESIAN_POINT ( 'NONE',  ( 9.160000000000001918, 2.609365052918086292, 0.2549999999999999489 ) ) ;
#756 = AXIS2_PLACEMENT_3D ( 'NONE', #595, #1024, #255 ) ;
#757 = SURFACE_STYLE_USAGE ( .BOTH. , #165 ) ;
#758 = ORIENTED_EDGE ( 'NONE', *, *, #710, .T. ) ;
#759 = AXIS2_PLACEMENT_3D ( 'NONE', #510, #686, #944 ) ;
#760 =( GEOMETRIC_REPRESENTATION_CONTEXT ( 3 ) GLOBAL_UNCERTAINTY_ASSIGNED_CONTEXT ( ( #197 ) ) GLOBAL_UNIT_ASSIGNED_CONTEXT ( ( #1065, #931, #751 ) ) REPRESENTATION_CONTEXT ( 'NONE', 'WORKASPACE' ) );
#761 = AXIS2_PLACEMENT_3D ( 'NONE', #240, #646, #916 ) ;
#762 = MECHANICAL_DESIGN_GEOMETRIC_PRESENTATION_REPRESENTATION (  '', ( #112 ), #959 ) ;
#763 =( LENGTH_UNIT ( ) NAMED_UNIT ( * ) SI_UNIT ( .MILLI., .METRE. ) );
#764 = CARTESIAN_POINT ( 'NONE',  ( 10.16000000000000014, 1.609365052918086292, 0.000000000000000000 ) ) ;
#765 =( NAMED_UNIT ( * ) SI_UNIT ( $, .STERADIAN. ) SOLID_ANGLE_UNIT ( ) );
#766 = EDGE_CURVE ( 'NONE', #950, #602, #1061, .T. ) ;
#767 = VERTEX_POINT ( 'NONE', #905 ) ;
#768 = UNCERTAINTY_MEASURE_WITH_UNIT (LENGTH_MEASURE( 1.000000000000000082E-05 ), #990, 'distance_accuracy_value', 'NONE');
#769 =( LENGTH_UNIT ( ) NAMED_UNIT ( * ) SI_UNIT ( .MILLI., .METRE. ) );
#770 = ORIENTED_EDGE ( 'NONE', *, *, #820, .F. ) ;
#771 =( NAMED_UNIT ( * ) PLANE_ANGLE_UNIT ( ) SI_UNIT ( $, .RADIAN. ) );
#772 = EDGE_LOOP ( 'NONE', ( #68, #95, #888, #87, #787 ) ) ;
#773 = CARTESIAN_POINT ( 'NONE',  ( 9.905000000000001137, 1.609365052918086292, 3.122849337825749310E-17 ) ) ;
#774 =( LENGTH_UNIT ( ) NAMED_UNIT ( * ) SI_UNIT ( .MILLI., .METRE. ) );
#775 = AXIS2_PLACEMENT_3D ( 'NONE', #115, #533, #278 ) ;
#776 = ORIENTED_EDGE ( 'NONE', *, *, #878, .T. ) ;
#777 = STYLED_ITEM ( 'NONE', ( #1017 ), #969 ) ;
#778 = MECHANICAL_DESIGN_GEOMETRIC_PRESENTATION_REPRESENTATION (  '', ( #131 ), #1043 ) ;
#779 = COLOUR_RGB ( '',0.8980392156862745390, 0.9176470588235293713, 0.9294117647058823817 ) ;
#780 = AXIS2_PLACEMENT_3D ( 'NONE', #153, #573, #852 ) ;
#781 = AXIS2_PLACEMENT_3D ( 'NONE', #479, #800, #731 ) ;
#782 = AXIS2_PLACEMENT_3D ( 'NONE', #615, #21, #363 ) ;
#783 = EDGE_CURVE ( 'NONE', #669, #462, #1068, .T. ) ;
#784 = CARTESIAN_POINT ( 'NONE',  ( 3.556190395207061261, 2.609365052918086292, 0.000000000000000000 ) ) ;
#785 = DIRECTION ( 'NONE',  ( 0.000000000000000000, 0.000000000000000000, 1.000000000000000000 ) ) ;
#786 = PLANE ( 'NONE',  #70 ) ;
#787 = ORIENTED_EDGE ( 'NONE', *, *, #71, .T. ) ;
#788 = PRESENTATION_STYLE_ASSIGNMENT (( #693 ) ) ;
#789 = FILL_AREA_STYLE_COLOUR ( '', #790 ) ;
#790 = COLOUR_RGB ( '',0.8980392156862745390, 0.9176470588235293713, 0.9294117647058823817 ) ;
#791 = ORIENTED_EDGE ( 'NONE', *, *, #227, .F. ) ;
#792 = ORIENTED_EDGE ( 'NONE', *, *, #511, .F. ) ;
#793 = COLOUR_RGB ( '',0.8980392156862745390, 0.9176470588235293713, 0.9294117647058823817 ) ;
#794 = SURFACE_STYLE_USAGE ( .BOTH. , #875 ) ;
#795 = AXIS2_PLACEMENT_3D ( 'NONE', #1092, #231, #1084 ) ;
#796 = PRESENTATION_LAYER_ASSIGNMENT (  '', '', ( #177 ) ) ;
#797 = PRESENTATION_STYLE_ASSIGNMENT (( #136 ) ) ;
#798 = DIRECTION ( 'NONE',  ( 0.000000000000000000, 0.000000000000000000, 1.000000000000000000 ) ) ;
#799 = ORIENTED_EDGE ( 'NONE', *, *, #804, .F. ) ;
#800 = DIRECTION ( 'NONE',  ( 0.000000000000000000, -1.224646799147353207E-16, 1.000000000000000000 ) ) ;
#801 = CARTESIAN_POINT ( 'NONE',  ( -1.804968851620623482, 4.218730105836172584, 1.970903760715744989E-16 ) ) ;
#802 = ORIENTED_EDGE ( 'NONE', *, *, #1036, .F. ) ;
#803 = LINE ( 'NONE', #985, #930 ) ;
#804 = EDGE_CURVE ( 'NONE', #669, #666, #583, .T. ) ;
#805 = CYLINDRICAL_SURFACE ( 'NONE', #58, 0.2550000000000000044 ) ;
#806 = CARTESIAN_POINT ( 'NONE',  ( -9.160000000000001918, 2.609365052918086292, 0.000000000000000000 ) ) ;
#807 = CARTESIAN_POINT ( 'NONE',  ( 3.556190395207061261, 2.609365052918086292, -0.4550000000000005151 ) ) ;
#808 = CIRCLE ( 'NONE', #863, 0.2549999999999999489 ) ;
#809 = FILL_AREA_STYLE ('',( #1032 ) ) ;
#810 = AXIS2_PLACEMENT_3D ( 'NONE', #499, #1101, #78 ) ;
#811 = COLOUR_RGB ( '',0.8980392156862745390, 0.9176470588235293713, 0.9294117647058823817 ) ;
#812 = DIRECTION ( 'NONE',  ( 0.000000000000000000, 0.000000000000000000, -1.000000000000000000 ) ) ;
#813 = CIRCLE ( 'NONE', #608, 0.2549999999999999489 ) ;
#814 = SURFACE_STYLE_USAGE ( .BOTH. , #633 ) ;
#815 = AXIS2_PLACEMENT_3D ( 'NONE', #383, #636, #470 ) ;
#816 = SURFACE_SIDE_STYLE ('',( #465 ) ) ;
#817 = FILL_AREA_STYLE ('',( #151 ) ) ;
#818 = CARTESIAN_POINT ( 'NONE',  ( 9.160000000000001918, 1.609365052918086292, 0.000000000000000000 ) ) ;
#819 = DIRECTION ( 'NONE',  ( 1.000000000000000000, 0.000000000000000000, 0.000000000000000000 ) ) ;
#820 = EDGE_CURVE ( 'NONE', #641, #952, #360, .T. ) ;
#821 = CARTESIAN_POINT ( 'NONE',  ( -10.16000000000000192, -3.000000000000000000, 0.000000000000000000 ) ) ;
#822 = PLANE ( 'NONE',  #468 ) ;
#823 = CARTESIAN_POINT ( 'NONE',  ( 1.804968851620623482, 4.218730105836172584, 1.970903760715744989E-16 ) ) ;
#824 = DIRECTION ( 'NONE',  ( 0.000000000000000000, 0.000000000000000000, -1.000000000000000000 ) ) ;
#825 = ORIENTED_EDGE ( 'NONE', *, *, #245, .F. ) ;
#826 = SURFACE_SIDE_STYLE ('',( #141 ) ) ;
#827 = PRODUCT_CONTEXT ( 'NONE', #1011, 'mechanical' ) ;
#828 = DIRECTION ( 'NONE',  ( -3.763476001707854080E-16, -1.000000000000000000, 0.000000000000000000 ) ) ;
#829 = PRESENTATION_STYLE_ASSIGNMENT (( #638 ) ) ;
#830 = UNCERTAINTY_MEASURE_WITH_UNIT (LENGTH_MEASURE( 1.000000000000000082E-05 ), #10, 'distance_accuracy_value', 'NONE');
#831 =( NAMED_UNIT ( * ) PLANE_ANGLE_UNIT ( ) SI_UNIT ( $, .RADIAN. ) );
#832 = CARTESIAN_POINT ( 'NONE',  ( -10.16000000000000014, 1.609365052918086292, 0.000000000000000000 ) ) ;
#833 = STYLED_ITEM ( 'NONE', ( #272 ), #319 ) ;
#834 = FILL_AREA_STYLE ('',( #388 ) ) ;
#835 = PRESENTATION_LAYER_ASSIGNMENT (  '', '', ( #394 ) ) ;
#836 = AXIS2_PLACEMENT_3D ( 'NONE', #843, #407, #752 ) ;
#837 = CARTESIAN_POINT ( 'NONE',  ( -9.160000000000001918, 1.609365052918086292, 0.000000000000000000 ) ) ;
#838 = FILL_AREA_STYLE ('',( #43 ) ) ;
#839 = COLOUR_RGB ( '',0.7529411764705882248, 0.7529411764705882248, 0.000000000000000000 ) ;
#840 = CARTESIAN_POINT ( 'NONE',  ( 0.000000000000000000, 0.000000000000000000, 0.000000000000000000 ) ) ;
#841 = SURFACE_STYLE_FILL_AREA ( #817 ) ;
#842 = SURFACE_STYLE_FILL_AREA ( #579 ) ;
#843 = CARTESIAN_POINT ( 'NONE',  ( -3.362617346942187613, 2.609365052918086292, 0.000000000000000000 ) ) ;
#844 = EDGE_CURVE ( 'NONE', #239, #418, #609, .T. ) ;
#845 = DIRECTION ( 'NONE',  ( 0.000000000000000000, 0.000000000000000000, -1.000000000000000000 ) ) ;
#846 = SURFACE_STYLE_FILL_AREA ( #834 ) ;
#847 = ORIENTED_EDGE ( 'NONE', *, *, #554, .T. ) ;
#848 = FACE_OUTER_BOUND ( 'NONE', #874, .T. ) ;
#849 = EDGE_CURVE ( 'NONE', #767, #418, #396, .T. ) ;
#850 = SURFACE_SIDE_STYLE ('',( #846 ) ) ;
#851 = STYLED_ITEM ( 'NONE', ( #1058 ), #328 ) ;
#852 = DIRECTION ( 'NONE',  ( 0.000000000000000000, 0.000000000000000000, -1.000000000000000000 ) ) ;
#853 = DIRECTION ( 'NONE',  ( -1.000000000000000000, -0.000000000000000000, -0.000000000000000000 ) ) ;
#854 = AXIS2_PLACEMENT_3D ( 'NONE', #714, #106, #730 ) ;
#855 = FILL_AREA_STYLE ('',( #83 ) ) ;
#856 = CARTESIAN_POINT ( 'NONE',  ( -3.556190395207061261, 2.609365052918086292, 0.4550000000000005151 ) ) ;
#857 = ORIENTED_EDGE ( 'NONE', *, *, #511, .T. ) ;
#858 = UNCERTAINTY_MEASURE_WITH_UNIT (LENGTH_MEASURE( 1.000000000000000082E-05 ), #551, 'distance_accuracy_value', 'NONE');
#859 = CARTESIAN_POINT ( 'NONE',  ( -9.160000000000001918, 2.609365052918086292, -0.2549999999999999489 ) ) ;
#860 = ORIENTED_EDGE ( 'NONE', *, *, #213, .F. ) ;
#861 = VERTEX_POINT ( 'NONE', #987 ) ;
#862 =( LENGTH_UNIT ( ) NAMED_UNIT ( * ) SI_UNIT ( .MILLI., .METRE. ) );
#863 = AXIS2_PLACEMENT_3D ( 'NONE', #297, #1000, #150 ) ;
#864 = COLOUR_RGB ( '',0.7529411764705882248, 0.7529411764705882248, 0.000000000000000000 ) ;
#865 = MECHANICAL_DESIGN_GEOMETRIC_PRESENTATION_REPRESENTATION (  '', ( #902 ), #337 ) ;
#866 = EDGE_CURVE ( 'NONE', #274, #357, #93, .T. ) ;
#867 = VERTEX_POINT ( 'NONE', #116 ) ;
#868 = CARTESIAN_POINT ( 'NONE',  ( 1.804968851620622594, 2.609365052918086292, 0.000000000000000000 ) ) ;
#869 = DIRECTION ( 'NONE',  ( -1.000000000000000000, -0.000000000000000000, -0.000000000000000000 ) ) ;
#870 = ORIENTED_EDGE ( 'NONE', *, *, #497, .F. ) ;
#871 = EDGE_CURVE ( 'NONE', #1034, #952, #716, .T. ) ;
#872 = ORIENTED_EDGE ( 'NONE', *, *, #687, .F. ) ;
#873 = ORIENTED_EDGE ( 'NONE', *, *, #665, .T. ) ;
#874 = EDGE_LOOP ( 'NONE', ( #523, #1107, #336, #451, #406 ) ) ;
#875 = SURFACE_SIDE_STYLE ('',( #16 ) ) ;
#876 = DIRECTION ( 'NONE',  ( -1.000000000000000000, -0.000000000000000000, -0.000000000000000000 ) ) ;
#877 = ORIENTED_EDGE ( 'NONE', *, *, #957, .F. ) ;
#878 = EDGE_CURVE ( 'NONE', #100, #676, #134, .T. ) ;
#879 = CARTESIAN_POINT ( 'NONE',  ( -10.16000000000000014, 1.609365052918086292, 0.000000000000000000 ) ) ;
#880 = VERTEX_POINT ( 'NONE', #999 ) ;
#881 = UNCERTAINTY_MEASURE_WITH_UNIT (LENGTH_MEASURE( 1.000000000000000082E-05 ), #862, 'distance_accuracy_value', 'NONE');
#882 = AXIS2_PLACEMENT_3D ( 'NONE', #143, #477, #845 ) ;
#883 = CYLINDRICAL_SURFACE ( 'NONE', #254, 0.2550000000000000044 ) ;
#884 = FACE_OUTER_BOUND ( 'NONE', #604, .T. ) ;
#885 = ORIENTED_EDGE ( 'NONE', *, *, #133, .T. ) ;
#886 = FILL_AREA_STYLE ('',( #620 ) ) ;
#887 = COLOUR_RGB ( '',0.7529411764705882248, 0.7529411764705882248, 0.000000000000000000 ) ;
#888 = ORIENTED_EDGE ( 'NONE', *, *, #600, .T. ) ;
#889 = FILL_AREA_STYLE ('',( #539 ) ) ;
#890 = CARTESIAN_POINT ( 'NONE',  ( -1.804968851620622594, 2.609365052918086292, 0.000000000000000000 ) ) ;
#891 = DIRECTION ( 'NONE',  ( 0.000000000000000000, 0.000000000000000000, -1.000000000000000000 ) ) ;
#892 = DIRECTION ( 'NONE',  ( -1.000000000000000000, -0.000000000000000000, -0.000000000000000000 ) ) ;
#893 = FACE_OUTER_BOUND ( 'NONE', #968, .T. ) ;
#894 = SPHERICAL_SURFACE ( 'NONE', #712, 1.609365052918086070 ) ;
#895 = SURFACE_SIDE_STYLE ('',( #458 ) ) ;
#896 = CARTESIAN_POINT ( 'NONE',  ( -1.804968851620623482, 2.609365052918086292, 0.000000000000000000 ) ) ;
#897 =( NAMED_UNIT ( * ) SI_UNIT ( $, .STERADIAN. ) SOLID_ANGLE_UNIT ( ) );
#898 = AXIS2_PLACEMENT_3D ( 'NONE', #483, #221, #545 ) ;
#899 = ADVANCED_FACE ( 'NONE', ( #212 ), #694, .F. ) ;
#900 = AXIS2_PLACEMENT_3D ( 'NONE', #587, #938, #737 ) ;
#901 = SURFACE_STYLE_USAGE ( .BOTH. , #211 ) ;
#902 = STYLED_ITEM ( 'NONE', ( #521 ), #1018 ) ;
#903 =( NAMED_UNIT ( * ) SI_UNIT ( $, .STERADIAN. ) SOLID_ANGLE_UNIT ( ) );
#904 = DIRECTION ( 'NONE',  ( 2.832769448823989808E-16, 1.000000000000000000, -0.000000000000000000 ) ) ;
#905 = CARTESIAN_POINT ( 'NONE',  ( 3.556190395207061261, 2.609365052918086292, 0.2549999999999999489 ) ) ;
#906 =( NAMED_UNIT ( * ) PLANE_ANGLE_UNIT ( ) SI_UNIT ( $, .RADIAN. ) );
#907 = EDGE_LOOP ( 'NONE', ( #1115, #518, #322, #722, #199 ) ) ;
#908 = MECHANICAL_DESIGN_GEOMETRIC_PRESENTATION_REPRESENTATION (  '', ( #258 ), #326 ) ;
#909 = UNCERTAINTY_MEASURE_WITH_UNIT (LENGTH_MEASURE( 1.000000000000000082E-05 ), #290, 'distance_accuracy_value', 'NONE');
#910 = SURFACE_STYLE_FILL_AREA ( #653 ) ;
#911 = FILL_AREA_STYLE ('',( #564 ) ) ;
#912 = CYLINDRICAL_SURFACE ( 'NONE', #978, 0.2549999999999999489 ) ;
#913 = DIRECTION ( 'NONE',  ( -1.000000000000000000, -0.000000000000000000, -0.000000000000000000 ) ) ;
#914 = CARTESIAN_POINT ( 'NONE',  ( 3.362617346942188501, 2.204658939081763691, 0.000000000000000000 ) ) ;
#915 =( NAMED_UNIT ( * ) PLANE_ANGLE_UNIT ( ) SI_UNIT ( $, .RADIAN. ) );
#916 = DIRECTION ( 'NONE',  ( -1.000000000000000000, 0.000000000000000000, 0.000000000000000000 ) ) ;
#917 = DIRECTION ( 'NONE',  ( -1.000000000000000000, -0.000000000000000000, -0.000000000000000000 ) ) ;
#918 = CARTESIAN_POINT ( 'NONE',  ( 10.16000000000000192, -3.000000000000000000, 0.000000000000000000 ) ) ;
#919 = DIRECTION ( 'NONE',  ( 1.000000000000000000, 0.000000000000000000, 0.000000000000000000 ) ) ;
#920 = ADVANCED_FACE ( 'NONE', ( #444 ), #320, .T. ) ;
#921 = UNCERTAINTY_MEASURE_WITH_UNIT (LENGTH_MEASURE( 1.000000000000000082E-05 ), #640, 'distance_accuracy_value', 'NONE');
#922 = DIRECTION ( 'NONE',  ( -1.000000000000000000, -0.000000000000000000, -0.000000000000000000 ) ) ;
#923 = AXIS2_PLACEMENT_3D ( 'NONE', #442, #621, #971 ) ;
#924 =( NAMED_UNIT ( * ) PLANE_ANGLE_UNIT ( ) SI_UNIT ( $, .RADIAN. ) );
#925 = AXIS2_PLACEMENT_3D ( 'NONE', #764, #1098, #331 ) ;
#926 = PRESENTATION_LAYER_ASSIGNMENT (  '', '', ( #441 ) ) ;
#927 =( GEOMETRIC_REPRESENTATION_CONTEXT ( 3 ) GLOBAL_UNCERTAINTY_ASSIGNED_CONTEXT ( ( #975 ) ) GLOBAL_UNIT_ASSIGNED_CONTEXT ( ( #932, #498, #397 ) ) REPRESENTATION_CONTEXT ( 'NONE', 'WORKASPACE' ) );
#928 = CIRCLE ( 'NONE', #1060, 1.609365052918086292 ) ;
#929 = EDGE_CURVE ( 'NONE', #127, #351, #585, .T. ) ;
#930 = VECTOR ( 'NONE', #963, 1000.000000000000000 ) ;
#931 =( NAMED_UNIT ( * ) PLANE_ANGLE_UNIT ( ) SI_UNIT ( $, .RADIAN. ) );
#932 =( LENGTH_UNIT ( ) NAMED_UNIT ( * ) SI_UNIT ( .MILLI., .METRE. ) );
#933 = CARTESIAN_POINT ( 'NONE',  ( -10.16000000000000192, -3.000000000000000000, 0.000000000000000000 ) ) ;
#934 = FILL_AREA_STYLE ('',( #317 ) ) ;
#935 = CARTESIAN_POINT ( 'NONE',  ( -3.556190395207061261, 2.609365052918086292, 0.000000000000000000 ) ) ;
#936 = ORIENTED_EDGE ( 'NONE', *, *, #461, .F. ) ;
#937 = CARTESIAN_POINT ( 'NONE',  ( 1.804968851620622594, 2.609365052918086292, 0.000000000000000000 ) ) ;
#938 = DIRECTION ( 'NONE',  ( 1.000000000000000000, 0.000000000000000000, 0.000000000000000000 ) ) ;
#939 = CARTESIAN_POINT ( 'NONE',  ( -3.362617346942187613, 3.014071166754408448, 1.233262903810380613E-16 ) ) ;
#940 = CARTESIAN_POINT ( 'NONE',  ( 1.804968851620623482, 2.609365052918086292, -1.609365052918086292 ) ) ;
#941 = DIRECTION ( 'NONE',  ( 0.000000000000000000, 0.000000000000000000, -1.000000000000000000 ) ) ;
#942 = DIRECTION ( 'NONE',  ( 1.000000000000000000, 0.000000000000000000, 0.000000000000000000 ) ) ;
#943 = CIRCLE ( 'NONE', #101, 0.2549999999999999489 ) ;
#944 = DIRECTION ( 'NONE',  ( -1.000000000000000000, 0.000000000000000000, 0.000000000000000000 ) ) ;
#945 = CIRCLE ( 'NONE', #882, 0.2549999999999999489 ) ;
#946 = CIRCLE ( 'NONE', #1079, 0.2549999999999999489 ) ;
#947 = AXIS2_PLACEMENT_3D ( 'NONE', #390, #922, #160 ) ;
#948 = PRESENTATION_LAYER_ASSIGNMENT (  '', '', ( #131 ) ) ;
#949 = CIRCLE ( 'NONE', #781, 1.609365052918086070 ) ;
#950 = VERTEX_POINT ( 'NONE', #657 ) ;
#951 =( NAMED_UNIT ( * ) SI_UNIT ( $, .STERADIAN. ) SOLID_ANGLE_UNIT ( ) );
#952 = VERTEX_POINT ( 'NONE', #482 ) ;
#953 = FILL_AREA_STYLE ('',( #420 ) ) ;
#954 = VERTEX_POINT ( 'NONE', #939 ) ;
#955 = SURFACE_STYLE_FILL_AREA ( #953 ) ;
#956 = COLOUR_RGB ( '',0.8980392156862745390, 0.9176470588235293713, 0.9294117647058823817 ) ;
#957 = EDGE_CURVE ( 'NONE', #239, #12, #519, .T. ) ;
#958 = TOROIDAL_SURFACE ( 'NONE', #759, 1.000000000000000000, 0.2549999999999999489 ) ;
#959 =( GEOMETRIC_REPRESENTATION_CONTEXT ( 3 ) GLOBAL_UNCERTAINTY_ASSIGNED_CONTEXT ( ( #909 ) ) GLOBAL_UNIT_ASSIGNED_CONTEXT ( ( #290, #548, #77 ) ) REPRESENTATION_CONTEXT ( 'NONE', 'WORKASPACE' ) );
#960 = ORIENTED_EDGE ( 'NONE', *, *, #250, .T. ) ;
#961 = FACE_OUTER_BOUND ( 'NONE', #1048, .T. ) ;
#962 = EDGE_LOOP ( 'NONE', ( #9, #512, #403, #684, #82, #682 ) ) ;
#963 = DIRECTION ( 'NONE',  ( -3.763476001707854080E-16, -1.000000000000000000, 0.000000000000000000 ) ) ;
#964 = SURFACE_STYLE_FILL_AREA ( #613 ) ;
#965 = EDGE_CURVE ( 'NONE', #602, #767, #47, .T. ) ;
#966 = ORIENTED_EDGE ( 'NONE', *, *, #783, .T. ) ;
#967 = SURFACE_STYLE_FILL_AREA ( #368 ) ;
#968 = EDGE_LOOP ( 'NONE', ( #681, #776, #235, #300, #695 ) ) ;
#969 = ADVANCED_FACE ( 'NONE', ( #233 ), #500, .T. ) ;
#970 = EDGE_LOOP ( 'NONE', ( #744, #44, #966, #885, #193 ) ) ;
#971 = DIRECTION ( 'NONE',  ( 0.000000000000000000, 0.000000000000000000, 1.000000000000000000 ) ) ;
#972 = DIRECTION ( 'NONE',  ( -0.000000000000000000, 1.000000000000000000, 1.224646799147353207E-16 ) ) ;
#973 = SURFACE_STYLE_USAGE ( .BOTH. , #623 ) ;
#974 = EDGE_LOOP ( 'NONE', ( #1112, #85, #857, #271, #799 ) ) ;
#975 = UNCERTAINTY_MEASURE_WITH_UNIT (LENGTH_MEASURE( 1.000000000000000082E-05 ), #932, 'distance_accuracy_value', 'NONE');
#976 = STYLED_ITEM ( 'NONE', ( #238 ), #345 ) ;
#977 = AXIS2_PLACEMENT_3D ( 'NONE', #1066, #876, #728 ) ;
#978 = AXIS2_PLACEMENT_3D ( 'NONE', #1089, #917, #168 ) ;
#979 = CIRCLE ( 'NONE', #309, 1.609365052918086070 ) ;
#980 =( NAMED_UNIT ( * ) SI_UNIT ( $, .STERADIAN. ) SOLID_ANGLE_UNIT ( ) );
#981 = CIRCLE ( 'NONE', #310, 0.7449999999999991074 ) ;
#982 = SURFACE_SIDE_STYLE ('',( #1051 ) ) ;
#983 = DIRECTION ( 'NONE',  ( 1.000000000000000000, 0.000000000000000000, 0.000000000000000000 ) ) ;
#984 = DIRECTION ( 'NONE',  ( 0.000000000000000000, -1.000000000000000000, 0.000000000000000000 ) ) ;
#985 = CARTESIAN_POINT ( 'NONE',  ( -9.905000000000001137, 1.609365052918086292, 0.000000000000000000 ) ) ;
#986 =( LENGTH_UNIT ( ) NAMED_UNIT ( * ) SI_UNIT ( .MILLI., .METRE. ) );
#987 = CARTESIAN_POINT ( 'NONE',  ( 10.41500000000000092, 1.609365052918086292, 0.000000000000000000 ) ) ;
#988 = CARTESIAN_POINT ( 'NONE',  ( 3.556190395207061261, 2.609365052918086292, -0.2549999999999999489 ) ) ;
#989 = ADVANCED_FACE ( 'NONE', ( #961 ), #958, .T. ) ;
#990 =( LENGTH_UNIT ( ) NAMED_UNIT ( * ) SI_UNIT ( .MILLI., .METRE. ) );
#991 = FACE_OUTER_BOUND ( 'NONE', #993, .T. ) ;
#992 =( NAMED_UNIT ( * ) SI_UNIT ( $, .STERADIAN. ) SOLID_ANGLE_UNIT ( ) );
#993 = EDGE_LOOP ( 'NONE', ( #870, #618, #17, #486, #329, #570 ) ) ;
#994 = ADVANCED_FACE ( 'NONE', ( #260 ), #489, .F. ) ;
#995 = CIRCLE ( 'NONE', #3, 0.4047061138363222121 ) ;
#996 = MECHANICAL_DESIGN_GEOMETRIC_PRESENTATION_REPRESENTATION (  '', ( #851 ), #241 ) ;
#997 = TOROIDAL_SURFACE ( 'NONE', #243, 0.4550000000000005151, 0.2000000000000004829 ) ;
#998 = CARTESIAN_POINT ( 'NONE',  ( -3.556190395207061261, 2.609365052918086292, 0.000000000000000000 ) ) ;
#999 = CARTESIAN_POINT ( 'NONE',  ( -9.160000000000001918, 2.609365052918086292, -0.2549999999999999489 ) ) ;
#1000 = DIRECTION ( 'NONE',  ( 2.832769448823989808E-16, -1.000000000000000000, 0.000000000000000000 ) ) ;
#1001 = SURFACE_SIDE_STYLE ('',( #705 ) ) ;
#1002 = SURFACE_SIDE_STYLE ('',( #910 ) ) ;
#1003 = CARTESIAN_POINT ( 'NONE',  ( 1.804968851620622594, 2.609365052918086292, 0.000000000000000000 ) ) ;
#1004 = EDGE_CURVE ( 'NONE', #1035, #418, #679, .T. ) ;
#1005 = DIRECTION ( 'NONE',  ( 2.832769448823989808E-16, -1.000000000000000000, 0.000000000000000000 ) ) ;
#1006 = DIRECTION ( 'NONE',  ( 0.000000000000000000, 0.000000000000000000, 1.000000000000000000 ) ) ;
#1007 = ORIENTED_EDGE ( 'NONE', *, *, #586, .F. ) ;
#1008 = PRESENTATION_STYLE_ASSIGNMENT (( #400 ) ) ;
#1009 =( NAMED_UNIT ( * ) SI_UNIT ( $, .STERADIAN. ) SOLID_ANGLE_UNIT ( ) );
#1010 = DIRECTION ( 'NONE',  ( -1.000000000000000000, -0.000000000000000000, -0.000000000000000000 ) ) ;
#1011 = APPLICATION_CONTEXT ( 'automotive_design' ) ;
#1012 = FACE_OUTER_BOUND ( 'NONE', #411, .T. ) ;
#1013 = FILL_AREA_STYLE ('',( #69 ) ) ;
#1014 = CIRCLE ( 'NONE', #503, 1.609365052918086292 ) ;
#1015 = COLOUR_RGB ( '',0.8980392156862745390, 0.9176470588235293713, 0.9294117647058823817 ) ;
#1016 = TOROIDAL_SURFACE ( 'NONE', #691, 1.000000000000000000, 0.2549999999999999489 ) ;
#1017 = PRESENTATION_STYLE_ASSIGNMENT (( #57 ) ) ;
#1018 = ADVANCED_FACE ( 'NONE', ( #346 ), #894, .T. ) ;
#1019 = MECHANICAL_DESIGN_GEOMETRIC_PRESENTATION_REPRESENTATION (  '', ( #356 ), #31 ) ;
#1020 = DIRECTION ( 'NONE',  ( 0.000000000000000000, 0.000000000000000000, 1.000000000000000000 ) ) ;
#1021 = ADVANCED_FACE ( 'NONE', ( #599 ), #805, .T. ) ;
#1022 = UNCERTAINTY_MEASURE_WITH_UNIT (LENGTH_MEASURE( 1.000000000000000082E-05 ), #42, 'distance_accuracy_value', 'NONE');
#1023 = ORIENTED_EDGE ( 'NONE', *, *, #298, .F. ) ;
#1024 = DIRECTION ( 'NONE',  ( -1.000000000000000000, -0.000000000000000000, -0.000000000000000000 ) ) ;
#1025 = AXIS2_PLACEMENT_3D ( 'NONE', #784, #434, #1040 ) ;
#1026 = TOROIDAL_SURFACE ( 'NONE', #413, 1.000000000000000000, 0.2549999999999999489 ) ;
#1027 = EDGE_LOOP ( 'NONE', ( #180, #179, #344, #81, #802, #161 ) ) ;
#1028 = MECHANICAL_DESIGN_GEOMETRIC_PRESENTATION_REPRESENTATION (  '', ( #673 ), #534 ) ;
#1029 = AXIS2_PLACEMENT_3D ( 'NONE', #856, #515, #341 ) ;
#1030 =( GEOMETRIC_REPRESENTATION_CONTEXT ( 3 ) GLOBAL_UNCERTAINTY_ASSIGNED_CONTEXT ( ( #460 ) ) GLOBAL_UNIT_ASSIGNED_CONTEXT ( ( #409, #1087, #74 ) ) REPRESENTATION_CONTEXT ( 'NONE', 'WORKASPACE' ) );
#1031 = ORIENTED_EDGE ( 'NONE', *, *, #86, .T. ) ;
#1032 = FILL_AREA_STYLE_COLOUR ( '', #663 ) ;
#1033 = CARTESIAN_POINT ( 'NONE',  ( 9.160000000000001918, 2.609365052918086292, -0.2549999999999999489 ) ) ;
#1034 = VERTEX_POINT ( 'NONE', #801 ) ;
#1035 = VERTEX_POINT ( 'NONE', #549 ) ;
#1036 = EDGE_CURVE ( 'NONE', #351, #1034, #678, .T. ) ;
#1037 = VERTEX_POINT ( 'NONE', #273 ) ;
#1038 = ORIENTED_EDGE ( 'NONE', *, *, #236, .T. ) ;
#1039 = LINE ( 'NONE', #619, #155 ) ;
#1040 = DIRECTION ( 'NONE',  ( 0.000000000000000000, 0.000000000000000000, 1.000000000000000000 ) ) ;
#1041 = EDGE_CURVE ( 'NONE', #574, #239, #440, .T. ) ;
#1042 = DIRECTION ( 'NONE',  ( 0.000000000000000000, 0.000000000000000000, 1.000000000000000000 ) ) ;
#1043 =( GEOMETRIC_REPRESENTATION_CONTEXT ( 3 ) GLOBAL_UNCERTAINTY_ASSIGNED_CONTEXT ( ( #639 ) ) GLOBAL_UNIT_ASSIGNED_CONTEXT ( ( #333, #771, #313 ) ) REPRESENTATION_CONTEXT ( 'NONE', 'WORKASPACE' ) );
#1044 = PRESENTATION_LAYER_ASSIGNMENT (  '', '', ( #506 ) ) ;
#1045 = AXIS2_PLACEMENT_3D ( 'NONE', #379, #643, #455 ) ;
#1046 = ORIENTED_EDGE ( 'NONE', *, *, #866, .F. ) ;
#1047 = DIRECTION ( 'NONE',  ( 0.000000000000000000, 0.000000000000000000, -1.000000000000000000 ) ) ;
#1048 = EDGE_LOOP ( 'NONE', ( #960, #1085, #671, #872, #97 ) ) ;
#1049 = UNCERTAINTY_MEASURE_WITH_UNIT (LENGTH_MEASURE( 1.000000000000000082E-05 ), #36, 'distance_accuracy_value', 'NONE');
#1050 = ORIENTED_EDGE ( 'NONE', *, *, #668, .T. ) ;
#1051 = SURFACE_STYLE_FILL_AREA ( #886 ) ;
#1052 = FILL_AREA_STYLE_COLOUR ( '', #387 ) ;
#1053 = DIRECTION ( 'NONE',  ( 0.000000000000000000, 0.000000000000000000, -1.000000000000000000 ) ) ;
#1054 = CARTESIAN_POINT ( 'NONE',  ( -9.905000000000001137, 1.609365052918086292, 0.000000000000000000 ) ) ;
#1055 = DIRECTION ( 'NONE',  ( -1.000000000000000000, -0.000000000000000000, -0.000000000000000000 ) ) ;
#1056 = AXIS2_PLACEMENT_3D ( 'NONE', #933, #495, #65 ) ;
#1057 = UNCERTAINTY_MEASURE_WITH_UNIT (LENGTH_MEASURE( 1.000000000000000082E-05 ), #656, 'distance_accuracy_value', 'NONE');
#1058 = PRESENTATION_STYLE_ASSIGNMENT (( #449 ) ) ;
#1059 = DIRECTION ( 'NONE',  ( -1.000000000000000000, -0.000000000000000000, -0.000000000000000000 ) ) ;
#1060 = AXIS2_PLACEMENT_3D ( 'NONE', #890, #459, #23 ) ;
#1061 = CIRCLE ( 'NONE', #815, 0.2549999999999999489 ) ;
#1062 = EDGE_CURVE ( 'NONE', #332, #1037, #946, .T. ) ;
#1063 = CYLINDRICAL_SURFACE ( 'NONE', #203, 0.2549999999999999489 ) ;
#1064 = SURFACE_STYLE_FILL_AREA ( #535 ) ;
#1065 =( LENGTH_UNIT ( ) NAMED_UNIT ( * ) SI_UNIT ( .MILLI., .METRE. ) );
#1066 = CARTESIAN_POINT ( 'NONE',  ( -1.804968851620623482, 2.609365052918086292, 0.000000000000000000 ) ) ;
#1067 = DIRECTION ( 'NONE',  ( 2.832769448823989808E-16, -1.000000000000000000, 0.000000000000000000 ) ) ;
#1068 = LINE ( 'NONE', #19, #488 ) ;
#1069 = EDGE_CURVE ( 'NONE', #127, #467, #107, .T. ) ;
#1070 = VERTEX_POINT ( 'NONE', #1054 ) ;
#1071 = FACE_OUTER_BOUND ( 'NONE', #190, .T. ) ;
#1072 = SURFACE_STYLE_FILL_AREA ( #1013 ) ;
#1073 = DIRECTION ( 'NONE',  ( 0.000000000000000000, 0.000000000000000000, 1.000000000000000000 ) ) ;
#1074 = FILL_AREA_STYLE ('',( #33 ) ) ;
#1075 = FILL_AREA_STYLE ('',( #138 ) ) ;
#1076 =( LENGTH_UNIT ( ) NAMED_UNIT ( * ) SI_UNIT ( .MILLI., .METRE. ) );
#1077 = ADVANCED_FACE ( 'NONE', ( #991 ), #148, .T. ) ;
#1078 = MECHANICAL_DESIGN_GEOMETRIC_PRESENTATION_REPRESENTATION (  '', ( #689 ), #530 ) ;
#1079 = AXIS2_PLACEMENT_3D ( 'NONE', #202, #626, #891 ) ;
#1080 = CIRCLE ( 'NONE', #28, 1.609365052918086292 ) ;
#1081 = SHAPE_DEFINITION_REPRESENTATION ( #532, #189 ) ;
#1082 = PRODUCT_DEFINITION_FORMATION_WITH_SPECIFIED_SOURCE ( 'ANY', '', #145, .NOT_KNOWN. ) ;
#1083 = MECHANICAL_DESIGN_GEOMETRIC_PRESENTATION_REPRESENTATION (  '', ( #177 ), #1030 ) ;
#1084 = DIRECTION ( 'NONE',  ( 1.000000000000000000, 0.000000000000000000, 0.000000000000000000 ) ) ;
#1085 = ORIENTED_EDGE ( 'NONE', *, *, #522, .T. ) ;
#1086 = SURFACE_STYLE_USAGE ( .BOTH. , #301 ) ;
#1087 =( NAMED_UNIT ( * ) PLANE_ANGLE_UNIT ( ) SI_UNIT ( $, .RADIAN. ) );
#1088 = DIRECTION ( 'NONE',  ( -1.000000000000000000, -0.000000000000000000, -0.000000000000000000 ) ) ;
#1089 = CARTESIAN_POINT ( 'NONE',  ( 9.160000000000001918, 2.609365052918086292, 0.000000000000000000 ) ) ;
#1090 = SURFACE_STYLE_USAGE ( .BOTH. , #750 ) ;
#1091 = PRESENTATION_STYLE_ASSIGNMENT (( #404 ) ) ;
#1092 = CARTESIAN_POINT ( 'NONE',  ( -9.160000000000001918, 1.609365052918086292, -3.122849337825749926E-17 ) ) ;
#1093 = CIRCLE ( 'NONE', #900, 0.2549999999999999489 ) ;
#1094 = DIRECTION ( 'NONE',  ( -1.000000000000000000, -0.000000000000000000, -0.000000000000000000 ) ) ;
#1095 = EDGE_CURVE ( 'NONE', #437, #127, #6, .T. ) ;
#1096 = AXIS2_PLACEMENT_3D ( 'NONE', #727, #1059, #798 ) ;
#1097 = VERTEX_POINT ( 'NONE', #647 ) ;
#1098 = DIRECTION ( 'NONE',  ( 3.763476001707854080E-16, -1.000000000000000000, 0.000000000000000000 ) ) ;
#1099 = CARTESIAN_POINT ( 'NONE',  ( 3.362617346942188501, 2.609365052918086292, 0.000000000000000000 ) ) ;
#1100 = CARTESIAN_POINT ( 'NONE',  ( 9.160000000000001918, 1.609365052918086292, 3.122849337825749926E-17 ) ) ;
#1101 = DIRECTION ( 'NONE',  ( 1.000000000000000000, 0.000000000000000000, 0.000000000000000000 ) ) ;
#1102 = UNCERTAINTY_MEASURE_WITH_UNIT (LENGTH_MEASURE( 1.000000000000000082E-05 ), #164, 'distance_accuracy_value', 'NONE');
#1103 = EDGE_LOOP ( 'NONE', ( #877, #568, #192, #2, #196 ) ) ;
#1104 = CARTESIAN_POINT ( 'NONE',  ( -3.556190395207061261, 2.609365052918086292, 0.000000000000000000 ) ) ;
#1105 = CIRCLE ( 'NONE', #412, 1.609365052918086070 ) ;
#1106 =( GEOMETRIC_REPRESENTATION_CONTEXT ( 3 ) GLOBAL_UNCERTAINTY_ASSIGNED_CONTEXT ( ( #447 ) ) GLOBAL_UNIT_ASSIGNED_CONTEXT ( ( #774, #597, #191 ) ) REPRESENTATION_CONTEXT ( 'NONE', 'WORKASPACE' ) );
#1107 = ORIENTED_EDGE ( 'NONE', *, *, #1004, .T. ) ;
#1108 = VECTOR ( 'NONE', #303, 1000.000000000000000 ) ;
#1109 = PRESENTATION_STYLE_ASSIGNMENT (( #421 ) ) ;
#1110 = COLOUR_RGB ( '',0.8980392156862745390, 0.9176470588235293713, 0.9294117647058823817 ) ;
#1111 = ADVANCED_FACE ( 'NONE', ( #848 ), #912, .T. ) ;
#1112 = ORIENTED_EDGE ( 'NONE', *, *, #30, .F. ) ;
#1113 = PRESENTATION_STYLE_ASSIGNMENT (( #94 ) ) ;
#1114 = CARTESIAN_POINT ( 'NONE',  ( -3.362617346942187613, 2.609365052918086292, 0.000000000000000000 ) ) ;
#1115 = ORIENTED_EDGE ( 'NONE', *, *, #522, .F. ) ;
#1116 = ORIENTED_EDGE ( 'NONE', *, *, #1036, .T. ) ;
#1117 =( NAMED_UNIT ( * ) PLANE_ANGLE_UNIT ( ) SI_UNIT ( $, .RADIAN. ) );
ENDSEC;
END-ISO-10303-21;
