ISO-10303-21;
HEADER;
FILE_DESCRIPTION (( 'STEP AP214' ),
    '1' );
FILE_NAME ('Capacitor Ceramic No Polarity axial 12.70.STEP',
    '2026-02-18T23:27:48',
    ( '' ),
    ( '' ),
    'SwSTEP 2.0',
    'SolidWorks 2026',
    '' );
FILE_SCHEMA (( 'AUTOMOTIVE_DESIGN' ));
ENDSEC;

DATA;
#1 = CIRCLE ( 'NONE', #218, 0.2549999999999999489 ) ;
#2 = CARTESIAN_POINT ( 'NONE',  ( -3.556190395207061261, 2.609365052918086292, 0.000000000000000000 ) ) ;
#3 = ORIENTED_EDGE ( 'NONE', *, *, #174, .T. ) ;
#4 =( NAMED_UNIT ( * ) PLANE_ANGLE_UNIT ( ) SI_UNIT ( $, .RADIAN. ) );
#5 = DIRECTION ( 'NONE',  ( 0.000000000000000000, -1.000000000000000000, -1.224646799147353207E-16 ) ) ;
#6 = VERTEX_POINT ( 'NONE', #208 ) ;
#7 = DIRECTION ( 'NONE',  ( -0.000000000000000000, -0.000000000000000000, -1.000000000000000000 ) ) ;
#8 =( GEOMETRIC_REPRESENTATION_CONTEXT ( 3 ) GLOBAL_UNCERTAINTY_ASSIGNED_CONTEXT ( ( #836 ) ) GLOBAL_UNIT_ASSIGNED_CONTEXT ( ( #580, #175, #766 ) ) REPRESENTATION_CONTEXT ( 'NONE', 'WORKASPACE' ) );
#9 = AXIS2_PLACEMENT_3D ( 'NONE', #993, #988, #724 ) ;
#10 = ORIENTED_EDGE ( 'NONE', *, *, #553, .T. ) ;
#11 = DIRECTION ( 'NONE',  ( 1.000000000000000000, 0.000000000000000000, 0.000000000000000000 ) ) ;
#12 = AXIS2_PLACEMENT_3D ( 'NONE', #269, #543, #953 ) ;
#13 = CARTESIAN_POINT ( 'NONE',  ( 1.804968851620622594, 2.609365052918086292, 0.000000000000000000 ) ) ;
#14 = CARTESIAN_POINT ( 'NONE',  ( 5.350000000000000533, 2.609365052918086292, 0.000000000000000000 ) ) ;
#15 = ORIENTED_EDGE ( 'NONE', *, *, #155, .T. ) ;
#16 = ORIENTED_EDGE ( 'NONE', *, *, #784, .F. ) ;
#17 = SURFACE_SIDE_STYLE ('',( #24 ) ) ;
#18 = EDGE_LOOP ( 'NONE', ( #89, #130, #767, #608 ) ) ;
#19 = DIRECTION ( 'NONE',  ( -1.000000000000000000, -0.000000000000000000, -0.000000000000000000 ) ) ;
#20 = ORIENTED_EDGE ( 'NONE', *, *, #347, .F. ) ;
#21 = CIRCLE ( 'NONE', #706, 1.609365052918086292 ) ;
#22 = CYLINDRICAL_SURFACE ( 'NONE', #148, 1.609365052918086292 ) ;
#23 = EDGE_CURVE ( 'NONE', #631, #452, #598, .T. ) ;
#24 = SURFACE_STYLE_FILL_AREA ( #125 ) ;
#25 = ORIENTED_EDGE ( 'NONE', *, *, #698, .T. ) ;
#26 = MANIFOLD_SOLID_BREP ( 'Mirror1', #73 ) ;
#27 =( NAMED_UNIT ( * ) SI_UNIT ( $, .STERADIAN. ) SOLID_ANGLE_UNIT ( ) );
#28 = SURFACE_SIDE_STYLE ('',( #723 ) ) ;
#29 = CIRCLE ( 'NONE', #955, 0.2549999999999999489 ) ;
#30 = STYLED_ITEM ( 'NONE', ( #612 ), #187 ) ;
#31 = PRODUCT_CONTEXT ( 'NONE', #872, 'mechanical' ) ;
#32 = PRESENTATION_LAYER_ASSIGNMENT (  '', '', ( #98 ) ) ;
#33 = FILL_AREA_STYLE ('',( #796 ) ) ;
#34 = VERTEX_POINT ( 'NONE', #369 ) ;
#35 = CARTESIAN_POINT ( 'NONE',  ( 5.350000000000000533, 2.609365052918086292, 0.000000000000000000 ) ) ;
#36 = PLANE ( 'NONE',  #99 ) ;
#37 = CARTESIAN_POINT ( 'NONE',  ( -6.349999999999999645, 1.609365052918087180, 0.000000000000000000 ) ) ;
#38 =( LENGTH_UNIT ( ) NAMED_UNIT ( * ) SI_UNIT ( .MILLI., .METRE. ) );
#39 =( NAMED_UNIT ( * ) PLANE_ANGLE_UNIT ( ) SI_UNIT ( $, .RADIAN. ) );
#40 = EDGE_CURVE ( 'NONE', #944, #34, #893, .T. ) ;
#41 = DIRECTION ( 'NONE',  ( -3.763476001707854080E-16, -1.000000000000000000, 0.000000000000000000 ) ) ;
#42 = PRESENTATION_STYLE_ASSIGNMENT (( #806 ) ) ;
#43 = SURFACE_STYLE_FILL_AREA ( #33 ) ;
#44 = ORIENTED_EDGE ( 'NONE', *, *, #841, .T. ) ;
#45 =( NAMED_UNIT ( * ) SI_UNIT ( $, .STERADIAN. ) SOLID_ANGLE_UNIT ( ) );
#46 = VERTEX_POINT ( 'NONE', #115 ) ;
#47 = PRESENTATION_LAYER_ASSIGNMENT (  '', '', ( #476 ) ) ;
#48 = COLOUR_RGB ( '',0.8980392156862745390, 0.9176470588235293713, 0.9294117647058823817 ) ;
#49 =( GEOMETRIC_REPRESENTATION_CONTEXT ( 3 ) GLOBAL_UNCERTAINTY_ASSIGNED_CONTEXT ( ( #820 ) ) GLOBAL_UNIT_ASSIGNED_CONTEXT ( ( #185, #861, #611 ) ) REPRESENTATION_CONTEXT ( 'NONE', 'WORKASPACE' ) );
#50 = LINE ( 'NONE', #392, #333 ) ;
#51 = STYLED_ITEM ( 'NONE', ( #984 ), #668 ) ;
#52 = CARTESIAN_POINT ( 'NONE',  ( 5.350000000000000533, 1.609365052918086292, 0.000000000000000000 ) ) ;
#53 = CARTESIAN_POINT ( 'NONE',  ( -5.350000000000000533, 2.609365052918086292, 0.000000000000000000 ) ) ;
#54 = CIRCLE ( 'NONE', #948, 0.2549999999999999489 ) ;
#55 = EDGE_CURVE ( 'NONE', #274, #929, #1032, .T. ) ;
#56 = DIRECTION ( 'NONE',  ( 1.000000000000000000, -0.000000000000000000, -0.000000000000000000 ) ) ;
#57 = DIRECTION ( 'NONE',  ( 0.000000000000000000, 0.000000000000000000, 1.000000000000000000 ) ) ;
#58 = DIRECTION ( 'NONE',  ( 2.832769448823989808E-16, 1.000000000000000000, -0.000000000000000000 ) ) ;
#59 = CIRCLE ( 'NONE', #75, 0.2549999999999999489 ) ;
#60 = STYLED_ITEM ( 'NONE', ( #229 ), #233 ) ;
#61 = SURFACE_STYLE_USAGE ( .BOTH. , #489 ) ;
#62 = CIRCLE ( 'NONE', #979, 1.609365052918086292 ) ;
#63 = PRESENTATION_STYLE_ASSIGNMENT (( #811 ) ) ;
#64 =( NAMED_UNIT ( * ) SI_UNIT ( $, .STERADIAN. ) SOLID_ANGLE_UNIT ( ) );
#65 = FACE_OUTER_BOUND ( 'NONE', #1065, .T. ) ;
#66 = CARTESIAN_POINT ( 'NONE',  ( -5.350000000000000533, 2.609365052918086292, 0.000000000000000000 ) ) ;
#67 = DIRECTION ( 'NONE',  ( -1.000000000000000000, -0.000000000000000000, -0.000000000000000000 ) ) ;
#68 = EDGE_CURVE ( 'NONE', #350, #244, #547, .T. ) ;
#69 = DIRECTION ( 'NONE',  ( 0.000000000000000000, -1.000000000000000000, 0.000000000000000000 ) ) ;
#70 = ORIENTED_EDGE ( 'NONE', *, *, #155, .F. ) ;
#71 = SURFACE_STYLE_FILL_AREA ( #484 ) ;
#72 = DIRECTION ( 'NONE',  ( -0.000000000000000000, 0.000000000000000000, 1.000000000000000000 ) ) ;
#73 = CLOSED_SHELL ( 'NONE', ( #479, #742, #371, #109, #187, #232, #480, #465, #926, #770, #233, #668, #1047, #888, #918, #360, #632, #654, #540, #146, #1057, #910, #981, #334 ) ) ;
#74 = DIRECTION ( 'NONE',  ( 0.000000000000000000, 0.000000000000000000, -1.000000000000000000 ) ) ;
#75 = AXIS2_PLACEMENT_3D ( 'NONE', #66, #1028, #74 ) ;
#76 = ORIENTED_EDGE ( 'NONE', *, *, #738, .F. ) ;
#77 = MECHANICAL_DESIGN_GEOMETRIC_PRESENTATION_REPRESENTATION (  '', ( #30 ), #1091 ) ;
#78 = UNCERTAINTY_MEASURE_WITH_UNIT (LENGTH_MEASURE( 1.000000000000000082E-05 ), #317, 'distance_accuracy_value', 'NONE');
#79 =( LENGTH_UNIT ( ) NAMED_UNIT ( * ) SI_UNIT ( .MILLI., .METRE. ) );
#80 =( GEOMETRIC_REPRESENTATION_CONTEXT ( 3 ) GLOBAL_UNCERTAINTY_ASSIGNED_CONTEXT ( ( #151 ) ) GLOBAL_UNIT_ASSIGNED_CONTEXT ( ( #707, #961, #871 ) ) REPRESENTATION_CONTEXT ( 'NONE', 'WORKASPACE' ) );
#81 = MECHANICAL_DESIGN_GEOMETRIC_PRESENTATION_REPRESENTATION (  '', ( #1076 ), #959 ) ;
#82 = COLOUR_RGB ( '',0.8980392156862745390, 0.9176470588235293713, 0.9294117647058823817 ) ;
#83 = EDGE_CURVE ( 'NONE', #335, #186, #898, .T. ) ;
#84 = EDGE_CURVE ( 'NONE', #279, #823, #59, .T. ) ;
#85 = DIRECTION ( 'NONE',  ( 2.832769448823989808E-16, -1.000000000000000000, 0.000000000000000000 ) ) ;
#86 = EDGE_LOOP ( 'NONE', ( #772, #256, #526, #10, #849 ) ) ;
#87 = DIRECTION ( 'NONE',  ( 0.000000000000000000, 0.000000000000000000, 1.000000000000000000 ) ) ;
#88 = PRESENTATION_STYLE_ASSIGNMENT (( #321 ) ) ;
#89 = ORIENTED_EDGE ( 'NONE', *, *, #941, .F. ) ;
#90 = VERTEX_POINT ( 'NONE', #1011 ) ;
#91 = DIRECTION ( 'NONE',  ( -1.000000000000000000, -0.000000000000000000, -0.000000000000000000 ) ) ;
#92 = ORIENTED_EDGE ( 'NONE', *, *, #853, .T. ) ;
#93 = DIRECTION ( 'NONE',  ( -1.000000000000000000, -0.000000000000000000, -0.000000000000000000 ) ) ;
#94 = EDGE_CURVE ( 'NONE', #195, #685, #713, .T. ) ;
#95 = ORIENTED_EDGE ( 'NONE', *, *, #525, .F. ) ;
#96 = DIRECTION ( 'NONE',  ( -1.000000000000000000, -0.000000000000000000, -0.000000000000000000 ) ) ;
#97 = VECTOR ( 'NONE', #895, 1000.000000000000000 ) ;
#98 = STYLED_ITEM ( 'NONE', ( #265 ), #981 ) ;
#99 = AXIS2_PLACEMENT_3D ( 'NONE', #415, #153, #315 ) ;
#100 = ORIENTED_EDGE ( 'NONE', *, *, #630, .F. ) ;
#101 = PRESENTATION_LAYER_ASSIGNMENT (  '', '', ( #764 ) ) ;
#102 = CARTESIAN_POINT ( 'NONE',  ( 1.804968851620623482, 2.609365052918086292, 1.609365052918086292 ) ) ;
#103 = CIRCLE ( 'NONE', #736, 0.7449999999999999956 ) ;
#104 = FACE_OUTER_BOUND ( 'NONE', #1034, .T. ) ;
#105 =( NAMED_UNIT ( * ) SI_UNIT ( $, .STERADIAN. ) SOLID_ANGLE_UNIT ( ) );
#106 = SURFACE_STYLE_USAGE ( .BOTH. , #866 ) ;
#107 = PRESENTATION_STYLE_ASSIGNMENT (( #451 ) ) ;
#108 = CARTESIAN_POINT ( 'NONE',  ( 6.094999999999999751, 1.609365052918087180, 3.122849337825749926E-17 ) ) ;
#109 = ADVANCED_FACE ( 'NONE', ( #1116 ), #603, .T. ) ;
#110 = ORIENTED_EDGE ( 'NONE', *, *, #941, .T. ) ;
#111 = FACE_OUTER_BOUND ( 'NONE', #974, .T. ) ;
#112 = CYLINDRICAL_SURFACE ( 'NONE', #750, 0.2549999999999999489 ) ;
#113 = ORIENTED_EDGE ( 'NONE', *, *, #698, .F. ) ;
#114 = SURFACE_STYLE_USAGE ( .BOTH. , #299 ) ;
#115 = CARTESIAN_POINT ( 'NONE',  ( -3.556190395207061261, 2.609365052918086292, -0.2550000000000000044 ) ) ;
#116 = FACE_OUTER_BOUND ( 'NONE', #520, .T. ) ;
#117 = CARTESIAN_POINT ( 'NONE',  ( 3.556190395207061261, 2.609365052918086292, 0.000000000000000000 ) ) ;
#118 = CARTESIAN_POINT ( 'NONE',  ( -1.804968851620622594, 2.609365052918086292, 0.000000000000000000 ) ) ;
#119 = ORIENTED_EDGE ( 'NONE', *, *, #205, .F. ) ;
#120 = COLOUR_RGB ( '',0.7529411764705882248, 0.7529411764705882248, 0.000000000000000000 ) ;
#121 = CIRCLE ( 'NONE', #385, 0.4047061138363222121 ) ;
#122 = COLOUR_RGB ( '',0.8980392156862745390, 0.9176470588235293713, 0.9294117647058823817 ) ;
#123 = EDGE_CURVE ( 'NONE', #1018, #34, #291, .T. ) ;
#124 = CIRCLE ( 'NONE', #348, 1.609365052918086070 ) ;
#125 = FILL_AREA_STYLE ('',( #361 ) ) ;
#126 = EDGE_LOOP ( 'NONE', ( #292, #804, #940, #1056, #595 ) ) ;
#127 = CARTESIAN_POINT ( 'NONE',  ( 5.350000000000000533, 2.864365052918086185, 0.000000000000000000 ) ) ;
#128 = DIRECTION ( 'NONE',  ( 0.000000000000000000, 0.000000000000000000, 1.000000000000000000 ) ) ;
#129 = DIRECTION ( 'NONE',  ( -1.000000000000000000, -0.000000000000000000, -0.000000000000000000 ) ) ;
#130 = ORIENTED_EDGE ( 'NONE', *, *, #970, .T. ) ;
#131 = ORIENTED_EDGE ( 'NONE', *, *, #83, .F. ) ;
#132 = DIRECTION ( 'NONE',  ( 0.000000000000000000, 0.000000000000000000, -1.000000000000000000 ) ) ;
#133 = SURFACE_SIDE_STYLE ('',( #1082 ) ) ;
#134 = VERTEX_POINT ( 'NONE', #683 ) ;
#135 =( NAMED_UNIT ( * ) PLANE_ANGLE_UNIT ( ) SI_UNIT ( $, .RADIAN. ) );
#136 = CARTESIAN_POINT ( 'NONE',  ( 5.350000000000000533, 2.609365052918086292, 0.000000000000000000 ) ) ;
#137 = SURFACE_STYLE_USAGE ( .BOTH. , #821 ) ;
#138 = STYLED_ITEM ( 'NONE', ( #1063 ), #770 ) ;
#139 = COLOUR_RGB ( '',0.7529411764705882248, 0.7529411764705882248, 0.000000000000000000 ) ;
#140 = CARTESIAN_POINT ( 'NONE',  ( 5.350000000000000533, 1.609365052918086292, 0.000000000000000000 ) ) ;
#141 = AXIS2_PLACEMENT_3D ( 'NONE', #356, #341, #87 ) ;
#142 = PRESENTATION_LAYER_ASSIGNMENT (  '', '', ( #659 ) ) ;
#143 = CARTESIAN_POINT ( 'NONE',  ( -3.362617346942187613, 2.204658939081764135, 0.000000000000000000 ) ) ;
#144 = AXIS2_PLACEMENT_3D ( 'NONE', #787, #791, #621 ) ;
#145 = UNCERTAINTY_MEASURE_WITH_UNIT (LENGTH_MEASURE( 1.000000000000000082E-05 ), #863, 'distance_accuracy_value', 'NONE');
#146 = ADVANCED_FACE ( 'NONE', ( #1020 ), #919, .T. ) ;
#147 = DIRECTION ( 'NONE',  ( 0.000000000000000000, 0.000000000000000000, -1.000000000000000000 ) ) ;
#148 = AXIS2_PLACEMENT_3D ( 'NONE', #1070, #129, #378 ) ;
#149 = SURFACE_SIDE_STYLE ('',( #747 ) ) ;
#150 = SURFACE_SIDE_STYLE ('',( #892 ) ) ;
#151 = UNCERTAINTY_MEASURE_WITH_UNIT (LENGTH_MEASURE( 1.000000000000000082E-05 ), #707, 'distance_accuracy_value', 'NONE');
#152 =( NAMED_UNIT ( * ) SI_UNIT ( $, .STERADIAN. ) SOLID_ANGLE_UNIT ( ) );
#153 = DIRECTION ( 'NONE',  ( -2.832769448823989808E-16, -1.000000000000000000, -0.000000000000000000 ) ) ;
#154 = STYLED_ITEM ( 'NONE', ( #594 ), #146 ) ;
#155 = EDGE_CURVE ( 'NONE', #247, #439, #619, .T. ) ;
#156 = MECHANICAL_DESIGN_GEOMETRIC_PRESENTATION_REPRESENTATION (  '', ( #718 ), #80 ) ;
#157 = AXIS2_PLACEMENT_3D ( 'NONE', #140, #1073, #1080 ) ;
#158 = PRESENTATION_STYLE_ASSIGNMENT (( #243 ) ) ;
#159 = DIRECTION ( 'NONE',  ( 1.000000000000000000, 0.000000000000000000, 0.000000000000000000 ) ) ;
#160 =( GEOMETRIC_REPRESENTATION_CONTEXT ( 3 ) GLOBAL_UNCERTAINTY_ASSIGNED_CONTEXT ( ( #313 ) ) GLOBAL_UNIT_ASSIGNED_CONTEXT ( ( #357, #39, #377 ) ) REPRESENTATION_CONTEXT ( 'NONE', 'WORKASPACE' ) );
#161 = DIRECTION ( 'NONE',  ( -1.000000000000000000, -0.000000000000000000, -0.000000000000000000 ) ) ;
#162 = CARTESIAN_POINT ( 'NONE',  ( -6.349999999999999645, 1.609365052918087180, 0.000000000000000000 ) ) ;
#163 = DIRECTION ( 'NONE',  ( 0.000000000000000000, 0.000000000000000000, 1.000000000000000000 ) ) ;
#164 = CARTESIAN_POINT ( 'NONE',  ( -3.362617346942187613, 2.609365052918086292, 0.000000000000000000 ) ) ;
#165 = AXIS2_PLACEMENT_3D ( 'NONE', #1101, #69, #869 ) ;
#166 = ORIENTED_EDGE ( 'NONE', *, *, #553, .F. ) ;
#167 = FILL_AREA_STYLE_COLOUR ( '', #635 ) ;
#168 = ORIENTED_EDGE ( 'NONE', *, *, #412, .F. ) ;
#169 = VECTOR ( 'NONE', #983, 1000.000000000000000 ) ;
#170 = MECHANICAL_DESIGN_GEOMETRIC_PRESENTATION_REPRESENTATION (  '', ( #154 ), #858 ) ;
#171 = COLOUR_RGB ( '',0.7529411764705882248, 0.7529411764705882248, 0.000000000000000000 ) ;
#172 = CIRCLE ( 'NONE', #311, 0.2550000000000000044 ) ;
#173 = ORIENTED_EDGE ( 'NONE', *, *, #762, .F. ) ;
#174 = EDGE_CURVE ( 'NONE', #685, #335, #121, .T. ) ;
#175 =( NAMED_UNIT ( * ) PLANE_ANGLE_UNIT ( ) SI_UNIT ( $, .RADIAN. ) );
#176 = ORIENTED_EDGE ( 'NONE', *, *, #55, .T. ) ;
#177 = FACE_OUTER_BOUND ( 'NONE', #1026, .T. ) ;
#178 = ORIENTED_EDGE ( 'NONE', *, *, #997, .F. ) ;
#179 = EDGE_CURVE ( 'NONE', #261, #615, #1012, .T. ) ;
#180 =( NAMED_UNIT ( * ) SI_UNIT ( $, .STERADIAN. ) SOLID_ANGLE_UNIT ( ) );
#181 = VERTEX_POINT ( 'NONE', #695 ) ;
#182 = DIRECTION ( 'NONE',  ( 3.763476001707854080E-16, -1.000000000000000000, 0.000000000000000000 ) ) ;
#183 = EDGE_LOOP ( 'NONE', ( #298, #200, #604, #847, #704 ) ) ;
#184 = DIRECTION ( 'NONE',  ( 0.000000000000000000, 0.000000000000000000, -1.000000000000000000 ) ) ;
#185 =( LENGTH_UNIT ( ) NAMED_UNIT ( * ) SI_UNIT ( .MILLI., .METRE. ) );
#186 = VERTEX_POINT ( 'NONE', #198 ) ;
#187 = ADVANCED_FACE ( 'NONE', ( #201 ), #112, .T. ) ;
#188 =( NAMED_UNIT ( * ) PLANE_ANGLE_UNIT ( ) SI_UNIT ( $, .RADIAN. ) );
#189 = FILL_AREA_STYLE ('',( #614 ) ) ;
#190 = LINE ( 'NONE', #108, #528 ) ;
#191 = STYLED_ITEM ( 'NONE', ( #237 ), #888 ) ;
#192 = CIRCLE ( 'NONE', #916, 0.2549999999999999489 ) ;
#193 = COLOUR_RGB ( '',0.8980392156862745390, 0.9176470588235293713, 0.9294117647058823817 ) ;
#194 = AXIS2_PLACEMENT_3D ( 'NONE', #53, #382, #746 ) ;
#195 = VERTEX_POINT ( 'NONE', #949 ) ;
#196 = AXIS2_PLACEMENT_3D ( 'NONE', #653, #227, #573 ) ;
#197 = CARTESIAN_POINT ( 'NONE',  ( -5.350000000000000533, 2.609365052918086292, 0.000000000000000000 ) ) ;
#198 = CARTESIAN_POINT ( 'NONE',  ( -3.362617346942187613, 3.014071166754408448, 1.233262903810380613E-16 ) ) ;
#199 = PRESENTATION_STYLE_ASSIGNMENT (( #1019 ) ) ;
#200 = ORIENTED_EDGE ( 'NONE', *, *, #1033, .T. ) ;
#201 = FACE_OUTER_BOUND ( 'NONE', #609, .T. ) ;
#202 = FACE_OUTER_BOUND ( 'NONE', #249, .T. ) ;
#203 = DIRECTION ( 'NONE',  ( 0.000000000000000000, 0.000000000000000000, -1.000000000000000000 ) ) ;
#204 = DIRECTION ( 'NONE',  ( 0.000000000000000000, 0.000000000000000000, 1.000000000000000000 ) ) ;
#205 = EDGE_CURVE ( 'NONE', #790, #6, #251, .T. ) ;
#206 = ORIENTED_EDGE ( 'NONE', *, *, #563, .F. ) ;
#207 = FILL_AREA_STYLE_COLOUR ( '', #1077 ) ;
#208 = CARTESIAN_POINT ( 'NONE',  ( 6.095000000000001528, -2.999999999999999112, 3.122849337825749310E-17 ) ) ;
#209 = AXIS2_PLACEMENT_3D ( 'NONE', #714, #460, #964 ) ;
#210 = MECHANICAL_DESIGN_GEOMETRIC_PRESENTATION_REPRESENTATION (  '', ( #779 ), #1092 ) ;
#211 = MECHANICAL_DESIGN_GEOMETRIC_PRESENTATION_REPRESENTATION (  '', ( #530 ), #998 ) ;
#212 = SURFACE_STYLE_USAGE ( .BOTH. , #149 ) ;
#213 = CARTESIAN_POINT ( 'NONE',  ( 1.804968851620623482, 2.609365052918086292, 0.000000000000000000 ) ) ;
#214 = CARTESIAN_POINT ( 'NONE',  ( -5.350000000000000533, 2.354365052918086398, -3.122849337825749310E-17 ) ) ;
#215 = DIRECTION ( 'NONE',  ( 2.832769448823989808E-16, 1.000000000000000000, -0.000000000000000000 ) ) ;
#216 =( NAMED_UNIT ( * ) PLANE_ANGLE_UNIT ( ) SI_UNIT ( $, .RADIAN. ) );
#217 = FILL_AREA_STYLE ('',( #1095 ) ) ;
#218 = AXIS2_PLACEMENT_3D ( 'NONE', #282, #559, #471 ) ;
#219 = CARTESIAN_POINT ( 'NONE',  ( -5.350000000000000533, 2.609365052918086292, 0.2549999999999999489 ) ) ;
#220 =( NAMED_UNIT ( * ) SI_UNIT ( $, .STERADIAN. ) SOLID_ANGLE_UNIT ( ) );
#221 = EDGE_CURVE ( 'NONE', #823, #264, #192, .T. ) ;
#222 = CARTESIAN_POINT ( 'NONE',  ( -1.804968851620623482, 2.609365052918086292, 1.609365052918086292 ) ) ;
#223 = AXIS2_PLACEMENT_3D ( 'NONE', #426, #339, #677 ) ;
#224 = CARTESIAN_POINT ( 'NONE',  ( -1.804968851620622594, 2.609365052918086292, 0.000000000000000000 ) ) ;
#225 = AXIS2_PLACEMENT_3D ( 'NONE', #513, #1040, #945 ) ;
#226 = AXIS2_PLACEMENT_3D ( 'NONE', #690, #1031, #253 ) ;
#227 = DIRECTION ( 'NONE',  ( 1.000000000000000000, 0.000000000000000000, 0.000000000000000000 ) ) ;
#228 = UNCERTAINTY_MEASURE_WITH_UNIT (LENGTH_MEASURE( 1.000000000000000082E-05 ), #737, 'distance_accuracy_value', 'NONE');
#229 = PRESENTATION_STYLE_ASSIGNMENT (( #889 ) ) ;
#230 = LINE ( 'NONE', #577, #169 ) ;
#231 = SURFACE_STYLE_FILL_AREA ( #825 ) ;
#232 = ADVANCED_FACE ( 'NONE', ( #104 ), #785, .T. ) ;
#233 = ADVANCED_FACE ( 'NONE', ( #116 ), #380, .T. ) ;
#234 = CARTESIAN_POINT ( 'NONE',  ( 5.350000000000000533, 2.609365052918086292, 0.2549999999999999489 ) ) ;
#235 = DIRECTION ( 'NONE',  ( 1.000000000000000000, 0.000000000000000000, 0.000000000000000000 ) ) ;
#236 = UNCERTAINTY_MEASURE_WITH_UNIT (LENGTH_MEASURE( 1.000000000000000082E-05 ), #783, 'distance_accuracy_value', 'NONE');
#237 = PRESENTATION_STYLE_ASSIGNMENT (( #1097 ) ) ;
#238 = PRESENTATION_LAYER_ASSIGNMENT (  '', '', ( #718 ) ) ;
#239 = MECHANICAL_DESIGN_GEOMETRIC_PRESENTATION_REPRESENTATION (  '', ( #765 ), #459 ) ;
#240 = FILL_AREA_STYLE ('',( #167 ) ) ;
#241 = ORIENTED_EDGE ( 'NONE', *, *, #738, .T. ) ;
#242 = UNCERTAINTY_MEASURE_WITH_UNIT (LENGTH_MEASURE( 1.000000000000000082E-05 ), #280, 'distance_accuracy_value', 'NONE');
#243 = SURFACE_STYLE_USAGE ( .BOTH. , #928 ) ;
#244 = VERTEX_POINT ( 'NONE', #454 ) ;
#245 =( NAMED_UNIT ( * ) PLANE_ANGLE_UNIT ( ) SI_UNIT ( $, .RADIAN. ) );
#246 = EDGE_CURVE ( 'NONE', #631, #381, #395, .T. ) ;
#247 = VERTEX_POINT ( 'NONE', #743 ) ;
#248 = COLOUR_RGB ( '',0.8941176470588234615, 0.8941176470588234615, 0.8941176470588234615 ) ;
#249 = EDGE_LOOP ( 'NONE', ( #624, #536, #362, #771, #20, #113 ) ) ;
#250 = CIRCLE ( 'NONE', #196, 0.2549999999999999489 ) ;
#251 = CIRCLE ( 'NONE', #995, 0.2549999999999999489 ) ;
#252 = UNCERTAINTY_MEASURE_WITH_UNIT (LENGTH_MEASURE( 1.000000000000000082E-05 ), #560, 'distance_accuracy_value', 'NONE');
#253 = DIRECTION ( 'NONE',  ( 0.000000000000000000, 0.000000000000000000, -1.000000000000000000 ) ) ;
#254 = CIRCLE ( 'NONE', #781, 0.2549999999999999489 ) ;
#255 = EDGE_LOOP ( 'NONE', ( #780, #546, #1041, #597, #16 ) ) ;
#256 = ORIENTED_EDGE ( 'NONE', *, *, #453, .T. ) ;
#257 = ORIENTED_EDGE ( 'NONE', *, *, #875, .T. ) ;
#258 = EDGE_CURVE ( 'NONE', #46, #447, #900, .T. ) ;
#259 =( LENGTH_UNIT ( ) NAMED_UNIT ( * ) SI_UNIT ( .MILLI., .METRE. ) );
#260 = DIRECTION ( 'NONE',  ( 1.000000000000000000, -0.000000000000000000, -0.000000000000000000 ) ) ;
#261 = VERTEX_POINT ( 'NONE', #571 ) ;
#262 = FILL_AREA_STYLE ('',( #951 ) ) ;
#263 = DIRECTION ( 'NONE',  ( 0.000000000000000000, 0.000000000000000000, -1.000000000000000000 ) ) ;
#264 = VERTEX_POINT ( 'NONE', #375 ) ;
#265 = PRESENTATION_STYLE_ASSIGNMENT (( #700 ) ) ;
#266 = SPHERICAL_SURFACE ( 'NONE', #1052, 1.609365052918086070 ) ;
#267 = ORIENTED_EDGE ( 'NONE', *, *, #1030, .F. ) ;
#268 = PRESENTATION_LAYER_ASSIGNMENT (  '', '', ( #671 ) ) ;
#269 = CARTESIAN_POINT ( 'NONE',  ( 3.362617346942188501, 2.609365052918086292, 0.000000000000000000 ) ) ;
#270 = COLOUR_RGB ( '',0.7529411764705882248, 0.7529411764705882248, 0.000000000000000000 ) ;
#271 = AXIS2_PLACEMENT_3D ( 'NONE', #224, #652, #297 ) ;
#272 = COLOUR_RGB ( '',0.7529411764705882248, 0.7529411764705882248, 0.000000000000000000 ) ;
#273 = MECHANICAL_DESIGN_GEOMETRIC_PRESENTATION_REPRESENTATION (  '', ( #659 ), #387 ) ;
#274 = VERTEX_POINT ( 'NONE', #906 ) ;
#275 = COLOUR_RGB ( '',0.7529411764705882248, 0.7529411764705882248, 0.000000000000000000 ) ;
#276 = FILL_AREA_STYLE ('',( #711 ) ) ;
#277 = AXIS2_PLACEMENT_3D ( 'NONE', #376, #19, #449 ) ;
#278 = EDGE_CURVE ( 'NONE', #759, #423, #637, .T. ) ;
#279 = VERTEX_POINT ( 'NONE', #214 ) ;
#280 =( LENGTH_UNIT ( ) NAMED_UNIT ( * ) SI_UNIT ( .MILLI., .METRE. ) );
#281 = EDGE_CURVE ( 'NONE', #279, #944, #777, .T. ) ;
#282 = CARTESIAN_POINT ( 'NONE',  ( 5.350000000000000533, 2.609365052918086292, 0.000000000000000000 ) ) ;
#283 = SURFACE_STYLE_USAGE ( .BOTH. , #701 ) ;
#284 = VERTEX_POINT ( 'NONE', #822 ) ;
#285 = DIRECTION ( 'NONE',  ( 0.000000000000000000, 0.000000000000000000, 1.000000000000000000 ) ) ;
#286 = CARTESIAN_POINT ( 'NONE',  ( -3.362617346942187613, 2.609365052918086292, 0.000000000000000000 ) ) ;
#287 = CARTESIAN_POINT ( 'NONE',  ( -5.350000000000000533, 1.609365052918086292, -3.122849337825749926E-17 ) ) ;
#288 = VERTEX_POINT ( 'NONE', #302 ) ;
#289 = FILL_AREA_STYLE_COLOUR ( '', #505 ) ;
#290 = DIRECTION ( 'NONE',  ( 2.832769448823989808E-16, -1.000000000000000000, 0.000000000000000000 ) ) ;
#291 = CIRCLE ( 'NONE', #455, 0.2549999999999999489 ) ;
#292 = ORIENTED_EDGE ( 'NONE', *, *, #278, .F. ) ;
#293 = PRESENTATION_LAYER_ASSIGNMENT (  '', '', ( #154 ) ) ;
#294 = PRESENTATION_LAYER_ASSIGNMENT (  '', '', ( #673 ) ) ;
#295 = CIRCLE ( 'NONE', #1053, 0.4047061138363226562 ) ;
#296 = STYLED_ITEM ( 'NONE', ( #107 ), #632 ) ;
#297 = DIRECTION ( 'NONE',  ( 0.000000000000000000, -1.000000000000000000, 0.000000000000000000 ) ) ;
#298 = ORIENTED_EDGE ( 'NONE', *, *, #322, .F. ) ;
#299 = SURFACE_SIDE_STYLE ('',( #973 ) ) ;
#300 = CARTESIAN_POINT ( 'NONE',  ( 1.804968851620623482, 2.609365052918086292, 0.000000000000000000 ) ) ;
#301 = EDGE_CURVE ( 'NONE', #186, #195, #458, .T. ) ;
#302 = CARTESIAN_POINT ( 'NONE',  ( 6.094999999999999751, 1.609365052918087180, 3.122849337825759787E-17 ) ) ;
#303 = DIRECTION ( 'NONE',  ( 0.000000000000000000, -1.000000000000000000, 0.000000000000000000 ) ) ;
#304 = UNCERTAINTY_MEASURE_WITH_UNIT (LENGTH_MEASURE( 1.000000000000000082E-05 ), #457, 'distance_accuracy_value', 'NONE');
#305 = CARTESIAN_POINT ( 'NONE',  ( 3.362617346942188501, 2.609365052918086292, 0.000000000000000000 ) ) ;
#306 = MECHANICAL_DESIGN_GEOMETRIC_PRESENTATION_REPRESENTATION (  '', ( #466 ), #1025 ) ;
#307 =( LENGTH_UNIT ( ) NAMED_UNIT ( * ) SI_UNIT ( .MILLI., .METRE. ) );
#308 = DIRECTION ( 'NONE',  ( -1.000000000000000000, 0.000000000000000000, 0.000000000000000000 ) ) ;
#309 = SURFACE_SIDE_STYLE ('',( #71 ) ) ;
#310 = CARTESIAN_POINT ( 'NONE',  ( 3.556190395207061261, 2.609365052918086292, -0.4550000000000005151 ) ) ;
#311 = AXIS2_PLACEMENT_3D ( 'NONE', #629, #96, #128 ) ;
#312 = SURFACE_STYLE_USAGE ( .BOTH. , #1037 ) ;
#313 = UNCERTAINTY_MEASURE_WITH_UNIT (LENGTH_MEASURE( 1.000000000000000082E-05 ), #357, 'distance_accuracy_value', 'NONE');
#314 = FACE_OUTER_BOUND ( 'NONE', #1079, .T. ) ;
#315 = DIRECTION ( 'NONE',  ( 0.000000000000000000, 0.000000000000000000, -1.000000000000000000 ) ) ;
#316 = DIRECTION ( 'NONE',  ( -1.000000000000000000, -0.000000000000000000, -0.000000000000000000 ) ) ;
#317 =( LENGTH_UNIT ( ) NAMED_UNIT ( * ) SI_UNIT ( .MILLI., .METRE. ) );
#318 = FACE_OUTER_BOUND ( 'NONE', #1075, .T. ) ;
#319 =( LENGTH_UNIT ( ) NAMED_UNIT ( * ) SI_UNIT ( .MILLI., .METRE. ) );
#320 = UNCERTAINTY_MEASURE_WITH_UNIT (LENGTH_MEASURE( 1.000000000000000082E-05 ), #1048, 'distance_accuracy_value', 'NONE');
#321 = SURFACE_STYLE_USAGE ( .BOTH. , #846 ) ;
#322 = EDGE_CURVE ( 'NONE', #134, #447, #562, .T. ) ;
#323 = DIRECTION ( 'NONE',  ( 0.000000000000000000, 0.000000000000000000, 1.000000000000000000 ) ) ;
#324 = FACE_OUTER_BOUND ( 'NONE', #86, .T. ) ;
#325 = PRESENTATION_LAYER_ASSIGNMENT (  '', '', ( #191 ) ) ;
#326 = COLOUR_RGB ( '',0.8980392156862745390, 0.9176470588235293713, 0.9294117647058823817 ) ;
#327 = COLOUR_RGB ( '',0.7529411764705882248, 0.7529411764705882248, 0.000000000000000000 ) ;
#328 = COLOUR_RGB ( '',0.7529411764705882248, 0.7529411764705882248, 0.000000000000000000 ) ;
#329 = DIRECTION ( 'NONE',  ( 0.000000000000000000, 0.000000000000000000, -1.000000000000000000 ) ) ;
#330 = ORIENTED_EDGE ( 'NONE', *, *, #897, .T. ) ;
#331 = CIRCLE ( 'NONE', #12, 0.4047061138363226562 ) ;
#332 = SURFACE_STYLE_FILL_AREA ( #757 ) ;
#333 = VECTOR ( 'NONE', #564, 1000.000000000000000 ) ;
#334 = ADVANCED_FACE ( 'NONE', ( #390 ), #36, .T. ) ;
#335 = VERTEX_POINT ( 'NONE', #826 ) ;
#336 = ORIENTED_EDGE ( 'NONE', *, *, #84, .F. ) ;
#337 = CIRCLE ( 'NONE', #414, 0.2549999999999999489 ) ;
#338 = CARTESIAN_POINT ( 'NONE',  ( -5.350000000000000533, 1.609365052918086292, 0.000000000000000000 ) ) ;
#339 = DIRECTION ( 'NONE',  ( -1.000000000000000000, -0.000000000000000000, -0.000000000000000000 ) ) ;
#340 = ORIENTED_EDGE ( 'NONE', *, *, #841, .F. ) ;
#341 = DIRECTION ( 'NONE',  ( -1.000000000000000000, -0.000000000000000000, -0.000000000000000000 ) ) ;
#342 =( LENGTH_UNIT ( ) NAMED_UNIT ( * ) SI_UNIT ( .MILLI., .METRE. ) );
#343 = FILL_AREA_STYLE ('',( #880 ) ) ;
#344 = ORIENTED_EDGE ( 'NONE', *, *, #853, .F. ) ;
#345 = FILL_AREA_STYLE_COLOUR ( '', #82 ) ;
#346 = AXIS2_PLACEMENT_3D ( 'NONE', #756, #161, #669 ) ;
#347 = EDGE_CURVE ( 'NONE', #439, #850, #551, .T. ) ;
#348 = AXIS2_PLACEMENT_3D ( 'NONE', #118, #874, #519 ) ;
#349 = VERTEX_POINT ( 'NONE', #234 ) ;
#350 = VERTEX_POINT ( 'NONE', #410 ) ;
#351 = SURFACE_STYLE_USAGE ( .BOTH. , #448 ) ;
#352 = LINE ( 'NONE', #966, #437 ) ;
#353 = CARTESIAN_POINT ( 'NONE',  ( 3.556190395207061261, 2.609365052918086292, 0.2549999999999999489 ) ) ;
#354 = EDGE_LOOP ( 'NONE', ( #176, #890, #425, #1113, #855, #877 ) ) ;
#355 = SURFACE_STYLE_USAGE ( .BOTH. , #17 ) ;
#356 = CARTESIAN_POINT ( 'NONE',  ( 3.556190395207061261, 2.609365052918086292, 0.000000000000000000 ) ) ;
#357 =( LENGTH_UNIT ( ) NAMED_UNIT ( * ) SI_UNIT ( .MILLI., .METRE. ) );
#358 = PRESENTATION_STYLE_ASSIGNMENT (( #114 ) ) ;
#359 = ORIENTED_EDGE ( 'NONE', *, *, #563, .T. ) ;
#360 = ADVANCED_FACE ( 'NONE', ( #318 ), #602, .F. ) ;
#361 = FILL_AREA_STYLE_COLOUR ( '', #326 ) ;
#362 = ORIENTED_EDGE ( 'NONE', *, *, #246, .T. ) ;
#363 = CARTESIAN_POINT ( 'NONE',  ( 6.605000000000001315, -2.999999999999999112, 0.000000000000000000 ) ) ;
#364 = PRESENTATION_LAYER_ASSIGNMENT (  '', '', ( #915 ) ) ;
#365 = CYLINDRICAL_SURFACE ( 'NONE', #587, 0.2550000000000000044 ) ;
#366 = AXIS2_PLACEMENT_3D ( 'NONE', #518, #744, #572 ) ;
#367 = PRESENTATION_LAYER_ASSIGNMENT (  '', '', ( #30 ) ) ;
#368 = VECTOR ( 'NONE', #1067, 1000.000000000000000 ) ;
#369 = CARTESIAN_POINT ( 'NONE',  ( -6.095000000000001528, -2.999999999999999112, 0.000000000000000000 ) ) ;
#370 = SURFACE_STYLE_FILL_AREA ( #343 ) ;
#371 = ADVANCED_FACE ( 'NONE', ( #324 ), #735, .T. ) ;
#372 =( NAMED_UNIT ( * ) PLANE_ANGLE_UNIT ( ) SI_UNIT ( $, .RADIAN. ) );
#373 = CARTESIAN_POINT ( 'NONE',  ( -1.804968851620623482, 2.609365052918086292, 0.000000000000000000 ) ) ;
#374 = DIRECTION ( 'NONE',  ( 0.000000000000000000, 0.000000000000000000, -1.000000000000000000 ) ) ;
#375 = CARTESIAN_POINT ( 'NONE',  ( -5.350000000000000533, 2.864365052918086185, 0.000000000000000000 ) ) ;
#376 = CARTESIAN_POINT ( 'NONE',  ( -10.09675116564010722, 2.609365052918086292, 0.000000000000000000 ) ) ;
#377 =( NAMED_UNIT ( * ) SI_UNIT ( $, .STERADIAN. ) SOLID_ANGLE_UNIT ( ) );
#378 = DIRECTION ( 'NONE',  ( 0.000000000000000000, 0.000000000000000000, 1.000000000000000000 ) ) ;
#379 = COLOUR_RGB ( '',0.8980392156862745390, 0.9176470588235293713, 0.9294117647058823817 ) ;
#380 = SPHERICAL_SURFACE ( 'NONE', #271, 1.609365052918086070 ) ;
#381 = VERTEX_POINT ( 'NONE', #397 ) ;
#382 = DIRECTION ( 'NONE',  ( 1.000000000000000000, -0.000000000000000000, -0.000000000000000000 ) ) ;
#383 = PRESENTATION_LAYER_ASSIGNMENT (  '', '', ( #51 ) ) ;
#384 = FILL_AREA_STYLE ('',( #1060 ) ) ;
#385 = AXIS2_PLACEMENT_3D ( 'NONE', #848, #91, #444 ) ;
#386 = EDGE_CURVE ( 'NONE', #90, #181, #814, .T. ) ;
#387 =( GEOMETRIC_REPRESENTATION_CONTEXT ( 3 ) GLOBAL_UNCERTAINTY_ASSIGNED_CONTEXT ( ( #908 ) ) GLOBAL_UNIT_ASSIGNED_CONTEXT ( ( #557, #135, #648 ) ) REPRESENTATION_CONTEXT ( 'NONE', 'WORKASPACE' ) );
#388 = AXIS2_PLACEMENT_3D ( 'NONE', #2, #434, #418 ) ;
#389 = VECTOR ( 'NONE', #782, 1000.000000000000000 ) ;
#390 = FACE_OUTER_BOUND ( 'NONE', #627, .T. ) ;
#391 = CARTESIAN_POINT ( 'NONE',  ( -6.604999999999999538, 1.609365052918087180, 3.122849337825749926E-17 ) ) ;
#392 = CARTESIAN_POINT ( 'NONE',  ( -10.09675116564010722, 2.609365052918086292, 1.609365052918086292 ) ) ;
#393 = DIRECTION ( 'NONE',  ( -1.000000000000000000, -0.000000000000000000, -0.000000000000000000 ) ) ;
#394 = PRESENTATION_STYLE_ASSIGNMENT (( #987 ) ) ;
#395 = LINE ( 'NONE', #803, #491 ) ;
#396 =( LENGTH_UNIT ( ) NAMED_UNIT ( * ) SI_UNIT ( .MILLI., .METRE. ) );
#397 = CARTESIAN_POINT ( 'NONE',  ( -1.804968851620623482, 2.609365052918086292, -1.609365052918086292 ) ) ;
#398 = COLOUR_RGB ( '',0.7529411764705882248, 0.7529411764705882248, 0.000000000000000000 ) ;
#399 = FILL_AREA_STYLE_COLOUR ( '', #860 ) ;
#400 = PRODUCT_RELATED_PRODUCT_CATEGORY ( 'part', '', ( #1010 ) ) ;
#401 = DIRECTION ( 'NONE',  ( 1.000000000000000000, 0.000000000000000000, 0.000000000000000000 ) ) ;
#402 =( NAMED_UNIT ( * ) PLANE_ANGLE_UNIT ( ) SI_UNIT ( $, .RADIAN. ) );
#403 = CARTESIAN_POINT ( 'NONE',  ( 3.362617346942188501, 2.609365052918086292, 0.000000000000000000 ) ) ;
#404 = PRESENTATION_LAYER_ASSIGNMENT (  '', '', ( #881 ) ) ;
#405 = CIRCLE ( 'NONE', #957, 0.2549999999999999489 ) ;
#406 = PRESENTATION_LAYER_ASSIGNMENT (  '', '', ( #296 ) ) ;
#407 = DIRECTION ( 'NONE',  ( 0.000000000000000000, 0.000000000000000000, -1.000000000000000000 ) ) ;
#408 = PRODUCT_DEFINITION_CONTEXT ( 'detailed design', #1111, 'design' ) ;
#409 = DIRECTION ( 'NONE',  ( -1.000000000000000000, -0.000000000000000000, -0.000000000000000000 ) ) ;
#410 = CARTESIAN_POINT ( 'NONE',  ( 5.350000000000000533, 2.354365052918086398, 3.122849337825749310E-17 ) ) ;
#411 = FILL_AREA_STYLE_COLOUR ( '', #839 ) ;
#412 = EDGE_CURVE ( 'NONE', #90, #274, #295, .T. ) ;
#413 = CARTESIAN_POINT ( 'NONE',  ( 3.556190395207061261, 2.609365052918086292, 0.000000000000000000 ) ) ;
#414 = AXIS2_PLACEMENT_3D ( 'NONE', #968, #496, #184 ) ;
#415 = CARTESIAN_POINT ( 'NONE',  ( -6.350000000000001421, -2.999999999999999112, 0.000000000000000000 ) ) ;
#416 = ORIENTED_EDGE ( 'NONE', *, *, #412, .T. ) ;
#417 = UNCERTAINTY_MEASURE_WITH_UNIT (LENGTH_MEASURE( 1.000000000000000082E-05 ), #307, 'distance_accuracy_value', 'NONE');
#418 = DIRECTION ( 'NONE',  ( 0.000000000000000000, 0.000000000000000000, 1.000000000000000000 ) ) ;
#419 = EDGE_CURVE ( 'NONE', #759, #349, #405, .T. ) ;
#420 = AXIS2_PLACEMENT_3D ( 'NONE', #52, #554, #308 ) ;
#421 = PRESENTATION_LAYER_ASSIGNMENT (  '', '', ( #779 ) ) ;
#422 = FILL_AREA_STYLE ('',( #411 ) ) ;
#423 = VERTEX_POINT ( 'NONE', #830 ) ;
#424 = STYLED_ITEM ( 'NONE', ( #199 ), #540 ) ;
#425 = ORIENTED_EDGE ( 'NONE', *, *, #179, .T. ) ;
#426 = CARTESIAN_POINT ( 'NONE',  ( -1.804968851620623482, 2.609365052918086292, 0.000000000000000000 ) ) ;
#427 = UNCERTAINTY_MEASURE_WITH_UNIT (LENGTH_MEASURE( 1.000000000000000082E-05 ), #319, 'distance_accuracy_value', 'NONE');
#428 = ORIENTED_EDGE ( 'NONE', *, *, #808, .T. ) ;
#429 = EDGE_CURVE ( 'NONE', #929, #261, #1035, .T. ) ;
#430 = PRODUCT_DEFINITION_FORMATION_WITH_SPECIFIED_SOURCE ( 'ANY', '', #1010, .NOT_KNOWN. ) ;
#431 = DIRECTION ( 'NONE',  ( -1.000000000000000000, -0.000000000000000000, -0.000000000000000000 ) ) ;
#432 = ORIENTED_EDGE ( 'NONE', *, *, #433, .T. ) ;
#433 = EDGE_CURVE ( 'NONE', #452, #1043, #62, .T. ) ;
#434 = DIRECTION ( 'NONE',  ( -1.000000000000000000, -0.000000000000000000, -0.000000000000000000 ) ) ;
#435 = ORIENTED_EDGE ( 'NONE', *, *, #575, .F. ) ;
#436 = FILL_AREA_STYLE_COLOUR ( '', #193 ) ;
#437 = VECTOR ( 'NONE', #702, 1000.000000000000000 ) ;
#438 = PRESENTATION_LAYER_ASSIGNMENT (  '', '', ( #882 ) ) ;
#439 = VERTEX_POINT ( 'NONE', #222 ) ;
#440 = TOROIDAL_SURFACE ( 'NONE', #842, 1.000000000000000000, 0.2549999999999999489 ) ;
#441 = AXIS2_PLACEMENT_3D ( 'NONE', #287, #576, #633 ) ;
#442 = AXIS2_PLACEMENT_3D ( 'NONE', #645, #754, #985 ) ;
#443 = EDGE_LOOP ( 'NONE', ( #1117, #44, #628, #3, #267 ) ) ;
#444 = DIRECTION ( 'NONE',  ( 0.000000000000000000, 0.000000000000000000, 1.000000000000000000 ) ) ;
#445 = ORIENTED_EDGE ( 'NONE', *, *, #83, .T. ) ;
#446 = CARTESIAN_POINT ( 'NONE',  ( 1.804968851620623482, 2.609365052918086292, -1.609365052918086292 ) ) ;
#447 = VERTEX_POINT ( 'NONE', #1083 ) ;
#448 = SURFACE_SIDE_STYLE ('',( #930 ) ) ;
#449 = DIRECTION ( 'NONE',  ( 0.000000000000000000, 0.000000000000000000, 1.000000000000000000 ) ) ;
#450 = AXIS2_PLACEMENT_3D ( 'NONE', #1064, #41, #1049 ) ;
#451 = SURFACE_STYLE_USAGE ( .BOTH. , #854 ) ;
#452 = VERTEX_POINT ( 'NONE', #913 ) ;
#453 = EDGE_CURVE ( 'NONE', #264, #134, #493, .T. ) ;
#454 = CARTESIAN_POINT ( 'NONE',  ( 5.350000000000000533, 2.609365052918086292, -0.2549999999999999489 ) ) ;
#455 = AXIS2_PLACEMENT_3D ( 'NONE', #1112, #588, #592 ) ;
#456 = COLOUR_RGB ( '',0.7529411764705882248, 0.7529411764705882248, 0.000000000000000000 ) ;
#457 =( LENGTH_UNIT ( ) NAMED_UNIT ( * ) SI_UNIT ( .MILLI., .METRE. ) );
#458 = CIRCLE ( 'NONE', #506, 0.4047061138363222121 ) ;
#459 =( GEOMETRIC_REPRESENTATION_CONTEXT ( 3 ) GLOBAL_UNCERTAINTY_ASSIGNED_CONTEXT ( ( #590 ) ) GLOBAL_UNIT_ASSIGNED_CONTEXT ( ( #79, #245, #591 ) ) REPRESENTATION_CONTEXT ( 'NONE', 'WORKASPACE' ) );
#460 = DIRECTION ( 'NONE',  ( 3.763476001707854080E-16, -1.000000000000000000, 0.000000000000000000 ) ) ;
#461 = FACE_OUTER_BOUND ( 'NONE', #508, .T. ) ;
#462 = ORIENTED_EDGE ( 'NONE', *, *, #997, .T. ) ;
#463 = ORIENTED_EDGE ( 'NONE', *, *, #179, .F. ) ;
#464 = CARTESIAN_POINT ( 'NONE',  ( -5.350000000000000533, 2.609365052918086292, -0.2549999999999999489 ) ) ;
#465 = ADVANCED_FACE ( 'NONE', ( #1093 ), #509, .F. ) ;
#466 = STYLED_ITEM ( 'NONE', ( #394 ), #1047 ) ;
#467 = SURFACE_SIDE_STYLE ('',( #650 ) ) ;
#468 = DIRECTION ( 'NONE',  ( -1.000000000000000000, -0.000000000000000000, -0.000000000000000000 ) ) ;
#469 = SURFACE_SIDE_STYLE ('',( #894 ) ) ;
#470 = PRESENTATION_STYLE_ASSIGNMENT (( #809 ) ) ;
#471 = DIRECTION ( 'NONE',  ( 0.000000000000000000, 0.000000000000000000, -1.000000000000000000 ) ) ;
#472 = FILL_AREA_STYLE_COLOUR ( '', #122 ) ;
#473 = TOROIDAL_SURFACE ( 'NONE', #420, 1.000000000000000000, 0.2549999999999999489 ) ;
#474 =( GEOMETRIC_REPRESENTATION_CONTEXT ( 3 ) GLOBAL_UNCERTAINTY_ASSIGNED_CONTEXT ( ( #320 ) ) GLOBAL_UNIT_ASSIGNED_CONTEXT ( ( #1048, #1055, #960 ) ) REPRESENTATION_CONTEXT ( 'NONE', 'WORKASPACE' ) );
#475 =( GEOMETRIC_REPRESENTATION_CONTEXT ( 3 ) GLOBAL_UNCERTAINTY_ASSIGNED_CONTEXT ( ( #924 ) ) GLOBAL_UNIT_ASSIGNED_CONTEXT ( ( #1022, #517, #105 ) ) REPRESENTATION_CONTEXT ( 'NONE', 'WORKASPACE' ) );
#476 = STYLED_ITEM ( 'NONE', ( #527 ), #742 ) ;
#477 = CARTESIAN_POINT ( 'NONE',  ( -6.350000000000001421, -2.999999999999999112, 0.000000000000000000 ) ) ;
#478 = FILL_AREA_STYLE ('',( #472 ) ) ;
#479 = ADVANCED_FACE ( 'NONE', ( #314 ), #1109, .T. ) ;
#480 = ADVANCED_FACE ( 'NONE', ( #1024 ), #904, .F. ) ;
#481 = DIRECTION ( 'NONE',  ( -1.000000000000000000, -0.000000000000000000, -0.000000000000000000 ) ) ;
#482 = CARTESIAN_POINT ( 'NONE',  ( -1.804968851620622594, 2.609365052918086292, 0.000000000000000000 ) ) ;
#483 = FILL_AREA_STYLE_COLOUR ( '', #1090 ) ;
#484 = FILL_AREA_STYLE ('',( #498 ) ) ;
#485 = DIRECTION ( 'NONE',  ( 0.000000000000000000, 0.000000000000000000, 1.000000000000000000 ) ) ;
#486 = MECHANICAL_DESIGN_GEOMETRIC_PRESENTATION_REPRESENTATION (  '', ( #667 ), #501 ) ;
#487 = DIRECTION ( 'NONE',  ( -1.000000000000000000, -0.000000000000000000, -0.000000000000000000 ) ) ;
#488 = DIRECTION ( 'NONE',  ( -1.000000000000000000, -0.000000000000000000, -0.000000000000000000 ) ) ;
#489 = SURFACE_SIDE_STYLE ('',( #231 ) ) ;
#490 = AXIS2_PLACEMENT_3D ( 'NONE', #338, #958, #851 ) ;
#491 = VECTOR ( 'NONE', #481, 1000.000000000000000 ) ;
#492 =( NAMED_UNIT ( * ) PLANE_ANGLE_UNIT ( ) SI_UNIT ( $, .RADIAN. ) );
#493 = CIRCLE ( 'NONE', #442, 0.2549999999999999489 ) ;
#494 = SURFACE_SIDE_STYLE ('',( #925 ) ) ;
#495 = SURFACE_STYLE_USAGE ( .BOTH. , #665 ) ;
#496 = DIRECTION ( 'NONE',  ( 2.832769448823989808E-16, -1.000000000000000000, 0.000000000000000000 ) ) ;
#497 = ORIENTED_EDGE ( 'NONE', *, *, #500, .F. ) ;
#498 = FILL_AREA_STYLE_COLOUR ( '', #327 ) ;
#499 = FILL_AREA_STYLE_COLOUR ( '', #623 ) ;
#500 = EDGE_CURVE ( 'NONE', #929, #610, #674, .T. ) ;
#501 =( GEOMETRIC_REPRESENTATION_CONTEXT ( 3 ) GLOBAL_UNCERTAINTY_ASSIGNED_CONTEXT ( ( #252 ) ) GLOBAL_UNIT_ASSIGNED_CONTEXT ( ( #560, #722, #727 ) ) REPRESENTATION_CONTEXT ( 'NONE', 'WORKASPACE' ) );
#502 = DIRECTION ( 'NONE',  ( 0.000000000000000000, 0.000000000000000000, 1.000000000000000000 ) ) ;
#503 = ORIENTED_EDGE ( 'NONE', *, *, #281, .T. ) ;
#504 = MECHANICAL_DESIGN_GEOMETRIC_PRESENTATION_REPRESENTATION (  '', ( #138 ), #932 ) ;
#505 = COLOUR_RGB ( '',0.8980392156862745390, 0.9176470588235293713, 0.9294117647058823817 ) ;
#506 = AXIS2_PLACEMENT_3D ( 'NONE', #640, #661, #982 ) ;
#507 = SURFACE_STYLE_FILL_AREA ( #240 ) ;
#508 = EDGE_LOOP ( 'NONE', ( #691, #359, #556, #710 ) ) ;
#509 = TOROIDAL_SURFACE ( 'NONE', #1015, 0.4550000000000005151, 0.2000000000000004829 ) ;
#510 = FILL_AREA_STYLE ('',( #499 ) ) ;
#511 = ORIENTED_EDGE ( 'NONE', *, *, #68, .F. ) ;
#512 =( NAMED_UNIT ( * ) SI_UNIT ( $, .STERADIAN. ) SOLID_ANGLE_UNIT ( ) );
#513 = CARTESIAN_POINT ( 'NONE',  ( 1.804968851620622594, 2.609365052918086292, 0.000000000000000000 ) ) ;
#514 = SURFACE_STYLE_FILL_AREA ( #1099 ) ;
#515 = ORIENTED_EDGE ( 'NONE', *, *, #301, .F. ) ;
#516 = CARTESIAN_POINT ( 'NONE',  ( -5.350000000000000533, 2.609365052918086292, 0.000000000000000000 ) ) ;
#517 =( NAMED_UNIT ( * ) PLANE_ANGLE_UNIT ( ) SI_UNIT ( $, .RADIAN. ) );
#518 = CARTESIAN_POINT ( 'NONE',  ( 1.804968851620622594, 2.609365052918086292, 0.000000000000000000 ) ) ;
#519 = DIRECTION ( 'NONE',  ( 0.000000000000000000, -1.000000000000000000, -1.224646799147353207E-16 ) ) ;
#520 = EDGE_LOOP ( 'NONE', ( #15, #977, #774, #131, #715, #1000 ) ) ;
#521 = DIRECTION ( 'NONE',  ( 0.000000000000000000, 0.000000000000000000, -1.000000000000000000 ) ) ;
#522 = AXIS2_PLACEMENT_3D ( 'NONE', #300, #468, #812 ) ;
#523 = DIRECTION ( 'NONE',  ( 0.000000000000000000, 0.000000000000000000, -1.000000000000000000 ) ) ;
#524 =( GEOMETRIC_REPRESENTATION_CONTEXT ( 3 ) GLOBAL_UNCERTAINTY_ASSIGNED_CONTEXT ( ( #938 ) ) GLOBAL_UNIT_ASSIGNED_CONTEXT ( ( #980, #643, #1002 ) ) REPRESENTATION_CONTEXT ( 'NONE', 'WORKASPACE' ) );
#525 = EDGE_CURVE ( 'NONE', #350, #288, #103, .T. ) ;
#526 = ORIENTED_EDGE ( 'NONE', *, *, #322, .T. ) ;
#527 = PRESENTATION_STYLE_ASSIGNMENT (( #61 ) ) ;
#528 = VECTOR ( 'NONE', #182, 1000.000000000000000 ) ;
#529 = DIRECTION ( 'NONE',  ( 0.000000000000000000, 0.000000000000000000, 1.000000000000000000 ) ) ;
#530 = STYLED_ITEM ( 'NONE', ( #697 ), #479 ) ;
#531 = AXIS2_PLACEMENT_3D ( 'NONE', #911, #488, #843 ) ;
#532 = ORIENTED_EDGE ( 'NONE', *, *, #1072, .F. ) ;
#533 = CARTESIAN_POINT ( 'NONE',  ( -6.605000000000001315, -2.999999999999999112, 3.122849337825759787E-17 ) ) ;
#534 = SURFACE_STYLE_FILL_AREA ( #778 ) ;
#535 = CARTESIAN_POINT ( 'NONE',  ( 6.350000000000001421, -2.999999999999999112, 0.000000000000000000 ) ) ;
#536 = ORIENTED_EDGE ( 'NONE', *, *, #1072, .T. ) ;
#537 = DIRECTION ( 'NONE',  ( 2.832769448823989808E-16, 1.000000000000000000, -0.000000000000000000 ) ) ;
#538 = DIRECTION ( 'NONE',  ( 0.000000000000000000, 0.000000000000000000, -1.000000000000000000 ) ) ;
#539 = CARTESIAN_POINT ( 'NONE',  ( 1.804968851620623482, 2.609365052918086292, 0.000000000000000000 ) ) ;
#540 = ADVANCED_FACE ( 'NONE', ( #177 ), #1107, .T. ) ;
#541 = ORIENTED_EDGE ( 'NONE', *, *, #793, .T. ) ;
#542 = EDGE_LOOP ( 'NONE', ( #947, #541 ) ) ;
#543 = DIRECTION ( 'NONE',  ( -1.000000000000000000, -0.000000000000000000, -0.000000000000000000 ) ) ;
#544 = DIRECTION ( 'NONE',  ( 1.000000000000000000, 0.000000000000000000, 0.000000000000000000 ) ) ;
#545 =( NAMED_UNIT ( * ) PLANE_ANGLE_UNIT ( ) SI_UNIT ( $, .RADIAN. ) );
#546 = ORIENTED_EDGE ( 'NONE', *, *, #620, .F. ) ;
#547 = CIRCLE ( 'NONE', #582, 0.2549999999999999489 ) ;
#548 = DIRECTION ( 'NONE',  ( 0.000000000000000000, 0.000000000000000000, 1.000000000000000000 ) ) ;
#549 = MECHANICAL_DESIGN_GEOMETRIC_PRESENTATION_REPRESENTATION (  '', ( #98 ), #636 ) ;
#550 =( NAMED_UNIT ( * ) PLANE_ANGLE_UNIT ( ) SI_UNIT ( $, .RADIAN. ) );
#551 = CIRCLE ( 'NONE', #346, 1.609365052918086292 ) ;
#552 = COLOUR_RGB ( '',0.8980392156862745390, 0.9176470588235293713, 0.9294117647058823817 ) ;
#553 = EDGE_CURVE ( 'NONE', #447, #46, #172, .T. ) ;
#554 = DIRECTION ( 'NONE',  ( -0.000000000000000000, -0.000000000000000000, -1.000000000000000000 ) ) ;
#555 = DIRECTION ( 'NONE',  ( -1.000000000000000000, -0.000000000000000000, -0.000000000000000000 ) ) ;
#556 = ORIENTED_EDGE ( 'NONE', *, *, #827, .T. ) ;
#557 =( LENGTH_UNIT ( ) NAMED_UNIT ( * ) SI_UNIT ( .MILLI., .METRE. ) );
#558 = DIRECTION ( 'NONE',  ( 0.000000000000000000, 0.000000000000000000, -1.000000000000000000 ) ) ;
#559 = DIRECTION ( 'NONE',  ( 1.000000000000000000, 0.000000000000000000, 0.000000000000000000 ) ) ;
#560 =( LENGTH_UNIT ( ) NAMED_UNIT ( * ) SI_UNIT ( .MILLI., .METRE. ) );
#561 =( NAMED_UNIT ( * ) SI_UNIT ( $, .STERADIAN. ) SOLID_ANGLE_UNIT ( ) );
#562 = LINE ( 'NONE', #219, #799 ) ;
#563 = EDGE_CURVE ( 'NONE', #288, #423, #917, .T. ) ;
#564 = DIRECTION ( 'NONE',  ( -1.000000000000000000, -0.000000000000000000, -0.000000000000000000 ) ) ;
#565 = AXIS2_PLACEMENT_3D ( 'NONE', #286, #316, #1102 ) ;
#566 =( NAMED_UNIT ( * ) PLANE_ANGLE_UNIT ( ) SI_UNIT ( $, .RADIAN. ) );
#567 = CIRCLE ( 'NONE', #531, 1.609365052918086292 ) ;
#568 = AXIS2_PLACEMENT_3D ( 'NONE', #1038, #1061, #5 ) ;
#569 = PRESENTATION_LAYER_ASSIGNMENT (  '', '', ( #1076 ) ) ;
#570 = PRESENTATION_LAYER_ASSIGNMENT (  '', '', ( #765 ) ) ;
#571 = CARTESIAN_POINT ( 'NONE',  ( 3.362617346942188501, 3.014071166754408893, 1.233262903810380613E-16 ) ) ;
#572 = DIRECTION ( 'NONE',  ( -1.000000000000000000, 0.000000000000000000, 0.000000000000000000 ) ) ;
#573 = DIRECTION ( 'NONE',  ( 0.000000000000000000, 0.000000000000000000, -1.000000000000000000 ) ) ;
#574 = DIRECTION ( 'NONE',  ( 0.000000000000000000, 0.000000000000000000, 1.000000000000000000 ) ) ;
#575 = EDGE_CURVE ( 'NONE', #850, #186, #124, .T. ) ;
#576 = DIRECTION ( 'NONE',  ( -0.000000000000000000, 0.000000000000000000, 1.000000000000000000 ) ) ;
#577 = CARTESIAN_POINT ( 'NONE',  ( 5.350000000000000533, 2.609365052918086292, -0.2549999999999999489 ) ) ;
#578 = SURFACE_STYLE_USAGE ( .BOTH. , #133 ) ;
#579 =( NAMED_UNIT ( * ) PLANE_ANGLE_UNIT ( ) SI_UNIT ( $, .RADIAN. ) );
#580 =( LENGTH_UNIT ( ) NAMED_UNIT ( * ) SI_UNIT ( .MILLI., .METRE. ) );
#581 = DIRECTION ( 'NONE',  ( 1.000000000000000000, 0.000000000000000000, 0.000000000000000000 ) ) ;
#582 = AXIS2_PLACEMENT_3D ( 'NONE', #35, #544, #374 ) ;
#583 = AXIS2_PLACEMENT_3D ( 'NONE', #477, #58, #147 ) ;
#584 = AXIS2_PLACEMENT_3D ( 'NONE', #37, #215, #558 ) ;
#585 = AXIS2_PLACEMENT_3D ( 'NONE', #403, #992, #749 ) ;
#586 = EDGE_CURVE ( 'NONE', #850, #381, #934, .T. ) ;
#587 = AXIS2_PLACEMENT_3D ( 'NONE', #800, #962, #721 ) ;
#588 = DIRECTION ( 'NONE',  ( 2.832769448823989808E-16, 1.000000000000000000, -0.000000000000000000 ) ) ;
#589 = DIRECTION ( 'NONE',  ( -0.000000000000000000, 0.000000000000000000, 1.000000000000000000 ) ) ;
#590 = UNCERTAINTY_MEASURE_WITH_UNIT (LENGTH_MEASURE( 1.000000000000000082E-05 ), #79, 'distance_accuracy_value', 'NONE');
#591 =( NAMED_UNIT ( * ) SI_UNIT ( $, .STERADIAN. ) SOLID_ANGLE_UNIT ( ) );
#592 = DIRECTION ( 'NONE',  ( 0.000000000000000000, 0.000000000000000000, -1.000000000000000000 ) ) ;
#593 = ORIENTED_EDGE ( 'NONE', *, *, #68, .T. ) ;
#594 = PRESENTATION_STYLE_ASSIGNMENT (( #935 ) ) ;
#595 = ORIENTED_EDGE ( 'NONE', *, *, #1007, .F. ) ;
#596 = PRODUCT_DEFINITION ( 'UNKNOWN', '', #430, #408 ) ;
#597 = ORIENTED_EDGE ( 'NONE', *, *, #500, .T. ) ;
#598 = CIRCLE ( 'NONE', #522, 1.609365052918086292 ) ;
#599 = CIRCLE ( 'NONE', #914, 0.2549999999999999489 ) ;
#600 = AXIS2_PLACEMENT_3D ( 'NONE', #921, #85, #329 ) ;
#601 = SURFACE_SIDE_STYLE ('',( #1009 ) ) ;
#602 = TOROIDAL_SURFACE ( 'NONE', #734, 0.4550000000000005151, 0.2000000000000004829 ) ;
#603 = CYLINDRICAL_SURFACE ( 'NONE', #1089, 0.2550000000000000044 ) ;
#604 = ORIENTED_EDGE ( 'NONE', *, *, #84, .T. ) ;
#605 = CARTESIAN_POINT ( 'NONE',  ( 3.362617346942188501, 2.609365052918086292, 0.4047061138363206023 ) ) ;
#606 = SURFACE_STYLE_USAGE ( .BOTH. , #494 ) ;
#607 = DIRECTION ( 'NONE',  ( 1.000000000000000000, -0.000000000000000000, -0.000000000000000000 ) ) ;
#608 = ORIENTED_EDGE ( 'NONE', *, *, #40, .F. ) ;
#609 = EDGE_LOOP ( 'NONE', ( #178, #92, #922, #173, #1115 ) ) ;
#610 = VERTEX_POINT ( 'NONE', #353 ) ;
#611 =( NAMED_UNIT ( * ) SI_UNIT ( $, .STERADIAN. ) SOLID_ANGLE_UNIT ( ) );
#612 = PRESENTATION_STYLE_ASSIGNMENT (( #283 ) ) ;
#613 = ORIENTED_EDGE ( 'NONE', *, *, #23, .T. ) ;
#614 = FILL_AREA_STYLE_COLOUR ( '', #552 ) ;
#615 = VERTEX_POINT ( 'NONE', #703 ) ;
#616 = DIRECTION ( 'NONE',  ( 0.000000000000000000, 0.000000000000000000, 1.000000000000000000 ) ) ;
#617 = DIRECTION ( 'NONE',  ( 0.000000000000000000, 0.000000000000000000, 1.000000000000000000 ) ) ;
#618 =( GEOMETRIC_REPRESENTATION_CONTEXT ( 3 ) GLOBAL_UNCERTAINTY_ASSIGNED_CONTEXT ( ( #242 ) ) GLOBAL_UNIT_ASSIGNED_CONTEXT ( ( #280, #188, #873 ) ) REPRESENTATION_CONTEXT ( 'NONE', 'WORKASPACE' ) );
#619 = CIRCLE ( 'NONE', #223, 1.609365052918086292 ) ;
#620 = EDGE_CURVE ( 'NONE', #261, #90, #331, .T. ) ;
#621 = DIRECTION ( 'NONE',  ( -1.000000000000000000, 0.000000000000000000, 0.000000000000000000 ) ) ;
#622 = TOROIDAL_SURFACE ( 'NONE', #141, 0.4550000000000005151, 0.2000000000000004829 ) ;
#623 = COLOUR_RGB ( '',0.8980392156862745390, 0.9176470588235293713, 0.9294117647058823817 ) ;
#624 = ORIENTED_EDGE ( 'NONE', *, *, #1100, .T. ) ;
#625 = SURFACE_STYLE_FILL_AREA ( #891 ) ;
#626 =( NAMED_UNIT ( * ) SI_UNIT ( $, .STERADIAN. ) SOLID_ANGLE_UNIT ( ) );
#627 = EDGE_LOOP ( 'NONE', ( #864, #936 ) ) ;
#628 = ORIENTED_EDGE ( 'NONE', *, *, #94, .T. ) ;
#629 = CARTESIAN_POINT ( 'NONE',  ( -3.556190395207061261, 2.609365052918086292, 0.000000000000000000 ) ) ;
#630 = EDGE_CURVE ( 'NONE', #944, #284, #254, .T. ) ;
#631 = VERTEX_POINT ( 'NONE', #446 ) ;
#632 = ADVANCED_FACE ( 'NONE', ( #461 ), #365, .T. ) ;
#633 = DIRECTION ( 'NONE',  ( 1.000000000000000000, 0.000000000000000000, 0.000000000000000000 ) ) ;
#634 = FILL_AREA_STYLE ('',( #805 ) ) ;
#635 = COLOUR_RGB ( '',0.8980392156862745390, 0.9176470588235293713, 0.9294117647058823817 ) ;
#636 =( GEOMETRIC_REPRESENTATION_CONTEXT ( 3 ) GLOBAL_UNCERTAINTY_ASSIGNED_CONTEXT ( ( #829 ) ) GLOBAL_UNIT_ASSIGNED_CONTEXT ( ( #259, #4, #512 ) ) REPRESENTATION_CONTEXT ( 'NONE', 'WORKASPACE' ) );
#637 = CIRCLE ( 'NONE', #157, 1.255000000000000115 ) ;
#638 = FACE_OUTER_BOUND ( 'NONE', #699, .T. ) ;
#639 =( NAMED_UNIT ( * ) PLANE_ANGLE_UNIT ( ) SI_UNIT ( $, .RADIAN. ) );
#640 = CARTESIAN_POINT ( 'NONE',  ( -3.362617346942187613, 2.609365052918086292, 0.000000000000000000 ) ) ;
#641 = ORIENTED_EDGE ( 'NONE', *, *, #55, .F. ) ;
#642 = DIRECTION ( 'NONE',  ( -1.000000000000000000, 0.000000000000000000, 0.000000000000000000 ) ) ;
#643 =( NAMED_UNIT ( * ) PLANE_ANGLE_UNIT ( ) SI_UNIT ( $, .RADIAN. ) );
#644 = DIRECTION ( 'NONE',  ( 0.000000000000000000, 0.000000000000000000, 1.000000000000000000 ) ) ;
#645 = CARTESIAN_POINT ( 'NONE',  ( -5.350000000000000533, 2.609365052918086292, 0.000000000000000000 ) ) ;
#646 = PRODUCT_DEFINITION_SHAPE ( 'NONE', 'NONE',  #596 ) ;
#647 =( NAMED_UNIT ( * ) SI_UNIT ( $, .STERADIAN. ) SOLID_ANGLE_UNIT ( ) );
#648 =( NAMED_UNIT ( * ) SI_UNIT ( $, .STERADIAN. ) SOLID_ANGLE_UNIT ( ) );
#649 = AXIS2_PLACEMENT_3D ( 'NONE', #539, #969, #285 ) ;
#650 = SURFACE_STYLE_FILL_AREA ( #217 ) ;
#651 = CARTESIAN_POINT ( 'NONE',  ( 0.000000000000000000, 0.000000000000000000, 0.000000000000000000 ) ) ;
#652 = DIRECTION ( 'NONE',  ( 0.000000000000000000, 0.000000000000000000, 1.000000000000000000 ) ) ;
#653 = CARTESIAN_POINT ( 'NONE',  ( 3.556190395207061261, 2.609365052918086292, 0.000000000000000000 ) ) ;
#654 = ADVANCED_FACE ( 'NONE', ( #726 ), #473, .T. ) ;
#655 = PRESENTATION_STYLE_ASSIGNMENT (( #679 ) ) ;
#656 = DIRECTION ( 'NONE',  ( -0.000000000000000000, 1.000000000000000000, 1.224646799147353207E-16 ) ) ;
#657 = AXIS2_PLACEMENT_3D ( 'NONE', #1001, #732, #57 ) ;
#658 = CIRCLE ( 'NONE', #584, 0.2549999999999999489 ) ;
#659 = STYLED_ITEM ( 'NONE', ( #1088 ), #334 ) ;
#660 = MECHANICAL_DESIGN_GEOMETRIC_PRESENTATION_REPRESENTATION (  '', ( #424 ), #739 ) ;
#661 = DIRECTION ( 'NONE',  ( -1.000000000000000000, -0.000000000000000000, -0.000000000000000000 ) ) ;
#662 = LINE ( 'NONE', #907, #97 ) ;
#663 = FACE_OUTER_BOUND ( 'NONE', #807, .T. ) ;
#664 = CARTESIAN_POINT ( 'NONE',  ( 1.804968851620623482, 2.609365052918086292, 0.000000000000000000 ) ) ;
#665 = SURFACE_SIDE_STYLE ('',( #1096 ) ) ;
#666 = SURFACE_SIDE_STYLE ('',( #507 ) ) ;
#667 = STYLED_ITEM ( 'NONE', ( #358 ), #1057 ) ;
#668 = ADVANCED_FACE ( 'NONE', ( #972 ), #1085, .T. ) ;
#669 = DIRECTION ( 'NONE',  ( 0.000000000000000000, 0.000000000000000000, 1.000000000000000000 ) ) ;
#670 = CARTESIAN_POINT ( 'NONE',  ( -5.350000000000000533, 1.609365052918086292, 0.000000000000000000 ) ) ;
#671 = STYLED_ITEM ( 'NONE', ( #42 ), #26 ) ;
#672 = CIRCLE ( 'NONE', #1016, 0.2549999999999999489 ) ;
#673 = STYLED_ITEM ( 'NONE', ( #923 ), #910 ) ;
#674 = CIRCLE ( 'NONE', #226, 0.2000000000000004829 ) ;
#675 = CARTESIAN_POINT ( 'NONE',  ( -5.350000000000000533, 2.609365052918086292, 0.000000000000000000 ) ) ;
#676 = MECHANICAL_DESIGN_GEOMETRIC_PRESENTATION_REPRESENTATION (  '', ( #51 ), #1105 ) ;
#677 = DIRECTION ( 'NONE',  ( 0.000000000000000000, 0.000000000000000000, 1.000000000000000000 ) ) ;
#678 = ORIENTED_EDGE ( 'NONE', *, *, #897, .F. ) ;
#679 = SURFACE_STYLE_USAGE ( .BOTH. , #309 ) ;
#680 = UNCERTAINTY_MEASURE_WITH_UNIT (LENGTH_MEASURE( 1.000000000000000082E-05 ), #396, 'distance_accuracy_value', 'NONE');
#681 = SURFACE_SIDE_STYLE ('',( #332 ) ) ;
#682 = EDGE_CURVE ( 'NONE', #349, #350, #29, .T. ) ;
#683 = CARTESIAN_POINT ( 'NONE',  ( -5.350000000000000533, 2.609365052918086292, 0.2549999999999999489 ) ) ;
#684 = ORIENTED_EDGE ( 'NONE', *, *, #94, .F. ) ;
#685 = VERTEX_POINT ( 'NONE', #143 ) ;
#686 = FILL_AREA_STYLE_COLOUR ( '', #120 ) ;
#687 = SURFACE_STYLE_FILL_AREA ( #422 ) ;
#688 = ORIENTED_EDGE ( 'NONE', *, *, #620, .T. ) ;
#689 = UNCERTAINTY_MEASURE_WITH_UNIT (LENGTH_MEASURE( 1.000000000000000082E-05 ), #1004, 'distance_accuracy_value', 'NONE');
#690 = CARTESIAN_POINT ( 'NONE',  ( 3.556190395207061261, 2.609365052918086292, 0.4550000000000005151 ) ) ;
#691 = ORIENTED_EDGE ( 'NONE', *, *, #996, .F. ) ;
#692 = AXIS2_PLACEMENT_3D ( 'NONE', #164, #431, #502 ) ;
#693 = MECHANICAL_DESIGN_GEOMETRIC_PRESENTATION_REPRESENTATION (  '', ( #60 ), #976 ) ;
#694 = FACE_OUTER_BOUND ( 'NONE', #1029, .T. ) ;
#695 = CARTESIAN_POINT ( 'NONE',  ( 3.556190395207061261, 2.609365052918086292, -0.2549999999999999489 ) ) ;
#696 = ORIENTED_EDGE ( 'NONE', *, *, #970, .F. ) ;
#697 = PRESENTATION_STYLE_ASSIGNMENT (( #606 ) ) ;
#698 = EDGE_CURVE ( 'NONE', #1043, #439, #50, .T. ) ;
#699 = EDGE_LOOP ( 'NONE', ( #696, #100, #1045, #870 ) ) ;
#700 = SURFACE_STYLE_USAGE ( .BOTH. , #758 ) ;
#701 = SURFACE_SIDE_STYLE ('',( #370 ) ) ;
#702 = DIRECTION ( 'NONE',  ( -1.000000000000000000, -0.000000000000000000, -0.000000000000000000 ) ) ;
#703 = CARTESIAN_POINT ( 'NONE',  ( 1.804968851620623482, 4.218730105836172584, 1.970903760715744989E-16 ) ) ;
#704 = ORIENTED_EDGE ( 'NONE', *, *, #258, .T. ) ;
#705 = EDGE_CURVE ( 'NONE', #34, #1018, #865, .T. ) ;
#706 = AXIS2_PLACEMENT_3D ( 'NONE', #213, #555, #644 ) ;
#707 =( LENGTH_UNIT ( ) NAMED_UNIT ( * ) SI_UNIT ( .MILLI., .METRE. ) );
#708 = SURFACE_STYLE_FILL_AREA ( #634 ) ;
#709 = CYLINDRICAL_SURFACE ( 'NONE', #450, 0.2550000000000000044 ) ;
#710 = ORIENTED_EDGE ( 'NONE', *, *, #793, .F. ) ;
#711 = FILL_AREA_STYLE_COLOUR ( '', #398 ) ;
#712 = SHAPE_DEFINITION_REPRESENTATION ( #646, #1087 ) ;
#713 = CIRCLE ( 'NONE', #692, 0.4047061138363222121 ) ;
#714 = CARTESIAN_POINT ( 'NONE',  ( 6.349999999999999645, 1.609365052918087180, 0.000000000000000000 ) ) ;
#715 = ORIENTED_EDGE ( 'NONE', *, *, #174, .F. ) ;
#716 = FACE_OUTER_BOUND ( 'NONE', #183, .T. ) ;
#717 = DIRECTION ( 'NONE',  ( 2.832769448823989808E-16, -1.000000000000000000, 0.000000000000000000 ) ) ;
#718 = STYLED_ITEM ( 'NONE', ( #845 ), #926 ) ;
#719 = AXIS2_PLACEMENT_3D ( 'NONE', #1114, #72, #159 ) ;
#720 = CARTESIAN_POINT ( 'NONE',  ( 3.362617346942188501, 2.609365052918086292, 0.000000000000000000 ) ) ;
#721 = DIRECTION ( 'NONE',  ( 1.000000000000000000, 0.000000000000000000, 0.000000000000000000 ) ) ;
#722 =( NAMED_UNIT ( * ) PLANE_ANGLE_UNIT ( ) SI_UNIT ( $, .RADIAN. ) );
#723 = SURFACE_STYLE_FILL_AREA ( #384 ) ;
#724 = DIRECTION ( 'NONE',  ( 0.000000000000000000, 0.000000000000000000, 1.000000000000000000 ) ) ;
#725 = LINE ( 'NONE', #391, #368 ) ;
#726 = FACE_OUTER_BOUND ( 'NONE', #126, .T. ) ;
#727 =( NAMED_UNIT ( * ) SI_UNIT ( $, .STERADIAN. ) SOLID_ANGLE_UNIT ( ) );
#728 = APPLICATION_PROTOCOL_DEFINITION ( 'draft international standard', 'automotive_design', 1998, #872 ) ;
#729 = FILL_AREA_STYLE ('',( #399 ) ) ;
#730 = EDGE_LOOP ( 'NONE', ( #435, #1050, #257, #428, #684, #515 ) ) ;
#731 = MECHANICAL_DESIGN_GEOMETRIC_PRESENTATION_REPRESENTATION (  '', ( #671 ), #760 ) ;
#732 = DIRECTION ( 'NONE',  ( -0.000000000000000000, 1.000000000000000000, 1.224646799147353207E-16 ) ) ;
#733 = MECHANICAL_DESIGN_GEOMETRIC_PRESENTATION_REPRESENTATION (  '', ( #191 ), #49 ) ;
#734 = AXIS2_PLACEMENT_3D ( 'NONE', #1008, #487, #485 ) ;
#735 = CYLINDRICAL_SURFACE ( 'NONE', #194, 0.2549999999999999489 ) ;
#736 = AXIS2_PLACEMENT_3D ( 'NONE', #775, #7, #939 ) ;
#737 =( LENGTH_UNIT ( ) NAMED_UNIT ( * ) SI_UNIT ( .MILLI., .METRE. ) );
#738 = EDGE_CURVE ( 'NONE', #610, #181, #250, .T. ) ;
#739 =( GEOMETRIC_REPRESENTATION_CONTEXT ( 3 ) GLOBAL_UNCERTAINTY_ASSIGNED_CONTEXT ( ( #236 ) ) GLOBAL_UNIT_ASSIGNED_CONTEXT ( ( #783, #1059, #626 ) ) REPRESENTATION_CONTEXT ( 'NONE', 'WORKASPACE' ) );
#740 = FILL_AREA_STYLE_COLOUR ( '', #456 ) ;
#741 = CARTESIAN_POINT ( 'NONE',  ( 5.350000000000000533, 2.609365052918086292, 0.000000000000000000 ) ) ;
#742 = ADVANCED_FACE ( 'NONE', ( #663 ), #761, .T. ) ;
#743 = CARTESIAN_POINT ( 'NONE',  ( -1.804968851620623482, 1.000000000000000000, 0.000000000000000000 ) ) ;
#744 = DIRECTION ( 'NONE',  ( 0.000000000000000000, 0.000000000000000000, -1.000000000000000000 ) ) ;
#745 = AXIS2_PLACEMENT_3D ( 'NONE', #197, #607, #538 ) ;
#746 = DIRECTION ( 'NONE',  ( 0.000000000000000000, 0.000000000000000000, -1.000000000000000000 ) ) ;
#747 = SURFACE_STYLE_FILL_AREA ( #729 ) ;
#748 = UNCERTAINTY_MEASURE_WITH_UNIT (LENGTH_MEASURE( 1.000000000000000082E-05 ), #1086, 'distance_accuracy_value', 'NONE');
#749 = DIRECTION ( 'NONE',  ( 0.000000000000000000, 0.000000000000000000, 1.000000000000000000 ) ) ;
#750 = AXIS2_PLACEMENT_3D ( 'NONE', #14, #93, #617 ) ;
#751 = MECHANICAL_DESIGN_GEOMETRIC_PRESENTATION_REPRESENTATION (  '', ( #764 ), #902 ) ;
#752 = AXIS2_PLACEMENT_3D ( 'NONE', #373, #967, #529 ) ;
#753 = FILL_AREA_STYLE_COLOUR ( '', #171 ) ;
#754 = DIRECTION ( 'NONE',  ( 1.000000000000000000, -0.000000000000000000, -0.000000000000000000 ) ) ;
#755 = EDGE_CURVE ( 'NONE', #823, #46, #884, .T. ) ;
#756 = CARTESIAN_POINT ( 'NONE',  ( -1.804968851620623482, 2.609365052918086292, 0.000000000000000000 ) ) ;
#757 = FILL_AREA_STYLE ('',( #345 ) ) ;
#758 = SURFACE_SIDE_STYLE ('',( #625 ) ) ;
#759 = VERTEX_POINT ( 'NONE', #127 ) ;
#760 =( GEOMETRIC_REPRESENTATION_CONTEXT ( 3 ) GLOBAL_UNCERTAINTY_ASSIGNED_CONTEXT ( ( #228 ) ) GLOBAL_UNIT_ASSIGNED_CONTEXT ( ( #737, #639, #647 ) ) REPRESENTATION_CONTEXT ( 'NONE', 'WORKASPACE' ) );
#761 = TOROIDAL_SURFACE ( 'NONE', #144, 1.000000000000000000, 0.2549999999999999489 ) ;
#762 = EDGE_CURVE ( 'NONE', #349, #610, #352, .T. ) ;
#763 = STYLED_ITEM ( 'NONE', ( #655 ), #918 ) ;
#764 = STYLED_ITEM ( 'NONE', ( #815 ), #371 ) ;
#765 = STYLED_ITEM ( 'NONE', ( #88 ), #480 ) ;
#766 =( NAMED_UNIT ( * ) SI_UNIT ( $, .STERADIAN. ) SOLID_ANGLE_UNIT ( ) );
#767 = ORIENTED_EDGE ( 'NONE', *, *, #123, .T. ) ;
#768 = FACE_OUTER_BOUND ( 'NONE', #255, .T. ) ;
#769 = ORIENTED_EDGE ( 'NONE', *, *, #996, .T. ) ;
#770 = ADVANCED_FACE ( 'NONE', ( #202 ), #978, .T. ) ;
#771 = ORIENTED_EDGE ( 'NONE', *, *, #586, .F. ) ;
#772 = ORIENTED_EDGE ( 'NONE', *, *, #221, .T. ) ;
#773 = PRESENTATION_LAYER_ASSIGNMENT (  '', '', ( #466 ) ) ;
#774 = ORIENTED_EDGE ( 'NONE', *, *, #575, .T. ) ;
#775 = CARTESIAN_POINT ( 'NONE',  ( 5.350000000000000533, 1.609365052918086292, 3.122849337825749926E-17 ) ) ;
#776 = ORIENTED_EDGE ( 'NONE', *, *, #386, .T. ) ;
#777 = CIRCLE ( 'NONE', #441, 0.7449999999999999956 ) ;
#778 = FILL_AREA_STYLE ('',( #436 ) ) ;
#779 = STYLED_ITEM ( 'NONE', ( #1005 ), #360 ) ;
#780 = ORIENTED_EDGE ( 'NONE', *, *, #386, .F. ) ;
#781 = AXIS2_PLACEMENT_3D ( 'NONE', #1044, #537, #263 ) ;
#782 = DIRECTION ( 'NONE',  ( 1.000000000000000000, -0.000000000000000000, -0.000000000000000000 ) ) ;
#783 =( LENGTH_UNIT ( ) NAMED_UNIT ( * ) SI_UNIT ( .MILLI., .METRE. ) );
#784 = EDGE_CURVE ( 'NONE', #181, #610, #599, .T. ) ;
#785 = CYLINDRICAL_SURFACE ( 'NONE', #209, 0.2550000000000000044 ) ;
#786 = ORIENTED_EDGE ( 'NONE', *, *, #453, .F. ) ;
#787 = CARTESIAN_POINT ( 'NONE',  ( 5.350000000000000533, 1.609365052918086292, 0.000000000000000000 ) ) ;
#788 = CARTESIAN_POINT ( 'NONE',  ( 6.349999999999999645, 1.609365052918087180, 0.000000000000000000 ) ) ;
#789 = ORIENTED_EDGE ( 'NONE', *, *, #762, .T. ) ;
#790 = VERTEX_POINT ( 'NONE', #363 ) ;
#791 = DIRECTION ( 'NONE',  ( -0.000000000000000000, -0.000000000000000000, -1.000000000000000000 ) ) ;
#792 = ORIENTED_EDGE ( 'NONE', *, *, #278, .T. ) ;
#793 = EDGE_CURVE ( 'NONE', #6, #790, #672, .T. ) ;
#794 = VECTOR ( 'NONE', #1071, 1000.000000000000000 ) ;
#795 = EDGE_CURVE ( 'NONE', #274, #452, #1051, .T. ) ;
#796 = FILL_AREA_STYLE_COLOUR ( '', #139 ) ;
#797 = CIRCLE ( 'NONE', #994, 1.609365052918086292 ) ;
#798 = DIRECTION ( 'NONE',  ( 0.000000000000000000, 0.000000000000000000, -1.000000000000000000 ) ) ;
#799 = VECTOR ( 'NONE', #56, 1000.000000000000000 ) ;
#800 = CARTESIAN_POINT ( 'NONE',  ( 6.349999999999999645, 1.609365052918087180, 0.000000000000000000 ) ) ;
#801 = AXIS2_PLACEMENT_3D ( 'NONE', #886, #946, #548 ) ;
#802 = FILL_AREA_STYLE_COLOUR ( '', #379 ) ;
#803 = CARTESIAN_POINT ( 'NONE',  ( -10.09675116564010722, 2.609365052918086292, -1.609365052918086292 ) ) ;
#804 = ORIENTED_EDGE ( 'NONE', *, *, #419, .T. ) ;
#805 = FILL_AREA_STYLE_COLOUR ( '', #270 ) ;
#806 = SURFACE_STYLE_USAGE ( .BOTH. , #28 ) ;
#807 = EDGE_LOOP ( 'NONE', ( #462, #792, #206, #95, #593 ) ) ;
#808 = EDGE_CURVE ( 'NONE', #247, #685, #797, .T. ) ;
#809 = SURFACE_STYLE_USAGE ( .BOTH. , #150 ) ;
#810 =( NAMED_UNIT ( * ) SI_UNIT ( $, .STERADIAN. ) SOLID_ANGLE_UNIT ( ) );
#811 = SURFACE_STYLE_USAGE ( .BOTH. , #467 ) ;
#812 = DIRECTION ( 'NONE',  ( 0.000000000000000000, 0.000000000000000000, 1.000000000000000000 ) ) ;
#813 = MECHANICAL_DESIGN_GEOMETRIC_PRESENTATION_REPRESENTATION (  '', ( #673 ), #831 ) ;
#814 = CIRCLE ( 'NONE', #885, 0.2000000000000004829 ) ;
#815 = PRESENTATION_STYLE_ASSIGNMENT (( #137 ) ) ;
#816 = AXIS2_PLACEMENT_3D ( 'NONE', #788, #290, #203 ) ;
#817 = AXIS2_PLACEMENT_3D ( 'NONE', #896, #901, #303 ) ;
#818 =( NAMED_UNIT ( * ) SI_UNIT ( $, .STERADIAN. ) SOLID_ANGLE_UNIT ( ) );
#819 = FILL_AREA_STYLE ('',( #740 ) ) ;
#820 = UNCERTAINTY_MEASURE_WITH_UNIT (LENGTH_MEASURE( 1.000000000000000082E-05 ), #185, 'distance_accuracy_value', 'NONE');
#821 = SURFACE_SIDE_STYLE ('',( #1006 ) ) ;
#822 = CARTESIAN_POINT ( 'NONE',  ( -6.604999999999999538, 1.609365052918087180, 3.122849337825749310E-17 ) ) ;
#823 = VERTEX_POINT ( 'NONE', #464 ) ;
#824 = CARTESIAN_POINT ( 'NONE',  ( -1.804968851620623482, 4.218730105836172584, 1.970903760715744989E-16 ) ) ;
#825 = FILL_AREA_STYLE ('',( #483 ) ) ;
#826 = CARTESIAN_POINT ( 'NONE',  ( -3.362617346942187613, 2.609365052918086292, 0.4047061138363221011 ) ) ;
#827 = EDGE_CURVE ( 'NONE', #423, #790, #662, .T. ) ;
#828 =( NAMED_UNIT ( * ) SI_UNIT ( $, .STERADIAN. ) SOLID_ANGLE_UNIT ( ) );
#829 = UNCERTAINTY_MEASURE_WITH_UNIT (LENGTH_MEASURE( 1.000000000000000082E-05 ), #259, 'distance_accuracy_value', 'NONE');
#830 = CARTESIAN_POINT ( 'NONE',  ( 6.604999999999999538, 1.609365052918087180, 0.000000000000000000 ) ) ;
#831 =( GEOMETRIC_REPRESENTATION_CONTEXT ( 3 ) GLOBAL_UNCERTAINTY_ASSIGNED_CONTEXT ( ( #78 ) ) GLOBAL_UNIT_ASSIGNED_CONTEXT ( ( #317, #402, #828 ) ) REPRESENTATION_CONTEXT ( 'NONE', 'WORKASPACE' ) );
#832 = PRESENTATION_LAYER_ASSIGNMENT (  '', '', ( #60 ) ) ;
#833 =( LENGTH_UNIT ( ) NAMED_UNIT ( * ) SI_UNIT ( .MILLI., .METRE. ) );
#834 = FILL_AREA_STYLE_COLOUR ( '', #275 ) ;
#835 =( NAMED_UNIT ( * ) SI_UNIT ( $, .STERADIAN. ) SOLID_ANGLE_UNIT ( ) );
#836 = UNCERTAINTY_MEASURE_WITH_UNIT (LENGTH_MEASURE( 1.000000000000000082E-05 ), #580, 'distance_accuracy_value', 'NONE');
#837 =( NAMED_UNIT ( * ) PLANE_ANGLE_UNIT ( ) SI_UNIT ( $, .RADIAN. ) );
#838 = ORIENTED_EDGE ( 'NONE', *, *, #795, .T. ) ;
#839 = COLOUR_RGB ( '',0.8980392156862745390, 0.9176470588235293713, 0.9294117647058823817 ) ;
#840 = PRESENTATION_LAYER_ASSIGNMENT (  '', '', ( #138 ) ) ;
#841 = EDGE_CURVE ( 'NONE', #46, #195, #857, .T. ) ;
#842 = AXIS2_PLACEMENT_3D ( 'NONE', #670, #589, #920 ) ;
#843 = DIRECTION ( 'NONE',  ( 0.000000000000000000, 0.000000000000000000, 1.000000000000000000 ) ) ;
#844 =( NAMED_UNIT ( * ) PLANE_ANGLE_UNIT ( ) SI_UNIT ( $, .RADIAN. ) );
#845 = PRESENTATION_STYLE_ASSIGNMENT (( #351 ) ) ;
#846 = SURFACE_SIDE_STYLE ('',( #514 ) ) ;
#847 = ORIENTED_EDGE ( 'NONE', *, *, #755, .T. ) ;
#848 = CARTESIAN_POINT ( 'NONE',  ( -3.362617346942187613, 2.609365052918086292, 0.000000000000000000 ) ) ;
#849 = ORIENTED_EDGE ( 'NONE', *, *, #755, .F. ) ;
#850 = VERTEX_POINT ( 'NONE', #824 ) ;
#851 = DIRECTION ( 'NONE',  ( 1.000000000000000000, 0.000000000000000000, 0.000000000000000000 ) ) ;
#852 = PRESENTATION_STYLE_ASSIGNMENT (( #355 ) ) ;
#853 = EDGE_CURVE ( 'NONE', #244, #181, #230, .T. ) ;
#854 = SURFACE_SIDE_STYLE ('',( #867 ) ) ;
#855 = ORIENTED_EDGE ( 'NONE', *, *, #433, .F. ) ;
#856 = MECHANICAL_DESIGN_GEOMETRIC_PRESENTATION_REPRESENTATION (  '', ( #915 ), #8 ) ;
#857 = CIRCLE ( 'NONE', #657, 0.2000000000000004829 ) ;
#858 =( GEOMETRIC_REPRESENTATION_CONTEXT ( 3 ) GLOBAL_UNCERTAINTY_ASSIGNED_CONTEXT ( ( #427 ) ) GLOBAL_UNIT_ASSIGNED_CONTEXT ( ( #319, #844, #835 ) ) REPRESENTATION_CONTEXT ( 'NONE', 'WORKASPACE' ) );
#859 = APPLICATION_PROTOCOL_DEFINITION ( 'draft international standard', 'automotive_design', 1998, #1111 ) ;
#860 = COLOUR_RGB ( '',0.8980392156862745390, 0.9176470588235293713, 0.9294117647058823817 ) ;
#861 =( NAMED_UNIT ( * ) PLANE_ANGLE_UNIT ( ) SI_UNIT ( $, .RADIAN. ) );
#862 = PRESENTATION_LAYER_ASSIGNMENT (  '', '', ( #530 ) ) ;
#863 =( LENGTH_UNIT ( ) NAMED_UNIT ( * ) SI_UNIT ( .MILLI., .METRE. ) );
#864 = ORIENTED_EDGE ( 'NONE', *, *, #705, .F. ) ;
#865 = CIRCLE ( 'NONE', #583, 0.2549999999999999489 ) ;
#866 = SURFACE_SIDE_STYLE ('',( #708 ) ) ;
#867 = SURFACE_STYLE_FILL_AREA ( #189 ) ;
#868 = ORIENTED_EDGE ( 'NONE', *, *, #630, .T. ) ;
#869 = DIRECTION ( 'NONE',  ( 0.000000000000000000, 0.000000000000000000, -1.000000000000000000 ) ) ;
#870 = ORIENTED_EDGE ( 'NONE', *, *, #705, .T. ) ;
#871 =( NAMED_UNIT ( * ) SI_UNIT ( $, .STERADIAN. ) SOLID_ANGLE_UNIT ( ) );
#872 = APPLICATION_CONTEXT ( 'automotive_design' ) ;
#873 =( NAMED_UNIT ( * ) SI_UNIT ( $, .STERADIAN. ) SOLID_ANGLE_UNIT ( ) );
#874 = DIRECTION ( 'NONE',  ( 0.000000000000000000, -1.224646799147353207E-16, 1.000000000000000000 ) ) ;
#875 = EDGE_CURVE ( 'NONE', #381, #247, #567, .T. ) ;
#876 = FILL_AREA_STYLE ('',( #802 ) ) ;
#877 = ORIENTED_EDGE ( 'NONE', *, *, #795, .F. ) ;
#878 = DIRECTION ( 'NONE',  ( 1.000000000000000000, 0.000000000000000000, 0.000000000000000000 ) ) ;
#879 = AXIS2_PLACEMENT_3D ( 'NONE', #720, #971, #204 ) ;
#880 = FILL_AREA_STYLE_COLOUR ( '', #48 ) ;
#881 = STYLED_ITEM ( 'NONE', ( #470 ), #654 ) ;
#882 = STYLED_ITEM ( 'NONE', ( #852 ), #232 ) ;
#883 = ORIENTED_EDGE ( 'NONE', *, *, #682, .F. ) ;
#884 = LINE ( 'NONE', #952, #389 ) ;
#885 = AXIS2_PLACEMENT_3D ( 'NONE', #310, #656, #574 ) ;
#886 = CARTESIAN_POINT ( 'NONE',  ( 5.350000000000000533, 2.609365052918086292, 0.000000000000000000 ) ) ;
#887 = ORIENTED_EDGE ( 'NONE', *, *, #1007, .T. ) ;
#888 = ADVANCED_FACE ( 'NONE', ( #65 ), #266, .T. ) ;
#889 = SURFACE_STYLE_USAGE ( .BOTH. , #1084 ) ;
#890 = ORIENTED_EDGE ( 'NONE', *, *, #429, .T. ) ;
#891 = FILL_AREA_STYLE ('',( #289 ) ) ;
#892 = SURFACE_STYLE_FILL_AREA ( #1069 ) ;
#893 = LINE ( 'NONE', #986, #794 ) ;
#894 = SURFACE_STYLE_FILL_AREA ( #276 ) ;
#895 = DIRECTION ( 'NONE',  ( 3.763476001707854080E-16, -1.000000000000000000, 0.000000000000000000 ) ) ;
#896 = CARTESIAN_POINT ( 'NONE',  ( -1.804968851620622594, 2.609365052918086292, 0.000000000000000000 ) ) ;
#897 = EDGE_CURVE ( 'NONE', #264, #284, #1014, .T. ) ;
#898 = CIRCLE ( 'NONE', #565, 0.4047061138363222121 ) ;
#899 = MECHANICAL_DESIGN_GEOMETRIC_PRESENTATION_REPRESENTATION (  '', ( #881 ), #524 ) ;
#900 = CIRCLE ( 'NONE', #9, 0.2550000000000000044 ) ;
#901 = DIRECTION ( 'NONE',  ( 0.000000000000000000, 0.000000000000000000, 1.000000000000000000 ) ) ;
#902 =( GEOMETRIC_REPRESENTATION_CONTEXT ( 3 ) GLOBAL_UNCERTAINTY_ASSIGNED_CONTEXT ( ( #748 ) ) GLOBAL_UNIT_ASSIGNED_CONTEXT ( ( #1086, #566, #152 ) ) REPRESENTATION_CONTEXT ( 'NONE', 'WORKASPACE' ) );
#903 = DIRECTION ( 'NONE',  ( 0.000000000000000000, 0.000000000000000000, 1.000000000000000000 ) ) ;
#904 = TOROIDAL_SURFACE ( 'NONE', #388, 0.4550000000000005151, 0.2000000000000004829 ) ;
#905 =( LENGTH_UNIT ( ) NAMED_UNIT ( * ) SI_UNIT ( .MILLI., .METRE. ) );
#906 = CARTESIAN_POINT ( 'NONE',  ( 3.362617346942188501, 2.204658939081763691, 0.000000000000000000 ) ) ;
#907 = CARTESIAN_POINT ( 'NONE',  ( 6.604999999999999538, 1.609365052918087180, 0.000000000000000000 ) ) ;
#908 = UNCERTAINTY_MEASURE_WITH_UNIT (LENGTH_MEASURE( 1.000000000000000082E-05 ), #557, 'distance_accuracy_value', 'NONE');
#909 = DIRECTION ( 'NONE',  ( 0.000000000000000000, 0.000000000000000000, -1.000000000000000000 ) ) ;
#910 = ADVANCED_FACE ( 'NONE', ( #694 ), #440, .T. ) ;
#911 = CARTESIAN_POINT ( 'NONE',  ( -1.804968851620623482, 2.609365052918086292, 0.000000000000000000 ) ) ;
#912 =( GEOMETRIC_REPRESENTATION_CONTEXT ( 3 ) GLOBAL_UNCERTAINTY_ASSIGNED_CONTEXT ( ( #304 ) ) GLOBAL_UNIT_ASSIGNED_CONTEXT ( ( #457, #550, #810 ) ) REPRESENTATION_CONTEXT ( 'NONE', 'WORKASPACE' ) );
#913 = CARTESIAN_POINT ( 'NONE',  ( 1.804968851620623482, 1.000000000000000000, 0.000000000000000000 ) ) ;
#914 = AXIS2_PLACEMENT_3D ( 'NONE', #117, #878, #798 ) ;
#915 = STYLED_ITEM ( 'NONE', ( #158 ), #109 ) ;
#916 = AXIS2_PLACEMENT_3D ( 'NONE', #516, #260, #523 ) ;
#917 = CIRCLE ( 'NONE', #816, 0.2549999999999999489 ) ;
#918 = ADVANCED_FACE ( 'NONE', ( #768 ), #622, .F. ) ;
#919 = PLANE ( 'NONE',  #600 ) ;
#920 = DIRECTION ( 'NONE',  ( 1.000000000000000000, 0.000000000000000000, 0.000000000000000000 ) ) ;
#921 = CARTESIAN_POINT ( 'NONE',  ( 6.350000000000001421, -2.999999999999999112, 0.000000000000000000 ) ) ;
#922 = ORIENTED_EDGE ( 'NONE', *, *, #784, .T. ) ;
#923 = PRESENTATION_STYLE_ASSIGNMENT (( #312 ) ) ;
#924 = UNCERTAINTY_MEASURE_WITH_UNIT (LENGTH_MEASURE( 1.000000000000000082E-05 ), #1022, 'distance_accuracy_value', 'NONE');
#925 = SURFACE_STYLE_FILL_AREA ( #510 ) ;
#926 = ADVANCED_FACE ( 'NONE', ( #1104 ), #937, .T. ) ;
#927 = PRESENTATION_LAYER_ASSIGNMENT (  '', '', ( #667 ) ) ;
#928 = SURFACE_SIDE_STYLE ('',( #687 ) ) ;
#929 = VERTEX_POINT ( 'NONE', #605 ) ;
#930 = SURFACE_STYLE_FILL_AREA ( #262 ) ;
#931 =( NAMED_UNIT ( * ) SI_UNIT ( $, .STERADIAN. ) SOLID_ANGLE_UNIT ( ) );
#932 =( GEOMETRIC_REPRESENTATION_CONTEXT ( 3 ) GLOBAL_UNCERTAINTY_ASSIGNED_CONTEXT ( ( #1003 ) ) GLOBAL_UNIT_ASSIGNED_CONTEXT ( ( #38, #372, #27 ) ) REPRESENTATION_CONTEXT ( 'NONE', 'WORKASPACE' ) );
#933 = ORIENTED_EDGE ( 'NONE', *, *, #1033, .F. ) ;
#934 = CIRCLE ( 'NONE', #752, 1.609365052918086292 ) ;
#935 = SURFACE_STYLE_USAGE ( .BOTH. , #666 ) ;
#936 = ORIENTED_EDGE ( 'NONE', *, *, #123, .F. ) ;
#937 = SPHERICAL_SURFACE ( 'NONE', #225, 1.609365052918086070 ) ;
#938 = UNCERTAINTY_MEASURE_WITH_UNIT (LENGTH_MEASURE( 1.000000000000000082E-05 ), #980, 'distance_accuracy_value', 'NONE');
#939 = DIRECTION ( 'NONE',  ( -1.000000000000000000, 0.000000000000000000, 0.000000000000000000 ) ) ;
#940 = ORIENTED_EDGE ( 'NONE', *, *, #682, .T. ) ;
#941 = EDGE_CURVE ( 'NONE', #284, #944, #658, .T. ) ;
#942 = DIRECTION ( 'NONE',  ( 0.000000000000000000, -1.000000000000000000, 0.000000000000000000 ) ) ;
#943 = DIRECTION ( 'NONE',  ( 2.832769448823989808E-16, -1.000000000000000000, 0.000000000000000000 ) ) ;
#944 = VERTEX_POINT ( 'NONE', #1081 ) ;
#945 = DIRECTION ( 'NONE',  ( 0.000000000000000000, -1.000000000000000000, 0.000000000000000000 ) ) ;
#946 = DIRECTION ( 'NONE',  ( -1.000000000000000000, -0.000000000000000000, -0.000000000000000000 ) ) ;
#947 = ORIENTED_EDGE ( 'NONE', *, *, #205, .T. ) ;
#948 = AXIS2_PLACEMENT_3D ( 'NONE', #675, #1017, #521 ) ;
#949 = CARTESIAN_POINT ( 'NONE',  ( -3.362617346942187613, 2.609365052918086292, -0.4047061138363221011 ) ) ;
#950 = ORIENTED_EDGE ( 'NONE', *, *, #827, .F. ) ;
#951 = FILL_AREA_STYLE_COLOUR ( '', #272 ) ;
#952 = CARTESIAN_POINT ( 'NONE',  ( -5.350000000000000533, 2.609365052918086292, -0.2549999999999999489 ) ) ;
#953 = DIRECTION ( 'NONE',  ( 0.000000000000000000, 0.000000000000000000, 1.000000000000000000 ) ) ;
#954 = ORIENTED_EDGE ( 'NONE', *, *, #23, .F. ) ;
#955 = AXIS2_PLACEMENT_3D ( 'NONE', #136, #401, #407 ) ;
#956 = MECHANICAL_DESIGN_GEOMETRIC_PRESENTATION_REPRESENTATION (  '', ( #882 ), #474 ) ;
#957 = AXIS2_PLACEMENT_3D ( 'NONE', #741, #581, #909 ) ;
#958 = DIRECTION ( 'NONE',  ( -0.000000000000000000, 0.000000000000000000, 1.000000000000000000 ) ) ;
#959 =( GEOMETRIC_REPRESENTATION_CONTEXT ( 3 ) GLOBAL_UNCERTAINTY_ASSIGNED_CONTEXT ( ( #689 ) ) GLOBAL_UNIT_ASSIGNED_CONTEXT ( ( #1004, #579, #561 ) ) REPRESENTATION_CONTEXT ( 'NONE', 'WORKASPACE' ) );
#960 =( NAMED_UNIT ( * ) SI_UNIT ( $, .STERADIAN. ) SOLID_ANGLE_UNIT ( ) );
#961 =( NAMED_UNIT ( * ) PLANE_ANGLE_UNIT ( ) SI_UNIT ( $, .RADIAN. ) );
#962 = DIRECTION ( 'NONE',  ( 3.763476001707854080E-16, -1.000000000000000000, 0.000000000000000000 ) ) ;
#963 = ORIENTED_EDGE ( 'NONE', *, *, #246, .F. ) ;
#964 = DIRECTION ( 'NONE',  ( 1.000000000000000000, 0.000000000000000000, 0.000000000000000000 ) ) ;
#965 = EDGE_LOOP ( 'NONE', ( #168, #776, #76, #497, #641 ) ) ;
#966 = CARTESIAN_POINT ( 'NONE',  ( 5.350000000000000533, 2.609365052918086292, 0.2549999999999999489 ) ) ;
#967 = DIRECTION ( 'NONE',  ( -1.000000000000000000, -0.000000000000000000, -0.000000000000000000 ) ) ;
#968 = CARTESIAN_POINT ( 'NONE',  ( 6.349999999999999645, 1.609365052918087180, 0.000000000000000000 ) ) ;
#969 = DIRECTION ( 'NONE',  ( -1.000000000000000000, -0.000000000000000000, -0.000000000000000000 ) ) ;
#970 = EDGE_CURVE ( 'NONE', #284, #1018, #725, .T. ) ;
#971 = DIRECTION ( 'NONE',  ( -1.000000000000000000, -0.000000000000000000, -0.000000000000000000 ) ) ;
#972 = FACE_OUTER_BOUND ( 'NONE', #730, .T. ) ;
#973 = SURFACE_STYLE_FILL_AREA ( #876 ) ;
#974 = EDGE_LOOP ( 'NONE', ( #963, #613, #432, #25, #70, #1066 ) ) ;
#975 =( NAMED_UNIT ( * ) PLANE_ANGLE_UNIT ( ) SI_UNIT ( $, .RADIAN. ) );
#976 =( GEOMETRIC_REPRESENTATION_CONTEXT ( 3 ) GLOBAL_UNCERTAINTY_ASSIGNED_CONTEXT ( ( #417 ) ) GLOBAL_UNIT_ASSIGNED_CONTEXT ( ( #307, #975, #818 ) ) REPRESENTATION_CONTEXT ( 'NONE', 'WORKASPACE' ) );
#977 = ORIENTED_EDGE ( 'NONE', *, *, #347, .T. ) ;
#978 = CYLINDRICAL_SURFACE ( 'NONE', #277, 1.609365052918086292 ) ;
#979 = AXIS2_PLACEMENT_3D ( 'NONE', #664, #409, #903 ) ;
#980 =( LENGTH_UNIT ( ) NAMED_UNIT ( * ) SI_UNIT ( .MILLI., .METRE. ) );
#981 = ADVANCED_FACE ( 'NONE', ( #716 ), #989, .T. ) ;
#982 = DIRECTION ( 'NONE',  ( 0.000000000000000000, 0.000000000000000000, 1.000000000000000000 ) ) ;
#983 = DIRECTION ( 'NONE',  ( -1.000000000000000000, -0.000000000000000000, -0.000000000000000000 ) ) ;
#984 = PRESENTATION_STYLE_ASSIGNMENT (( #578 ) ) ;
#985 = DIRECTION ( 'NONE',  ( 0.000000000000000000, 0.000000000000000000, -1.000000000000000000 ) ) ;
#986 = CARTESIAN_POINT ( 'NONE',  ( -6.094999999999999751, 1.609365052918087180, 0.000000000000000000 ) ) ;
#987 = SURFACE_STYLE_USAGE ( .BOTH. , #469 ) ;
#988 = DIRECTION ( 'NONE',  ( -1.000000000000000000, -0.000000000000000000, -0.000000000000000000 ) ) ;
#989 = CYLINDRICAL_SURFACE ( 'NONE', #745, 0.2549999999999999489 ) ;
#990 = AXIS2_PLACEMENT_3D ( 'NONE', #651, #323, #11 ) ;
#991 = UNCERTAINTY_MEASURE_WITH_UNIT (LENGTH_MEASURE( 1.000000000000000082E-05 ), #833, 'distance_accuracy_value', 'NONE');
#992 = DIRECTION ( 'NONE',  ( -1.000000000000000000, -0.000000000000000000, -0.000000000000000000 ) ) ;
#993 = CARTESIAN_POINT ( 'NONE',  ( -3.556190395207061261, 2.609365052918086292, 0.000000000000000000 ) ) ;
#994 = AXIS2_PLACEMENT_3D ( 'NONE', #482, #132, #642 ) ;
#995 = AXIS2_PLACEMENT_3D ( 'NONE', #535, #943, #1042 ) ;
#996 = EDGE_CURVE ( 'NONE', #288, #6, #190, .T. ) ;
#997 = EDGE_CURVE ( 'NONE', #244, #759, #1, .T. ) ;
#998 =( GEOMETRIC_REPRESENTATION_CONTEXT ( 3 ) GLOBAL_UNCERTAINTY_ASSIGNED_CONTEXT ( ( #1013 ) ) GLOBAL_UNIT_ASSIGNED_CONTEXT ( ( #342, #837, #931 ) ) REPRESENTATION_CONTEXT ( 'NONE', 'WORKASPACE' ) );
#999 =( NAMED_UNIT ( * ) PLANE_ANGLE_UNIT ( ) SI_UNIT ( $, .RADIAN. ) );
#1000 = ORIENTED_EDGE ( 'NONE', *, *, #808, .F. ) ;
#1001 = CARTESIAN_POINT ( 'NONE',  ( -3.556190395207061261, 2.609365052918086292, -0.4550000000000005151 ) ) ;
#1002 =( NAMED_UNIT ( * ) SI_UNIT ( $, .STERADIAN. ) SOLID_ANGLE_UNIT ( ) );
#1003 = UNCERTAINTY_MEASURE_WITH_UNIT (LENGTH_MEASURE( 1.000000000000000082E-05 ), #38, 'distance_accuracy_value', 'NONE');
#1004 =( LENGTH_UNIT ( ) NAMED_UNIT ( * ) SI_UNIT ( .MILLI., .METRE. ) );
#1005 = PRESENTATION_STYLE_ASSIGNMENT (( #495 ) ) ;
#1006 = SURFACE_STYLE_FILL_AREA ( #478 ) ;
#1007 = EDGE_CURVE ( 'NONE', #423, #288, #337, .T. ) ;
#1008 = CARTESIAN_POINT ( 'NONE',  ( -3.556190395207061261, 2.609365052918086292, 0.000000000000000000 ) ) ;
#1009 = SURFACE_STYLE_FILL_AREA ( #1027 ) ;
#1010 = PRODUCT ( 'Capacitor Ceramic No Polarity axial 12.70', 'Capacitor Ceramic No Polarity axial 12.70', '', ( #31 ) ) ;
#1011 = CARTESIAN_POINT ( 'NONE',  ( 3.362617346942188501, 2.609365052918086292, -0.4047061138363206023 ) ) ;
#1012 = CIRCLE ( 'NONE', #568, 1.609365052918086070 ) ;
#1013 = UNCERTAINTY_MEASURE_WITH_UNIT (LENGTH_MEASURE( 1.000000000000000082E-05 ), #342, 'distance_accuracy_value', 'NONE');
#1014 = CIRCLE ( 'NONE', #490, 1.255000000000000115 ) ;
#1015 = AXIS2_PLACEMENT_3D ( 'NONE', #413, #67, #163 ) ;
#1016 = AXIS2_PLACEMENT_3D ( 'NONE', #1068, #717, #1058 ) ;
#1017 = DIRECTION ( 'NONE',  ( 1.000000000000000000, -0.000000000000000000, -0.000000000000000000 ) ) ;
#1018 = VERTEX_POINT ( 'NONE', #533 ) ;
#1019 = SURFACE_STYLE_USAGE ( .BOTH. , #681 ) ;
#1020 = FACE_OUTER_BOUND ( 'NONE', #542, .T. ) ;
#1021 = ORIENTED_EDGE ( 'NONE', *, *, #301, .T. ) ;
#1022 =( LENGTH_UNIT ( ) NAMED_UNIT ( * ) SI_UNIT ( .MILLI., .METRE. ) );
#1023 = CIRCLE ( 'NONE', #649, 1.609365052918086292 ) ;
#1024 = FACE_OUTER_BOUND ( 'NONE', #443, .T. ) ;
#1025 =( GEOMETRIC_REPRESENTATION_CONTEXT ( 3 ) GLOBAL_UNCERTAINTY_ASSIGNED_CONTEXT ( ( #1106 ) ) GLOBAL_UNIT_ASSIGNED_CONTEXT ( ( #905, #999, #45 ) ) REPRESENTATION_CONTEXT ( 'NONE', 'WORKASPACE' ) );
#1026 = EDGE_LOOP ( 'NONE', ( #344, #511, #883, #789, #241 ) ) ;
#1027 = FILL_AREA_STYLE ('',( #686 ) ) ;
#1028 = DIRECTION ( 'NONE',  ( 1.000000000000000000, -0.000000000000000000, -0.000000000000000000 ) ) ;
#1029 = EDGE_LOOP ( 'NONE', ( #678, #1062, #336, #503, #868 ) ) ;
#1030 = EDGE_CURVE ( 'NONE', #447, #335, #1046, .T. ) ;
#1031 = DIRECTION ( 'NONE',  ( 0.000000000000000000, -1.000000000000000000, 0.000000000000000000 ) ) ;
#1032 = CIRCLE ( 'NONE', #879, 0.4047061138363226562 ) ;
#1033 = EDGE_CURVE ( 'NONE', #134, #279, #54, .T. ) ;
#1034 = EDGE_LOOP ( 'NONE', ( #887, #769, #119, #950 ) ) ;
#1035 = CIRCLE ( 'NONE', #585, 0.4047061138363226562 ) ;
#1036 = MECHANICAL_DESIGN_GEOMETRIC_PRESENTATION_REPRESENTATION (  '', ( #296 ), #160 ) ;
#1037 = SURFACE_SIDE_STYLE ('',( #534 ) ) ;
#1038 = CARTESIAN_POINT ( 'NONE',  ( 1.804968851620622594, 2.609365052918086292, 0.000000000000000000 ) ) ;
#1039 = ORIENTED_EDGE ( 'NONE', *, *, #1030, .T. ) ;
#1040 = DIRECTION ( 'NONE',  ( 0.000000000000000000, 0.000000000000000000, 1.000000000000000000 ) ) ;
#1041 = ORIENTED_EDGE ( 'NONE', *, *, #429, .F. ) ;
#1042 = DIRECTION ( 'NONE',  ( 0.000000000000000000, 0.000000000000000000, -1.000000000000000000 ) ) ;
#1043 = VERTEX_POINT ( 'NONE', #102 ) ;
#1044 = CARTESIAN_POINT ( 'NONE',  ( -6.349999999999999645, 1.609365052918087180, 0.000000000000000000 ) ) ;
#1045 = ORIENTED_EDGE ( 'NONE', *, *, #40, .T. ) ;
#1046 = CIRCLE ( 'NONE', #165, 0.2000000000000004829 ) ;
#1047 = ADVANCED_FACE ( 'NONE', ( #111 ), #22, .T. ) ;
#1048 =( LENGTH_UNIT ( ) NAMED_UNIT ( * ) SI_UNIT ( .MILLI., .METRE. ) );
#1049 = DIRECTION ( 'NONE',  ( 1.000000000000000000, 0.000000000000000000, 0.000000000000000000 ) ) ;
#1050 = ORIENTED_EDGE ( 'NONE', *, *, #586, .T. ) ;
#1051 = CIRCLE ( 'NONE', #366, 1.609365052918086070 ) ;
#1052 = AXIS2_PLACEMENT_3D ( 'NONE', #13, #616, #942 ) ;
#1053 = AXIS2_PLACEMENT_3D ( 'NONE', #305, #393, #1078 ) ;
#1054 = PRESENTATION_LAYER_ASSIGNMENT (  '', '', ( #424 ) ) ;
#1055 =( NAMED_UNIT ( * ) PLANE_ANGLE_UNIT ( ) SI_UNIT ( $, .RADIAN. ) );
#1056 = ORIENTED_EDGE ( 'NONE', *, *, #525, .T. ) ;
#1057 = ADVANCED_FACE ( 'NONE', ( #638 ), #709, .T. ) ;
#1058 = DIRECTION ( 'NONE',  ( 0.000000000000000000, 0.000000000000000000, -1.000000000000000000 ) ) ;
#1059 =( NAMED_UNIT ( * ) PLANE_ANGLE_UNIT ( ) SI_UNIT ( $, .RADIAN. ) );
#1060 = FILL_AREA_STYLE_COLOUR ( '', #248 ) ;
#1061 = DIRECTION ( 'NONE',  ( 0.000000000000000000, -1.224646799147353207E-16, 1.000000000000000000 ) ) ;
#1062 = ORIENTED_EDGE ( 'NONE', *, *, #221, .F. ) ;
#1063 = PRESENTATION_STYLE_ASSIGNMENT (( #106 ) ) ;
#1064 = CARTESIAN_POINT ( 'NONE',  ( -6.349999999999999645, 1.609365052918087180, 0.000000000000000000 ) ) ;
#1065 = EDGE_LOOP ( 'NONE', ( #463, #688, #416, #838, #954, #532 ) ) ;
#1066 = ORIENTED_EDGE ( 'NONE', *, *, #875, .F. ) ;
#1067 = DIRECTION ( 'NONE',  ( -3.763476001707854080E-16, -1.000000000000000000, 0.000000000000000000 ) ) ;
#1068 = CARTESIAN_POINT ( 'NONE',  ( 6.350000000000001421, -2.999999999999999112, 0.000000000000000000 ) ) ;
#1069 = FILL_AREA_STYLE ('',( #207 ) ) ;
#1070 = CARTESIAN_POINT ( 'NONE',  ( -10.09675116564010722, 2.609365052918086292, 0.000000000000000000 ) ) ;
#1071 = DIRECTION ( 'NONE',  ( -3.763476001707854080E-16, -1.000000000000000000, 0.000000000000000000 ) ) ;
#1072 = EDGE_CURVE ( 'NONE', #615, #631, #21, .T. ) ;
#1073 = DIRECTION ( 'NONE',  ( -0.000000000000000000, -0.000000000000000000, -1.000000000000000000 ) ) ;
#1074 = PRESENTATION_LAYER_ASSIGNMENT (  '', '', ( #763 ) ) ;
#1075 = EDGE_LOOP ( 'NONE', ( #340, #166, #1039, #445, #1021 ) ) ;
#1076 = STYLED_ITEM ( 'NONE', ( #63 ), #465 ) ;
#1077 = COLOUR_RGB ( '',0.8980392156862745390, 0.9176470588235293713, 0.9294117647058823817 ) ;
#1078 = DIRECTION ( 'NONE',  ( 0.000000000000000000, 0.000000000000000000, 1.000000000000000000 ) ) ;
#1079 = EDGE_LOOP ( 'NONE', ( #786, #330, #110, #1103, #933 ) ) ;
#1080 = DIRECTION ( 'NONE',  ( -1.000000000000000000, 0.000000000000000000, 0.000000000000000000 ) ) ;
#1081 = CARTESIAN_POINT ( 'NONE',  ( -6.094999999999999751, 1.609365052918087180, 0.000000000000000000 ) ) ;
#1082 = SURFACE_STYLE_FILL_AREA ( #819 ) ;
#1083 = CARTESIAN_POINT ( 'NONE',  ( -3.556190395207061261, 2.609365052918086292, 0.2550000000000000044 ) ) ;
#1084 = SURFACE_SIDE_STYLE ('',( #43 ) ) ;
#1085 = SPHERICAL_SURFACE ( 'NONE', #817, 1.609365052918086070 ) ;
#1086 =( LENGTH_UNIT ( ) NAMED_UNIT ( * ) SI_UNIT ( .MILLI., .METRE. ) );
#1087 = ADVANCED_BREP_SHAPE_REPRESENTATION ( 'Capacitor Ceramic No Polarity axial 12.70', ( #26, #990 ), #912 ) ;
#1088 = PRESENTATION_STYLE_ASSIGNMENT (( #212 ) ) ;
#1089 = AXIS2_PLACEMENT_3D ( 'NONE', #162, #1098, #235 ) ;
#1090 = COLOUR_RGB ( '',0.8980392156862745390, 0.9176470588235293713, 0.9294117647058823817 ) ;
#1091 =( GEOMETRIC_REPRESENTATION_CONTEXT ( 3 ) GLOBAL_UNCERTAINTY_ASSIGNED_CONTEXT ( ( #145 ) ) GLOBAL_UNIT_ASSIGNED_CONTEXT ( ( #863, #545, #180 ) ) REPRESENTATION_CONTEXT ( 'NONE', 'WORKASPACE' ) );
#1092 =( GEOMETRIC_REPRESENTATION_CONTEXT ( 3 ) GLOBAL_UNCERTAINTY_ASSIGNED_CONTEXT ( ( #991 ) ) GLOBAL_UNIT_ASSIGNED_CONTEXT ( ( #833, #492, #64 ) ) REPRESENTATION_CONTEXT ( 'NONE', 'WORKASPACE' ) );
#1093 = FACE_OUTER_BOUND ( 'NONE', #965, .T. ) ;
#1094 = FILL_AREA_STYLE ('',( #753 ) ) ;
#1095 = FILL_AREA_STYLE_COLOUR ( '', #328 ) ;
#1096 = SURFACE_STYLE_FILL_AREA ( #1094 ) ;
#1097 = SURFACE_STYLE_USAGE ( .BOTH. , #601 ) ;
#1098 = DIRECTION ( 'NONE',  ( -3.763476001707854080E-16, -1.000000000000000000, 0.000000000000000000 ) ) ;
#1099 = FILL_AREA_STYLE ('',( #834 ) ) ;
#1100 = EDGE_CURVE ( 'NONE', #1043, #615, #1023, .T. ) ;
#1101 = CARTESIAN_POINT ( 'NONE',  ( -3.556190395207061261, 2.609365052918086292, 0.4550000000000005151 ) ) ;
#1102 = DIRECTION ( 'NONE',  ( 0.000000000000000000, 0.000000000000000000, 1.000000000000000000 ) ) ;
#1103 = ORIENTED_EDGE ( 'NONE', *, *, #281, .F. ) ;
#1104 = FACE_OUTER_BOUND ( 'NONE', #354, .T. ) ;
#1105 =( GEOMETRIC_REPRESENTATION_CONTEXT ( 3 ) GLOBAL_UNCERTAINTY_ASSIGNED_CONTEXT ( ( #680 ) ) GLOBAL_UNIT_ASSIGNED_CONTEXT ( ( #396, #216, #220 ) ) REPRESENTATION_CONTEXT ( 'NONE', 'WORKASPACE' ) );
#1106 = UNCERTAINTY_MEASURE_WITH_UNIT (LENGTH_MEASURE( 1.000000000000000082E-05 ), #905, 'distance_accuracy_value', 'NONE');
#1107 = CYLINDRICAL_SURFACE ( 'NONE', #801, 0.2549999999999999489 ) ;
#1108 = MECHANICAL_DESIGN_GEOMETRIC_PRESENTATION_REPRESENTATION (  '', ( #763 ), #475 ) ;
#1109 = TOROIDAL_SURFACE ( 'NONE', #719, 1.000000000000000000, 0.2549999999999999489 ) ;
#1110 = MECHANICAL_DESIGN_GEOMETRIC_PRESENTATION_REPRESENTATION (  '', ( #476 ), #618 ) ;
#1111 = APPLICATION_CONTEXT ( 'automotive_design' ) ;
#1112 = CARTESIAN_POINT ( 'NONE',  ( -6.350000000000001421, -2.999999999999999112, 0.000000000000000000 ) ) ;
#1113 = ORIENTED_EDGE ( 'NONE', *, *, #1100, .F. ) ;
#1114 = CARTESIAN_POINT ( 'NONE',  ( -5.350000000000000533, 1.609365052918086292, 0.000000000000000000 ) ) ;
#1115 = ORIENTED_EDGE ( 'NONE', *, *, #419, .F. ) ;
#1116 = FACE_OUTER_BOUND ( 'NONE', #18, .T. ) ;
#1117 = ORIENTED_EDGE ( 'NONE', *, *, #258, .F. ) ;
ENDSEC;
END-ISO-10303-21;
