ISO-10303-21;
HEADER;
FILE_DESCRIPTION (( 'STEP AP214' ),
    '1' );
FILE_NAME ('Capacitor Ceramic No Polarity axial 10.16.STEP',
    '2026-02-18T23:28:46',
    ( '' ),
    ( '' ),
    'SwSTEP 2.0',
    'SolidWorks 2026',
    '' );
FILE_SCHEMA (( 'AUTOMOTIVE_DESIGN' ));
ENDSEC;

DATA;
#1 = FILL_AREA_STYLE_COLOUR ( '', #1018 ) ;
#2 = UNCERTAINTY_MEASURE_WITH_UNIT (LENGTH_MEASURE( 1.000000000000000082E-05 ), #1027, 'distance_accuracy_value', 'NONE');
#3 = VERTEX_POINT ( 'NONE', #793 ) ;
#4 = CYLINDRICAL_SURFACE ( 'NONE', #662, 0.2549999999999999489 ) ;
#5 =( NAMED_UNIT ( * ) PLANE_ANGLE_UNIT ( ) SI_UNIT ( $, .RADIAN. ) );
#6 = FILL_AREA_STYLE_COLOUR ( '', #858 ) ;
#7 = CARTESIAN_POINT ( 'NONE',  ( -1.804968851620622594, 2.609365052918086292, 0.000000000000000000 ) ) ;
#8 = AXIS2_PLACEMENT_3D ( 'NONE', #246, #942, #448 ) ;
#9 =( NAMED_UNIT ( * ) PLANE_ANGLE_UNIT ( ) SI_UNIT ( $, .RADIAN. ) );
#10 = COLOUR_RGB ( '',0.8980392156862745390, 0.9176470588235293713, 0.9294117647058823817 ) ;
#11 = ORIENTED_EDGE ( 'NONE', *, *, #913, .T. ) ;
#12 = CARTESIAN_POINT ( 'NONE',  ( -4.824999999999999289, 1.609365052918087180, 0.000000000000000000 ) ) ;
#13 =( LENGTH_UNIT ( ) NAMED_UNIT ( * ) SI_UNIT ( .MILLI., .METRE. ) );
#14 = DIRECTION ( 'NONE',  ( -1.000000000000000000, 0.000000000000000000, 0.000000000000000000 ) ) ;
#15 =( GEOMETRIC_REPRESENTATION_CONTEXT ( 3 ) GLOBAL_UNCERTAINTY_ASSIGNED_CONTEXT ( ( #169 ) ) GLOBAL_UNIT_ASSIGNED_CONTEXT ( ( #85, #1046, #849 ) ) REPRESENTATION_CONTEXT ( 'NONE', 'WORKASPACE' ) );
#16 =( GEOMETRIC_REPRESENTATION_CONTEXT ( 3 ) GLOBAL_UNCERTAINTY_ASSIGNED_CONTEXT ( ( #807 ) ) GLOBAL_UNIT_ASSIGNED_CONTEXT ( ( #322, #827, #748 ) ) REPRESENTATION_CONTEXT ( 'NONE', 'WORKASPACE' ) );
#17 = ORIENTED_EDGE ( 'NONE', *, *, #188, .T. ) ;
#18 = DIRECTION ( 'NONE',  ( 0.000000000000000000, 0.000000000000000000, -1.000000000000000000 ) ) ;
#19 =( LENGTH_UNIT ( ) NAMED_UNIT ( * ) SI_UNIT ( .MILLI., .METRE. ) );
#20 = SURFACE_STYLE_FILL_AREA ( #468 ) ;
#21 = ADVANCED_FACE ( 'NONE', ( #708 ), #1058, .T. ) ;
#22 = EDGE_LOOP ( 'NONE', ( #256, #737, #1085, #852, #538 ) ) ;
#23 = DIRECTION ( 'NONE',  ( 2.832769448823989808E-16, 1.000000000000000000, -0.000000000000000000 ) ) ;
#24 = ADVANCED_FACE ( 'NONE', ( #815 ), #911, .T. ) ;
#25 = AXIS2_PLACEMENT_3D ( 'NONE', #841, #332, #239 ) ;
#26 =( LENGTH_UNIT ( ) NAMED_UNIT ( * ) SI_UNIT ( .MILLI., .METRE. ) );
#27 = CARTESIAN_POINT ( 'NONE',  ( -1.804968851620623482, 2.609365052918086292, 0.000000000000000000 ) ) ;
#28 = STYLED_ITEM ( 'NONE', ( #429 ), #998 ) ;
#29 = CARTESIAN_POINT ( 'NONE',  ( 3.556190395207061261, 2.609365052918086292, 0.2549999999999999489 ) ) ;
#30 = STYLED_ITEM ( 'NONE', ( #46 ), #143 ) ;
#31 = UNCERTAINTY_MEASURE_WITH_UNIT (LENGTH_MEASURE( 1.000000000000000082E-05 ), #142, 'distance_accuracy_value', 'NONE');
#32 = AXIS2_PLACEMENT_3D ( 'NONE', #869, #671, #766 ) ;
#33 = CARTESIAN_POINT ( 'NONE',  ( 4.080000000000000071, 2.609365052918086292, 0.000000000000000000 ) ) ;
#34 = EDGE_CURVE ( 'NONE', #880, #269, #609, .T. ) ;
#35 = CYLINDRICAL_SURFACE ( 'NONE', #1057, 1.609365052918086292 ) ;
#36 =( NAMED_UNIT ( * ) SI_UNIT ( $, .STERADIAN. ) SOLID_ANGLE_UNIT ( ) );
#37 = EDGE_CURVE ( 'NONE', #880, #764, #1086, .T. ) ;
#38 = EDGE_LOOP ( 'NONE', ( #1006, #1011 ) ) ;
#39 = FACE_OUTER_BOUND ( 'NONE', #391, .T. ) ;
#40 = CIRCLE ( 'NONE', #985, 1.609365052918086070 ) ;
#41 = ORIENTED_EDGE ( 'NONE', *, *, #814, .T. ) ;
#42 = DIRECTION ( 'NONE',  ( -1.000000000000000000, -0.000000000000000000, -0.000000000000000000 ) ) ;
#43 = PRESENTATION_STYLE_ASSIGNMENT (( #386 ) ) ;
#44 = AXIS2_PLACEMENT_3D ( 'NONE', #524, #614, #1113 ) ;
#45 = PRESENTATION_LAYER_ASSIGNMENT (  '', '', ( #639 ) ) ;
#46 = PRESENTATION_STYLE_ASSIGNMENT (( #575 ) ) ;
#47 = EDGE_CURVE ( 'NONE', #559, #410, #556, .T. ) ;
#48 = ORIENTED_EDGE ( 'NONE', *, *, #774, .F. ) ;
#49 = SURFACE_SIDE_STYLE ('',( #146 ) ) ;
#50 = CYLINDRICAL_SURFACE ( 'NONE', #32, 1.609365052918086292 ) ;
#51 = SURFACE_STYLE_FILL_AREA ( #319 ) ;
#52 = VERTEX_POINT ( 'NONE', #716 ) ;
#53 = ADVANCED_FACE ( 'NONE', ( #205 ), #369, .T. ) ;
#54 = DIRECTION ( 'NONE',  ( 1.000000000000000000, 0.000000000000000000, 0.000000000000000000 ) ) ;
#55 = MECHANICAL_DESIGN_GEOMETRIC_PRESENTATION_REPRESENTATION (  '', ( #306 ), #128 ) ;
#56 = CARTESIAN_POINT ( 'NONE',  ( -4.080000000000000071, 1.609365052918086292, 0.000000000000000000 ) ) ;
#57 =( GEOMETRIC_REPRESENTATION_CONTEXT ( 3 ) GLOBAL_UNCERTAINTY_ASSIGNED_CONTEXT ( ( #31 ) ) GLOBAL_UNIT_ASSIGNED_CONTEXT ( ( #142, #1007, #300 ) ) REPRESENTATION_CONTEXT ( 'NONE', 'WORKASPACE' ) );
#58 = DIRECTION ( 'NONE',  ( 0.000000000000000000, 0.000000000000000000, -1.000000000000000000 ) ) ;
#59 = AXIS2_PLACEMENT_3D ( 'NONE', #615, #357, #1056 ) ;
#60 = FILL_AREA_STYLE ('',( #394 ) ) ;
#61 =( GEOMETRIC_REPRESENTATION_CONTEXT ( 3 ) GLOBAL_UNCERTAINTY_ASSIGNED_CONTEXT ( ( #450 ) ) GLOBAL_UNIT_ASSIGNED_CONTEXT ( ( #819, #734, #724 ) ) REPRESENTATION_CONTEXT ( 'NONE', 'WORKASPACE' ) );
#62 = CARTESIAN_POINT ( 'NONE',  ( 4.080000000000000071, 1.609365052918086292, 0.000000000000000000 ) ) ;
#63 = ORIENTED_EDGE ( 'NONE', *, *, #465, .F. ) ;
#64 = DIRECTION ( 'NONE',  ( 0.000000000000000000, 0.000000000000000000, -1.000000000000000000 ) ) ;
#65 = AXIS2_PLACEMENT_3D ( 'NONE', #27, #285, #1067 ) ;
#66 = LINE ( 'NONE', #488, #624 ) ;
#67 = VECTOR ( 'NONE', #765, 1000.000000000000000 ) ;
#68 = EDGE_CURVE ( 'NONE', #516, #269, #178, .T. ) ;
#69 =( GEOMETRIC_REPRESENTATION_CONTEXT ( 3 ) GLOBAL_UNCERTAINTY_ASSIGNED_CONTEXT ( ( #460 ) ) GLOBAL_UNIT_ASSIGNED_CONTEXT ( ( #477, #473, #631 ) ) REPRESENTATION_CONTEXT ( 'NONE', 'WORKASPACE' ) );
#70 = ORIENTED_EDGE ( 'NONE', *, *, #569, .T. ) ;
#71 = EDGE_CURVE ( 'NONE', #922, #557, #809, .T. ) ;
#72 = PRESENTATION_STYLE_ASSIGNMENT (( #330 ) ) ;
#73 = CARTESIAN_POINT ( 'NONE',  ( -1.804968851620623482, 2.609365052918086292, -1.609365052918086292 ) ) ;
#74 = DIRECTION ( 'NONE',  ( 0.000000000000000000, 0.000000000000000000, 1.000000000000000000 ) ) ;
#75 = SURFACE_SIDE_STYLE ('',( #1115 ) ) ;
#76 = COLOUR_RGB ( '',0.8980392156862745390, 0.9176470588235293713, 0.9294117647058823817 ) ;
#77 = ORIENTED_EDGE ( 'NONE', *, *, #536, .F. ) ;
#78 = MECHANICAL_DESIGN_GEOMETRIC_PRESENTATION_REPRESENTATION (  '', ( #311 ), #986 ) ;
#79 = ORIENTED_EDGE ( 'NONE', *, *, #212, .T. ) ;
#80 = AXIS2_PLACEMENT_3D ( 'NONE', #384, #649, #1001 ) ;
#81 = CARTESIAN_POINT ( 'NONE',  ( 4.080000000000000071, 2.354365052918086398, 3.122849337825749310E-17 ) ) ;
#82 = MECHANICAL_DESIGN_GEOMETRIC_PRESENTATION_REPRESENTATION (  '', ( #1061 ), #149 ) ;
#83 = SURFACE_SIDE_STYLE ('',( #603 ) ) ;
#84 = VERTEX_POINT ( 'NONE', #1100 ) ;
#85 =( LENGTH_UNIT ( ) NAMED_UNIT ( * ) SI_UNIT ( .MILLI., .METRE. ) );
#86 = DIRECTION ( 'NONE',  ( 0.000000000000000000, 0.000000000000000000, -1.000000000000000000 ) ) ;
#87 = CARTESIAN_POINT ( 'NONE',  ( -5.079999999999999183, 1.609365052918087180, 0.000000000000000000 ) ) ;
#88 = DIRECTION ( 'NONE',  ( 0.000000000000000000, 0.000000000000000000, 1.000000000000000000 ) ) ;
#89 = PRODUCT_DEFINITION_CONTEXT ( 'detailed design', #622, 'design' ) ;
#90 = FACE_OUTER_BOUND ( 'NONE', #210, .T. ) ;
#91 = FILL_AREA_STYLE_COLOUR ( '', #76 ) ;
#92 = DIRECTION ( 'NONE',  ( -1.000000000000000000, -0.000000000000000000, -0.000000000000000000 ) ) ;
#93 =( NAMED_UNIT ( * ) PLANE_ANGLE_UNIT ( ) SI_UNIT ( $, .RADIAN. ) );
#94 = CIRCLE ( 'NONE', #878, 1.609365052918086292 ) ;
#95 = DIRECTION ( 'NONE',  ( 0.000000000000000000, 0.000000000000000000, -1.000000000000000000 ) ) ;
#96 = AXIS2_PLACEMENT_3D ( 'NONE', #253, #1033, #877 ) ;
#97 = PRESENTATION_LAYER_ASSIGNMENT (  '', '', ( #726 ) ) ;
#98 = VERTEX_POINT ( 'NONE', #151 ) ;
#99 = CARTESIAN_POINT ( 'NONE',  ( 1.804968851620623482, 1.000000000000000000, 0.000000000000000000 ) ) ;
#100 =( NAMED_UNIT ( * ) PLANE_ANGLE_UNIT ( ) SI_UNIT ( $, .RADIAN. ) );
#101 = CIRCLE ( 'NONE', #65, 1.609365052918086292 ) ;
#102 = PRESENTATION_LAYER_ASSIGNMENT (  '', '', ( #805 ) ) ;
#103 = ORIENTED_EDGE ( 'NONE', *, *, #569, .F. ) ;
#104 = EDGE_CURVE ( 'NONE', #611, #52, #628, .T. ) ;
#105 = DIRECTION ( 'NONE',  ( 0.000000000000000000, 0.000000000000000000, 1.000000000000000000 ) ) ;
#106 = PRESENTATION_STYLE_ASSIGNMENT (( #891 ) ) ;
#107 = CARTESIAN_POINT ( 'NONE',  ( 3.556190395207061261, 2.609365052918086292, 0.4550000000000005151 ) ) ;
#108 = PRESENTATION_STYLE_ASSIGNMENT (( #784 ) ) ;
#109 = SURFACE_SIDE_STYLE ('',( #379 ) ) ;
#110 = COLOUR_RGB ( '',0.7529411764705882248, 0.7529411764705882248, 0.000000000000000000 ) ;
#111 = EDGE_CURVE ( 'NONE', #1074, #754, #160, .T. ) ;
#112 = PRESENTATION_LAYER_ASSIGNMENT (  '', '', ( #30 ) ) ;
#113 = AXIS2_PLACEMENT_3D ( 'NONE', #327, #678, #1024 ) ;
#114 = VERTEX_POINT ( 'NONE', #1009 ) ;
#115 = CARTESIAN_POINT ( 'NONE',  ( -3.556190395207061261, 2.609365052918086292, -0.2550000000000000044 ) ) ;
#116 = ADVANCED_FACE ( 'NONE', ( #577 ), #735, .F. ) ;
#117 = AXIS2_PLACEMENT_3D ( 'NONE', #276, #795, #961 ) ;
#118 =( LENGTH_UNIT ( ) NAMED_UNIT ( * ) SI_UNIT ( .MILLI., .METRE. ) );
#119 = UNCERTAINTY_MEASURE_WITH_UNIT (LENGTH_MEASURE( 1.000000000000000082E-05 ), #411, 'distance_accuracy_value', 'NONE');
#120 = CARTESIAN_POINT ( 'NONE',  ( -5.080000000000000959, -2.999999999999999112, 0.000000000000000000 ) ) ;
#121 = ORIENTED_EDGE ( 'NONE', *, *, #71, .T. ) ;
#122 = FILL_AREA_STYLE_COLOUR ( '', #10 ) ;
#123 = SURFACE_STYLE_FILL_AREA ( #221 ) ;
#124 = VERTEX_POINT ( 'NONE', #1093 ) ;
#125 = FILL_AREA_STYLE_COLOUR ( '', #1071 ) ;
#126 = CYLINDRICAL_SURFACE ( 'NONE', #508, 0.2549999999999999489 ) ;
#127 = COLOUR_RGB ( '',0.8980392156862745390, 0.9176470588235293713, 0.9294117647058823817 ) ;
#128 =( GEOMETRIC_REPRESENTATION_CONTEXT ( 3 ) GLOBAL_UNCERTAINTY_ASSIGNED_CONTEXT ( ( #543 ) ) GLOBAL_UNIT_ASSIGNED_CONTEXT ( ( #797, #981, #278 ) ) REPRESENTATION_CONTEXT ( 'NONE', 'WORKASPACE' ) );
#129 = SURFACE_STYLE_USAGE ( .BOTH. , #908 ) ;
#130 = DIRECTION ( 'NONE',  ( -0.000000000000000000, -0.000000000000000000, -1.000000000000000000 ) ) ;
#131 = ORIENTED_EDGE ( 'NONE', *, *, #555, .T. ) ;
#132 = AXIS2_PLACEMENT_3D ( 'NONE', #107, #542, #368 ) ;
#133 = DIRECTION ( 'NONE',  ( 0.000000000000000000, 0.000000000000000000, 1.000000000000000000 ) ) ;
#134 = FILL_AREA_STYLE_COLOUR ( '', #458 ) ;
#135 =( NAMED_UNIT ( * ) SI_UNIT ( $, .STERADIAN. ) SOLID_ANGLE_UNIT ( ) );
#136 = FILL_AREA_STYLE ('',( #995 ) ) ;
#137 = ADVANCED_FACE ( 'NONE', ( #666 ), #126, .T. ) ;
#138 = CARTESIAN_POINT ( 'NONE',  ( 5.334999999999999076, 1.609365052918087180, 0.000000000000000000 ) ) ;
#139 = DIRECTION ( 'NONE',  ( -1.000000000000000000, -0.000000000000000000, -0.000000000000000000 ) ) ;
#140 = EDGE_LOOP ( 'NONE', ( #496, #41, #503, #826 ) ) ;
#141 = LINE ( 'NONE', #738, #418 ) ;
#142 =( LENGTH_UNIT ( ) NAMED_UNIT ( * ) SI_UNIT ( .MILLI., .METRE. ) );
#143 = ADVANCED_FACE ( 'NONE', ( #39 ), #469, .T. ) ;
#144 = AXIS2_PLACEMENT_3D ( 'NONE', #281, #627, #895 ) ;
#145 = VERTEX_POINT ( 'NONE', #996 ) ;
#146 = SURFACE_STYLE_FILL_AREA ( #136 ) ;
#147 = EDGE_CURVE ( 'NONE', #98, #559, #220, .T. ) ;
#148 =( NAMED_UNIT ( * ) PLANE_ANGLE_UNIT ( ) SI_UNIT ( $, .RADIAN. ) );
#149 =( GEOMETRIC_REPRESENTATION_CONTEXT ( 3 ) GLOBAL_UNCERTAINTY_ASSIGNED_CONTEXT ( ( #255 ) ) GLOBAL_UNIT_ASSIGNED_CONTEXT ( ( #494, #669, #340 ) ) REPRESENTATION_CONTEXT ( 'NONE', 'WORKASPACE' ) );
#150 = EDGE_CURVE ( 'NONE', #832, #431, #419, .T. ) ;
#151 = CARTESIAN_POINT ( 'NONE',  ( 4.080000000000000071, 2.609365052918086292, 0.2549999999999999489 ) ) ;
#152 = APPLICATION_CONTEXT ( 'automotive_design' ) ;
#153 = ORIENTED_EDGE ( 'NONE', *, *, #707, .F. ) ;
#154 = STYLED_ITEM ( 'NONE', ( #788 ), #862 ) ;
#155 = AXIS2_PLACEMENT_3D ( 'NONE', #606, #258, #592 ) ;
#156 = CARTESIAN_POINT ( 'NONE',  ( -4.080000000000000071, 2.609365052918086292, 0.2549999999999999489 ) ) ;
#157 = ORIENTED_EDGE ( 'NONE', *, *, #992, .T. ) ;
#158 = DIRECTION ( 'NONE',  ( -1.000000000000000000, 0.000000000000000000, 0.000000000000000000 ) ) ;
#159 = ADVANCED_FACE ( 'NONE', ( #475 ), #50, .T. ) ;
#160 = CIRCLE ( 'NONE', #338, 0.2549999999999999489 ) ;
#161 = PRODUCT_CONTEXT ( 'NONE', #152, 'mechanical' ) ;
#162 = DIRECTION ( 'NONE',  ( 0.000000000000000000, 0.000000000000000000, -1.000000000000000000 ) ) ;
#163 = EDGE_CURVE ( 'NONE', #415, #975, #66, .T. ) ;
#164 = DIRECTION ( 'NONE',  ( -1.000000000000000000, -0.000000000000000000, -0.000000000000000000 ) ) ;
#165 = VERTEX_POINT ( 'NONE', #73 ) ;
#166 = SURFACE_SIDE_STYLE ('',( #1104 ) ) ;
#167 =( GEOMETRIC_REPRESENTATION_CONTEXT ( 3 ) GLOBAL_UNCERTAINTY_ASSIGNED_CONTEXT ( ( #715 ) ) GLOBAL_UNIT_ASSIGNED_CONTEXT ( ( #976, #645, #991 ) ) REPRESENTATION_CONTEXT ( 'NONE', 'WORKASPACE' ) );
#168 = CARTESIAN_POINT ( 'NONE',  ( 1.804968851620622594, 2.609365052918086292, 0.000000000000000000 ) ) ;
#169 = UNCERTAINTY_MEASURE_WITH_UNIT (LENGTH_MEASURE( 1.000000000000000082E-05 ), #85, 'distance_accuracy_value', 'NONE');
#170 = SURFACE_STYLE_USAGE ( .BOTH. , #1109 ) ;
#171 = ORIENTED_EDGE ( 'NONE', *, *, #879, .T. ) ;
#172 = SURFACE_STYLE_FILL_AREA ( #853 ) ;
#173 = SURFACE_STYLE_FILL_AREA ( #582 ) ;
#174 = CARTESIAN_POINT ( 'NONE',  ( -4.824999999999999289, 1.609365052918087180, 0.000000000000000000 ) ) ;
#175 = AXIS2_PLACEMENT_3D ( 'NONE', #719, #223, #390 ) ;
#176 = CIRCLE ( 'NONE', #607, 0.4047061138363222121 ) ;
#177 = CARTESIAN_POINT ( 'NONE',  ( 3.362617346942188501, 2.609365052918086292, 0.000000000000000000 ) ) ;
#178 = CIRCLE ( 'NONE', #1029, 1.609365052918086070 ) ;
#179 = ORIENTED_EDGE ( 'NONE', *, *, #621, .T. ) ;
#180 = DIRECTION ( 'NONE',  ( 1.000000000000000000, -0.000000000000000000, -0.000000000000000000 ) ) ;
#181 = DIRECTION ( 'NONE',  ( -1.000000000000000000, -0.000000000000000000, -0.000000000000000000 ) ) ;
#182 =( NAMED_UNIT ( * ) PLANE_ANGLE_UNIT ( ) SI_UNIT ( $, .RADIAN. ) );
#183 = ORIENTED_EDGE ( 'NONE', *, *, #334, .F. ) ;
#184 = SURFACE_SIDE_STYLE ('',( #641 ) ) ;
#185 = CARTESIAN_POINT ( 'NONE',  ( 3.362617346942188501, 2.609365052918086292, 0.000000000000000000 ) ) ;
#186 = SURFACE_STYLE_USAGE ( .BOTH. , #83 ) ;
#187 = CIRCLE ( 'NONE', #820, 0.4047061138363226562 ) ;
#188 = EDGE_CURVE ( 'NONE', #84, #98, #803, .T. ) ;
#189 = EDGE_LOOP ( 'NONE', ( #999, #817, #1110, #121, #250 ) ) ;
#190 = TOROIDAL_SURFACE ( 'NONE', #768, 0.4550000000000005151, 0.2000000000000004829 ) ;
#191 = ORIENTED_EDGE ( 'NONE', *, *, #814, .F. ) ;
#192 = FILL_AREA_STYLE ('',( #6 ) ) ;
#193 = FACE_OUTER_BOUND ( 'NONE', #573, .T. ) ;
#194 = CARTESIAN_POINT ( 'NONE',  ( -3.362617346942187613, 2.204658939081764135, 0.000000000000000000 ) ) ;
#195 = VERTEX_POINT ( 'NONE', #492 ) ;
#196 = CARTESIAN_POINT ( 'NONE',  ( -4.080000000000000071, 2.609365052918086292, 0.000000000000000000 ) ) ;
#197 = DIRECTION ( 'NONE',  ( 1.000000000000000000, -0.000000000000000000, -0.000000000000000000 ) ) ;
#198 = PRESENTATION_STYLE_ASSIGNMENT (( #284 ) ) ;
#199 =( GEOMETRIC_REPRESENTATION_CONTEXT ( 3 ) GLOBAL_UNCERTAINTY_ASSIGNED_CONTEXT ( ( #203 ) ) GLOBAL_UNIT_ASSIGNED_CONTEXT ( ( #413, #749, #672 ) ) REPRESENTATION_CONTEXT ( 'NONE', 'WORKASPACE' ) );
#200 = FILL_AREA_STYLE ('',( #640 ) ) ;
#201 = TOROIDAL_SURFACE ( 'NONE', #950, 1.000000000000000000, 0.2549999999999999489 ) ;
#202 = ORIENTED_EDGE ( 'NONE', *, *, #71, .F. ) ;
#203 = UNCERTAINTY_MEASURE_WITH_UNIT (LENGTH_MEASURE( 1.000000000000000082E-05 ), #413, 'distance_accuracy_value', 'NONE');
#204 = PRESENTATION_LAYER_ASSIGNMENT (  '', '', ( #154 ) ) ;
#205 = FACE_OUTER_BOUND ( 'NONE', #787, .T. ) ;
#206 = FACE_OUTER_BOUND ( 'NONE', #1017, .T. ) ;
#207 =( GEOMETRIC_REPRESENTATION_CONTEXT ( 3 ) GLOBAL_UNCERTAINTY_ASSIGNED_CONTEXT ( ( #798 ) ) GLOBAL_UNIT_ASSIGNED_CONTEXT ( ( #801, #216, #36 ) ) REPRESENTATION_CONTEXT ( 'NONE', 'WORKASPACE' ) );
#208 = FILL_AREA_STYLE_COLOUR ( '', #365 ) ;
#209 = PRESENTATION_STYLE_ASSIGNMENT (( #753 ) ) ;
#210 = EDGE_LOOP ( 'NONE', ( #321, #481 ) ) ;
#211 = PRESENTATION_STYLE_ASSIGNMENT (( #530 ) ) ;
#212 = EDGE_CURVE ( 'NONE', #1045, #463, #1022, .T. ) ;
#213 = CARTESIAN_POINT ( 'NONE',  ( 4.080000000000000071, 2.609365052918086292, 0.000000000000000000 ) ) ;
#214 = SURFACE_SIDE_STYLE ('',( #51 ) ) ;
#215 = PRESENTATION_LAYER_ASSIGNMENT (  '', '', ( #393 ) ) ;
#216 =( NAMED_UNIT ( * ) PLANE_ANGLE_UNIT ( ) SI_UNIT ( $, .RADIAN. ) );
#217 = ORIENTED_EDGE ( 'NONE', *, *, #873, .F. ) ;
#218 =( LENGTH_UNIT ( ) NAMED_UNIT ( * ) SI_UNIT ( .MILLI., .METRE. ) );
#219 = CARTESIAN_POINT ( 'NONE',  ( 4.080000000000000071, 2.609365052918086292, 0.2549999999999999489 ) ) ;
#220 = CIRCLE ( 'NONE', #767, 0.2549999999999999489 ) ;
#221 = FILL_AREA_STYLE ('',( #810 ) ) ;
#222 = TOROIDAL_SURFACE ( 'NONE', #843, 1.000000000000000000, 0.2549999999999999489 ) ;
#223 = DIRECTION ( 'NONE',  ( 0.000000000000000000, -1.000000000000000000, 0.000000000000000000 ) ) ;
#224 = CIRCLE ( 'NONE', #866, 1.609365052918086292 ) ;
#225 = ORIENTED_EDGE ( 'NONE', *, *, #147, .T. ) ;
#226 = FACE_OUTER_BOUND ( 'NONE', #887, .T. ) ;
#227 = LINE ( 'NONE', #156, #236 ) ;
#228 = DIRECTION ( 'NONE',  ( 0.000000000000000000, -1.224646799147353207E-16, 1.000000000000000000 ) ) ;
#229 =( LENGTH_UNIT ( ) NAMED_UNIT ( * ) SI_UNIT ( .MILLI., .METRE. ) );
#230 = ORIENTED_EDGE ( 'NONE', *, *, #648, .F. ) ;
#231 = PRESENTATION_STYLE_ASSIGNMENT (( #317 ) ) ;
#232 = DIRECTION ( 'NONE',  ( 0.000000000000000000, -1.000000000000000000, 0.000000000000000000 ) ) ;
#233 = EDGE_CURVE ( 'NONE', #625, #893, #997, .T. ) ;
#234 = DIRECTION ( 'NONE',  ( 2.832769448823989808E-16, 1.000000000000000000, -0.000000000000000000 ) ) ;
#235 = CARTESIAN_POINT ( 'NONE',  ( -3.362617346942187613, 3.014071166754408448, 1.233262903810380613E-16 ) ) ;
#236 = VECTOR ( 'NONE', #493, 1000.000000000000000 ) ;
#237 = ORIENTED_EDGE ( 'NONE', *, *, #452, .F. ) ;
#238 = SPHERICAL_SURFACE ( 'NONE', #789, 1.609365052918086070 ) ;
#239 = DIRECTION ( 'NONE',  ( 1.000000000000000000, 0.000000000000000000, 0.000000000000000000 ) ) ;
#240 = PRESENTATION_LAYER_ASSIGNMENT (  '', '', ( #638 ) ) ;
#241 = AXIS2_PLACEMENT_3D ( 'NONE', #275, #370, #966 ) ;
#242 = PRODUCT_RELATED_PRODUCT_CATEGORY ( 'part', '', ( #1036 ) ) ;
#243 = VERTEX_POINT ( 'NONE', #1031 ) ;
#244 = CARTESIAN_POINT ( 'NONE',  ( -1.804968851620622594, 2.609365052918086292, 0.000000000000000000 ) ) ;
#245 = DIRECTION ( 'NONE',  ( 2.832769448823989808E-16, -1.000000000000000000, 0.000000000000000000 ) ) ;
#246 = CARTESIAN_POINT ( 'NONE',  ( -3.362617346942187613, 2.609365052918086292, 0.000000000000000000 ) ) ;
#247 = ORIENTED_EDGE ( 'NONE', *, *, #334, .T. ) ;
#248 = DIRECTION ( 'NONE',  ( -1.000000000000000000, -0.000000000000000000, -0.000000000000000000 ) ) ;
#249 = FILL_AREA_STYLE ('',( #867 ) ) ;
#250 = ORIENTED_EDGE ( 'NONE', *, *, #301, .T. ) ;
#251 = ADVANCED_FACE ( 'NONE', ( #600 ), #594, .T. ) ;
#252 =( NAMED_UNIT ( * ) SI_UNIT ( $, .STERADIAN. ) SOLID_ANGLE_UNIT ( ) );
#253 = CARTESIAN_POINT ( 'NONE',  ( 1.804968851620623482, 2.609365052918086292, 0.000000000000000000 ) ) ;
#254 = CIRCLE ( 'NONE', #896, 0.2549999999999999489 ) ;
#255 = UNCERTAINTY_MEASURE_WITH_UNIT (LENGTH_MEASURE( 1.000000000000000082E-05 ), #494, 'distance_accuracy_value', 'NONE');
#256 = ORIENTED_EDGE ( 'NONE', *, *, #383, .F. ) ;
#257 = CARTESIAN_POINT ( 'NONE',  ( 5.080000000000000959, -2.999999999999999112, 0.000000000000000000 ) ) ;
#258 = DIRECTION ( 'NONE',  ( -3.763476001707854080E-16, -1.000000000000000000, 0.000000000000000000 ) ) ;
#259 = VECTOR ( 'NONE', #912, 1000.000000000000000 ) ;
#260 = STYLED_ITEM ( 'NONE', ( #72 ), #703 ) ;
#261 = SURFACE_STYLE_USAGE ( .BOTH. , #272 ) ;
#262 =( NAMED_UNIT ( * ) SI_UNIT ( $, .STERADIAN. ) SOLID_ANGLE_UNIT ( ) );
#263 = VECTOR ( 'NONE', #139, 1000.000000000000000 ) ;
#264 = EDGE_CURVE ( 'NONE', #415, #243, #1105, .T. ) ;
#265 = ORIENTED_EDGE ( 'NONE', *, *, #497, .T. ) ;
#266 = DIRECTION ( 'NONE',  ( -1.000000000000000000, 0.000000000000000000, 0.000000000000000000 ) ) ;
#267 = EDGE_CURVE ( 'NONE', #195, #52, #970, .T. ) ;
#268 = CARTESIAN_POINT ( 'NONE',  ( 0.000000000000000000, 0.000000000000000000, 0.000000000000000000 ) ) ;
#269 = VERTEX_POINT ( 'NONE', #446 ) ;
#270 = SURFACE_STYLE_USAGE ( .BOTH. , #184 ) ;
#271 = CIRCLE ( 'NONE', #709, 0.2549999999999999489 ) ;
#272 = SURFACE_SIDE_STYLE ('',( #694 ) ) ;
#273 = MECHANICAL_DESIGN_GEOMETRIC_PRESENTATION_REPRESENTATION (  '', ( #726 ), #526 ) ;
#274 = FILL_AREA_STYLE ('',( #91 ) ) ;
#275 = CARTESIAN_POINT ( 'NONE',  ( 1.804968851620623482, 2.609365052918086292, 0.000000000000000000 ) ) ;
#276 = CARTESIAN_POINT ( 'NONE',  ( -3.556190395207061261, 2.609365052918086292, 0.000000000000000000 ) ) ;
#277 = ADVANCED_FACE ( 'NONE', ( #544 ), #35, .T. ) ;
#278 =( NAMED_UNIT ( * ) SI_UNIT ( $, .STERADIAN. ) SOLID_ANGLE_UNIT ( ) );
#279 = ORIENTED_EDGE ( 'NONE', *, *, #343, .F. ) ;
#280 = DIRECTION ( 'NONE',  ( 1.000000000000000000, -0.000000000000000000, -0.000000000000000000 ) ) ;
#281 = CARTESIAN_POINT ( 'NONE',  ( -3.362617346942187613, 2.609365052918086292, 0.000000000000000000 ) ) ;
#282 = DIRECTION ( 'NONE',  ( -0.000000000000000000, -0.000000000000000000, -1.000000000000000000 ) ) ;
#283 = UNCERTAINTY_MEASURE_WITH_UNIT (LENGTH_MEASURE( 1.000000000000000082E-05 ), #428, 'distance_accuracy_value', 'NONE');
#284 = SURFACE_STYLE_USAGE ( .BOTH. , #553 ) ;
#285 = DIRECTION ( 'NONE',  ( -1.000000000000000000, -0.000000000000000000, -0.000000000000000000 ) ) ;
#286 = CARTESIAN_POINT ( 'NONE',  ( -4.080000000000000071, 2.609365052918086292, 0.000000000000000000 ) ) ;
#287 =( GEOMETRIC_REPRESENTATION_CONTEXT ( 3 ) GLOBAL_UNCERTAINTY_ASSIGNED_CONTEXT ( ( #1078 ) ) GLOBAL_UNIT_ASSIGNED_CONTEXT ( ( #26, #380, #566 ) ) REPRESENTATION_CONTEXT ( 'NONE', 'WORKASPACE' ) );
#288 = CARTESIAN_POINT ( 'NONE',  ( 1.804968851620623482, 2.609365052918086292, -1.609365052918086292 ) ) ;
#289 = CIRCLE ( 'NONE', #44, 0.2549999999999999489 ) ;
#290 = FACE_OUTER_BOUND ( 'NONE', #466, .T. ) ;
#291 = CIRCLE ( 'NONE', #725, 0.2549999999999999489 ) ;
#292 = ADVANCED_FACE ( 'NONE', ( #290 ), #808, .T. ) ;
#293 = FILL_AREA_STYLE ('',( #1073 ) ) ;
#294 = VERTEX_POINT ( 'NONE', #194 ) ;
#295 = SURFACE_STYLE_FILL_AREA ( #312 ) ;
#296 = AXIS2_PLACEMENT_3D ( 'NONE', #952, #180, #350 ) ;
#297 = CIRCLE ( 'NONE', #1083, 0.2549999999999999489 ) ;
#298 = DIRECTION ( 'NONE',  ( 1.000000000000000000, 0.000000000000000000, 0.000000000000000000 ) ) ;
#299 = EDGE_LOOP ( 'NONE', ( #840, #951, #983, #179, #217 ) ) ;
#300 =( NAMED_UNIT ( * ) SI_UNIT ( $, .STERADIAN. ) SOLID_ANGLE_UNIT ( ) );
#301 = EDGE_CURVE ( 'NONE', #557, #893, #271, .T. ) ;
#302 = CARTESIAN_POINT ( 'NONE',  ( -10.09675116564010722, 2.609365052918086292, 1.609365052918086292 ) ) ;
#303 = ORIENTED_EDGE ( 'NONE', *, *, #619, .T. ) ;
#304 = CARTESIAN_POINT ( 'NONE',  ( -4.080000000000000071, 2.609365052918086292, 0.000000000000000000 ) ) ;
#305 = LINE ( 'NONE', #219, #1043 ) ;
#306 = STYLED_ITEM ( 'NONE', ( #906 ), #292 ) ;
#307 = DIRECTION ( 'NONE',  ( 0.000000000000000000, 0.000000000000000000, -1.000000000000000000 ) ) ;
#308 = STYLED_ITEM ( 'NONE', ( #483 ), #358 ) ;
#309 = ORIENTED_EDGE ( 'NONE', *, *, #548, .T. ) ;
#310 = DIRECTION ( 'NONE',  ( 2.832769448823989808E-16, -1.000000000000000000, 0.000000000000000000 ) ) ;
#311 = STYLED_ITEM ( 'NONE', ( #231 ), #1055 ) ;
#312 = FILL_AREA_STYLE ('',( #1077 ) ) ;
#313 = CARTESIAN_POINT ( 'NONE',  ( 4.080000000000000071, 1.609365052918086292, 3.122849337825749926E-17 ) ) ;
#314 = CARTESIAN_POINT ( 'NONE',  ( -5.080000000000000959, -2.999999999999999112, 0.000000000000000000 ) ) ;
#315 = COLOUR_RGB ( '',0.8980392156862745390, 0.9176470588235293713, 0.9294117647058823817 ) ;
#316 = ORIENTED_EDGE ( 'NONE', *, *, #913, .F. ) ;
#317 = SURFACE_STYLE_USAGE ( .BOTH. , #833 ) ;
#318 = DIRECTION ( 'NONE',  ( -1.000000000000000000, -0.000000000000000000, -0.000000000000000000 ) ) ;
#319 = FILL_AREA_STYLE ('',( #596 ) ) ;
#320 =( NAMED_UNIT ( * ) PLANE_ANGLE_UNIT ( ) SI_UNIT ( $, .RADIAN. ) );
#321 = ORIENTED_EDGE ( 'NONE', *, *, #1016, .T. ) ;
#322 =( LENGTH_UNIT ( ) NAMED_UNIT ( * ) SI_UNIT ( .MILLI., .METRE. ) );
#323 =( NAMED_UNIT ( * ) PLANE_ANGLE_UNIT ( ) SI_UNIT ( $, .RADIAN. ) );
#324 = AXIS2_PLACEMENT_3D ( 'NONE', #758, #245, #162 ) ;
#325 = ORIENTED_EDGE ( 'NONE', *, *, #37, .F. ) ;
#326 = CARTESIAN_POINT ( 'NONE',  ( -4.825000000000001066, -2.999999999999999112, 0.000000000000000000 ) ) ;
#327 = CARTESIAN_POINT ( 'NONE',  ( -3.556190395207061261, 2.609365052918086292, 0.000000000000000000 ) ) ;
#328 = MECHANICAL_DESIGN_GEOMETRIC_PRESENTATION_REPRESENTATION (  '', ( #639 ), #602 ) ;
#329 = EDGE_LOOP ( 'NONE', ( #103, #171, #633, #511 ) ) ;
#330 = SURFACE_STYLE_USAGE ( .BOTH. , #166 ) ;
#331 = PRESENTATION_LAYER_ASSIGNMENT (  '', '', ( #476 ) ) ;
#332 = DIRECTION ( 'NONE',  ( -0.000000000000000000, 0.000000000000000000, 1.000000000000000000 ) ) ;
#333 =( LENGTH_UNIT ( ) NAMED_UNIT ( * ) SI_UNIT ( .MILLI., .METRE. ) );
#334 = EDGE_CURVE ( 'NONE', #243, #415, #291, .T. ) ;
#335 = DIRECTION ( 'NONE',  ( -1.000000000000000000, -0.000000000000000000, -0.000000000000000000 ) ) ;
#336 = ORIENTED_EDGE ( 'NONE', *, *, #1070, .T. ) ;
#337 =( NAMED_UNIT ( * ) SI_UNIT ( $, .STERADIAN. ) SOLID_ANGLE_UNIT ( ) );
#338 = AXIS2_PLACEMENT_3D ( 'NONE', #314, #234, #933 ) ;
#339 = CARTESIAN_POINT ( 'NONE',  ( 3.362617346942188501, 2.609365052918086292, 0.000000000000000000 ) ) ;
#340 =( NAMED_UNIT ( * ) SI_UNIT ( $, .STERADIAN. ) SOLID_ANGLE_UNIT ( ) );
#341 = ORIENTED_EDGE ( 'NONE', *, *, #835, .T. ) ;
#342 = FILL_AREA_STYLE_COLOUR ( '', #1099 ) ;
#343 = EDGE_CURVE ( 'NONE', #1045, #528, #576, .T. ) ;
#344 = FILL_AREA_STYLE_COLOUR ( '', #501 ) ;
#345 = SURFACE_SIDE_STYLE ('',( #884 ) ) ;
#346 = DIRECTION ( 'NONE',  ( 0.000000000000000000, -1.000000000000000000, 0.000000000000000000 ) ) ;
#347 = ADVANCED_FACE ( 'NONE', ( #620 ), #882, .F. ) ;
#348 =( GEOMETRIC_REPRESENTATION_CONTEXT ( 3 ) GLOBAL_UNCERTAINTY_ASSIGNED_CONTEXT ( ( #980 ) ) GLOBAL_UNIT_ASSIGNED_CONTEXT ( ( #860, #148, #252 ) ) REPRESENTATION_CONTEXT ( 'NONE', 'WORKASPACE' ) );
#349 = ORIENTED_EDGE ( 'NONE', *, *, #163, .T. ) ;
#350 = DIRECTION ( 'NONE',  ( 0.000000000000000000, 0.000000000000000000, -1.000000000000000000 ) ) ;
#351 = ADVANCED_FACE ( 'NONE', ( #1053 ), #779, .T. ) ;
#352 = CIRCLE ( 'NONE', #296, 0.2549999999999999489 ) ;
#353 =( GEOMETRIC_REPRESENTATION_CONTEXT ( 3 ) GLOBAL_UNCERTAINTY_ASSIGNED_CONTEXT ( ( #371 ) ) GLOBAL_UNIT_ASSIGNED_CONTEXT ( ( #218, #1000, #739 ) ) REPRESENTATION_CONTEXT ( 'NONE', 'WORKASPACE' ) );
#354 = COLOUR_RGB ( '',0.8980392156862745390, 0.9176470588235293713, 0.9294117647058823817 ) ;
#355 = EDGE_LOOP ( 'NONE', ( #491, #978, #1101, #935, #776, #325 ) ) ;
#356 = SURFACE_SIDE_STYLE ('',( #20 ) ) ;
#357 = DIRECTION ( 'NONE',  ( 0.000000000000000000, 0.000000000000000000, 1.000000000000000000 ) ) ;
#358 = ADVANCED_FACE ( 'NONE', ( #513 ), #740, .T. ) ;
#359 = ORIENTED_EDGE ( 'NONE', *, *, #497, .F. ) ;
#360 =( NAMED_UNIT ( * ) PLANE_ANGLE_UNIT ( ) SI_UNIT ( $, .RADIAN. ) );
#361 = MECHANICAL_DESIGN_GEOMETRIC_PRESENTATION_REPRESENTATION (  '', ( #892 ), #287 ) ;
#362 = COLOUR_RGB ( '',0.7529411764705882248, 0.7529411764705882248, 0.000000000000000000 ) ;
#363 = CARTESIAN_POINT ( 'NONE',  ( -10.09675116564010722, 2.609365052918086292, 0.000000000000000000 ) ) ;
#364 = ORIENTED_EDGE ( 'NONE', *, *, #977, .T. ) ;
#365 = COLOUR_RGB ( '',0.8980392156862745390, 0.9176470588235293713, 0.9294117647058823817 ) ;
#366 = DIRECTION ( 'NONE',  ( 1.000000000000000000, -0.000000000000000000, -0.000000000000000000 ) ) ;
#367 = COLOUR_RGB ( '',0.8980392156862745390, 0.9176470588235293713, 0.9294117647058823817 ) ;
#368 = DIRECTION ( 'NONE',  ( 0.000000000000000000, 0.000000000000000000, -1.000000000000000000 ) ) ;
#369 = CYLINDRICAL_SURFACE ( 'NONE', #533, 0.2549999999999999489 ) ;
#370 = DIRECTION ( 'NONE',  ( -1.000000000000000000, -0.000000000000000000, -0.000000000000000000 ) ) ;
#371 = UNCERTAINTY_MEASURE_WITH_UNIT (LENGTH_MEASURE( 1.000000000000000082E-05 ), #218, 'distance_accuracy_value', 'NONE');
#372 = SURFACE_STYLE_USAGE ( .BOTH. , #109 ) ;
#373 = MECHANICAL_DESIGN_GEOMETRIC_PRESENTATION_REPRESENTATION (  '', ( #571 ), #590 ) ;
#374 =( NAMED_UNIT ( * ) PLANE_ANGLE_UNIT ( ) SI_UNIT ( $, .RADIAN. ) );
#375 = CARTESIAN_POINT ( 'NONE',  ( -1.804968851620623482, 2.609365052918086292, 0.000000000000000000 ) ) ;
#376 = ORIENTED_EDGE ( 'NONE', *, *, #452, .T. ) ;
#377 = PRESENTATION_STYLE_ASSIGNMENT (( #480 ) ) ;
#378 = SURFACE_STYLE_USAGE ( .BOTH. , #629 ) ;
#379 = SURFACE_STYLE_FILL_AREA ( #459 ) ;
#380 =( NAMED_UNIT ( * ) PLANE_ANGLE_UNIT ( ) SI_UNIT ( $, .RADIAN. ) );
#381 = PRESENTATION_LAYER_ASSIGNMENT (  '', '', ( #311 ) ) ;
#382 = ORIENTED_EDGE ( 'NONE', *, *, #392, .F. ) ;
#383 = EDGE_CURVE ( 'NONE', #145, #124, #227, .T. ) ;
#384 = CARTESIAN_POINT ( 'NONE',  ( 4.080000000000000071, 2.609365052918086292, 0.000000000000000000 ) ) ;
#385 = ORIENTED_EDGE ( 'NONE', *, *, #548, .F. ) ;
#386 = SURFACE_STYLE_USAGE ( .BOTH. , #49 ) ;
#387 = DIRECTION ( 'NONE',  ( -0.000000000000000000, 1.000000000000000000, 1.224646799147353207E-16 ) ) ;
#388 = DIRECTION ( 'NONE',  ( 3.763476001707854080E-16, -1.000000000000000000, 0.000000000000000000 ) ) ;
#389 = CARTESIAN_POINT ( 'NONE',  ( -5.080000000000000959, -2.999999999999999112, 0.000000000000000000 ) ) ;
#390 = DIRECTION ( 'NONE',  ( 0.000000000000000000, 0.000000000000000000, -1.000000000000000000 ) ) ;
#391 = EDGE_LOOP ( 'NONE', ( #359, #732, #943, #1082, #652 ) ) ;
#392 = EDGE_CURVE ( 'NONE', #581, #764, #94, .T. ) ;
#393 = STYLED_ITEM ( 'NONE', ( #427 ), #251 ) ;
#394 = FILL_AREA_STYLE_COLOUR ( '', #1068 ) ;
#395 = CARTESIAN_POINT ( 'NONE',  ( -5.334999999999999076, 1.609365052918087180, 3.122849337825749926E-17 ) ) ;
#396 =( GEOMETRIC_REPRESENTATION_CONTEXT ( 3 ) GLOBAL_UNCERTAINTY_ASSIGNED_CONTEXT ( ( #283 ) ) GLOBAL_UNIT_ASSIGNED_CONTEXT ( ( #428, #100, #683 ) ) REPRESENTATION_CONTEXT ( 'NONE', 'WORKASPACE' ) );
#397 = ORIENTED_EDGE ( 'NONE', *, *, #963, .T. ) ;
#398 = DIRECTION ( 'NONE',  ( 1.000000000000000000, 0.000000000000000000, 0.000000000000000000 ) ) ;
#399 =( GEOMETRIC_REPRESENTATION_CONTEXT ( 3 ) GLOBAL_UNCERTAINTY_ASSIGNED_CONTEXT ( ( #780 ) ) GLOBAL_UNIT_ASSIGNED_CONTEXT ( ( #742, #374, #454 ) ) REPRESENTATION_CONTEXT ( 'NONE', 'WORKASPACE' ) );
#400 = CARTESIAN_POINT ( 'NONE',  ( -3.556190395207061261, 2.609365052918086292, -0.4550000000000005151 ) ) ;
#401 = PRESENTATION_LAYER_ASSIGNMENT (  '', '', ( #1005 ) ) ;
#402 = SURFACE_STYLE_FILL_AREA ( #60 ) ;
#403 = MECHANICAL_DESIGN_GEOMETRIC_PRESENTATION_REPRESENTATION (  '', ( #154 ), #531 ) ;
#404 = CARTESIAN_POINT ( 'NONE',  ( 1.804968851620623482, 2.609365052918086292, 1.609365052918086292 ) ) ;
#405 = STYLED_ITEM ( 'NONE', ( #211 ), #667 ) ;
#406 = ORIENTED_EDGE ( 'NONE', *, *, #830, .F. ) ;
#407 = PRESENTATION_STYLE_ASSIGNMENT (( #1106 ) ) ;
#408 =( LENGTH_UNIT ( ) NAMED_UNIT ( * ) SI_UNIT ( .MILLI., .METRE. ) );
#409 = DIRECTION ( 'NONE',  ( 1.000000000000000000, 0.000000000000000000, 0.000000000000000000 ) ) ;
#410 = VERTEX_POINT ( 'NONE', #762 ) ;
#411 =( LENGTH_UNIT ( ) NAMED_UNIT ( * ) SI_UNIT ( .MILLI., .METRE. ) );
#412 = CARTESIAN_POINT ( 'NONE',  ( 4.080000000000000071, 2.609365052918086292, 0.000000000000000000 ) ) ;
#413 =( LENGTH_UNIT ( ) NAMED_UNIT ( * ) SI_UNIT ( .MILLI., .METRE. ) );
#414 = EDGE_CURVE ( 'NONE', #98, #611, #305, .T. ) ;
#415 = VERTEX_POINT ( 'NONE', #138 ) ;
#416 = DIRECTION ( 'NONE',  ( 0.000000000000000000, 0.000000000000000000, 1.000000000000000000 ) ) ;
#417 = DIRECTION ( 'NONE',  ( 3.763476001707854080E-16, -1.000000000000000000, 0.000000000000000000 ) ) ;
#418 = VECTOR ( 'NONE', #1089, 1000.000000000000000 ) ;
#419 = CIRCLE ( 'NONE', #863, 0.2000000000000004829 ) ;
#420 = ORIENTED_EDGE ( 'NONE', *, *, #850, .T. ) ;
#421 = COLOUR_RGB ( '',0.8980392156862745390, 0.9176470588235293713, 0.9294117647058823817 ) ;
#422 = DIRECTION ( 'NONE',  ( 1.000000000000000000, 0.000000000000000000, 0.000000000000000000 ) ) ;
#423 = PRESENTATION_STYLE_ASSIGNMENT (( #186 ) ) ;
#424 = UNCERTAINTY_MEASURE_WITH_UNIT (LENGTH_MEASURE( 1.000000000000000082E-05 ), #229, 'distance_accuracy_value', 'NONE');
#425 = ORIENTED_EDGE ( 'NONE', *, *, #707, .T. ) ;
#426 = SURFACE_SIDE_STYLE ('',( #172 ) ) ;
#427 = PRESENTATION_STYLE_ASSIGNMENT (( #608 ) ) ;
#428 =( LENGTH_UNIT ( ) NAMED_UNIT ( * ) SI_UNIT ( .MILLI., .METRE. ) );
#429 = PRESENTATION_STYLE_ASSIGNMENT (( #378 ) ) ;
#430 = PLANE ( 'NONE',  #506 ) ;
#431 = VERTEX_POINT ( 'NONE', #1091 ) ;
#432 = CIRCLE ( 'NONE', #837, 1.609365052918086292 ) ;
#433 = LINE ( 'NONE', #12, #67 ) ;
#434 = CARTESIAN_POINT ( 'NONE',  ( 3.362617346942188501, 2.609365052918086292, 0.4047061138363206023 ) ) ;
#435 = COLOUR_RGB ( '',0.7529411764705882248, 0.7529411764705882248, 0.000000000000000000 ) ;
#436 = TOROIDAL_SURFACE ( 'NONE', #117, 0.4550000000000005151, 0.2000000000000004829 ) ;
#437 = ORIENTED_EDGE ( 'NONE', *, *, #583, .T. ) ;
#438 = PRODUCT_DEFINITION_SHAPE ( 'NONE', 'NONE',  #441 ) ;
#439 = DIRECTION ( 'NONE',  ( 0.000000000000000000, 0.000000000000000000, 1.000000000000000000 ) ) ;
#440 = CIRCLE ( 'NONE', #697, 0.4047061138363222121 ) ;
#441 = PRODUCT_DEFINITION ( 'UNKNOWN', '', #693, #89 ) ;
#442 =( GEOMETRIC_REPRESENTATION_CONTEXT ( 3 ) GLOBAL_UNCERTAINTY_ASSIGNED_CONTEXT ( ( #119 ) ) GLOBAL_UNIT_ASSIGNED_CONTEXT ( ( #411, #587, #337 ) ) REPRESENTATION_CONTEXT ( 'NONE', 'WORKASPACE' ) );
#443 = DIRECTION ( 'NONE',  ( 0.000000000000000000, 0.000000000000000000, -1.000000000000000000 ) ) ;
#444 = STYLED_ITEM ( 'NONE', ( #656 ), #53 ) ;
#445 = ORIENTED_EDGE ( 'NONE', *, *, #745, .T. ) ;
#446 = CARTESIAN_POINT ( 'NONE',  ( 1.804968851620623482, 4.218730105836172584, 1.970903760715744989E-16 ) ) ;
#447 =( NAMED_UNIT ( * ) PLANE_ANGLE_UNIT ( ) SI_UNIT ( $, .RADIAN. ) );
#448 = DIRECTION ( 'NONE',  ( 0.000000000000000000, 0.000000000000000000, 1.000000000000000000 ) ) ;
#449 = DIRECTION ( 'NONE',  ( -1.000000000000000000, -0.000000000000000000, -0.000000000000000000 ) ) ;
#450 = UNCERTAINTY_MEASURE_WITH_UNIT (LENGTH_MEASURE( 1.000000000000000082E-05 ), #819, 'distance_accuracy_value', 'NONE');
#451 = SURFACE_STYLE_FILL_AREA ( #1066 ) ;
#452 = EDGE_CURVE ( 'NONE', #559, #243, #690, .T. ) ;
#453 = CIRCLE ( 'NONE', #485, 0.2549999999999999489 ) ;
#454 =( NAMED_UNIT ( * ) SI_UNIT ( $, .STERADIAN. ) SOLID_ANGLE_UNIT ( ) );
#455 = CIRCLE ( 'NONE', #241, 1.609365052918086292 ) ;
#456 = ORIENTED_EDGE ( 'NONE', *, *, #264, .F. ) ;
#457 = CARTESIAN_POINT ( 'NONE',  ( -5.335000000000000853, -2.999999999999999112, 3.122849337825759787E-17 ) ) ;
#458 = COLOUR_RGB ( '',0.7529411764705882248, 0.7529411764705882248, 0.000000000000000000 ) ;
#459 = FILL_AREA_STYLE ('',( #630 ) ) ;
#460 = UNCERTAINTY_MEASURE_WITH_UNIT (LENGTH_MEASURE( 1.000000000000000082E-05 ), #477, 'distance_accuracy_value', 'NONE');
#461 = DIRECTION ( 'NONE',  ( -2.832769448823989808E-16, -1.000000000000000000, -0.000000000000000000 ) ) ;
#462 = CARTESIAN_POINT ( 'NONE',  ( 4.824999999999999289, 1.609365052918087180, 3.122849337825749926E-17 ) ) ;
#463 = VERTEX_POINT ( 'NONE', #434 ) ;
#464 = DIRECTION ( 'NONE',  ( 0.000000000000000000, 0.000000000000000000, 1.000000000000000000 ) ) ;
#465 = EDGE_CURVE ( 'NONE', #269, #988, #522, .T. ) ;
#466 = EDGE_LOOP ( 'NONE', ( #549, #341, #309, #746, #782, #1088 ) ) ;
#467 = CARTESIAN_POINT ( 'NONE',  ( 3.362617346942188501, 2.609365052918086292, 0.000000000000000000 ) ) ;
#468 = FILL_AREA_STYLE ('',( #125 ) ) ;
#469 = CYLINDRICAL_SURFACE ( 'NONE', #80, 0.2549999999999999489 ) ;
#470 = CARTESIAN_POINT ( 'NONE',  ( 4.080000000000000071, 1.609365052918086292, 0.000000000000000000 ) ) ;
#471 = AXIS2_PLACEMENT_3D ( 'NONE', #339, #1102, #772 ) ;
#472 = CIRCLE ( 'NONE', #1108, 0.2549999999999999489 ) ;
#473 =( NAMED_UNIT ( * ) PLANE_ANGLE_UNIT ( ) SI_UNIT ( $, .RADIAN. ) );
#474 = ORIENTED_EDGE ( 'NONE', *, *, #68, .T. ) ;
#475 = FACE_OUTER_BOUND ( 'NONE', #680, .T. ) ;
#476 = STYLED_ITEM ( 'NONE', ( #857 ), #901 ) ;
#477 =( LENGTH_UNIT ( ) NAMED_UNIT ( * ) SI_UNIT ( .MILLI., .METRE. ) );
#478 = ORIENTED_EDGE ( 'NONE', *, *, #383, .T. ) ;
#479 = CARTESIAN_POINT ( 'NONE',  ( 5.080000000000000959, -2.999999999999999112, 0.000000000000000000 ) ) ;
#480 = SURFACE_STYLE_USAGE ( .BOTH. , #918 ) ;
#481 = ORIENTED_EDGE ( 'NONE', *, *, #790, .T. ) ;
#482 = SURFACE_STYLE_FILL_AREA ( #923 ) ;
#483 = PRESENTATION_STYLE_ASSIGNMENT (( #842 ) ) ;
#484 = DIRECTION ( 'NONE',  ( 0.000000000000000000, 0.000000000000000000, 1.000000000000000000 ) ) ;
#485 = AXIS2_PLACEMENT_3D ( 'NONE', #87, #1048, #791 ) ;
#486 = TOROIDAL_SURFACE ( 'NONE', #763, 1.000000000000000000, 0.2549999999999999489 ) ;
#487 = ORIENTED_EDGE ( 'NONE', *, *, #507, .F. ) ;
#488 = CARTESIAN_POINT ( 'NONE',  ( 5.334999999999999076, 1.609365052918087180, 0.000000000000000000 ) ) ;
#489 = SURFACE_SIDE_STYLE ('',( #402 ) ) ;
#490 =( NAMED_UNIT ( * ) SI_UNIT ( $, .STERADIAN. ) SOLID_ANGLE_UNIT ( ) );
#491 = ORIENTED_EDGE ( 'NONE', *, *, #34, .T. ) ;
#492 = CARTESIAN_POINT ( 'NONE',  ( 3.362617346942188501, 2.609365052918086292, -0.4047061138363206023 ) ) ;
#493 = DIRECTION ( 'NONE',  ( 1.000000000000000000, -0.000000000000000000, -0.000000000000000000 ) ) ;
#494 =( LENGTH_UNIT ( ) NAMED_UNIT ( * ) SI_UNIT ( .MILLI., .METRE. ) );
#495 = AXIS2_PLACEMENT_3D ( 'NONE', #752, #831, #54 ) ;
#496 = ORIENTED_EDGE ( 'NONE', *, *, #264, .T. ) ;
#497 = EDGE_CURVE ( 'NONE', #410, #52, #595, .T. ) ;
#498 = DIRECTION ( 'NONE',  ( 0.000000000000000000, 0.000000000000000000, 1.000000000000000000 ) ) ;
#499 = FILL_AREA_STYLE_COLOUR ( '', #679 ) ;
#500 = SURFACE_STYLE_USAGE ( .BOTH. , #75 ) ;
#501 = COLOUR_RGB ( '',0.7529411764705882248, 0.7529411764705882248, 0.000000000000000000 ) ;
#502 = AXIS2_PLACEMENT_3D ( 'NONE', #412, #422, #86 ) ;
#503 = ORIENTED_EDGE ( 'NONE', *, *, #1016, .F. ) ;
#504 = DIRECTION ( 'NONE',  ( 0.000000000000000000, 0.000000000000000000, -1.000000000000000000 ) ) ;
#505 = SURFACE_STYLE_FILL_AREA ( #1019 ) ;
#506 = AXIS2_PLACEMENT_3D ( 'NONE', #257, #876, #18 ) ;
#507 = EDGE_CURVE ( 'NONE', #528, #880, #432, .T. ) ;
#508 = AXIS2_PLACEMENT_3D ( 'NONE', #304, #1098, #1090 ) ;
#509 = DIRECTION ( 'NONE',  ( 0.000000000000000000, 0.000000000000000000, 1.000000000000000000 ) ) ;
#510 = STYLED_ITEM ( 'NONE', ( #209 ), #890 ) ;
#511 = ORIENTED_EDGE ( 'NONE', *, *, #745, .F. ) ;
#512 = PRESENTATION_LAYER_ASSIGNMENT (  '', '', ( #260 ) ) ;
#513 = FACE_OUTER_BOUND ( 'NONE', #140, .T. ) ;
#514 = UNCERTAINTY_MEASURE_WITH_UNIT (LENGTH_MEASURE( 1.000000000000000082E-05 ), #13, 'distance_accuracy_value', 'NONE');
#515 = FILL_AREA_STYLE ('',( #781 ) ) ;
#516 = VERTEX_POINT ( 'NONE', #954 ) ;
#517 = FILL_AREA_STYLE_COLOUR ( '', #900 ) ;
#518 = CARTESIAN_POINT ( 'NONE',  ( -1.804968851620623482, 1.000000000000000000, 0.000000000000000000 ) ) ;
#519 = CARTESIAN_POINT ( 'NONE',  ( 3.556190395207061261, 2.609365052918086292, 0.000000000000000000 ) ) ;
#520 = SURFACE_STYLE_USAGE ( .BOTH. , #674 ) ;
#521 = ORIENTED_EDGE ( 'NONE', *, *, #1039, .T. ) ;
#522 = CIRCLE ( 'NONE', #96, 1.609365052918086292 ) ;
#523 = FACE_OUTER_BOUND ( 'NONE', #910, .T. ) ;
#524 = CARTESIAN_POINT ( 'NONE',  ( 3.556190395207061261, 2.609365052918086292, 0.000000000000000000 ) ) ;
#525 = VECTOR ( 'NONE', #601, 1000.000000000000000 ) ;
#526 =( GEOMETRIC_REPRESENTATION_CONTEXT ( 3 ) GLOBAL_UNCERTAINTY_ASSIGNED_CONTEXT ( ( #1034 ) ) GLOBAL_UNIT_ASSIGNED_CONTEXT ( ( #610, #182, #262 ) ) REPRESENTATION_CONTEXT ( 'NONE', 'WORKASPACE' ) );
#527 = FILL_AREA_STYLE_COLOUR ( '', #435 ) ;
#528 = VERTEX_POINT ( 'NONE', #99 ) ;
#529 = CARTESIAN_POINT ( 'NONE',  ( 5.080000000000000959, -2.999999999999999112, 0.000000000000000000 ) ) ;
#530 = SURFACE_STYLE_USAGE ( .BOTH. , #356 ) ;
#531 =( GEOMETRIC_REPRESENTATION_CONTEXT ( 3 ) GLOBAL_UNCERTAINTY_ASSIGNED_CONTEXT ( ( #865 ) ) GLOBAL_UNIT_ASSIGNED_CONTEXT ( ( #19, #360, #727 ) ) REPRESENTATION_CONTEXT ( 'NONE', 'WORKASPACE' ) );
#532 =( NAMED_UNIT ( * ) SI_UNIT ( $, .STERADIAN. ) SOLID_ANGLE_UNIT ( ) );
#533 = AXIS2_PLACEMENT_3D ( 'NONE', #845, #743, #484 ) ;
#534 = SURFACE_SIDE_STYLE ('',( #698 ) ) ;
#535 = DIRECTION ( 'NONE',  ( 1.000000000000000000, -0.000000000000000000, -0.000000000000000000 ) ) ;
#536 = EDGE_CURVE ( 'NONE', #52, #611, #289, .T. ) ;
#537 = FILL_AREA_STYLE ('',( #122 ) ) ;
#538 = ORIENTED_EDGE ( 'NONE', *, *, #696, .T. ) ;
#539 = DIRECTION ( 'NONE',  ( 0.000000000000000000, 0.000000000000000000, -1.000000000000000000 ) ) ;
#540 = CLOSED_SHELL ( 'NONE', ( #681, #862, #137, #24, #53, #358, #1055, #347, #351, #277, #292, #667, #159, #251, #890, #116, #1060, #998, #143, #944, #703, #921, #785, #21 ) ) ;
#541 = PRESENTATION_LAYER_ASSIGNMENT (  '', '', ( #306 ) ) ;
#542 = DIRECTION ( 'NONE',  ( 0.000000000000000000, -1.000000000000000000, 0.000000000000000000 ) ) ;
#543 = UNCERTAINTY_MEASURE_WITH_UNIT (LENGTH_MEASURE( 1.000000000000000082E-05 ), #797, 'distance_accuracy_value', 'NONE');
#544 = FACE_OUTER_BOUND ( 'NONE', #355, .T. ) ;
#545 = STYLED_ITEM ( 'NONE', ( #423 ), #351 ) ;
#546 = PRESENTATION_LAYER_ASSIGNMENT (  '', '', ( #28 ) ) ;
#547 = DIRECTION ( 'NONE',  ( -1.000000000000000000, -0.000000000000000000, -0.000000000000000000 ) ) ;
#548 = EDGE_CURVE ( 'NONE', #1095, #917, #40, .T. ) ;
#549 = ORIENTED_EDGE ( 'NONE', *, *, #392, .T. ) ;
#550 = DIRECTION ( 'NONE',  ( 0.000000000000000000, 0.000000000000000000, 1.000000000000000000 ) ) ;
#551 = CIRCLE ( 'NONE', #644, 0.2549999999999999489 ) ;
#552 = DIRECTION ( 'NONE',  ( 0.000000000000000000, 0.000000000000000000, 1.000000000000000000 ) ) ;
#553 = SURFACE_SIDE_STYLE ('',( #451 ) ) ;
#554 = AXIS2_PLACEMENT_3D ( 'NONE', #244, #504, #158 ) ;
#555 = EDGE_CURVE ( 'NONE', #195, #1045, #187, .T. ) ;
#556 = CIRCLE ( 'NONE', #848, 0.2549999999999999489 ) ;
#557 = VERTEX_POINT ( 'NONE', #174 ) ;
#558 = CARTESIAN_POINT ( 'NONE',  ( 4.080000000000000071, 2.609365052918086292, 0.000000000000000000 ) ) ;
#559 = VERTEX_POINT ( 'NONE', #81 ) ;
#560 = DIRECTION ( 'NONE',  ( 0.000000000000000000, 0.000000000000000000, 1.000000000000000000 ) ) ;
#561 = SURFACE_STYLE_FILL_AREA ( #200 ) ;
#562 = COLOUR_RGB ( '',0.7529411764705882248, 0.7529411764705882248, 0.000000000000000000 ) ;
#563 = ORIENTED_EDGE ( 'NONE', *, *, #673, .T. ) ;
#564 = SURFACE_STYLE_FILL_AREA ( #813 ) ;
#565 = PRESENTATION_LAYER_ASSIGNMENT (  '', '', ( #1061 ) ) ;
#566 =( NAMED_UNIT ( * ) SI_UNIT ( $, .STERADIAN. ) SOLID_ANGLE_UNIT ( ) );
#567 = EDGE_LOOP ( 'NONE', ( #959, #902, #704, #364, #77 ) ) ;
#568 = FILL_AREA_STYLE_COLOUR ( '', #562 ) ;
#569 = EDGE_CURVE ( 'NONE', #893, #557, #453, .T. ) ;
#570 = DIRECTION ( 'NONE',  ( 1.000000000000000000, 0.000000000000000000, 0.000000000000000000 ) ) ;
#571 = STYLED_ITEM ( 'NONE', ( #925 ), #116 ) ;
#572 = SURFACE_STYLE_USAGE ( .BOTH. , #489 ) ;
#573 = EDGE_LOOP ( 'NONE', ( #605, #17, #225, #376, #456 ) ) ;
#574 = FACE_OUTER_BOUND ( 'NONE', #939, .T. ) ;
#575 = SURFACE_STYLE_USAGE ( .BOTH. , #729 ) ;
#576 = CIRCLE ( 'NONE', #720, 1.609365052918086070 ) ;
#577 = FACE_OUTER_BOUND ( 'NONE', #926, .T. ) ;
#578 = FILL_AREA_STYLE ('',( #1015 ) ) ;
#579 = PRESENTATION_LAYER_ASSIGNMENT (  '', '', ( #545 ) ) ;
#580 = CIRCLE ( 'NONE', #1059, 1.255000000000000115 ) ;
#581 = VERTEX_POINT ( 'NONE', #518 ) ;
#582 = FILL_AREA_STYLE ('',( #344 ) ) ;
#583 = EDGE_CURVE ( 'NONE', #124, #832, #599, .T. ) ;
#584 = AXIS2_PLACEMENT_3D ( 'NONE', #375, #881, #802 ) ;
#585 = MECHANICAL_DESIGN_GEOMETRIC_PRESENTATION_REPRESENTATION (  '', ( #405 ), #16 ) ;
#586 = ORIENTED_EDGE ( 'NONE', *, *, #879, .F. ) ;
#587 =( NAMED_UNIT ( * ) PLANE_ANGLE_UNIT ( ) SI_UNIT ( $, .RADIAN. ) );
#588 = DIRECTION ( 'NONE',  ( 0.000000000000000000, 0.000000000000000000, 1.000000000000000000 ) ) ;
#589 = DIRECTION ( 'NONE',  ( 0.000000000000000000, 0.000000000000000000, 1.000000000000000000 ) ) ;
#590 =( GEOMETRIC_REPRESENTATION_CONTEXT ( 3 ) GLOBAL_UNCERTAINTY_ASSIGNED_CONTEXT ( ( #905 ) ) GLOBAL_UNIT_ASSIGNED_CONTEXT ( ( #408, #323, #828 ) ) REPRESENTATION_CONTEXT ( 'NONE', 'WORKASPACE' ) );
#591 = EDGE_LOOP ( 'NONE', ( #586, #1037, #445, #420 ) ) ;
#592 = DIRECTION ( 'NONE',  ( 1.000000000000000000, 0.000000000000000000, 0.000000000000000000 ) ) ;
#593 = EDGE_CURVE ( 'NONE', #431, #294, #741, .T. ) ;
#594 = SPHERICAL_SURFACE ( 'NONE', #1040, 1.609365052918086070 ) ;
#595 = LINE ( 'NONE', #885, #525 ) ;
#596 = FILL_AREA_STYLE_COLOUR ( '', #783 ) ;
#597 = EDGE_LOOP ( 'NONE', ( #303, #623, #478, #437, #711 ) ) ;
#598 = DIRECTION ( 'NONE',  ( -1.000000000000000000, -0.000000000000000000, -0.000000000000000000 ) ) ;
#599 = CIRCLE ( 'NONE', #113, 0.2550000000000000044 ) ;
#600 = FACE_OUTER_BOUND ( 'NONE', #1023, .T. ) ;
#601 = DIRECTION ( 'NONE',  ( -1.000000000000000000, -0.000000000000000000, -0.000000000000000000 ) ) ;
#602 =( GEOMETRIC_REPRESENTATION_CONTEXT ( 3 ) GLOBAL_UNCERTAINTY_ASSIGNED_CONTEXT ( ( #514 ) ) GLOBAL_UNIT_ASSIGNED_CONTEXT ( ( #13, #93, #135 ) ) REPRESENTATION_CONTEXT ( 'NONE', 'WORKASPACE' ) );
#603 = SURFACE_STYLE_FILL_AREA ( #969 ) ;
#604 = CIRCLE ( 'NONE', #584, 1.609365052918086292 ) ;
#605 = ORIENTED_EDGE ( 'NONE', *, *, #1039, .F. ) ;
#606 = CARTESIAN_POINT ( 'NONE',  ( -5.079999999999999183, 1.609365052918087180, 0.000000000000000000 ) ) ;
#607 = AXIS2_PLACEMENT_3D ( 'NONE', #1038, #598, #940 ) ;
#608 = SURFACE_STYLE_USAGE ( .BOTH. , #687 ) ;
#609 = CIRCLE ( 'NONE', #756, 1.609365052918086292 ) ;
#610 =( LENGTH_UNIT ( ) NAMED_UNIT ( * ) SI_UNIT ( .MILLI., .METRE. ) );
#611 = VERTEX_POINT ( 'NONE', #29 ) ;
#612 = FILL_AREA_STYLE ('',( #342 ) ) ;
#613 = DIRECTION ( 'NONE',  ( 1.000000000000000000, 0.000000000000000000, 0.000000000000000000 ) ) ;
#614 = DIRECTION ( 'NONE',  ( 1.000000000000000000, 0.000000000000000000, 0.000000000000000000 ) ) ;
#615 = CARTESIAN_POINT ( 'NONE',  ( 1.804968851620622594, 2.609365052918086292, 0.000000000000000000 ) ) ;
#616 = AXIS2_PLACEMENT_3D ( 'NONE', #389, #461, #718 ) ;
#617 = ORIENTED_EDGE ( 'NONE', *, *, #822, .T. ) ;
#618 = AXIS2_PLACEMENT_3D ( 'NONE', #854, #710, #717 ) ;
#619 = EDGE_CURVE ( 'NONE', #3, #625, #472, .T. ) ;
#620 = FACE_OUTER_BOUND ( 'NONE', #761, .T. ) ;
#621 = EDGE_CURVE ( 'NONE', #294, #676, #632, .T. ) ;
#622 = APPLICATION_CONTEXT ( 'automotive_design' ) ;
#623 = ORIENTED_EDGE ( 'NONE', *, *, #774, .T. ) ;
#624 = VECTOR ( 'NONE', #417, 1000.000000000000000 ) ;
#625 = VERTEX_POINT ( 'NONE', #979 ) ;
#626 = LINE ( 'NONE', #462, #955 ) ;
#627 = DIRECTION ( 'NONE',  ( -1.000000000000000000, -0.000000000000000000, -0.000000000000000000 ) ) ;
#628 = CIRCLE ( 'NONE', #705, 0.2549999999999999489 ) ;
#629 = SURFACE_SIDE_STYLE ('',( #871 ) ) ;
#630 = FILL_AREA_STYLE_COLOUR ( '', #362 ) ;
#631 =( NAMED_UNIT ( * ) SI_UNIT ( $, .STERADIAN. ) SOLID_ANGLE_UNIT ( ) );
#632 = CIRCLE ( 'NONE', #144, 0.4047061138363222121 ) ;
#633 = ORIENTED_EDGE ( 'NONE', *, *, #111, .T. ) ;
#634 = CARTESIAN_POINT ( 'NONE',  ( -10.09675116564010722, 2.609365052918086292, -1.609365052918086292 ) ) ;
#635 = EDGE_CURVE ( 'NONE', #922, #3, #254, .T. ) ;
#636 = UNCERTAINTY_MEASURE_WITH_UNIT (LENGTH_MEASURE( 1.000000000000000082E-05 ), #333, 'distance_accuracy_value', 'NONE');
#637 = FILL_AREA_STYLE_COLOUR ( '', #110 ) ;
#638 = STYLED_ITEM ( 'NONE', ( #864 ), #347 ) ;
#639 = STYLED_ITEM ( 'NONE', ( #108 ), #1060 ) ;
#640 = FILL_AREA_STYLE_COLOUR ( '', #354 ) ;
#641 = SURFACE_STYLE_FILL_AREA ( #293 ) ;
#642 = SHAPE_DEFINITION_REPRESENTATION ( #438, #654 ) ;
#643 = ORIENTED_EDGE ( 'NONE', *, *, #736, .T. ) ;
#644 = AXIS2_PLACEMENT_3D ( 'NONE', #899, #280, #794 ) ;
#645 =( NAMED_UNIT ( * ) PLANE_ANGLE_UNIT ( ) SI_UNIT ( $, .RADIAN. ) );
#646 = MECHANICAL_DESIGN_GEOMETRIC_PRESENTATION_REPRESENTATION (  '', ( #1005 ), #348 ) ;
#647 = MECHANICAL_DESIGN_GEOMETRIC_PRESENTATION_REPRESENTATION (  '', ( #805 ), #353 ) ;
#648 = EDGE_CURVE ( 'NONE', #988, #165, #990, .T. ) ;
#649 = DIRECTION ( 'NONE',  ( -1.000000000000000000, -0.000000000000000000, -0.000000000000000000 ) ) ;
#650 = CARTESIAN_POINT ( 'NONE',  ( -1.804968851620623482, 4.218730105836172584, 1.970903760715744989E-16 ) ) ;
#651 = PRESENTATION_STYLE_ASSIGNMENT (( #1003 ) ) ;
#652 = ORIENTED_EDGE ( 'NONE', *, *, #104, .T. ) ;
#653 = STYLED_ITEM ( 'NONE', ( #198 ), #277 ) ;
#654 = ADVANCED_BREP_SHAPE_REPRESENTATION ( 'Capacitor Ceramic No Polarity axial 10.16', ( #901, #1044 ), #399 ) ;
#655 = AXIS2_PLACEMENT_3D ( 'NONE', #829, #388, #570 ) ;
#656 = PRESENTATION_STYLE_ASSIGNMENT (( #129 ) ) ;
#657 = AXIS2_PLACEMENT_3D ( 'NONE', #467, #42, #550 ) ;
#658 = ORIENTED_EDGE ( 'NONE', *, *, #34, .F. ) ;
#659 = CARTESIAN_POINT ( 'NONE',  ( 3.362617346942188501, 2.204658939081763691, 0.000000000000000000 ) ) ;
#660 = CARTESIAN_POINT ( 'NONE',  ( -3.362617346942187613, 2.609365052918086292, 0.4047061138363221011 ) ) ;
#661 = DIRECTION ( 'NONE',  ( -0.000000000000000000, -0.000000000000000000, -1.000000000000000000 ) ) ;
#662 = AXIS2_PLACEMENT_3D ( 'NONE', #196, #535, #539 ) ;
#663 = DIRECTION ( 'NONE',  ( 0.000000000000000000, 0.000000000000000000, -1.000000000000000000 ) ) ;
#664 = FACE_OUTER_BOUND ( 'NONE', #567, .T. ) ;
#665 = ORIENTED_EDGE ( 'NONE', *, *, #212, .F. ) ;
#666 = FACE_OUTER_BOUND ( 'NONE', #597, .T. ) ;
#667 = ADVANCED_FACE ( 'NONE', ( #206 ), #238, .T. ) ;
#668 = DIRECTION ( 'NONE',  ( 0.000000000000000000, -1.000000000000000000, -1.224646799147353207E-16 ) ) ;
#669 =( NAMED_UNIT ( * ) PLANE_ANGLE_UNIT ( ) SI_UNIT ( $, .RADIAN. ) );
#670 = ORIENTED_EDGE ( 'NONE', *, *, #593, .F. ) ;
#671 = DIRECTION ( 'NONE',  ( -1.000000000000000000, -0.000000000000000000, -0.000000000000000000 ) ) ;
#672 =( NAMED_UNIT ( * ) SI_UNIT ( $, .STERADIAN. ) SOLID_ANGLE_UNIT ( ) );
#673 = EDGE_CURVE ( 'NONE', #410, #84, #297, .T. ) ;
#674 = SURFACE_SIDE_STYLE ('',( #760 ) ) ;
#675 = MECHANICAL_DESIGN_GEOMETRIC_PRESENTATION_REPRESENTATION (  '', ( #545 ), #396 ) ;
#676 = VERTEX_POINT ( 'NONE', #660 ) ;
#677 = CARTESIAN_POINT ( 'NONE',  ( -3.362617346942187613, 2.609365052918086292, 0.000000000000000000 ) ) ;
#678 = DIRECTION ( 'NONE',  ( -1.000000000000000000, -0.000000000000000000, -0.000000000000000000 ) ) ;
#679 = COLOUR_RGB ( '',0.7529411764705882248, 0.7529411764705882248, 0.000000000000000000 ) ;
#680 = EDGE_LOOP ( 'NONE', ( #230, #397, #847, #875, #382, #316 ) ) ;
#681 = ADVANCED_FACE ( 'NONE', ( #574 ), #937, .T. ) ;
#682 = DIRECTION ( 'NONE',  ( 0.000000000000000000, 0.000000000000000000, 1.000000000000000000 ) ) ;
#683 =( NAMED_UNIT ( * ) SI_UNIT ( $, .STERADIAN. ) SOLID_ANGLE_UNIT ( ) );
#684 = FACE_OUTER_BOUND ( 'NONE', #189, .T. ) ;
#685 = ORIENTED_EDGE ( 'NONE', *, *, #555, .F. ) ;
#686 = CYLINDRICAL_SURFACE ( 'NONE', #155, 0.2550000000000000044 ) ;
#687 = SURFACE_SIDE_STYLE ('',( #173 ) ) ;
#688 = UNCERTAINTY_MEASURE_WITH_UNIT (LENGTH_MEASURE( 1.000000000000000082E-05 ), #118, 'distance_accuracy_value', 'NONE');
#689 = ORIENTED_EDGE ( 'NONE', *, *, #150, .F. ) ;
#690 = CIRCLE ( 'NONE', #949, 0.7449999999999999956 ) ;
#691 = CIRCLE ( 'NONE', #1021, 0.4047061138363226562 ) ;
#692 = DIRECTION ( 'NONE',  ( 0.000000000000000000, -1.224646799147353207E-16, 1.000000000000000000 ) ) ;
#693 = PRODUCT_DEFINITION_FORMATION_WITH_SPECIFIED_SOURCE ( 'ANY', '', #1036, .NOT_KNOWN. ) ;
#694 = SURFACE_STYLE_FILL_AREA ( #702 ) ;
#695 = COLOUR_RGB ( '',0.8980392156862745390, 0.9176470588235293713, 0.9294117647058823817 ) ;
#696 = EDGE_CURVE ( 'NONE', #832, #124, #1008, .T. ) ;
#697 = AXIS2_PLACEMENT_3D ( 'NONE', #677, #960, #498 ) ;
#698 = SURFACE_STYLE_FILL_AREA ( #274 ) ;
#699 = PRESENTATION_STYLE_ASSIGNMENT (( #1030 ) ) ;
#700 = MECHANICAL_DESIGN_GEOMETRIC_PRESENTATION_REPRESENTATION (  '', ( #260 ), #442 ) ;
#701 = DIRECTION ( 'NONE',  ( -1.000000000000000000, -0.000000000000000000, -0.000000000000000000 ) ) ;
#702 = FILL_AREA_STYLE ('',( #527 ) ) ;
#703 = ADVANCED_FACE ( 'NONE', ( #1052 ), #686, .T. ) ;
#704 = ORIENTED_EDGE ( 'NONE', *, *, #1070, .F. ) ;
#705 = AXIS2_PLACEMENT_3D ( 'NONE', #1014, #839, #663 ) ;
#706 = CARTESIAN_POINT ( 'NONE',  ( -5.079999999999999183, 1.609365052918087180, 0.000000000000000000 ) ) ;
#707 = EDGE_CURVE ( 'NONE', #917, #431, #176, .T. ) ;
#708 = FACE_OUTER_BOUND ( 'NONE', #38, .T. ) ;
#709 = AXIS2_PLACEMENT_3D ( 'NONE', #706, #948, #443 ) ;
#710 = DIRECTION ( 'NONE',  ( -0.000000000000000000, 1.000000000000000000, 1.224646799147353207E-16 ) ) ;
#711 = ORIENTED_EDGE ( 'NONE', *, *, #1026, .F. ) ;
#712 = CARTESIAN_POINT ( 'NONE',  ( 5.335000000000000853, -2.999999999999999112, 0.000000000000000000 ) ) ;
#713 = DIRECTION ( 'NONE',  ( 0.000000000000000000, 0.000000000000000000, -1.000000000000000000 ) ) ;
#714 = STYLED_ITEM ( 'NONE', ( #699 ), #785 ) ;
#715 = UNCERTAINTY_MEASURE_WITH_UNIT (LENGTH_MEASURE( 1.000000000000000082E-05 ), #976, 'distance_accuracy_value', 'NONE');
#716 = CARTESIAN_POINT ( 'NONE',  ( 3.556190395207061261, 2.609365052918086292, -0.2549999999999999489 ) ) ;
#717 = DIRECTION ( 'NONE',  ( 0.000000000000000000, 0.000000000000000000, 1.000000000000000000 ) ) ;
#718 = DIRECTION ( 'NONE',  ( 0.000000000000000000, 0.000000000000000000, -1.000000000000000000 ) ) ;
#719 = CARTESIAN_POINT ( 'NONE',  ( -3.556190395207061261, 2.609365052918086292, 0.4550000000000005151 ) ) ;
#720 = AXIS2_PLACEMENT_3D ( 'NONE', #168, #1049, #266 ) ;
#721 = ORIENTED_EDGE ( 'NONE', *, *, #963, .F. ) ;
#722 = DIRECTION ( 'NONE',  ( 1.000000000000000000, 0.000000000000000000, 0.000000000000000000 ) ) ;
#723 = DIRECTION ( 'NONE',  ( 0.000000000000000000, 0.000000000000000000, -1.000000000000000000 ) ) ;
#724 =( NAMED_UNIT ( * ) SI_UNIT ( $, .STERADIAN. ) SOLID_ANGLE_UNIT ( ) );
#725 = AXIS2_PLACEMENT_3D ( 'NONE', #773, #1041, #95 ) ;
#726 = STYLED_ITEM ( 'NONE', ( #964 ), #944 ) ;
#727 =( NAMED_UNIT ( * ) SI_UNIT ( $, .STERADIAN. ) SOLID_ANGLE_UNIT ( ) );
#728 = ORIENTED_EDGE ( 'NONE', *, *, #673, .F. ) ;
#729 = SURFACE_SIDE_STYLE ('',( #295 ) ) ;
#730 = CIRCLE ( 'NONE', #974, 0.2549999999999999489 ) ;
#731 = AXIS2_PLACEMENT_3D ( 'NONE', #916, #1079, #298 ) ;
#732 = ORIENTED_EDGE ( 'NONE', *, *, #47, .F. ) ;
#733 = CARTESIAN_POINT ( 'NONE',  ( -1.804968851620622594, 2.609365052918086292, 0.000000000000000000 ) ) ;
#734 =( NAMED_UNIT ( * ) PLANE_ANGLE_UNIT ( ) SI_UNIT ( $, .RADIAN. ) );
#735 = TOROIDAL_SURFACE ( 'NONE', #924, 0.4550000000000005151, 0.2000000000000004829 ) ;
#736 = EDGE_CURVE ( 'NONE', #581, #294, #904, .T. ) ;
#737 = ORIENTED_EDGE ( 'NONE', *, *, #830, .T. ) ;
#738 = CARTESIAN_POINT ( 'NONE',  ( -4.080000000000000071, 2.609365052918086292, -0.2549999999999999489 ) ) ;
#739 =( NAMED_UNIT ( * ) SI_UNIT ( $, .STERADIAN. ) SOLID_ANGLE_UNIT ( ) );
#740 = CYLINDRICAL_SURFACE ( 'NONE', #655, 0.2550000000000000044 ) ;
#741 = CIRCLE ( 'NONE', #8, 0.4047061138363222121 ) ;
#742 =( LENGTH_UNIT ( ) NAMED_UNIT ( * ) SI_UNIT ( .MILLI., .METRE. ) );
#743 = DIRECTION ( 'NONE',  ( -1.000000000000000000, -0.000000000000000000, -0.000000000000000000 ) ) ;
#744 = CARTESIAN_POINT ( 'NONE',  ( -5.334999999999999076, 1.609365052918087180, 3.122849337825749310E-17 ) ) ;
#745 = EDGE_CURVE ( 'NONE', #557, #754, #433, .T. ) ;
#746 = ORIENTED_EDGE ( 'NONE', *, *, #755, .F. ) ;
#747 = DIRECTION ( 'NONE',  ( -1.000000000000000000, 0.000000000000000000, 0.000000000000000000 ) ) ;
#748 =( NAMED_UNIT ( * ) SI_UNIT ( $, .STERADIAN. ) SOLID_ANGLE_UNIT ( ) );
#749 =( NAMED_UNIT ( * ) PLANE_ANGLE_UNIT ( ) SI_UNIT ( $, .RADIAN. ) );
#750 = PRESENTATION_LAYER_ASSIGNMENT (  '', '', ( #510 ) ) ;
#751 = PRESENTATION_LAYER_ASSIGNMENT (  '', '', ( #405 ) ) ;
#752 = CARTESIAN_POINT ( 'NONE',  ( -4.080000000000000071, 1.609365052918086292, -3.122849337825749926E-17 ) ) ;
#753 = SURFACE_STYLE_USAGE ( .BOTH. , #1010 ) ;
#754 = VERTEX_POINT ( 'NONE', #326 ) ;
#755 = EDGE_CURVE ( 'NONE', #676, #917, #440, .T. ) ;
#756 = AXIS2_PLACEMENT_3D ( 'NONE', #824, #547, #464 ) ;
#757 = DIRECTION ( 'NONE',  ( -1.000000000000000000, 0.000000000000000000, 0.000000000000000000 ) ) ;
#758 = CARTESIAN_POINT ( 'NONE',  ( 5.079999999999999183, 1.609365052918087180, 0.000000000000000000 ) ) ;
#759 = CARTESIAN_POINT ( 'NONE',  ( 1.804968851620622594, 2.609365052918086292, 0.000000000000000000 ) ) ;
#760 = SURFACE_STYLE_FILL_AREA ( #578 ) ;
#761 = EDGE_LOOP ( 'NONE', ( #685, #1028, #971, #812, #665 ) ) ;
#762 = CARTESIAN_POINT ( 'NONE',  ( 4.080000000000000071, 2.609365052918086292, -0.2549999999999999489 ) ) ;
#763 = AXIS2_PLACEMENT_3D ( 'NONE', #470, #282, #747 ) ;
#764 = VERTEX_POINT ( 'NONE', #1111 ) ;
#765 = DIRECTION ( 'NONE',  ( -3.763476001707854080E-16, -1.000000000000000000, 0.000000000000000000 ) ) ;
#766 = DIRECTION ( 'NONE',  ( 0.000000000000000000, 0.000000000000000000, 1.000000000000000000 ) ) ;
#767 = AXIS2_PLACEMENT_3D ( 'NONE', #213, #836, #58 ) ;
#768 = AXIS2_PLACEMENT_3D ( 'NONE', #775, #164, #589 ) ;
#769 = CARTESIAN_POINT ( 'NONE',  ( -1.804968851620623482, 2.609365052918086292, 0.000000000000000000 ) ) ;
#770 = ORIENTED_EDGE ( 'NONE', *, *, #583, .F. ) ;
#771 = DIRECTION ( 'NONE',  ( 1.000000000000000000, 0.000000000000000000, 0.000000000000000000 ) ) ;
#772 = DIRECTION ( 'NONE',  ( 0.000000000000000000, 0.000000000000000000, 1.000000000000000000 ) ) ;
#773 = CARTESIAN_POINT ( 'NONE',  ( 5.079999999999999183, 1.609365052918087180, 0.000000000000000000 ) ) ;
#774 = EDGE_CURVE ( 'NONE', #625, #145, #352, .T. ) ;
#775 = CARTESIAN_POINT ( 'NONE',  ( 3.556190395207061261, 2.609365052918086292, 0.000000000000000000 ) ) ;
#776 = ORIENTED_EDGE ( 'NONE', *, *, #835, .F. ) ;
#777 =( LENGTH_UNIT ( ) NAMED_UNIT ( * ) SI_UNIT ( .MILLI., .METRE. ) );
#778 = CYLINDRICAL_SURFACE ( 'NONE', #973, 0.2550000000000000044 ) ;
#779 = SPHERICAL_SURFACE ( 'NONE', #59, 1.609365052918086070 ) ;
#780 = UNCERTAINTY_MEASURE_WITH_UNIT (LENGTH_MEASURE( 1.000000000000000082E-05 ), #742, 'distance_accuracy_value', 'NONE');
#781 = FILL_AREA_STYLE_COLOUR ( '', #823 ) ;
#782 = ORIENTED_EDGE ( 'NONE', *, *, #621, .F. ) ;
#783 = COLOUR_RGB ( '',0.8980392156862745390, 0.9176470588235293713, 0.9294117647058823817 ) ;
#784 = SURFACE_STYLE_USAGE ( .BOTH. , #345 ) ;
#785 = ADVANCED_FACE ( 'NONE', ( #945 ), #4, .T. ) ;
#786 = MECHANICAL_DESIGN_GEOMETRIC_PRESENTATION_REPRESENTATION (  '', ( #714 ), #15 ) ;
#787 = EDGE_LOOP ( 'NONE', ( #728, #265, #1054, #1117, #994 ) ) ;
#788 = PRESENTATION_STYLE_ASSIGNMENT (( #270 ) ) ;
#789 = AXIS2_PLACEMENT_3D ( 'NONE', #733, #1013, #232 ) ;
#790 = EDGE_CURVE ( 'NONE', #114, #975, #1081, .T. ) ;
#791 = DIRECTION ( 'NONE',  ( 0.000000000000000000, 0.000000000000000000, -1.000000000000000000 ) ) ;
#792 = STYLED_ITEM ( 'NONE', ( #651 ), #24 ) ;
#793 = CARTESIAN_POINT ( 'NONE',  ( -4.080000000000000071, 2.609365052918086292, -0.2549999999999999489 ) ) ;
#794 = DIRECTION ( 'NONE',  ( 0.000000000000000000, 0.000000000000000000, -1.000000000000000000 ) ) ;
#795 = DIRECTION ( 'NONE',  ( -1.000000000000000000, -0.000000000000000000, -0.000000000000000000 ) ) ;
#796 = PRESENTATION_LAYER_ASSIGNMENT (  '', '', ( #308 ) ) ;
#797 =( LENGTH_UNIT ( ) NAMED_UNIT ( * ) SI_UNIT ( .MILLI., .METRE. ) );
#798 = UNCERTAINTY_MEASURE_WITH_UNIT (LENGTH_MEASURE( 1.000000000000000082E-05 ), #801, 'distance_accuracy_value', 'NONE');
#799 = APPLICATION_PROTOCOL_DEFINITION ( 'draft international standard', 'automotive_design', 1998, #152 ) ;
#800 = STYLED_ITEM ( 'NONE', ( #377 ), #137 ) ;
#801 =( LENGTH_UNIT ( ) NAMED_UNIT ( * ) SI_UNIT ( .MILLI., .METRE. ) );
#802 = DIRECTION ( 'NONE',  ( 0.000000000000000000, 0.000000000000000000, 1.000000000000000000 ) ) ;
#803 = CIRCLE ( 'NONE', #502, 0.2549999999999999489 ) ;
#804 = MECHANICAL_DESIGN_GEOMETRIC_PRESENTATION_REPRESENTATION (  '', ( #510 ), #1050 ) ;
#805 = STYLED_ITEM ( 'NONE', ( #43 ), #681 ) ;
#806 =( NAMED_UNIT ( * ) SI_UNIT ( $, .STERADIAN. ) SOLID_ANGLE_UNIT ( ) );
#807 = UNCERTAINTY_MEASURE_WITH_UNIT (LENGTH_MEASURE( 1.000000000000000082E-05 ), #322, 'distance_accuracy_value', 'NONE');
#808 = SPHERICAL_SURFACE ( 'NONE', #1087, 1.609365052918086070 ) ;
#809 = CIRCLE ( 'NONE', #495, 0.7449999999999999956 ) ;
#810 = FILL_AREA_STYLE_COLOUR ( '', #127 ) ;
#811 = DIRECTION ( 'NONE',  ( 0.000000000000000000, 0.000000000000000000, -1.000000000000000000 ) ) ;
#812 = ORIENTED_EDGE ( 'NONE', *, *, #977, .F. ) ;
#813 = FILL_AREA_STYLE ('',( #208 ) ) ;
#814 = EDGE_CURVE ( 'NONE', #243, #114, #626, .T. ) ;
#815 = FACE_OUTER_BOUND ( 'NONE', #329, .T. ) ;
#816 = MECHANICAL_DESIGN_GEOMETRIC_PRESENTATION_REPRESENTATION (  '', ( #393 ), #856 ) ;
#817 = ORIENTED_EDGE ( 'NONE', *, *, #619, .F. ) ;
#818 = DIRECTION ( 'NONE',  ( 0.000000000000000000, 0.000000000000000000, -1.000000000000000000 ) ) ;
#819 =( LENGTH_UNIT ( ) NAMED_UNIT ( * ) SI_UNIT ( .MILLI., .METRE. ) );
#820 = AXIS2_PLACEMENT_3D ( 'NONE', #185, #181, #682 ) ;
#821 = ORIENTED_EDGE ( 'NONE', *, *, #790, .F. ) ;
#822 = EDGE_CURVE ( 'NONE', #1095, #165, #101, .T. ) ;
#823 = COLOUR_RGB ( '',0.8941176470588234615, 0.8941176470588234615, 0.8941176470588234615 ) ;
#824 = CARTESIAN_POINT ( 'NONE',  ( 1.804968851620623482, 2.609365052918086292, 0.000000000000000000 ) ) ;
#825 = SURFACE_STYLE_FILL_AREA ( #1094 ) ;
#826 = ORIENTED_EDGE ( 'NONE', *, *, #163, .F. ) ;
#827 =( NAMED_UNIT ( * ) PLANE_ANGLE_UNIT ( ) SI_UNIT ( $, .RADIAN. ) );
#828 =( NAMED_UNIT ( * ) SI_UNIT ( $, .STERADIAN. ) SOLID_ANGLE_UNIT ( ) );
#829 = CARTESIAN_POINT ( 'NONE',  ( 5.079999999999999183, 1.609365052918087180, 0.000000000000000000 ) ) ;
#830 = EDGE_CURVE ( 'NONE', #145, #922, #551, .T. ) ;
#831 = DIRECTION ( 'NONE',  ( -0.000000000000000000, 0.000000000000000000, 1.000000000000000000 ) ) ;
#832 = VERTEX_POINT ( 'NONE', #115 ) ;
#833 = SURFACE_SIDE_STYLE ('',( #482 ) ) ;
#834 = CARTESIAN_POINT ( 'NONE',  ( -3.556190395207061261, 2.609365052918086292, 0.000000000000000000 ) ) ;
#835 = EDGE_CURVE ( 'NONE', #764, #1095, #604, .T. ) ;
#836 = DIRECTION ( 'NONE',  ( 1.000000000000000000, 0.000000000000000000, 0.000000000000000000 ) ) ;
#837 = AXIS2_PLACEMENT_3D ( 'NONE', #861, #701, #439 ) ;
#838 = MECHANICAL_DESIGN_GEOMETRIC_PRESENTATION_REPRESENTATION (  '', ( #28 ), #883 ) ;
#839 = DIRECTION ( 'NONE',  ( 1.000000000000000000, 0.000000000000000000, 0.000000000000000000 ) ) ;
#840 = ORIENTED_EDGE ( 'NONE', *, *, #696, .F. ) ;
#841 = CARTESIAN_POINT ( 'NONE',  ( -4.080000000000000071, 1.609365052918086292, 0.000000000000000000 ) ) ;
#842 = SURFACE_STYLE_USAGE ( .BOTH. , #214 ) ;
#843 = AXIS2_PLACEMENT_3D ( 'NONE', #62, #130, #1004 ) ;
#844 = AXIS2_PLACEMENT_3D ( 'NONE', #56, #928, #771 ) ;
#845 = CARTESIAN_POINT ( 'NONE',  ( 4.080000000000000071, 2.609365052918086292, 0.000000000000000000 ) ) ;
#846 = SURFACE_STYLE_FILL_AREA ( #249 ) ;
#847 = ORIENTED_EDGE ( 'NONE', *, *, #507, .T. ) ;
#848 = AXIS2_PLACEMENT_3D ( 'NONE', #33, #1072, #307 ) ;
#849 =( NAMED_UNIT ( * ) SI_UNIT ( $, .STERADIAN. ) SOLID_ANGLE_UNIT ( ) );
#850 = EDGE_CURVE ( 'NONE', #754, #1074, #730, .T. ) ;
#851 = CARTESIAN_POINT ( 'NONE',  ( -1.804968851620623482, 2.609365052918086292, 0.000000000000000000 ) ) ;
#852 = ORIENTED_EDGE ( 'NONE', *, *, #1026, .T. ) ;
#853 = FILL_AREA_STYLE ('',( #517 ) ) ;
#854 = CARTESIAN_POINT ( 'NONE',  ( 3.556190395207061261, 2.609365052918086292, -0.4550000000000005151 ) ) ;
#855 = PRESENTATION_LAYER_ASSIGNMENT (  '', '', ( #892 ) ) ;
#856 =( GEOMETRIC_REPRESENTATION_CONTEXT ( 3 ) GLOBAL_UNCERTAINTY_ASSIGNED_CONTEXT ( ( #1069 ) ) GLOBAL_UNIT_ASSIGNED_CONTEXT ( ( #777, #5, #1047 ) ) REPRESENTATION_CONTEXT ( 'NONE', 'WORKASPACE' ) );
#857 = PRESENTATION_STYLE_ASSIGNMENT (( #500 ) ) ;
#858 = COLOUR_RGB ( '',0.8980392156862745390, 0.9176470588235293713, 0.9294117647058823817 ) ;
#859 = ORIENTED_EDGE ( 'NONE', *, *, #47, .T. ) ;
#860 =( LENGTH_UNIT ( ) NAMED_UNIT ( * ) SI_UNIT ( .MILLI., .METRE. ) );
#861 = CARTESIAN_POINT ( 'NONE',  ( 1.804968851620623482, 2.609365052918086292, 0.000000000000000000 ) ) ;
#862 = ADVANCED_FACE ( 'NONE', ( #523 ), #222, .T. ) ;
#863 = AXIS2_PLACEMENT_3D ( 'NONE', #400, #387, #560 ) ;
#864 = PRESENTATION_STYLE_ASSIGNMENT (( #261 ) ) ;
#865 = UNCERTAINTY_MEASURE_WITH_UNIT (LENGTH_MEASURE( 1.000000000000000082E-05 ), #19, 'distance_accuracy_value', 'NONE');
#866 = AXIS2_PLACEMENT_3D ( 'NONE', #769, #335, #509 ) ;
#867 = FILL_AREA_STYLE_COLOUR ( '', #421 ) ;
#868 = EDGE_LOOP ( 'NONE', ( #79, #336, #474, #658, #487, #279 ) ) ;
#869 = CARTESIAN_POINT ( 'NONE',  ( -10.09675116564010722, 2.609365052918086292, 0.000000000000000000 ) ) ;
#870 = CARTESIAN_POINT ( 'NONE',  ( -1.804968851620622594, 2.609365052918086292, 0.000000000000000000 ) ) ;
#871 = SURFACE_STYLE_FILL_AREA ( #537 ) ;
#872 = CARTESIAN_POINT ( 'NONE',  ( -4.080000000000000071, 2.354365052918086398, -3.122849337825749310E-17 ) ) ;
#873 = EDGE_CURVE ( 'NONE', #124, #676, #987, .T. ) ;
#874 = PRESENTATION_LAYER_ASSIGNMENT (  '', '', ( #571 ) ) ;
#875 = ORIENTED_EDGE ( 'NONE', *, *, #37, .T. ) ;
#876 = DIRECTION ( 'NONE',  ( 2.832769448823989808E-16, -1.000000000000000000, 0.000000000000000000 ) ) ;
#877 = DIRECTION ( 'NONE',  ( 0.000000000000000000, 0.000000000000000000, 1.000000000000000000 ) ) ;
#878 = AXIS2_PLACEMENT_3D ( 'NONE', #851, #920, #74 ) ;
#879 = EDGE_CURVE ( 'NONE', #893, #1074, #1080, .T. ) ;
#880 = VERTEX_POINT ( 'NONE', #404 ) ;
#881 = DIRECTION ( 'NONE',  ( -1.000000000000000000, -0.000000000000000000, -0.000000000000000000 ) ) ;
#882 = TOROIDAL_SURFACE ( 'NONE', #931, 0.4550000000000005151, 0.2000000000000004829 ) ;
#883 =( GEOMETRIC_REPRESENTATION_CONTEXT ( 3 ) GLOBAL_UNCERTAINTY_ASSIGNED_CONTEXT ( ( #688 ) ) GLOBAL_UNIT_ASSIGNED_CONTEXT ( ( #118, #1065, #806 ) ) REPRESENTATION_CONTEXT ( 'NONE', 'WORKASPACE' ) );
#884 = SURFACE_STYLE_FILL_AREA ( #192 ) ;
#885 = CARTESIAN_POINT ( 'NONE',  ( 4.080000000000000071, 2.609365052918086292, -0.2549999999999999489 ) ) ;
#886 = DIRECTION ( 'NONE',  ( 0.000000000000000000, 0.000000000000000000, 1.000000000000000000 ) ) ;
#887 = EDGE_LOOP ( 'NONE', ( #191, #247, #349, #821 ) ) ;
#888 = DIRECTION ( 'NONE',  ( 3.763476001707854080E-16, -1.000000000000000000, 0.000000000000000000 ) ) ;
#889 = DIRECTION ( 'NONE',  ( 0.000000000000000000, 0.000000000000000000, 1.000000000000000000 ) ) ;
#890 = ADVANCED_FACE ( 'NONE', ( #664 ), #190, .F. ) ;
#891 = SURFACE_STYLE_USAGE ( .BOTH. , #534 ) ;
#892 = STYLED_ITEM ( 'NONE', ( #106 ), #21 ) ;
#893 = VERTEX_POINT ( 'NONE', #744 ) ;
#894 = MECHANICAL_DESIGN_GEOMETRIC_PRESENTATION_REPRESENTATION (  '', ( #653 ), #167 ) ;
#895 = DIRECTION ( 'NONE',  ( 0.000000000000000000, 0.000000000000000000, 1.000000000000000000 ) ) ;
#896 = AXIS2_PLACEMENT_3D ( 'NONE', #286, #197, #723 ) ;
#897 = DIRECTION ( 'NONE',  ( -1.000000000000000000, -0.000000000000000000, -0.000000000000000000 ) ) ;
#898 = PRESENTATION_LAYER_ASSIGNMENT (  '', '', ( #800 ) ) ;
#899 = CARTESIAN_POINT ( 'NONE',  ( -4.080000000000000071, 2.609365052918086292, 0.000000000000000000 ) ) ;
#900 = COLOUR_RGB ( '',0.8980392156862745390, 0.9176470588235293713, 0.9294117647058823817 ) ;
#901 = MANIFOLD_SOLID_BREP ( 'Mirror1', #540 ) ;
#902 = ORIENTED_EDGE ( 'NONE', *, *, #992, .F. ) ;
#903 = CARTESIAN_POINT ( 'NONE',  ( -4.080000000000000071, 2.609365052918086292, 0.000000000000000000 ) ) ;
#904 = CIRCLE ( 'NONE', #554, 1.609365052918086292 ) ;
#905 = UNCERTAINTY_MEASURE_WITH_UNIT (LENGTH_MEASURE( 1.000000000000000082E-05 ), #408, 'distance_accuracy_value', 'NONE');
#906 = PRESENTATION_STYLE_ASSIGNMENT (( #372 ) ) ;
#907 = PRESENTATION_LAYER_ASSIGNMENT (  '', '', ( #444 ) ) ;
#908 = SURFACE_SIDE_STYLE ('',( #561 ) ) ;
#909 =( NAMED_UNIT ( * ) SI_UNIT ( $, .STERADIAN. ) SOLID_ANGLE_UNIT ( ) );
#910 = EDGE_LOOP ( 'NONE', ( #563, #521, #183, #237, #859 ) ) ;
#911 = CYLINDRICAL_SURFACE ( 'NONE', #731, 0.2550000000000000044 ) ;
#912 = DIRECTION ( 'NONE',  ( -3.763476001707854080E-16, -1.000000000000000000, 0.000000000000000000 ) ) ;
#913 = EDGE_CURVE ( 'NONE', #165, #581, #224, .T. ) ;
#914 = ORIENTED_EDGE ( 'NONE', *, *, #343, .T. ) ;
#915 = AXIS2_PLACEMENT_3D ( 'NONE', #479, #310, #64 ) ;
#916 = CARTESIAN_POINT ( 'NONE',  ( -5.079999999999999183, 1.609365052918087180, 0.000000000000000000 ) ) ;
#917 = VERTEX_POINT ( 'NONE', #235 ) ;
#918 = SURFACE_SIDE_STYLE ('',( #564 ) ) ;
#919 =( GEOMETRIC_REPRESENTATION_CONTEXT ( 3 ) GLOBAL_UNCERTAINTY_ASSIGNED_CONTEXT ( ( #2 ) ) GLOBAL_UNIT_ASSIGNED_CONTEXT ( ( #1027, #9, #490 ) ) REPRESENTATION_CONTEXT ( 'NONE', 'WORKASPACE' ) );
#920 = DIRECTION ( 'NONE',  ( -1.000000000000000000, -0.000000000000000000, -0.000000000000000000 ) ) ;
#921 = ADVANCED_FACE ( 'NONE', ( #684 ), #201, .T. ) ;
#922 = VERTEX_POINT ( 'NONE', #872 ) ;
#923 = FILL_AREA_STYLE ('',( #568 ) ) ;
#924 = AXIS2_PLACEMENT_3D ( 'NONE', #930, #318, #133 ) ;
#925 = PRESENTATION_STYLE_ASSIGNMENT (( #572 ) ) ;
#926 = EDGE_LOOP ( 'NONE', ( #689, #770, #1062, #1051, #425 ) ) ;
#927 = FACE_OUTER_BOUND ( 'NONE', #299, .T. ) ;
#928 = DIRECTION ( 'NONE',  ( -0.000000000000000000, 0.000000000000000000, 1.000000000000000000 ) ) ;
#929 = VECTOR ( 'NONE', #984, 1000.000000000000000 ) ;
#930 = CARTESIAN_POINT ( 'NONE',  ( -3.556190395207061261, 2.609365052918086292, 0.000000000000000000 ) ) ;
#931 = AXIS2_PLACEMENT_3D ( 'NONE', #519, #248, #889 ) ;
#932 = COLOUR_RGB ( '',0.8980392156862745390, 0.9176470588235293713, 0.9294117647058823817 ) ;
#933 = DIRECTION ( 'NONE',  ( 0.000000000000000000, 0.000000000000000000, -1.000000000000000000 ) ) ;
#934 = PRESENTATION_STYLE_ASSIGNMENT (( #170 ) ) ;
#935 = ORIENTED_EDGE ( 'NONE', *, *, #822, .F. ) ;
#936 = MECHANICAL_DESIGN_GEOMETRIC_PRESENTATION_REPRESENTATION (  '', ( #800 ), #61 ) ;
#937 = TOROIDAL_SURFACE ( 'NONE', #844, 1.000000000000000000, 0.2549999999999999489 ) ;
#938 = PRESENTATION_LAYER_ASSIGNMENT (  '', '', ( #792 ) ) ;
#939 = EDGE_LOOP ( 'NONE', ( #48, #1103, #70, #202, #406 ) ) ;
#940 = DIRECTION ( 'NONE',  ( 0.000000000000000000, 0.000000000000000000, 1.000000000000000000 ) ) ;
#941 = DIRECTION ( 'NONE',  ( 0.000000000000000000, -1.000000000000000000, 0.000000000000000000 ) ) ;
#942 = DIRECTION ( 'NONE',  ( -1.000000000000000000, -0.000000000000000000, -0.000000000000000000 ) ) ;
#943 = ORIENTED_EDGE ( 'NONE', *, *, #147, .F. ) ;
#944 = ADVANCED_FACE ( 'NONE', ( #90 ), #430, .T. ) ;
#945 = FACE_OUTER_BOUND ( 'NONE', #22, .T. ) ;
#946 = CARTESIAN_POINT ( 'NONE',  ( 1.804968851620622594, 2.609365052918086292, 0.000000000000000000 ) ) ;
#947 = PRESENTATION_LAYER_ASSIGNMENT (  '', '', ( #653 ) ) ;
#948 = DIRECTION ( 'NONE',  ( 2.832769448823989808E-16, 1.000000000000000000, -0.000000000000000000 ) ) ;
#949 = AXIS2_PLACEMENT_3D ( 'NONE', #313, #661, #14 ) ;
#950 = AXIS2_PLACEMENT_3D ( 'NONE', #1035, #958, #409 ) ;
#951 = ORIENTED_EDGE ( 'NONE', *, *, #150, .T. ) ;
#952 = CARTESIAN_POINT ( 'NONE',  ( -4.080000000000000071, 2.609365052918086292, 0.000000000000000000 ) ) ;
#953 =( NAMED_UNIT ( * ) SI_UNIT ( $, .STERADIAN. ) SOLID_ANGLE_UNIT ( ) );
#954 = CARTESIAN_POINT ( 'NONE',  ( 3.362617346942188501, 3.014071166754408893, 1.233262903810380613E-16 ) ) ;
#955 = VECTOR ( 'NONE', #888, 1000.000000000000000 ) ;
#956 = UNCERTAINTY_MEASURE_WITH_UNIT (LENGTH_MEASURE( 1.000000000000000082E-05 ), #1032, 'distance_accuracy_value', 'NONE');
#957 = AXIS2_PLACEMENT_3D ( 'NONE', #834, #92, #416 ) ;
#958 = DIRECTION ( 'NONE',  ( -0.000000000000000000, 0.000000000000000000, 1.000000000000000000 ) ) ;
#959 = ORIENTED_EDGE ( 'NONE', *, *, #267, .F. ) ;
#960 = DIRECTION ( 'NONE',  ( -1.000000000000000000, -0.000000000000000000, -0.000000000000000000 ) ) ;
#961 = DIRECTION ( 'NONE',  ( 0.000000000000000000, 0.000000000000000000, 1.000000000000000000 ) ) ;
#962 =( NAMED_UNIT ( * ) PLANE_ANGLE_UNIT ( ) SI_UNIT ( $, .RADIAN. ) );
#963 = EDGE_CURVE ( 'NONE', #988, #528, #455, .T. ) ;
#964 = PRESENTATION_STYLE_ASSIGNMENT (( #520 ) ) ;
#965 = ORIENTED_EDGE ( 'NONE', *, *, #68, .F. ) ;
#966 = DIRECTION ( 'NONE',  ( 0.000000000000000000, 0.000000000000000000, 1.000000000000000000 ) ) ;
#967 = APPLICATION_PROTOCOL_DEFINITION ( 'draft international standard', 'automotive_design', 1998, #622 ) ;
#968 = DIRECTION ( 'NONE',  ( 0.000000000000000000, -1.000000000000000000, -1.224646799147353207E-16 ) ) ;
#969 = FILL_AREA_STYLE ('',( #1 ) ) ;
#970 = CIRCLE ( 'NONE', #618, 0.2000000000000004829 ) ;
#971 = ORIENTED_EDGE ( 'NONE', *, *, #104, .F. ) ;
#972 = MECHANICAL_DESIGN_GEOMETRIC_PRESENTATION_REPRESENTATION (  '', ( #308 ), #199 ) ;
#973 = AXIS2_PLACEMENT_3D ( 'NONE', #1064, #989, #722 ) ;
#974 = AXIS2_PLACEMENT_3D ( 'NONE', #120, #23, #811 ) ;
#975 = VERTEX_POINT ( 'NONE', #712 ) ;
#976 =( LENGTH_UNIT ( ) NAMED_UNIT ( * ) SI_UNIT ( .MILLI., .METRE. ) );
#977 = EDGE_CURVE ( 'NONE', #463, #611, #1076, .T. ) ;
#978 = ORIENTED_EDGE ( 'NONE', *, *, #465, .T. ) ;
#979 = CARTESIAN_POINT ( 'NONE',  ( -4.080000000000000071, 2.864365052918086185, 0.000000000000000000 ) ) ;
#980 = UNCERTAINTY_MEASURE_WITH_UNIT (LENGTH_MEASURE( 1.000000000000000082E-05 ), #860, 'distance_accuracy_value', 'NONE');
#981 =( NAMED_UNIT ( * ) PLANE_ANGLE_UNIT ( ) SI_UNIT ( $, .RADIAN. ) );
#982 = DIRECTION ( 'NONE',  ( 2.832769448823989808E-16, -1.000000000000000000, 0.000000000000000000 ) ) ;
#983 = ORIENTED_EDGE ( 'NONE', *, *, #593, .T. ) ;
#984 = DIRECTION ( 'NONE',  ( -1.000000000000000000, -0.000000000000000000, -0.000000000000000000 ) ) ;
#985 = AXIS2_PLACEMENT_3D ( 'NONE', #870, #692, #968 ) ;
#986 =( GEOMETRIC_REPRESENTATION_CONTEXT ( 3 ) GLOBAL_UNCERTAINTY_ASSIGNED_CONTEXT ( ( #956 ) ) GLOBAL_UNIT_ASSIGNED_CONTEXT ( ( #1032, #447, #953 ) ) REPRESENTATION_CONTEXT ( 'NONE', 'WORKASPACE' ) );
#987 = CIRCLE ( 'NONE', #175, 0.2000000000000004829 ) ;
#988 = VERTEX_POINT ( 'NONE', #288 ) ;
#989 = DIRECTION ( 'NONE',  ( 3.763476001707854080E-16, -1.000000000000000000, 0.000000000000000000 ) ) ;
#990 = LINE ( 'NONE', #634, #929 ) ;
#991 =( NAMED_UNIT ( * ) SI_UNIT ( $, .STERADIAN. ) SOLID_ANGLE_UNIT ( ) );
#992 = EDGE_CURVE ( 'NONE', #516, #195, #691, .T. ) ;
#993 = MECHANICAL_DESIGN_GEOMETRIC_PRESENTATION_REPRESENTATION (  '', ( #444 ), #69 ) ;
#994 = ORIENTED_EDGE ( 'NONE', *, *, #188, .F. ) ;
#995 = FILL_AREA_STYLE_COLOUR ( '', #315 ) ;
#996 = CARTESIAN_POINT ( 'NONE',  ( -4.080000000000000071, 2.609365052918086292, 0.2549999999999999489 ) ) ;
#997 = CIRCLE ( 'NONE', #25, 1.255000000000000115 ) ;
#998 = ADVANCED_FACE ( 'NONE', ( #193 ), #486, .T. ) ;
#999 = ORIENTED_EDGE ( 'NONE', *, *, #233, .F. ) ;
#1000 =( NAMED_UNIT ( * ) PLANE_ANGLE_UNIT ( ) SI_UNIT ( $, .RADIAN. ) );
#1001 = DIRECTION ( 'NONE',  ( 0.000000000000000000, 0.000000000000000000, 1.000000000000000000 ) ) ;
#1002 = CIRCLE ( 'NONE', #657, 0.4047061138363226562 ) ;
#1003 = SURFACE_STYLE_USAGE ( .BOTH. , #1084 ) ;
#1004 = DIRECTION ( 'NONE',  ( -1.000000000000000000, 0.000000000000000000, 0.000000000000000000 ) ) ;
#1005 = STYLED_ITEM ( 'NONE', ( #407 ), #159 ) ;
#1006 = ORIENTED_EDGE ( 'NONE', *, *, #850, .F. ) ;
#1007 =( NAMED_UNIT ( * ) PLANE_ANGLE_UNIT ( ) SI_UNIT ( $, .RADIAN. ) );
#1008 = CIRCLE ( 'NONE', #957, 0.2550000000000000044 ) ;
#1009 = CARTESIAN_POINT ( 'NONE',  ( 4.825000000000001066, -2.999999999999999112, 3.122849337825749310E-17 ) ) ;
#1010 = SURFACE_SIDE_STYLE ('',( #825 ) ) ;
#1011 = ORIENTED_EDGE ( 'NONE', *, *, #111, .F. ) ;
#1012 = DIRECTION ( 'NONE',  ( -0.000000000000000000, -0.000000000000000000, -1.000000000000000000 ) ) ;
#1013 = DIRECTION ( 'NONE',  ( 0.000000000000000000, 0.000000000000000000, 1.000000000000000000 ) ) ;
#1014 = CARTESIAN_POINT ( 'NONE',  ( 3.556190395207061261, 2.609365052918086292, 0.000000000000000000 ) ) ;
#1015 = FILL_AREA_STYLE_COLOUR ( '', #932 ) ;
#1016 = EDGE_CURVE ( 'NONE', #975, #114, #1092, .T. ) ;
#1017 = EDGE_LOOP ( 'NONE', ( #385, #617, #11, #643, #670, #153 ) ) ;
#1018 = COLOUR_RGB ( '',0.7529411764705882248, 0.7529411764705882248, 0.000000000000000000 ) ;
#1019 = FILL_AREA_STYLE ('',( #499 ) ) ;
#1020 =( GEOMETRIC_REPRESENTATION_CONTEXT ( 3 ) GLOBAL_UNCERTAINTY_ASSIGNED_CONTEXT ( ( #636 ) ) GLOBAL_UNIT_ASSIGNED_CONTEXT ( ( #333, #962, #532 ) ) REPRESENTATION_CONTEXT ( 'NONE', 'WORKASPACE' ) );
#1021 = AXIS2_PLACEMENT_3D ( 'NONE', #177, #449, #552 ) ;
#1022 = CIRCLE ( 'NONE', #471, 0.4047061138363226562 ) ;
#1023 = EDGE_LOOP ( 'NONE', ( #965, #157, #131, #914, #721, #63 ) ) ;
#1024 = DIRECTION ( 'NONE',  ( 0.000000000000000000, 0.000000000000000000, 1.000000000000000000 ) ) ;
#1025 = PRESENTATION_LAYER_ASSIGNMENT (  '', '', ( #714 ) ) ;
#1026 = EDGE_CURVE ( 'NONE', #3, #832, #141, .T. ) ;
#1027 =( LENGTH_UNIT ( ) NAMED_UNIT ( * ) SI_UNIT ( .MILLI., .METRE. ) );
#1028 = ORIENTED_EDGE ( 'NONE', *, *, #267, .T. ) ;
#1029 = AXIS2_PLACEMENT_3D ( 'NONE', #759, #228, #668 ) ;
#1030 = SURFACE_STYLE_USAGE ( .BOTH. , #426 ) ;
#1031 = CARTESIAN_POINT ( 'NONE',  ( 4.824999999999999289, 1.609365052918087180, 3.122849337825759787E-17 ) ) ;
#1032 =( LENGTH_UNIT ( ) NAMED_UNIT ( * ) SI_UNIT ( .MILLI., .METRE. ) );
#1033 = DIRECTION ( 'NONE',  ( -1.000000000000000000, -0.000000000000000000, -0.000000000000000000 ) ) ;
#1034 = UNCERTAINTY_MEASURE_WITH_UNIT (LENGTH_MEASURE( 1.000000000000000082E-05 ), #610, 'distance_accuracy_value', 'NONE');
#1035 = CARTESIAN_POINT ( 'NONE',  ( -4.080000000000000071, 1.609365052918086292, 0.000000000000000000 ) ) ;
#1036 = PRODUCT ( 'Capacitor Ceramic No Polarity axial 10.16', 'Capacitor Ceramic No Polarity axial 10.16', '', ( #161 ) ) ;
#1037 = ORIENTED_EDGE ( 'NONE', *, *, #301, .F. ) ;
#1038 = CARTESIAN_POINT ( 'NONE',  ( -3.362617346942187613, 2.609365052918086292, 0.000000000000000000 ) ) ;
#1039 = EDGE_CURVE ( 'NONE', #84, #415, #580, .T. ) ;
#1040 = AXIS2_PLACEMENT_3D ( 'NONE', #946, #588, #941 ) ;
#1041 = DIRECTION ( 'NONE',  ( 2.832769448823989808E-16, -1.000000000000000000, 0.000000000000000000 ) ) ;
#1042 = MECHANICAL_DESIGN_GEOMETRIC_PRESENTATION_REPRESENTATION (  '', ( #30 ), #57 ) ;
#1043 = VECTOR ( 'NONE', #1107, 1000.000000000000000 ) ;
#1044 = AXIS2_PLACEMENT_3D ( 'NONE', #268, #886, #613 ) ;
#1045 = VERTEX_POINT ( 'NONE', #659 ) ;
#1046 =( NAMED_UNIT ( * ) PLANE_ANGLE_UNIT ( ) SI_UNIT ( $, .RADIAN. ) );
#1047 =( NAMED_UNIT ( * ) SI_UNIT ( $, .STERADIAN. ) SOLID_ANGLE_UNIT ( ) );
#1048 = DIRECTION ( 'NONE',  ( 2.832769448823989808E-16, 1.000000000000000000, -0.000000000000000000 ) ) ;
#1049 = DIRECTION ( 'NONE',  ( 0.000000000000000000, 0.000000000000000000, -1.000000000000000000 ) ) ;
#1050 =( GEOMETRIC_REPRESENTATION_CONTEXT ( 3 ) GLOBAL_UNCERTAINTY_ASSIGNED_CONTEXT ( ( #424 ) ) GLOBAL_UNIT_ASSIGNED_CONTEXT ( ( #229, #320, #909 ) ) REPRESENTATION_CONTEXT ( 'NONE', 'WORKASPACE' ) );
#1051 = ORIENTED_EDGE ( 'NONE', *, *, #755, .T. ) ;
#1052 = FACE_OUTER_BOUND ( 'NONE', #591, .T. ) ;
#1053 = FACE_OUTER_BOUND ( 'NONE', #868, .T. ) ;
#1054 = ORIENTED_EDGE ( 'NONE', *, *, #536, .T. ) ;
#1055 = ADVANCED_FACE ( 'NONE', ( #927 ), #436, .F. ) ;
#1056 = DIRECTION ( 'NONE',  ( 0.000000000000000000, -1.000000000000000000, 0.000000000000000000 ) ) ;
#1057 = AXIS2_PLACEMENT_3D ( 'NONE', #363, #897, #105 ) ;
#1058 = PLANE ( 'NONE',  #616 ) ;
#1059 = AXIS2_PLACEMENT_3D ( 'NONE', #1096, #1012, #757 ) ;
#1060 = ADVANCED_FACE ( 'NONE', ( #226 ), #778, .T. ) ;
#1061 = STYLED_ITEM ( 'NONE', ( #934 ), #921 ) ;
#1062 = ORIENTED_EDGE ( 'NONE', *, *, #873, .T. ) ;
#1063 = DIRECTION ( 'NONE',  ( 0.000000000000000000, 0.000000000000000000, -1.000000000000000000 ) ) ;
#1064 = CARTESIAN_POINT ( 'NONE',  ( 5.079999999999999183, 1.609365052918087180, 0.000000000000000000 ) ) ;
#1065 =( NAMED_UNIT ( * ) PLANE_ANGLE_UNIT ( ) SI_UNIT ( $, .RADIAN. ) );
#1066 = FILL_AREA_STYLE ('',( #637 ) ) ;
#1067 = DIRECTION ( 'NONE',  ( 0.000000000000000000, 0.000000000000000000, 1.000000000000000000 ) ) ;
#1068 = COLOUR_RGB ( '',0.7529411764705882248, 0.7529411764705882248, 0.000000000000000000 ) ;
#1069 = UNCERTAINTY_MEASURE_WITH_UNIT (LENGTH_MEASURE( 1.000000000000000082E-05 ), #777, 'distance_accuracy_value', 'NONE');
#1070 = EDGE_CURVE ( 'NONE', #463, #516, #1002, .T. ) ;
#1071 = COLOUR_RGB ( '',0.7529411764705882248, 0.7529411764705882248, 0.000000000000000000 ) ;
#1072 = DIRECTION ( 'NONE',  ( 1.000000000000000000, 0.000000000000000000, 0.000000000000000000 ) ) ;
#1073 = FILL_AREA_STYLE_COLOUR ( '', #367 ) ;
#1074 = VERTEX_POINT ( 'NONE', #457 ) ;
#1075 = MECHANICAL_DESIGN_GEOMETRIC_PRESENTATION_REPRESENTATION (  '', ( #638 ), #1020 ) ;
#1076 = CIRCLE ( 'NONE', #132, 0.2000000000000004829 ) ;
#1077 = FILL_AREA_STYLE_COLOUR ( '', #695 ) ;
#1078 = UNCERTAINTY_MEASURE_WITH_UNIT (LENGTH_MEASURE( 1.000000000000000082E-05 ), #26, 'distance_accuracy_value', 'NONE');
#1079 = DIRECTION ( 'NONE',  ( -3.763476001707854080E-16, -1.000000000000000000, 0.000000000000000000 ) ) ;
#1080 = LINE ( 'NONE', #395, #259 ) ;
#1081 = CIRCLE ( 'NONE', #1097, 0.2549999999999999489 ) ;
#1082 = ORIENTED_EDGE ( 'NONE', *, *, #414, .T. ) ;
#1083 = AXIS2_PLACEMENT_3D ( 'NONE', #558, #398, #818 ) ;
#1084 = SURFACE_SIDE_STYLE ('',( #123 ) ) ;
#1085 = ORIENTED_EDGE ( 'NONE', *, *, #635, .T. ) ;
#1086 = LINE ( 'NONE', #302, #263 ) ;
#1087 = AXIS2_PLACEMENT_3D ( 'NONE', #7, #88, #346 ) ;
#1088 = ORIENTED_EDGE ( 'NONE', *, *, #736, .F. ) ;
#1089 = DIRECTION ( 'NONE',  ( 1.000000000000000000, -0.000000000000000000, -0.000000000000000000 ) ) ;
#1090 = DIRECTION ( 'NONE',  ( 0.000000000000000000, 0.000000000000000000, -1.000000000000000000 ) ) ;
#1091 = CARTESIAN_POINT ( 'NONE',  ( -3.362617346942187613, 2.609365052918086292, -0.4047061138363221011 ) ) ;
#1092 = CIRCLE ( 'NONE', #915, 0.2549999999999999489 ) ;
#1093 = CARTESIAN_POINT ( 'NONE',  ( -3.556190395207061261, 2.609365052918086292, 0.2550000000000000044 ) ) ;
#1094 = FILL_AREA_STYLE ('',( #134 ) ) ;
#1095 = VERTEX_POINT ( 'NONE', #650 ) ;
#1096 = CARTESIAN_POINT ( 'NONE',  ( 4.080000000000000071, 1.609365052918086292, 0.000000000000000000 ) ) ;
#1097 = AXIS2_PLACEMENT_3D ( 'NONE', #529, #982, #1063 ) ;
#1098 = DIRECTION ( 'NONE',  ( 1.000000000000000000, -0.000000000000000000, -0.000000000000000000 ) ) ;
#1099 = COLOUR_RGB ( '',0.8980392156862745390, 0.9176470588235293713, 0.9294117647058823817 ) ;
#1100 = CARTESIAN_POINT ( 'NONE',  ( 4.080000000000000071, 2.864365052918086185, 0.000000000000000000 ) ) ;
#1101 = ORIENTED_EDGE ( 'NONE', *, *, #648, .T. ) ;
#1102 = DIRECTION ( 'NONE',  ( -1.000000000000000000, -0.000000000000000000, -0.000000000000000000 ) ) ;
#1103 = ORIENTED_EDGE ( 'NONE', *, *, #233, .T. ) ;
#1104 = SURFACE_STYLE_FILL_AREA ( #612 ) ;
#1105 = CIRCLE ( 'NONE', #324, 0.2549999999999999489 ) ;
#1106 = SURFACE_STYLE_USAGE ( .BOTH. , #1112 ) ;
#1107 = DIRECTION ( 'NONE',  ( -1.000000000000000000, -0.000000000000000000, -0.000000000000000000 ) ) ;
#1108 = AXIS2_PLACEMENT_3D ( 'NONE', #903, #366, #713 ) ;
#1109 = SURFACE_SIDE_STYLE ('',( #846 ) ) ;
#1110 = ORIENTED_EDGE ( 'NONE', *, *, #635, .F. ) ;
#1111 = CARTESIAN_POINT ( 'NONE',  ( -1.804968851620623482, 2.609365052918086292, 1.609365052918086292 ) ) ;
#1112 = SURFACE_SIDE_STYLE ('',( #505 ) ) ;
#1113 = DIRECTION ( 'NONE',  ( 0.000000000000000000, 0.000000000000000000, -1.000000000000000000 ) ) ;
#1114 = MECHANICAL_DESIGN_GEOMETRIC_PRESENTATION_REPRESENTATION (  '', ( #476 ), #919 ) ;
#1115 = SURFACE_STYLE_FILL_AREA ( #515 ) ;
#1116 = MECHANICAL_DESIGN_GEOMETRIC_PRESENTATION_REPRESENTATION (  '', ( #792 ), #207 ) ;
#1117 = ORIENTED_EDGE ( 'NONE', *, *, #414, .F. ) ;
ENDSEC;
END-ISO-10303-21;
