ISO-10303-21;
HEADER;
FILE_DESCRIPTION (( 'STEP AP214' ),
    '1' );
FILE_NAME ('Capacitor Ceramic No Polarity axial 22.86.STEP',
    '2026-02-18T23:24:12',
    ( '' ),
    ( '' ),
    'SwSTEP 2.0',
    'SolidWorks 2026',
    '' );
FILE_SCHEMA (( 'AUTOMOTIVE_DESIGN' ));
ENDSEC;

DATA;
#1 = EDGE_CURVE ( 'NONE', #221, #884, #1024, .T. ) ;
#2 =( LENGTH_UNIT ( ) NAMED_UNIT ( * ) SI_UNIT ( .MILLI., .METRE. ) );
#3 = DIRECTION ( 'NONE',  ( -0.000000000000000000, -0.000000000000000000, -1.000000000000000000 ) ) ;
#4 = ORIENTED_EDGE ( 'NONE', *, *, #794, .F. ) ;
#5 = CARTESIAN_POINT ( 'NONE',  ( -11.17500000000000071, 1.609365052918086292, -3.122849337825749310E-17 ) ) ;
#6 = EDGE_CURVE ( 'NONE', #723, #978, #920, .T. ) ;
#7 = DIRECTION ( 'NONE',  ( 0.000000000000000000, -1.000000000000000000, 0.000000000000000000 ) ) ;
#8 = AXIS2_PLACEMENT_3D ( 'NONE', #896, #630, #1077 ) ;
#9 = DIRECTION ( 'NONE',  ( 1.000000000000000000, -0.000000000000000000, -0.000000000000000000 ) ) ;
#10 = DIRECTION ( 'NONE',  ( -0.000000000000000000, 0.000000000000000000, 1.000000000000000000 ) ) ;
#11 = ORIENTED_EDGE ( 'NONE', *, *, #419, .F. ) ;
#12 = FILL_AREA_STYLE ('',( #715 ) ) ;
#13 = ORIENTED_EDGE ( 'NONE', *, *, #56, .F. ) ;
#14 = APPLICATION_PROTOCOL_DEFINITION ( 'draft international standard', 'automotive_design', 1998, #510 ) ;
#15 = DIRECTION ( 'NONE',  ( 1.000000000000000000, 0.000000000000000000, 0.000000000000000000 ) ) ;
#16 =( NAMED_UNIT ( * ) SI_UNIT ( $, .STERADIAN. ) SOLID_ANGLE_UNIT ( ) );
#17 = VERTEX_POINT ( 'NONE', #859 ) ;
#18 = CARTESIAN_POINT ( 'NONE',  ( 11.68500000000000050, 1.609365052918086292, 0.000000000000000000 ) ) ;
#19 = FILL_AREA_STYLE ('',( #286 ) ) ;
#20 = CARTESIAN_POINT ( 'NONE',  ( 3.556190395207061261, 2.609365052918086292, 0.4550000000000005151 ) ) ;
#21 = CARTESIAN_POINT ( 'NONE',  ( -3.362617346942187613, 2.609365052918086292, 0.000000000000000000 ) ) ;
#22 = CARTESIAN_POINT ( 'NONE',  ( -11.43000000000000149, 1.609365052918086292, 0.2549999999999999489 ) ) ;
#23 =( NAMED_UNIT ( * ) SI_UNIT ( $, .STERADIAN. ) SOLID_ANGLE_UNIT ( ) );
#24 = APPLICATION_PROTOCOL_DEFINITION ( 'draft international standard', 'automotive_design', 1998, #567 ) ;
#25 = CIRCLE ( 'NONE', #980, 1.609365052918086292 ) ;
#26 = CIRCLE ( 'NONE', #680, 0.2549999999999999489 ) ;
#27 = FACE_OUTER_BOUND ( 'NONE', #420, .T. ) ;
#28 = ADVANCED_FACE ( 'NONE', ( #791 ), #327, .T. ) ;
#29 = COLOUR_RGB ( '',0.8980392156862745390, 0.9176470588235293713, 0.9294117647058823817 ) ;
#30 = CARTESIAN_POINT ( 'NONE',  ( 10.43000000000000149, 2.609365052918086292, 0.2549999999999999489 ) ) ;
#31 = DIRECTION ( 'NONE',  ( 0.000000000000000000, 0.000000000000000000, 1.000000000000000000 ) ) ;
#32 = ORIENTED_EDGE ( 'NONE', *, *, #794, .T. ) ;
#33 = CARTESIAN_POINT ( 'NONE',  ( -11.43000000000000149, 1.609365052918086292, 0.000000000000000000 ) ) ;
#34 =( NAMED_UNIT ( * ) SI_UNIT ( $, .STERADIAN. ) SOLID_ANGLE_UNIT ( ) );
#35 = LINE ( 'NONE', #495, #294 ) ;
#36 = PRESENTATION_STYLE_ASSIGNMENT (( #220 ) ) ;
#37 = EDGE_CURVE ( 'NONE', #897, #74, #942, .T. ) ;
#38 = CARTESIAN_POINT ( 'NONE',  ( 1.804968851620622594, 2.609365052918086292, 0.000000000000000000 ) ) ;
#39 = ORIENTED_EDGE ( 'NONE', *, *, #335, .T. ) ;
#40 =( LENGTH_UNIT ( ) NAMED_UNIT ( * ) SI_UNIT ( .MILLI., .METRE. ) );
#41 = DIRECTION ( 'NONE',  ( 1.000000000000000000, 0.000000000000000000, 0.000000000000000000 ) ) ;
#42 = DIRECTION ( 'NONE',  ( 0.000000000000000000, 0.000000000000000000, 1.000000000000000000 ) ) ;
#43 = SURFACE_STYLE_FILL_AREA ( #317 ) ;
#44 = PRODUCT_DEFINITION ( 'UNKNOWN', '', #411, #975 ) ;
#45 = FILL_AREA_STYLE_COLOUR ( '', #785 ) ;
#46 = DIRECTION ( 'NONE',  ( 0.000000000000000000, -1.000000000000000000, 0.000000000000000000 ) ) ;
#47 = MECHANICAL_DESIGN_GEOMETRIC_PRESENTATION_REPRESENTATION (  '', ( #93 ), #881 ) ;
#48 = STYLED_ITEM ( 'NONE', ( #392 ), #882 ) ;
#49 =( GEOMETRIC_REPRESENTATION_CONTEXT ( 3 ) GLOBAL_UNCERTAINTY_ASSIGNED_CONTEXT ( ( #266 ) ) GLOBAL_UNIT_ASSIGNED_CONTEXT ( ( #328, #145, #1081 ) ) REPRESENTATION_CONTEXT ( 'NONE', 'WORKASPACE' ) );
#50 = VECTOR ( 'NONE', #269, 1000.000000000000000 ) ;
#51 = AXIS2_PLACEMENT_3D ( 'NONE', #1020, #659, #757 ) ;
#52 = DIRECTION ( 'NONE',  ( -1.000000000000000000, -0.000000000000000000, -0.000000000000000000 ) ) ;
#53 = AXIS2_PLACEMENT_3D ( 'NONE', #33, #185, #705 ) ;
#54 = CARTESIAN_POINT ( 'NONE',  ( -10.09675116564010722, 2.609365052918086292, -1.609365052918086292 ) ) ;
#55 = ORIENTED_EDGE ( 'NONE', *, *, #912, .F. ) ;
#56 = EDGE_CURVE ( 'NONE', #221, #935, #593, .T. ) ;
#57 = ORIENTED_EDGE ( 'NONE', *, *, #127, .F. ) ;
#58 = DIRECTION ( 'NONE',  ( 0.000000000000000000, 0.000000000000000000, -1.000000000000000000 ) ) ;
#59 =( GEOMETRIC_REPRESENTATION_CONTEXT ( 3 ) GLOBAL_UNCERTAINTY_ASSIGNED_CONTEXT ( ( #1050 ) ) GLOBAL_UNIT_ASSIGNED_CONTEXT ( ( #1048, #345, #175 ) ) REPRESENTATION_CONTEXT ( 'NONE', 'WORKASPACE' ) );
#60 = VECTOR ( 'NONE', #73, 1000.000000000000000 ) ;
#61 = CARTESIAN_POINT ( 'NONE',  ( 1.804968851620622594, 2.609365052918086292, 0.000000000000000000 ) ) ;
#62 = AXIS2_PLACEMENT_3D ( 'NONE', #521, #71, #1062 ) ;
#63 =( GEOMETRIC_REPRESENTATION_CONTEXT ( 3 ) GLOBAL_UNCERTAINTY_ASSIGNED_CONTEXT ( ( #67 ) ) GLOBAL_UNIT_ASSIGNED_CONTEXT ( ( #754, #470, #16 ) ) REPRESENTATION_CONTEXT ( 'NONE', 'WORKASPACE' ) );
#64 = DIRECTION ( 'NONE',  ( -1.000000000000000000, -0.000000000000000000, -0.000000000000000000 ) ) ;
#65 = FACE_OUTER_BOUND ( 'NONE', #272, .T. ) ;
#66 = SURFACE_STYLE_USAGE ( .BOTH. , #605 ) ;
#67 = UNCERTAINTY_MEASURE_WITH_UNIT (LENGTH_MEASURE( 1.000000000000000082E-05 ), #754, 'distance_accuracy_value', 'NONE');
#68 = EDGE_CURVE ( 'NONE', #935, #556, #737, .T. ) ;
#69 = VERTEX_POINT ( 'NONE', #433 ) ;
#70 = DIRECTION ( 'NONE',  ( 2.832769448823989808E-16, 1.000000000000000000, -0.000000000000000000 ) ) ;
#71 = DIRECTION ( 'NONE',  ( 0.000000000000000000, 0.000000000000000000, 1.000000000000000000 ) ) ;
#72 = DIRECTION ( 'NONE',  ( 0.000000000000000000, 0.000000000000000000, 1.000000000000000000 ) ) ;
#73 = DIRECTION ( 'NONE',  ( -1.000000000000000000, -0.000000000000000000, -0.000000000000000000 ) ) ;
#74 = VERTEX_POINT ( 'NONE', #1049 ) ;
#75 = CARTESIAN_POINT ( 'NONE',  ( -11.43000000000000149, 1.609365052918086292, 0.000000000000000000 ) ) ;
#76 = ADVANCED_FACE ( 'NONE', ( #609 ), #1068, .T. ) ;
#77 = ORIENTED_EDGE ( 'NONE', *, *, #223, .T. ) ;
#78 = AXIS2_PLACEMENT_3D ( 'NONE', #241, #601, #144 ) ;
#79 = CIRCLE ( 'NONE', #134, 0.7449999999999991074 ) ;
#80 = CIRCLE ( 'NONE', #389, 0.2549999999999999489 ) ;
#81 = AXIS2_PLACEMENT_3D ( 'NONE', #382, #917, #204 ) ;
#82 =( GEOMETRIC_REPRESENTATION_CONTEXT ( 3 ) GLOBAL_UNCERTAINTY_ASSIGNED_CONTEXT ( ( #323 ) ) GLOBAL_UNIT_ASSIGNED_CONTEXT ( ( #839, #1018, #108 ) ) REPRESENTATION_CONTEXT ( 'NONE', 'WORKASPACE' ) );
#83 = FACE_OUTER_BOUND ( 'NONE', #646, .T. ) ;
#84 = VERTEX_POINT ( 'NONE', #692 ) ;
#85 = DIRECTION ( 'NONE',  ( 0.000000000000000000, 0.000000000000000000, 1.000000000000000000 ) ) ;
#86 = EDGE_LOOP ( 'NONE', ( #876, #131, #900, #1001, #57, #972 ) ) ;
#87 = DIRECTION ( 'NONE',  ( -1.000000000000000000, 0.000000000000000000, 0.000000000000000000 ) ) ;
#88 =( NAMED_UNIT ( * ) PLANE_ANGLE_UNIT ( ) SI_UNIT ( $, .RADIAN. ) );
#89 = ORIENTED_EDGE ( 'NONE', *, *, #778, .T. ) ;
#90 = FILL_AREA_STYLE_COLOUR ( '', #229 ) ;
#91 =( NAMED_UNIT ( * ) SI_UNIT ( $, .STERADIAN. ) SOLID_ANGLE_UNIT ( ) );
#92 = ORIENTED_EDGE ( 'NONE', *, *, #948, .F. ) ;
#93 = STYLED_ITEM ( 'NONE', ( #1098 ), #213 ) ;
#94 = CARTESIAN_POINT ( 'NONE',  ( -3.556190395207061261, 2.609365052918086292, 0.000000000000000000 ) ) ;
#95 = MECHANICAL_DESIGN_GEOMETRIC_PRESENTATION_REPRESENTATION (  '', ( #506 ), #910 ) ;
#96 = MECHANICAL_DESIGN_GEOMETRIC_PRESENTATION_REPRESENTATION (  '', ( #367 ), #849 ) ;
#97 = STYLED_ITEM ( 'NONE', ( #681 ), #573 ) ;
#98 = COLOUR_RGB ( '',0.7529411764705882248, 0.7529411764705882248, 0.000000000000000000 ) ;
#99 = VERTEX_POINT ( 'NONE', #625 ) ;
#100 = PRESENTATION_STYLE_ASSIGNMENT (( #264 ) ) ;
#101 = PRESENTATION_STYLE_ASSIGNMENT (( #911 ) ) ;
#102 = ORIENTED_EDGE ( 'NONE', *, *, #587, .F. ) ;
#103 = SURFACE_STYLE_USAGE ( .BOTH. , #195 ) ;
#104 =( LENGTH_UNIT ( ) NAMED_UNIT ( * ) SI_UNIT ( .MILLI., .METRE. ) );
#105 = DIRECTION ( 'NONE',  ( 2.832769448823989808E-16, -1.000000000000000000, 0.000000000000000000 ) ) ;
#106 = FILL_AREA_STYLE_COLOUR ( '', #116 ) ;
#107 = CARTESIAN_POINT ( 'NONE',  ( -10.09675116564010722, 2.609365052918086292, 0.000000000000000000 ) ) ;
#108 =( NAMED_UNIT ( * ) SI_UNIT ( $, .STERADIAN. ) SOLID_ANGLE_UNIT ( ) );
#109 =( NAMED_UNIT ( * ) PLANE_ANGLE_UNIT ( ) SI_UNIT ( $, .RADIAN. ) );
#110 = EDGE_CURVE ( 'NONE', #884, #301, #765, .T. ) ;
#111 = FILL_AREA_STYLE_COLOUR ( '', #766 ) ;
#112 = ORIENTED_EDGE ( 'NONE', *, *, #244, .F. ) ;
#113 = CARTESIAN_POINT ( 'NONE',  ( -11.43000000000000149, 1.609365052918086292, 0.000000000000000000 ) ) ;
#114 = MECHANICAL_DESIGN_GEOMETRIC_PRESENTATION_REPRESENTATION (  '', ( #499 ), #1139 ) ;
#115 = FILL_AREA_STYLE ('',( #829 ) ) ;
#116 = COLOUR_RGB ( '',0.8941176470588234615, 0.8941176470588234615, 0.8941176470588234615 ) ;
#117 = AXIS2_PLACEMENT_3D ( 'NONE', #113, #931, #319 ) ;
#118 = COLOUR_RGB ( '',0.7529411764705882248, 0.7529411764705882248, 0.000000000000000000 ) ;
#119 = EDGE_CURVE ( 'NONE', #897, #898, #594, .T. ) ;
#120 = STYLED_ITEM ( 'NONE', ( #559 ), #748 ) ;
#121 =( NAMED_UNIT ( * ) PLANE_ANGLE_UNIT ( ) SI_UNIT ( $, .RADIAN. ) );
#122 = VERTEX_POINT ( 'NONE', #722 ) ;
#123 = SURFACE_SIDE_STYLE ('',( #298 ) ) ;
#124 = SURFACE_STYLE_FILL_AREA ( #115 ) ;
#125 =( NAMED_UNIT ( * ) SI_UNIT ( $, .STERADIAN. ) SOLID_ANGLE_UNIT ( ) );
#126 = LINE ( 'NONE', #492, #346 ) ;
#127 = EDGE_CURVE ( 'NONE', #1028, #526, #79, .T. ) ;
#128 = ORIENTED_EDGE ( 'NONE', *, *, #326, .F. ) ;
#129 = VERTEX_POINT ( 'NONE', #522 ) ;
#130 = CYLINDRICAL_SURFACE ( 'NONE', #413, 0.2549999999999999489 ) ;
#131 = ORIENTED_EDGE ( 'NONE', *, *, #739, .T. ) ;
#132 = DIRECTION ( 'NONE',  ( 0.000000000000000000, 0.000000000000000000, -1.000000000000000000 ) ) ;
#133 = CLOSED_SHELL ( 'NONE', ( #213, #1127, #862, #826, #941, #573, #689, #465, #1121, #773, #76, #748, #28, #546, #509, #500, #149, #283, #370, #700, #838, #882, #1052, #394 ) ) ;
#134 = AXIS2_PLACEMENT_3D ( 'NONE', #1071, #184, #258 ) ;
#135 = AXIS2_PLACEMENT_3D ( 'NONE', #507, #772, #1051 ) ;
#136 = AXIS2_PLACEMENT_3D ( 'NONE', #440, #642, #1089 ) ;
#137 = CIRCLE ( 'NONE', #598, 1.609365052918086070 ) ;
#138 = MECHANICAL_DESIGN_GEOMETRIC_PRESENTATION_REPRESENTATION (  '', ( #450 ), #579 ) ;
#139 =( GEOMETRIC_REPRESENTATION_CONTEXT ( 3 ) GLOBAL_UNCERTAINTY_ASSIGNED_CONTEXT ( ( #621 ) ) GLOBAL_UNIT_ASSIGNED_CONTEXT ( ( #993, #167, #125 ) ) REPRESENTATION_CONTEXT ( 'NONE', 'WORKASPACE' ) );
#140 = UNCERTAINTY_MEASURE_WITH_UNIT (LENGTH_MEASURE( 1.000000000000000082E-05 ), #986, 'distance_accuracy_value', 'NONE');
#141 = ORIENTED_EDGE ( 'NONE', *, *, #1047, .T. ) ;
#142 = EDGE_CURVE ( 'NONE', #424, #221, #738, .T. ) ;
#143 = CARTESIAN_POINT ( 'NONE',  ( -1.804968851620622594, 2.609365052918086292, 0.000000000000000000 ) ) ;
#144 = DIRECTION ( 'NONE',  ( 0.000000000000000000, 0.000000000000000000, 1.000000000000000000 ) ) ;
#145 =( NAMED_UNIT ( * ) PLANE_ANGLE_UNIT ( ) SI_UNIT ( $, .RADIAN. ) );
#146 =( NAMED_UNIT ( * ) SI_UNIT ( $, .STERADIAN. ) SOLID_ANGLE_UNIT ( ) );
#147 = ORIENTED_EDGE ( 'NONE', *, *, #717, .F. ) ;
#148 = CARTESIAN_POINT ( 'NONE',  ( -1.804968851620623482, 2.609365052918086292, 0.000000000000000000 ) ) ;
#149 = ADVANCED_FACE ( 'NONE', ( #263 ), #547, .T. ) ;
#150 = SURFACE_STYLE_FILL_AREA ( #341 ) ;
#151 = CARTESIAN_POINT ( 'NONE',  ( -10.09675116564010722, 2.609365052918086292, 0.000000000000000000 ) ) ;
#152 = CARTESIAN_POINT ( 'NONE',  ( 3.362617346942188501, 2.204658939081763691, 0.000000000000000000 ) ) ;
#153 = UNCERTAINTY_MEASURE_WITH_UNIT (LENGTH_MEASURE( 1.000000000000000082E-05 ), #1124, 'distance_accuracy_value', 'NONE');
#154 = DIRECTION ( 'NONE',  ( -0.000000000000000000, 1.000000000000000000, 1.224646799147353207E-16 ) ) ;
#155 = CIRCLE ( 'NONE', #313, 0.4047061138363222121 ) ;
#156 = EDGE_CURVE ( 'NONE', #99, #1080, #1005, .T. ) ;
#157 =( GEOMETRIC_REPRESENTATION_CONTEXT ( 3 ) GLOBAL_UNCERTAINTY_ASSIGNED_CONTEXT ( ( #1134 ) ) GLOBAL_UNIT_ASSIGNED_CONTEXT ( ( #216, #121, #929 ) ) REPRESENTATION_CONTEXT ( 'NONE', 'WORKASPACE' ) );
#158 =( GEOMETRIC_REPRESENTATION_CONTEXT ( 3 ) GLOBAL_UNCERTAINTY_ASSIGNED_CONTEXT ( ( #334 ) ) GLOBAL_UNIT_ASSIGNED_CONTEXT ( ( #1009, #996, #536 ) ) REPRESENTATION_CONTEXT ( 'NONE', 'WORKASPACE' ) );
#159 = FILL_AREA_STYLE ('',( #960 ) ) ;
#160 = VECTOR ( 'NONE', #763, 1000.000000000000000 ) ;
#161 = DIRECTION ( 'NONE',  ( 1.000000000000000000, -0.000000000000000000, -0.000000000000000000 ) ) ;
#162 = EDGE_CURVE ( 'NONE', #122, #245, #649, .T. ) ;
#163 = ORIENTED_EDGE ( 'NONE', *, *, #1000, .T. ) ;
#164 = ORIENTED_EDGE ( 'NONE', *, *, #1, .F. ) ;
#165 = SURFACE_SIDE_STYLE ('',( #1063 ) ) ;
#166 = PRESENTATION_STYLE_ASSIGNMENT (( #254 ) ) ;
#167 =( NAMED_UNIT ( * ) PLANE_ANGLE_UNIT ( ) SI_UNIT ( $, .RADIAN. ) );
#168 = ORIENTED_EDGE ( 'NONE', *, *, #958, .T. ) ;
#169 = MECHANICAL_DESIGN_GEOMETRIC_PRESENTATION_REPRESENTATION (  '', ( #1041 ), #1093 ) ;
#170 = CIRCLE ( 'NONE', #480, 0.2549999999999999489 ) ;
#171 = SURFACE_STYLE_FILL_AREA ( #12 ) ;
#172 = AXIS2_PLACEMENT_3D ( 'NONE', #219, #735, #206 ) ;
#173 = STYLED_ITEM ( 'NONE', ( #166 ), #465 ) ;
#174 = MECHANICAL_DESIGN_GEOMETRIC_PRESENTATION_REPRESENTATION (  '', ( #947 ), #250 ) ;
#175 =( NAMED_UNIT ( * ) SI_UNIT ( $, .STERADIAN. ) SOLID_ANGLE_UNIT ( ) );
#176 =( GEOMETRIC_REPRESENTATION_CONTEXT ( 3 ) GLOBAL_UNCERTAINTY_ASSIGNED_CONTEXT ( ( #441 ) ) GLOBAL_UNIT_ASSIGNED_CONTEXT ( ( #1103, #477, #146 ) ) REPRESENTATION_CONTEXT ( 'NONE', 'WORKASPACE' ) );
#177 = ORIENTED_EDGE ( 'NONE', *, *, #1104, .T. ) ;
#178 = VERTEX_POINT ( 'NONE', #30 ) ;
#179 = CARTESIAN_POINT ( 'NONE',  ( -3.556190395207061261, 2.609365052918086292, 0.000000000000000000 ) ) ;
#180 = EDGE_LOOP ( 'NONE', ( #842, #256, #92, #927, #168, #815 ) ) ;
#181 =( NAMED_UNIT ( * ) SI_UNIT ( $, .STERADIAN. ) SOLID_ANGLE_UNIT ( ) );
#182 =( LENGTH_UNIT ( ) NAMED_UNIT ( * ) SI_UNIT ( .MILLI., .METRE. ) );
#183 = ORIENTED_EDGE ( 'NONE', *, *, #624, .T. ) ;
#184 = DIRECTION ( 'NONE',  ( -0.000000000000000000, 0.000000000000000000, 1.000000000000000000 ) ) ;
#185 = DIRECTION ( 'NONE',  ( 0.000000000000000000, -1.000000000000000000, 0.000000000000000000 ) ) ;
#186 = EDGE_LOOP ( 'NONE', ( #446, #237, #795, #406, #397, #102 ) ) ;
#187 = FILL_AREA_STYLE ('',( #200 ) ) ;
#188 = PRESENTATION_STYLE_ASSIGNMENT (( #997 ) ) ;
#189 = ORIENTED_EDGE ( 'NONE', *, *, #1074, .T. ) ;
#190 =( NAMED_UNIT ( * ) SI_UNIT ( $, .STERADIAN. ) SOLID_ANGLE_UNIT ( ) );
#191 = DIRECTION ( 'NONE',  ( -1.000000000000000000, -0.000000000000000000, -0.000000000000000000 ) ) ;
#192 = EDGE_CURVE ( 'NONE', #99, #728, #126, .T. ) ;
#193 = STYLED_ITEM ( 'NONE', ( #253 ), #149 ) ;
#194 = ORIENTED_EDGE ( 'NONE', *, *, #564, .T. ) ;
#195 = SURFACE_SIDE_STYLE ('',( #637 ) ) ;
#196 = CIRCLE ( 'NONE', #946, 0.2549999999999999489 ) ;
#197 = STYLED_ITEM ( 'NONE', ( #562 ), #546 ) ;
#198 =( NAMED_UNIT ( * ) PLANE_ANGLE_UNIT ( ) SI_UNIT ( $, .RADIAN. ) );
#199 = CIRCLE ( 'NONE', #468, 1.609365052918086292 ) ;
#200 = FILL_AREA_STYLE_COLOUR ( '', #118 ) ;
#201 = EDGE_CURVE ( 'NONE', #719, #953, #830, .T. ) ;
#202 = CARTESIAN_POINT ( 'NONE',  ( -10.43000000000000149, 2.609365052918086292, 0.000000000000000000 ) ) ;
#203 = FACE_OUTER_BOUND ( 'NONE', #180, .T. ) ;
#204 = DIRECTION ( 'NONE',  ( 0.000000000000000000, 0.000000000000000000, 1.000000000000000000 ) ) ;
#205 = ORIENTED_EDGE ( 'NONE', *, *, #432, .F. ) ;
#206 = DIRECTION ( 'NONE',  ( 0.000000000000000000, 0.000000000000000000, -1.000000000000000000 ) ) ;
#207 = DIRECTION ( 'NONE',  ( 1.000000000000000000, 0.000000000000000000, 0.000000000000000000 ) ) ;
#208 = VERTEX_POINT ( 'NONE', #18 ) ;
#209 = DIRECTION ( 'NONE',  ( -1.000000000000000000, 0.000000000000000000, 0.000000000000000000 ) ) ;
#210 = SURFACE_STYLE_FILL_AREA ( #1090 ) ;
#211 = CIRCLE ( 'NONE', #865, 0.2549999999999999489 ) ;
#212 = CIRCLE ( 'NONE', #409, 0.2549999999999999489 ) ;
#213 = ADVANCED_FACE ( 'NONE', ( #472 ), #428, .T. ) ;
#214 = AXIS2_PLACEMENT_3D ( 'NONE', #938, #226, #1102 ) ;
#215 = CIRCLE ( 'NONE', #654, 0.4047061138363222121 ) ;
#216 =( LENGTH_UNIT ( ) NAMED_UNIT ( * ) SI_UNIT ( .MILLI., .METRE. ) );
#217 = PRESENTATION_STYLE_ASSIGNMENT (( #777 ) ) ;
#218 = CARTESIAN_POINT ( 'NONE',  ( -11.43000000000000149, -3.000000000000000000, 0.000000000000000000 ) ) ;
#219 = CARTESIAN_POINT ( 'NONE',  ( 11.43000000000000149, 1.609365052918086292, 0.000000000000000000 ) ) ;
#220 = SURFACE_STYLE_USAGE ( .BOTH. , #259 ) ;
#221 = VERTEX_POINT ( 'NONE', #925 ) ;
#222 = ORIENTED_EDGE ( 'NONE', *, *, #1047, .F. ) ;
#223 = EDGE_CURVE ( 'NONE', #84, #501, #25, .T. ) ;
#224 = DIRECTION ( 'NONE',  ( 1.000000000000000000, -0.000000000000000000, -0.000000000000000000 ) ) ;
#225 = VERTEX_POINT ( 'NONE', #809 ) ;
#226 = DIRECTION ( 'NONE',  ( -1.000000000000000000, -0.000000000000000000, -0.000000000000000000 ) ) ;
#227 = PRESENTATION_LAYER_ASSIGNMENT (  '', '', ( #740 ) ) ;
#228 = CIRCLE ( 'NONE', #429, 0.4047061138363226562 ) ;
#229 = COLOUR_RGB ( '',0.8980392156862745390, 0.9176470588235293713, 0.9294117647058823817 ) ;
#230 = MECHANICAL_DESIGN_GEOMETRIC_PRESENTATION_REPRESENTATION (  '', ( #928 ), #63 ) ;
#231 = SURFACE_SIDE_STYLE ('',( #1128 ) ) ;
#232 = EDGE_CURVE ( 'NONE', #301, #884, #170, .T. ) ;
#233 = UNCERTAINTY_MEASURE_WITH_UNIT (LENGTH_MEASURE( 1.000000000000000082E-05 ), #915, 'distance_accuracy_value', 'NONE');
#234 = EDGE_LOOP ( 'NONE', ( #466, #189, #711, #632, #1130, #251 ) ) ;
#235 = DIRECTION ( 'NONE',  ( 0.000000000000000000, 0.000000000000000000, 1.000000000000000000 ) ) ;
#236 = SURFACE_STYLE_FILL_AREA ( #1129 ) ;
#237 = ORIENTED_EDGE ( 'NONE', *, *, #56, .T. ) ;
#238 = CARTESIAN_POINT ( 'NONE',  ( -10.43000000000000149, 2.354365052918086398, -3.122849337825749310E-17 ) ) ;
#239 = EDGE_CURVE ( 'NONE', #69, #877, #696, .T. ) ;
#240 = CARTESIAN_POINT ( 'NONE',  ( -11.43000000000000149, -3.000000000000000000, 0.2549999999999999489 ) ) ;
#241 = CARTESIAN_POINT ( 'NONE',  ( 3.362617346942188501, 2.609365052918086292, 0.000000000000000000 ) ) ;
#242 = DIRECTION ( 'NONE',  ( 2.832769448823989808E-16, 1.000000000000000000, -0.000000000000000000 ) ) ;
#243 = COLOUR_RGB ( '',0.8980392156862745390, 0.9176470588235293713, 0.9294117647058823817 ) ;
#244 = EDGE_CURVE ( 'NONE', #178, #884, #1070, .T. ) ;
#245 = VERTEX_POINT ( 'NONE', #918 ) ;
#246 = MECHANICAL_DESIGN_GEOMETRIC_PRESENTATION_REPRESENTATION (  '', ( #407 ), #265 ) ;
#247 = AXIS2_PLACEMENT_3D ( 'NONE', #218, #585, #672 ) ;
#248 = AXIS2_PLACEMENT_3D ( 'NONE', #38, #671, #833 ) ;
#249 = FILL_AREA_STYLE ('',( #1012 ) ) ;
#250 =( GEOMETRIC_REPRESENTATION_CONTEXT ( 3 ) GLOBAL_UNCERTAINTY_ASSIGNED_CONTEXT ( ( #988 ) ) GLOBAL_UNIT_ASSIGNED_CONTEXT ( ( #936, #109, #1082 ) ) REPRESENTATION_CONTEXT ( 'NONE', 'WORKASPACE' ) );
#251 = ORIENTED_EDGE ( 'NONE', *, *, #921, .T. ) ;
#252 = ORIENTED_EDGE ( 'NONE', *, *, #359, .T. ) ;
#253 = PRESENTATION_STYLE_ASSIGNMENT (( #439 ) ) ;
#254 = SURFACE_STYLE_USAGE ( .BOTH. , #704 ) ;
#255 = UNCERTAINTY_MEASURE_WITH_UNIT (LENGTH_MEASURE( 1.000000000000000082E-05 ), #2, 'distance_accuracy_value', 'NONE');
#256 = ORIENTED_EDGE ( 'NONE', *, *, #1086, .F. ) ;
#257 = FILL_AREA_STYLE ('',( #90 ) ) ;
#258 = DIRECTION ( 'NONE',  ( 1.000000000000000000, 0.000000000000000000, 0.000000000000000000 ) ) ;
#259 = SURFACE_SIDE_STYLE ('',( #542 ) ) ;
#260 = CARTESIAN_POINT ( 'NONE',  ( 3.556190395207061261, 2.609365052918086292, -0.2549999999999999489 ) ) ;
#261 = ORIENTED_EDGE ( 'NONE', *, *, #119, .T. ) ;
#262 =( GEOMETRIC_REPRESENTATION_CONTEXT ( 3 ) GLOBAL_UNCERTAINTY_ASSIGNED_CONTEXT ( ( #140 ) ) GLOBAL_UNIT_ASSIGNED_CONTEXT ( ( #986, #88, #535 ) ) REPRESENTATION_CONTEXT ( 'NONE', 'WORKASPACE' ) );
#263 = FACE_OUTER_BOUND ( 'NONE', #616, .T. ) ;
#264 = SURFACE_STYLE_USAGE ( .BOTH. , #376 ) ;
#265 =( GEOMETRIC_REPRESENTATION_CONTEXT ( 3 ) GLOBAL_UNCERTAINTY_ASSIGNED_CONTEXT ( ( #153 ) ) GLOBAL_UNIT_ASSIGNED_CONTEXT ( ( #1124, #1135, #603 ) ) REPRESENTATION_CONTEXT ( 'NONE', 'WORKASPACE' ) );
#266 = UNCERTAINTY_MEASURE_WITH_UNIT (LENGTH_MEASURE( 1.000000000000000082E-05 ), #328, 'distance_accuracy_value', 'NONE');
#267 = ORIENTED_EDGE ( 'NONE', *, *, #201, .T. ) ;
#268 = CIRCLE ( 'NONE', #214, 1.609365052918086292 ) ;
#269 = DIRECTION ( 'NONE',  ( 0.000000000000000000, -1.000000000000000000, 0.000000000000000000 ) ) ;
#270 = PRESENTATION_LAYER_ASSIGNMENT (  '', '', ( #928 ) ) ;
#271 = DIRECTION ( 'NONE',  ( -0.000000000000000000, 1.000000000000000000, 1.224646799147353207E-16 ) ) ;
#272 = EDGE_LOOP ( 'NONE', ( #338, #252, #1106, #899, #860 ) ) ;
#273 = ORIENTED_EDGE ( 'NONE', *, *, #1016, .T. ) ;
#274 =( NAMED_UNIT ( * ) PLANE_ANGLE_UNIT ( ) SI_UNIT ( $, .RADIAN. ) );
#275 = CARTESIAN_POINT ( 'NONE',  ( 11.43000000000000149, -3.000000000000000000, 0.000000000000000000 ) ) ;
#276 = SURFACE_STYLE_USAGE ( .BOTH. , #1155 ) ;
#277 = VERTEX_POINT ( 'NONE', #718 ) ;
#278 = FACE_OUTER_BOUND ( 'NONE', #1144, .T. ) ;
#279 = FILL_AREA_STYLE_COLOUR ( '', #98 ) ;
#280 = CARTESIAN_POINT ( 'NONE',  ( 3.556190395207061261, 2.609365052918086292, 0.000000000000000000 ) ) ;
#281 = CARTESIAN_POINT ( 'NONE',  ( 3.556190395207061261, 2.609365052918086292, 0.2549999999999999489 ) ) ;
#282 = SURFACE_STYLE_USAGE ( .BOTH. , #378 ) ;
#283 = ADVANCED_FACE ( 'NONE', ( #647 ), #863, .T. ) ;
#284 = CARTESIAN_POINT ( 'NONE',  ( 11.43000000000000149, -3.000000000000000000, 0.000000000000000000 ) ) ;
#285 = AXIS2_PLACEMENT_3D ( 'NONE', #366, #72, #1149 ) ;
#286 = FILL_AREA_STYLE_COLOUR ( '', #451 ) ;
#287 = SHAPE_DEFINITION_REPRESENTATION ( #1152, #623 ) ;
#288 = PRESENTATION_LAYER_ASSIGNMENT (  '', '', ( #482 ) ) ;
#289 = STYLED_ITEM ( 'NONE', ( #188 ), #1127 ) ;
#290 = AXIS2_PLACEMENT_3D ( 'NONE', #309, #1105, #302 ) ;
#291 = CARTESIAN_POINT ( 'NONE',  ( 10.43000000000000149, 1.609365052918086292, 0.000000000000000000 ) ) ;
#292 = CIRCLE ( 'NONE', #668, 1.254999999999999227 ) ;
#293 = SPHERICAL_SURFACE ( 'NONE', #62, 1.609365052918086070 ) ;
#294 = VECTOR ( 'NONE', #46, 1000.000000000000000 ) ;
#295 = ORIENTED_EDGE ( 'NONE', *, *, #670, .T. ) ;
#296 = DIRECTION ( 'NONE',  ( 0.000000000000000000, 0.000000000000000000, -1.000000000000000000 ) ) ;
#297 = CYLINDRICAL_SURFACE ( 'NONE', #53, 0.2549999999999999489 ) ;
#298 = SURFACE_STYLE_FILL_AREA ( #1022 ) ;
#299 = DIRECTION ( 'NONE',  ( 1.000000000000000000, 0.000000000000000000, 0.000000000000000000 ) ) ;
#300 = SURFACE_STYLE_USAGE ( .BOTH. , #764 ) ;
#301 = VERTEX_POINT ( 'NONE', #260 ) ;
#302 = DIRECTION ( 'NONE',  ( 0.000000000000000000, 0.000000000000000000, -1.000000000000000000 ) ) ;
#303 = EDGE_CURVE ( 'NONE', #225, #362, #515, .T. ) ;
#304 = ORIENTED_EDGE ( 'NONE', *, *, #1, .T. ) ;
#305 = FILL_AREA_STYLE_COLOUR ( '', #922 ) ;
#306 = LINE ( 'NONE', #54, #160 ) ;
#307 = COLOUR_RGB ( '',0.7529411764705882248, 0.7529411764705882248, 0.000000000000000000 ) ;
#308 = EDGE_LOOP ( 'NONE', ( #205, #89, #789, #164, #976 ) ) ;
#309 = CARTESIAN_POINT ( 'NONE',  ( -11.43000000000000149, -3.000000000000000000, 0.000000000000000000 ) ) ;
#310 = CIRCLE ( 'NONE', #959, 0.2000000000000004829 ) ;
#311 = ORIENTED_EDGE ( 'NONE', *, *, #608, .F. ) ;
#312 = PLANE ( 'NONE',  #247 ) ;
#313 = AXIS2_PLACEMENT_3D ( 'NONE', #539, #890, #85 ) ;
#314 = SURFACE_STYLE_USAGE ( .BOTH. , #1112 ) ;
#315 = TOROIDAL_SURFACE ( 'NONE', #577, 1.000000000000000000, 0.2549999999999999489 ) ;
#316 = AXIS2_PLACEMENT_3D ( 'NONE', #1034, #1110, #31 ) ;
#317 = FILL_AREA_STYLE ('',( #305 ) ) ;
#318 = DIRECTION ( 'NONE',  ( 0.000000000000000000, 0.000000000000000000, 1.000000000000000000 ) ) ;
#319 = DIRECTION ( 'NONE',  ( 0.000000000000000000, 0.000000000000000000, -1.000000000000000000 ) ) ;
#320 = DIRECTION ( 'NONE',  ( 0.000000000000000000, 0.000000000000000000, 1.000000000000000000 ) ) ;
#321 = CARTESIAN_POINT ( 'NONE',  ( -1.804968851620623482, 2.609365052918086292, -1.609365052918086292 ) ) ;
#322 = SURFACE_SIDE_STYLE ('',( #150 ) ) ;
#323 = UNCERTAINTY_MEASURE_WITH_UNIT (LENGTH_MEASURE( 1.000000000000000082E-05 ), #839, 'distance_accuracy_value', 'NONE');
#324 = CYLINDRICAL_SURFACE ( 'NONE', #51, 0.2549999999999999489 ) ;
#325 = SPHERICAL_SURFACE ( 'NONE', #393, 1.609365052918086070 ) ;
#326 = EDGE_CURVE ( 'NONE', #74, #69, #155, .T. ) ;
#327 = CYLINDRICAL_SURFACE ( 'NONE', #444, 1.609365052918086292 ) ;
#328 =( LENGTH_UNIT ( ) NAMED_UNIT ( * ) SI_UNIT ( .MILLI., .METRE. ) );
#329 = ORIENTED_EDGE ( 'NONE', *, *, #530, .F. ) ;
#330 = SURFACE_STYLE_FILL_AREA ( #966 ) ;
#331 = SURFACE_STYLE_USAGE ( .BOTH. , #776 ) ;
#332 = MECHANICAL_DESIGN_GEOMETRIC_PRESENTATION_REPRESENTATION (  '', ( #740 ), #355 ) ;
#333 = CARTESIAN_POINT ( 'NONE',  ( -10.43000000000000149, 2.609365052918086292, 0.000000000000000000 ) ) ;
#334 = UNCERTAINTY_MEASURE_WITH_UNIT (LENGTH_MEASURE( 1.000000000000000082E-05 ), #1009, 'distance_accuracy_value', 'NONE');
#335 = EDGE_CURVE ( 'NONE', #898, #877, #310, .T. ) ;
#336 = EDGE_LOOP ( 'NONE', ( #455, #356, #645, #1061, #163 ) ) ;
#337 = PRESENTATION_STYLE_ASSIGNMENT (( #597 ) ) ;
#338 = ORIENTED_EDGE ( 'NONE', *, *, #1033, .F. ) ;
#339 = CARTESIAN_POINT ( 'NONE',  ( -3.362617346942187613, 2.609365052918086292, 0.000000000000000000 ) ) ;
#340 = EDGE_CURVE ( 'NONE', #208, #225, #945, .T. ) ;
#341 = FILL_AREA_STYLE ('',( #618 ) ) ;
#342 =( NAMED_UNIT ( * ) PLANE_ANGLE_UNIT ( ) SI_UNIT ( $, .RADIAN. ) );
#343 = LINE ( 'NONE', #803, #60 ) ;
#344 = UNCERTAINTY_MEASURE_WITH_UNIT (LENGTH_MEASURE( 1.000000000000000082E-05 ), #1116, 'distance_accuracy_value', 'NONE');
#345 =( NAMED_UNIT ( * ) PLANE_ANGLE_UNIT ( ) SI_UNIT ( $, .RADIAN. ) );
#346 = VECTOR ( 'NONE', #827, 1000.000000000000000 ) ;
#347 = CARTESIAN_POINT ( 'NONE',  ( -10.43000000000000149, 1.609365052918086292, 0.000000000000000000 ) ) ;
#348 = ORIENTED_EDGE ( 'NONE', *, *, #587, .T. ) ;
#349 = PRESENTATION_LAYER_ASSIGNMENT (  '', '', ( #463 ) ) ;
#350 = AXIS2_PLACEMENT_3D ( 'NONE', #971, #1065, #525 ) ;
#351 = VECTOR ( 'NONE', #750, 1000.000000000000000 ) ;
#352 = DIRECTION ( 'NONE',  ( 0.000000000000000000, 0.000000000000000000, 1.000000000000000000 ) ) ;
#353 = CARTESIAN_POINT ( 'NONE',  ( 3.556190395207061261, 2.609365052918086292, 0.000000000000000000 ) ) ;
#354 = MECHANICAL_DESIGN_GEOMETRIC_PRESENTATION_REPRESENTATION (  '', ( #771 ), #82 ) ;
#355 =( GEOMETRIC_REPRESENTATION_CONTEXT ( 3 ) GLOBAL_UNCERTAINTY_ASSIGNED_CONTEXT ( ( #1143 ) ) GLOBAL_UNIT_ASSIGNED_CONTEXT ( ( #955, #638, #919 ) ) REPRESENTATION_CONTEXT ( 'NONE', 'WORKASPACE' ) );
#356 = ORIENTED_EDGE ( 'NONE', *, *, #377, .F. ) ;
#357 = DIRECTION ( 'NONE',  ( -1.000000000000000000, -0.000000000000000000, -0.000000000000000000 ) ) ;
#358 = PRODUCT ( 'Capacitor Ceramic No Polarity axial 22.86', 'Capacitor Ceramic No Polarity axial 22.86', '', ( #467 ) ) ;
#359 = EDGE_CURVE ( 'NONE', #978, #1028, #1044, .T. ) ;
#360 = CARTESIAN_POINT ( 'NONE',  ( -11.43000000000000149, 1.609365052918086292, 0.2549999999999999489 ) ) ;
#361 = PRESENTATION_STYLE_ASSIGNMENT (( #276 ) ) ;
#362 = VERTEX_POINT ( 'NONE', #372 ) ;
#363 =( LENGTH_UNIT ( ) NAMED_UNIT ( * ) SI_UNIT ( .MILLI., .METRE. ) );
#364 = CARTESIAN_POINT ( 'NONE',  ( 3.556190395207061261, 2.609365052918086292, 0.000000000000000000 ) ) ;
#365 = VERTEX_POINT ( 'NONE', #656 ) ;
#366 = CARTESIAN_POINT ( 'NONE',  ( -1.804968851620622594, 2.609365052918086292, 0.000000000000000000 ) ) ;
#367 = STYLED_ITEM ( 'NONE', ( #977 ), #1121 ) ;
#368 = PRESENTATION_LAYER_ASSIGNMENT (  '', '', ( #517 ) ) ;
#369 = MECHANICAL_DESIGN_GEOMETRIC_PRESENTATION_REPRESENTATION (  '', ( #97 ), #518 ) ;
#370 = ADVANCED_FACE ( 'NONE', ( #725 ), #1085, .T. ) ;
#371 = AXIS2_PLACEMENT_3D ( 'NONE', #388, #743, #1014 ) ;
#372 = CARTESIAN_POINT ( 'NONE',  ( 11.17500000000000071, 1.609365052918086292, 3.122849337825749310E-17 ) ) ;
#373 = ORIENTED_EDGE ( 'NONE', *, *, #479, .F. ) ;
#374 = LINE ( 'NONE', #732, #1008 ) ;
#375 = CARTESIAN_POINT ( 'NONE',  ( 3.362617346942188501, 2.609365052918086292, 0.000000000000000000 ) ) ;
#376 = SURFACE_SIDE_STYLE ('',( #171 ) ) ;
#377 = EDGE_CURVE ( 'NONE', #1080, #905, #390, .T. ) ;
#378 = SURFACE_SIDE_STYLE ('',( #836 ) ) ;
#379 = FACE_OUTER_BOUND ( 'NONE', #707, .T. ) ;
#380 = ORIENTED_EDGE ( 'NONE', *, *, #564, .F. ) ;
#381 =( NAMED_UNIT ( * ) PLANE_ANGLE_UNIT ( ) SI_UNIT ( $, .RADIAN. ) );
#382 = CARTESIAN_POINT ( 'NONE',  ( -1.804968851620623482, 2.609365052918086292, 0.000000000000000000 ) ) ;
#383 = DIRECTION ( 'NONE',  ( -1.000000000000000000, -0.000000000000000000, -0.000000000000000000 ) ) ;
#384 = DIRECTION ( 'NONE',  ( -0.000000000000000000, 0.000000000000000000, 1.000000000000000000 ) ) ;
#385 = CARTESIAN_POINT ( 'NONE',  ( 1.804968851620623482, 2.609365052918086292, 0.000000000000000000 ) ) ;
#386 = COLOUR_RGB ( '',0.7529411764705882248, 0.7529411764705882248, 0.000000000000000000 ) ;
#387 = PRESENTATION_LAYER_ASSIGNMENT (  '', '', ( #93 ) ) ;
#388 = CARTESIAN_POINT ( 'NONE',  ( 11.43000000000000149, -3.000000000000000000, 0.000000000000000000 ) ) ;
#389 = AXIS2_PLACEMENT_3D ( 'NONE', #954, #70, #856 ) ;
#390 = CIRCLE ( 'NONE', #117, 0.2549999999999999489 ) ;
#391 = VERTEX_POINT ( 'NONE', #746 ) ;
#392 = PRESENTATION_STYLE_ASSIGNMENT (( #314 ) ) ;
#393 = AXIS2_PLACEMENT_3D ( 'NONE', #143, #42, #508 ) ;
#394 = ADVANCED_FACE ( 'NONE', ( #494 ), #312, .T. ) ;
#395 = VERTEX_POINT ( 'NONE', #1036 ) ;
#396 = ORIENTED_EDGE ( 'NONE', *, *, #201, .F. ) ;
#397 = ORIENTED_EDGE ( 'NONE', *, *, #223, .F. ) ;
#398 = EDGE_CURVE ( 'NONE', #395, #898, #660, .T. ) ;
#399 =( NAMED_UNIT ( * ) SI_UNIT ( $, .STERADIAN. ) SOLID_ANGLE_UNIT ( ) );
#400 = CARTESIAN_POINT ( 'NONE',  ( 3.362617346942188501, 3.014071166754408893, 1.233262903810380613E-16 ) ) ;
#401 = CARTESIAN_POINT ( 'NONE',  ( -1.804968851620623482, 2.609365052918086292, 0.000000000000000000 ) ) ;
#402 = DIRECTION ( 'NONE',  ( 0.000000000000000000, 0.000000000000000000, 1.000000000000000000 ) ) ;
#403 = DIRECTION ( 'NONE',  ( 0.000000000000000000, 0.000000000000000000, -1.000000000000000000 ) ) ;
#404 = DIRECTION ( 'NONE',  ( -1.000000000000000000, -0.000000000000000000, -0.000000000000000000 ) ) ;
#405 = AXIS2_PLACEMENT_3D ( 'NONE', #353, #973, #627 ) ;
#406 = ORIENTED_EDGE ( 'NONE', *, *, #807, .F. ) ;
#407 = STYLED_ITEM ( 'NONE', ( #337 ), #941 ) ;
#408 =( NAMED_UNIT ( * ) SI_UNIT ( $, .STERADIAN. ) SOLID_ANGLE_UNIT ( ) );
#409 = AXIS2_PLACEMENT_3D ( 'NONE', #478, #834, #752 ) ;
#410 = SURFACE_SIDE_STYLE ('',( #586 ) ) ;
#411 = PRODUCT_DEFINITION_FORMATION_WITH_SPECIFIED_SOURCE ( 'ANY', '', #358, .NOT_KNOWN. ) ;
#412 = COLOUR_RGB ( '',0.8980392156862745390, 0.9176470588235293713, 0.9294117647058823817 ) ;
#413 = AXIS2_PLACEMENT_3D ( 'NONE', #590, #595, #855 ) ;
#414 = CARTESIAN_POINT ( 'NONE',  ( -1.804968851620623482, 1.000000000000000000, 0.000000000000000000 ) ) ;
#415 = COLOUR_RGB ( '',0.8980392156862745390, 0.9176470588235293713, 0.9294117647058823817 ) ;
#416 =( NAMED_UNIT ( * ) PLANE_ANGLE_UNIT ( ) SI_UNIT ( $, .RADIAN. ) );
#417 = CARTESIAN_POINT ( 'NONE',  ( -3.556190395207061261, 2.609365052918086292, 0.4550000000000005151 ) ) ;
#418 = FILL_AREA_STYLE ('',( #1038 ) ) ;
#419 = EDGE_CURVE ( 'NONE', #178, #629, #212, .T. ) ;
#420 = EDGE_LOOP ( 'NONE', ( #636, #295, #273, #267, #222, #694 ) ) ;
#421 = DIRECTION ( 'NONE',  ( 0.000000000000000000, 0.000000000000000000, -1.000000000000000000 ) ) ;
#422 = UNCERTAINTY_MEASURE_WITH_UNIT (LENGTH_MEASURE( 1.000000000000000082E-05 ), #491, 'distance_accuracy_value', 'NONE');
#423 = FILL_AREA_STYLE_COLOUR ( '', #29 ) ;
#424 = VERTEX_POINT ( 'NONE', #152 ) ;
#425 = DIRECTION ( 'NONE',  ( 0.000000000000000000, 0.000000000000000000, 1.000000000000000000 ) ) ;
#426 = FILL_AREA_STYLE ('',( #847 ) ) ;
#427 = EDGE_LOOP ( 'NONE', ( #1003, #39, #141, #462, #549 ) ) ;
#428 = TOROIDAL_SURFACE ( 'NONE', #1042, 1.000000000000000000, 0.2549999999999999489 ) ;
#429 = AXIS2_PLACEMENT_3D ( 'NONE', #602, #969, #620 ) ;
#430 =( GEOMETRIC_REPRESENTATION_CONTEXT ( 3 ) GLOBAL_UNCERTAINTY_ASSIGNED_CONTEXT ( ( #1056 ) ) GLOBAL_UNIT_ASSIGNED_CONTEXT ( ( #498, #552, #23 ) ) REPRESENTATION_CONTEXT ( 'NONE', 'WORKASPACE' ) );
#431 = CIRCLE ( 'NONE', #617, 0.2000000000000004829 ) ;
#432 = EDGE_CURVE ( 'NONE', #365, #424, #228, .T. ) ;
#433 = CARTESIAN_POINT ( 'NONE',  ( -3.362617346942187613, 3.014071166754408448, 1.233262903810380613E-16 ) ) ;
#434 = ORIENTED_EDGE ( 'NONE', *, *, #162, .T. ) ;
#435 = DIRECTION ( 'NONE',  ( 0.000000000000000000, 0.000000000000000000, 1.000000000000000000 ) ) ;
#436 = SURFACE_SIDE_STYLE ('',( #592 ) ) ;
#437 = CARTESIAN_POINT ( 'NONE',  ( 1.804968851620623482, 2.609365052918086292, 0.000000000000000000 ) ) ;
#438 = EDGE_LOOP ( 'NONE', ( #32, #792, #749, #128, #1066, #396 ) ) ;
#439 = SURFACE_STYLE_USAGE ( .BOTH. , #165 ) ;
#440 = CARTESIAN_POINT ( 'NONE',  ( 10.43000000000000149, 2.609365052918086292, 0.000000000000000000 ) ) ;
#441 = UNCERTAINTY_MEASURE_WITH_UNIT (LENGTH_MEASURE( 1.000000000000000082E-05 ), #1103, 'distance_accuracy_value', 'NONE');
#442 = ORIENTED_EDGE ( 'NONE', *, *, #162, .F. ) ;
#443 = DIRECTION ( 'NONE',  ( 2.832769448823989808E-16, 1.000000000000000000, -0.000000000000000000 ) ) ;
#444 = AXIS2_PLACEMENT_3D ( 'NONE', #151, #52, #678 ) ;
#445 = AXIS2_PLACEMENT_3D ( 'NONE', #179, #714, #820 ) ;
#446 = ORIENTED_EDGE ( 'NONE', *, *, #142, .T. ) ;
#447 = AXIS2_PLACEMENT_3D ( 'NONE', #846, #41, #574 ) ;
#448 = MECHANICAL_DESIGN_GEOMETRIC_PRESENTATION_REPRESENTATION (  '', ( #463 ), #1115 ) ;
#449 = PRESENTATION_LAYER_ASSIGNMENT (  '', '', ( #289 ) ) ;
#450 = STYLED_ITEM ( 'NONE', ( #36 ), #509 ) ;
#451 = COLOUR_RGB ( '',0.8980392156862745390, 0.9176470588235293713, 0.9294117647058823817 ) ;
#452 = DIRECTION ( 'NONE',  ( 0.000000000000000000, -1.000000000000000000, -1.224646799147353207E-16 ) ) ;
#453 = SURFACE_SIDE_STYLE ('',( #734 ) ) ;
#454 = EDGE_CURVE ( 'NONE', #501, #888, #343, .T. ) ;
#455 = ORIENTED_EDGE ( 'NONE', *, *, #1104, .F. ) ;
#456 = CARTESIAN_POINT ( 'NONE',  ( 10.43000000000000149, 1.609365052918086292, 3.122849337825749926E-17 ) ) ;
#457 = DIRECTION ( 'NONE',  ( 0.000000000000000000, 0.000000000000000000, 1.000000000000000000 ) ) ;
#458 = ORIENTED_EDGE ( 'NONE', *, *, #921, .F. ) ;
#459 = FILL_AREA_STYLE_COLOUR ( '', #614 ) ;
#460 = FILL_AREA_STYLE_COLOUR ( '', #963 ) ;
#461 = STYLED_ITEM ( 'NONE', ( #688 ), #28 ) ;
#462 = ORIENTED_EDGE ( 'NONE', *, *, #731, .T. ) ;
#463 = STYLED_ITEM ( 'NONE', ( #1119 ), #394 ) ;
#464 = AXIS2_PLACEMENT_3D ( 'NONE', #845, #843, #828 ) ;
#465 = ADVANCED_FACE ( 'NONE', ( #961 ), #697, .F. ) ;
#466 = ORIENTED_EDGE ( 'NONE', *, *, #858, .T. ) ;
#467 = PRODUCT_CONTEXT ( 'NONE', #567, 'mechanical' ) ;
#468 = AXIS2_PLACEMENT_3D ( 'NONE', #401, #857, #761 ) ;
#469 = CARTESIAN_POINT ( 'NONE',  ( 10.43000000000000149, 2.609365052918086292, 0.2549999999999999489 ) ) ;
#470 =( NAMED_UNIT ( * ) PLANE_ANGLE_UNIT ( ) SI_UNIT ( $, .RADIAN. ) );
#471 = ORIENTED_EDGE ( 'NONE', *, *, #994, .F. ) ;
#472 = FACE_OUTER_BOUND ( 'NONE', #86, .T. ) ;
#473 = ORIENTED_EDGE ( 'NONE', *, *, #479, .T. ) ;
#474 = DIRECTION ( 'NONE',  ( 0.000000000000000000, 0.000000000000000000, -1.000000000000000000 ) ) ;
#475 = CARTESIAN_POINT ( 'NONE',  ( -10.43000000000000149, 2.609365052918086292, 0.000000000000000000 ) ) ;
#476 = DIRECTION ( 'NONE',  ( -1.000000000000000000, -0.000000000000000000, -0.000000000000000000 ) ) ;
#477 =( NAMED_UNIT ( * ) PLANE_ANGLE_UNIT ( ) SI_UNIT ( $, .RADIAN. ) );
#478 = CARTESIAN_POINT ( 'NONE',  ( 10.43000000000000149, 2.609365052918086292, 0.000000000000000000 ) ) ;
#479 = EDGE_CURVE ( 'NONE', #17, #178, #651, .T. ) ;
#480 = AXIS2_PLACEMENT_3D ( 'NONE', #280, #713, #544 ) ;
#481 = EDGE_LOOP ( 'NONE', ( #676, #473, #913, #1035, #810, #796 ) ) ;
#482 = STYLED_ITEM ( 'NONE', ( #361 ), #370 ) ;
#483 = CIRCLE ( 'NONE', #81, 1.609365052918086292 ) ;
#484 = ORIENTED_EDGE ( 'NONE', *, *, #912, .T. ) ;
#485 = DIRECTION ( 'NONE',  ( 1.000000000000000000, -0.000000000000000000, -0.000000000000000000 ) ) ;
#486 = PRESENTATION_STYLE_ASSIGNMENT (( #666 ) ) ;
#487 = PRESENTATION_STYLE_ASSIGNMENT (( #943 ) ) ;
#488 = PLANE ( 'NONE',  #371 ) ;
#489 = SURFACE_STYLE_USAGE ( .BOTH. , #578 ) ;
#490 = EDGE_LOOP ( 'NONE', ( #147, #194, #77, #686, #4, #999 ) ) ;
#491 =( LENGTH_UNIT ( ) NAMED_UNIT ( * ) SI_UNIT ( .MILLI., .METRE. ) );
#492 = CARTESIAN_POINT ( 'NONE',  ( -11.43000000000000149, 1.609365052918086292, -0.2549999999999999489 ) ) ;
#493 = FACE_OUTER_BOUND ( 'NONE', #336, .T. ) ;
#494 = FACE_OUTER_BOUND ( 'NONE', #995, .T. ) ;
#495 = CARTESIAN_POINT ( 'NONE',  ( 11.43000000000000149, 1.609365052918086292, 0.2549999999999999489 ) ) ;
#496 = FACE_OUTER_BOUND ( 'NONE', #540, .T. ) ;
#497 = ORIENTED_EDGE ( 'NONE', *, *, #1033, .T. ) ;
#498 =( LENGTH_UNIT ( ) NAMED_UNIT ( * ) SI_UNIT ( .MILLI., .METRE. ) );
#499 = STYLED_ITEM ( 'NONE', ( #1004 ), #283 ) ;
#500 = ADVANCED_FACE ( 'NONE', ( #379 ), #818, .F. ) ;
#501 = VERTEX_POINT ( 'NONE', #1150 ) ;
#502 = CIRCLE ( 'NONE', #447, 0.2549999999999999489 ) ;
#503 = DIRECTION ( 'NONE',  ( -1.000000000000000000, -0.000000000000000000, -0.000000000000000000 ) ) ;
#504 = TOROIDAL_SURFACE ( 'NONE', #1117, 0.4550000000000005151, 0.2000000000000004829 ) ;
#505 = AXIS2_PLACEMENT_3D ( 'NONE', #107, #476, #435 ) ;
#506 = STYLED_ITEM ( 'NONE', ( #937 ), #940 ) ;
#507 = CARTESIAN_POINT ( 'NONE',  ( 10.43000000000000149, 2.609365052918086292, 0.000000000000000000 ) ) ;
#508 = DIRECTION ( 'NONE',  ( 0.000000000000000000, -1.000000000000000000, 0.000000000000000000 ) ) ;
#509 = ADVANCED_FACE ( 'NONE', ( #83 ), #504, .F. ) ;
#510 = APPLICATION_CONTEXT ( 'automotive_design' ) ;
#511 = DIRECTION ( 'NONE',  ( 0.000000000000000000, -1.000000000000000000, 0.000000000000000000 ) ) ;
#512 = EDGE_LOOP ( 'NONE', ( #591, #572, #816, #588, #1083, #553 ) ) ;
#513 = DIRECTION ( 'NONE',  ( 0.000000000000000000, 0.000000000000000000, 1.000000000000000000 ) ) ;
#514 = DIRECTION ( 'NONE',  ( 1.000000000000000000, -0.000000000000000000, -0.000000000000000000 ) ) ;
#515 = CIRCLE ( 'NONE', #8, 0.2549999999999999489 ) ;
#516 = MECHANICAL_DESIGN_GEOMETRIC_PRESENTATION_REPRESENTATION (  '', ( #289 ), #157 ) ;
#517 = STYLED_ITEM ( 'NONE', ( #100 ), #500 ) ;
#518 =( GEOMETRIC_REPRESENTATION_CONTEXT ( 3 ) GLOBAL_UNCERTAINTY_ASSIGNED_CONTEXT ( ( #679 ) ) GLOBAL_UNIT_ASSIGNED_CONTEXT ( ( #841, #930, #34 ) ) REPRESENTATION_CONTEXT ( 'NONE', 'WORKASPACE' ) );
#519 = PRESENTATION_LAYER_ASSIGNMENT (  '', '', ( #537 ) ) ;
#520 = SURFACE_SIDE_STYLE ('',( #330 ) ) ;
#521 = CARTESIAN_POINT ( 'NONE',  ( 1.804968851620622594, 2.609365052918086292, 0.000000000000000000 ) ) ;
#522 = CARTESIAN_POINT ( 'NONE',  ( 11.43000000000000149, 1.609365052918086292, -0.2549999999999999489 ) ) ;
#523 = EDGE_CURVE ( 'NONE', #629, #362, #819, .T. ) ;
#524 = EDGE_LOOP ( 'NONE', ( #580, #183, #989, #112, #373 ) ) ;
#525 = DIRECTION ( 'NONE',  ( 0.000000000000000000, 0.000000000000000000, -1.000000000000000000 ) ) ;
#526 = VERTEX_POINT ( 'NONE', #5 ) ;
#527 = CARTESIAN_POINT ( 'NONE',  ( 1.804968851620623482, 2.609365052918086292, 0.000000000000000000 ) ) ;
#528 = PRESENTATION_STYLE_ASSIGNMENT (( #1140 ) ) ;
#529 = DIRECTION ( 'NONE',  ( 0.000000000000000000, 0.000000000000000000, -1.000000000000000000 ) ) ;
#530 = EDGE_CURVE ( 'NONE', #129, #245, #374, .T. ) ;
#531 = AXIS2_PLACEMENT_3D ( 'NONE', #375, #874, #878 ) ;
#532 = ORIENTED_EDGE ( 'NONE', *, *, #778, .F. ) ;
#533 = AXIS2_PLACEMENT_3D ( 'NONE', #437, #1120, #425 ) ;
#534 = PRESENTATION_LAYER_ASSIGNMENT (  '', '', ( #173 ) ) ;
#535 =( NAMED_UNIT ( * ) SI_UNIT ( $, .STERADIAN. ) SOLID_ANGLE_UNIT ( ) );
#536 =( NAMED_UNIT ( * ) SI_UNIT ( $, .STERADIAN. ) SOLID_ANGLE_UNIT ( ) );
#537 = STYLED_ITEM ( 'NONE', ( #487 ), #826 ) ;
#538 = SURFACE_STYLE_USAGE ( .BOTH. , #695 ) ;
#539 = CARTESIAN_POINT ( 'NONE',  ( -3.362617346942187613, 2.609365052918086292, 0.000000000000000000 ) ) ;
#540 = EDGE_LOOP ( 'NONE', ( #970, #768, #484, #894, #329 ) ) ;
#541 = DIRECTION ( 'NONE',  ( -0.000000000000000000, -0.000000000000000000, -1.000000000000000000 ) ) ;
#542 = SURFACE_STYLE_FILL_AREA ( #987 ) ;
#543 = CARTESIAN_POINT ( 'NONE',  ( -11.68500000000000050, 1.609365052918086292, 0.000000000000000000 ) ) ;
#544 = DIRECTION ( 'NONE',  ( 0.000000000000000000, 0.000000000000000000, -1.000000000000000000 ) ) ;
#545 = ORIENTED_EDGE ( 'NONE', *, *, #192, .F. ) ;
#546 = ADVANCED_FACE ( 'NONE', ( #278 ), #293, .T. ) ;
#547 = CYLINDRICAL_SURFACE ( 'NONE', #902, 0.2549999999999999489 ) ;
#548 = DIRECTION ( 'NONE',  ( 0.000000000000000000, 0.000000000000000000, 1.000000000000000000 ) ) ;
#549 = ORIENTED_EDGE ( 'NONE', *, *, #37, .F. ) ;
#550 = DIRECTION ( 'NONE',  ( -1.000000000000000000, 0.000000000000000000, 0.000000000000000000 ) ) ;
#551 = DIRECTION ( 'NONE',  ( -1.000000000000000000, 0.000000000000000000, 0.000000000000000000 ) ) ;
#552 =( NAMED_UNIT ( * ) PLANE_ANGLE_UNIT ( ) SI_UNIT ( $, .RADIAN. ) );
#553 = ORIENTED_EDGE ( 'NONE', *, *, #454, .F. ) ;
#554 = CIRCLE ( 'NONE', #720, 0.2550000000000000044 ) ;
#555 = SURFACE_STYLE_FILL_AREA ( #19 ) ;
#556 = VERTEX_POINT ( 'NONE', #1138 ) ;
#557 = STYLED_ITEM ( 'NONE', ( #1037 ), #1052 ) ;
#558 = CARTESIAN_POINT ( 'NONE',  ( -10.43000000000000149, 1.609365052918086292, 0.000000000000000000 ) ) ;
#559 = PRESENTATION_STYLE_ASSIGNMENT (( #282 ) ) ;
#560 = CARTESIAN_POINT ( 'NONE',  ( -3.556190395207061261, 2.609365052918086292, 0.000000000000000000 ) ) ;
#561 = ORIENTED_EDGE ( 'NONE', *, *, #891, .T. ) ;
#562 = PRESENTATION_STYLE_ASSIGNMENT (( #103 ) ) ;
#563 = CARTESIAN_POINT ( 'NONE',  ( 3.362617346942188501, 2.609365052918086292, 0.000000000000000000 ) ) ;
#564 = EDGE_CURVE ( 'NONE', #824, #84, #268, .T. ) ;
#565 = SURFACE_STYLE_FILL_AREA ( #644 ) ;
#566 = CARTESIAN_POINT ( 'NONE',  ( 11.43000000000000149, 1.609365052918086292, 0.000000000000000000 ) ) ;
#567 = APPLICATION_CONTEXT ( 'automotive_design' ) ;
#568 =( LENGTH_UNIT ( ) NAMED_UNIT ( * ) SI_UNIT ( .MILLI., .METRE. ) );
#569 = DIRECTION ( 'NONE',  ( -1.000000000000000000, 0.000000000000000000, 0.000000000000000000 ) ) ;
#570 = DIRECTION ( 'NONE',  ( 2.832769448823989808E-16, -1.000000000000000000, 0.000000000000000000 ) ) ;
#571 = FILL_AREA_STYLE_COLOUR ( '', #850 ) ;
#572 = ORIENTED_EDGE ( 'NONE', *, *, #994, .T. ) ;
#573 = ADVANCED_FACE ( 'NONE', ( #496 ), #324, .T. ) ;
#574 = DIRECTION ( 'NONE',  ( 0.000000000000000000, 0.000000000000000000, -1.000000000000000000 ) ) ;
#575 = AXIS2_PLACEMENT_3D ( 'NONE', #333, #224, #619 ) ;
#576 = AXIS2_PLACEMENT_3D ( 'NONE', #844, #296, #569 ) ;
#577 = AXIS2_PLACEMENT_3D ( 'NONE', #821, #729, #209 ) ;
#578 = SURFACE_SIDE_STYLE ('',( #210 ) ) ;
#579 =( GEOMETRIC_REPRESENTATION_CONTEXT ( 3 ) GLOBAL_UNCERTAINTY_ASSIGNED_CONTEXT ( ( #875 ) ) GLOBAL_UNIT_ASSIGNED_CONTEXT ( ( #1109, #416, #742 ) ) REPRESENTATION_CONTEXT ( 'NONE', 'WORKASPACE' ) );
#580 = ORIENTED_EDGE ( 'NONE', *, *, #858, .F. ) ;
#581 =( NAMED_UNIT ( * ) PLANE_ANGLE_UNIT ( ) SI_UNIT ( $, .RADIAN. ) );
#582 =( GEOMETRIC_REPRESENTATION_CONTEXT ( 3 ) GLOBAL_UNCERTAINTY_ASSIGNED_CONTEXT ( ( #782 ) ) GLOBAL_UNIT_ASSIGNED_CONTEXT ( ( #568, #658, #1133 ) ) REPRESENTATION_CONTEXT ( 'NONE', 'WORKASPACE' ) );
#583 =( NAMED_UNIT ( * ) SI_UNIT ( $, .STERADIAN. ) SOLID_ANGLE_UNIT ( ) );
#584 = EDGE_LOOP ( 'NONE', ( #1053, #691, #497, #261, #1156 ) ) ;
#585 = DIRECTION ( 'NONE',  ( -2.832769448823989808E-16, -1.000000000000000000, -0.000000000000000000 ) ) ;
#586 = SURFACE_STYLE_FILL_AREA ( #1031 ) ;
#587 = EDGE_CURVE ( 'NONE', #424, #84, #615, .T. ) ;
#588 = ORIENTED_EDGE ( 'NONE', *, *, #670, .F. ) ;
#589 = DIRECTION ( 'NONE',  ( 0.000000000000000000, 0.000000000000000000, 1.000000000000000000 ) ) ;
#590 = CARTESIAN_POINT ( 'NONE',  ( -11.43000000000000149, 1.609365052918086292, 0.000000000000000000 ) ) ;
#591 = ORIENTED_EDGE ( 'NONE', *, *, #807, .T. ) ;
#592 = SURFACE_STYLE_FILL_AREA ( #1040 ) ;
#593 = CIRCLE ( 'NONE', #78, 0.4047061138363226562 ) ;
#594 = CIRCLE ( 'NONE', #445, 0.2550000000000000044 ) ;
#595 = DIRECTION ( 'NONE',  ( 0.000000000000000000, -1.000000000000000000, 0.000000000000000000 ) ) ;
#596 = CIRCLE ( 'NONE', #801, 0.2549999999999999489 ) ;
#597 = SURFACE_STYLE_USAGE ( .BOTH. , #436 ) ;
#598 = AXIS2_PLACEMENT_3D ( 'NONE', #811, #804, #452 ) ;
#599 = PRESENTATION_LAYER_ASSIGNMENT (  '', '', ( #450 ) ) ;
#600 = CYLINDRICAL_SURFACE ( 'NONE', #505, 1.609365052918086292 ) ;
#601 = DIRECTION ( 'NONE',  ( -1.000000000000000000, -0.000000000000000000, -0.000000000000000000 ) ) ;
#602 = CARTESIAN_POINT ( 'NONE',  ( 3.362617346942188501, 2.609365052918086292, 0.000000000000000000 ) ) ;
#603 =( NAMED_UNIT ( * ) SI_UNIT ( $, .STERADIAN. ) SOLID_ANGLE_UNIT ( ) );
#604 = FILL_AREA_STYLE ('',( #788 ) ) ;
#605 = SURFACE_SIDE_STYLE ('',( #236 ) ) ;
#606 = ORIENTED_EDGE ( 'NONE', *, *, #110, .T. ) ;
#607 = CARTESIAN_POINT ( 'NONE',  ( -10.43000000000000149, 2.609365052918086292, 0.2549999999999999489 ) ) ;
#608 = EDGE_CURVE ( 'NONE', #935, #365, #907, .T. ) ;
#609 = FACE_OUTER_BOUND ( 'NONE', #438, .T. ) ;
#610 = PRESENTATION_LAYER_ASSIGNMENT (  '', '', ( #461 ) ) ;
#611 = DIRECTION ( 'NONE',  ( -1.000000000000000000, -0.000000000000000000, -0.000000000000000000 ) ) ;
#612 = CIRCLE ( 'NONE', #172, 0.2549999999999999489 ) ;
#613 = VECTOR ( 'NONE', #485, 1000.000000000000000 ) ;
#614 = COLOUR_RGB ( '',0.7529411764705882248, 0.7529411764705882248, 0.000000000000000000 ) ;
#615 = CIRCLE ( 'NONE', #248, 1.609365052918086070 ) ;
#616 = EDGE_LOOP ( 'NONE', ( #55, #1069, #561, #1153, #442 ) ) ;
#617 = AXIS2_PLACEMENT_3D ( 'NONE', #956, #154, #513 ) ;
#618 = FILL_AREA_STYLE_COLOUR ( '', #1145 ) ;
#619 = DIRECTION ( 'NONE',  ( 0.000000000000000000, 0.000000000000000000, -1.000000000000000000 ) ) ;
#620 = DIRECTION ( 'NONE',  ( 0.000000000000000000, 0.000000000000000000, 1.000000000000000000 ) ) ;
#621 = UNCERTAINTY_MEASURE_WITH_UNIT (LENGTH_MEASURE( 1.000000000000000082E-05 ), #993, 'distance_accuracy_value', 'NONE');
#622 = FILL_AREA_STYLE ('',( #459 ) ) ;
#623 = ADVANCED_BREP_SHAPE_REPRESENTATION ( 'Capacitor Ceramic No Polarity axial 22.86', ( #940, #906 ), #1046 ) ;
#624 = EDGE_CURVE ( 'NONE', #277, #301, #1015, .T. ) ;
#625 = CARTESIAN_POINT ( 'NONE',  ( -11.43000000000000149, 1.609365052918086292, -0.2549999999999999489 ) ) ;
#626 = DIRECTION ( 'NONE',  ( -1.000000000000000000, -0.000000000000000000, -0.000000000000000000 ) ) ;
#627 = DIRECTION ( 'NONE',  ( 0.000000000000000000, 0.000000000000000000, -1.000000000000000000 ) ) ;
#628 = DIRECTION ( 'NONE',  ( 0.000000000000000000, 0.000000000000000000, 1.000000000000000000 ) ) ;
#629 = VERTEX_POINT ( 'NONE', #1111 ) ;
#630 = DIRECTION ( 'NONE',  ( 2.832769448823989808E-16, -1.000000000000000000, 0.000000000000000000 ) ) ;
#631 = PRESENTATION_LAYER_ASSIGNMENT (  '', '', ( #499 ) ) ;
#632 = ORIENTED_EDGE ( 'NONE', *, *, #891, .F. ) ;
#633 = DIRECTION ( 'NONE',  ( 0.000000000000000000, 0.000000000000000000, 1.000000000000000000 ) ) ;
#634 = VECTOR ( 'NONE', #514, 1000.000000000000000 ) ;
#635 = MECHANICAL_DESIGN_GEOMETRIC_PRESENTATION_REPRESENTATION (  '', ( #482 ), #903 ) ;
#636 = ORIENTED_EDGE ( 'NONE', *, *, #1067, .F. ) ;
#637 = SURFACE_STYLE_FILL_AREA ( #187 ) ;
#638 =( NAMED_UNIT ( * ) PLANE_ANGLE_UNIT ( ) SI_UNIT ( $, .RADIAN. ) );
#639 = DIRECTION ( 'NONE',  ( 0.000000000000000000, 0.000000000000000000, 1.000000000000000000 ) ) ;
#640 = EDGE_CURVE ( 'NONE', #806, #728, #1058, .T. ) ;
#641 = CARTESIAN_POINT ( 'NONE',  ( 11.43000000000000149, 1.609365052918086292, 0.000000000000000000 ) ) ;
#642 = DIRECTION ( 'NONE',  ( 1.000000000000000000, 0.000000000000000000, 0.000000000000000000 ) ) ;
#643 = SURFACE_SIDE_STYLE ('',( #724 ) ) ;
#644 = FILL_AREA_STYLE ('',( #1011 ) ) ;
#645 = ORIENTED_EDGE ( 'NONE', *, *, #156, .F. ) ;
#646 = EDGE_LOOP ( 'NONE', ( #532, #311, #13, #304, #664 ) ) ;
#647 = FACE_OUTER_BOUND ( 'NONE', #481, .T. ) ;
#648 = CARTESIAN_POINT ( 'NONE',  ( -3.556190395207061261, 2.609365052918086292, 0.2550000000000000044 ) ) ;
#649 = CIRCLE ( 'NONE', #781, 0.2549999999999999489 ) ;
#650 = AXIS2_PLACEMENT_3D ( 'NONE', #1151, #886, #808 ) ;
#651 = CIRCLE ( 'NONE', #136, 0.2549999999999999489 ) ;
#652 = CIRCLE ( 'NONE', #698, 1.254999999999999227 ) ;
#653 = SURFACE_SIDE_STYLE ('',( #555 ) ) ;
#654 = AXIS2_PLACEMENT_3D ( 'NONE', #1131, #933, #402 ) ;
#655 = MECHANICAL_DESIGN_GEOMETRIC_PRESENTATION_REPRESENTATION (  '', ( #48 ), #962 ) ;
#656 = CARTESIAN_POINT ( 'NONE',  ( 3.362617346942188501, 2.609365052918086292, -0.4047061138363206023 ) ) ;
#657 = DIRECTION ( 'NONE',  ( 0.000000000000000000, 0.000000000000000000, -1.000000000000000000 ) ) ;
#658 =( NAMED_UNIT ( * ) PLANE_ANGLE_UNIT ( ) SI_UNIT ( $, .RADIAN. ) );
#659 = DIRECTION ( 'NONE',  ( 0.000000000000000000, -1.000000000000000000, 0.000000000000000000 ) ) ;
#660 = LINE ( 'NONE', #1017, #613 ) ;
#661 = CARTESIAN_POINT ( 'NONE',  ( -3.362617346942187613, 2.609365052918086292, -0.4047061138363221011 ) ) ;
#662 = DIRECTION ( 'NONE',  ( 2.832769448823989808E-16, -1.000000000000000000, 0.000000000000000000 ) ) ;
#663 = ORIENTED_EDGE ( 'NONE', *, *, #640, .T. ) ;
#664 = ORIENTED_EDGE ( 'NONE', *, *, #232, .F. ) ;
#665 = ORIENTED_EDGE ( 'NONE', *, *, #432, .T. ) ;
#666 = SURFACE_STYLE_USAGE ( .BOTH. , #1075 ) ;
#667 =( NAMED_UNIT ( * ) PLANE_ANGLE_UNIT ( ) SI_UNIT ( $, .RADIAN. ) );
#668 = AXIS2_PLACEMENT_3D ( 'NONE', #347, #10, #15 ) ;
#669 = FACE_OUTER_BOUND ( 'NONE', #512, .T. ) ;
#670 = EDGE_CURVE ( 'NONE', #391, #751, #483, .T. ) ;
#671 = DIRECTION ( 'NONE',  ( 0.000000000000000000, 0.000000000000000000, -1.000000000000000000 ) ) ;
#672 = DIRECTION ( 'NONE',  ( 0.000000000000000000, 0.000000000000000000, -1.000000000000000000 ) ) ;
#673 = SURFACE_STYLE_USAGE ( .BOTH. , #520 ) ;
#674 = FACE_OUTER_BOUND ( 'NONE', #524, .T. ) ;
#675 = CARTESIAN_POINT ( 'NONE',  ( -10.43000000000000149, 2.864365052918086185, 0.000000000000000000 ) ) ;
#676 = ORIENTED_EDGE ( 'NONE', *, *, #1074, .F. ) ;
#677 = PRESENTATION_LAYER_ASSIGNMENT (  '', '', ( #1041 ) ) ;
#678 = DIRECTION ( 'NONE',  ( 0.000000000000000000, 0.000000000000000000, 1.000000000000000000 ) ) ;
#679 = UNCERTAINTY_MEASURE_WITH_UNIT (LENGTH_MEASURE( 1.000000000000000082E-05 ), #841, 'distance_accuracy_value', 'NONE');
#680 = AXIS2_PLACEMENT_3D ( 'NONE', #867, #242, #58 ) ;
#681 = PRESENTATION_STYLE_ASSIGNMENT (( #331 ) ) ;
#682 = MECHANICAL_DESIGN_GEOMETRIC_PRESENTATION_REPRESENTATION (  '', ( #557 ), #59 ) ;
#683 = PRESENTATION_LAYER_ASSIGNMENT (  '', '', ( #947 ) ) ;
#684 = PRESENTATION_LAYER_ASSIGNMENT (  '', '', ( #1059 ) ) ;
#685 = DIRECTION ( 'NONE',  ( 0.000000000000000000, -1.224646799147353207E-16, 1.000000000000000000 ) ) ;
#686 = ORIENTED_EDGE ( 'NONE', *, *, #454, .T. ) ;
#687 = CYLINDRICAL_SURFACE ( 'NONE', #135, 0.2549999999999999489 ) ;
#688 = PRESENTATION_STYLE_ASSIGNMENT (( #951 ) ) ;
#689 = ADVANCED_FACE ( 'NONE', ( #733 ), #984, .F. ) ;
#690 = PRESENTATION_STYLE_ASSIGNMENT (( #66 ) ) ;
#691 = ORIENTED_EDGE ( 'NONE', *, *, #6, .T. ) ;
#692 = CARTESIAN_POINT ( 'NONE',  ( 1.804968851620623482, 1.000000000000000000, 0.000000000000000000 ) ) ;
#693 = FILL_AREA_STYLE ('',( #974 ) ) ;
#694 = ORIENTED_EDGE ( 'NONE', *, *, #239, .F. ) ;
#695 = SURFACE_SIDE_STYLE ('',( #1136 ) ) ;
#696 = CIRCLE ( 'NONE', #1125, 0.4047061138363222121 ) ;
#697 = TOROIDAL_SURFACE ( 'NONE', #721, 0.4550000000000005151, 0.2000000000000004829 ) ;
#698 = AXIS2_PLACEMENT_3D ( 'NONE', #1154, #880, #550 ) ;
#699 = PRESENTATION_LAYER_ASSIGNMENT (  '', '', ( #97 ) ) ;
#700 = ADVANCED_FACE ( 'NONE', ( #755 ), #488, .T. ) ;
#701 = PRESENTATION_LAYER_ASSIGNMENT (  '', '', ( #120 ) ) ;
#702 = AXIS2_PLACEMENT_3D ( 'NONE', #475, #770, #657 ) ;
#703 = FILL_AREA_STYLE ('',( #893 ) ) ;
#704 = SURFACE_SIDE_STYLE ('',( #1141 ) ) ;
#705 = DIRECTION ( 'NONE',  ( 0.000000000000000000, 0.000000000000000000, -1.000000000000000000 ) ) ;
#706 = UNCERTAINTY_MEASURE_WITH_UNIT (LENGTH_MEASURE( 1.000000000000000082E-05 ), #835, 'distance_accuracy_value', 'NONE');
#707 = EDGE_LOOP ( 'NONE', ( #709, #1137, #968, #985, #783 ) ) ;
#708 = LINE ( 'NONE', #360, #50 ) ;
#709 = ORIENTED_EDGE ( 'NONE', *, *, #335, .F. ) ;
#710 = DIRECTION ( 'NONE',  ( 0.000000000000000000, -1.000000000000000000, 0.000000000000000000 ) ) ;
#711 = ORIENTED_EDGE ( 'NONE', *, *, #870, .F. ) ;
#712 =( NAMED_UNIT ( * ) PLANE_ANGLE_UNIT ( ) SI_UNIT ( $, .RADIAN. ) );
#713 = DIRECTION ( 'NONE',  ( 1.000000000000000000, 0.000000000000000000, 0.000000000000000000 ) ) ;
#714 = DIRECTION ( 'NONE',  ( -1.000000000000000000, -0.000000000000000000, -0.000000000000000000 ) ) ;
#715 = FILL_AREA_STYLE_COLOUR ( '', #866 ) ;
#716 = UNCERTAINTY_MEASURE_WITH_UNIT (LENGTH_MEASURE( 1.000000000000000082E-05 ), #182, 'distance_accuracy_value', 'NONE');
#717 = EDGE_CURVE ( 'NONE', #824, #751, #306, .T. ) ;
#718 = CARTESIAN_POINT ( 'NONE',  ( 10.43000000000000149, 2.609365052918086292, -0.2549999999999999489 ) ) ;
#719 = VERTEX_POINT ( 'NONE', #414 ) ;
#720 = AXIS2_PLACEMENT_3D ( 'NONE', #94, #626, #457 ) ;
#721 = AXIS2_PLACEMENT_3D ( 'NONE', #364, #191, #628 ) ;
#722 = CARTESIAN_POINT ( 'NONE',  ( 11.43000000000000149, -3.000000000000000000, 0.2549999999999999489 ) ) ;
#723 = VERTEX_POINT ( 'NONE', #675 ) ;
#724 = SURFACE_STYLE_FILL_AREA ( #257 ) ;
#725 = FACE_OUTER_BOUND ( 'NONE', #1064, .T. ) ;
#726 = DIRECTION ( 'NONE',  ( 0.000000000000000000, -1.000000000000000000, 0.000000000000000000 ) ) ;
#727 = SURFACE_SIDE_STYLE ('',( #1157 ) ) ;
#728 = VERTEX_POINT ( 'NONE', #787 ) ;
#729 = DIRECTION ( 'NONE',  ( -0.000000000000000000, -0.000000000000000000, -1.000000000000000000 ) ) ;
#730 = DIRECTION ( 'NONE',  ( 0.000000000000000000, 0.000000000000000000, 1.000000000000000000 ) ) ;
#731 = EDGE_CURVE ( 'NONE', #953, #74, #215, .T. ) ;
#732 = CARTESIAN_POINT ( 'NONE',  ( 11.43000000000000149, 1.609365052918086292, -0.2549999999999999489 ) ) ;
#733 = FACE_OUTER_BOUND ( 'NONE', #427, .T. ) ;
#734 = SURFACE_STYLE_FILL_AREA ( #998 ) ;
#735 = DIRECTION ( 'NONE',  ( 2.832769448823989808E-16, -1.000000000000000000, 0.000000000000000000 ) ) ;
#736 = FILL_AREA_STYLE_COLOUR ( '', #967 ) ;
#737 = CIRCLE ( 'NONE', #879, 1.609365052918086070 ) ;
#738 = CIRCLE ( 'NONE', #531, 0.4047061138363226562 ) ;
#739 = EDGE_CURVE ( 'NONE', #723, #1080, #292, .T. ) ;
#740 = STYLED_ITEM ( 'NONE', ( #486 ), #862 ) ;
#741 = DIRECTION ( 'NONE',  ( -1.000000000000000000, -0.000000000000000000, -0.000000000000000000 ) ) ;
#742 =( NAMED_UNIT ( * ) SI_UNIT ( $, .STERADIAN. ) SOLID_ANGLE_UNIT ( ) );
#743 = DIRECTION ( 'NONE',  ( 2.832769448823989808E-16, -1.000000000000000000, 0.000000000000000000 ) ) ;
#744 = DIRECTION ( 'NONE',  ( 1.000000000000000000, 0.000000000000000000, 0.000000000000000000 ) ) ;
#745 = CARTESIAN_POINT ( 'NONE',  ( 10.43000000000000149, 2.609365052918086292, -0.2549999999999999489 ) ) ;
#746 = CARTESIAN_POINT ( 'NONE',  ( -1.804968851620623482, 4.218730105836172584, 1.970903760715744989E-16 ) ) ;
#747 = ORIENTED_EDGE ( 'NONE', *, *, #958, .F. ) ;
#748 = ADVANCED_FACE ( 'NONE', ( #27 ), #325, .T. ) ;
#749 = ORIENTED_EDGE ( 'NONE', *, *, #1067, .T. ) ;
#750 = DIRECTION ( 'NONE',  ( -1.000000000000000000, -0.000000000000000000, -0.000000000000000000 ) ) ;
#751 = VERTEX_POINT ( 'NONE', #321 ) ;
#752 = DIRECTION ( 'NONE',  ( 0.000000000000000000, 0.000000000000000000, -1.000000000000000000 ) ) ;
#753 = CARTESIAN_POINT ( 'NONE',  ( -1.804968851620623482, 2.609365052918086292, 1.609365052918086292 ) ) ;
#754 =( LENGTH_UNIT ( ) NAMED_UNIT ( * ) SI_UNIT ( .MILLI., .METRE. ) );
#755 = FACE_OUTER_BOUND ( 'NONE', #1087, .T. ) ;
#756 = DIRECTION ( 'NONE',  ( 0.000000000000000000, 0.000000000000000000, 1.000000000000000000 ) ) ;
#757 = DIRECTION ( 'NONE',  ( 0.000000000000000000, 0.000000000000000000, -1.000000000000000000 ) ) ;
#758 = EDGE_CURVE ( 'NONE', #888, #391, #199, .T. ) ;
#759 =( NAMED_UNIT ( * ) PLANE_ANGLE_UNIT ( ) SI_UNIT ( $, .RADIAN. ) );
#760 = SURFACE_STYLE_USAGE ( .BOTH. , #410 ) ;
#761 = DIRECTION ( 'NONE',  ( 0.000000000000000000, 0.000000000000000000, 1.000000000000000000 ) ) ;
#762 =( GEOMETRIC_REPRESENTATION_CONTEXT ( 3 ) GLOBAL_UNCERTAINTY_ASSIGNED_CONTEXT ( ( #854 ) ) GLOBAL_UNIT_ASSIGNED_CONTEXT ( ( #853, #342, #774 ) ) REPRESENTATION_CONTEXT ( 'NONE', 'WORKASPACE' ) );
#763 = DIRECTION ( 'NONE',  ( -1.000000000000000000, -0.000000000000000000, -0.000000000000000000 ) ) ;
#764 = SURFACE_SIDE_STYLE ('',( #43 ) ) ;
#765 = CIRCLE ( 'NONE', #405, 0.2549999999999999489 ) ;
#766 = COLOUR_RGB ( '',0.8980392156862745390, 0.9176470588235293713, 0.9294117647058823817 ) ;
#767 = AXIS2_PLACEMENT_3D ( 'NONE', #202, #9, #825 ) ;
#768 = ORIENTED_EDGE ( 'NONE', *, *, #340, .T. ) ;
#769 = EDGE_LOOP ( 'NONE', ( #822, #177, #663, #545, #747 ) ) ;
#770 = DIRECTION ( 'NONE',  ( 1.000000000000000000, -0.000000000000000000, -0.000000000000000000 ) ) ;
#771 = STYLED_ITEM ( 'NONE', ( #101 ), #700 ) ;
#772 = DIRECTION ( 'NONE',  ( -1.000000000000000000, -0.000000000000000000, -0.000000000000000000 ) ) ;
#773 = ADVANCED_FACE ( 'NONE', ( #669 ), #600, .T. ) ;
#774 =( NAMED_UNIT ( * ) SI_UNIT ( $, .STERADIAN. ) SOLID_ANGLE_UNIT ( ) );
#775 = LINE ( 'NONE', #957, #634 ) ;
#776 = SURFACE_SIDE_STYLE ('',( #950 ) ) ;
#777 = SURFACE_STYLE_USAGE ( .BOTH. , #939 ) ;
#778 = EDGE_CURVE ( 'NONE', #365, #301, #431, .T. ) ;
#779 = DIRECTION ( 'NONE',  ( -1.000000000000000000, -0.000000000000000000, -0.000000000000000000 ) ) ;
#780 = DIRECTION ( 'NONE',  ( 0.000000000000000000, -1.000000000000000000, -1.224646799147353207E-16 ) ) ;
#781 = AXIS2_PLACEMENT_3D ( 'NONE', #284, #662, #403 ) ;
#782 = UNCERTAINTY_MEASURE_WITH_UNIT (LENGTH_MEASURE( 1.000000000000000082E-05 ), #568, 'distance_accuracy_value', 'NONE');
#783 = ORIENTED_EDGE ( 'NONE', *, *, #239, .T. ) ;
#784 = CIRCLE ( 'NONE', #1060, 0.4047061138363222121 ) ;
#785 = COLOUR_RGB ( '',0.8980392156862745390, 0.9176470588235293713, 0.9294117647058823817 ) ;
#786 = CARTESIAN_POINT ( 'NONE',  ( -10.43000000000000149, 2.609365052918086292, 0.000000000000000000 ) ) ;
#787 = CARTESIAN_POINT ( 'NONE',  ( -11.43000000000000149, -3.000000000000000000, -0.2549999999999999489 ) ) ;
#788 = FILL_AREA_STYLE_COLOUR ( '', #307 ) ;
#789 = ORIENTED_EDGE ( 'NONE', *, *, #110, .F. ) ;
#790 = CARTESIAN_POINT ( 'NONE',  ( -3.362617346942187613, 2.204658939081764135, 0.000000000000000000 ) ) ;
#791 = FACE_OUTER_BOUND ( 'NONE', #490, .T. ) ;
#792 = ORIENTED_EDGE ( 'NONE', *, *, #758, .T. ) ;
#793 = DIRECTION ( 'NONE',  ( 0.000000000000000000, 0.000000000000000000, -1.000000000000000000 ) ) ;
#794 = EDGE_CURVE ( 'NONE', #719, #888, #800, .T. ) ;
#795 = ORIENTED_EDGE ( 'NONE', *, *, #68, .T. ) ;
#796 = ORIENTED_EDGE ( 'NONE', *, *, #340, .F. ) ;
#797 = AXIS2_PLACEMENT_3D ( 'NONE', #1108, #934, #837 ) ;
#798 = AXIS2_PLACEMENT_3D ( 'NONE', #786, #161, #132 ) ;
#799 = AXIS2_PLACEMENT_3D ( 'NONE', #563, #404, #589 ) ;
#800 = CIRCLE ( 'NONE', #1079, 1.609365052918086292 ) ;
#801 = AXIS2_PLACEMENT_3D ( 'NONE', #566, #1094, #1013 ) ;
#802 =( NAMED_UNIT ( * ) SI_UNIT ( $, .STERADIAN. ) SOLID_ANGLE_UNIT ( ) );
#803 = CARTESIAN_POINT ( 'NONE',  ( -10.09675116564010722, 2.609365052918086292, 1.609365052918086292 ) ) ;
#804 = DIRECTION ( 'NONE',  ( 0.000000000000000000, -1.224646799147353207E-16, 1.000000000000000000 ) ) ;
#805 = SURFACE_STYLE_USAGE ( .BOTH. , #453 ) ;
#806 = VERTEX_POINT ( 'NONE', #240 ) ;
#807 = EDGE_CURVE ( 'NONE', #501, #556, #949, .T. ) ;
#808 = DIRECTION ( 'NONE',  ( 0.000000000000000000, 0.000000000000000000, -1.000000000000000000 ) ) ;
#809 = CARTESIAN_POINT ( 'NONE',  ( 11.43000000000000149, 1.609365052918086292, 0.2549999999999999489 ) ) ;
#810 = ORIENTED_EDGE ( 'NONE', *, *, #303, .F. ) ;
#811 = CARTESIAN_POINT ( 'NONE',  ( -1.804968851620622594, 2.609365052918086292, 0.000000000000000000 ) ) ;
#812 = AXIS2_PLACEMENT_3D ( 'NONE', #20, #1039, #421 ) ;
#813 = CARTESIAN_POINT ( 'NONE',  ( 11.43000000000000149, 1.609365052918086292, 0.000000000000000000 ) ) ;
#814 = PRESENTATION_LAYER_ASSIGNMENT (  '', '', ( #193 ) ) ;
#815 = ORIENTED_EDGE ( 'NONE', *, *, #156, .T. ) ;
#816 = ORIENTED_EDGE ( 'NONE', *, *, #717, .T. ) ;
#817 = AXIS2_PLACEMENT_3D ( 'NONE', #1072, #895, #7 ) ;
#818 = TOROIDAL_SURFACE ( 'NONE', #1078, 0.4550000000000005151, 0.2000000000000004829 ) ;
#819 = CIRCLE ( 'NONE', #926, 0.7449999999999991074 ) ;
#820 = DIRECTION ( 'NONE',  ( 0.000000000000000000, 0.000000000000000000, 1.000000000000000000 ) ) ;
#821 = CARTESIAN_POINT ( 'NONE',  ( 10.43000000000000149, 1.609365052918086292, 0.000000000000000000 ) ) ;
#822 = ORIENTED_EDGE ( 'NONE', *, *, #1113, .F. ) ;
#823 = DIRECTION ( 'NONE',  ( -0.000000000000000000, 0.000000000000000000, 1.000000000000000000 ) ) ;
#824 = VERTEX_POINT ( 'NONE', #873 ) ;
#825 = DIRECTION ( 'NONE',  ( 0.000000000000000000, 0.000000000000000000, -1.000000000000000000 ) ) ;
#826 = ADVANCED_FACE ( 'NONE', ( #869 ), #130, .T. ) ;
#827 = DIRECTION ( 'NONE',  ( 0.000000000000000000, -1.000000000000000000, 0.000000000000000000 ) ) ;
#828 = DIRECTION ( 'NONE',  ( 0.000000000000000000, 0.000000000000000000, 1.000000000000000000 ) ) ;
#829 = FILL_AREA_STYLE_COLOUR ( '', #982 ) ;
#830 = CIRCLE ( 'NONE', #576, 1.609365052918086292 ) ;
#831 = CIRCLE ( 'NONE', #1126, 1.609365052918086292 ) ;
#832 = MECHANICAL_DESIGN_GEOMETRIC_PRESENTATION_REPRESENTATION (  '', ( #1059 ), #582 ) ;
#833 = DIRECTION ( 'NONE',  ( -1.000000000000000000, 0.000000000000000000, 0.000000000000000000 ) ) ;
#834 = DIRECTION ( 'NONE',  ( 1.000000000000000000, 0.000000000000000000, 0.000000000000000000 ) ) ;
#835 =( LENGTH_UNIT ( ) NAMED_UNIT ( * ) SI_UNIT ( .MILLI., .METRE. ) );
#836 = SURFACE_STYLE_FILL_AREA ( #904 ) ;
#837 = DIRECTION ( 'NONE',  ( 0.000000000000000000, 0.000000000000000000, -1.000000000000000000 ) ) ;
#838 = ADVANCED_FACE ( 'NONE', ( #493 ), #297, .T. ) ;
#839 =( LENGTH_UNIT ( ) NAMED_UNIT ( * ) SI_UNIT ( .MILLI., .METRE. ) );
#840 = CARTESIAN_POINT ( 'NONE',  ( 0.000000000000000000, 0.000000000000000000, 0.000000000000000000 ) ) ;
#841 =( LENGTH_UNIT ( ) NAMED_UNIT ( * ) SI_UNIT ( .MILLI., .METRE. ) );
#842 = ORIENTED_EDGE ( 'NONE', *, *, #739, .F. ) ;
#843 = DIRECTION ( 'NONE',  ( -1.000000000000000000, -0.000000000000000000, -0.000000000000000000 ) ) ;
#844 = CARTESIAN_POINT ( 'NONE',  ( -1.804968851620622594, 2.609365052918086292, 0.000000000000000000 ) ) ;
#845 = CARTESIAN_POINT ( 'NONE',  ( 10.43000000000000149, 2.609365052918086292, 0.000000000000000000 ) ) ;
#846 = CARTESIAN_POINT ( 'NONE',  ( 10.43000000000000149, 2.609365052918086292, 0.000000000000000000 ) ) ;
#847 = FILL_AREA_STYLE_COLOUR ( '', #908 ) ;
#848 = MECHANICAL_DESIGN_GEOMETRIC_PRESENTATION_REPRESENTATION (  '', ( #461 ), #762 ) ;
#849 =( GEOMETRIC_REPRESENTATION_CONTEXT ( 3 ) GLOBAL_UNCERTAINTY_ASSIGNED_CONTEXT ( ( #255 ) ) GLOBAL_UNIT_ASSIGNED_CONTEXT ( ( #2, #712, #181 ) ) REPRESENTATION_CONTEXT ( 'NONE', 'WORKASPACE' ) );
#850 = COLOUR_RGB ( '',0.7529411764705882248, 0.7529411764705882248, 0.000000000000000000 ) ;
#851 = MECHANICAL_DESIGN_GEOMETRIC_PRESENTATION_REPRESENTATION (  '', ( #120 ), #139 ) ;
#852 = TOROIDAL_SURFACE ( 'NONE', #1010, 1.000000000000000000, 0.2549999999999999489 ) ;
#853 =( LENGTH_UNIT ( ) NAMED_UNIT ( * ) SI_UNIT ( .MILLI., .METRE. ) );
#854 = UNCERTAINTY_MEASURE_WITH_UNIT (LENGTH_MEASURE( 1.000000000000000082E-05 ), #853, 'distance_accuracy_value', 'NONE');
#855 = DIRECTION ( 'NONE',  ( 0.000000000000000000, 0.000000000000000000, -1.000000000000000000 ) ) ;
#856 = DIRECTION ( 'NONE',  ( 0.000000000000000000, 0.000000000000000000, -1.000000000000000000 ) ) ;
#857 = DIRECTION ( 'NONE',  ( -1.000000000000000000, -0.000000000000000000, -0.000000000000000000 ) ) ;
#858 = EDGE_CURVE ( 'NONE', #277, #17, #923, .T. ) ;
#859 = CARTESIAN_POINT ( 'NONE',  ( 10.43000000000000149, 2.864365052918086185, 0.000000000000000000 ) ) ;
#860 = ORIENTED_EDGE ( 'NONE', *, *, #1099, .T. ) ;
#861 = CYLINDRICAL_SURFACE ( 'NONE', #350, 0.2549999999999999489 ) ;
#862 = ADVANCED_FACE ( 'NONE', ( #992 ), #1023, .T. ) ;
#863 = TOROIDAL_SURFACE ( 'NONE', #1025, 1.000000000000000000, 0.2549999999999999489 ) ;
#864 = CARTESIAN_POINT ( 'NONE',  ( -1.804968851620623482, 2.609365052918086292, 0.000000000000000000 ) ) ;
#865 = AXIS2_PLACEMENT_3D ( 'NONE', #75, #443, #793 ) ;
#866 = COLOUR_RGB ( '',0.7529411764705882248, 0.7529411764705882248, 0.000000000000000000 ) ;
#867 = CARTESIAN_POINT ( 'NONE',  ( -11.43000000000000149, -3.000000000000000000, 0.000000000000000000 ) ) ;
#868 = PRESENTATION_LAYER_ASSIGNMENT (  '', '', ( #771 ) ) ;
#869 = FACE_OUTER_BOUND ( 'NONE', #769, .T. ) ;
#870 = EDGE_CURVE ( 'NONE', #129, #208, #596, .T. ) ;
#871 = ORIENTED_EDGE ( 'NONE', *, *, #640, .F. ) ;
#872 =( NAMED_UNIT ( * ) SI_UNIT ( $, .STERADIAN. ) SOLID_ANGLE_UNIT ( ) );
#873 = CARTESIAN_POINT ( 'NONE',  ( 1.804968851620623482, 2.609365052918086292, -1.609365052918086292 ) ) ;
#874 = DIRECTION ( 'NONE',  ( -1.000000000000000000, -0.000000000000000000, -0.000000000000000000 ) ) ;
#875 = UNCERTAINTY_MEASURE_WITH_UNIT (LENGTH_MEASURE( 1.000000000000000082E-05 ), #1109, 'distance_accuracy_value', 'NONE');
#876 = ORIENTED_EDGE ( 'NONE', *, *, #6, .F. ) ;
#877 = VERTEX_POINT ( 'NONE', #661 ) ;
#878 = DIRECTION ( 'NONE',  ( 0.000000000000000000, 0.000000000000000000, 1.000000000000000000 ) ) ;
#879 = AXIS2_PLACEMENT_3D ( 'NONE', #61, #685, #780 ) ;
#880 = DIRECTION ( 'NONE',  ( -0.000000000000000000, -0.000000000000000000, -1.000000000000000000 ) ) ;
#881 =( GEOMETRIC_REPRESENTATION_CONTEXT ( 3 ) GLOBAL_UNCERTAINTY_ASSIGNED_CONTEXT ( ( #344 ) ) GLOBAL_UNIT_ASSIGNED_CONTEXT ( ( #1116, #916, #190 ) ) REPRESENTATION_CONTEXT ( 'NONE', 'WORKASPACE' ) );
#882 = ADVANCED_FACE ( 'NONE', ( #203 ), #852, .T. ) ;
#883 = AXIS2_PLACEMENT_3D ( 'NONE', #275, #570, #1100 ) ;
#884 = VERTEX_POINT ( 'NONE', #281 ) ;
#885 = CARTESIAN_POINT ( 'NONE',  ( 3.556190395207061261, 2.609365052918086292, 0.000000000000000000 ) ) ;
#886 = DIRECTION ( 'NONE',  ( 1.000000000000000000, 0.000000000000000000, 0.000000000000000000 ) ) ;
#887 = UNCERTAINTY_MEASURE_WITH_UNIT (LENGTH_MEASURE( 1.000000000000000082E-05 ), #363, 'distance_accuracy_value', 'NONE');
#888 = VERTEX_POINT ( 'NONE', #753 ) ;
#889 = FACE_OUTER_BOUND ( 'NONE', #186, .T. ) ;
#890 = DIRECTION ( 'NONE',  ( -1.000000000000000000, -0.000000000000000000, -0.000000000000000000 ) ) ;
#891 = EDGE_CURVE ( 'NONE', #362, #129, #612, .T. ) ;
#892 = ORIENTED_EDGE ( 'NONE', *, *, #1147, .T. ) ;
#893 = FILL_AREA_STYLE_COLOUR ( '', #243 ) ;
#894 = ORIENTED_EDGE ( 'NONE', *, *, #1147, .F. ) ;
#895 = DIRECTION ( 'NONE',  ( 0.000000000000000000, 0.000000000000000000, 1.000000000000000000 ) ) ;
#896 = CARTESIAN_POINT ( 'NONE',  ( 11.43000000000000149, 1.609365052918086292, 0.000000000000000000 ) ) ;
#897 = VERTEX_POINT ( 'NONE', #648 ) ;
#898 = VERTEX_POINT ( 'NONE', #932 ) ;
#899 = ORIENTED_EDGE ( 'NONE', *, *, #398, .T. ) ;
#900 = ORIENTED_EDGE ( 'NONE', *, *, #377, .T. ) ;
#901 = CARTESIAN_POINT ( 'NONE',  ( -10.43000000000000149, 2.609365052918086292, 0.000000000000000000 ) ) ;
#902 = AXIS2_PLACEMENT_3D ( 'NONE', #641, #710, #1088 ) ;
#903 =( GEOMETRIC_REPRESENTATION_CONTEXT ( 3 ) GLOBAL_UNCERTAINTY_ASSIGNED_CONTEXT ( ( #422 ) ) GLOBAL_UNIT_ASSIGNED_CONTEXT ( ( #491, #667, #399 ) ) REPRESENTATION_CONTEXT ( 'NONE', 'WORKASPACE' ) );
#904 = FILL_AREA_STYLE ('',( #736 ) ) ;
#905 = VERTEX_POINT ( 'NONE', #22 ) ;
#906 = AXIS2_PLACEMENT_3D ( 'NONE', #840, #756, #744 ) ;
#907 = CIRCLE ( 'NONE', #799, 0.4047061138363226562 ) ;
#908 = COLOUR_RGB ( '',0.7529411764705882248, 0.7529411764705882248, 0.000000000000000000 ) ;
#909 = CARTESIAN_POINT ( 'NONE',  ( -10.43000000000000149, 1.609365052918086292, 0.000000000000000000 ) ) ;
#910 =( GEOMETRIC_REPRESENTATION_CONTEXT ( 3 ) GLOBAL_UNCERTAINTY_ASSIGNED_CONTEXT ( ( #233 ) ) GLOBAL_UNIT_ASSIGNED_CONTEXT ( ( #915, #198, #872 ) ) REPRESENTATION_CONTEXT ( 'NONE', 'WORKASPACE' ) );
#911 = SURFACE_STYLE_USAGE ( .BOTH. , #653 ) ;
#912 = EDGE_CURVE ( 'NONE', #225, #122, #35, .T. ) ;
#913 = ORIENTED_EDGE ( 'NONE', *, *, #419, .T. ) ;
#914 = CARTESIAN_POINT ( 'NONE',  ( -3.556190395207061261, 2.609365052918086292, -0.4550000000000005151 ) ) ;
#915 =( LENGTH_UNIT ( ) NAMED_UNIT ( * ) SI_UNIT ( .MILLI., .METRE. ) );
#916 =( NAMED_UNIT ( * ) PLANE_ANGLE_UNIT ( ) SI_UNIT ( $, .RADIAN. ) );
#917 = DIRECTION ( 'NONE',  ( -1.000000000000000000, -0.000000000000000000, -0.000000000000000000 ) ) ;
#918 = CARTESIAN_POINT ( 'NONE',  ( 11.43000000000000149, -3.000000000000000000, -0.2549999999999999489 ) ) ;
#919 =( NAMED_UNIT ( * ) SI_UNIT ( $, .STERADIAN. ) SOLID_ANGLE_UNIT ( ) );
#920 = CIRCLE ( 'NONE', #575, 0.2549999999999999489 ) ;
#921 = EDGE_CURVE ( 'NONE', #629, #277, #502, .T. ) ;
#922 = COLOUR_RGB ( '',0.8980392156862745390, 0.9176470588235293713, 0.9294117647058823817 ) ;
#923 = CIRCLE ( 'NONE', #650, 0.2549999999999999489 ) ;
#924 = AXIS2_PLACEMENT_3D ( 'NONE', #813, #105, #474 ) ;
#925 = CARTESIAN_POINT ( 'NONE',  ( 3.362617346942188501, 2.609365052918086292, 0.4047061138363206023 ) ) ;
#926 = AXIS2_PLACEMENT_3D ( 'NONE', #456, #541, #87 ) ;
#927 = ORIENTED_EDGE ( 'NONE', *, *, #127, .T. ) ;
#928 = STYLED_ITEM ( 'NONE', ( #217 ), #773 ) ;
#929 =( NAMED_UNIT ( * ) SI_UNIT ( $, .STERADIAN. ) SOLID_ANGLE_UNIT ( ) );
#930 =( NAMED_UNIT ( * ) PLANE_ANGLE_UNIT ( ) SI_UNIT ( $, .RADIAN. ) );
#931 = DIRECTION ( 'NONE',  ( 2.832769448823989808E-16, 1.000000000000000000, -0.000000000000000000 ) ) ;
#932 = CARTESIAN_POINT ( 'NONE',  ( -3.556190395207061261, 2.609365052918086292, -0.2550000000000000044 ) ) ;
#933 = DIRECTION ( 'NONE',  ( -1.000000000000000000, -0.000000000000000000, -0.000000000000000000 ) ) ;
#934 = DIRECTION ( 'NONE',  ( 2.832769448823989808E-16, 1.000000000000000000, -0.000000000000000000 ) ) ;
#935 = VERTEX_POINT ( 'NONE', #400 ) ;
#936 =( LENGTH_UNIT ( ) NAMED_UNIT ( * ) SI_UNIT ( .MILLI., .METRE. ) );
#937 = PRESENTATION_STYLE_ASSIGNMENT (( #760 ) ) ;
#938 = CARTESIAN_POINT ( 'NONE',  ( 1.804968851620623482, 2.609365052918086292, 0.000000000000000000 ) ) ;
#939 = SURFACE_SIDE_STYLE ('',( #1032 ) ) ;
#940 = MANIFOLD_SOLID_BREP ( 'Mirror1', #133 ) ;
#941 = ADVANCED_FACE ( 'NONE', ( #674 ), #687, .T. ) ;
#942 = CIRCLE ( 'NONE', #1091, 0.2000000000000004829 ) ;
#943 = SURFACE_STYLE_USAGE ( .BOTH. , #322 ) ;
#944 = PRESENTATION_LAYER_ASSIGNMENT (  '', '', ( #48 ) ) ;
#945 = CIRCLE ( 'NONE', #924, 0.2549999999999999489 ) ;
#946 = AXIS2_PLACEMENT_3D ( 'NONE', #901, #1084, #529 ) ;
#947 = STYLED_ITEM ( 'NONE', ( #1030 ), #689 ) ;
#948 = EDGE_CURVE ( 'NONE', #1028, #395, #1142, .T. ) ;
#949 = CIRCLE ( 'NONE', #1029, 1.609365052918086292 ) ;
#950 = SURFACE_STYLE_FILL_AREA ( #418 ) ;
#951 = SURFACE_STYLE_USAGE ( .BOTH. , #231 ) ;
#952 = UNCERTAINTY_MEASURE_WITH_UNIT (LENGTH_MEASURE( 1.000000000000000082E-05 ), #104, 'distance_accuracy_value', 'NONE');
#953 = VERTEX_POINT ( 'NONE', #790 ) ;
#954 = CARTESIAN_POINT ( 'NONE',  ( -11.43000000000000149, 1.609365052918086292, 0.000000000000000000 ) ) ;
#955 =( LENGTH_UNIT ( ) NAMED_UNIT ( * ) SI_UNIT ( .MILLI., .METRE. ) );
#956 = CARTESIAN_POINT ( 'NONE',  ( 3.556190395207061261, 2.609365052918086292, -0.4550000000000005151 ) ) ;
#957 = CARTESIAN_POINT ( 'NONE',  ( -10.43000000000000149, 2.609365052918086292, 0.2549999999999999489 ) ) ;
#958 = EDGE_CURVE ( 'NONE', #526, #99, #80, .T. ) ;
#959 = AXIS2_PLACEMENT_3D ( 'NONE', #914, #271, #639 ) ;
#960 = FILL_AREA_STYLE_COLOUR ( '', #386 ) ;
#961 = FACE_OUTER_BOUND ( 'NONE', #308, .T. ) ;
#962 =( GEOMETRIC_REPRESENTATION_CONTEXT ( 3 ) GLOBAL_UNCERTAINTY_ASSIGNED_CONTEXT ( ( #706 ) ) GLOBAL_UNIT_ASSIGNED_CONTEXT ( ( #835, #581, #1101 ) ) REPRESENTATION_CONTEXT ( 'NONE', 'WORKASPACE' ) );
#963 = COLOUR_RGB ( '',0.8980392156862745390, 0.9176470588235293713, 0.9294117647058823817 ) ;
#964 = CIRCLE ( 'NONE', #883, 0.2549999999999999489 ) ;
#965 = MECHANICAL_DESIGN_GEOMETRIC_PRESENTATION_REPRESENTATION (  '', ( #173 ), #49 ) ;
#966 = FILL_AREA_STYLE ('',( #1122 ) ) ;
#967 = COLOUR_RGB ( '',0.7529411764705882248, 0.7529411764705882248, 0.000000000000000000 ) ;
#968 = ORIENTED_EDGE ( 'NONE', *, *, #37, .T. ) ;
#969 = DIRECTION ( 'NONE',  ( -1.000000000000000000, -0.000000000000000000, -0.000000000000000000 ) ) ;
#970 = ORIENTED_EDGE ( 'NONE', *, *, #870, .T. ) ;
#971 = CARTESIAN_POINT ( 'NONE',  ( -10.43000000000000149, 2.609365052918086292, 0.000000000000000000 ) ) ;
#972 = ORIENTED_EDGE ( 'NONE', *, *, #359, .F. ) ;
#973 = DIRECTION ( 'NONE',  ( 1.000000000000000000, 0.000000000000000000, 0.000000000000000000 ) ) ;
#974 = FILL_AREA_STYLE_COLOUR ( '', #1006 ) ;
#975 = PRODUCT_DEFINITION_CONTEXT ( 'detailed design', #510, 'design' ) ;
#976 = ORIENTED_EDGE ( 'NONE', *, *, #142, .F. ) ;
#977 = PRESENTATION_STYLE_ASSIGNMENT (( #538 ) ) ;
#978 = VERTEX_POINT ( 'NONE', #607 ) ;
#979 = SPHERICAL_SURFACE ( 'NONE', #817, 1.609365052918086070 ) ;
#980 = AXIS2_PLACEMENT_3D ( 'NONE', #385, #741, #983 ) ;
#981 = PRODUCT_RELATED_PRODUCT_CATEGORY ( 'part', '', ( #358 ) ) ;
#982 = COLOUR_RGB ( '',0.8980392156862745390, 0.9176470588235293713, 0.9294117647058823817 ) ;
#983 = DIRECTION ( 'NONE',  ( 0.000000000000000000, 0.000000000000000000, 1.000000000000000000 ) ) ;
#984 = TOROIDAL_SURFACE ( 'NONE', #316, 0.4550000000000005151, 0.2000000000000004829 ) ;
#985 = ORIENTED_EDGE ( 'NONE', *, *, #326, .T. ) ;
#986 =( LENGTH_UNIT ( ) NAMED_UNIT ( * ) SI_UNIT ( .MILLI., .METRE. ) );
#987 = FILL_AREA_STYLE ('',( #279 ) ) ;
#988 = UNCERTAINTY_MEASURE_WITH_UNIT (LENGTH_MEASURE( 1.000000000000000082E-05 ), #936, 'distance_accuracy_value', 'NONE');
#989 = ORIENTED_EDGE ( 'NONE', *, *, #232, .T. ) ;
#990 = FACE_OUTER_BOUND ( 'NONE', #234, .T. ) ;
#991 = DIRECTION ( 'NONE',  ( -1.000000000000000000, -0.000000000000000000, -0.000000000000000000 ) ) ;
#992 = FACE_OUTER_BOUND ( 'NONE', #584, .T. ) ;
#993 =( LENGTH_UNIT ( ) NAMED_UNIT ( * ) SI_UNIT ( .MILLI., .METRE. ) );
#994 = EDGE_CURVE ( 'NONE', #556, #824, #1043, .T. ) ;
#995 = EDGE_LOOP ( 'NONE', ( #1118, #871 ) ) ;
#996 =( NAMED_UNIT ( * ) PLANE_ANGLE_UNIT ( ) SI_UNIT ( $, .RADIAN. ) );
#997 = SURFACE_STYLE_USAGE ( .BOTH. , #643 ) ;
#998 = FILL_AREA_STYLE ('',( #460 ) ) ;
#999 = ORIENTED_EDGE ( 'NONE', *, *, #1016, .F. ) ;
#1000 = EDGE_CURVE ( 'NONE', #728, #806, #26, .T. ) ;
#1001 = ORIENTED_EDGE ( 'NONE', *, *, #1113, .T. ) ;
#1002 = DIRECTION ( 'NONE',  ( -1.000000000000000000, -0.000000000000000000, -0.000000000000000000 ) ) ;
#1003 = ORIENTED_EDGE ( 'NONE', *, *, #1099, .F. ) ;
#1004 = PRESENTATION_STYLE_ASSIGNMENT (( #805 ) ) ;
#1005 = CIRCLE ( 'NONE', #797, 0.2549999999999999489 ) ;
#1006 = COLOUR_RGB ( '',0.7529411764705882248, 0.7529411764705882248, 0.000000000000000000 ) ;
#1007 = PRESENTATION_LAYER_ASSIGNMENT (  '', '', ( #557 ) ) ;
#1008 = VECTOR ( 'NONE', #726, 1000.000000000000000 ) ;
#1009 =( LENGTH_UNIT ( ) NAMED_UNIT ( * ) SI_UNIT ( .MILLI., .METRE. ) );
#1010 = AXIS2_PLACEMENT_3D ( 'NONE', #558, #384, #299 ) ;
#1011 = FILL_AREA_STYLE_COLOUR ( '', #1076 ) ;
#1012 = FILL_AREA_STYLE_COLOUR ( '', #1114 ) ;
#1013 = DIRECTION ( 'NONE',  ( 0.000000000000000000, 0.000000000000000000, -1.000000000000000000 ) ) ;
#1014 = DIRECTION ( 'NONE',  ( 0.000000000000000000, 0.000000000000000000, -1.000000000000000000 ) ) ;
#1015 = LINE ( 'NONE', #745, #351 ) ;
#1016 = EDGE_CURVE ( 'NONE', #751, #719, #831, .T. ) ;
#1017 = CARTESIAN_POINT ( 'NONE',  ( -10.43000000000000149, 2.609365052918086292, -0.2549999999999999489 ) ) ;
#1018 =( NAMED_UNIT ( * ) PLANE_ANGLE_UNIT ( ) SI_UNIT ( $, .RADIAN. ) );
#1019 = ORIENTED_EDGE ( 'NONE', *, *, #244, .T. ) ;
#1020 = CARTESIAN_POINT ( 'NONE',  ( 11.43000000000000149, 1.609365052918086292, 0.000000000000000000 ) ) ;
#1021 = ORIENTED_EDGE ( 'NONE', *, *, #624, .F. ) ;
#1022 = FILL_AREA_STYLE ('',( #45 ) ) ;
#1023 = CYLINDRICAL_SURFACE ( 'NONE', #702, 0.2549999999999999489 ) ;
#1024 = CIRCLE ( 'NONE', #812, 0.2000000000000004829 ) ;
#1025 = AXIS2_PLACEMENT_3D ( 'NONE', #291, #3, #551 ) ;
#1026 = MECHANICAL_DESIGN_GEOMETRIC_PRESENTATION_REPRESENTATION (  '', ( #517 ), #158 ) ;
#1027 = MECHANICAL_DESIGN_GEOMETRIC_PRESENTATION_REPRESENTATION (  '', ( #197 ), #430 ) ;
#1028 = VERTEX_POINT ( 'NONE', #238 ) ;
#1029 = AXIS2_PLACEMENT_3D ( 'NONE', #527, #779, #352 ) ;
#1030 = PRESENTATION_STYLE_ASSIGNMENT (( #489 ) ) ;
#1031 = FILL_AREA_STYLE ('',( #106 ) ) ;
#1032 = SURFACE_STYLE_FILL_AREA ( #426 ) ;
#1033 = EDGE_CURVE ( 'NONE', #978, #897, #775, .T. ) ;
#1034 = CARTESIAN_POINT ( 'NONE',  ( -3.556190395207061261, 2.609365052918086292, 0.000000000000000000 ) ) ;
#1035 = ORIENTED_EDGE ( 'NONE', *, *, #523, .T. ) ;
#1036 = CARTESIAN_POINT ( 'NONE',  ( -10.43000000000000149, 2.609365052918086292, -0.2549999999999999489 ) ) ;
#1037 = PRESENTATION_STYLE_ASSIGNMENT (( #673 ) ) ;
#1038 = FILL_AREA_STYLE_COLOUR ( '', #412 ) ;
#1039 = DIRECTION ( 'NONE',  ( 0.000000000000000000, -1.000000000000000000, 0.000000000000000000 ) ) ;
#1040 = FILL_AREA_STYLE ('',( #111 ) ) ;
#1041 = STYLED_ITEM ( 'NONE', ( #528 ), #76 ) ;
#1042 = AXIS2_PLACEMENT_3D ( 'NONE', #909, #823, #207 ) ;
#1043 = CIRCLE ( 'NONE', #533, 1.609365052918086292 ) ;
#1044 = CIRCLE ( 'NONE', #767, 0.2549999999999999489 ) ;
#1045 = DIRECTION ( 'NONE',  ( 0.000000000000000000, 0.000000000000000000, -1.000000000000000000 ) ) ;
#1046 =( GEOMETRIC_REPRESENTATION_CONTEXT ( 3 ) GLOBAL_UNCERTAINTY_ASSIGNED_CONTEXT ( ( #952 ) ) GLOBAL_UNIT_ASSIGNED_CONTEXT ( ( #104, #381, #583 ) ) REPRESENTATION_CONTEXT ( 'NONE', 'WORKASPACE' ) );
#1047 = EDGE_CURVE ( 'NONE', #877, #953, #784, .T. ) ;
#1048 =( LENGTH_UNIT ( ) NAMED_UNIT ( * ) SI_UNIT ( .MILLI., .METRE. ) );
#1049 = CARTESIAN_POINT ( 'NONE',  ( -3.362617346942187613, 2.609365052918086292, 0.4047061138363221011 ) ) ;
#1050 = UNCERTAINTY_MEASURE_WITH_UNIT (LENGTH_MEASURE( 1.000000000000000082E-05 ), #1048, 'distance_accuracy_value', 'NONE');
#1051 = DIRECTION ( 'NONE',  ( 0.000000000000000000, 0.000000000000000000, 1.000000000000000000 ) ) ;
#1052 = ADVANCED_FACE ( 'NONE', ( #65 ), #861, .T. ) ;
#1053 = ORIENTED_EDGE ( 'NONE', *, *, #1086, .T. ) ;
#1054 = MECHANICAL_DESIGN_GEOMETRIC_PRESENTATION_REPRESENTATION (  '', ( #193 ), #262 ) ;
#1055 = PRESENTATION_LAYER_ASSIGNMENT (  '', '', ( #407 ) ) ;
#1056 = UNCERTAINTY_MEASURE_WITH_UNIT (LENGTH_MEASURE( 1.000000000000000082E-05 ), #498, 'distance_accuracy_value', 'NONE');
#1057 = ORIENTED_EDGE ( 'NONE', *, *, #68, .F. ) ;
#1058 = CIRCLE ( 'NONE', #290, 0.2549999999999999489 ) ;
#1059 = STYLED_ITEM ( 'NONE', ( #690 ), #838 ) ;
#1060 = AXIS2_PLACEMENT_3D ( 'NONE', #339, #611, #235 ) ;
#1061 = ORIENTED_EDGE ( 'NONE', *, *, #192, .T. ) ;
#1062 = DIRECTION ( 'NONE',  ( 0.000000000000000000, -1.000000000000000000, 0.000000000000000000 ) ) ;
#1063 = SURFACE_STYLE_FILL_AREA ( #703 ) ;
#1064 = EDGE_LOOP ( 'NONE', ( #1021, #458, #11, #1019, #606 ) ) ;
#1065 = DIRECTION ( 'NONE',  ( 1.000000000000000000, -0.000000000000000000, -0.000000000000000000 ) ) ;
#1066 = ORIENTED_EDGE ( 'NONE', *, *, #731, .F. ) ;
#1067 = EDGE_CURVE ( 'NONE', #391, #69, #137, .T. ) ;
#1068 = SPHERICAL_SURFACE ( 'NONE', #285, 1.609365052918086070 ) ;
#1069 = ORIENTED_EDGE ( 'NONE', *, *, #303, .T. ) ;
#1070 = LINE ( 'NONE', #469, #1073 ) ;
#1071 = CARTESIAN_POINT ( 'NONE',  ( -10.43000000000000149, 1.609365052918086292, -3.122849337825749926E-17 ) ) ;
#1072 = CARTESIAN_POINT ( 'NONE',  ( 1.804968851620622594, 2.609365052918086292, 0.000000000000000000 ) ) ;
#1073 = VECTOR ( 'NONE', #383, 1000.000000000000000 ) ;
#1074 = EDGE_CURVE ( 'NONE', #17, #208, #652, .T. ) ;
#1075 = SURFACE_SIDE_STYLE ('',( #1132 ) ) ;
#1076 = COLOUR_RGB ( '',0.8980392156862745390, 0.9176470588235293713, 0.9294117647058823817 ) ;
#1077 = DIRECTION ( 'NONE',  ( 0.000000000000000000, 0.000000000000000000, -1.000000000000000000 ) ) ;
#1078 = AXIS2_PLACEMENT_3D ( 'NONE', #560, #1002, #548 ) ;
#1079 = AXIS2_PLACEMENT_3D ( 'NONE', #864, #64, #318 ) ;
#1080 = VERTEX_POINT ( 'NONE', #543 ) ;
#1081 =( NAMED_UNIT ( * ) SI_UNIT ( $, .STERADIAN. ) SOLID_ANGLE_UNIT ( ) );
#1082 =( NAMED_UNIT ( * ) SI_UNIT ( $, .STERADIAN. ) SOLID_ANGLE_UNIT ( ) );
#1083 = ORIENTED_EDGE ( 'NONE', *, *, #758, .F. ) ;
#1084 = DIRECTION ( 'NONE',  ( 1.000000000000000000, -0.000000000000000000, -0.000000000000000000 ) ) ;
#1085 = CYLINDRICAL_SURFACE ( 'NONE', #464, 0.2549999999999999489 ) ;
#1086 = EDGE_CURVE ( 'NONE', #395, #723, #196, .T. ) ;
#1087 = EDGE_LOOP ( 'NONE', ( #892, #434 ) ) ;
#1088 = DIRECTION ( 'NONE',  ( 0.000000000000000000, 0.000000000000000000, -1.000000000000000000 ) ) ;
#1089 = DIRECTION ( 'NONE',  ( 0.000000000000000000, 0.000000000000000000, -1.000000000000000000 ) ) ;
#1090 = FILL_AREA_STYLE ('',( #571 ) ) ;
#1091 = AXIS2_PLACEMENT_3D ( 'NONE', #417, #511, #1045 ) ;
#1092 =( NAMED_UNIT ( * ) PLANE_ANGLE_UNIT ( ) SI_UNIT ( $, .RADIAN. ) );
#1093 =( GEOMETRIC_REPRESENTATION_CONTEXT ( 3 ) GLOBAL_UNCERTAINTY_ASSIGNED_CONTEXT ( ( #887 ) ) GLOBAL_UNIT_ASSIGNED_CONTEXT ( ( #363, #274, #802 ) ) REPRESENTATION_CONTEXT ( 'NONE', 'WORKASPACE' ) );
#1094 = DIRECTION ( 'NONE',  ( 2.832769448823989808E-16, -1.000000000000000000, 0.000000000000000000 ) ) ;
#1095 = PRESENTATION_LAYER_ASSIGNMENT (  '', '', ( #367 ) ) ;
#1096 = PRESENTATION_LAYER_ASSIGNMENT (  '', '', ( #197 ) ) ;
#1097 = MECHANICAL_DESIGN_GEOMETRIC_PRESENTATION_REPRESENTATION (  '', ( #537 ), #176 ) ;
#1098 = PRESENTATION_STYLE_ASSIGNMENT (( #300 ) ) ;
#1099 = EDGE_CURVE ( 'NONE', #898, #897, #554, .T. ) ;
#1100 = DIRECTION ( 'NONE',  ( 0.000000000000000000, 0.000000000000000000, -1.000000000000000000 ) ) ;
#1101 =( NAMED_UNIT ( * ) SI_UNIT ( $, .STERADIAN. ) SOLID_ANGLE_UNIT ( ) );
#1102 = DIRECTION ( 'NONE',  ( 0.000000000000000000, 0.000000000000000000, 1.000000000000000000 ) ) ;
#1103 =( LENGTH_UNIT ( ) NAMED_UNIT ( * ) SI_UNIT ( .MILLI., .METRE. ) );
#1104 = EDGE_CURVE ( 'NONE', #905, #806, #708, .T. ) ;
#1105 = DIRECTION ( 'NONE',  ( 2.832769448823989808E-16, 1.000000000000000000, -0.000000000000000000 ) ) ;
#1106 = ORIENTED_EDGE ( 'NONE', *, *, #948, .T. ) ;
#1107 = SURFACE_STYLE_USAGE ( .BOTH. , #123 ) ;
#1108 = CARTESIAN_POINT ( 'NONE',  ( -11.43000000000000149, 1.609365052918086292, 0.000000000000000000 ) ) ;
#1109 =( LENGTH_UNIT ( ) NAMED_UNIT ( * ) SI_UNIT ( .MILLI., .METRE. ) );
#1110 = DIRECTION ( 'NONE',  ( -1.000000000000000000, -0.000000000000000000, -0.000000000000000000 ) ) ;
#1111 = CARTESIAN_POINT ( 'NONE',  ( 10.43000000000000149, 2.354365052918086398, 3.122849337825749310E-17 ) ) ;
#1112 = SURFACE_SIDE_STYLE ('',( #124 ) ) ;
#1113 = EDGE_CURVE ( 'NONE', #905, #526, #211, .T. ) ;
#1114 = COLOUR_RGB ( '',0.8980392156862745390, 0.9176470588235293713, 0.9294117647058823817 ) ;
#1115 =( GEOMETRIC_REPRESENTATION_CONTEXT ( 3 ) GLOBAL_UNCERTAINTY_ASSIGNED_CONTEXT ( ( #1123 ) ) GLOBAL_UNIT_ASSIGNED_CONTEXT ( ( #40, #759, #408 ) ) REPRESENTATION_CONTEXT ( 'NONE', 'WORKASPACE' ) );
#1116 =( LENGTH_UNIT ( ) NAMED_UNIT ( * ) SI_UNIT ( .MILLI., .METRE. ) );
#1117 = AXIS2_PLACEMENT_3D ( 'NONE', #885, #357, #633 ) ;
#1118 = ORIENTED_EDGE ( 'NONE', *, *, #1000, .F. ) ;
#1119 = PRESENTATION_STYLE_ASSIGNMENT (( #1107 ) ) ;
#1120 = DIRECTION ( 'NONE',  ( -1.000000000000000000, -0.000000000000000000, -0.000000000000000000 ) ) ;
#1121 = ADVANCED_FACE ( 'NONE', ( #889 ), #979, .T. ) ;
#1122 = FILL_AREA_STYLE_COLOUR ( '', #415 ) ;
#1123 = UNCERTAINTY_MEASURE_WITH_UNIT (LENGTH_MEASURE( 1.000000000000000082E-05 ), #40, 'distance_accuracy_value', 'NONE');
#1124 =( LENGTH_UNIT ( ) NAMED_UNIT ( * ) SI_UNIT ( .MILLI., .METRE. ) );
#1125 = AXIS2_PLACEMENT_3D ( 'NONE', #21, #991, #730 ) ;
#1126 = AXIS2_PLACEMENT_3D ( 'NONE', #148, #503, #320 ) ;
#1127 = ADVANCED_FACE ( 'NONE', ( #990 ), #315, .T. ) ;
#1128 = SURFACE_STYLE_FILL_AREA ( #604 ) ;
#1129 = FILL_AREA_STYLE ('',( #423 ) ) ;
#1130 = ORIENTED_EDGE ( 'NONE', *, *, #523, .F. ) ;
#1131 = CARTESIAN_POINT ( 'NONE',  ( -3.362617346942187613, 2.609365052918086292, 0.000000000000000000 ) ) ;
#1132 = SURFACE_STYLE_FILL_AREA ( #249 ) ;
#1133 =( NAMED_UNIT ( * ) SI_UNIT ( $, .STERADIAN. ) SOLID_ANGLE_UNIT ( ) );
#1134 = UNCERTAINTY_MEASURE_WITH_UNIT (LENGTH_MEASURE( 1.000000000000000082E-05 ), #216, 'distance_accuracy_value', 'NONE');
#1135 =( NAMED_UNIT ( * ) PLANE_ANGLE_UNIT ( ) SI_UNIT ( $, .RADIAN. ) );
#1136 = SURFACE_STYLE_FILL_AREA ( #622 ) ;
#1137 = ORIENTED_EDGE ( 'NONE', *, *, #119, .F. ) ;
#1138 = CARTESIAN_POINT ( 'NONE',  ( 1.804968851620623482, 4.218730105836172584, 1.970903760715744989E-16 ) ) ;
#1139 =( GEOMETRIC_REPRESENTATION_CONTEXT ( 3 ) GLOBAL_UNCERTAINTY_ASSIGNED_CONTEXT ( ( #716 ) ) GLOBAL_UNIT_ASSIGNED_CONTEXT ( ( #182, #1092, #91 ) ) REPRESENTATION_CONTEXT ( 'NONE', 'WORKASPACE' ) );
#1140 = SURFACE_STYLE_USAGE ( .BOTH. , #727 ) ;
#1141 = SURFACE_STYLE_FILL_AREA ( #693 ) ;
#1142 = CIRCLE ( 'NONE', #798, 0.2549999999999999489 ) ;
#1143 = UNCERTAINTY_MEASURE_WITH_UNIT (LENGTH_MEASURE( 1.000000000000000082E-05 ), #955, 'distance_accuracy_value', 'NONE');
#1144 = EDGE_LOOP ( 'NONE', ( #1057, #1148, #665, #348, #380, #471 ) ) ;
#1145 = COLOUR_RGB ( '',0.8980392156862745390, 0.9176470588235293713, 0.9294117647058823817 ) ;
#1146 = PRESENTATION_LAYER_ASSIGNMENT (  '', '', ( #506 ) ) ;
#1147 = EDGE_CURVE ( 'NONE', #245, #122, #964, .T. ) ;
#1148 = ORIENTED_EDGE ( 'NONE', *, *, #608, .T. ) ;
#1149 = DIRECTION ( 'NONE',  ( 0.000000000000000000, -1.000000000000000000, 0.000000000000000000 ) ) ;
#1150 = CARTESIAN_POINT ( 'NONE',  ( 1.804968851620623482, 2.609365052918086292, 1.609365052918086292 ) ) ;
#1151 = CARTESIAN_POINT ( 'NONE',  ( 10.43000000000000149, 2.609365052918086292, 0.000000000000000000 ) ) ;
#1152 = PRODUCT_DEFINITION_SHAPE ( 'NONE', 'NONE',  #44 ) ;
#1153 = ORIENTED_EDGE ( 'NONE', *, *, #530, .T. ) ;
#1154 = CARTESIAN_POINT ( 'NONE',  ( 10.43000000000000149, 1.609365052918086292, 0.000000000000000000 ) ) ;
#1155 = SURFACE_SIDE_STYLE ('',( #565 ) ) ;
#1156 = ORIENTED_EDGE ( 'NONE', *, *, #398, .F. ) ;
#1157 = SURFACE_STYLE_FILL_AREA ( #159 ) ;
ENDSEC;
END-ISO-10303-21;
