ISO-10303-21;
HEADER;
FILE_DESCRIPTION (( 'STEP AP214' ),
    '1' );
FILE_NAME ('Capacitor Ceramic No Polarity axial 25.40.STEP',
    '2026-02-18T23:23:31',
    ( '' ),
    ( '' ),
    'SwSTEP 2.0',
    'SolidWorks 2026',
    '' );
FILE_SCHEMA (( 'AUTOMOTIVE_DESIGN' ));
ENDSEC;

DATA;
#1 = SURFACE_STYLE_FILL_AREA ( #810 ) ;
#2 = CIRCLE ( 'NONE', #1049, 0.2549999999999999489 ) ;
#3 = SURFACE_STYLE_FILL_AREA ( #710 ) ;
#4 = ORIENTED_EDGE ( 'NONE', *, *, #539, .F. ) ;
#5 = SURFACE_SIDE_STYLE ('',( #131 ) ) ;
#6 =( NAMED_UNIT ( * ) PLANE_ANGLE_UNIT ( ) SI_UNIT ( $, .RADIAN. ) );
#7 = ORIENTED_EDGE ( 'NONE', *, *, #168, .F. ) ;
#8 = ORIENTED_EDGE ( 'NONE', *, *, #187, .F. ) ;
#9 = LINE ( 'NONE', #727, #720 ) ;
#10 = CARTESIAN_POINT ( 'NONE',  ( -11.70000000000000284, 2.609365052918086292, 0.000000000000000000 ) ) ;
#11 = CARTESIAN_POINT ( 'NONE',  ( 11.70000000000000284, 2.609365052918086292, 0.2549999999999999489 ) ) ;
#12 = CARTESIAN_POINT ( 'NONE',  ( -3.362617346942187613, 2.609365052918086292, 0.000000000000000000 ) ) ;
#13 = ORIENTED_EDGE ( 'NONE', *, *, #732, .T. ) ;
#14 = CARTESIAN_POINT ( 'NONE',  ( -3.362617346942187613, 2.609365052918086292, -0.4047061138363221011 ) ) ;
#15 = UNCERTAINTY_MEASURE_WITH_UNIT (LENGTH_MEASURE( 1.000000000000000082E-05 ), #188, 'distance_accuracy_value', 'NONE');
#16 = ADVANCED_FACE ( 'NONE', ( #27 ), #207, .T. ) ;
#17 = FILL_AREA_STYLE_COLOUR ( '', #708 ) ;
#18 = FILL_AREA_STYLE_COLOUR ( '', #765 ) ;
#19 = ORIENTED_EDGE ( 'NONE', *, *, #358, .T. ) ;
#20 = EDGE_CURVE ( 'NONE', #391, #144, #919, .T. ) ;
#21 = DIRECTION ( 'NONE',  ( 0.000000000000000000, 0.000000000000000000, 1.000000000000000000 ) ) ;
#22 = COLOUR_RGB ( '',0.8941176470588234615, 0.8941176470588234615, 0.8941176470588234615 ) ;
#23 = CARTESIAN_POINT ( 'NONE',  ( -12.44500000000000206, 1.609365052918086292, -3.122849337825728356E-17 ) ) ;
#24 = MECHANICAL_DESIGN_GEOMETRIC_PRESENTATION_REPRESENTATION (  '', ( #1131 ), #1038 ) ;
#25 = LINE ( 'NONE', #11, #31 ) ;
#26 = EDGE_CURVE ( 'NONE', #638, #983, #714, .T. ) ;
#27 = FACE_OUTER_BOUND ( 'NONE', #325, .T. ) ;
#28 = CARTESIAN_POINT ( 'NONE',  ( -3.556190395207061261, 2.609365052918086292, 0.000000000000000000 ) ) ;
#29 = FACE_OUTER_BOUND ( 'NONE', #78, .T. ) ;
#30 = DIRECTION ( 'NONE',  ( 0.000000000000000000, 0.000000000000000000, -1.000000000000000000 ) ) ;
#31 = VECTOR ( 'NONE', #752, 1000.000000000000000 ) ;
#32 = FILL_AREA_STYLE ('',( #1007 ) ) ;
#33 = DIRECTION ( 'NONE',  ( 1.000000000000000000, 0.000000000000000000, 0.000000000000000000 ) ) ;
#34 = ORIENTED_EDGE ( 'NONE', *, *, #653, .T. ) ;
#35 = CARTESIAN_POINT ( 'NONE',  ( -11.70000000000000284, 2.609365052918086292, 0.000000000000000000 ) ) ;
#36 = DIRECTION ( 'NONE',  ( 0.000000000000000000, -1.000000000000000000, 0.000000000000000000 ) ) ;
#37 = ORIENTED_EDGE ( 'NONE', *, *, #960, .T. ) ;
#38 =( LENGTH_UNIT ( ) NAMED_UNIT ( * ) SI_UNIT ( .MILLI., .METRE. ) );
#39 = COLOUR_RGB ( '',0.7529411764705882248, 0.7529411764705882248, 0.000000000000000000 ) ;
#40 =( NAMED_UNIT ( * ) SI_UNIT ( $, .STERADIAN. ) SOLID_ANGLE_UNIT ( ) );
#41 = AXIS2_PLACEMENT_3D ( 'NONE', #280, #557, #641 ) ;
#42 = CIRCLE ( 'NONE', #1145, 0.4047061138363226562 ) ;
#43 =( NAMED_UNIT ( * ) SI_UNIT ( $, .STERADIAN. ) SOLID_ANGLE_UNIT ( ) );
#44 =( LENGTH_UNIT ( ) NAMED_UNIT ( * ) SI_UNIT ( .MILLI., .METRE. ) );
#45 = FACE_OUTER_BOUND ( 'NONE', #222, .T. ) ;
#46 = CARTESIAN_POINT ( 'NONE',  ( -12.70000000000000284, -3.000000000000000000, 0.000000000000000000 ) ) ;
#47 = ORIENTED_EDGE ( 'NONE', *, *, #989, .F. ) ;
#48 = SURFACE_STYLE_USAGE ( .BOTH. , #522 ) ;
#49 = ADVANCED_FACE ( 'NONE', ( #973 ), #568, .T. ) ;
#50 = PRESENTATION_LAYER_ASSIGNMENT (  '', '', ( #116 ) ) ;
#51 = EDGE_CURVE ( 'NONE', #391, #399, #850, .T. ) ;
#52 = ORIENTED_EDGE ( 'NONE', *, *, #932, .T. ) ;
#53 = CARTESIAN_POINT ( 'NONE',  ( -3.556190395207061261, 2.609365052918086292, 0.000000000000000000 ) ) ;
#54 = SURFACE_STYLE_USAGE ( .BOTH. , #330 ) ;
#55 = EDGE_CURVE ( 'NONE', #144, #638, #233, .T. ) ;
#56 = VERTEX_POINT ( 'NONE', #113 ) ;
#57 = DIRECTION ( 'NONE',  ( 0.000000000000000000, 0.000000000000000000, -1.000000000000000000 ) ) ;
#58 = DIRECTION ( 'NONE',  ( 1.000000000000000000, 0.000000000000000000, 0.000000000000000000 ) ) ;
#59 = VECTOR ( 'NONE', #768, 1000.000000000000000 ) ;
#60 = DIRECTION ( 'NONE',  ( 0.000000000000000000, 0.000000000000000000, 1.000000000000000000 ) ) ;
#61 = ORIENTED_EDGE ( 'NONE', *, *, #1040, .T. ) ;
#62 = ADVANCED_FACE ( 'NONE', ( #490 ), #432, .F. ) ;
#63 = CARTESIAN_POINT ( 'NONE',  ( 11.70000000000000284, 2.609365052918086292, -0.2549999999999999489 ) ) ;
#64 = PRODUCT_CONTEXT ( 'NONE', #1134, 'mechanical' ) ;
#65 = AXIS2_PLACEMENT_3D ( 'NONE', #93, #713, #77 ) ;
#66 = DIRECTION ( 'NONE',  ( -1.000000000000000000, -0.000000000000000000, -0.000000000000000000 ) ) ;
#67 =( NAMED_UNIT ( * ) SI_UNIT ( $, .STERADIAN. ) SOLID_ANGLE_UNIT ( ) );
#68 = ORIENTED_EDGE ( 'NONE', *, *, #712, .F. ) ;
#69 = FILL_AREA_STYLE_COLOUR ( '', #274 ) ;
#70 = AXIS2_PLACEMENT_3D ( 'NONE', #390, #734, #30 ) ;
#71 = CYLINDRICAL_SURFACE ( 'NONE', #772, 0.2549999999999999489 ) ;
#72 = CARTESIAN_POINT ( 'NONE',  ( 0.000000000000000000, 0.000000000000000000, 0.000000000000000000 ) ) ;
#73 = FILL_AREA_STYLE ('',( #784 ) ) ;
#74 = LINE ( 'NONE', #446, #634 ) ;
#75 = SURFACE_SIDE_STYLE ('',( #455 ) ) ;
#76 = VERTEX_POINT ( 'NONE', #1062 ) ;
#77 = DIRECTION ( 'NONE',  ( 0.000000000000000000, -1.000000000000000000, 0.000000000000000000 ) ) ;
#78 = EDGE_LOOP ( 'NONE', ( #607, #155, #757, #19, #849 ) ) ;
#79 = CARTESIAN_POINT ( 'NONE',  ( -11.70000000000000284, 2.609365052918086292, 0.000000000000000000 ) ) ;
#80 = AXIS2_PLACEMENT_3D ( 'NONE', #10, #650, #205 ) ;
#81 = CARTESIAN_POINT ( 'NONE',  ( 12.70000000000000284, -3.000000000000000000, 0.2549999999999999489 ) ) ;
#82 = PRODUCT_DEFINITION_CONTEXT ( 'detailed design', #319, 'design' ) ;
#83 = CIRCLE ( 'NONE', #813, 1.254999999999999227 ) ;
#84 = ORIENTED_EDGE ( 'NONE', *, *, #732, .F. ) ;
#85 = ORIENTED_EDGE ( 'NONE', *, *, #1089, .T. ) ;
#86 = VECTOR ( 'NONE', #1039, 1000.000000000000000 ) ;
#87 = ORIENTED_EDGE ( 'NONE', *, *, #51, .F. ) ;
#88 = AXIS2_PLACEMENT_3D ( 'NONE', #964, #1105, #152 ) ;
#89 = CARTESIAN_POINT ( 'NONE',  ( -10.09675116564010722, 2.609365052918086292, 0.000000000000000000 ) ) ;
#90 = VERTEX_POINT ( 'NONE', #881 ) ;
#91 = DIRECTION ( 'NONE',  ( -1.000000000000000000, -0.000000000000000000, -0.000000000000000000 ) ) ;
#92 = EDGE_CURVE ( 'NONE', #261, #940, #828, .T. ) ;
#93 = CARTESIAN_POINT ( 'NONE',  ( 1.804968851620622594, 2.609365052918086292, 0.000000000000000000 ) ) ;
#94 = STYLED_ITEM ( 'NONE', ( #136 ), #407 ) ;
#95 =( GEOMETRIC_REPRESENTATION_CONTEXT ( 3 ) GLOBAL_UNCERTAINTY_ASSIGNED_CONTEXT ( ( #177 ) ) GLOBAL_UNIT_ASSIGNED_CONTEXT ( ( #38, #511, #400 ) ) REPRESENTATION_CONTEXT ( 'NONE', 'WORKASPACE' ) );
#96 = DIRECTION ( 'NONE',  ( -1.000000000000000000, 0.000000000000000000, 0.000000000000000000 ) ) ;
#97 =( NAMED_UNIT ( * ) PLANE_ANGLE_UNIT ( ) SI_UNIT ( $, .RADIAN. ) );
#98 = ORIENTED_EDGE ( 'NONE', *, *, #506, .F. ) ;
#99 = CARTESIAN_POINT ( 'NONE',  ( -1.804968851620622594, 2.609365052918086292, 0.000000000000000000 ) ) ;
#100 =( GEOMETRIC_REPRESENTATION_CONTEXT ( 3 ) GLOBAL_UNCERTAINTY_ASSIGNED_CONTEXT ( ( #109 ) ) GLOBAL_UNIT_ASSIGNED_CONTEXT ( ( #289, #916, #1003 ) ) REPRESENTATION_CONTEXT ( 'NONE', 'WORKASPACE' ) );
#101 = SURFACE_STYLE_USAGE ( .BOTH. , #636 ) ;
#102 = CIRCLE ( 'NONE', #414, 1.609365052918086292 ) ;
#103 = ADVANCED_FACE ( 'NONE', ( #534 ), #908, .T. ) ;
#104 = EDGE_LOOP ( 'NONE', ( #251, #135, #345, #1036, #947, #1151 ) ) ;
#105 = DIRECTION ( 'NONE',  ( 0.000000000000000000, 0.000000000000000000, -1.000000000000000000 ) ) ;
#106 = VERTEX_POINT ( 'NONE', #377 ) ;
#107 = MECHANICAL_DESIGN_GEOMETRIC_PRESENTATION_REPRESENTATION (  '', ( #418 ), #877 ) ;
#108 = AXIS2_PLACEMENT_3D ( 'NONE', #448, #284, #193 ) ;
#109 = UNCERTAINTY_MEASURE_WITH_UNIT (LENGTH_MEASURE( 1.000000000000000082E-05 ), #289, 'distance_accuracy_value', 'NONE');
#110 = CARTESIAN_POINT ( 'NONE',  ( 11.70000000000000284, 2.609365052918086292, 0.000000000000000000 ) ) ;
#111 = ORIENTED_EDGE ( 'NONE', *, *, #812, .T. ) ;
#112 =( LENGTH_UNIT ( ) NAMED_UNIT ( * ) SI_UNIT ( .MILLI., .METRE. ) );
#113 = CARTESIAN_POINT ( 'NONE',  ( -3.362617346942187613, 2.609365052918086292, 0.4047061138363221011 ) ) ;
#114 = FACE_OUTER_BOUND ( 'NONE', #655, .T. ) ;
#115 = CARTESIAN_POINT ( 'NONE',  ( -11.70000000000000284, 2.609365052918086292, -0.2549999999999999489 ) ) ;
#116 = STYLED_ITEM ( 'NONE', ( #751 ), #1109 ) ;
#117 = DIRECTION ( 'NONE',  ( 2.832769448823989808E-16, 1.000000000000000000, -0.000000000000000000 ) ) ;
#118 = FILL_AREA_STYLE_COLOUR ( '', #482 ) ;
#119 = DIRECTION ( 'NONE',  ( 2.832769448823989808E-16, -1.000000000000000000, 0.000000000000000000 ) ) ;
#120 = PRESENTATION_LAYER_ASSIGNMENT (  '', '', ( #346 ) ) ;
#121 =( GEOMETRIC_REPRESENTATION_CONTEXT ( 3 ) GLOBAL_UNCERTAINTY_ASSIGNED_CONTEXT ( ( #743 ) ) GLOBAL_UNIT_ASSIGNED_CONTEXT ( ( #733, #6, #298 ) ) REPRESENTATION_CONTEXT ( 'NONE', 'WORKASPACE' ) );
#122 = CARTESIAN_POINT ( 'NONE',  ( 12.70000000000000284, 1.609365052918086292, 0.000000000000000000 ) ) ;
#123 = CIRCLE ( 'NONE', #533, 0.2000000000000004829 ) ;
#124 = AXIS2_PLACEMENT_3D ( 'NONE', #705, #1141, #352 ) ;
#125 = DIRECTION ( 'NONE',  ( -1.000000000000000000, -0.000000000000000000, -0.000000000000000000 ) ) ;
#126 =( GEOMETRIC_REPRESENTATION_CONTEXT ( 3 ) GLOBAL_UNCERTAINTY_ASSIGNED_CONTEXT ( ( #1115 ) ) GLOBAL_UNIT_ASSIGNED_CONTEXT ( ( #995, #904, #1056 ) ) REPRESENTATION_CONTEXT ( 'NONE', 'WORKASPACE' ) );
#127 = FACE_OUTER_BOUND ( 'NONE', #942, .T. ) ;
#128 = CARTESIAN_POINT ( 'NONE',  ( -1.804968851620623482, 2.609365052918086292, 0.000000000000000000 ) ) ;
#129 = CARTESIAN_POINT ( 'NONE',  ( 11.70000000000000284, 2.609365052918086292, 0.000000000000000000 ) ) ;
#130 =( GEOMETRIC_REPRESENTATION_CONTEXT ( 3 ) GLOBAL_UNCERTAINTY_ASSIGNED_CONTEXT ( ( #821 ) ) GLOBAL_UNIT_ASSIGNED_CONTEXT ( ( #221, #311, #838 ) ) REPRESENTATION_CONTEXT ( 'NONE', 'WORKASPACE' ) );
#131 = SURFACE_STYLE_FILL_AREA ( #394 ) ;
#132 = SURFACE_STYLE_USAGE ( .BOTH. , #406 ) ;
#133 = VERTEX_POINT ( 'NONE', #803 ) ;
#134 = ORIENTED_EDGE ( 'NONE', *, *, #318, .F. ) ;
#135 = ORIENTED_EDGE ( 'NONE', *, *, #661, .T. ) ;
#136 = PRESENTATION_STYLE_ASSIGNMENT (( #608 ) ) ;
#137 = ORIENTED_EDGE ( 'NONE', *, *, #661, .F. ) ;
#138 = AXIS2_PLACEMENT_3D ( 'NONE', #1146, #174, #701 ) ;
#139 = CIRCLE ( 'NONE', #435, 0.2549999999999999489 ) ;
#140 = CARTESIAN_POINT ( 'NONE',  ( -12.70000000000000284, 1.609365052918086292, 0.000000000000000000 ) ) ;
#141 = TOROIDAL_SURFACE ( 'NONE', #956, 0.4550000000000005151, 0.2000000000000004829 ) ;
#142 = DIRECTION ( 'NONE',  ( 0.000000000000000000, 0.000000000000000000, 1.000000000000000000 ) ) ;
#143 = AXIS2_PLACEMENT_3D ( 'NONE', #46, #231, #1138 ) ;
#144 = VERTEX_POINT ( 'NONE', #368 ) ;
#145 = CARTESIAN_POINT ( 'NONE',  ( 11.70000000000000284, 1.609365052918086292, 0.000000000000000000 ) ) ;
#146 = SURFACE_SIDE_STYLE ('',( #955 ) ) ;
#147 = SURFACE_SIDE_STYLE ('',( #518 ) ) ;
#148 = EDGE_CURVE ( 'NONE', #256, #871, #278, .T. ) ;
#149 = FILL_AREA_STYLE ('',( #676 ) ) ;
#150 = ORIENTED_EDGE ( 'NONE', *, *, #725, .T. ) ;
#151 = APPLICATION_PROTOCOL_DEFINITION ( 'draft international standard', 'automotive_design', 1998, #319 ) ;
#152 = DIRECTION ( 'NONE',  ( 0.000000000000000000, 0.000000000000000000, 1.000000000000000000 ) ) ;
#153 = EDGE_CURVE ( 'NONE', #543, #1020, #451, .T. ) ;
#154 = SURFACE_SIDE_STYLE ('',( #1044 ) ) ;
#155 = ORIENTED_EDGE ( 'NONE', *, *, #1135, .F. ) ;
#156 = DIRECTION ( 'NONE',  ( 0.000000000000000000, -1.000000000000000000, -1.224646799147353207E-16 ) ) ;
#157 = ORIENTED_EDGE ( 'NONE', *, *, #55, .T. ) ;
#158 = CARTESIAN_POINT ( 'NONE',  ( -3.362617346942187613, 2.204658939081764135, 0.000000000000000000 ) ) ;
#159 = COLOUR_RGB ( '',0.8980392156862745390, 0.9176470588235293713, 0.9294117647058823817 ) ;
#160 =( LENGTH_UNIT ( ) NAMED_UNIT ( * ) SI_UNIT ( .MILLI., .METRE. ) );
#161 = EDGE_LOOP ( 'NONE', ( #478, #659, #339, #915, #150 ) ) ;
#162 = DIRECTION ( 'NONE',  ( 0.000000000000000000, 0.000000000000000000, 1.000000000000000000 ) ) ;
#163 = FACE_OUTER_BOUND ( 'NONE', #1068, .T. ) ;
#164 = ORIENTED_EDGE ( 'NONE', *, *, #989, .T. ) ;
#165 = CARTESIAN_POINT ( 'NONE',  ( 12.95500000000000185, 1.609365052918086292, 0.000000000000000000 ) ) ;
#166 = AXIS2_PLACEMENT_3D ( 'NONE', #930, #924, #1019 ) ;
#167 = SURFACE_STYLE_FILL_AREA ( #247 ) ;
#168 = EDGE_CURVE ( 'NONE', #1130, #106, #542, .T. ) ;
#169 = SPHERICAL_SURFACE ( 'NONE', #782, 1.609365052918086070 ) ;
#170 =( NAMED_UNIT ( * ) SI_UNIT ( $, .STERADIAN. ) SOLID_ANGLE_UNIT ( ) );
#171 = LINE ( 'NONE', #546, #798 ) ;
#172 = EDGE_LOOP ( 'NONE', ( #287, #854, #773, #1025, #134 ) ) ;
#173 = FILL_AREA_STYLE ('',( #362 ) ) ;
#174 = DIRECTION ( 'NONE',  ( 0.000000000000000000, -1.224646799147353207E-16, 1.000000000000000000 ) ) ;
#175 = STYLED_ITEM ( 'NONE', ( #212 ), #103 ) ;
#176 = PRESENTATION_LAYER_ASSIGNMENT (  '', '', ( #349 ) ) ;
#177 = UNCERTAINTY_MEASURE_WITH_UNIT (LENGTH_MEASURE( 1.000000000000000082E-05 ), #38, 'distance_accuracy_value', 'NONE');
#178 = AXIS2_PLACEMENT_3D ( 'NONE', #1052, #427, #57 ) ;
#179 = CARTESIAN_POINT ( 'NONE',  ( 3.362617346942188501, 2.609365052918086292, 0.000000000000000000 ) ) ;
#180 = STYLED_ITEM ( 'NONE', ( #379 ), #271 ) ;
#181 = DIRECTION ( 'NONE',  ( 0.000000000000000000, -1.000000000000000000, 0.000000000000000000 ) ) ;
#182 = DIRECTION ( 'NONE',  ( 0.000000000000000000, -1.224646799147353207E-16, 1.000000000000000000 ) ) ;
#183 = MECHANICAL_DESIGN_GEOMETRIC_PRESENTATION_REPRESENTATION (  '', ( #934 ), #354 ) ;
#184 =( NAMED_UNIT ( * ) PLANE_ANGLE_UNIT ( ) SI_UNIT ( $, .RADIAN. ) );
#185 = STYLED_ITEM ( 'NONE', ( #263 ), #766 ) ;
#186 = DIRECTION ( 'NONE',  ( -1.000000000000000000, -0.000000000000000000, -0.000000000000000000 ) ) ;
#187 = EDGE_CURVE ( 'NONE', #337, #730, #294, .T. ) ;
#188 =( LENGTH_UNIT ( ) NAMED_UNIT ( * ) SI_UNIT ( .MILLI., .METRE. ) );
#189 = CIRCLE ( 'NONE', #70, 0.2549999999999999489 ) ;
#190 = VERTEX_POINT ( 'NONE', #456 ) ;
#191 = SURFACE_STYLE_USAGE ( .BOTH. , #1000 ) ;
#192 = EDGE_CURVE ( 'NONE', #1020, #983, #195, .T. ) ;
#193 = DIRECTION ( 'NONE',  ( 0.000000000000000000, 0.000000000000000000, -1.000000000000000000 ) ) ;
#194 = ORIENTED_EDGE ( 'NONE', *, *, #528, .T. ) ;
#195 = CIRCLE ( 'NONE', #582, 1.609365052918086292 ) ;
#196 =( LENGTH_UNIT ( ) NAMED_UNIT ( * ) SI_UNIT ( .MILLI., .METRE. ) );
#197 = MECHANICAL_DESIGN_GEOMETRIC_PRESENTATION_REPRESENTATION (  '', ( #1142 ), #944 ) ;
#198 = SURFACE_SIDE_STYLE ('',( #572 ) ) ;
#199 = CARTESIAN_POINT ( 'NONE',  ( -1.804968851620623482, 1.000000000000000000, 0.000000000000000000 ) ) ;
#200 = ORIENTED_EDGE ( 'NONE', *, *, #938, .F. ) ;
#201 = AXIS2_PLACEMENT_3D ( 'NONE', #89, #186, #1060 ) ;
#202 = AXIS2_PLACEMENT_3D ( 'NONE', #323, #675, #1030 ) ;
#203 = DIRECTION ( 'NONE',  ( 0.000000000000000000, 0.000000000000000000, 1.000000000000000000 ) ) ;
#204 = UNCERTAINTY_MEASURE_WITH_UNIT (LENGTH_MEASURE( 1.000000000000000082E-05 ), #228, 'distance_accuracy_value', 'NONE');
#205 = DIRECTION ( 'NONE',  ( 0.000000000000000000, 0.000000000000000000, -1.000000000000000000 ) ) ;
#206 = CARTESIAN_POINT ( 'NONE',  ( 1.804968851620622594, 2.609365052918086292, 0.000000000000000000 ) ) ;
#207 = PLANE ( 'NONE',  #431 ) ;
#208 = DIRECTION ( 'NONE',  ( 0.000000000000000000, 0.000000000000000000, -1.000000000000000000 ) ) ;
#209 = VERTEX_POINT ( 'NONE', #23 ) ;
#210 = DIRECTION ( 'NONE',  ( -1.000000000000000000, -0.000000000000000000, -0.000000000000000000 ) ) ;
#211 = CARTESIAN_POINT ( 'NONE',  ( 3.556190395207061261, 2.609365052918086292, 0.000000000000000000 ) ) ;
#212 = PRESENTATION_STYLE_ASSIGNMENT (( #504 ) ) ;
#213 = PRESENTATION_LAYER_ASSIGNMENT (  '', '', ( #1157 ) ) ;
#214 = CIRCLE ( 'NONE', #950, 1.609365052918086292 ) ;
#215 = SURFACE_STYLE_USAGE ( .BOTH. , #198 ) ;
#216 = ORIENTED_EDGE ( 'NONE', *, *, #1132, .F. ) ;
#217 = PRESENTATION_LAYER_ASSIGNMENT (  '', '', ( #1085 ) ) ;
#218 = ORIENTED_EDGE ( 'NONE', *, *, #55, .F. ) ;
#219 = DIRECTION ( 'NONE',  ( 1.000000000000000000, 0.000000000000000000, 0.000000000000000000 ) ) ;
#220 = COLOUR_RGB ( '',0.7529411764705882248, 0.7529411764705882248, 0.000000000000000000 ) ;
#221 =( LENGTH_UNIT ( ) NAMED_UNIT ( * ) SI_UNIT ( .MILLI., .METRE. ) );
#222 = EDGE_LOOP ( 'NONE', ( #668, #1128, #216, #797, #966 ) ) ;
#223 = ORIENTED_EDGE ( 'NONE', *, *, #372, .F. ) ;
#224 = SURFACE_STYLE_USAGE ( .BOTH. , #147 ) ;
#225 = DIRECTION ( 'NONE',  ( 0.000000000000000000, -1.000000000000000000, 0.000000000000000000 ) ) ;
#226 = DIRECTION ( 'NONE',  ( -0.000000000000000000, -0.000000000000000000, -1.000000000000000000 ) ) ;
#227 =( NAMED_UNIT ( * ) SI_UNIT ( $, .STERADIAN. ) SOLID_ANGLE_UNIT ( ) );
#228 =( LENGTH_UNIT ( ) NAMED_UNIT ( * ) SI_UNIT ( .MILLI., .METRE. ) );
#229 = VERTEX_POINT ( 'NONE', #1094 ) ;
#230 =( GEOMETRIC_REPRESENTATION_CONTEXT ( 3 ) GLOBAL_UNCERTAINTY_ASSIGNED_CONTEXT ( ( #468 ) ) GLOBAL_UNIT_ASSIGNED_CONTEXT ( ( #1114, #312, #1097 ) ) REPRESENTATION_CONTEXT ( 'NONE', 'WORKASPACE' ) );
#231 = DIRECTION ( 'NONE',  ( 2.832769448823989808E-16, 1.000000000000000000, -0.000000000000000000 ) ) ;
#232 = MECHANICAL_DESIGN_GEOMETRIC_PRESENTATION_REPRESENTATION (  '', ( #1157 ), #100 ) ;
#233 = CIRCLE ( 'NONE', #1004, 0.2000000000000004829 ) ;
#234 = ORIENTED_EDGE ( 'NONE', *, *, #903, .F. ) ;
#235 = MECHANICAL_DESIGN_GEOMETRIC_PRESENTATION_REPRESENTATION (  '', ( #349 ), #514 ) ;
#236 = CIRCLE ( 'NONE', #515, 0.4047061138363222121 ) ;
#237 = EDGE_CURVE ( 'NONE', #747, #90, #949, .T. ) ;
#238 = DIRECTION ( 'NONE',  ( 1.000000000000000000, 0.000000000000000000, 0.000000000000000000 ) ) ;
#239 = MECHANICAL_DESIGN_GEOMETRIC_PRESENTATION_REPRESENTATION (  '', ( #1070 ), #126 ) ;
#240 = PRESENTATION_LAYER_ASSIGNMENT (  '', '', ( #858 ) ) ;
#241 = ORIENTED_EDGE ( 'NONE', *, *, #610, .T. ) ;
#242 = EDGE_CURVE ( 'NONE', #483, #829, #599, .T. ) ;
#243 = DIRECTION ( 'NONE',  ( 0.000000000000000000, 0.000000000000000000, -1.000000000000000000 ) ) ;
#244 = PRESENTATION_STYLE_ASSIGNMENT (( #224 ) ) ;
#245 = FILL_AREA_STYLE_COLOUR ( '', #220 ) ;
#246 = SURFACE_STYLE_FILL_AREA ( #1139 ) ;
#247 = FILL_AREA_STYLE ('',( #875 ) ) ;
#248 = SURFACE_STYLE_USAGE ( .BOTH. , #679 ) ;
#249 = ORIENTED_EDGE ( 'NONE', *, *, #1055, .T. ) ;
#250 = DIRECTION ( 'NONE',  ( -1.000000000000000000, -0.000000000000000000, -0.000000000000000000 ) ) ;
#251 = ORIENTED_EDGE ( 'NONE', *, *, #242, .F. ) ;
#252 = DIRECTION ( 'NONE',  ( 2.832769448823989808E-16, 1.000000000000000000, -0.000000000000000000 ) ) ;
#253 = SURFACE_STYLE_FILL_AREA ( #73 ) ;
#254 =( LENGTH_UNIT ( ) NAMED_UNIT ( * ) SI_UNIT ( .MILLI., .METRE. ) );
#255 = COLOUR_RGB ( '',0.8980392156862745390, 0.9176470588235293713, 0.9294117647058823817 ) ;
#256 = VERTEX_POINT ( 'NONE', #560 ) ;
#257 = CARTESIAN_POINT ( 'NONE',  ( 3.556190395207061261, 2.609365052918086292, 0.2549999999999999489 ) ) ;
#258 = TOROIDAL_SURFACE ( 'NONE', #913, 1.000000000000000000, 0.2549999999999999489 ) ;
#259 = DIRECTION ( 'NONE',  ( 0.000000000000000000, 0.000000000000000000, 1.000000000000000000 ) ) ;
#260 = AXIS2_PLACEMENT_3D ( 'NONE', #484, #125, #836 ) ;
#261 = VERTEX_POINT ( 'NONE', #1072 ) ;
#262 = DIRECTION ( 'NONE',  ( -1.000000000000000000, -0.000000000000000000, -0.000000000000000000 ) ) ;
#263 = PRESENTATION_STYLE_ASSIGNMENT (( #620 ) ) ;
#264 = UNCERTAINTY_MEASURE_WITH_UNIT (LENGTH_MEASURE( 1.000000000000000082E-05 ), #254, 'distance_accuracy_value', 'NONE');
#265 = DIRECTION ( 'NONE',  ( -1.000000000000000000, -0.000000000000000000, -0.000000000000000000 ) ) ;
#266 = DIRECTION ( 'NONE',  ( 0.000000000000000000, 0.000000000000000000, -1.000000000000000000 ) ) ;
#267 = CIRCLE ( 'NONE', #923, 0.2549999999999999489 ) ;
#268 = EDGE_CURVE ( 'NONE', #1020, #106, #378, .T. ) ;
#269 = FILL_AREA_STYLE ('',( #279 ) ) ;
#270 = SURFACE_SIDE_STYLE ('',( #1061 ) ) ;
#271 = ADVANCED_FACE ( 'NONE', ( #163 ), #258, .T. ) ;
#272 = ORIENTED_EDGE ( 'NONE', *, *, #1063, .T. ) ;
#273 =( LENGTH_UNIT ( ) NAMED_UNIT ( * ) SI_UNIT ( .MILLI., .METRE. ) );
#274 = COLOUR_RGB ( '',0.8980392156862745390, 0.9176470588235293713, 0.9294117647058823817 ) ;
#275 = EDGE_CURVE ( 'NONE', #76, #673, #417, .T. ) ;
#276 = STYLED_ITEM ( 'NONE', ( #1077 ), #62 ) ;
#277 = PRESENTATION_LAYER_ASSIGNMENT (  '', '', ( #1032 ) ) ;
#278 = LINE ( 'NONE', #698, #331 ) ;
#279 = FILL_AREA_STYLE_COLOUR ( '', #1024 ) ;
#280 = CARTESIAN_POINT ( 'NONE',  ( 12.70000000000000284, 1.609365052918086292, 0.000000000000000000 ) ) ;
#281 = CIRCLE ( 'NONE', #537, 0.2549999999999999489 ) ;
#282 = DIRECTION ( 'NONE',  ( 0.000000000000000000, -1.000000000000000000, 0.000000000000000000 ) ) ;
#283 = EDGE_CURVE ( 'NONE', #90, #747, #635, .T. ) ;
#284 = DIRECTION ( 'NONE',  ( 2.832769448823989808E-16, -1.000000000000000000, 0.000000000000000000 ) ) ;
#285 = SURFACE_STYLE_USAGE ( .BOTH. , #1057 ) ;
#286 = DIRECTION ( 'NONE',  ( 1.000000000000000000, -0.000000000000000000, -0.000000000000000000 ) ) ;
#287 = ORIENTED_EDGE ( 'NONE', *, *, #1048, .F. ) ;
#288 = SURFACE_STYLE_USAGE ( .BOTH. , #5 ) ;
#289 =( LENGTH_UNIT ( ) NAMED_UNIT ( * ) SI_UNIT ( .MILLI., .METRE. ) );
#290 = DIRECTION ( 'NONE',  ( 1.000000000000000000, 0.000000000000000000, 0.000000000000000000 ) ) ;
#291 = DIRECTION ( 'NONE',  ( 0.000000000000000000, 0.000000000000000000, -1.000000000000000000 ) ) ;
#292 = VERTEX_POINT ( 'NONE', #996 ) ;
#293 =( GEOMETRIC_REPRESENTATION_CONTEXT ( 3 ) GLOBAL_UNCERTAINTY_ASSIGNED_CONTEXT ( ( #204 ) ) GLOBAL_UNIT_ASSIGNED_CONTEXT ( ( #228, #750, #43 ) ) REPRESENTATION_CONTEXT ( 'NONE', 'WORKASPACE' ) );
#294 = CIRCLE ( 'NONE', #348, 0.2000000000000004829 ) ;
#295 = CIRCLE ( 'NONE', #351, 0.4047061138363222121 ) ;
#296 =( NAMED_UNIT ( * ) SI_UNIT ( $, .STERADIAN. ) SOLID_ANGLE_UNIT ( ) );
#297 = TOROIDAL_SURFACE ( 'NONE', #951, 1.000000000000000000, 0.2549999999999999489 ) ;
#298 =( NAMED_UNIT ( * ) SI_UNIT ( $, .STERADIAN. ) SOLID_ANGLE_UNIT ( ) );
#299 = FILL_AREA_STYLE_COLOUR ( '', #39 ) ;
#300 = ORIENTED_EDGE ( 'NONE', *, *, #402, .T. ) ;
#301 = AXIS2_PLACEMENT_3D ( 'NONE', #303, #409, #937 ) ;
#302 = CIRCLE ( 'NONE', #1011, 0.4047061138363226562 ) ;
#303 = CARTESIAN_POINT ( 'NONE',  ( 12.70000000000000284, 1.609365052918086292, 0.000000000000000000 ) ) ;
#304 = UNCERTAINTY_MEASURE_WITH_UNIT (LENGTH_MEASURE( 1.000000000000000082E-05 ), #1090, 'distance_accuracy_value', 'NONE');
#305 = ORIENTED_EDGE ( 'NONE', *, *, #237, .F. ) ;
#306 = DIRECTION ( 'NONE',  ( -1.000000000000000000, -0.000000000000000000, -0.000000000000000000 ) ) ;
#307 = ORIENTED_EDGE ( 'NONE', *, *, #26, .F. ) ;
#308 = CARTESIAN_POINT ( 'NONE',  ( 11.70000000000000284, 2.609365052918086292, 0.000000000000000000 ) ) ;
#309 = DIRECTION ( 'NONE',  ( 0.000000000000000000, 0.000000000000000000, -1.000000000000000000 ) ) ;
#310 = ADVANCED_FACE ( 'NONE', ( #905 ), #169, .T. ) ;
#311 =( NAMED_UNIT ( * ) PLANE_ANGLE_UNIT ( ) SI_UNIT ( $, .RADIAN. ) );
#312 =( NAMED_UNIT ( * ) PLANE_ANGLE_UNIT ( ) SI_UNIT ( $, .RADIAN. ) );
#313 =( NAMED_UNIT ( * ) PLANE_ANGLE_UNIT ( ) SI_UNIT ( $, .RADIAN. ) );
#314 = DIRECTION ( 'NONE',  ( 0.000000000000000000, 0.000000000000000000, 1.000000000000000000 ) ) ;
#315 = AXIS2_PLACEMENT_3D ( 'NONE', #469, #375, #817 ) ;
#316 = ORIENTED_EDGE ( 'NONE', *, *, #932, .F. ) ;
#317 = DIRECTION ( 'NONE',  ( -1.000000000000000000, -0.000000000000000000, -0.000000000000000000 ) ) ;
#318 = EDGE_CURVE ( 'NONE', #209, #256, #321, .T. ) ;
#319 = APPLICATION_CONTEXT ( 'automotive_design' ) ;
#320 = ORIENTED_EDGE ( 'NONE', *, *, #1098, .F. ) ;
#321 = CIRCLE ( 'NONE', #936, 0.2549999999999999489 ) ;
#322 = ADVANCED_FACE ( 'NONE', ( #625 ), #800, .T. ) ;
#323 = CARTESIAN_POINT ( 'NONE',  ( 12.70000000000000284, 1.609365052918086292, 0.000000000000000000 ) ) ;
#324 = FACE_OUTER_BOUND ( 'NONE', #988, .T. ) ;
#325 = EDGE_LOOP ( 'NONE', ( #801, #598 ) ) ;
#326 = FILL_AREA_STYLE_COLOUR ( '', #740 ) ;
#327 = CIRCLE ( 'NONE', #627, 0.7449999999999991074 ) ;
#328 = DIRECTION ( 'NONE',  ( -1.000000000000000000, -0.000000000000000000, -0.000000000000000000 ) ) ;
#329 = ORIENTED_EDGE ( 'NONE', *, *, #275, .T. ) ;
#330 = SURFACE_SIDE_STYLE ('',( #441 ) ) ;
#331 = VECTOR ( 'NONE', #1051, 1000.000000000000000 ) ;
#332 = AXIS2_PLACEMENT_3D ( 'NONE', #392, #117, #208 ) ;
#333 = EDGE_CURVE ( 'NONE', #133, #439, #939, .T. ) ;
#334 = ORIENTED_EDGE ( 'NONE', *, *, #402, .F. ) ;
#335 = MECHANICAL_DESIGN_GEOMETRIC_PRESENTATION_REPRESENTATION (  '', ( #993 ), #605 ) ;
#336 = AXIS2_PLACEMENT_3D ( 'NONE', #1124, #238, #958 ) ;
#337 = VERTEX_POINT ( 'NONE', #1023 ) ;
#338 =( LENGTH_UNIT ( ) NAMED_UNIT ( * ) SI_UNIT ( .MILLI., .METRE. ) );
#339 = ORIENTED_EDGE ( 'NONE', *, *, #658, .F. ) ;
#340 = SHAPE_DEFINITION_REPRESENTATION ( #670, #1101 ) ;
#341 = STYLED_ITEM ( 'NONE', ( #1100 ), #364 ) ;
#342 = PRESENTATION_STYLE_ASSIGNMENT (( #453 ) ) ;
#343 = TOROIDAL_SURFACE ( 'NONE', #807, 0.4550000000000005151, 0.2000000000000004829 ) ;
#344 = CARTESIAN_POINT ( 'NONE',  ( 1.804968851620623482, 2.609365052918086292, 0.000000000000000000 ) ) ;
#345 = ORIENTED_EDGE ( 'NONE', *, *, #574, .T. ) ;
#346 = STYLED_ITEM ( 'NONE', ( #832 ), #16 ) ;
#347 =( NAMED_UNIT ( * ) SI_UNIT ( $, .STERADIAN. ) SOLID_ANGLE_UNIT ( ) );
#348 = AXIS2_PLACEMENT_3D ( 'NONE', #891, #628, #1149 ) ;
#349 = STYLED_ITEM ( 'NONE', ( #342 ), #1016 ) ;
#350 = DIRECTION ( 'NONE',  ( -1.000000000000000000, -0.000000000000000000, -0.000000000000000000 ) ) ;
#351 = AXIS2_PLACEMENT_3D ( 'NONE', #436, #66, #529 ) ;
#352 = DIRECTION ( 'NONE',  ( 0.000000000000000000, 0.000000000000000000, -1.000000000000000000 ) ) ;
#353 = COLOUR_RGB ( '',0.7529411764705882248, 0.7529411764705882248, 0.000000000000000000 ) ;
#354 =( GEOMETRIC_REPRESENTATION_CONTEXT ( 3 ) GLOBAL_UNCERTAINTY_ASSIGNED_CONTEXT ( ( #512 ) ) GLOBAL_UNIT_ASSIGNED_CONTEXT ( ( #196, #820, #296 ) ) REPRESENTATION_CONTEXT ( 'NONE', 'WORKASPACE' ) );
#355 = ORIENTED_EDGE ( 'NONE', *, *, #693, .F. ) ;
#356 = SURFACE_STYLE_FILL_AREA ( #998 ) ;
#357 = AXIS2_PLACEMENT_3D ( 'NONE', #614, #524, #763 ) ;
#358 = EDGE_CURVE ( 'NONE', #499, #510, #25, .T. ) ;
#359 = DIRECTION ( 'NONE',  ( 0.000000000000000000, 0.000000000000000000, -1.000000000000000000 ) ) ;
#360 = UNCERTAINTY_MEASURE_WITH_UNIT (LENGTH_MEASURE( 1.000000000000000082E-05 ), #876, 'distance_accuracy_value', 'NONE');
#361 = CARTESIAN_POINT ( 'NONE',  ( -3.556190395207061261, 2.609365052918086292, 0.2550000000000000044 ) ) ;
#362 = FILL_AREA_STYLE_COLOUR ( '', #724 ) ;
#363 = CARTESIAN_POINT ( 'NONE',  ( 3.556190395207061261, 2.609365052918086292, 0.000000000000000000 ) ) ;
#364 = ADVANCED_FACE ( 'NONE', ( #127 ), #657, .T. ) ;
#365 = ORIENTED_EDGE ( 'NONE', *, *, #1048, .T. ) ;
#366 = DIRECTION ( 'NONE',  ( 0.000000000000000000, 0.000000000000000000, -1.000000000000000000 ) ) ;
#367 = DIRECTION ( 'NONE',  ( -1.000000000000000000, 0.000000000000000000, 0.000000000000000000 ) ) ;
#368 = CARTESIAN_POINT ( 'NONE',  ( -3.556190395207061261, 2.609365052918086292, -0.2550000000000000044 ) ) ;
#369 = FACE_OUTER_BOUND ( 'NONE', #501, .T. ) ;
#370 = MECHANICAL_DESIGN_GEOMETRIC_PRESENTATION_REPRESENTATION (  '', ( #387 ), #1059 ) ;
#371 = SURFACE_STYLE_USAGE ( .BOTH. , #637 ) ;
#372 = EDGE_CURVE ( 'NONE', #1130, #940, #561, .T. ) ;
#373 = PRODUCT_DEFINITION ( 'UNKNOWN', '', #428, #82 ) ;
#374 = VERTEX_POINT ( 'NONE', #826 ) ;
#375 = DIRECTION ( 'NONE',  ( 1.000000000000000000, 0.000000000000000000, 0.000000000000000000 ) ) ;
#376 = AXIS2_PLACEMENT_3D ( 'NONE', #110, #1078, #722 ) ;
#377 = CARTESIAN_POINT ( 'NONE',  ( -1.804968851620623482, 2.609365052918086292, 1.609365052918086292 ) ) ;
#378 = CIRCLE ( 'NONE', #742, 1.609365052918086292 ) ;
#379 = PRESENTATION_STYLE_ASSIGNMENT (( #285 ) ) ;
#380 =( LENGTH_UNIT ( ) NAMED_UNIT ( * ) SI_UNIT ( .MILLI., .METRE. ) );
#381 = EDGE_LOOP ( 'NONE', ( #935, #164, #52, #1087, #1009, #684 ) ) ;
#382 = PRESENTATION_STYLE_ASSIGNMENT (( #288 ) ) ;
#383 = EDGE_LOOP ( 'NONE', ( #895, #241, #864, #709, #509 ) ) ;
#384 = CARTESIAN_POINT ( 'NONE',  ( -12.70000000000000284, 1.609365052918086292, 0.000000000000000000 ) ) ;
#385 = EDGE_CURVE ( 'NONE', #979, #374, #189, .T. ) ;
#386 = VERTEX_POINT ( 'NONE', #413 ) ;
#387 = STYLED_ITEM ( 'NONE', ( #1035 ), #410 ) ;
#388 = UNCERTAINTY_MEASURE_WITH_UNIT (LENGTH_MEASURE( 1.000000000000000082E-05 ), #338, 'distance_accuracy_value', 'NONE');
#389 = CARTESIAN_POINT ( 'NONE',  ( 11.70000000000000284, 1.609365052918086292, 0.000000000000000000 ) ) ;
#390 = CARTESIAN_POINT ( 'NONE',  ( -11.70000000000000284, 2.609365052918086292, 0.000000000000000000 ) ) ;
#391 = VERTEX_POINT ( 'NONE', #1083 ) ;
#392 = CARTESIAN_POINT ( 'NONE',  ( -12.70000000000000284, 1.609365052918086292, 0.000000000000000000 ) ) ;
#393 = AXIS2_PLACEMENT_3D ( 'NONE', #363, #707, #632 ) ;
#394 = FILL_AREA_STYLE ('',( #748 ) ) ;
#395 = CARTESIAN_POINT ( 'NONE',  ( 12.70000000000000284, -3.000000000000000000, 0.000000000000000000 ) ) ;
#396 = FILL_AREA_STYLE_COLOUR ( '', #1122 ) ;
#397 = PRESENTATION_LAYER_ASSIGNMENT (  '', '', ( #1143 ) ) ;
#398 = FILL_AREA_STYLE ('',( #17 ) ) ;
#399 = VERTEX_POINT ( 'NONE', #1012 ) ;
#400 =( NAMED_UNIT ( * ) SI_UNIT ( $, .STERADIAN. ) SOLID_ANGLE_UNIT ( ) );
#401 = CIRCLE ( 'NONE', #856, 1.609365052918086292 ) ;
#402 = EDGE_CURVE ( 'NONE', #922, #292, #726, .T. ) ;
#403 = COLOUR_RGB ( '',0.8980392156862745390, 0.9176470588235293713, 0.9294117647058823817 ) ;
#404 = PRESENTATION_STYLE_ASSIGNMENT (( #488 ) ) ;
#405 = MECHANICAL_DESIGN_GEOMETRIC_PRESENTATION_REPRESENTATION (  '', ( #901 ), #985 ) ;
#406 = SURFACE_SIDE_STYLE ('',( #507 ) ) ;
#407 = ADVANCED_FACE ( 'NONE', ( #114 ), #491, .T. ) ;
#408 = FILL_AREA_STYLE ('',( #18 ) ) ;
#409 = DIRECTION ( 'NONE',  ( 2.832769448823989808E-16, -1.000000000000000000, 0.000000000000000000 ) ) ;
#410 = ADVANCED_FACE ( 'NONE', ( #324 ), #141, .F. ) ;
#411 = EDGE_LOOP ( 'NONE', ( #602, #601, #842, #223, #98, #334 ) ) ;
#412 = CARTESIAN_POINT ( 'NONE',  ( 3.362617346942188501, 2.609365052918086292, 0.000000000000000000 ) ) ;
#413 = CARTESIAN_POINT ( 'NONE',  ( 11.70000000000000284, 2.354365052918086398, 3.122849337825749310E-17 ) ) ;
#414 = AXIS2_PLACEMENT_3D ( 'NONE', #987, #350, #882 ) ;
#415 = VERTEX_POINT ( 'NONE', #1127 ) ;
#416 = DIRECTION ( 'NONE',  ( 0.000000000000000000, 0.000000000000000000, -1.000000000000000000 ) ) ;
#417 = CIRCLE ( 'NONE', #41, 0.2549999999999999489 ) ;
#418 = STYLED_ITEM ( 'NONE', ( #404 ), #615 ) ;
#419 = SURFACE_SIDE_STYLE ('',( #744 ) ) ;
#420 = ORIENTED_EDGE ( 'NONE', *, *, #658, .T. ) ;
#421 = DIRECTION ( 'NONE',  ( 0.000000000000000000, -1.000000000000000000, 0.000000000000000000 ) ) ;
#422 = DIRECTION ( 'NONE',  ( 2.832769448823989808E-16, 1.000000000000000000, -0.000000000000000000 ) ) ;
#423 = UNCERTAINTY_MEASURE_WITH_UNIT (LENGTH_MEASURE( 1.000000000000000082E-05 ), #458, 'distance_accuracy_value', 'NONE');
#424 =( LENGTH_UNIT ( ) NAMED_UNIT ( * ) SI_UNIT ( .MILLI., .METRE. ) );
#425 = ORIENTED_EDGE ( 'NONE', *, *, #879, .T. ) ;
#426 = VERTEX_POINT ( 'NONE', #860 ) ;
#427 = DIRECTION ( 'NONE',  ( 2.832769448823989808E-16, -1.000000000000000000, 0.000000000000000000 ) ) ;
#428 = PRODUCT_DEFINITION_FORMATION_WITH_SPECIFIED_SOURCE ( 'ANY', '', #690, .NOT_KNOWN. ) ;
#429 = VERTEX_POINT ( 'NONE', #764 ) ;
#430 = SURFACE_STYLE_FILL_AREA ( #149 ) ;
#431 = AXIS2_PLACEMENT_3D ( 'NONE', #839, #946, #576 ) ;
#432 = TOROIDAL_SURFACE ( 'NONE', #393, 0.4550000000000005151, 0.2000000000000004829 ) ;
#433 = EDGE_LOOP ( 'NONE', ( #1001, #704, #13, #249, #696 ) ) ;
#434 = FILL_AREA_STYLE_COLOUR ( '', #683 ) ;
#435 = AXIS2_PLACEMENT_3D ( 'NONE', #783, #252, #978 ) ;
#436 = CARTESIAN_POINT ( 'NONE',  ( -3.362617346942187613, 2.609365052918086292, 0.000000000000000000 ) ) ;
#437 = DIRECTION ( 'NONE',  ( 0.000000000000000000, 0.000000000000000000, -1.000000000000000000 ) ) ;
#438 = EDGE_LOOP ( 'NONE', ( #84, #845, #85, #907, #194 ) ) ;
#439 = VERTEX_POINT ( 'NONE', #532 ) ;
#440 =( NAMED_UNIT ( * ) PLANE_ANGLE_UNIT ( ) SI_UNIT ( $, .RADIAN. ) );
#441 = SURFACE_STYLE_FILL_AREA ( #1119 ) ;
#442 = FACE_OUTER_BOUND ( 'NONE', #1102, .T. ) ;
#443 = DIRECTION ( 'NONE',  ( 1.000000000000000000, 0.000000000000000000, 0.000000000000000000 ) ) ;
#444 = SURFACE_SIDE_STYLE ('',( #253 ) ) ;
#445 =( GEOMETRIC_REPRESENTATION_CONTEXT ( 3 ) GLOBAL_UNCERTAINTY_ASSIGNED_CONTEXT ( ( #1002 ) ) GLOBAL_UNIT_ASSIGNED_CONTEXT ( ( #424, #1111, #787 ) ) REPRESENTATION_CONTEXT ( 'NONE', 'WORKASPACE' ) );
#446 = CARTESIAN_POINT ( 'NONE',  ( -10.09675116564010722, 2.609365052918086292, -1.609365052918086292 ) ) ;
#447 = FACE_OUTER_BOUND ( 'NONE', #161, .T. ) ;
#448 = CARTESIAN_POINT ( 'NONE',  ( 12.70000000000000284, -3.000000000000000000, 0.000000000000000000 ) ) ;
#449 = DIRECTION ( 'NONE',  ( -1.000000000000000000, -0.000000000000000000, -0.000000000000000000 ) ) ;
#450 = CARTESIAN_POINT ( 'NONE',  ( -12.70000000000000284, 1.609365052918086292, 0.000000000000000000 ) ) ;
#451 = CIRCLE ( 'NONE', #495, 1.609365052918086292 ) ;
#452 = AXIS2_PLACEMENT_3D ( 'NONE', #79, #802, #593 ) ;
#453 = SURFACE_STYLE_USAGE ( .BOTH. , #551 ) ;
#454 = MECHANICAL_DESIGN_GEOMETRIC_PRESENTATION_REPRESENTATION (  '', ( #185 ), #894 ) ;
#455 = SURFACE_STYLE_FILL_AREA ( #890 ) ;
#456 = CARTESIAN_POINT ( 'NONE',  ( 12.70000000000000284, 1.609365052918086292, -0.2549999999999999489 ) ) ;
#457 = ORIENTED_EDGE ( 'NONE', *, *, #385, .F. ) ;
#458 =( LENGTH_UNIT ( ) NAMED_UNIT ( * ) SI_UNIT ( .MILLI., .METRE. ) );
#459 = EDGE_CURVE ( 'NONE', #76, #747, #1118, .T. ) ;
#460 = CARTESIAN_POINT ( 'NONE',  ( -1.804968851620623482, 2.609365052918086292, 0.000000000000000000 ) ) ;
#461 = AXIS2_PLACEMENT_3D ( 'NONE', #179, #265, #565 ) ;
#462 = ORIENTED_EDGE ( 'NONE', *, *, #653, .F. ) ;
#463 = DIRECTION ( 'NONE',  ( 2.832769448823989808E-16, 1.000000000000000000, -0.000000000000000000 ) ) ;
#464 = AXIS2_PLACEMENT_3D ( 'NONE', #35, #970, #513 ) ;
#465 = PRESENTATION_STYLE_ASSIGNMENT (( #613 ) ) ;
#466 = ORIENTED_EDGE ( 'NONE', *, *, #712, .T. ) ;
#467 = ADVANCED_FACE ( 'NONE', ( #538 ), #959, .T. ) ;
#468 = UNCERTAINTY_MEASURE_WITH_UNIT (LENGTH_MEASURE( 1.000000000000000082E-05 ), #1114, 'distance_accuracy_value', 'NONE');
#469 = CARTESIAN_POINT ( 'NONE',  ( 3.556190395207061261, 2.609365052918086292, 0.000000000000000000 ) ) ;
#470 = ADVANCED_FACE ( 'NONE', ( #815 ), #1150, .T. ) ;
#471 = MECHANICAL_DESIGN_GEOMETRIC_PRESENTATION_REPRESENTATION (  '', ( #94 ), #445 ) ;
#472 = AXIS2_PLACEMENT_3D ( 'NONE', #1017, #422, #416 ) ;
#473 = SURFACE_STYLE_USAGE ( .BOTH. , #554 ) ;
#474 = DIRECTION ( 'NONE',  ( 0.000000000000000000, 0.000000000000000000, 1.000000000000000000 ) ) ;
#475 = SURFACE_STYLE_FILL_AREA ( #1071 ) ;
#476 = ORIENTED_EDGE ( 'NONE', *, *, #805, .F. ) ;
#477 = DIRECTION ( 'NONE',  ( 0.000000000000000000, 0.000000000000000000, 1.000000000000000000 ) ) ;
#478 = ORIENTED_EDGE ( 'NONE', *, *, #333, .F. ) ;
#479 = AXIS2_PLACEMENT_3D ( 'NONE', #12, #1086, #477 ) ;
#480 = PRESENTATION_LAYER_ASSIGNMENT (  '', '', ( #180 ) ) ;
#481 = DIRECTION ( 'NONE',  ( 2.832769448823989808E-16, -1.000000000000000000, 0.000000000000000000 ) ) ;
#482 = COLOUR_RGB ( '',0.8980392156862745390, 0.9176470588235293713, 0.9294117647058823817 ) ;
#483 = VERTEX_POINT ( 'NONE', #1144 ) ;
#484 = CARTESIAN_POINT ( 'NONE',  ( -3.556190395207061261, 2.609365052918086292, 0.000000000000000000 ) ) ;
#485 =( NAMED_UNIT ( * ) SI_UNIT ( $, .STERADIAN. ) SOLID_ANGLE_UNIT ( ) );
#486 = FACE_OUTER_BOUND ( 'NONE', #172, .T. ) ;
#487 = ORIENTED_EDGE ( 'NONE', *, *, #805, .T. ) ;
#488 = SURFACE_STYLE_USAGE ( .BOTH. , #496 ) ;
#489 = UNCERTAINTY_MEASURE_WITH_UNIT (LENGTH_MEASURE( 1.000000000000000082E-05 ), #662, 'distance_accuracy_value', 'NONE');
#490 = FACE_OUTER_BOUND ( 'NONE', #840, .T. ) ;
#491 = CYLINDRICAL_SURFACE ( 'NONE', #886, 1.609365052918086292 ) ;
#492 = ADVANCED_FACE ( 'NONE', ( #369 ), #884, .T. ) ;
#493 = FILL_AREA_STYLE_COLOUR ( '', #990 ) ;
#494 = ORIENTED_EDGE ( 'NONE', *, *, #1018, .T. ) ;
#495 = AXIS2_PLACEMENT_3D ( 'NONE', #460, #799, #259 ) ;
#496 = SURFACE_SIDE_STYLE ('',( #1015 ) ) ;
#497 = EDGE_CURVE ( 'NONE', #337, #922, #796, .T. ) ;
#498 = FILL_AREA_STYLE ('',( #914 ) ) ;
#499 = VERTEX_POINT ( 'NONE', #624 ) ;
#500 = SURFACE_STYLE_USAGE ( .BOTH. , #146 ) ;
#501 = EDGE_LOOP ( 'NONE', ( #833, #597 ) ) ;
#502 = CIRCLE ( 'NONE', #166, 1.609365052918086292 ) ;
#503 = CIRCLE ( 'NONE', #357, 0.4047061138363226562 ) ;
#504 = SURFACE_STYLE_USAGE ( .BOTH. , #444 ) ;
#505 = DIRECTION ( 'NONE',  ( -1.000000000000000000, -0.000000000000000000, -0.000000000000000000 ) ) ;
#506 = EDGE_CURVE ( 'NONE', #292, #1130, #401, .T. ) ;
#507 = SURFACE_STYLE_FILL_AREA ( #498 ) ;
#508 =( NAMED_UNIT ( * ) PLANE_ANGLE_UNIT ( ) SI_UNIT ( $, .RADIAN. ) );
#509 = ORIENTED_EDGE ( 'NONE', *, *, #578, .F. ) ;
#510 = VERTEX_POINT ( 'NONE', #257 ) ;
#511 =( NAMED_UNIT ( * ) PLANE_ANGLE_UNIT ( ) SI_UNIT ( $, .RADIAN. ) );
#512 = UNCERTAINTY_MEASURE_WITH_UNIT (LENGTH_MEASURE( 1.000000000000000082E-05 ), #196, 'distance_accuracy_value', 'NONE');
#513 = DIRECTION ( 'NONE',  ( 0.000000000000000000, 0.000000000000000000, -1.000000000000000000 ) ) ;
#514 =( GEOMETRIC_REPRESENTATION_CONTEXT ( 3 ) GLOBAL_UNCERTAINTY_ASSIGNED_CONTEXT ( ( #360 ) ) GLOBAL_UNIT_ASSIGNED_CONTEXT ( ( #876, #672, #868 ) ) REPRESENTATION_CONTEXT ( 'NONE', 'WORKASPACE' ) );
#515 = AXIS2_PLACEMENT_3D ( 'NONE', #981, #702, #1054 ) ;
#516 = ORIENTED_EDGE ( 'NONE', *, *, #358, .F. ) ;
#517 =( GEOMETRIC_REPRESENTATION_CONTEXT ( 3 ) GLOBAL_UNCERTAINTY_ASSIGNED_CONTEXT ( ( #1080 ) ) GLOBAL_UNIT_ASSIGNED_CONTEXT ( ( #596, #440, #1064 ) ) REPRESENTATION_CONTEXT ( 'NONE', 'WORKASPACE' ) );
#518 = SURFACE_STYLE_FILL_AREA ( #756 ) ;
#519 = COLOUR_RGB ( '',0.8980392156862745390, 0.9176470588235293713, 0.9294117647058823817 ) ;
#520 = DIRECTION ( 'NONE',  ( -1.000000000000000000, -0.000000000000000000, -0.000000000000000000 ) ) ;
#521 = EDGE_LOOP ( 'NONE', ( #795, #647, #272, #516, #137 ) ) ;
#522 = SURFACE_SIDE_STYLE ('',( #855 ) ) ;
#523 = UNCERTAINTY_MEASURE_WITH_UNIT (LENGTH_MEASURE( 1.000000000000000082E-05 ), #112, 'distance_accuracy_value', 'NONE');
#524 = DIRECTION ( 'NONE',  ( -1.000000000000000000, -0.000000000000000000, -0.000000000000000000 ) ) ;
#525 = SURFACE_STYLE_USAGE ( .BOTH. , #774 ) ;
#526 = VERTEX_POINT ( 'NONE', #361 ) ;
#527 = DIRECTION ( 'NONE',  ( -0.000000000000000000, 0.000000000000000000, 1.000000000000000000 ) ) ;
#528 = EDGE_CURVE ( 'NONE', #144, #526, #897, .T. ) ;
#529 = DIRECTION ( 'NONE',  ( 0.000000000000000000, 0.000000000000000000, 1.000000000000000000 ) ) ;
#530 = CARTESIAN_POINT ( 'NONE',  ( 11.70000000000000284, 1.609365052918086292, 3.122849337825749926E-17 ) ) ;
#531 = ORIENTED_EDGE ( 'NONE', *, *, #539, .T. ) ;
#532 = CARTESIAN_POINT ( 'NONE',  ( -12.70000000000000284, -3.000000000000000000, 0.2549999999999999489 ) ) ;
#533 = AXIS2_PLACEMENT_3D ( 'NONE', #920, #1008, #291 ) ;
#534 = FACE_OUTER_BOUND ( 'NONE', #381, .T. ) ;
#535 = FILL_AREA_STYLE_COLOUR ( '', #255 ) ;
#536 = CARTESIAN_POINT ( 'NONE',  ( 1.804968851620623482, 2.609365052918086292, -1.609365052918086292 ) ) ;
#537 = AXIS2_PLACEMENT_3D ( 'NONE', #584, #219, #660 ) ;
#538 = FACE_OUTER_BOUND ( 'NONE', #1104, .T. ) ;
#539 = EDGE_CURVE ( 'NONE', #426, #543, #502, .T. ) ;
#540 = FACE_OUTER_BOUND ( 'NONE', #691, .T. ) ;
#541 = DIRECTION ( 'NONE',  ( 1.000000000000000000, -0.000000000000000000, -0.000000000000000000 ) ) ;
#542 = LINE ( 'NONE', #885, #1065 ) ;
#543 = VERTEX_POINT ( 'NONE', #580 ) ;
#544 = DIRECTION ( 'NONE',  ( 0.000000000000000000, 0.000000000000000000, 1.000000000000000000 ) ) ;
#545 = FACE_OUTER_BOUND ( 'NONE', #433, .T. ) ;
#546 = CARTESIAN_POINT ( 'NONE',  ( -11.70000000000000284, 2.609365052918086292, 0.2549999999999999489 ) ) ;
#547 = UNCERTAINTY_MEASURE_WITH_UNIT (LENGTH_MEASURE( 1.000000000000000082E-05 ), #273, 'distance_accuracy_value', 'NONE');
#548 = DIRECTION ( 'NONE',  ( -0.000000000000000000, 0.000000000000000000, 1.000000000000000000 ) ) ;
#549 = MECHANICAL_DESIGN_GEOMETRIC_PRESENTATION_REPRESENTATION (  '', ( #175 ), #681 ) ;
#550 =( GEOMETRIC_REPRESENTATION_CONTEXT ( 3 ) GLOBAL_UNCERTAINTY_ASSIGNED_CONTEXT ( ( #982 ) ) GLOBAL_UNIT_ASSIGNED_CONTEXT ( ( #380, #1073, #567 ) ) REPRESENTATION_CONTEXT ( 'NONE', 'WORKASPACE' ) );
#551 = SURFACE_SIDE_STYLE ('',( #889 ) ) ;
#552 = AXIS2_PLACEMENT_3D ( 'NONE', #344, #612, #1113 ) ;
#553 = COLOUR_RGB ( '',0.8980392156862745390, 0.9176470588235293713, 0.9294117647058823817 ) ;
#554 = SURFACE_SIDE_STYLE ('',( #792 ) ) ;
#555 = PRESENTATION_LAYER_ASSIGNMENT (  '', '', ( #975 ) ) ;
#556 = PRESENTATION_LAYER_ASSIGNMENT (  '', '', ( #993 ) ) ;
#557 = DIRECTION ( 'NONE',  ( 2.832769448823989808E-16, -1.000000000000000000, 0.000000000000000000 ) ) ;
#558 = MECHANICAL_DESIGN_GEOMETRIC_PRESENTATION_REPRESENTATION (  '', ( #858 ), #994 ) ;
#559 = SURFACE_STYLE_USAGE ( .BOTH. , #646 ) ;
#560 = CARTESIAN_POINT ( 'NONE',  ( -12.70000000000000284, 1.609365052918086292, -0.2549999999999999489 ) ) ;
#561 = CIRCLE ( 'NONE', #590, 1.609365052918086292 ) ;
#562 = CARTESIAN_POINT ( 'NONE',  ( -11.70000000000000284, 1.609365052918086292, 0.000000000000000000 ) ) ;
#563 = PRESENTATION_STYLE_ASSIGNMENT (( #191 ) ) ;
#564 = PRESENTATION_LAYER_ASSIGNMENT (  '', '', ( #341 ) ) ;
#565 = DIRECTION ( 'NONE',  ( 0.000000000000000000, 0.000000000000000000, 1.000000000000000000 ) ) ;
#566 = ORIENTED_EDGE ( 'NONE', *, *, #926, .T. ) ;
#567 =( NAMED_UNIT ( * ) SI_UNIT ( $, .STERADIAN. ) SOLID_ANGLE_UNIT ( ) );
#568 = TOROIDAL_SURFACE ( 'NONE', #737, 1.000000000000000000, 0.2549999999999999489 ) ;
#569 = ORIENTED_EDGE ( 'NONE', *, *, #1055, .F. ) ;
#570 = UNCERTAINTY_MEASURE_WITH_UNIT (LENGTH_MEASURE( 1.000000000000000082E-05 ), #893, 'distance_accuracy_value', 'NONE');
#571 = CIRCLE ( 'NONE', #761, 0.2549999999999999489 ) ;
#572 = SURFACE_STYLE_FILL_AREA ( #32 ) ;
#573 = ORIENTED_EDGE ( 'NONE', *, *, #268, .F. ) ;
#574 = EDGE_CURVE ( 'NONE', #499, #386, #281, .T. ) ;
#575 = DIRECTION ( 'NONE',  ( 0.000000000000000000, 0.000000000000000000, -1.000000000000000000 ) ) ;
#576 = DIRECTION ( 'NONE',  ( 0.000000000000000000, 0.000000000000000000, -1.000000000000000000 ) ) ;
#577 = ORIENTED_EDGE ( 'NONE', *, *, #823, .F. ) ;
#578 = EDGE_CURVE ( 'NONE', #190, #90, #9, .T. ) ;
#579 = CIRCLE ( 'NONE', #472, 0.2549999999999999489 ) ;
#580 = CARTESIAN_POINT ( 'NONE',  ( -1.804968851620623482, 2.609365052918086292, -1.609365052918086292 ) ) ;
#581 = DIRECTION ( 'NONE',  ( 0.000000000000000000, 0.000000000000000000, 1.000000000000000000 ) ) ;
#582 = AXIS2_PLACEMENT_3D ( 'NONE', #1152, #359, #367 ) ;
#583 = TOROIDAL_SURFACE ( 'NONE', #739, 1.000000000000000000, 0.2549999999999999489 ) ;
#584 = CARTESIAN_POINT ( 'NONE',  ( 11.70000000000000284, 2.609365052918086292, 0.000000000000000000 ) ) ;
#585 = CARTESIAN_POINT ( 'NONE',  ( -1.804968851620622594, 2.609365052918086292, 0.000000000000000000 ) ) ;
#586 = DIRECTION ( 'NONE',  ( 0.000000000000000000, 0.000000000000000000, -1.000000000000000000 ) ) ;
#587 = PRESENTATION_LAYER_ASSIGNMENT (  '', '', ( #934 ) ) ;
#588 = MECHANICAL_DESIGN_GEOMETRIC_PRESENTATION_REPRESENTATION (  '', ( #975 ), #819 ) ;
#589 = CARTESIAN_POINT ( 'NONE',  ( -12.70000000000000284, 1.609365052918086292, 0.2549999999999999489 ) ) ;
#590 = AXIS2_PLACEMENT_3D ( 'NONE', #666, #844, #933 ) ;
#591 = CARTESIAN_POINT ( 'NONE',  ( 3.556190395207061261, 2.609365052918086292, 0.000000000000000000 ) ) ;
#592 = ORIENTED_EDGE ( 'NONE', *, *, #778, .F. ) ;
#593 = DIRECTION ( 'NONE',  ( 0.000000000000000000, 0.000000000000000000, -1.000000000000000000 ) ) ;
#594 = EDGE_CURVE ( 'NONE', #922, #1120, #42, .T. ) ;
#595 = CARTESIAN_POINT ( 'NONE',  ( 11.70000000000000284, 1.609365052918086292, 0.000000000000000000 ) ) ;
#596 =( LENGTH_UNIT ( ) NAMED_UNIT ( * ) SI_UNIT ( .MILLI., .METRE. ) );
#597 = ORIENTED_EDGE ( 'NONE', *, *, #237, .T. ) ;
#598 = ORIENTED_EDGE ( 'NONE', *, *, #1125, .F. ) ;
#599 = CIRCLE ( 'NONE', #667, 1.254999999999999227 ) ;
#600 = MECHANICAL_DESIGN_GEOMETRIC_PRESENTATION_REPRESENTATION (  '', ( #618 ), #550 ) ;
#601 = ORIENTED_EDGE ( 'NONE', *, *, #680, .T. ) ;
#602 = ORIENTED_EDGE ( 'NONE', *, *, #594, .T. ) ;
#603 = FACE_OUTER_BOUND ( 'NONE', #383, .T. ) ;
#604 = PRODUCT_RELATED_PRODUCT_CATEGORY ( 'part', '', ( #690 ) ) ;
#605 =( GEOMETRIC_REPRESENTATION_CONTEXT ( 3 ) GLOBAL_UNCERTAINTY_ASSIGNED_CONTEXT ( ( #423 ) ) GLOBAL_UNIT_ASSIGNED_CONTEXT ( ( #458, #697, #899 ) ) REPRESENTATION_CONTEXT ( 'NONE', 'WORKASPACE' ) );
#606 = CIRCLE ( 'NONE', #689, 0.7449999999999991074 ) ;
#607 = ORIENTED_EDGE ( 'NONE', *, *, #835, .F. ) ;
#608 = SURFACE_STYLE_USAGE ( .BOTH. , #419 ) ;
#609 = CYLINDRICAL_SURFACE ( 'NONE', #88, 0.2549999999999999489 ) ;
#610 = EDGE_CURVE ( 'NONE', #829, #76, #621, .T. ) ;
#611 = FILL_AREA_STYLE ('',( #245 ) ) ;
#612 = DIRECTION ( 'NONE',  ( -1.000000000000000000, -0.000000000000000000, -0.000000000000000000 ) ) ;
#613 = SURFACE_STYLE_USAGE ( .BOTH. , #694 ) ;
#614 = CARTESIAN_POINT ( 'NONE',  ( 3.362617346942188501, 2.609365052918086292, 0.000000000000000000 ) ) ;
#615 = ADVANCED_FACE ( 'NONE', ( #29 ), #656, .T. ) ;
#616 = CARTESIAN_POINT ( 'NONE',  ( -3.362617346942187613, 2.609365052918086292, 0.000000000000000000 ) ) ;
#617 =( LENGTH_UNIT ( ) NAMED_UNIT ( * ) SI_UNIT ( .MILLI., .METRE. ) );
#618 = STYLED_ITEM ( 'NONE', ( #736 ), #1091 ) ;
#619 =( GEOMETRIC_REPRESENTATION_CONTEXT ( 3 ) GLOBAL_UNCERTAINTY_ASSIGNED_CONTEXT ( ( #570 ) ) GLOBAL_UNIT_ASSIGNED_CONTEXT ( ( #893, #97, #811 ) ) REPRESENTATION_CONTEXT ( 'NONE', 'WORKASPACE' ) );
#620 = SURFACE_STYLE_USAGE ( .BOTH. , #75 ) ;
#621 = CIRCLE ( 'NONE', #301, 0.2549999999999999489 ) ;
#622 = PRESENTATION_STYLE_ASSIGNMENT (( #101 ) ) ;
#623 =( NAMED_UNIT ( * ) PLANE_ANGLE_UNIT ( ) SI_UNIT ( $, .RADIAN. ) );
#624 = CARTESIAN_POINT ( 'NONE',  ( 11.70000000000000284, 2.609365052918086292, 0.2549999999999999489 ) ) ;
#625 = FACE_OUTER_BOUND ( 'NONE', #1107, .T. ) ;
#626 = DIRECTION ( 'NONE',  ( 0.000000000000000000, 0.000000000000000000, -1.000000000000000000 ) ) ;
#627 = AXIS2_PLACEMENT_3D ( 'NONE', #729, #847, #669 ) ;
#628 = DIRECTION ( 'NONE',  ( -0.000000000000000000, 1.000000000000000000, 1.224646799147353207E-16 ) ) ;
#629 = MANIFOLD_SOLID_BREP ( 'Mirror1', #848 ) ;
#630 = UNCERTAINTY_MEASURE_WITH_UNIT (LENGTH_MEASURE( 1.000000000000000082E-05 ), #44, 'distance_accuracy_value', 'NONE');
#631 = SURFACE_STYLE_USAGE ( .BOTH. , #270 ) ;
#632 = DIRECTION ( 'NONE',  ( 0.000000000000000000, 0.000000000000000000, 1.000000000000000000 ) ) ;
#633 = PRESENTATION_LAYER_ASSIGNMENT (  '', '', ( #175 ) ) ;
#634 = VECTOR ( 'NONE', #785, 1000.000000000000000 ) ;
#635 = CIRCLE ( 'NONE', #777, 0.2549999999999999489 ) ;
#636 = SURFACE_SIDE_STYLE ('',( #706 ) ) ;
#637 = SURFACE_SIDE_STYLE ('',( #356 ) ) ;
#638 = VERTEX_POINT ( 'NONE', #14 ) ;
#639 = FACE_OUTER_BOUND ( 'NONE', #912, .T. ) ;
#640 = DIRECTION ( 'NONE',  ( -0.000000000000000000, 1.000000000000000000, 1.224646799147353207E-16 ) ) ;
#641 = DIRECTION ( 'NONE',  ( 0.000000000000000000, 0.000000000000000000, -1.000000000000000000 ) ) ;
#642 = DIRECTION ( 'NONE',  ( 1.000000000000000000, -0.000000000000000000, -0.000000000000000000 ) ) ;
#643 = ORIENTED_EDGE ( 'NONE', *, *, #1098, .T. ) ;
#644 = ADVANCED_FACE ( 'NONE', ( #741 ), #1088, .T. ) ;
#645 = FILL_AREA_STYLE ('',( #118 ) ) ;
#646 = SURFACE_SIDE_STYLE ('',( #3 ) ) ;
#647 = ORIENTED_EDGE ( 'NONE', *, *, #835, .T. ) ;
#648 = CIRCLE ( 'NONE', #892, 0.2550000000000000044 ) ;
#649 = CIRCLE ( 'NONE', #552, 1.609365052918086292 ) ;
#650 = DIRECTION ( 'NONE',  ( 1.000000000000000000, -0.000000000000000000, -0.000000000000000000 ) ) ;
#651 = PRESENTATION_LAYER_ASSIGNMENT (  '', '', ( #418 ) ) ;
#652 = PRESENTATION_LAYER_ASSIGNMENT (  '', '', ( #1131 ) ) ;
#653 = EDGE_CURVE ( 'NONE', #261, #337, #503, .T. ) ;
#654 = FILL_AREA_STYLE ('',( #299 ) ) ;
#655 = EDGE_LOOP ( 'NONE', ( #808, #1112, #818, #665, #573, #948 ) ) ;
#656 = CYLINDRICAL_SURFACE ( 'NONE', #1106, 0.2549999999999999489 ) ;
#657 = SPHERICAL_SURFACE ( 'NONE', #1075, 1.609365052918086070 ) ;
#658 = EDGE_CURVE ( 'NONE', #256, #229, #571, .T. ) ;
#659 = ORIENTED_EDGE ( 'NONE', *, *, #812, .F. ) ;
#660 = DIRECTION ( 'NONE',  ( 0.000000000000000000, 0.000000000000000000, -1.000000000000000000 ) ) ;
#661 = EDGE_CURVE ( 'NONE', #483, #499, #957, .T. ) ;
#662 =( LENGTH_UNIT ( ) NAMED_UNIT ( * ) SI_UNIT ( .MILLI., .METRE. ) );
#663 = CIRCLE ( 'NONE', #452, 0.2549999999999999489 ) ;
#664 =( NAMED_UNIT ( * ) SI_UNIT ( $, .STERADIAN. ) SOLID_ANGLE_UNIT ( ) );
#665 = ORIENTED_EDGE ( 'NONE', *, *, #168, .T. ) ;
#666 = CARTESIAN_POINT ( 'NONE',  ( 1.804968851620623482, 2.609365052918086292, 0.000000000000000000 ) ) ;
#667 = AXIS2_PLACEMENT_3D ( 'NONE', #595, #226, #931 ) ;
#668 = ORIENTED_EDGE ( 'NONE', *, *, #497, .F. ) ;
#669 = DIRECTION ( 'NONE',  ( 1.000000000000000000, 0.000000000000000000, 0.000000000000000000 ) ) ;
#670 = PRODUCT_DEFINITION_SHAPE ( 'NONE', 'NONE',  #373 ) ;
#671 = FACE_OUTER_BOUND ( 'NONE', #521, .T. ) ;
#672 =( NAMED_UNIT ( * ) PLANE_ANGLE_UNIT ( ) SI_UNIT ( $, .RADIAN. ) );
#673 = VERTEX_POINT ( 'NONE', #863 ) ;
#674 =( NAMED_UNIT ( * ) SI_UNIT ( $, .STERADIAN. ) SOLID_ANGLE_UNIT ( ) );
#675 = DIRECTION ( 'NONE',  ( 2.832769448823989808E-16, -1.000000000000000000, 0.000000000000000000 ) ) ;
#676 = FILL_AREA_STYLE_COLOUR ( '', #1137 ) ;
#677 = MECHANICAL_DESIGN_GEOMETRIC_PRESENTATION_REPRESENTATION (  '', ( #116 ), #95 ) ;
#678 = PRESENTATION_LAYER_ASSIGNMENT (  '', '', ( #387 ) ) ;
#679 = SURFACE_SIDE_STYLE ('',( #869 ) ) ;
#680 = EDGE_CURVE ( 'NONE', #1120, #261, #302, .T. ) ;
#681 =( GEOMETRIC_REPRESENTATION_CONTEXT ( 3 ) GLOBAL_UNCERTAINTY_ASSIGNED_CONTEXT ( ( #489 ) ) GLOBAL_UNIT_ASSIGNED_CONTEXT ( ( #662, #508, #1092 ) ) REPRESENTATION_CONTEXT ( 'NONE', 'WORKASPACE' ) );
#682 = ORIENTED_EDGE ( 'NONE', *, *, #1063, .F. ) ;
#683 = COLOUR_RGB ( '',0.8980392156862745390, 0.9176470588235293713, 0.9294117647058823817 ) ;
#684 = ORIENTED_EDGE ( 'NONE', *, *, #192, .F. ) ;
#685 =( NAMED_UNIT ( * ) SI_UNIT ( $, .STERADIAN. ) SOLID_ANGLE_UNIT ( ) );
#686 = ADVANCED_FACE ( 'NONE', ( #671 ), #609, .T. ) ;
#687 = PRESENTATION_LAYER_ASSIGNMENT (  '', '', ( #1037 ) ) ;
#688 =( LENGTH_UNIT ( ) NAMED_UNIT ( * ) SI_UNIT ( .MILLI., .METRE. ) );
#689 = AXIS2_PLACEMENT_3D ( 'NONE', #530, #695, #1110 ) ;
#690 = PRODUCT ( 'Capacitor Ceramic No Polarity axial 25.40', 'Capacitor Ceramic No Polarity axial 25.40', '', ( #64 ) ) ;
#691 = EDGE_LOOP ( 'NONE', ( #61, #788, #577, #68, #355, #861 ) ) ;
#692 = CARTESIAN_POINT ( 'NONE',  ( 12.70000000000000284, 1.609365052918086292, 0.2549999999999999489 ) ) ;
#693 = EDGE_CURVE ( 'NONE', #386, #673, #606, .T. ) ;
#694 = SURFACE_SIDE_STYLE ('',( #167 ) ) ;
#695 = DIRECTION ( 'NONE',  ( -0.000000000000000000, -0.000000000000000000, -1.000000000000000000 ) ) ;
#696 = ORIENTED_EDGE ( 'NONE', *, *, #20, .F. ) ;
#697 =( NAMED_UNIT ( * ) PLANE_ANGLE_UNIT ( ) SI_UNIT ( $, .RADIAN. ) );
#698 = CARTESIAN_POINT ( 'NONE',  ( -12.70000000000000284, 1.609365052918086292, -0.2549999999999999489 ) ) ;
#699 = DIRECTION ( 'NONE',  ( -1.000000000000000000, 0.000000000000000000, 0.000000000000000000 ) ) ;
#700 = AXIS2_PLACEMENT_3D ( 'NONE', #384, #282, #366 ) ;
#701 = DIRECTION ( 'NONE',  ( 0.000000000000000000, -1.000000000000000000, -1.224646799147353207E-16 ) ) ;
#702 = DIRECTION ( 'NONE',  ( -1.000000000000000000, -0.000000000000000000, -0.000000000000000000 ) ) ;
#703 = CIRCLE ( 'NONE', #202, 0.2549999999999999489 ) ;
#704 = ORIENTED_EDGE ( 'NONE', *, *, #938, .T. ) ;
#705 = CARTESIAN_POINT ( 'NONE',  ( -12.70000000000000284, 1.609365052918086292, 0.000000000000000000 ) ) ;
#706 = SURFACE_STYLE_FILL_AREA ( #1153 ) ;
#707 = DIRECTION ( 'NONE',  ( -1.000000000000000000, -0.000000000000000000, -0.000000000000000000 ) ) ;
#708 = COLOUR_RGB ( '',0.7529411764705882248, 0.7529411764705882248, 0.000000000000000000 ) ;
#709 = ORIENTED_EDGE ( 'NONE', *, *, #283, .F. ) ;
#710 = FILL_AREA_STYLE ('',( #493 ) ) ;
#711 = UNCERTAINTY_MEASURE_WITH_UNIT (LENGTH_MEASURE( 1.000000000000000082E-05 ), #688, 'distance_accuracy_value', 'NONE');
#712 = EDGE_CURVE ( 'NONE', #673, #190, #703, .T. ) ;
#713 = DIRECTION ( 'NONE',  ( 0.000000000000000000, 0.000000000000000000, 1.000000000000000000 ) ) ;
#714 = CIRCLE ( 'NONE', #827, 0.4047061138363222121 ) ;
#715 =( GEOMETRIC_REPRESENTATION_CONTEXT ( 3 ) GLOBAL_UNCERTAINTY_ASSIGNED_CONTEXT ( ( #264 ) ) GLOBAL_UNIT_ASSIGNED_CONTEXT ( ( #254, #779, #170 ) ) REPRESENTATION_CONTEXT ( 'NONE', 'WORKASPACE' ) );
#716 = CYLINDRICAL_SURFACE ( 'NONE', #700, 0.2549999999999999489 ) ;
#717 =( GEOMETRIC_REPRESENTATION_CONTEXT ( 3 ) GLOBAL_UNCERTAINTY_ASSIGNED_CONTEXT ( ( #898 ) ) GLOBAL_UNIT_ASSIGNED_CONTEXT ( ( #617, #1121, #347 ) ) REPRESENTATION_CONTEXT ( 'NONE', 'WORKASPACE' ) );
#718 = DIRECTION ( 'NONE',  ( 0.000000000000000000, 0.000000000000000000, 1.000000000000000000 ) ) ;
#719 = SURFACE_SIDE_STYLE ('',( #1 ) ) ;
#720 = VECTOR ( 'NONE', #1093, 1000.000000000000000 ) ;
#721 =( NAMED_UNIT ( * ) PLANE_ANGLE_UNIT ( ) SI_UNIT ( $, .RADIAN. ) );
#722 = DIRECTION ( 'NONE',  ( 0.000000000000000000, 0.000000000000000000, -1.000000000000000000 ) ) ;
#723 = ORIENTED_EDGE ( 'NONE', *, *, #528, .F. ) ;
#724 = COLOUR_RGB ( '',0.8980392156862745390, 0.9176470588235293713, 0.9294117647058823817 ) ;
#725 = EDGE_CURVE ( 'NONE', #871, #439, #1147, .T. ) ;
#726 = CIRCLE ( 'NONE', #837, 1.609365052918086070 ) ;
#727 = CARTESIAN_POINT ( 'NONE',  ( 12.70000000000000284, 1.609365052918086292, -0.2549999999999999489 ) ) ;
#728 = DIRECTION ( 'NONE',  ( 0.000000000000000000, 0.000000000000000000, -1.000000000000000000 ) ) ;
#729 = CARTESIAN_POINT ( 'NONE',  ( -11.70000000000000284, 1.609365052918086292, -3.122849337825749926E-17 ) ) ;
#730 = VERTEX_POINT ( 'NONE', #883 ) ;
#731 = CIRCLE ( 'NONE', #888, 0.2549999999999999489 ) ;
#732 = EDGE_CURVE ( 'NONE', #979, #526, #171, .T. ) ;
#733 =( LENGTH_UNIT ( ) NAMED_UNIT ( * ) SI_UNIT ( .MILLI., .METRE. ) );
#734 = DIRECTION ( 'NONE',  ( 1.000000000000000000, -0.000000000000000000, -0.000000000000000000 ) ) ;
#735 = MECHANICAL_DESIGN_GEOMETRIC_PRESENTATION_REPRESENTATION (  '', ( #346 ), #293 ) ;
#736 = PRESENTATION_STYLE_ASSIGNMENT (( #559 ) ) ;
#737 = AXIS2_PLACEMENT_3D ( 'NONE', #389, #1081, #96 ) ;
#738 = ORIENTED_EDGE ( 'NONE', *, *, #192, .T. ) ;
#739 = AXIS2_PLACEMENT_3D ( 'NONE', #1042, #976, #58 ) ;
#740 = COLOUR_RGB ( '',0.8980392156862745390, 0.9176470588235293713, 0.9294117647058823817 ) ;
#741 = FACE_OUTER_BOUND ( 'NONE', #438, .T. ) ;
#742 = AXIS2_PLACEMENT_3D ( 'NONE', #128, #834, #825 ) ;
#743 = UNCERTAINTY_MEASURE_WITH_UNIT (LENGTH_MEASURE( 1.000000000000000082E-05 ), #733, 'distance_accuracy_value', 'NONE');
#744 = SURFACE_STYLE_FILL_AREA ( #398 ) ;
#745 = COLOUR_RGB ( '',0.8980392156862745390, 0.9176470588235293713, 0.9294117647058823817 ) ;
#746 = CARTESIAN_POINT ( 'NONE',  ( 3.362617346942188501, 2.609365052918086292, 0.4047061138363206023 ) ) ;
#747 = VERTEX_POINT ( 'NONE', #81 ) ;
#748 = FILL_AREA_STYLE_COLOUR ( '', #22 ) ;
#749 = DIRECTION ( 'NONE',  ( 0.000000000000000000, -1.000000000000000000, 0.000000000000000000 ) ) ;
#750 =( NAMED_UNIT ( * ) PLANE_ANGLE_UNIT ( ) SI_UNIT ( $, .RADIAN. ) );
#751 = PRESENTATION_STYLE_ASSIGNMENT (( #500 ) ) ;
#752 = DIRECTION ( 'NONE',  ( -1.000000000000000000, -0.000000000000000000, -0.000000000000000000 ) ) ;
#753 = ORIENTED_EDGE ( 'NONE', *, *, #153, .T. ) ;
#754 = VERTEX_POINT ( 'NONE', #536 ) ;
#755 = PRESENTATION_LAYER_ASSIGNMENT (  '', '', ( #618 ) ) ;
#756 = FILL_AREA_STYLE ('',( #945 ) ) ;
#757 = ORIENTED_EDGE ( 'NONE', *, *, #574, .F. ) ;
#758 = ORIENTED_EDGE ( 'NONE', *, *, #372, .T. ) ;
#759 = CARTESIAN_POINT ( 'NONE',  ( 1.804968851620623482, 2.609365052918086292, 1.609365052918086292 ) ) ;
#760 = COLOUR_RGB ( '',0.8980392156862745390, 0.9176470588235293713, 0.9294117647058823817 ) ;
#761 = AXIS2_PLACEMENT_3D ( 'NONE', #140, #1027, #437 ) ;
#762 = ORIENTED_EDGE ( 'NONE', *, *, #680, .F. ) ;
#763 = DIRECTION ( 'NONE',  ( 0.000000000000000000, 0.000000000000000000, 1.000000000000000000 ) ) ;
#764 = CARTESIAN_POINT ( 'NONE',  ( 11.70000000000000284, 2.609365052918086292, -0.2549999999999999489 ) ) ;
#765 = COLOUR_RGB ( '',0.7529411764705882248, 0.7529411764705882248, 0.000000000000000000 ) ;
#766 = ADVANCED_FACE ( 'NONE', ( #447 ), #1047, .T. ) ;
#767 = ORIENTED_EDGE ( 'NONE', *, *, #1013, .T. ) ;
#768 = DIRECTION ( 'NONE',  ( -1.000000000000000000, -0.000000000000000000, -0.000000000000000000 ) ) ;
#769 = DIRECTION ( 'NONE',  ( 0.000000000000000000, 0.000000000000000000, 1.000000000000000000 ) ) ;
#770 = VECTOR ( 'NONE', #961, 1000.000000000000000 ) ;
#771 = MECHANICAL_DESIGN_GEOMETRIC_PRESENTATION_REPRESENTATION (  '', ( #276 ), #121 ) ;
#772 = AXIS2_PLACEMENT_3D ( 'NONE', #1045, #421, #243 ) ;
#773 = ORIENTED_EDGE ( 'NONE', *, *, #1125, .T. ) ;
#774 = SURFACE_SIDE_STYLE ('',( #430 ) ) ;
#775 = PRESENTATION_STYLE_ASSIGNMENT (( #54 ) ) ;
#776 = EDGE_LOOP ( 'NONE', ( #781, #34, #1126, #300, #234, #476 ) ) ;
#777 = AXIS2_PLACEMENT_3D ( 'NONE', #986, #481, #728 ) ;
#778 = EDGE_CURVE ( 'NONE', #415, #638, #236, .T. ) ;
#779 =( NAMED_UNIT ( * ) PLANE_ANGLE_UNIT ( ) SI_UNIT ( $, .RADIAN. ) );
#780 = PRESENTATION_LAYER_ASSIGNMENT (  '', '', ( #1070 ) ) ;
#781 = ORIENTED_EDGE ( 'NONE', *, *, #92, .F. ) ;
#782 = AXIS2_PLACEMENT_3D ( 'NONE', #887, #544, #181 ) ;
#783 = CARTESIAN_POINT ( 'NONE',  ( -12.70000000000000284, 1.609365052918086292, 0.000000000000000000 ) ) ;
#784 = FILL_AREA_STYLE_COLOUR ( '', #1140 ) ;
#785 = DIRECTION ( 'NONE',  ( -1.000000000000000000, -0.000000000000000000, -0.000000000000000000 ) ) ;
#786 = FILL_AREA_STYLE_COLOUR ( '', #745 ) ;
#787 =( NAMED_UNIT ( * ) SI_UNIT ( $, .STERADIAN. ) SOLID_ANGLE_UNIT ( ) );
#788 = ORIENTED_EDGE ( 'NONE', *, *, #242, .T. ) ;
#789 = DIRECTION ( 'NONE',  ( -0.000000000000000000, -0.000000000000000000, -1.000000000000000000 ) ) ;
#790 = TOROIDAL_SURFACE ( 'NONE', #965, 0.4550000000000005151, 0.2000000000000004829 ) ;
#791 = FILL_AREA_STYLE ('',( #535 ) ) ;
#792 = SURFACE_STYLE_FILL_AREA ( #269 ) ;
#793 = AXIS2_PLACEMENT_3D ( 'NONE', #99, #718, #1069 ) ;
#794 = FILL_AREA_STYLE_COLOUR ( '', #553 ) ;
#795 = ORIENTED_EDGE ( 'NONE', *, *, #1040, .F. ) ;
#796 = CIRCLE ( 'NONE', #461, 0.4047061138363226562 ) ;
#797 = ORIENTED_EDGE ( 'NONE', *, *, #1013, .F. ) ;
#798 = VECTOR ( 'NONE', #541, 1000.000000000000000 ) ;
#799 = DIRECTION ( 'NONE',  ( -1.000000000000000000, -0.000000000000000000, -0.000000000000000000 ) ) ;
#800 = CYLINDRICAL_SURFACE ( 'NONE', #921, 0.2549999999999999489 ) ;
#801 = ORIENTED_EDGE ( 'NONE', *, *, #725, .F. ) ;
#802 = DIRECTION ( 'NONE',  ( 1.000000000000000000, -0.000000000000000000, -0.000000000000000000 ) ) ;
#803 = CARTESIAN_POINT ( 'NONE',  ( -12.70000000000000284, 1.609365052918086292, 0.2549999999999999489 ) ) ;
#804 = FILL_AREA_STYLE_COLOUR ( '', #760 ) ;
#805 = EDGE_CURVE ( 'NONE', #940, #754, #649, .T. ) ;
#806 = PRESENTATION_LAYER_ASSIGNMENT (  '', '', ( #94 ) ) ;
#807 = AXIS2_PLACEMENT_3D ( 'NONE', #591, #306, #941 ) ;
#808 = ORIENTED_EDGE ( 'NONE', *, *, #960, .F. ) ;
#809 = CARTESIAN_POINT ( 'NONE',  ( -11.70000000000000284, 2.609365052918086292, 0.000000000000000000 ) ) ;
#810 = FILL_AREA_STYLE ('',( #396 ) ) ;
#811 =( NAMED_UNIT ( * ) SI_UNIT ( $, .STERADIAN. ) SOLID_ANGLE_UNIT ( ) );
#812 = EDGE_CURVE ( 'NONE', #229, #133, #139, .T. ) ;
#813 = AXIS2_PLACEMENT_3D ( 'NONE', #974, #527, #867 ) ;
#814 = MECHANICAL_DESIGN_GEOMETRIC_PRESENTATION_REPRESENTATION (  '', ( #180 ), #619 ) ;
#815 = FACE_OUTER_BOUND ( 'NONE', #411, .T. ) ;
#816 = PRESENTATION_STYLE_ASSIGNMENT (( #371 ) ) ;
#817 = DIRECTION ( 'NONE',  ( 0.000000000000000000, 0.000000000000000000, -1.000000000000000000 ) ) ;
#818 = ORIENTED_EDGE ( 'NONE', *, *, #506, .T. ) ;
#819 =( GEOMETRIC_REPRESENTATION_CONTEXT ( 3 ) GLOBAL_UNCERTAINTY_ASSIGNED_CONTEXT ( ( #15 ) ) GLOBAL_UNIT_ASSIGNED_CONTEXT ( ( #188, #721, #910 ) ) REPRESENTATION_CONTEXT ( 'NONE', 'WORKASPACE' ) );
#820 =( NAMED_UNIT ( * ) PLANE_ANGLE_UNIT ( ) SI_UNIT ( $, .RADIAN. ) );
#821 = UNCERTAINTY_MEASURE_WITH_UNIT (LENGTH_MEASURE( 1.000000000000000082E-05 ), #221, 'distance_accuracy_value', 'NONE');
#822 = DIRECTION ( 'NONE',  ( 0.000000000000000000, 0.000000000000000000, -1.000000000000000000 ) ) ;
#823 = EDGE_CURVE ( 'NONE', #190, #829, #1067, .T. ) ;
#824 = ORIENTED_EDGE ( 'NONE', *, *, #778, .T. ) ;
#825 = DIRECTION ( 'NONE',  ( 0.000000000000000000, 0.000000000000000000, 1.000000000000000000 ) ) ;
#826 = CARTESIAN_POINT ( 'NONE',  ( -11.70000000000000284, 2.354365052918086398, -3.122849337825749310E-17 ) ) ;
#827 = AXIS2_PLACEMENT_3D ( 'NONE', #616, #865, #952 ) ;
#828 = CIRCLE ( 'NONE', #1031, 1.609365052918086070 ) ;
#829 = VERTEX_POINT ( 'NONE', #165 ) ;
#830 = CIRCLE ( 'NONE', #376, 0.2549999999999999489 ) ;
#831 = MECHANICAL_DESIGN_GEOMETRIC_PRESENTATION_REPRESENTATION (  '', ( #1085 ), #873 ) ;
#832 = PRESENTATION_STYLE_ASSIGNMENT (( #215 ) ) ;
#833 = ORIENTED_EDGE ( 'NONE', *, *, #283, .T. ) ;
#834 = DIRECTION ( 'NONE',  ( -1.000000000000000000, -0.000000000000000000, -0.000000000000000000 ) ) ;
#835 = EDGE_CURVE ( 'NONE', #429, #730, #1129, .T. ) ;
#836 = DIRECTION ( 'NONE',  ( 0.000000000000000000, 0.000000000000000000, 1.000000000000000000 ) ) ;
#837 = AXIS2_PLACEMENT_3D ( 'NONE', #206, #575, #918 ) ;
#838 =( NAMED_UNIT ( * ) SI_UNIT ( $, .STERADIAN. ) SOLID_ANGLE_UNIT ( ) );
#839 = CARTESIAN_POINT ( 'NONE',  ( -12.70000000000000284, -3.000000000000000000, 0.000000000000000000 ) ) ;
#840 = EDGE_LOOP ( 'NONE', ( #8, #462, #762, #767, #682 ) ) ;
#841 = UNCERTAINTY_MEASURE_WITH_UNIT (LENGTH_MEASURE( 1.000000000000000082E-05 ), #160, 'distance_accuracy_value', 'NONE');
#842 = ORIENTED_EDGE ( 'NONE', *, *, #92, .T. ) ;
#843 = VECTOR ( 'NONE', #749, 1000.000000000000000 ) ;
#844 = DIRECTION ( 'NONE',  ( -1.000000000000000000, -0.000000000000000000, -0.000000000000000000 ) ) ;
#845 = ORIENTED_EDGE ( 'NONE', *, *, #385, .T. ) ;
#846 = ADVANCED_FACE ( 'NONE', ( #540 ), #297, .T. ) ;
#847 = DIRECTION ( 'NONE',  ( -0.000000000000000000, 0.000000000000000000, 1.000000000000000000 ) ) ;
#848 = CLOSED_SHELL ( 'NONE', ( #271, #846, #1016, #1091, #686, #857, #410, #1109, #470, #467, #103, #364, #407, #310, #62, #1096, #322, #49, #615, #492, #766, #900, #644, #16 ) ) ;
#849 = ORIENTED_EDGE ( 'NONE', *, *, #1132, .T. ) ;
#850 = CIRCLE ( 'NONE', #80, 0.2549999999999999489 ) ;
#851 = MECHANICAL_DESIGN_GEOMETRIC_PRESENTATION_REPRESENTATION (  '', ( #1032 ), #715 ) ;
#852 = PRESENTATION_STYLE_ASSIGNMENT (( #248 ) ) ;
#853 = CARTESIAN_POINT ( 'NONE',  ( -10.09675116564010722, 2.609365052918086292, 0.000000000000000000 ) ) ;
#854 = ORIENTED_EDGE ( 'NONE', *, *, #333, .T. ) ;
#855 = SURFACE_STYLE_FILL_AREA ( #954 ) ;
#856 = AXIS2_PLACEMENT_3D ( 'NONE', #909, #984, #1050 ) ;
#857 = ADVANCED_FACE ( 'NONE', ( #603 ), #71, .T. ) ;
#858 = STYLED_ITEM ( 'NONE', ( #852 ), #644 ) ;
#859 =( NAMED_UNIT ( * ) PLANE_ANGLE_UNIT ( ) SI_UNIT ( $, .RADIAN. ) );
#860 = CARTESIAN_POINT ( 'NONE',  ( -1.804968851620623482, 4.218730105836172584, 1.970903760715744989E-16 ) ) ;
#861 = ORIENTED_EDGE ( 'NONE', *, *, #1135, .T. ) ;
#862 = SURFACE_SIDE_STYLE ('',( #246 ) ) ;
#863 = CARTESIAN_POINT ( 'NONE',  ( 12.44500000000000206, 1.609365052918086292, 3.122849337825728356E-17 ) ) ;
#864 = ORIENTED_EDGE ( 'NONE', *, *, #459, .T. ) ;
#865 = DIRECTION ( 'NONE',  ( -1.000000000000000000, -0.000000000000000000, -0.000000000000000000 ) ) ;
#866 = ORIENTED_EDGE ( 'NONE', *, *, #578, .T. ) ;
#867 = DIRECTION ( 'NONE',  ( 1.000000000000000000, 0.000000000000000000, 0.000000000000000000 ) ) ;
#868 =( NAMED_UNIT ( * ) SI_UNIT ( $, .STERADIAN. ) SOLID_ANGLE_UNIT ( ) );
#869 = SURFACE_STYLE_FILL_AREA ( #1117 ) ;
#870 = AXIS2_PLACEMENT_3D ( 'NONE', #1133, #225, #626 ) ;
#871 = VERTEX_POINT ( 'NONE', #962 ) ;
#872 = PRESENTATION_STYLE_ASSIGNMENT (( #878 ) ) ;
#873 =( GEOMETRIC_REPRESENTATION_CONTEXT ( 3 ) GLOBAL_UNCERTAINTY_ASSIGNED_CONTEXT ( ( #630 ) ) GLOBAL_UNIT_ASSIGNED_CONTEXT ( ( #44, #880, #685 ) ) REPRESENTATION_CONTEXT ( 'NONE', 'WORKASPACE' ) );
#874 = PRESENTATION_STYLE_ASSIGNMENT (( #48 ) ) ;
#875 = FILL_AREA_STYLE_COLOUR ( '', #159 ) ;
#876 =( LENGTH_UNIT ( ) NAMED_UNIT ( * ) SI_UNIT ( .MILLI., .METRE. ) );
#877 =( GEOMETRIC_REPRESENTATION_CONTEXT ( 3 ) GLOBAL_UNCERTAINTY_ASSIGNED_CONTEXT ( ( #523 ) ) GLOBAL_UNIT_ASSIGNED_CONTEXT ( ( #112, #313, #664 ) ) REPRESENTATION_CONTEXT ( 'NONE', 'WORKASPACE' ) );
#878 = SURFACE_STYLE_USAGE ( .BOTH. , #154 ) ;
#879 = EDGE_CURVE ( 'NONE', #399, #229, #83, .T. ) ;
#880 =( NAMED_UNIT ( * ) PLANE_ANGLE_UNIT ( ) SI_UNIT ( $, .RADIAN. ) );
#881 = CARTESIAN_POINT ( 'NONE',  ( 12.70000000000000284, -3.000000000000000000, -0.2549999999999999489 ) ) ;
#882 = DIRECTION ( 'NONE',  ( 0.000000000000000000, 0.000000000000000000, 1.000000000000000000 ) ) ;
#883 = CARTESIAN_POINT ( 'NONE',  ( 3.556190395207061261, 2.609365052918086292, -0.2549999999999999489 ) ) ;
#884 = PLANE ( 'NONE',  #108 ) ;
#885 = CARTESIAN_POINT ( 'NONE',  ( -10.09675116564010722, 2.609365052918086292, 1.609365052918086292 ) ) ;
#886 = AXIS2_PLACEMENT_3D ( 'NONE', #853, #250, #142 ) ;
#887 = CARTESIAN_POINT ( 'NONE',  ( 1.804968851620622594, 2.609365052918086292, 0.000000000000000000 ) ) ;
#888 = AXIS2_PLACEMENT_3D ( 'NONE', #211, #33, #586 ) ;
#889 = SURFACE_STYLE_FILL_AREA ( #791 ) ;
#890 = FILL_AREA_STYLE ('',( #786 ) ) ;
#891 = CARTESIAN_POINT ( 'NONE',  ( 3.556190395207061261, 2.609365052918086292, -0.4550000000000005151 ) ) ;
#892 = AXIS2_PLACEMENT_3D ( 'NONE', #992, #91, #906 ) ;
#893 =( LENGTH_UNIT ( ) NAMED_UNIT ( * ) SI_UNIT ( .MILLI., .METRE. ) );
#894 =( GEOMETRIC_REPRESENTATION_CONTEXT ( 3 ) GLOBAL_UNCERTAINTY_ASSIGNED_CONTEXT ( ( #1058 ) ) GLOBAL_UNIT_ASSIGNED_CONTEXT ( ( #1148, #623, #67 ) ) REPRESENTATION_CONTEXT ( 'NONE', 'WORKASPACE' ) );
#895 = ORIENTED_EDGE ( 'NONE', *, *, #823, .T. ) ;
#896 = CARTESIAN_POINT ( 'NONE',  ( 3.362617346942188501, 2.204658939081763691, 0.000000000000000000 ) ) ;
#897 = CIRCLE ( 'NONE', #260, 0.2550000000000000044 ) ;
#898 = UNCERTAINTY_MEASURE_WITH_UNIT (LENGTH_MEASURE( 1.000000000000000082E-05 ), #617, 'distance_accuracy_value', 'NONE');
#899 =( NAMED_UNIT ( * ) SI_UNIT ( $, .STERADIAN. ) SOLID_ANGLE_UNIT ( ) );
#900 = ADVANCED_FACE ( 'NONE', ( #442 ), #583, .T. ) ;
#901 = STYLED_ITEM ( 'NONE', ( #991 ), #322 ) ;
#902 = CARTESIAN_POINT ( 'NONE',  ( -11.70000000000000284, 2.609365052918086292, 0.000000000000000000 ) ) ;
#903 = EDGE_CURVE ( 'NONE', #754, #292, #102, .T. ) ;
#904 =( NAMED_UNIT ( * ) PLANE_ANGLE_UNIT ( ) SI_UNIT ( $, .RADIAN. ) );
#905 = FACE_OUTER_BOUND ( 'NONE', #776, .T. ) ;
#906 = DIRECTION ( 'NONE',  ( 0.000000000000000000, 0.000000000000000000, 1.000000000000000000 ) ) ;
#907 = ORIENTED_EDGE ( 'NONE', *, *, #20, .T. ) ;
#908 = SPHERICAL_SURFACE ( 'NONE', #793, 1.609365052918086070 ) ;
#909 = CARTESIAN_POINT ( 'NONE',  ( 1.804968851620623482, 2.609365052918086292, 0.000000000000000000 ) ) ;
#910 =( NAMED_UNIT ( * ) SI_UNIT ( $, .STERADIAN. ) SOLID_ANGLE_UNIT ( ) );
#911 = CIRCLE ( 'NONE', #315, 0.2549999999999999489 ) ;
#912 = EDGE_LOOP ( 'NONE', ( #218, #569, #494, #566, #824 ) ) ;
#913 = AXIS2_PLACEMENT_3D ( 'NONE', #562, #548, #290 ) ;
#914 = FILL_AREA_STYLE_COLOUR ( '', #1116 ) ;
#915 = ORIENTED_EDGE ( 'NONE', *, *, #148, .T. ) ;
#916 =( NAMED_UNIT ( * ) PLANE_ANGLE_UNIT ( ) SI_UNIT ( $, .RADIAN. ) );
#917 = SURFACE_STYLE_USAGE ( .BOTH. , #719 ) ;
#918 = DIRECTION ( 'NONE',  ( -1.000000000000000000, 0.000000000000000000, 0.000000000000000000 ) ) ;
#919 = LINE ( 'NONE', #115, #770 ) ;
#920 = CARTESIAN_POINT ( 'NONE',  ( -3.556190395207061261, 2.609365052918086292, 0.4550000000000005151 ) ) ;
#921 = AXIS2_PLACEMENT_3D ( 'NONE', #122, #1005, #822 ) ;
#922 = VERTEX_POINT ( 'NONE', #896 ) ;
#923 = AXIS2_PLACEMENT_3D ( 'NONE', #129, #927, #1108 ) ;
#924 = DIRECTION ( 'NONE',  ( -1.000000000000000000, -0.000000000000000000, -0.000000000000000000 ) ) ;
#925 = COLOUR_RGB ( '',0.8980392156862745390, 0.9176470588235293713, 0.9294117647058823817 ) ;
#926 = EDGE_CURVE ( 'NONE', #56, #415, #295, .T. ) ;
#927 = DIRECTION ( 'NONE',  ( 1.000000000000000000, 0.000000000000000000, 0.000000000000000000 ) ) ;
#928 = PRESENTATION_LAYER_ASSIGNMENT (  '', '', ( #276 ) ) ;
#929 = PRESENTATION_LAYER_ASSIGNMENT (  '', '', ( #185 ) ) ;
#930 = CARTESIAN_POINT ( 'NONE',  ( -1.804968851620623482, 2.609365052918086292, 0.000000000000000000 ) ) ;
#931 = DIRECTION ( 'NONE',  ( -1.000000000000000000, 0.000000000000000000, 0.000000000000000000 ) ) ;
#932 = EDGE_CURVE ( 'NONE', #426, #415, #1103, .T. ) ;
#933 = DIRECTION ( 'NONE',  ( 0.000000000000000000, 0.000000000000000000, 1.000000000000000000 ) ) ;
#934 = STYLED_ITEM ( 'NONE', ( #382 ), #629 ) ;
#935 = ORIENTED_EDGE ( 'NONE', *, *, #268, .T. ) ;
#936 = AXIS2_PLACEMENT_3D ( 'NONE', #450, #463, #266 ) ;
#937 = DIRECTION ( 'NONE',  ( 0.000000000000000000, 0.000000000000000000, -1.000000000000000000 ) ) ;
#938 = EDGE_CURVE ( 'NONE', #399, #979, #663, .T. ) ;
#939 = LINE ( 'NONE', #589, #843 ) ;
#940 = VERTEX_POINT ( 'NONE', #969 ) ;
#941 = DIRECTION ( 'NONE',  ( 0.000000000000000000, 0.000000000000000000, 1.000000000000000000 ) ) ;
#942 = EDGE_LOOP ( 'NONE', ( #316, #531, #753, #738, #307, #592 ) ) ;
#943 = MECHANICAL_DESIGN_GEOMETRIC_PRESENTATION_REPRESENTATION (  '', ( #341 ), #130 ) ;
#944 =( GEOMETRIC_REPRESENTATION_CONTEXT ( 3 ) GLOBAL_UNCERTAINTY_ASSIGNED_CONTEXT ( ( #547 ) ) GLOBAL_UNIT_ASSIGNED_CONTEXT ( ( #273, #184, #674 ) ) REPRESENTATION_CONTEXT ( 'NONE', 'WORKASPACE' ) );
#945 = FILL_AREA_STYLE_COLOUR ( '', #403 ) ;
#946 = DIRECTION ( 'NONE',  ( -2.832769448823989808E-16, -1.000000000000000000, -0.000000000000000000 ) ) ;
#947 = ORIENTED_EDGE ( 'NONE', *, *, #275, .F. ) ;
#948 = ORIENTED_EDGE ( 'NONE', *, *, #153, .F. ) ;
#949 = CIRCLE ( 'NONE', #1082, 0.2549999999999999489 ) ;
#950 = AXIS2_PLACEMENT_3D ( 'NONE', #1053, #262, #1136 ) ;
#951 = AXIS2_PLACEMENT_3D ( 'NONE', #145, #789, #699 ) ;
#952 = DIRECTION ( 'NONE',  ( 0.000000000000000000, 0.000000000000000000, 1.000000000000000000 ) ) ;
#953 = ORIENTED_EDGE ( 'NONE', *, *, #459, .F. ) ;
#954 = FILL_AREA_STYLE ('',( #434 ) ) ;
#955 = SURFACE_STYLE_FILL_AREA ( #408 ) ;
#956 = AXIS2_PLACEMENT_3D ( 'NONE', #53, #520, #162 ) ;
#957 = CIRCLE ( 'NONE', #336, 0.2549999999999999489 ) ;
#958 = DIRECTION ( 'NONE',  ( 0.000000000000000000, 0.000000000000000000, -1.000000000000000000 ) ) ;
#959 = CYLINDRICAL_SURFACE ( 'NONE', #201, 1.609365052918086292 ) ;
#960 = EDGE_CURVE ( 'NONE', #754, #543, #74, .T. ) ;
#961 = DIRECTION ( 'NONE',  ( 1.000000000000000000, -0.000000000000000000, -0.000000000000000000 ) ) ;
#962 = CARTESIAN_POINT ( 'NONE',  ( -12.70000000000000284, -3.000000000000000000, -0.2549999999999999489 ) ) ;
#963 = ORIENTED_EDGE ( 'NONE', *, *, #318, .T. ) ;
#964 = CARTESIAN_POINT ( 'NONE',  ( 11.70000000000000284, 2.609365052918086292, 0.000000000000000000 ) ) ;
#965 = AXIS2_PLACEMENT_3D ( 'NONE', #28, #317, #581 ) ;
#966 = ORIENTED_EDGE ( 'NONE', *, *, #594, .F. ) ;
#967 =( NAMED_UNIT ( * ) PLANE_ANGLE_UNIT ( ) SI_UNIT ( $, .RADIAN. ) );
#968 = SURFACE_STYLE_USAGE ( .BOTH. , #862 ) ;
#969 = CARTESIAN_POINT ( 'NONE',  ( 1.804968851620623482, 4.218730105836172584, 1.970903760715744989E-16 ) ) ;
#970 = DIRECTION ( 'NONE',  ( 1.000000000000000000, -0.000000000000000000, -0.000000000000000000 ) ) ;
#971 = CIRCLE ( 'NONE', #479, 0.4047061138363222121 ) ;
#972 = ORIENTED_EDGE ( 'NONE', *, *, #879, .F. ) ;
#973 = FACE_OUTER_BOUND ( 'NONE', #104, .T. ) ;
#974 = CARTESIAN_POINT ( 'NONE',  ( -11.70000000000000284, 1.609365052918086292, 0.000000000000000000 ) ) ;
#975 = STYLED_ITEM ( 'NONE', ( #816 ), #310 ) ;
#976 = DIRECTION ( 'NONE',  ( -0.000000000000000000, 0.000000000000000000, 1.000000000000000000 ) ) ;
#977 = PRESENTATION_STYLE_ASSIGNMENT (( #473 ) ) ;
#978 = DIRECTION ( 'NONE',  ( 0.000000000000000000, 0.000000000000000000, -1.000000000000000000 ) ) ;
#979 = VERTEX_POINT ( 'NONE', #1028 ) ;
#980 = CYLINDRICAL_SURFACE ( 'NONE', #1084, 0.2549999999999999489 ) ;
#981 = CARTESIAN_POINT ( 'NONE',  ( -3.362617346942187613, 2.609365052918086292, 0.000000000000000000 ) ) ;
#982 = UNCERTAINTY_MEASURE_WITH_UNIT (LENGTH_MEASURE( 1.000000000000000082E-05 ), #380, 'distance_accuracy_value', 'NONE');
#983 = VERTEX_POINT ( 'NONE', #158 ) ;
#984 = DIRECTION ( 'NONE',  ( -1.000000000000000000, -0.000000000000000000, -0.000000000000000000 ) ) ;
#985 =( GEOMETRIC_REPRESENTATION_CONTEXT ( 3 ) GLOBAL_UNCERTAINTY_ASSIGNED_CONTEXT ( ( #304 ) ) GLOBAL_UNIT_ASSIGNED_CONTEXT ( ( #1090, #1095, #485 ) ) REPRESENTATION_CONTEXT ( 'NONE', 'WORKASPACE' ) );
#986 = CARTESIAN_POINT ( 'NONE',  ( 12.70000000000000284, -3.000000000000000000, 0.000000000000000000 ) ) ;
#987 = CARTESIAN_POINT ( 'NONE',  ( 1.804968851620623482, 2.609365052918086292, 0.000000000000000000 ) ) ;
#988 = EDGE_LOOP ( 'NONE', ( #723, #157, #1029, #1014, #1074 ) ) ;
#989 = EDGE_CURVE ( 'NONE', #106, #426, #214, .T. ) ;
#990 = COLOUR_RGB ( '',0.8980392156862745390, 0.9176470588235293713, 0.9294117647058823817 ) ;
#991 = PRESENTATION_STYLE_ASSIGNMENT (( #631 ) ) ;
#992 = CARTESIAN_POINT ( 'NONE',  ( -3.556190395207061261, 2.609365052918086292, 0.000000000000000000 ) ) ;
#993 = STYLED_ITEM ( 'NONE', ( #977 ), #470 ) ;
#994 =( GEOMETRIC_REPRESENTATION_CONTEXT ( 3 ) GLOBAL_UNCERTAINTY_ASSIGNED_CONTEXT ( ( #841 ) ) GLOBAL_UNIT_ASSIGNED_CONTEXT ( ( #160, #1043, #1034 ) ) REPRESENTATION_CONTEXT ( 'NONE', 'WORKASPACE' ) );
#995 =( LENGTH_UNIT ( ) NAMED_UNIT ( * ) SI_UNIT ( .MILLI., .METRE. ) );
#996 = CARTESIAN_POINT ( 'NONE',  ( 1.804968851620623482, 1.000000000000000000, 0.000000000000000000 ) ) ;
#997 = SURFACE_STYLE_FILL_AREA ( #654 ) ;
#998 = FILL_AREA_STYLE ('',( #1155 ) ) ;
#999 = AXIS2_PLACEMENT_3D ( 'NONE', #72, #769, #443 ) ;
#1000 = SURFACE_SIDE_STYLE ('',( #997 ) ) ;
#1001 = ORIENTED_EDGE ( 'NONE', *, *, #51, .T. ) ;
#1002 = UNCERTAINTY_MEASURE_WITH_UNIT (LENGTH_MEASURE( 1.000000000000000082E-05 ), #424, 'distance_accuracy_value', 'NONE');
#1003 =( NAMED_UNIT ( * ) SI_UNIT ( $, .STERADIAN. ) SOLID_ANGLE_UNIT ( ) );
#1004 = AXIS2_PLACEMENT_3D ( 'NONE', #1154, #640, #474 ) ;
#1005 = DIRECTION ( 'NONE',  ( 0.000000000000000000, -1.000000000000000000, 0.000000000000000000 ) ) ;
#1006 = CIRCLE ( 'NONE', #870, 0.2000000000000004829 ) ;
#1007 = FILL_AREA_STYLE_COLOUR ( '', #925 ) ;
#1008 = DIRECTION ( 'NONE',  ( 0.000000000000000000, -1.000000000000000000, 0.000000000000000000 ) ) ;
#1009 = ORIENTED_EDGE ( 'NONE', *, *, #1022, .F. ) ;
#1010 = MECHANICAL_DESIGN_GEOMETRIC_PRESENTATION_REPRESENTATION (  '', ( #1037 ), #517 ) ;
#1011 = AXIS2_PLACEMENT_3D ( 'NONE', #412, #328, #60 ) ;
#1012 = CARTESIAN_POINT ( 'NONE',  ( -11.70000000000000284, 2.864365052918086185, 0.000000000000000000 ) ) ;
#1013 = EDGE_CURVE ( 'NONE', #1120, #510, #1006, .T. ) ;
#1014 = ORIENTED_EDGE ( 'NONE', *, *, #1022, .T. ) ;
#1015 = SURFACE_STYLE_FILL_AREA ( #645 ) ;
#1016 = ADVANCED_FACE ( 'NONE', ( #545 ), #980, .T. ) ;
#1017 = CARTESIAN_POINT ( 'NONE',  ( -12.70000000000000284, -3.000000000000000000, 0.000000000000000000 ) ) ;
#1018 = EDGE_CURVE ( 'NONE', #526, #56, #123, .T. ) ;
#1019 = DIRECTION ( 'NONE',  ( 0.000000000000000000, 0.000000000000000000, 1.000000000000000000 ) ) ;
#1020 = VERTEX_POINT ( 'NONE', #199 ) ;
#1021 = APPLICATION_PROTOCOL_DEFINITION ( 'draft international standard', 'automotive_design', 1998, #1134 ) ;
#1022 = EDGE_CURVE ( 'NONE', #983, #56, #971, .T. ) ;
#1023 = CARTESIAN_POINT ( 'NONE',  ( 3.362617346942188501, 2.609365052918086292, -0.4047061138363206023 ) ) ;
#1024 = COLOUR_RGB ( '',0.7529411764705882248, 0.7529411764705882248, 0.000000000000000000 ) ;
#1025 = ORIENTED_EDGE ( 'NONE', *, *, #148, .F. ) ;
#1026 = PRESENTATION_LAYER_ASSIGNMENT (  '', '', ( #901 ) ) ;
#1027 = DIRECTION ( 'NONE',  ( 2.832769448823989808E-16, 1.000000000000000000, -0.000000000000000000 ) ) ;
#1028 = CARTESIAN_POINT ( 'NONE',  ( -11.70000000000000284, 2.609365052918086292, 0.2549999999999999489 ) ) ;
#1029 = ORIENTED_EDGE ( 'NONE', *, *, #26, .T. ) ;
#1030 = DIRECTION ( 'NONE',  ( 0.000000000000000000, 0.000000000000000000, -1.000000000000000000 ) ) ;
#1031 = AXIS2_PLACEMENT_3D ( 'NONE', #1046, #182, #156 ) ;
#1032 = STYLED_ITEM ( 'NONE', ( #465 ), #900 ) ;
#1033 = MECHANICAL_DESIGN_GEOMETRIC_PRESENTATION_REPRESENTATION (  '', ( #1143 ), #717 ) ;
#1034 =( NAMED_UNIT ( * ) SI_UNIT ( $, .STERADIAN. ) SOLID_ANGLE_UNIT ( ) );
#1035 = PRESENTATION_STYLE_ASSIGNMENT (( #525 ) ) ;
#1036 = ORIENTED_EDGE ( 'NONE', *, *, #693, .T. ) ;
#1037 = STYLED_ITEM ( 'NONE', ( #872 ), #467 ) ;
#1038 =( GEOMETRIC_REPRESENTATION_CONTEXT ( 3 ) GLOBAL_UNCERTAINTY_ASSIGNED_CONTEXT ( ( #711 ) ) GLOBAL_UNIT_ASSIGNED_CONTEXT ( ( #688, #859, #40 ) ) REPRESENTATION_CONTEXT ( 'NONE', 'WORKASPACE' ) );
#1039 = DIRECTION ( 'NONE',  ( 0.000000000000000000, -1.000000000000000000, 0.000000000000000000 ) ) ;
#1040 = EDGE_CURVE ( 'NONE', #429, #483, #830, .T. ) ;
#1041 = PRESENTATION_STYLE_ASSIGNMENT (( #968 ) ) ;
#1042 = CARTESIAN_POINT ( 'NONE',  ( -11.70000000000000284, 1.609365052918086292, 0.000000000000000000 ) ) ;
#1043 =( NAMED_UNIT ( * ) PLANE_ANGLE_UNIT ( ) SI_UNIT ( $, .RADIAN. ) );
#1044 = SURFACE_STYLE_FILL_AREA ( #611 ) ;
#1045 = CARTESIAN_POINT ( 'NONE',  ( 12.70000000000000284, 1.609365052918086292, 0.000000000000000000 ) ) ;
#1046 = CARTESIAN_POINT ( 'NONE',  ( 1.804968851620622594, 2.609365052918086292, 0.000000000000000000 ) ) ;
#1047 = CYLINDRICAL_SURFACE ( 'NONE', #124, 0.2549999999999999489 ) ;
#1048 = EDGE_CURVE ( 'NONE', #133, #209, #1066, .T. ) ;
#1049 = AXIS2_PLACEMENT_3D ( 'NONE', #902, #642, #1156 ) ;
#1050 = DIRECTION ( 'NONE',  ( 0.000000000000000000, 0.000000000000000000, 1.000000000000000000 ) ) ;
#1051 = DIRECTION ( 'NONE',  ( 0.000000000000000000, -1.000000000000000000, 0.000000000000000000 ) ) ;
#1052 = CARTESIAN_POINT ( 'NONE',  ( 12.70000000000000284, 1.609365052918086292, 0.000000000000000000 ) ) ;
#1053 = CARTESIAN_POINT ( 'NONE',  ( -1.804968851620623482, 2.609365052918086292, 0.000000000000000000 ) ) ;
#1054 = DIRECTION ( 'NONE',  ( 0.000000000000000000, 0.000000000000000000, 1.000000000000000000 ) ) ;
#1055 = EDGE_CURVE ( 'NONE', #526, #144, #648, .T. ) ;
#1056 =( NAMED_UNIT ( * ) SI_UNIT ( $, .STERADIAN. ) SOLID_ANGLE_UNIT ( ) );
#1057 = SURFACE_SIDE_STYLE ('',( #475 ) ) ;
#1058 = UNCERTAINTY_MEASURE_WITH_UNIT (LENGTH_MEASURE( 1.000000000000000082E-05 ), #1148, 'distance_accuracy_value', 'NONE');
#1059 =( GEOMETRIC_REPRESENTATION_CONTEXT ( 3 ) GLOBAL_UNCERTAINTY_ASSIGNED_CONTEXT ( ( #388 ) ) GLOBAL_UNIT_ASSIGNED_CONTEXT ( ( #338, #967, #227 ) ) REPRESENTATION_CONTEXT ( 'NONE', 'WORKASPACE' ) );
#1060 = DIRECTION ( 'NONE',  ( 0.000000000000000000, 0.000000000000000000, 1.000000000000000000 ) ) ;
#1061 = SURFACE_STYLE_FILL_AREA ( #173 ) ;
#1062 = CARTESIAN_POINT ( 'NONE',  ( 12.70000000000000284, 1.609365052918086292, 0.2549999999999999489 ) ) ;
#1063 = EDGE_CURVE ( 'NONE', #730, #510, #911, .T. ) ;
#1064 =( NAMED_UNIT ( * ) SI_UNIT ( $, .STERADIAN. ) SOLID_ANGLE_UNIT ( ) );
#1065 = VECTOR ( 'NONE', #449, 1000.000000000000000 ) ;
#1066 = CIRCLE ( 'NONE', #332, 0.2549999999999999489 ) ;
#1067 = CIRCLE ( 'NONE', #178, 0.2549999999999999489 ) ;
#1068 = EDGE_LOOP ( 'NONE', ( #200, #425, #111, #365, #320, #457 ) ) ;
#1069 = DIRECTION ( 'NONE',  ( 0.000000000000000000, -1.000000000000000000, 0.000000000000000000 ) ) ;
#1070 = STYLED_ITEM ( 'NONE', ( #622 ), #492 ) ;
#1071 = FILL_AREA_STYLE ('',( #794 ) ) ;
#1072 = CARTESIAN_POINT ( 'NONE',  ( 3.362617346942188501, 3.014071166754408893, 1.233262903810380613E-16 ) ) ;
#1073 =( NAMED_UNIT ( * ) PLANE_ANGLE_UNIT ( ) SI_UNIT ( $, .RADIAN. ) );
#1074 = ORIENTED_EDGE ( 'NONE', *, *, #1018, .F. ) ;
#1075 = AXIS2_PLACEMENT_3D ( 'NONE', #585, #314, #36 ) ;
#1076 = CARTESIAN_POINT ( 'NONE',  ( 3.362617346942188501, 2.609365052918086292, 0.000000000000000000 ) ) ;
#1077 = PRESENTATION_STYLE_ASSIGNMENT (( #917 ) ) ;
#1078 = DIRECTION ( 'NONE',  ( 1.000000000000000000, 0.000000000000000000, 0.000000000000000000 ) ) ;
#1079 = ORIENTED_EDGE ( 'NONE', *, *, #1089, .F. ) ;
#1080 = UNCERTAINTY_MEASURE_WITH_UNIT (LENGTH_MEASURE( 1.000000000000000082E-05 ), #596, 'distance_accuracy_value', 'NONE');
#1081 = DIRECTION ( 'NONE',  ( -0.000000000000000000, -0.000000000000000000, -1.000000000000000000 ) ) ;
#1082 = AXIS2_PLACEMENT_3D ( 'NONE', #395, #119, #309 ) ;
#1083 = CARTESIAN_POINT ( 'NONE',  ( -11.70000000000000284, 2.609365052918086292, -0.2549999999999999489 ) ) ;
#1084 = AXIS2_PLACEMENT_3D ( 'NONE', #809, #286, #105 ) ;
#1085 = STYLED_ITEM ( 'NONE', ( #874 ), #857 ) ;
#1086 = DIRECTION ( 'NONE',  ( -1.000000000000000000, -0.000000000000000000, -0.000000000000000000 ) ) ;
#1087 = ORIENTED_EDGE ( 'NONE', *, *, #926, .F. ) ;
#1088 = CYLINDRICAL_SURFACE ( 'NONE', #464, 0.2549999999999999489 ) ;
#1089 = EDGE_CURVE ( 'NONE', #374, #391, #2, .T. ) ;
#1090 =( LENGTH_UNIT ( ) NAMED_UNIT ( * ) SI_UNIT ( .MILLI., .METRE. ) );
#1091 = ADVANCED_FACE ( 'NONE', ( #486 ), #716, .T. ) ;
#1092 =( NAMED_UNIT ( * ) SI_UNIT ( $, .STERADIAN. ) SOLID_ANGLE_UNIT ( ) );
#1093 = DIRECTION ( 'NONE',  ( 0.000000000000000000, -1.000000000000000000, 0.000000000000000000 ) ) ;
#1094 = CARTESIAN_POINT ( 'NONE',  ( -12.95500000000000185, 1.609365052918086292, 0.000000000000000000 ) ) ;
#1095 =( NAMED_UNIT ( * ) PLANE_ANGLE_UNIT ( ) SI_UNIT ( $, .RADIAN. ) );
#1096 = ADVANCED_FACE ( 'NONE', ( #639 ), #790, .F. ) ;
#1097 =( NAMED_UNIT ( * ) SI_UNIT ( $, .STERADIAN. ) SOLID_ANGLE_UNIT ( ) );
#1098 = EDGE_CURVE ( 'NONE', #374, #209, #327, .T. ) ;
#1099 = FILL_AREA_STYLE_COLOUR ( '', #519 ) ;
#1100 = PRESENTATION_STYLE_ASSIGNMENT (( #132 ) ) ;
#1101 = ADVANCED_BREP_SHAPE_REPRESENTATION ( 'Capacitor Ceramic No Polarity axial 25.40', ( #629, #999 ), #230 ) ;
#1102 = EDGE_LOOP ( 'NONE', ( #972, #87, #1079, #643, #963, #420 ) ) ;
#1103 = CIRCLE ( 'NONE', #138, 1.609365052918086070 ) ;
#1104 = EDGE_LOOP ( 'NONE', ( #758, #487, #37, #4, #47, #7 ) ) ;
#1105 = DIRECTION ( 'NONE',  ( -1.000000000000000000, -0.000000000000000000, -0.000000000000000000 ) ) ;
#1106 = AXIS2_PLACEMENT_3D ( 'NONE', #308, #210, #21 ) ;
#1107 = EDGE_LOOP ( 'NONE', ( #953, #329, #466, #866, #305 ) ) ;
#1108 = DIRECTION ( 'NONE',  ( 0.000000000000000000, 0.000000000000000000, -1.000000000000000000 ) ) ;
#1109 = ADVANCED_FACE ( 'NONE', ( #45 ), #343, .F. ) ;
#1110 = DIRECTION ( 'NONE',  ( -1.000000000000000000, 0.000000000000000000, 0.000000000000000000 ) ) ;
#1111 =( NAMED_UNIT ( * ) PLANE_ANGLE_UNIT ( ) SI_UNIT ( $, .RADIAN. ) );
#1112 = ORIENTED_EDGE ( 'NONE', *, *, #903, .T. ) ;
#1113 = DIRECTION ( 'NONE',  ( 0.000000000000000000, 0.000000000000000000, 1.000000000000000000 ) ) ;
#1114 =( LENGTH_UNIT ( ) NAMED_UNIT ( * ) SI_UNIT ( .MILLI., .METRE. ) );
#1115 = UNCERTAINTY_MEASURE_WITH_UNIT (LENGTH_MEASURE( 1.000000000000000082E-05 ), #995, 'distance_accuracy_value', 'NONE');
#1116 = COLOUR_RGB ( '',0.7529411764705882248, 0.7529411764705882248, 0.000000000000000000 ) ;
#1117 = FILL_AREA_STYLE ('',( #1099 ) ) ;
#1118 = LINE ( 'NONE', #692, #86 ) ;
#1119 = FILL_AREA_STYLE ('',( #69 ) ) ;
#1120 = VERTEX_POINT ( 'NONE', #746 ) ;
#1121 =( NAMED_UNIT ( * ) PLANE_ANGLE_UNIT ( ) SI_UNIT ( $, .RADIAN. ) );
#1122 = COLOUR_RGB ( '',0.7529411764705882248, 0.7529411764705882248, 0.000000000000000000 ) ;
#1123 = PRESENTATION_LAYER_ASSIGNMENT (  '', '', ( #1142 ) ) ;
#1124 = CARTESIAN_POINT ( 'NONE',  ( 11.70000000000000284, 2.609365052918086292, 0.000000000000000000 ) ) ;
#1125 = EDGE_CURVE ( 'NONE', #439, #871, #579, .T. ) ;
#1126 = ORIENTED_EDGE ( 'NONE', *, *, #497, .T. ) ;
#1127 = CARTESIAN_POINT ( 'NONE',  ( -3.362617346942187613, 3.014071166754408448, 1.233262903810380613E-16 ) ) ;
#1128 = ORIENTED_EDGE ( 'NONE', *, *, #187, .T. ) ;
#1129 = LINE ( 'NONE', #63, #59 ) ;
#1130 = VERTEX_POINT ( 'NONE', #759 ) ;
#1131 = STYLED_ITEM ( 'NONE', ( #244 ), #686 ) ;
#1132 = EDGE_CURVE ( 'NONE', #510, #730, #731, .T. ) ;
#1133 = CARTESIAN_POINT ( 'NONE',  ( 3.556190395207061261, 2.609365052918086292, 0.4550000000000005151 ) ) ;
#1134 = APPLICATION_CONTEXT ( 'automotive_design' ) ;
#1135 = EDGE_CURVE ( 'NONE', #386, #429, #267, .T. ) ;
#1136 = DIRECTION ( 'NONE',  ( 0.000000000000000000, 0.000000000000000000, 1.000000000000000000 ) ) ;
#1137 = COLOUR_RGB ( '',0.7529411764705882248, 0.7529411764705882248, 0.000000000000000000 ) ;
#1138 = DIRECTION ( 'NONE',  ( 0.000000000000000000, 0.000000000000000000, -1.000000000000000000 ) ) ;
#1139 = FILL_AREA_STYLE ('',( #326 ) ) ;
#1140 = COLOUR_RGB ( '',0.7529411764705882248, 0.7529411764705882248, 0.000000000000000000 ) ;
#1141 = DIRECTION ( 'NONE',  ( 0.000000000000000000, -1.000000000000000000, 0.000000000000000000 ) ) ;
#1142 = STYLED_ITEM ( 'NONE', ( #563 ), #1096 ) ;
#1143 = STYLED_ITEM ( 'NONE', ( #1041 ), #846 ) ;
#1144 = CARTESIAN_POINT ( 'NONE',  ( 11.70000000000000284, 2.864365052918086185, 0.000000000000000000 ) ) ;
#1145 = AXIS2_PLACEMENT_3D ( 'NONE', #1076, #505, #203 ) ;
#1146 = CARTESIAN_POINT ( 'NONE',  ( -1.804968851620622594, 2.609365052918086292, 0.000000000000000000 ) ) ;
#1147 = CIRCLE ( 'NONE', #143, 0.2549999999999999489 ) ;
#1148 =( LENGTH_UNIT ( ) NAMED_UNIT ( * ) SI_UNIT ( .MILLI., .METRE. ) );
#1149 = DIRECTION ( 'NONE',  ( 0.000000000000000000, 0.000000000000000000, 1.000000000000000000 ) ) ;
#1150 = SPHERICAL_SURFACE ( 'NONE', #65, 1.609365052918086070 ) ;
#1151 = ORIENTED_EDGE ( 'NONE', *, *, #610, .F. ) ;
#1152 = CARTESIAN_POINT ( 'NONE',  ( -1.804968851620622594, 2.609365052918086292, 0.000000000000000000 ) ) ;
#1153 = FILL_AREA_STYLE ('',( #804 ) ) ;
#1154 = CARTESIAN_POINT ( 'NONE',  ( -3.556190395207061261, 2.609365052918086292, -0.4550000000000005151 ) ) ;
#1155 = FILL_AREA_STYLE_COLOUR ( '', #353 ) ;
#1156 = DIRECTION ( 'NONE',  ( 0.000000000000000000, 0.000000000000000000, -1.000000000000000000 ) ) ;
#1157 = STYLED_ITEM ( 'NONE', ( #775 ), #49 ) ;
ENDSEC;
END-ISO-10303-21;
