ISO-10303-21;
HEADER;
FILE_DESCRIPTION (( 'STEP AP214' ),
    '1' );
FILE_NAME ('Capacitor Ceramic No Polarity axial 15.24.STEP',
    '2026-02-18T23:26:03',
    ( '' ),
    ( '' ),
    'SwSTEP 2.0',
    'SolidWorks 2026',
    '' );
FILE_SCHEMA (( 'AUTOMOTIVE_DESIGN' ));
ENDSEC;

DATA;
#1 = ORIENTED_EDGE ( 'NONE', *, *, #431, .T. ) ;
#2 = DIRECTION ( 'NONE',  ( 0.000000000000000000, 0.000000000000000000, -1.000000000000000000 ) ) ;
#3 = DIRECTION ( 'NONE',  ( 0.000000000000000000, 0.000000000000000000, 1.000000000000000000 ) ) ;
#4 = ORIENTED_EDGE ( 'NONE', *, *, #109, .T. ) ;
#5 = AXIS2_PLACEMENT_3D ( 'NONE', #452, #317, #735 ) ;
#6 = COLOUR_RGB ( '',0.8980392156862745390, 0.9176470588235293713, 0.9294117647058823817 ) ;
#7 = ORIENTED_EDGE ( 'NONE', *, *, #62, .T. ) ;
#8 = PRESENTATION_STYLE_ASSIGNMENT (( #883 ) ) ;
#9 = CIRCLE ( 'NONE', #644, 0.4047061138363222121 ) ;
#10 = SURFACE_STYLE_USAGE ( .BOTH. , #779 ) ;
#11 = SURFACE_SIDE_STYLE ('',( #889 ) ) ;
#12 = SURFACE_STYLE_FILL_AREA ( #1028 ) ;
#13 =( NAMED_UNIT ( * ) PLANE_ANGLE_UNIT ( ) SI_UNIT ( $, .RADIAN. ) );
#14 = EDGE_CURVE ( 'NONE', #518, #512, #81, .T. ) ;
#15 = ORIENTED_EDGE ( 'NONE', *, *, #109, .F. ) ;
#16 =( LENGTH_UNIT ( ) NAMED_UNIT ( * ) SI_UNIT ( .MILLI., .METRE. ) );
#17 =( NAMED_UNIT ( * ) SI_UNIT ( $, .STERADIAN. ) SOLID_ANGLE_UNIT ( ) );
#18 = DIRECTION ( 'NONE',  ( -2.832769448823989808E-16, -1.000000000000000000, -0.000000000000000000 ) ) ;
#19 = FACE_OUTER_BOUND ( 'NONE', #256, .T. ) ;
#20 = SURFACE_STYLE_FILL_AREA ( #115 ) ;
#21 = CARTESIAN_POINT ( 'NONE',  ( 1.804968851620622594, 2.609365052918086292, 0.000000000000000000 ) ) ;
#22 = VERTEX_POINT ( 'NONE', #247 ) ;
#23 = EDGE_CURVE ( 'NONE', #997, #191, #776, .T. ) ;
#24 = CARTESIAN_POINT ( 'NONE',  ( 3.362617346942188501, 2.609365052918086292, 0.4047061138363206023 ) ) ;
#25 = PRESENTATION_STYLE_ASSIGNMENT (( #724 ) ) ;
#26 = CARTESIAN_POINT ( 'NONE',  ( 1.804968851620623482, 4.218730105836172584, 1.970903760715744989E-16 ) ) ;
#27 = AXIS2_PLACEMENT_3D ( 'NONE', #952, #158, #344 ) ;
#28 = ORIENTED_EDGE ( 'NONE', *, *, #769, .F. ) ;
#29 = STYLED_ITEM ( 'NONE', ( #620 ), #220 ) ;
#30 = AXIS2_PLACEMENT_3D ( 'NONE', #909, #475, #201 ) ;
#31 = AXIS2_PLACEMENT_3D ( 'NONE', #493, #325, #837 ) ;
#32 = STYLED_ITEM ( 'NONE', ( #393 ), #1004 ) ;
#33 = CIRCLE ( 'NONE', #1021, 0.2549999999999999489 ) ;
#34 = CARTESIAN_POINT ( 'NONE',  ( 1.804968851620622594, 2.609365052918086292, 0.000000000000000000 ) ) ;
#35 = SURFACE_SIDE_STYLE ('',( #20 ) ) ;
#36 =( LENGTH_UNIT ( ) NAMED_UNIT ( * ) SI_UNIT ( .MILLI., .METRE. ) );
#37 = DIRECTION ( 'NONE',  ( 1.000000000000000000, 0.000000000000000000, 0.000000000000000000 ) ) ;
#38 = ORIENTED_EDGE ( 'NONE', *, *, #432, .T. ) ;
#39 = ORIENTED_EDGE ( 'NONE', *, *, #649, .T. ) ;
#40 = EDGE_CURVE ( 'NONE', #265, #555, #981, .T. ) ;
#41 = DIRECTION ( 'NONE',  ( -1.000000000000000000, -0.000000000000000000, -0.000000000000000000 ) ) ;
#42 = DIRECTION ( 'NONE',  ( 2.832769448823989808E-16, -1.000000000000000000, 0.000000000000000000 ) ) ;
#43 = EDGE_LOOP ( 'NONE', ( #98, #719, #1030, #704, #811 ) ) ;
#44 = DIRECTION ( 'NONE',  ( 0.000000000000000000, 0.000000000000000000, -1.000000000000000000 ) ) ;
#45 = ADVANCED_BREP_SHAPE_REPRESENTATION ( 'Capacitor Ceramic No Polarity axial 15.24', ( #169, #954 ), #96 ) ;
#46 =( LENGTH_UNIT ( ) NAMED_UNIT ( * ) SI_UNIT ( .MILLI., .METRE. ) );
#47 = FILL_AREA_STYLE_COLOUR ( '', #747 ) ;
#48 = ORIENTED_EDGE ( 'NONE', *, *, #617, .F. ) ;
#49 = CIRCLE ( 'NONE', #1022, 0.2000000000000004829 ) ;
#50 = STYLED_ITEM ( 'NONE', ( #541 ), #284 ) ;
#51 =( NAMED_UNIT ( * ) SI_UNIT ( $, .STERADIAN. ) SOLID_ANGLE_UNIT ( ) );
#52 =( GEOMETRIC_REPRESENTATION_CONTEXT ( 3 ) GLOBAL_UNCERTAINTY_ASSIGNED_CONTEXT ( ( #75 ) ) GLOBAL_UNIT_ASSIGNED_CONTEXT ( ( #290, #975, #912 ) ) REPRESENTATION_CONTEXT ( 'NONE', 'WORKASPACE' ) );
#53 = TOROIDAL_SURFACE ( 'NONE', #729, 0.4550000000000005151, 0.2000000000000004829 ) ;
#54 = PRESENTATION_STYLE_ASSIGNMENT (( #817 ) ) ;
#55 = CIRCLE ( 'NONE', #556, 1.255000000000000115 ) ;
#56 = STYLED_ITEM ( 'NONE', ( #368 ), #886 ) ;
#57 = CARTESIAN_POINT ( 'NONE',  ( -6.620000000000000995, 2.609365052918086292, 0.2549999999999999489 ) ) ;
#58 = PRODUCT_DEFINITION_SHAPE ( 'NONE', 'NONE',  #322 ) ;
#59 = SURFACE_SIDE_STYLE ('',( #663 ) ) ;
#60 = FILL_AREA_STYLE ('',( #494 ) ) ;
#61 = FILL_AREA_STYLE ('',( #308 ) ) ;
#62 = EDGE_CURVE ( 'NONE', #114, #111, #434, .T. ) ;
#63 = FACE_OUTER_BOUND ( 'NONE', #603, .T. ) ;
#64 = SURFACE_STYLE_FILL_AREA ( #61 ) ;
#65 = VECTOR ( 'NONE', #1039, 1000.000000000000000 ) ;
#66 = FILL_AREA_STYLE_COLOUR ( '', #150 ) ;
#67 =( NAMED_UNIT ( * ) SI_UNIT ( $, .STERADIAN. ) SOLID_ANGLE_UNIT ( ) );
#68 = CIRCLE ( 'NONE', #982, 0.2549999999999999489 ) ;
#69 = AXIS2_PLACEMENT_3D ( 'NONE', #516, #429, #773 ) ;
#70 = AXIS2_PLACEMENT_3D ( 'NONE', #21, #712, #635 ) ;
#71 = FACE_OUTER_BOUND ( 'NONE', #263, .T. ) ;
#72 = PRESENTATION_LAYER_ASSIGNMENT (  '', '', ( #102 ) ) ;
#73 =( GEOMETRIC_REPRESENTATION_CONTEXT ( 3 ) GLOBAL_UNCERTAINTY_ASSIGNED_CONTEXT ( ( #948 ) ) GLOBAL_UNIT_ASSIGNED_CONTEXT ( ( #16, #956, #1087 ) ) REPRESENTATION_CONTEXT ( 'NONE', 'WORKASPACE' ) );
#74 = DIRECTION ( 'NONE',  ( -1.000000000000000000, 0.000000000000000000, 0.000000000000000000 ) ) ;
#75 = UNCERTAINTY_MEASURE_WITH_UNIT (LENGTH_MEASURE( 1.000000000000000082E-05 ), #290, 'distance_accuracy_value', 'NONE');
#76 = EDGE_CURVE ( 'NONE', #606, #1047, #181, .T. ) ;
#77 = SURFACE_STYLE_USAGE ( .BOTH. , #246 ) ;
#78 = SURFACE_SIDE_STYLE ('',( #684 ) ) ;
#79 = FACE_OUTER_BOUND ( 'NONE', #621, .T. ) ;
#80 = CYLINDRICAL_SURFACE ( 'NONE', #959, 0.2550000000000000044 ) ;
#81 = LINE ( 'NONE', #1023, #65 ) ;
#82 = CIRCLE ( 'NONE', #851, 0.2000000000000004829 ) ;
#83 = COLOUR_RGB ( '',0.8980392156862745390, 0.9176470588235293713, 0.9294117647058823817 ) ;
#84 = COLOUR_RGB ( '',0.8980392156862745390, 0.9176470588235293713, 0.9294117647058823817 ) ;
#85 = MECHANICAL_DESIGN_GEOMETRIC_PRESENTATION_REPRESENTATION (  '', ( #1003 ), #509 ) ;
#86 = AXIS2_PLACEMENT_3D ( 'NONE', #652, #1000, #816 ) ;
#87 = STYLED_ITEM ( 'NONE', ( #25 ), #349 ) ;
#88 = EDGE_CURVE ( 'NONE', #871, #114, #911, .T. ) ;
#89 = CARTESIAN_POINT ( 'NONE',  ( 0.000000000000000000, 0.000000000000000000, 0.000000000000000000 ) ) ;
#90 = EDGE_CURVE ( 'NONE', #111, #542, #1052, .T. ) ;
#91 = SURFACE_STYLE_USAGE ( .BOTH. , #1046 ) ;
#92 = ORIENTED_EDGE ( 'NONE', *, *, #1117, .T. ) ;
#93 = ORIENTED_EDGE ( 'NONE', *, *, #490, .T. ) ;
#94 =( NAMED_UNIT ( * ) SI_UNIT ( $, .STERADIAN. ) SOLID_ANGLE_UNIT ( ) );
#95 = VERTEX_POINT ( 'NONE', #1027 ) ;
#96 =( GEOMETRIC_REPRESENTATION_CONTEXT ( 3 ) GLOBAL_UNCERTAINTY_ASSIGNED_CONTEXT ( ( #664 ) ) GLOBAL_UNIT_ASSIGNED_CONTEXT ( ( #326, #333, #844 ) ) REPRESENTATION_CONTEXT ( 'NONE', 'WORKASPACE' ) );
#97 = DIRECTION ( 'NONE',  ( -1.000000000000000000, -0.000000000000000000, -0.000000000000000000 ) ) ;
#98 = ORIENTED_EDGE ( 'NONE', *, *, #1088, .F. ) ;
#99 = AXIS2_PLACEMENT_3D ( 'NONE', #581, #840, #567 ) ;
#100 = PRESENTATION_LAYER_ASSIGNMENT (  '', '', ( #659 ) ) ;
#101 = ORIENTED_EDGE ( 'NONE', *, *, #472, .F. ) ;
#102 = STYLED_ITEM ( 'NONE', ( #54 ), #416 ) ;
#103 = PRESENTATION_LAYER_ASSIGNMENT (  '', '', ( #152 ) ) ;
#104 = DIRECTION ( 'NONE',  ( 1.000000000000000000, 0.000000000000000000, 0.000000000000000000 ) ) ;
#105 = CARTESIAN_POINT ( 'NONE',  ( -3.556190395207061261, 2.609365052918086292, 0.000000000000000000 ) ) ;
#106 = DIRECTION ( 'NONE',  ( 0.000000000000000000, 0.000000000000000000, 1.000000000000000000 ) ) ;
#107 = FACE_OUTER_BOUND ( 'NONE', #426, .T. ) ;
#108 = ORIENTED_EDGE ( 'NONE', *, *, #711, .F. ) ;
#109 = EDGE_CURVE ( 'NONE', #515, #1073, #82, .T. ) ;
#110 = ORIENTED_EDGE ( 'NONE', *, *, #233, .T. ) ;
#111 = VERTEX_POINT ( 'NONE', #940 ) ;
#112 = FACE_OUTER_BOUND ( 'NONE', #383, .T. ) ;
#113 = FILL_AREA_STYLE ('',( #904 ) ) ;
#114 = VERTEX_POINT ( 'NONE', #1031 ) ;
#115 = FILL_AREA_STYLE ('',( #717 ) ) ;
#116 = DIRECTION ( 'NONE',  ( 0.000000000000000000, 0.000000000000000000, -1.000000000000000000 ) ) ;
#117 = ORIENTED_EDGE ( 'NONE', *, *, #834, .F. ) ;
#118 = DIRECTION ( 'NONE',  ( -1.000000000000000000, -0.000000000000000000, -0.000000000000000000 ) ) ;
#119 = ORIENTED_EDGE ( 'NONE', *, *, #990, .T. ) ;
#120 =( GEOMETRIC_REPRESENTATION_CONTEXT ( 3 ) GLOBAL_UNCERTAINTY_ASSIGNED_CONTEXT ( ( #1103 ) ) GLOBAL_UNIT_ASSIGNED_CONTEXT ( ( #294, #527, #455 ) ) REPRESENTATION_CONTEXT ( 'NONE', 'WORKASPACE' ) );
#121 = VECTOR ( 'NONE', #174, 1000.000000000000000 ) ;
#122 = CARTESIAN_POINT ( 'NONE',  ( -3.556190395207061261, 2.609365052918086292, 0.000000000000000000 ) ) ;
#123 = CARTESIAN_POINT ( 'NONE',  ( 6.620000000000000995, 2.609365052918086292, 0.2549999999999999489 ) ) ;
#124 = ORIENTED_EDGE ( 'NONE', *, *, #736, .F. ) ;
#125 = CARTESIAN_POINT ( 'NONE',  ( 7.620000000000001883, -2.999999999999999112, 0.000000000000000000 ) ) ;
#126 = FACE_OUTER_BOUND ( 'NONE', #342, .T. ) ;
#127 = DIRECTION ( 'NONE',  ( -1.000000000000000000, 0.000000000000000000, 0.000000000000000000 ) ) ;
#128 = ORIENTED_EDGE ( 'NONE', *, *, #200, .F. ) ;
#129 = CARTESIAN_POINT ( 'NONE',  ( 7.620000000000000107, 1.609365052918087180, 0.000000000000000000 ) ) ;
#130 = FACE_OUTER_BOUND ( 'NONE', #43, .T. ) ;
#131 = PRODUCT ( 'Capacitor Ceramic No Polarity axial 15.24', 'Capacitor Ceramic No Polarity axial 15.24', '', ( #546 ) ) ;
#132 = CIRCLE ( 'NONE', #892, 0.2549999999999999489 ) ;
#133 = STYLED_ITEM ( 'NONE', ( #799 ), #951 ) ;
#134 = COLOUR_RGB ( '',0.8980392156862745390, 0.9176470588235293713, 0.9294117647058823817 ) ;
#135 = CIRCLE ( 'NONE', #1057, 1.609365052918086292 ) ;
#136 = DIRECTION ( 'NONE',  ( 0.000000000000000000, 0.000000000000000000, 1.000000000000000000 ) ) ;
#137 = AXIS2_PLACEMENT_3D ( 'NONE', #125, #1093, #44 ) ;
#138 = SURFACE_STYLE_USAGE ( .BOTH. , #753 ) ;
#139 = PRESENTATION_LAYER_ASSIGNMENT (  '', '', ( #852 ) ) ;
#140 = UNCERTAINTY_MEASURE_WITH_UNIT (LENGTH_MEASURE( 1.000000000000000082E-05 ), #947, 'distance_accuracy_value', 'NONE');
#141 = CARTESIAN_POINT ( 'NONE',  ( -3.556190395207061261, 2.609365052918086292, -0.2550000000000000044 ) ) ;
#142 = EDGE_CURVE ( 'NONE', #515, #199, #706, .T. ) ;
#143 = DIRECTION ( 'NONE',  ( 1.000000000000000000, -0.000000000000000000, -0.000000000000000000 ) ) ;
#144 = DIRECTION ( 'NONE',  ( 1.000000000000000000, 0.000000000000000000, 0.000000000000000000 ) ) ;
#145 = DIRECTION ( 'NONE',  ( 1.000000000000000000, 0.000000000000000000, 0.000000000000000000 ) ) ;
#146 = CYLINDRICAL_SURFACE ( 'NONE', #225, 0.2550000000000000044 ) ;
#147 = DIRECTION ( 'NONE',  ( -3.763476001707854080E-16, -1.000000000000000000, 0.000000000000000000 ) ) ;
#148 = UNCERTAINTY_MEASURE_WITH_UNIT (LENGTH_MEASURE( 1.000000000000000082E-05 ), #863, 'distance_accuracy_value', 'NONE');
#149 = STYLED_ITEM ( 'NONE', ( #1108 ), #213 ) ;
#150 = COLOUR_RGB ( '',0.7529411764705882248, 0.7529411764705882248, 0.000000000000000000 ) ;
#151 = STYLED_ITEM ( 'NONE', ( #156 ), #320 ) ;
#152 = STYLED_ITEM ( 'NONE', ( #1071 ), #578 ) ;
#153 = DIRECTION ( 'NONE',  ( -0.000000000000000000, 1.000000000000000000, 1.224646799147353207E-16 ) ) ;
#154 = FILL_AREA_STYLE ('',( #238 ) ) ;
#155 = CARTESIAN_POINT ( 'NONE',  ( 3.556190395207061261, 2.609365052918086292, -0.4550000000000005151 ) ) ;
#156 = PRESENTATION_STYLE_ASSIGNMENT (( #1025 ) ) ;
#157 = EDGE_CURVE ( 'NONE', #888, #470, #999, .T. ) ;
#158 = DIRECTION ( 'NONE',  ( -0.000000000000000000, -0.000000000000000000, -1.000000000000000000 ) ) ;
#159 = COLOUR_RGB ( '',0.8980392156862745390, 0.9176470588235293713, 0.9294117647058823817 ) ;
#160 = DIRECTION ( 'NONE',  ( 0.000000000000000000, -1.000000000000000000, 0.000000000000000000 ) ) ;
#161 = VERTEX_POINT ( 'NONE', #504 ) ;
#162 = CIRCLE ( 'NONE', #1018, 0.4047061138363226562 ) ;
#163 =( GEOMETRIC_REPRESENTATION_CONTEXT ( 3 ) GLOBAL_UNCERTAINTY_ASSIGNED_CONTEXT ( ( #227 ) ) GLOBAL_UNIT_ASSIGNED_CONTEXT ( ( #758, #264, #619 ) ) REPRESENTATION_CONTEXT ( 'NONE', 'WORKASPACE' ) );
#164 = MECHANICAL_DESIGN_GEOMETRIC_PRESENTATION_REPRESENTATION (  '', ( #152 ), #350 ) ;
#165 = ORIENTED_EDGE ( 'NONE', *, *, #870, .F. ) ;
#166 = ADVANCED_FACE ( 'NONE', ( #501 ), #872, .T. ) ;
#167 = DIRECTION ( 'NONE',  ( 0.000000000000000000, 0.000000000000000000, -1.000000000000000000 ) ) ;
#168 = FACE_OUTER_BOUND ( 'NONE', #260, .T. ) ;
#169 = MANIFOLD_SOLID_BREP ( 'Mirror1', #759 ) ;
#170 = ORIENTED_EDGE ( 'NONE', *, *, #40, .T. ) ;
#171 = EDGE_CURVE ( 'NONE', #888, #815, #132, .T. ) ;
#172 =( NAMED_UNIT ( * ) SI_UNIT ( $, .STERADIAN. ) SOLID_ANGLE_UNIT ( ) );
#173 = PRESENTATION_STYLE_ASSIGNMENT (( #337 ) ) ;
#174 = DIRECTION ( 'NONE',  ( -3.763476001707854080E-16, -1.000000000000000000, 0.000000000000000000 ) ) ;
#175 = ORIENTED_EDGE ( 'NONE', *, *, #569, .F. ) ;
#176 = VERTEX_POINT ( 'NONE', #216 ) ;
#177 =( NAMED_UNIT ( * ) PLANE_ANGLE_UNIT ( ) SI_UNIT ( $, .RADIAN. ) );
#178 = CARTESIAN_POINT ( 'NONE',  ( -6.620000000000000995, 1.609365052918086292, 0.000000000000000000 ) ) ;
#179 = FACE_OUTER_BOUND ( 'NONE', #680, .T. ) ;
#180 = ORIENTED_EDGE ( 'NONE', *, *, #360, .F. ) ;
#181 = CIRCLE ( 'NONE', #331, 1.609365052918086070 ) ;
#182 = ADVANCED_FACE ( 'NONE', ( #568 ), #689, .T. ) ;
#183 = STYLED_ITEM ( 'NONE', ( #266 ), #169 ) ;
#184 = DIRECTION ( 'NONE',  ( 0.000000000000000000, 0.000000000000000000, 1.000000000000000000 ) ) ;
#185 = ORIENTED_EDGE ( 'NONE', *, *, #569, .T. ) ;
#186 = AXIS2_PLACEMENT_3D ( 'NONE', #356, #961, #786 ) ;
#187 = TOROIDAL_SURFACE ( 'NONE', #820, 0.4550000000000005151, 0.2000000000000004829 ) ;
#188 = AXIS2_PLACEMENT_3D ( 'NONE', #908, #477, #995 ) ;
#189 = ORIENTED_EDGE ( 'NONE', *, *, #431, .F. ) ;
#190 = PRESENTATION_LAYER_ASSIGNMENT (  '', '', ( #133 ) ) ;
#191 = VERTEX_POINT ( 'NONE', #867 ) ;
#192 = LINE ( 'NONE', #208, #1111 ) ;
#193 = ORIENTED_EDGE ( 'NONE', *, *, #939, .F. ) ;
#194 = ORIENTED_EDGE ( 'NONE', *, *, #784, .F. ) ;
#195 = SURFACE_STYLE_USAGE ( .BOTH. , #361 ) ;
#196 = CARTESIAN_POINT ( 'NONE',  ( -6.620000000000000995, 2.609365052918086292, 0.000000000000000000 ) ) ;
#197 = EDGE_CURVE ( 'NONE', #524, #470, #68, .T. ) ;
#198 = DIRECTION ( 'NONE',  ( 0.000000000000000000, 0.000000000000000000, -1.000000000000000000 ) ) ;
#199 = VERTEX_POINT ( 'NONE', #141 ) ;
#200 = EDGE_CURVE ( 'NONE', #111, #354, #1001, .T. ) ;
#201 = DIRECTION ( 'NONE',  ( 0.000000000000000000, 0.000000000000000000, -1.000000000000000000 ) ) ;
#202 = PRESENTATION_STYLE_ASSIGNMENT (( #633 ) ) ;
#203 = FILL_AREA_STYLE_COLOUR ( '', #675 ) ;
#204 = FILL_AREA_STYLE ('',( #977 ) ) ;
#205 = ORIENTED_EDGE ( 'NONE', *, *, #939, .T. ) ;
#206 = MECHANICAL_DESIGN_GEOMETRIC_PRESENTATION_REPRESENTATION (  '', ( #781 ), #223 ) ;
#207 = COLOUR_RGB ( '',0.8980392156862745390, 0.9176470588235293713, 0.9294117647058823817 ) ;
#208 = CARTESIAN_POINT ( 'NONE',  ( -6.620000000000000995, 2.609365052918086292, -0.2549999999999999489 ) ) ;
#209 =( GEOMETRIC_REPRESENTATION_CONTEXT ( 3 ) GLOBAL_UNCERTAINTY_ASSIGNED_CONTEXT ( ( #938 ) ) GLOBAL_UNIT_ASSIGNED_CONTEXT ( ( #1051, #972, #887 ) ) REPRESENTATION_CONTEXT ( 'NONE', 'WORKASPACE' ) );
#210 = DIRECTION ( 'NONE',  ( 0.000000000000000000, 0.000000000000000000, 1.000000000000000000 ) ) ;
#211 = PRESENTATION_STYLE_ASSIGNMENT (( #720 ) ) ;
#212 = ORIENTED_EDGE ( 'NONE', *, *, #649, .F. ) ;
#213 = ADVANCED_FACE ( 'NONE', ( #846 ), #760, .T. ) ;
#214 = DIRECTION ( 'NONE',  ( 0.000000000000000000, 0.000000000000000000, -1.000000000000000000 ) ) ;
#215 = EDGE_LOOP ( 'NONE', ( #212, #638, #861, #565, #905 ) ) ;
#216 = CARTESIAN_POINT ( 'NONE',  ( 6.620000000000000995, 2.864365052918086185, 0.000000000000000000 ) ) ;
#217 = FILL_AREA_STYLE ('',( #650 ) ) ;
#218 = CARTESIAN_POINT ( 'NONE',  ( -1.804968851620622594, 2.609365052918086292, 0.000000000000000000 ) ) ;
#219 =( LENGTH_UNIT ( ) NAMED_UNIT ( * ) SI_UNIT ( .MILLI., .METRE. ) );
#220 = ADVANCED_FACE ( 'NONE', ( #63 ), #725, .F. ) ;
#221 = CARTESIAN_POINT ( 'NONE',  ( 1.804968851620622594, 2.609365052918086292, 0.000000000000000000 ) ) ;
#222 = AXIS2_PLACEMENT_3D ( 'NONE', #593, #848, #144 ) ;
#223 =( GEOMETRIC_REPRESENTATION_CONTEXT ( 3 ) GLOBAL_UNCERTAINTY_ASSIGNED_CONTEXT ( ( #677 ) ) GLOBAL_UNIT_ASSIGNED_CONTEXT ( ( #219, #1014, #584 ) ) REPRESENTATION_CONTEXT ( 'NONE', 'WORKASPACE' ) );
#224 = FACE_OUTER_BOUND ( 'NONE', #974, .T. ) ;
#225 = AXIS2_PLACEMENT_3D ( 'NONE', #129, #1012, #1089 ) ;
#226 = CIRCLE ( 'NONE', #986, 0.2549999999999999489 ) ;
#227 = UNCERTAINTY_MEASURE_WITH_UNIT (LENGTH_MEASURE( 1.000000000000000082E-05 ), #758, 'distance_accuracy_value', 'NONE');
#228 = CARTESIAN_POINT ( 'NONE',  ( -7.620000000000000107, 1.609365052918087180, 0.000000000000000000 ) ) ;
#229 = FILL_AREA_STYLE_COLOUR ( '', #590 ) ;
#230 = DIRECTION ( 'NONE',  ( 0.000000000000000000, 0.000000000000000000, 1.000000000000000000 ) ) ;
#231 = SURFACE_SIDE_STYLE ('',( #661 ) ) ;
#232 = EDGE_CURVE ( 'NONE', #815, #542, #401, .T. ) ;
#233 = EDGE_CURVE ( 'NONE', #891, #997, #694, .T. ) ;
#234 = SURFACE_STYLE_FILL_AREA ( #929 ) ;
#235 = DIRECTION ( 'NONE',  ( 1.000000000000000000, 0.000000000000000000, 0.000000000000000000 ) ) ;
#236 = UNCERTAINTY_MEASURE_WITH_UNIT (LENGTH_MEASURE( 1.000000000000000082E-05 ), #653, 'distance_accuracy_value', 'NONE');
#237 =( LENGTH_UNIT ( ) NAMED_UNIT ( * ) SI_UNIT ( .MILLI., .METRE. ) );
#238 = FILL_AREA_STYLE_COLOUR ( '', #385 ) ;
#239 = CARTESIAN_POINT ( 'NONE',  ( -1.804968851620622594, 2.609365052918086292, 0.000000000000000000 ) ) ;
#240 = PRESENTATION_LAYER_ASSIGNMENT (  '', '', ( #56 ) ) ;
#241 = AXIS2_PLACEMENT_3D ( 'NONE', #400, #662, #741 ) ;
#242 = DIRECTION ( 'NONE',  ( 0.000000000000000000, 0.000000000000000000, 1.000000000000000000 ) ) ;
#243 = DIRECTION ( 'NONE',  ( 0.000000000000000000, 0.000000000000000000, 1.000000000000000000 ) ) ;
#244 = CIRCLE ( 'NONE', #802, 1.255000000000000115 ) ;
#245 = COLOUR_RGB ( '',0.7529411764705882248, 0.7529411764705882248, 0.000000000000000000 ) ;
#246 = SURFACE_SIDE_STYLE ('',( #1019 ) ) ;
#247 = CARTESIAN_POINT ( 'NONE',  ( -1.804968851620623482, 2.609365052918086292, 1.609365052918086292 ) ) ;
#248 = EDGE_CURVE ( 'NONE', #265, #710, #523, .T. ) ;
#249 = FILL_AREA_STYLE_COLOUR ( '', #207 ) ;
#250 = UNCERTAINTY_MEASURE_WITH_UNIT (LENGTH_MEASURE( 1.000000000000000082E-05 ), #882, 'distance_accuracy_value', 'NONE');
#251 = SURFACE_STYLE_USAGE ( .BOTH. , #678 ) ;
#252 = DIRECTION ( 'NONE',  ( 0.000000000000000000, 0.000000000000000000, -1.000000000000000000 ) ) ;
#253 = ORIENTED_EDGE ( 'NONE', *, *, #901, .T. ) ;
#254 =( GEOMETRIC_REPRESENTATION_CONTEXT ( 3 ) GLOBAL_UNCERTAINTY_ASSIGNED_CONTEXT ( ( #236 ) ) GLOBAL_UNIT_ASSIGNED_CONTEXT ( ( #653, #869, #373 ) ) REPRESENTATION_CONTEXT ( 'NONE', 'WORKASPACE' ) );
#255 = FACE_OUTER_BOUND ( 'NONE', #454, .T. ) ;
#256 = EDGE_LOOP ( 'NONE', ( #980, #520, #795, #375, #193, #549 ) ) ;
#257 = UNCERTAINTY_MEASURE_WITH_UNIT (LENGTH_MEASURE( 1.000000000000000082E-05 ), #594, 'distance_accuracy_value', 'NONE');
#258 =( LENGTH_UNIT ( ) NAMED_UNIT ( * ) SI_UNIT ( .MILLI., .METRE. ) );
#259 = VECTOR ( 'NONE', #660, 1000.000000000000000 ) ;
#260 = EDGE_LOOP ( 'NONE', ( #535, #307, #38, #632, #189, #180 ) ) ;
#261 = DIRECTION ( 'NONE',  ( 3.763476001707854080E-16, -1.000000000000000000, 0.000000000000000000 ) ) ;
#262 = DIRECTION ( 'NONE',  ( 0.000000000000000000, 0.000000000000000000, -1.000000000000000000 ) ) ;
#263 = EDGE_LOOP ( 'NONE', ( #351, #866, #949, #278, #442 ) ) ;
#264 =( NAMED_UNIT ( * ) PLANE_ANGLE_UNIT ( ) SI_UNIT ( $, .RADIAN. ) );
#265 = VERTEX_POINT ( 'NONE', #1026 ) ;
#266 = PRESENTATION_STYLE_ASSIGNMENT (( #1044 ) ) ;
#267 = ORIENTED_EDGE ( 'NONE', *, *, #529, .T. ) ;
#268 = CARTESIAN_POINT ( 'NONE',  ( -10.09675116564010722, 2.609365052918086292, 1.609365052918086292 ) ) ;
#269 =( NAMED_UNIT ( * ) PLANE_ANGLE_UNIT ( ) SI_UNIT ( $, .RADIAN. ) );
#270 = ORIENTED_EDGE ( 'NONE', *, *, #142, .T. ) ;
#271 = DIRECTION ( 'NONE',  ( 1.000000000000000000, 0.000000000000000000, 0.000000000000000000 ) ) ;
#272 = ORIENTED_EDGE ( 'NONE', *, *, #233, .F. ) ;
#273 = PLANE ( 'NONE',  #746 ) ;
#274 = DIRECTION ( 'NONE',  ( 1.000000000000000000, 0.000000000000000000, 0.000000000000000000 ) ) ;
#275 = PRESENTATION_LAYER_ASSIGNMENT (  '', '', ( #183 ) ) ;
#276 = AXIS2_PLACEMENT_3D ( 'NONE', #796, #464, #1009 ) ;
#277 = PRESENTATION_LAYER_ASSIGNMENT (  '', '', ( #87 ) ) ;
#278 = ORIENTED_EDGE ( 'NONE', *, *, #926, .T. ) ;
#279 = TOROIDAL_SURFACE ( 'NONE', #422, 0.4550000000000005151, 0.2000000000000004829 ) ;
#280 =( NAMED_UNIT ( * ) SI_UNIT ( $, .STERADIAN. ) SOLID_ANGLE_UNIT ( ) );
#281 = CIRCLE ( 'NONE', #893, 0.4047061138363222121 ) ;
#282 = FILL_AREA_STYLE ('',( #996 ) ) ;
#283 = DIRECTION ( 'NONE',  ( -1.000000000000000000, -0.000000000000000000, -0.000000000000000000 ) ) ;
#284 = ADVANCED_FACE ( 'NONE', ( #880 ), #479, .T. ) ;
#285 = DIRECTION ( 'NONE',  ( -1.000000000000000000, -0.000000000000000000, -0.000000000000000000 ) ) ;
#286 = ADVANCED_FACE ( 'NONE', ( #107 ), #187, .F. ) ;
#287 = ORIENTED_EDGE ( 'NONE', *, *, #557, .F. ) ;
#288 =( NAMED_UNIT ( * ) SI_UNIT ( $, .STERADIAN. ) SOLID_ANGLE_UNIT ( ) );
#289 = ORIENTED_EDGE ( 'NONE', *, *, #797, .T. ) ;
#290 =( LENGTH_UNIT ( ) NAMED_UNIT ( * ) SI_UNIT ( .MILLI., .METRE. ) );
#291 =( NAMED_UNIT ( * ) PLANE_ANGLE_UNIT ( ) SI_UNIT ( $, .RADIAN. ) );
#292 = CARTESIAN_POINT ( 'NONE',  ( 6.620000000000000995, 1.609365052918086292, 0.000000000000000000 ) ) ;
#293 = EDGE_LOOP ( 'NONE', ( #696, #39, #1032, #270, #600 ) ) ;
#294 =( LENGTH_UNIT ( ) NAMED_UNIT ( * ) SI_UNIT ( .MILLI., .METRE. ) );
#295 = ORIENTED_EDGE ( 'NONE', *, *, #90, .F. ) ;
#296 = AXIS2_PLACEMENT_3D ( 'NONE', #847, #849, #334 ) ;
#297 = CARTESIAN_POINT ( 'NONE',  ( 6.620000000000000995, 2.609365052918086292, 0.000000000000000000 ) ) ;
#298 =( LENGTH_UNIT ( ) NAMED_UNIT ( * ) SI_UNIT ( .MILLI., .METRE. ) );
#299 = ORIENTED_EDGE ( 'NONE', *, *, #1015, .F. ) ;
#300 = AXIS2_PLACEMENT_3D ( 'NONE', #228, #924, #145 ) ;
#301 = ADVANCED_FACE ( 'NONE', ( #357 ), #321, .T. ) ;
#302 = MECHANICAL_DESIGN_GEOMETRIC_PRESENTATION_REPRESENTATION (  '', ( #854 ), #658 ) ;
#303 = STYLED_ITEM ( 'NONE', ( #318 ), #370 ) ;
#304 = VECTOR ( 'NONE', #473, 1000.000000000000000 ) ;
#305 = DIRECTION ( 'NONE',  ( 0.000000000000000000, 0.000000000000000000, 1.000000000000000000 ) ) ;
#306 = DIRECTION ( 'NONE',  ( 1.000000000000000000, -0.000000000000000000, -0.000000000000000000 ) ) ;
#307 = ORIENTED_EDGE ( 'NONE', *, *, #88, .T. ) ;
#308 = FILL_AREA_STYLE_COLOUR ( '', #730 ) ;
#309 = PRODUCT_RELATED_PRODUCT_CATEGORY ( 'part', '', ( #131 ) ) ;
#310 = CYLINDRICAL_SURFACE ( 'NONE', #1054, 0.2550000000000000044 ) ;
#311 = DIRECTION ( 'NONE',  ( 0.000000000000000000, 0.000000000000000000, 1.000000000000000000 ) ) ;
#312 = CARTESIAN_POINT ( 'NONE',  ( -6.620000000000000995, 2.609365052918086292, 0.000000000000000000 ) ) ;
#313 = CARTESIAN_POINT ( 'NONE',  ( -7.365000000000001990, -2.999999999999999112, 0.000000000000000000 ) ) ;
#314 =( NAMED_UNIT ( * ) SI_UNIT ( $, .STERADIAN. ) SOLID_ANGLE_UNIT ( ) );
#315 = CARTESIAN_POINT ( 'NONE',  ( -7.875000000000000000, 1.609365052918087180, 3.122849337825749310E-17 ) ) ;
#316 = CIRCLE ( 'NONE', #943, 0.2550000000000000044 ) ;
#317 = DIRECTION ( 'NONE',  ( 1.000000000000000000, -0.000000000000000000, -0.000000000000000000 ) ) ;
#318 = PRESENTATION_STYLE_ASSIGNMENT (( #750 ) ) ;
#319 = AXIS2_PLACEMENT_3D ( 'NONE', #739, #1083, #397 ) ;
#320 = ADVANCED_FACE ( 'NONE', ( #71 ), #407, .T. ) ;
#321 = CYLINDRICAL_SURFACE ( 'NONE', #31, 0.2549999999999999489 ) ;
#322 = PRODUCT_DEFINITION ( 'UNKNOWN', '', #1048, #329 ) ;
#323 = FILL_AREA_STYLE ('',( #745 ) ) ;
#324 = CARTESIAN_POINT ( 'NONE',  ( -1.804968851620622594, 2.609365052918086292, 0.000000000000000000 ) ) ;
#325 = DIRECTION ( 'NONE',  ( 1.000000000000000000, -0.000000000000000000, -0.000000000000000000 ) ) ;
#326 =( LENGTH_UNIT ( ) NAMED_UNIT ( * ) SI_UNIT ( .MILLI., .METRE. ) );
#327 = DIRECTION ( 'NONE',  ( 0.000000000000000000, -1.000000000000000000, 0.000000000000000000 ) ) ;
#328 =( NAMED_UNIT ( * ) SI_UNIT ( $, .STERADIAN. ) SOLID_ANGLE_UNIT ( ) );
#329 = PRODUCT_DEFINITION_CONTEXT ( 'detailed design', #448, 'design' ) ;
#330 = ADVANCED_FACE ( 'NONE', ( #168 ), #775, .T. ) ;
#331 = AXIS2_PLACEMENT_3D ( 'NONE', #239, #419, #346 ) ;
#332 = DIRECTION ( 'NONE',  ( -0.000000000000000000, 0.000000000000000000, 1.000000000000000000 ) ) ;
#333 =( NAMED_UNIT ( * ) PLANE_ANGLE_UNIT ( ) SI_UNIT ( $, .RADIAN. ) );
#334 = DIRECTION ( 'NONE',  ( 0.000000000000000000, 0.000000000000000000, 1.000000000000000000 ) ) ;
#335 = MECHANICAL_DESIGN_GEOMETRIC_PRESENTATION_REPRESENTATION (  '', ( #32 ), #437 ) ;
#336 = AXIS2_PLACEMENT_3D ( 'NONE', #1024, #392, #311 ) ;
#337 = SURFACE_STYLE_USAGE ( .BOTH. , #345 ) ;
#338 = SURFACE_STYLE_FILL_AREA ( #788 ) ;
#339 = ORIENTED_EDGE ( 'NONE', *, *, #901, .F. ) ;
#340 = ADVANCED_FACE ( 'NONE', ( #255 ), #919, .T. ) ;
#341 = ORIENTED_EDGE ( 'NONE', *, *, #514, .T. ) ;
#342 = EDGE_LOOP ( 'NONE', ( #732, #359, #519, #857, #92 ) ) ;
#343 = CARTESIAN_POINT ( 'NONE',  ( -6.620000000000000995, 2.354365052918086398, -3.122849337825749310E-17 ) ) ;
#344 = DIRECTION ( 'NONE',  ( -1.000000000000000000, 0.000000000000000000, 0.000000000000000000 ) ) ;
#345 = SURFACE_SIDE_STYLE ('',( #421 ) ) ;
#346 = DIRECTION ( 'NONE',  ( 0.000000000000000000, -1.000000000000000000, -1.224646799147353207E-16 ) ) ;
#347 = CIRCLE ( 'NONE', #5, 0.2549999999999999489 ) ;
#348 = MECHANICAL_DESIGN_GEOMETRIC_PRESENTATION_REPRESENTATION (  '', ( #659 ), #801 ) ;
#349 = ADVANCED_FACE ( 'NONE', ( #79 ), #53, .F. ) ;
#350 =( GEOMETRIC_REPRESENTATION_CONTEXT ( 3 ) GLOBAL_UNCERTAINTY_ASSIGNED_CONTEXT ( ( #839 ) ) GLOBAL_UNIT_ASSIGNED_CONTEXT ( ( #879, #976, #364 ) ) REPRESENTATION_CONTEXT ( 'NONE', 'WORKASPACE' ) );
#351 = ORIENTED_EDGE ( 'NONE', *, *, #488, .F. ) ;
#352 = SURFACE_SIDE_STYLE ('',( #785 ) ) ;
#353 = ORIENTED_EDGE ( 'NONE', *, *, #200, .T. ) ;
#354 = VERTEX_POINT ( 'NONE', #446 ) ;
#355 = ORIENTED_EDGE ( 'NONE', *, *, #834, .T. ) ;
#356 = CARTESIAN_POINT ( 'NONE',  ( -3.556190395207061261, 2.609365052918086292, -0.4550000000000005151 ) ) ;
#357 = FACE_OUTER_BOUND ( 'NONE', #293, .T. ) ;
#358 = DIRECTION ( 'NONE',  ( 1.000000000000000000, 0.000000000000000000, 0.000000000000000000 ) ) ;
#359 = ORIENTED_EDGE ( 'NONE', *, *, #171, .F. ) ;
#360 = EDGE_CURVE ( 'NONE', #354, #555, #386, .T. ) ;
#361 = SURFACE_SIDE_STYLE ('',( #792 ) ) ;
#362 = AXIS2_PLACEMENT_3D ( 'NONE', #605, #667, #615 ) ;
#363 = AXIS2_PLACEMENT_3D ( 'NONE', #292, #637, #127 ) ;
#364 =( NAMED_UNIT ( * ) SI_UNIT ( $, .STERADIAN. ) SOLID_ANGLE_UNIT ( ) );
#365 = CIRCLE ( 'NONE', #1005, 1.609365052918086292 ) ;
#366 = ORIENTED_EDGE ( 'NONE', *, *, #711, .T. ) ;
#367 = COLOUR_RGB ( '',0.8980392156862745390, 0.9176470588235293713, 0.9294117647058823817 ) ;
#368 = PRESENTATION_STYLE_ASSIGNMENT (( #558 ) ) ;
#369 = FILL_AREA_STYLE_COLOUR ( '', #367 ) ;
#370 = ADVANCED_FACE ( 'NONE', ( #19 ), #1085, .T. ) ;
#371 = EDGE_LOOP ( 'NONE', ( #966, #545, #1061, #101, #716, #953 ) ) ;
#372 = PRESENTATION_STYLE_ASSIGNMENT (( #451 ) ) ;
#373 =( NAMED_UNIT ( * ) SI_UNIT ( $, .STERADIAN. ) SOLID_ANGLE_UNIT ( ) );
#374 = DIRECTION ( 'NONE',  ( 0.000000000000000000, 0.000000000000000000, 1.000000000000000000 ) ) ;
#375 = ORIENTED_EDGE ( 'NONE', *, *, #836, .F. ) ;
#376 = SURFACE_SIDE_STYLE ('',( #64 ) ) ;
#377 = DIRECTION ( 'NONE',  ( 1.000000000000000000, -0.000000000000000000, -0.000000000000000000 ) ) ;
#378 = SURFACE_SIDE_STYLE ('',( #793 ) ) ;
#379 = DIRECTION ( 'NONE',  ( 0.000000000000000000, 0.000000000000000000, 1.000000000000000000 ) ) ;
#380 = COLOUR_RGB ( '',0.8941176470588234615, 0.8941176470588234615, 0.8941176470588234615 ) ;
#381 = SURFACE_STYLE_FILL_AREA ( #979 ) ;
#382 = CIRCLE ( 'NONE', #623, 1.609365052918086292 ) ;
#383 = EDGE_LOOP ( 'NONE', ( #390, #757, #626, #643, #1043, #881 ) ) ;
#384 = COLOUR_RGB ( '',0.7529411764705882248, 0.7529411764705882248, 0.000000000000000000 ) ;
#385 = COLOUR_RGB ( '',0.8980392156862745390, 0.9176470588235293713, 0.9294117647058823817 ) ;
#386 = CIRCLE ( 'NONE', #1006, 1.609365052918086070 ) ;
#387 = CIRCLE ( 'NONE', #319, 0.2549999999999999489 ) ;
#388 = DIRECTION ( 'NONE',  ( 0.000000000000000000, 0.000000000000000000, -1.000000000000000000 ) ) ;
#389 = CIRCLE ( 'NONE', #276, 0.2549999999999999489 ) ;
#390 = ORIENTED_EDGE ( 'NONE', *, *, #76, .F. ) ;
#391 = DIRECTION ( 'NONE',  ( -1.000000000000000000, -0.000000000000000000, -0.000000000000000000 ) ) ;
#392 = DIRECTION ( 'NONE',  ( -1.000000000000000000, -0.000000000000000000, -0.000000000000000000 ) ) ;
#393 = PRESENTATION_STYLE_ASSIGNMENT (( #471 ) ) ;
#394 = PRESENTATION_STYLE_ASSIGNMENT (( #138 ) ) ;
#395 = UNCERTAINTY_MEASURE_WITH_UNIT (LENGTH_MEASURE( 1.000000000000000082E-05 ), #1097, 'distance_accuracy_value', 'NONE');
#396 = DIRECTION ( 'NONE',  ( -1.000000000000000000, -0.000000000000000000, -0.000000000000000000 ) ) ;
#397 = DIRECTION ( 'NONE',  ( 0.000000000000000000, 0.000000000000000000, -1.000000000000000000 ) ) ;
#398 = EDGE_CURVE ( 'NONE', #470, #683, #551, .T. ) ;
#399 = FILL_AREA_STYLE ('',( #66 ) ) ;
#400 = CARTESIAN_POINT ( 'NONE',  ( 1.804968851620623482, 2.609365052918086292, 0.000000000000000000 ) ) ;
#401 = LINE ( 'NONE', #602, #842 ) ;
#402 = AXIS2_PLACEMENT_3D ( 'NONE', #1049, #118, #640 ) ;
#403 = MECHANICAL_DESIGN_GEOMETRIC_PRESENTATION_REPRESENTATION (  '', ( #483 ), #763 ) ;
#404 = SURFACE_STYLE_FILL_AREA ( #399 ) ;
#405 = CIRCLE ( 'NONE', #241, 1.609365052918086292 ) ;
#406 = STYLED_ITEM ( 'NONE', ( #718 ), #499 ) ;
#407 = CYLINDRICAL_SURFACE ( 'NONE', #458, 0.2549999999999999489 ) ;
#408 = UNCERTAINTY_MEASURE_WITH_UNIT (LENGTH_MEASURE( 1.000000000000000082E-05 ), #874, 'distance_accuracy_value', 'NONE');
#409 = DIRECTION ( 'NONE',  ( -1.000000000000000000, -0.000000000000000000, -0.000000000000000000 ) ) ;
#410 = EDGE_CURVE ( 'NONE', #561, #265, #405, .T. ) ;
#411 = DIRECTION ( 'NONE',  ( 1.000000000000000000, 0.000000000000000000, 0.000000000000000000 ) ) ;
#412 = DIRECTION ( 'NONE',  ( 2.832769448823989808E-16, 1.000000000000000000, -0.000000000000000000 ) ) ;
#413 = FILL_AREA_STYLE ('',( #751 ) ) ;
#414 = DIRECTION ( 'NONE',  ( 0.000000000000000000, 0.000000000000000000, -1.000000000000000000 ) ) ;
#415 = AXIS2_PLACEMENT_3D ( 'NONE', #856, #756, #935 ) ;
#416 = ADVANCED_FACE ( 'NONE', ( #1013 ), #672, .T. ) ;
#417 = MECHANICAL_DESIGN_GEOMETRIC_PRESENTATION_REPRESENTATION (  '', ( #707 ), #670 ) ;
#418 = DIRECTION ( 'NONE',  ( 1.000000000000000000, 0.000000000000000000, 0.000000000000000000 ) ) ;
#419 = DIRECTION ( 'NONE',  ( 0.000000000000000000, -1.224646799147353207E-16, 1.000000000000000000 ) ) ;
#420 =( GEOMETRIC_REPRESENTATION_CONTEXT ( 3 ) GLOBAL_UNCERTAINTY_ASSIGNED_CONTEXT ( ( #250 ) ) GLOBAL_UNIT_ASSIGNED_CONTEXT ( ( #882, #177, #280 ) ) REPRESENTATION_CONTEXT ( 'NONE', 'WORKASPACE' ) );
#421 = SURFACE_STYLE_FILL_AREA ( #511 ) ;
#422 = AXIS2_PLACEMENT_3D ( 'NONE', #1055, #913, #969 ) ;
#423 = ORIENTED_EDGE ( 'NONE', *, *, #410, .F. ) ;
#424 = DIRECTION ( 'NONE',  ( 0.000000000000000000, 0.000000000000000000, 1.000000000000000000 ) ) ;
#425 = SURFACE_STYLE_FILL_AREA ( #517 ) ;
#426 = EDGE_LOOP ( 'NONE', ( #128, #942, #1050, #108, #957 ) ) ;
#427 = UNCERTAINTY_MEASURE_WITH_UNIT (LENGTH_MEASURE( 1.000000000000000082E-05 ), #914, 'distance_accuracy_value', 'NONE');
#428 = ORIENTED_EDGE ( 'NONE', *, *, #88, .F. ) ;
#429 = DIRECTION ( 'NONE',  ( 1.000000000000000000, 0.000000000000000000, 0.000000000000000000 ) ) ;
#430 = ORIENTED_EDGE ( 'NONE', *, *, #544, .T. ) ;
#431 = EDGE_CURVE ( 'NONE', #555, #714, #822, .T. ) ;
#432 = EDGE_CURVE ( 'NONE', #114, #561, #960, .T. ) ;
#433 = VERTEX_POINT ( 'NONE', #738 ) ;
#434 = CIRCLE ( 'NONE', #721, 0.4047061138363226562 ) ;
#435 =( NAMED_UNIT ( * ) PLANE_ANGLE_UNIT ( ) SI_UNIT ( $, .RADIAN. ) );
#436 = CIRCLE ( 'NONE', #878, 0.4047061138363222121 ) ;
#437 =( GEOMETRIC_REPRESENTATION_CONTEXT ( 3 ) GLOBAL_UNCERTAINTY_ASSIGNED_CONTEXT ( ( #1092 ) ) GLOBAL_UNIT_ASSIGNED_CONTEXT ( ( #46, #835, #51 ) ) REPRESENTATION_CONTEXT ( 'NONE', 'WORKASPACE' ) );
#438 = PRESENTATION_LAYER_ASSIGNMENT (  '', '', ( #781 ) ) ;
#439 = CARTESIAN_POINT ( 'NONE',  ( -10.09675116564010722, 2.609365052918086292, -1.609365052918086292 ) ) ;
#440 = MECHANICAL_DESIGN_GEOMETRIC_PRESENTATION_REPRESENTATION (  '', ( #303 ), #1079 ) ;
#441 = AXIS2_PLACEMENT_3D ( 'NONE', #850, #1041, #106 ) ;
#442 = ORIENTED_EDGE ( 'NONE', *, *, #870, .T. ) ;
#443 =( NAMED_UNIT ( * ) PLANE_ANGLE_UNIT ( ) SI_UNIT ( $, .RADIAN. ) );
#444 = SHAPE_DEFINITION_REPRESENTATION ( #58, #45 ) ;
#445 = FILL_AREA_STYLE_COLOUR ( '', #380 ) ;
#446 = CARTESIAN_POINT ( 'NONE',  ( 3.362617346942188501, 2.204658939081763691, 0.000000000000000000 ) ) ;
#447 = FILL_AREA_STYLE_COLOUR ( '', #932 ) ;
#448 = APPLICATION_CONTEXT ( 'automotive_design' ) ;
#449 = ORIENTED_EDGE ( 'NONE', *, *, #654, .F. ) ;
#450 = DIRECTION ( 'NONE',  ( 1.000000000000000000, 0.000000000000000000, 0.000000000000000000 ) ) ;
#451 = SURFACE_STYLE_USAGE ( .BOTH. , #467 ) ;
#452 = CARTESIAN_POINT ( 'NONE',  ( -6.620000000000000995, 2.609365052918086292, 0.000000000000000000 ) ) ;
#453 = VERTEX_POINT ( 'NONE', #315 ) ;
#454 = EDGE_LOOP ( 'NONE', ( #858, #564, #299, #699, #355 ) ) ;
#455 =( NAMED_UNIT ( * ) SI_UNIT ( $, .STERADIAN. ) SOLID_ANGLE_UNIT ( ) );
#456 = FACE_OUTER_BOUND ( 'NONE', #371, .T. ) ;
#457 = MECHANICAL_DESIGN_GEOMETRIC_PRESENTATION_REPRESENTATION (  '', ( #56 ), #120 ) ;
#458 = AXIS2_PLACEMENT_3D ( 'NONE', #599, #608, #252 ) ;
#459 = LINE ( 'NONE', #709, #513 ) ;
#460 = MECHANICAL_DESIGN_GEOMETRIC_PRESENTATION_REPRESENTATION (  '', ( #87 ), #1095 ) ;
#461 = SURFACE_SIDE_STYLE ('',( #381 ) ) ;
#462 = EDGE_LOOP ( 'NONE', ( #165, #253, #480, #205, #15 ) ) ;
#463 = STYLED_ITEM ( 'NONE', ( #372 ), #681 ) ;
#464 = DIRECTION ( 'NONE',  ( 1.000000000000000000, 0.000000000000000000, 0.000000000000000000 ) ) ;
#465 = APPLICATION_PROTOCOL_DEFINITION ( 'draft international standard', 'automotive_design', 1998, #448 ) ;
#466 = FILL_AREA_STYLE ('',( #203 ) ) ;
#467 = SURFACE_SIDE_STYLE ('',( #634 ) ) ;
#468 = DIRECTION ( 'NONE',  ( -1.000000000000000000, -0.000000000000000000, -0.000000000000000000 ) ) ;
#469 = CARTESIAN_POINT ( 'NONE',  ( 7.875000000000000000, 1.609365052918087180, 0.000000000000000000 ) ) ;
#470 = VERTEX_POINT ( 'NONE', #657 ) ;
#471 = SURFACE_STYLE_USAGE ( .BOTH. , #749 ) ;
#472 = EDGE_CURVE ( 'NONE', #606, #710, #135, .T. ) ;
#473 = DIRECTION ( 'NONE',  ( 3.763476001707854080E-16, -1.000000000000000000, 0.000000000000000000 ) ) ;
#474 = CARTESIAN_POINT ( 'NONE',  ( 6.620000000000000995, 2.609365052918086292, -0.2549999999999999489 ) ) ;
#475 = DIRECTION ( 'NONE',  ( 2.832769448823989808E-16, -1.000000000000000000, 0.000000000000000000 ) ) ;
#476 = ORIENTED_EDGE ( 'NONE', *, *, #853, .T. ) ;
#477 = DIRECTION ( 'NONE',  ( -0.000000000000000000, -0.000000000000000000, -1.000000000000000000 ) ) ;
#478 = DIRECTION ( 'NONE',  ( -3.763476001707854080E-16, -1.000000000000000000, 0.000000000000000000 ) ) ;
#479 = SPHERICAL_SURFACE ( 'NONE', #70, 1.609365052918086070 ) ;
#480 = ORIENTED_EDGE ( 'NONE', *, *, #764, .T. ) ;
#481 =( NAMED_UNIT ( * ) PLANE_ANGLE_UNIT ( ) SI_UNIT ( $, .RADIAN. ) );
#482 = MECHANICAL_DESIGN_GEOMETRIC_PRESENTATION_REPRESENTATION (  '', ( #852 ), #508 ) ;
#483 = STYLED_ITEM ( 'NONE', ( #173 ), #330 ) ;
#484 = PRESENTATION_LAYER_ASSIGNMENT (  '', '', ( #32 ) ) ;
#485 = AXIS2_PLACEMENT_3D ( 'NONE', #221, #921, #1062 ) ;
#486 = CARTESIAN_POINT ( 'NONE',  ( -1.804968851620623482, 2.609365052918086292, 0.000000000000000000 ) ) ;
#487 = MECHANICAL_DESIGN_GEOMETRIC_PRESENTATION_REPRESENTATION (  '', ( #133 ), #52 ) ;
#488 = EDGE_CURVE ( 'NONE', #616, #515, #459, .T. ) ;
#489 = FACE_OUTER_BOUND ( 'NONE', #462, .T. ) ;
#490 = EDGE_CURVE ( 'NONE', #176, #518, #533, .T. ) ;
#491 = CARTESIAN_POINT ( 'NONE',  ( 3.556190395207061261, 2.609365052918086292, 0.4550000000000005151 ) ) ;
#492 = CARTESIAN_POINT ( 'NONE',  ( 7.620000000000001883, -2.999999999999999112, 0.000000000000000000 ) ) ;
#493 = CARTESIAN_POINT ( 'NONE',  ( -6.620000000000000995, 2.609365052918086292, 0.000000000000000000 ) ) ;
#494 = FILL_AREA_STYLE_COLOUR ( '', #838 ) ;
#495 =( NAMED_UNIT ( * ) PLANE_ANGLE_UNIT ( ) SI_UNIT ( $, .RADIAN. ) );
#496 = AXIS2_PLACEMENT_3D ( 'NONE', #324, #830, #927 ) ;
#497 = COLOUR_RGB ( '',0.8980392156862745390, 0.9176470588235293713, 0.9294117647058823817 ) ;
#498 = COLOUR_RGB ( '',0.7529411764705882248, 0.7529411764705882248, 0.000000000000000000 ) ;
#499 = ADVANCED_FACE ( 'NONE', ( #126 ), #803, .T. ) ;
#500 = AXIS2_PLACEMENT_3D ( 'NONE', #553, #631, #636 ) ;
#501 = FACE_OUTER_BOUND ( 'NONE', #215, .T. ) ;
#502 =( NAMED_UNIT ( * ) SI_UNIT ( $, .STERADIAN. ) SOLID_ANGLE_UNIT ( ) );
#503 = PRESENTATION_STYLE_ASSIGNMENT (( #1116 ) ) ;
#504 = CARTESIAN_POINT ( 'NONE',  ( 7.875000000000001776, -2.999999999999999112, 0.000000000000000000 ) ) ;
#505 = UNCERTAINTY_MEASURE_WITH_UNIT (LENGTH_MEASURE( 1.000000000000000082E-05 ), #679, 'distance_accuracy_value', 'NONE');
#506 = PRESENTATION_LAYER_ASSIGNMENT (  '', '', ( #149 ) ) ;
#507 = DIRECTION ( 'NONE',  ( -1.000000000000000000, -0.000000000000000000, -0.000000000000000000 ) ) ;
#508 =( GEOMETRIC_REPRESENTATION_CONTEXT ( 3 ) GLOBAL_UNCERTAINTY_ASSIGNED_CONTEXT ( ( #595 ) ) GLOBAL_UNIT_ASSIGNED_CONTEXT ( ( #237, #1101, #288 ) ) REPRESENTATION_CONTEXT ( 'NONE', 'WORKASPACE' ) );
#509 =( GEOMETRIC_REPRESENTATION_CONTEXT ( 3 ) GLOBAL_UNCERTAINTY_ASSIGNED_CONTEXT ( ( #257 ) ) GLOBAL_UNIT_ASSIGNED_CONTEXT ( ( #594, #1091, #314 ) ) REPRESENTATION_CONTEXT ( 'NONE', 'WORKASPACE' ) );
#510 = CIRCLE ( 'NONE', #69, 0.2549999999999999489 ) ;
#511 = FILL_AREA_STYLE ('',( #1105 ) ) ;
#512 = VERTEX_POINT ( 'NONE', #899 ) ;
#513 = VECTOR ( 'NONE', #306, 1000.000000000000000 ) ;
#514 = EDGE_CURVE ( 'NONE', #518, #888, #693, .T. ) ;
#515 = VERTEX_POINT ( 'NONE', #794 ) ;
#516 = CARTESIAN_POINT ( 'NONE',  ( 3.556190395207061261, 2.609365052918086292, 0.000000000000000000 ) ) ;
#517 = FILL_AREA_STYLE ('',( #868 ) ) ;
#518 = VERTEX_POINT ( 'NONE', #123 ) ;
#519 = ORIENTED_EDGE ( 'NONE', *, *, #514, .F. ) ;
#520 = ORIENTED_EDGE ( 'NONE', *, *, #973, .T. ) ;
#521 = CARTESIAN_POINT ( 'NONE',  ( 6.620000000000000995, 2.609365052918086292, 0.000000000000000000 ) ) ;
#522 = ORIENTED_EDGE ( 'NONE', *, *, #432, .F. ) ;
#523 = LINE ( 'NONE', #439, #552 ) ;
#524 = VERTEX_POINT ( 'NONE', #469 ) ;
#525 = FILL_AREA_STYLE ('',( #445 ) ) ;
#526 =( GEOMETRIC_REPRESENTATION_CONTEXT ( 3 ) GLOBAL_UNCERTAINTY_ASSIGNED_CONTEXT ( ( #148 ) ) GLOBAL_UNIT_ASSIGNED_CONTEXT ( ( #863, #435, #94 ) ) REPRESENTATION_CONTEXT ( 'NONE', 'WORKASPACE' ) );
#527 =( NAMED_UNIT ( * ) PLANE_ANGLE_UNIT ( ) SI_UNIT ( $, .RADIAN. ) );
#528 = CIRCLE ( 'NONE', #30, 0.2549999999999999489 ) ;
#529 = EDGE_CURVE ( 'NONE', #1047, #433, #9, .T. ) ;
#530 = SURFACE_SIDE_STYLE ('',( #645 ) ) ;
#531 = PRESENTATION_LAYER_ASSIGNMENT (  '', '', ( #854 ) ) ;
#532 = DIRECTION ( 'NONE',  ( -1.000000000000000000, -0.000000000000000000, -0.000000000000000000 ) ) ;
#533 = CIRCLE ( 'NONE', #855, 0.2549999999999999489 ) ;
#534 = CIRCLE ( 'NONE', #99, 0.2549999999999999489 ) ;
#535 = ORIENTED_EDGE ( 'NONE', *, *, #733, .T. ) ;
#536 = SURFACE_SIDE_STYLE ('',( #614 ) ) ;
#537 = DIRECTION ( 'NONE',  ( 1.000000000000000000, -0.000000000000000000, -0.000000000000000000 ) ) ;
#538 = CARTESIAN_POINT ( 'NONE',  ( -6.620000000000000995, 1.609365052918086292, 0.000000000000000000 ) ) ;
#539 = EDGE_LOOP ( 'NONE', ( #124, #648, #185, #272 ) ) ;
#540 = CYLINDRICAL_SURFACE ( 'NONE', #1080, 1.609365052918086292 ) ;
#541 = PRESENTATION_STYLE_ASSIGNMENT (( #251 ) ) ;
#542 = VERTEX_POINT ( 'NONE', #1072 ) ;
#543 = SURFACE_STYLE_USAGE ( .BOTH. , #1067 ) ;
#544 = EDGE_CURVE ( 'NONE', #524, #161, #987, .T. ) ;
#545 = ORIENTED_EDGE ( 'NONE', *, *, #410, .T. ) ;
#546 = PRODUCT_CONTEXT ( 'NONE', #791, 'mechanical' ) ;
#547 = SURFACE_SIDE_STYLE ('',( #627 ) ) ;
#548 = FILL_AREA_STYLE_COLOUR ( '', #83 ) ;
#549 = ORIENTED_EDGE ( 'NONE', *, *, #1102, .F. ) ;
#550 = CARTESIAN_POINT ( 'NONE',  ( -3.362617346942187613, 2.609365052918086292, 0.000000000000000000 ) ) ;
#551 = LINE ( 'NONE', #831, #259 ) ;
#552 = VECTOR ( 'NONE', #532, 1000.000000000000000 ) ;
#553 = CARTESIAN_POINT ( 'NONE',  ( 6.620000000000000995, 2.609365052918086292, 0.000000000000000000 ) ) ;
#554 = PRESENTATION_STYLE_ASSIGNMENT (( #1081 ) ) ;
#555 = VERTEX_POINT ( 'NONE', #814 ) ;
#556 = AXIS2_PLACEMENT_3D ( 'NONE', #722, #332, #271 ) ;
#557 = EDGE_CURVE ( 'NONE', #971, #22, #843, .T. ) ;
#558 = SURFACE_STYLE_USAGE ( .BOTH. , #11 ) ;
#559 = CARTESIAN_POINT ( 'NONE',  ( -3.362617346942187613, 2.609365052918086292, 0.000000000000000000 ) ) ;
#560 = CARTESIAN_POINT ( 'NONE',  ( 6.620000000000000995, 2.609365052918086292, 0.000000000000000000 ) ) ;
#561 = VERTEX_POINT ( 'NONE', #26 ) ;
#562 = FACE_OUTER_BOUND ( 'NONE', #697, .T. ) ;
#563 = SURFACE_SIDE_STYLE ('',( #234 ) ) ;
#564 = ORIENTED_EDGE ( 'NONE', *, *, #963, .F. ) ;
#565 = ORIENTED_EDGE ( 'NONE', *, *, #695, .F. ) ;
#566 = FILL_AREA_STYLE ('',( #713 ) ) ;
#567 = DIRECTION ( 'NONE',  ( 0.000000000000000000, 0.000000000000000000, -1.000000000000000000 ) ) ;
#568 = FACE_OUTER_BOUND ( 'NONE', #1070, .T. ) ;
#569 = EDGE_CURVE ( 'NONE', #191, #997, #226, .T. ) ;
#570 = AXIS2_PLACEMENT_3D ( 'NONE', #155, #153, #3 ) ;
#571 = DIRECTION ( 'NONE',  ( 0.000000000000000000, 0.000000000000000000, -1.000000000000000000 ) ) ;
#572 = MECHANICAL_DESIGN_GEOMETRIC_PRESENTATION_REPRESENTATION (  '', ( #463 ), #958 ) ;
#573 = AXIS2_PLACEMENT_3D ( 'NONE', #1104, #411, #2 ) ;
#574 = PRESENTATION_LAYER_ASSIGNMENT (  '', '', ( #303 ) ) ;
#575 = PLANE ( 'NONE',  #137 ) ;
#576 = COLOUR_RGB ( '',0.8980392156862745390, 0.9176470588235293713, 0.9294117647058823817 ) ;
#577 = CYLINDRICAL_SURFACE ( 'NONE', #1077, 1.609365052918086292 ) ;
#578 = ADVANCED_FACE ( 'NONE', ( #456 ), #540, .T. ) ;
#579 = LINE ( 'NONE', #922, #728 ) ;
#580 = FILL_AREA_STYLE ('',( #1010 ) ) ;
#581 = CARTESIAN_POINT ( 'NONE',  ( -7.620000000000000107, 1.609365052918087180, 0.000000000000000000 ) ) ;
#582 = SURFACE_STYLE_USAGE ( .BOTH. , #231 ) ;
#583 =( LENGTH_UNIT ( ) NAMED_UNIT ( * ) SI_UNIT ( .MILLI., .METRE. ) );
#584 =( NAMED_UNIT ( * ) SI_UNIT ( $, .STERADIAN. ) SOLID_ANGLE_UNIT ( ) );
#585 = AXIS2_PLACEMENT_3D ( 'NONE', #674, #412, #598 ) ;
#586 =( GEOMETRIC_REPRESENTATION_CONTEXT ( 3 ) GLOBAL_UNCERTAINTY_ASSIGNED_CONTEXT ( ( #687 ) ) GLOBAL_UNIT_ASSIGNED_CONTEXT ( ( #258, #13, #700 ) ) REPRESENTATION_CONTEXT ( 'NONE', 'WORKASPACE' ) );
#587 = COLOUR_RGB ( '',0.8980392156862745390, 0.9176470588235293713, 0.9294117647058823817 ) ;
#588 = PRESENTATION_LAYER_ASSIGNMENT (  '', '', ( #151 ) ) ;
#589 = MECHANICAL_DESIGN_GEOMETRIC_PRESENTATION_REPRESENTATION (  '', ( #102 ), #420 ) ;
#590 = COLOUR_RGB ( '',0.8980392156862745390, 0.9176470588235293713, 0.9294117647058823817 ) ;
#591 = VERTEX_POINT ( 'NONE', #970 ) ;
#592 = STYLED_ITEM ( 'NONE', ( #8 ), #639 ) ;
#593 = CARTESIAN_POINT ( 'NONE',  ( -6.620000000000000995, 1.609365052918086292, -3.122849337825749926E-17 ) ) ;
#594 =( LENGTH_UNIT ( ) NAMED_UNIT ( * ) SI_UNIT ( .MILLI., .METRE. ) );
#595 = UNCERTAINTY_MEASURE_WITH_UNIT (LENGTH_MEASURE( 1.000000000000000082E-05 ), #237, 'distance_accuracy_value', 'NONE');
#596 = PRESENTATION_STYLE_ASSIGNMENT (( #91 ) ) ;
#597 = CARTESIAN_POINT ( 'NONE',  ( -3.362617346942187613, 2.609365052918086292, 0.4047061138363221011 ) ) ;
#598 = DIRECTION ( 'NONE',  ( 0.000000000000000000, 0.000000000000000000, -1.000000000000000000 ) ) ;
#599 = CARTESIAN_POINT ( 'NONE',  ( -6.620000000000000995, 2.609365052918086292, 0.000000000000000000 ) ) ;
#600 = ORIENTED_EDGE ( 'NONE', *, *, #926, .F. ) ;
#601 = EDGE_CURVE ( 'NONE', #616, #1086, #1038, .T. ) ;
#602 = CARTESIAN_POINT ( 'NONE',  ( 6.620000000000000995, 2.609365052918086292, -0.2549999999999999489 ) ) ;
#603 = EDGE_LOOP ( 'NONE', ( #295, #1082, #428, #366, #194 ) ) ;
#604 = CARTESIAN_POINT ( 'NONE',  ( 7.620000000000000107, 1.609365052918087180, 0.000000000000000000 ) ) ;
#605 = CARTESIAN_POINT ( 'NONE',  ( -3.556190395207061261, 2.609365052918086292, 0.000000000000000000 ) ) ;
#606 = VERTEX_POINT ( 'NONE', #651 ) ;
#607 = MECHANICAL_DESIGN_GEOMETRIC_PRESENTATION_REPRESENTATION (  '', ( #50 ), #984 ) ;
#608 = DIRECTION ( 'NONE',  ( 1.000000000000000000, -0.000000000000000000, -0.000000000000000000 ) ) ;
#609 = EDGE_LOOP ( 'NONE', ( #522, #7, #353, #611, #988, #423 ) ) ;
#610 = PRESENTATION_LAYER_ASSIGNMENT (  '', '', ( #406 ) ) ;
#611 = ORIENTED_EDGE ( 'NONE', *, *, #360, .T. ) ;
#612 = CARTESIAN_POINT ( 'NONE',  ( -7.620000000000000107, 1.609365052918087180, 0.000000000000000000 ) ) ;
#613 = EDGE_LOOP ( 'NONE', ( #1068, #117, #110, #944 ) ) ;
#614 = SURFACE_STYLE_FILL_AREA ( #805 ) ;
#615 = DIRECTION ( 'NONE',  ( 0.000000000000000000, 0.000000000000000000, 1.000000000000000000 ) ) ;
#616 = VERTEX_POINT ( 'NONE', #57 ) ;
#617 = EDGE_CURVE ( 'NONE', #176, #524, #244, .T. ) ;
#618 = DIRECTION ( 'NONE',  ( 0.000000000000000000, 0.000000000000000000, -1.000000000000000000 ) ) ;
#619 =( NAMED_UNIT ( * ) SI_UNIT ( $, .STERADIAN. ) SOLID_ANGLE_UNIT ( ) );
#620 = PRESENTATION_STYLE_ASSIGNMENT (( #582 ) ) ;
#621 = EDGE_LOOP ( 'NONE', ( #339, #777, #4, #708, #267 ) ) ;
#622 = DIRECTION ( 'NONE',  ( 0.000000000000000000, 0.000000000000000000, 1.000000000000000000 ) ) ;
#623 = AXIS2_PLACEMENT_3D ( 'NONE', #790, #1100, #243 ) ;
#624 = EDGE_CURVE ( 'NONE', #95, #453, #55, .T. ) ;
#625 = CIRCLE ( 'NONE', #86, 0.2549999999999999489 ) ;
#626 = ORIENTED_EDGE ( 'NONE', *, *, #769, .T. ) ;
#627 = SURFACE_STYLE_FILL_AREA ( #282 ) ;
#628 = DIRECTION ( 'NONE',  ( -1.000000000000000000, -0.000000000000000000, -0.000000000000000000 ) ) ;
#629 = ORIENTED_EDGE ( 'NONE', *, *, #398, .F. ) ;
#630 = DIRECTION ( 'NONE',  ( 0.000000000000000000, 0.000000000000000000, 1.000000000000000000 ) ) ;
#631 = DIRECTION ( 'NONE',  ( -1.000000000000000000, -0.000000000000000000, -0.000000000000000000 ) ) ;
#632 = ORIENTED_EDGE ( 'NONE', *, *, #925, .F. ) ;
#633 = SURFACE_STYLE_USAGE ( .BOTH. , #547 ) ;
#634 = SURFACE_STYLE_FILL_AREA ( #1064 ) ;
#635 = DIRECTION ( 'NONE',  ( 0.000000000000000000, -1.000000000000000000, 0.000000000000000000 ) ) ;
#636 = DIRECTION ( 'NONE',  ( 0.000000000000000000, 0.000000000000000000, 1.000000000000000000 ) ) ;
#637 = DIRECTION ( 'NONE',  ( -0.000000000000000000, -0.000000000000000000, -1.000000000000000000 ) ) ;
#638 = ORIENTED_EDGE ( 'NONE', *, *, #624, .T. ) ;
#639 = ADVANCED_FACE ( 'NONE', ( #705 ), #575, .T. ) ;
#640 = DIRECTION ( 'NONE',  ( 0.000000000000000000, 0.000000000000000000, 1.000000000000000000 ) ) ;
#641 = AXIS2_PLACEMENT_3D ( 'NONE', #486, #1084, #826 ) ;
#642 = AXIS2_PLACEMENT_3D ( 'NONE', #865, #1029, #184 ) ;
#643 = ORIENTED_EDGE ( 'NONE', *, *, #1102, .T. ) ;
#644 = AXIS2_PLACEMENT_3D ( 'NONE', #809, #41, #374 ) ;
#645 = SURFACE_STYLE_FILL_AREA ( #1078 ) ;
#646 = CARTESIAN_POINT ( 'NONE',  ( -7.620000000000001883, -2.999999999999999112, 0.000000000000000000 ) ) ;
#647 = DIRECTION ( 'NONE',  ( 0.000000000000000000, 0.000000000000000000, -1.000000000000000000 ) ) ;
#648 = ORIENTED_EDGE ( 'NONE', *, *, #1007, .T. ) ;
#649 = EDGE_CURVE ( 'NONE', #95, #616, #33, .T. ) ;
#650 = FILL_AREA_STYLE_COLOUR ( '', #134 ) ;
#651 = CARTESIAN_POINT ( 'NONE',  ( -1.804968851620623482, 4.218730105836172584, 1.970903760715744989E-16 ) ) ;
#652 = CARTESIAN_POINT ( 'NONE',  ( -6.620000000000000995, 2.609365052918086292, 0.000000000000000000 ) ) ;
#653 =( LENGTH_UNIT ( ) NAMED_UNIT ( * ) SI_UNIT ( .MILLI., .METRE. ) );
#654 = EDGE_CURVE ( 'NONE', #161, #683, #387, .T. ) ;
#655 = MECHANICAL_DESIGN_GEOMETRIC_PRESENTATION_REPRESENTATION (  '', ( #29 ), #586 ) ;
#656 = AXIS2_PLACEMENT_3D ( 'NONE', #612, #1058, #618 ) ;
#657 = CARTESIAN_POINT ( 'NONE',  ( 7.365000000000000213, 1.609365052918087180, 3.122849337825759787E-17 ) ) ;
#658 =( GEOMETRIC_REPRESENTATION_CONTEXT ( 3 ) GLOBAL_UNCERTAINTY_ASSIGNED_CONTEXT ( ( #743 ) ) GLOBAL_UNIT_ASSIGNED_CONTEXT ( ( #583, #723, #666 ) ) REPRESENTATION_CONTEXT ( 'NONE', 'WORKASPACE' ) );
#659 = STYLED_ITEM ( 'NONE', ( #596 ), #340 ) ;
#660 = DIRECTION ( 'NONE',  ( 3.763476001707854080E-16, -1.000000000000000000, 0.000000000000000000 ) ) ;
#661 = SURFACE_STYLE_FILL_AREA ( #323 ) ;
#662 = DIRECTION ( 'NONE',  ( -1.000000000000000000, -0.000000000000000000, -0.000000000000000000 ) ) ;
#663 = SURFACE_STYLE_FILL_AREA ( #580 ) ;
#664 = UNCERTAINTY_MEASURE_WITH_UNIT (LENGTH_MEASURE( 1.000000000000000082E-05 ), #326, 'distance_accuracy_value', 'NONE');
#665 = ADVANCED_FACE ( 'NONE', ( #489 ), #279, .F. ) ;
#666 =( NAMED_UNIT ( * ) SI_UNIT ( $, .STERADIAN. ) SOLID_ANGLE_UNIT ( ) );
#667 = DIRECTION ( 'NONE',  ( -1.000000000000000000, -0.000000000000000000, -0.000000000000000000 ) ) ;
#668 = CARTESIAN_POINT ( 'NONE',  ( 3.556190395207061261, 2.609365052918086292, 0.000000000000000000 ) ) ;
#669 = CARTESIAN_POINT ( 'NONE',  ( 3.362617346942188501, 2.609365052918086292, 0.000000000000000000 ) ) ;
#670 =( GEOMETRIC_REPRESENTATION_CONTEXT ( 3 ) GLOBAL_UNCERTAINTY_ASSIGNED_CONTEXT ( ( #1107 ) ) GLOBAL_UNIT_ASSIGNED_CONTEXT ( ( #298, #481, #172 ) ) REPRESENTATION_CONTEXT ( 'NONE', 'WORKASPACE' ) );
#671 = PRESENTATION_LAYER_ASSIGNMENT (  '', '', ( #50 ) ) ;
#672 = TOROIDAL_SURFACE ( 'NONE', #188, 1.000000000000000000, 0.2549999999999999489 ) ;
#673 = STYLED_ITEM ( 'NONE', ( #211 ), #665 ) ;
#674 = CARTESIAN_POINT ( 'NONE',  ( -7.620000000000001883, -2.999999999999999112, 0.000000000000000000 ) ) ;
#675 = COLOUR_RGB ( '',0.7529411764705882248, 0.7529411764705882248, 0.000000000000000000 ) ;
#676 = CYLINDRICAL_SURFACE ( 'NONE', #1106, 0.2549999999999999489 ) ;
#677 = UNCERTAINTY_MEASURE_WITH_UNIT (LENGTH_MEASURE( 1.000000000000000082E-05 ), #219, 'distance_accuracy_value', 'NONE');
#678 = SURFACE_SIDE_STYLE ('',( #338 ) ) ;
#679 =( LENGTH_UNIT ( ) NAMED_UNIT ( * ) SI_UNIT ( .MILLI., .METRE. ) );
#680 = EDGE_LOOP ( 'NONE', ( #702, #175 ) ) ;
#681 = ADVANCED_FACE ( 'NONE', ( #894 ), #310, .T. ) ;
#682 =( NAMED_UNIT ( * ) SI_UNIT ( $, .STERADIAN. ) SOLID_ANGLE_UNIT ( ) );
#683 = VERTEX_POINT ( 'NONE', #845 ) ;
#684 = SURFACE_STYLE_FILL_AREA ( #154 ) ;
#685 =( LENGTH_UNIT ( ) NAMED_UNIT ( * ) SI_UNIT ( .MILLI., .METRE. ) );
#686 = ORIENTED_EDGE ( 'NONE', *, *, #990, .F. ) ;
#687 = UNCERTAINTY_MEASURE_WITH_UNIT (LENGTH_MEASURE( 1.000000000000000082E-05 ), #258, 'distance_accuracy_value', 'NONE');
#688 = ORIENTED_EDGE ( 'NONE', *, *, #197, .T. ) ;
#689 = TOROIDAL_SURFACE ( 'NONE', #363, 1.000000000000000000, 0.2549999999999999489 ) ;
#690 =( NAMED_UNIT ( * ) SI_UNIT ( $, .STERADIAN. ) SOLID_ANGLE_UNIT ( ) );
#691 = CARTESIAN_POINT ( 'NONE',  ( -3.556190395207061261, 2.609365052918086292, 0.4550000000000005151 ) ) ;
#692 = PRESENTATION_LAYER_ASSIGNMENT (  '', '', ( #1003 ) ) ;
#693 = CIRCLE ( 'NONE', #898, 0.2549999999999999489 ) ;
#694 = LINE ( 'NONE', #1042, #121 ) ;
#695 = EDGE_CURVE ( 'NONE', #1086, #891, #1075, .T. ) ;
#696 = ORIENTED_EDGE ( 'NONE', *, *, #963, .T. ) ;
#697 = EDGE_LOOP ( 'NONE', ( #688, #900, #449, #1114 ) ) ;
#698 = CARTESIAN_POINT ( 'NONE',  ( -7.620000000000001883, -2.999999999999999112, 0.000000000000000000 ) ) ;
#699 = ORIENTED_EDGE ( 'NONE', *, *, #695, .T. ) ;
#700 =( NAMED_UNIT ( * ) SI_UNIT ( $, .STERADIAN. ) SOLID_ANGLE_UNIT ( ) );
#701 = ORIENTED_EDGE ( 'NONE', *, *, #797, .F. ) ;
#702 = ORIENTED_EDGE ( 'NONE', *, *, #23, .F. ) ;
#703 = LINE ( 'NONE', #268, #800 ) ;
#704 = ORIENTED_EDGE ( 'NONE', *, *, #14, .F. ) ;
#705 = FACE_OUTER_BOUND ( 'NONE', #964, .T. ) ;
#706 = CIRCLE ( 'NONE', #362, 0.2550000000000000044 ) ;
#707 = STYLED_ITEM ( 'NONE', ( #554 ), #182 ) ;
#708 = ORIENTED_EDGE ( 'NONE', *, *, #836, .T. ) ;
#709 = CARTESIAN_POINT ( 'NONE',  ( -6.620000000000000995, 2.609365052918086292, 0.2549999999999999489 ) ) ;
#710 = VERTEX_POINT ( 'NONE', #998 ) ;
#711 = EDGE_CURVE ( 'NONE', #871, #512, #49, .T. ) ;
#712 = DIRECTION ( 'NONE',  ( 0.000000000000000000, 0.000000000000000000, 1.000000000000000000 ) ) ;
#713 = FILL_AREA_STYLE_COLOUR ( '', #576 ) ;
#714 = VERTEX_POINT ( 'NONE', #1096 ) ;
#715 = DIRECTION ( 'NONE',  ( 0.000000000000000000, 0.000000000000000000, 1.000000000000000000 ) ) ;
#716 = ORIENTED_EDGE ( 'NONE', *, *, #973, .F. ) ;
#717 = FILL_AREA_STYLE_COLOUR ( '', #245 ) ;
#718 = PRESENTATION_STYLE_ASSIGNMENT (( #543 ) ) ;
#719 = ORIENTED_EDGE ( 'NONE', *, *, #232, .T. ) ;
#720 = SURFACE_STYLE_USAGE ( .BOTH. , #376 ) ;
#721 = AXIS2_PLACEMENT_3D ( 'NONE', #937, #507, #774 ) ;
#722 = CARTESIAN_POINT ( 'NONE',  ( -6.620000000000000995, 1.609365052918086292, 0.000000000000000000 ) ) ;
#723 =( NAMED_UNIT ( * ) PLANE_ANGLE_UNIT ( ) SI_UNIT ( $, .RADIAN. ) );
#724 = SURFACE_STYLE_USAGE ( .BOTH. , #378 ) ;
#725 = TOROIDAL_SURFACE ( 'NONE', #642, 0.4550000000000005151, 0.2000000000000004829 ) ;
#726 = CIRCLE ( 'NONE', #656, 0.2549999999999999489 ) ;
#727 = MECHANICAL_DESIGN_GEOMETRIC_PRESENTATION_REPRESENTATION (  '', ( #151 ), #163 ) ;
#728 = VECTOR ( 'NONE', #478, 1000.000000000000000 ) ;
#729 = AXIS2_PLACEMENT_3D ( 'NONE', #122, #285, #305 ) ;
#730 = COLOUR_RGB ( '',0.7529411764705882248, 0.7529411764705882248, 0.000000000000000000 ) ;
#731 = DIRECTION ( 'NONE',  ( 1.000000000000000000, 0.000000000000000000, 0.000000000000000000 ) ) ;
#732 = ORIENTED_EDGE ( 'NONE', *, *, #232, .F. ) ;
#733 = EDGE_CURVE ( 'NONE', #354, #871, #162, .T. ) ;
#734 = MECHANICAL_DESIGN_GEOMETRIC_PRESENTATION_REPRESENTATION (  '', ( #592 ), #73 ) ;
#735 = DIRECTION ( 'NONE',  ( 0.000000000000000000, 0.000000000000000000, -1.000000000000000000 ) ) ;
#736 = EDGE_CURVE ( 'NONE', #453, #891, #534, .T. ) ;
#737 = SPHERICAL_SURFACE ( 'NONE', #496, 1.609365052918086070 ) ;
#738 = CARTESIAN_POINT ( 'NONE',  ( -3.362617346942187613, 2.609365052918086292, -0.4047061138363221011 ) ) ;
#739 = CARTESIAN_POINT ( 'NONE',  ( 7.620000000000001883, -2.999999999999999112, 0.000000000000000000 ) ) ;
#740 = SURFACE_SIDE_STYLE ('',( #404 ) ) ;
#741 = DIRECTION ( 'NONE',  ( 0.000000000000000000, 0.000000000000000000, 1.000000000000000000 ) ) ;
#742 = MECHANICAL_DESIGN_GEOMETRIC_PRESENTATION_REPRESENTATION (  '', ( #798 ), #526 ) ;
#743 = UNCERTAINTY_MEASURE_WITH_UNIT (LENGTH_MEASURE( 1.000000000000000082E-05 ), #583, 'distance_accuracy_value', 'NONE');
#744 = DIRECTION ( 'NONE',  ( 0.000000000000000000, -1.000000000000000000, 0.000000000000000000 ) ) ;
#745 = FILL_AREA_STYLE_COLOUR ( '', #778 ) ;
#746 = AXIS2_PLACEMENT_3D ( 'NONE', #698, #18, #782 ) ;
#747 = COLOUR_RGB ( '',0.7529411764705882248, 0.7529411764705882248, 0.000000000000000000 ) ;
#748 = CARTESIAN_POINT ( 'NONE',  ( 6.620000000000000995, 1.609365052918086292, 0.000000000000000000 ) ) ;
#749 = SURFACE_SIDE_STYLE ('',( #991 ) ) ;
#750 = SURFACE_STYLE_USAGE ( .BOTH. , #530 ) ;
#751 = FILL_AREA_STYLE_COLOUR ( '', #6 ) ;
#752 = ADVANCED_FACE ( 'NONE', ( #130 ), #676, .T. ) ;
#753 = SURFACE_SIDE_STYLE ('',( #897 ) ) ;
#754 = DIRECTION ( 'NONE',  ( 0.000000000000000000, 0.000000000000000000, 1.000000000000000000 ) ) ;
#755 = CARTESIAN_POINT ( 'NONE',  ( -10.09675116564010722, 2.609365052918086292, 0.000000000000000000 ) ) ;
#756 = DIRECTION ( 'NONE',  ( -1.000000000000000000, -0.000000000000000000, -0.000000000000000000 ) ) ;
#757 = ORIENTED_EDGE ( 'NONE', *, *, #472, .T. ) ;
#758 =( LENGTH_UNIT ( ) NAMED_UNIT ( * ) SI_UNIT ( .MILLI., .METRE. ) );
#759 = CLOSED_SHELL ( 'NONE', ( #166, #182, #301, #681, #752, #1004, #665, #286, #330, #578, #370, #951, #1034, #284, #220, #349, #1060, #416, #499, #639, #213, #340, #320, #886 ) ) ;
#760 = CYLINDRICAL_SURFACE ( 'NONE', #300, 0.2550000000000000044 ) ;
#761 = MECHANICAL_DESIGN_GEOMETRIC_PRESENTATION_REPRESENTATION (  '', ( #149 ), #1074 ) ;
#762 = AXIS2_PLACEMENT_3D ( 'NONE', #559, #890, #950 ) ;
#763 =( GEOMETRIC_REPRESENTATION_CONTEXT ( 3 ) GLOBAL_UNCERTAINTY_ASSIGNED_CONTEXT ( ( #860 ) ) GLOBAL_UNIT_ASSIGNED_CONTEXT ( ( #685, #765, #682 ) ) REPRESENTATION_CONTEXT ( 'NONE', 'WORKASPACE' ) );
#764 = EDGE_CURVE ( 'NONE', #433, #591, #825, .T. ) ;
#765 =( NAMED_UNIT ( * ) PLANE_ANGLE_UNIT ( ) SI_UNIT ( $, .RADIAN. ) );
#766 = VERTEX_POINT ( 'NONE', #967 ) ;
#767 =( NAMED_UNIT ( * ) PLANE_ANGLE_UNIT ( ) SI_UNIT ( $, .RADIAN. ) );
#768 = PRESENTATION_STYLE_ASSIGNMENT (( #10 ) ) ;
#769 = EDGE_CURVE ( 'NONE', #710, #971, #382, .T. ) ;
#770 = CARTESIAN_POINT ( 'NONE',  ( 1.804968851620622594, 2.609365052918086292, 0.000000000000000000 ) ) ;
#771 = DIRECTION ( 'NONE',  ( -1.000000000000000000, -0.000000000000000000, -0.000000000000000000 ) ) ;
#772 = ORIENTED_EDGE ( 'NONE', *, *, #617, .T. ) ;
#773 = DIRECTION ( 'NONE',  ( 0.000000000000000000, 0.000000000000000000, -1.000000000000000000 ) ) ;
#774 = DIRECTION ( 'NONE',  ( 0.000000000000000000, 0.000000000000000000, 1.000000000000000000 ) ) ;
#775 = SPHERICAL_SURFACE ( 'NONE', #917, 1.609365052918086070 ) ;
#776 = CIRCLE ( 'NONE', #585, 0.2549999999999999489 ) ;
#777 = ORIENTED_EDGE ( 'NONE', *, *, #142, .F. ) ;
#778 = COLOUR_RGB ( '',0.7529411764705882248, 0.7529411764705882248, 0.000000000000000000 ) ;
#779 = SURFACE_SIDE_STYLE ('',( #425 ) ) ;
#780 = AXIS2_PLACEMENT_3D ( 'NONE', #492, #1076, #214 ) ;
#781 = STYLED_ITEM ( 'NONE', ( #394 ), #286 ) ;
#782 = DIRECTION ( 'NONE',  ( 0.000000000000000000, 0.000000000000000000, -1.000000000000000000 ) ) ;
#783 = DIRECTION ( 'NONE',  ( 0.000000000000000000, 0.000000000000000000, 1.000000000000000000 ) ) ;
#784 = EDGE_CURVE ( 'NONE', #542, #512, #389, .T. ) ;
#785 = SURFACE_STYLE_FILL_AREA ( #525 ) ;
#786 = DIRECTION ( 'NONE',  ( 0.000000000000000000, 0.000000000000000000, 1.000000000000000000 ) ) ;
#787 = DIRECTION ( 'NONE',  ( -1.000000000000000000, 0.000000000000000000, 0.000000000000000000 ) ) ;
#788 = FILL_AREA_STYLE ('',( #447 ) ) ;
#789 = ORIENTED_EDGE ( 'NONE', *, *, #157, .F. ) ;
#790 = CARTESIAN_POINT ( 'NONE',  ( -1.804968851620623482, 2.609365052918086292, 0.000000000000000000 ) ) ;
#791 = APPLICATION_CONTEXT ( 'automotive_design' ) ;
#792 = SURFACE_STYLE_FILL_AREA ( #466 ) ;
#793 = SURFACE_STYLE_FILL_AREA ( #113 ) ;
#794 = CARTESIAN_POINT ( 'NONE',  ( -3.556190395207061261, 2.609365052918086292, 0.2550000000000000044 ) ) ;
#795 = ORIENTED_EDGE ( 'NONE', *, *, #76, .T. ) ;
#796 = CARTESIAN_POINT ( 'NONE',  ( 3.556190395207061261, 2.609365052918086292, 0.000000000000000000 ) ) ;
#797 = EDGE_CURVE ( 'NONE', #470, #524, #528, .T. ) ;
#798 = STYLED_ITEM ( 'NONE', ( #768 ), #166 ) ;
#799 = PRESENTATION_STYLE_ASSIGNMENT (( #195 ) ) ;
#800 = VECTOR ( 'NONE', #628, 1000.000000000000000 ) ;
#801 =( GEOMETRIC_REPRESENTATION_CONTEXT ( 3 ) GLOBAL_UNCERTAINTY_ASSIGNED_CONTEXT ( ( #140 ) ) GLOBAL_UNIT_ASSIGNED_CONTEXT ( ( #947, #269, #807 ) ) REPRESENTATION_CONTEXT ( 'NONE', 'WORKASPACE' ) );
#802 = AXIS2_PLACEMENT_3D ( 'NONE', #748, #1098, #902 ) ;
#803 = CYLINDRICAL_SURFACE ( 'NONE', #500, 0.2549999999999999489 ) ;
#804 = ORIENTED_EDGE ( 'NONE', *, *, #157, .T. ) ;
#805 = FILL_AREA_STYLE ('',( #873 ) ) ;
#806 = DIRECTION ( 'NONE',  ( 0.000000000000000000, 0.000000000000000000, 1.000000000000000000 ) ) ;
#807 =( NAMED_UNIT ( * ) SI_UNIT ( $, .STERADIAN. ) SOLID_ANGLE_UNIT ( ) );
#808 = CARTESIAN_POINT ( 'NONE',  ( -10.09675116564010722, 2.609365052918086292, 0.000000000000000000 ) ) ;
#809 = CARTESIAN_POINT ( 'NONE',  ( -3.362617346942187613, 2.609365052918086292, 0.000000000000000000 ) ) ;
#810 = CARTESIAN_POINT ( 'NONE',  ( 7.620000000000000107, 1.609365052918087180, 0.000000000000000000 ) ) ;
#811 = ORIENTED_EDGE ( 'NONE', *, *, #490, .F. ) ;
#812 = SURFACE_STYLE_USAGE ( .BOTH. , #740 ) ;
#813 = DIRECTION ( 'NONE',  ( 0.000000000000000000, 0.000000000000000000, -1.000000000000000000 ) ) ;
#814 = CARTESIAN_POINT ( 'NONE',  ( 1.804968851620623482, 1.000000000000000000, 0.000000000000000000 ) ) ;
#815 = VERTEX_POINT ( 'NONE', #474 ) ;
#816 = DIRECTION ( 'NONE',  ( 0.000000000000000000, 0.000000000000000000, -1.000000000000000000 ) ) ;
#817 = SURFACE_STYLE_USAGE ( .BOTH. , #563 ) ;
#818 = AXIS2_PLACEMENT_3D ( 'NONE', #669, #409, #754 ) ;
#819 = CIRCLE ( 'NONE', #402, 1.609365052918086292 ) ;
#820 = AXIS2_PLACEMENT_3D ( 'NONE', #668, #391, #242 ) ;
#821 =( GEOMETRIC_REPRESENTATION_CONTEXT ( 3 ) GLOBAL_UNCERTAINTY_ASSIGNED_CONTEXT ( ( #505 ) ) GLOBAL_UNIT_ASSIGNED_CONTEXT ( ( #679, #767, #690 ) ) REPRESENTATION_CONTEXT ( 'NONE', 'WORKASPACE' ) );
#822 = CIRCLE ( 'NONE', #336, 1.609365052918086292 ) ;
#823 = SURFACE_STYLE_FILL_AREA ( #566 ) ;
#824 = AXIS2_PLACEMENT_3D ( 'NONE', #196, #377, #388 ) ;
#825 = CIRCLE ( 'NONE', #762, 0.4047061138363222121 ) ;
#826 = DIRECTION ( 'NONE',  ( 0.000000000000000000, 0.000000000000000000, 1.000000000000000000 ) ) ;
#827 = SURFACE_STYLE_USAGE ( .BOTH. , #59 ) ;
#828 = UNCERTAINTY_MEASURE_WITH_UNIT (LENGTH_MEASURE( 1.000000000000000082E-05 ), #841, 'distance_accuracy_value', 'NONE');
#829 = CARTESIAN_POINT ( 'NONE',  ( 3.362617346942188501, 2.609365052918086292, 0.000000000000000000 ) ) ;
#830 = DIRECTION ( 'NONE',  ( 0.000000000000000000, 0.000000000000000000, 1.000000000000000000 ) ) ;
#831 = CARTESIAN_POINT ( 'NONE',  ( 7.365000000000000213, 1.609365052918087180, 3.122849337825749926E-17 ) ) ;
#832 = PRESENTATION_STYLE_ASSIGNMENT (( #827 ) ) ;
#833 =( NAMED_UNIT ( * ) PLANE_ANGLE_UNIT ( ) SI_UNIT ( $, .RADIAN. ) );
#834 = EDGE_CURVE ( 'NONE', #891, #453, #726, .T. ) ;
#835 =( NAMED_UNIT ( * ) PLANE_ANGLE_UNIT ( ) SI_UNIT ( $, .RADIAN. ) );
#836 = EDGE_CURVE ( 'NONE', #1073, #1047, #281, .T. ) ;
#837 = DIRECTION ( 'NONE',  ( 0.000000000000000000, 0.000000000000000000, -1.000000000000000000 ) ) ;
#838 = COLOUR_RGB ( '',0.8980392156862745390, 0.9176470588235293713, 0.9294117647058823817 ) ;
#839 = UNCERTAINTY_MEASURE_WITH_UNIT (LENGTH_MEASURE( 1.000000000000000082E-05 ), #879, 'distance_accuracy_value', 'NONE');
#840 = DIRECTION ( 'NONE',  ( 2.832769448823989808E-16, 1.000000000000000000, -0.000000000000000000 ) ) ;
#841 =( LENGTH_UNIT ( ) NAMED_UNIT ( * ) SI_UNIT ( .MILLI., .METRE. ) );
#842 = VECTOR ( 'NONE', #97, 1000.000000000000000 ) ;
#843 = CIRCLE ( 'NONE', #441, 1.609365052918086292 ) ;
#844 =( NAMED_UNIT ( * ) SI_UNIT ( $, .STERADIAN. ) SOLID_ANGLE_UNIT ( ) );
#845 = CARTESIAN_POINT ( 'NONE',  ( 7.365000000000001990, -2.999999999999999112, 3.122849337825749310E-17 ) ) ;
#846 = FACE_OUTER_BOUND ( 'NONE', #613, .T. ) ;
#847 = CARTESIAN_POINT ( 'NONE',  ( 1.804968851620623482, 2.609365052918086292, 0.000000000000000000 ) ) ;
#848 = DIRECTION ( 'NONE',  ( -0.000000000000000000, 0.000000000000000000, 1.000000000000000000 ) ) ;
#849 = DIRECTION ( 'NONE',  ( -1.000000000000000000, -0.000000000000000000, -0.000000000000000000 ) ) ;
#850 = CARTESIAN_POINT ( 'NONE',  ( -1.804968851620623482, 2.609365052918086292, 0.000000000000000000 ) ) ;
#851 = AXIS2_PLACEMENT_3D ( 'NONE', #691, #1113, #262 ) ;
#852 = STYLED_ITEM ( 'NONE', ( #202 ), #752 ) ;
#853 = EDGE_CURVE ( 'NONE', #714, #22, #703, .T. ) ;
#854 = STYLED_ITEM ( 'NONE', ( #1099 ), #1034 ) ;
#855 = AXIS2_PLACEMENT_3D ( 'NONE', #297, #358, #647 ) ;
#856 = CARTESIAN_POINT ( 'NONE',  ( 3.362617346942188501, 2.609365052918086292, 0.000000000000000000 ) ) ;
#857 = ORIENTED_EDGE ( 'NONE', *, *, #14, .T. ) ;
#858 = ORIENTED_EDGE ( 'NONE', *, *, #624, .F. ) ;
#859 = CARTESIAN_POINT ( 'NONE',  ( 6.620000000000000995, 2.609365052918086292, 0.000000000000000000 ) ) ;
#860 = UNCERTAINTY_MEASURE_WITH_UNIT (LENGTH_MEASURE( 1.000000000000000082E-05 ), #685, 'distance_accuracy_value', 'NONE');
#861 = ORIENTED_EDGE ( 'NONE', *, *, #736, .T. ) ;
#862 = DIRECTION ( 'NONE',  ( 0.000000000000000000, 0.000000000000000000, 1.000000000000000000 ) ) ;
#863 =( LENGTH_UNIT ( ) NAMED_UNIT ( * ) SI_UNIT ( .MILLI., .METRE. ) );
#864 = SURFACE_SIDE_STYLE ('',( #941 ) ) ;
#865 = CARTESIAN_POINT ( 'NONE',  ( 3.556190395207061261, 2.609365052918086292, 0.000000000000000000 ) ) ;
#866 = ORIENTED_EDGE ( 'NONE', *, *, #601, .T. ) ;
#867 = CARTESIAN_POINT ( 'NONE',  ( -7.875000000000001776, -2.999999999999999112, 3.122849337825771497E-17 ) ) ;
#868 = FILL_AREA_STYLE_COLOUR ( '', #159 ) ;
#869 =( NAMED_UNIT ( * ) PLANE_ANGLE_UNIT ( ) SI_UNIT ( $, .RADIAN. ) );
#870 = EDGE_CURVE ( 'NONE', #199, #515, #316, .T. ) ;
#871 = VERTEX_POINT ( 'NONE', #24 ) ;
#872 = TOROIDAL_SURFACE ( 'NONE', #930, 1.000000000000000000, 0.2549999999999999489 ) ;
#873 = FILL_AREA_STYLE_COLOUR ( '', #933 ) ;
#874 =( LENGTH_UNIT ( ) NAMED_UNIT ( * ) SI_UNIT ( .MILLI., .METRE. ) );
#875 = MECHANICAL_DESIGN_GEOMETRIC_PRESENTATION_REPRESENTATION (  '', ( #1020 ), #821 ) ;
#876 = PRESENTATION_LAYER_ASSIGNMENT (  '', '', ( #592 ) ) ;
#877 =( NAMED_UNIT ( * ) SI_UNIT ( $, .STERADIAN. ) SOLID_ANGLE_UNIT ( ) );
#878 = AXIS2_PLACEMENT_3D ( 'NONE', #550, #1069, #715 ) ;
#879 =( LENGTH_UNIT ( ) NAMED_UNIT ( * ) SI_UNIT ( .MILLI., .METRE. ) );
#880 = FACE_OUTER_BOUND ( 'NONE', #609, .T. ) ;
#881 = ORIENTED_EDGE ( 'NONE', *, *, #529, .F. ) ;
#882 =( LENGTH_UNIT ( ) NAMED_UNIT ( * ) SI_UNIT ( .MILLI., .METRE. ) );
#883 = SURFACE_STYLE_USAGE ( .BOTH. , #536 ) ;
#884 = FILL_AREA_STYLE ('',( #968 ) ) ;
#885 = EDGE_LOOP ( 'NONE', ( #629, #289, #430, #686 ) ) ;
#886 = ADVANCED_FACE ( 'NONE', ( #179 ), #273, .T. ) ;
#887 =( NAMED_UNIT ( * ) SI_UNIT ( $, .STERADIAN. ) SOLID_ANGLE_UNIT ( ) );
#888 = VERTEX_POINT ( 'NONE', #1063 ) ;
#889 = SURFACE_STYLE_FILL_AREA ( #884 ) ;
#890 = DIRECTION ( 'NONE',  ( -1.000000000000000000, -0.000000000000000000, -0.000000000000000000 ) ) ;
#891 = VERTEX_POINT ( 'NONE', #1045 ) ;
#892 = AXIS2_PLACEMENT_3D ( 'NONE', #521, #731, #198 ) ;
#893 = AXIS2_PLACEMENT_3D ( 'NONE', #903, #283, #806 ) ;
#894 = FACE_OUTER_BOUND ( 'NONE', #539, .T. ) ;
#895 = PRESENTATION_LAYER_ASSIGNMENT (  '', '', ( #483 ) ) ;
#896 = AXIS2_PLACEMENT_3D ( 'NONE', #218, #136, #327 ) ;
#897 = SURFACE_STYLE_FILL_AREA ( #204 ) ;
#898 = AXIS2_PLACEMENT_3D ( 'NONE', #560, #37, #116 ) ;
#899 = CARTESIAN_POINT ( 'NONE',  ( 3.556190395207061261, 2.609365052918086292, 0.2549999999999999489 ) ) ;
#900 = ORIENTED_EDGE ( 'NONE', *, *, #398, .T. ) ;
#901 = EDGE_CURVE ( 'NONE', #199, #433, #916, .T. ) ;
#902 = DIRECTION ( 'NONE',  ( -1.000000000000000000, 0.000000000000000000, 0.000000000000000000 ) ) ;
#903 = CARTESIAN_POINT ( 'NONE',  ( -3.362617346942187613, 2.609365052918086292, 0.000000000000000000 ) ) ;
#904 = FILL_AREA_STYLE_COLOUR ( '', #498 ) ;
#905 = ORIENTED_EDGE ( 'NONE', *, *, #601, .F. ) ;
#906 = CARTESIAN_POINT ( 'NONE',  ( 7.875000000000000000, 1.609365052918087180, 0.000000000000000000 ) ) ;
#907 = ORIENTED_EDGE ( 'NONE', *, *, #654, .T. ) ;
#908 = CARTESIAN_POINT ( 'NONE',  ( 6.620000000000000995, 1.609365052918086292, 0.000000000000000000 ) ) ;
#909 = CARTESIAN_POINT ( 'NONE',  ( 7.620000000000000107, 1.609365052918087180, 0.000000000000000000 ) ) ;
#910 = CARTESIAN_POINT ( 'NONE',  ( -1.804968851620623482, 1.000000000000000000, 0.000000000000000000 ) ) ;
#911 = CIRCLE ( 'NONE', #415, 0.4047061138363226562 ) ;
#912 =( NAMED_UNIT ( * ) SI_UNIT ( $, .STERADIAN. ) SOLID_ANGLE_UNIT ( ) );
#913 = DIRECTION ( 'NONE',  ( -1.000000000000000000, -0.000000000000000000, -0.000000000000000000 ) ) ;
#914 =( LENGTH_UNIT ( ) NAMED_UNIT ( * ) SI_UNIT ( .MILLI., .METRE. ) );
#915 = MECHANICAL_DESIGN_GEOMETRIC_PRESENTATION_REPRESENTATION (  '', ( #183 ), #254 ) ;
#916 = CIRCLE ( 'NONE', #186, 0.2000000000000004829 ) ;
#917 = AXIS2_PLACEMENT_3D ( 'NONE', #770, #783, #160 ) ;
#918 = PRESENTATION_LAYER_ASSIGNMENT (  '', '', ( #1020 ) ) ;
#919 = TOROIDAL_SURFACE ( 'NONE', #1037, 1.000000000000000000, 0.2549999999999999489 ) ;
#920 = MECHANICAL_DESIGN_GEOMETRIC_PRESENTATION_REPRESENTATION (  '', ( #406 ), #209 ) ;
#921 = DIRECTION ( 'NONE',  ( 0.000000000000000000, -1.224646799147353207E-16, 1.000000000000000000 ) ) ;
#922 = CARTESIAN_POINT ( 'NONE',  ( -7.875000000000000000, 1.609365052918087180, 3.122849337825749926E-17 ) ) ;
#923 = UNCERTAINTY_MEASURE_WITH_UNIT (LENGTH_MEASURE( 1.000000000000000082E-05 ), #1065, 'distance_accuracy_value', 'NONE');
#924 = DIRECTION ( 'NONE',  ( -3.763476001707854080E-16, -1.000000000000000000, 0.000000000000000000 ) ) ;
#925 = EDGE_CURVE ( 'NONE', #714, #561, #819, .T. ) ;
#926 = EDGE_CURVE ( 'NONE', #766, #199, #192, .T. ) ;
#927 = DIRECTION ( 'NONE',  ( 0.000000000000000000, -1.000000000000000000, 0.000000000000000000 ) ) ;
#928 = CARTESIAN_POINT ( 'NONE',  ( -7.620000000000000107, 1.609365052918087180, 0.000000000000000000 ) ) ;
#929 = FILL_AREA_STYLE ('',( #229 ) ) ;
#930 = AXIS2_PLACEMENT_3D ( 'NONE', #178, #955, #104 ) ;
#931 = PRESENTATION_LAYER_ASSIGNMENT (  '', '', ( #29 ) ) ;
#932 = COLOUR_RGB ( '',0.7529411764705882248, 0.7529411764705882248, 0.000000000000000000 ) ;
#933 = COLOUR_RGB ( '',0.8980392156862745390, 0.9176470588235293713, 0.9294117647058823817 ) ;
#934 = CARTESIAN_POINT ( 'NONE',  ( -1.804968851620622594, 2.609365052918086292, 0.000000000000000000 ) ) ;
#935 = DIRECTION ( 'NONE',  ( 0.000000000000000000, 0.000000000000000000, 1.000000000000000000 ) ) ;
#936 = APPLICATION_PROTOCOL_DEFINITION ( 'draft international standard', 'automotive_design', 1998, #791 ) ;
#937 = CARTESIAN_POINT ( 'NONE',  ( 3.362617346942188501, 2.609365052918086292, 0.000000000000000000 ) ) ;
#938 = UNCERTAINTY_MEASURE_WITH_UNIT (LENGTH_MEASURE( 1.000000000000000082E-05 ), #1051, 'distance_accuracy_value', 'NONE');
#939 = EDGE_CURVE ( 'NONE', #591, #1073, #436, .T. ) ;
#940 = CARTESIAN_POINT ( 'NONE',  ( 3.362617346942188501, 2.609365052918086292, -0.4047061138363206023 ) ) ;
#941 = SURFACE_STYLE_FILL_AREA ( #413 ) ;
#942 = ORIENTED_EDGE ( 'NONE', *, *, #90, .T. ) ;
#943 = AXIS2_PLACEMENT_3D ( 'NONE', #105, #983, #622 ) ;
#944 = ORIENTED_EDGE ( 'NONE', *, *, #23, .T. ) ;
#945 = FACE_OUTER_BOUND ( 'NONE', #885, .T. ) ;
#946 = MECHANICAL_DESIGN_GEOMETRIC_PRESENTATION_REPRESENTATION (  '', ( #673 ), #1110 ) ;
#947 =( LENGTH_UNIT ( ) NAMED_UNIT ( * ) SI_UNIT ( .MILLI., .METRE. ) );
#948 = UNCERTAINTY_MEASURE_WITH_UNIT (LENGTH_MEASURE( 1.000000000000000082E-05 ), #16, 'distance_accuracy_value', 'NONE');
#949 = ORIENTED_EDGE ( 'NONE', *, *, #1015, .T. ) ;
#950 = DIRECTION ( 'NONE',  ( 0.000000000000000000, 0.000000000000000000, 1.000000000000000000 ) ) ;
#951 = ADVANCED_FACE ( 'NONE', ( #112 ), #737, .T. ) ;
#952 = CARTESIAN_POINT ( 'NONE',  ( 6.620000000000000995, 1.609365052918086292, 3.122849337825749926E-17 ) ) ;
#953 = ORIENTED_EDGE ( 'NONE', *, *, #853, .F. ) ;
#954 = AXIS2_PLACEMENT_3D ( 'NONE', #89, #424, #450 ) ;
#955 = DIRECTION ( 'NONE',  ( -0.000000000000000000, 0.000000000000000000, 1.000000000000000000 ) ) ;
#956 =( NAMED_UNIT ( * ) PLANE_ANGLE_UNIT ( ) SI_UNIT ( $, .RADIAN. ) );
#957 = ORIENTED_EDGE ( 'NONE', *, *, #733, .F. ) ;
#958 =( GEOMETRIC_REPRESENTATION_CONTEXT ( 3 ) GLOBAL_UNCERTAINTY_ASSIGNED_CONTEXT ( ( #828 ) ) GLOBAL_UNIT_ASSIGNED_CONTEXT ( ( #841, #495, #328 ) ) REPRESENTATION_CONTEXT ( 'NONE', 'WORKASPACE' ) );
#959 = AXIS2_PLACEMENT_3D ( 'NONE', #604, #261, #418 ) ;
#960 = CIRCLE ( 'NONE', #485, 1.609365052918086070 ) ;
#961 = DIRECTION ( 'NONE',  ( -0.000000000000000000, 1.000000000000000000, 1.224646799147353207E-16 ) ) ;
#962 = PRESENTATION_LAYER_ASSIGNMENT (  '', '', ( #673 ) ) ;
#963 = EDGE_CURVE ( 'NONE', #766, #95, #347, .T. ) ;
#964 = EDGE_LOOP ( 'NONE', ( #907, #119 ) ) ;
#965 = DIRECTION ( 'NONE',  ( 2.832769448823989808E-16, 1.000000000000000000, -0.000000000000000000 ) ) ;
#966 = ORIENTED_EDGE ( 'NONE', *, *, #925, .T. ) ;
#967 = CARTESIAN_POINT ( 'NONE',  ( -6.620000000000000995, 2.609365052918086292, -0.2549999999999999489 ) ) ;
#968 = FILL_AREA_STYLE_COLOUR ( '', #84 ) ;
#969 = DIRECTION ( 'NONE',  ( 0.000000000000000000, 0.000000000000000000, 1.000000000000000000 ) ) ;
#970 = CARTESIAN_POINT ( 'NONE',  ( -3.362617346942187613, 2.204658939081764135, 0.000000000000000000 ) ) ;
#971 = VERTEX_POINT ( 'NONE', #910 ) ;
#972 =( NAMED_UNIT ( * ) PLANE_ANGLE_UNIT ( ) SI_UNIT ( $, .RADIAN. ) );
#973 = EDGE_CURVE ( 'NONE', #22, #606, #1109, .T. ) ;
#974 = EDGE_LOOP ( 'NONE', ( #1040, #170, #1, #476, #287, #28 ) ) ;
#975 =( NAMED_UNIT ( * ) PLANE_ANGLE_UNIT ( ) SI_UNIT ( $, .RADIAN. ) );
#976 =( NAMED_UNIT ( * ) PLANE_ANGLE_UNIT ( ) SI_UNIT ( $, .RADIAN. ) );
#977 = FILL_AREA_STYLE_COLOUR ( '', #384 ) ;
#978 = DIRECTION ( 'NONE',  ( -1.000000000000000000, -0.000000000000000000, -0.000000000000000000 ) ) ;
#979 = FILL_AREA_STYLE ('',( #548 ) ) ;
#980 = ORIENTED_EDGE ( 'NONE', *, *, #557, .T. ) ;
#981 = CIRCLE ( 'NONE', #296, 1.609365052918086292 ) ;
#982 = AXIS2_PLACEMENT_3D ( 'NONE', #810, #42, #414 ) ;
#983 = DIRECTION ( 'NONE',  ( -1.000000000000000000, -0.000000000000000000, -0.000000000000000000 ) ) ;
#984 =( GEOMETRIC_REPRESENTATION_CONTEXT ( 3 ) GLOBAL_UNCERTAINTY_ASSIGNED_CONTEXT ( ( #1011 ) ) GLOBAL_UNIT_ASSIGNED_CONTEXT ( ( #36, #291, #993 ) ) REPRESENTATION_CONTEXT ( 'NONE', 'WORKASPACE' ) );
#985 = DIRECTION ( 'NONE',  ( -0.000000000000000000, 0.000000000000000000, 1.000000000000000000 ) ) ;
#986 = AXIS2_PLACEMENT_3D ( 'NONE', #646, #965, #992 ) ;
#987 = LINE ( 'NONE', #906, #304 ) ;
#988 = ORIENTED_EDGE ( 'NONE', *, *, #40, .F. ) ;
#989 = DIRECTION ( 'NONE',  ( 0.000000000000000000, 0.000000000000000000, -1.000000000000000000 ) ) ;
#990 = EDGE_CURVE ( 'NONE', #683, #161, #1035, .T. ) ;
#991 = SURFACE_STYLE_FILL_AREA ( #217 ) ;
#992 = DIRECTION ( 'NONE',  ( 0.000000000000000000, 0.000000000000000000, -1.000000000000000000 ) ) ;
#993 =( NAMED_UNIT ( * ) SI_UNIT ( $, .STERADIAN. ) SOLID_ANGLE_UNIT ( ) );
#994 = EDGE_LOOP ( 'NONE', ( #48, #93, #341, #804, #1115 ) ) ;
#995 = DIRECTION ( 'NONE',  ( -1.000000000000000000, 0.000000000000000000, 0.000000000000000000 ) ) ;
#996 = FILL_AREA_STYLE_COLOUR ( '', #587 ) ;
#997 = VERTEX_POINT ( 'NONE', #313 ) ;
#998 = CARTESIAN_POINT ( 'NONE',  ( -1.804968851620623482, 2.609365052918086292, -1.609365052918086292 ) ) ;
#999 = CIRCLE ( 'NONE', #27, 0.7449999999999999956 ) ;
#1000 = DIRECTION ( 'NONE',  ( 1.000000000000000000, -0.000000000000000000, -0.000000000000000000 ) ) ;
#1001 = CIRCLE ( 'NONE', #818, 0.4047061138363226562 ) ;
#1002 = PRESENTATION_LAYER_ASSIGNMENT (  '', '', ( #463 ) ) ;
#1003 = STYLED_ITEM ( 'NONE', ( #832 ), #301 ) ;
#1004 = ADVANCED_FACE ( 'NONE', ( #562 ), #146, .T. ) ;
#1005 = AXIS2_PLACEMENT_3D ( 'NONE', #934, #167, #74 ) ;
#1006 = AXIS2_PLACEMENT_3D ( 'NONE', #34, #813, #787 ) ;
#1007 = EDGE_CURVE ( 'NONE', #453, #191, #579, .T. ) ;
#1008 = CARTESIAN_POINT ( 'NONE',  ( -1.804968851620623482, 2.609365052918086292, 0.000000000000000000 ) ) ;
#1009 = DIRECTION ( 'NONE',  ( 0.000000000000000000, 0.000000000000000000, -1.000000000000000000 ) ) ;
#1010 = FILL_AREA_STYLE_COLOUR ( '', #497 ) ;
#1011 = UNCERTAINTY_MEASURE_WITH_UNIT (LENGTH_MEASURE( 1.000000000000000082E-05 ), #36, 'distance_accuracy_value', 'NONE');
#1012 = DIRECTION ( 'NONE',  ( 3.763476001707854080E-16, -1.000000000000000000, 0.000000000000000000 ) ) ;
#1013 = FACE_OUTER_BOUND ( 'NONE', #994, .T. ) ;
#1014 =( NAMED_UNIT ( * ) PLANE_ANGLE_UNIT ( ) SI_UNIT ( $, .RADIAN. ) );
#1015 = EDGE_CURVE ( 'NONE', #1086, #766, #625, .T. ) ;
#1016 = DIRECTION ( 'NONE',  ( -1.000000000000000000, -0.000000000000000000, -0.000000000000000000 ) ) ;
#1017 = PRESENTATION_LAYER_ASSIGNMENT (  '', '', ( #798 ) ) ;
#1018 = AXIS2_PLACEMENT_3D ( 'NONE', #829, #396, #230 ) ;
#1019 = SURFACE_STYLE_FILL_AREA ( #60 ) ;
#1020 = STYLED_ITEM ( 'NONE', ( #503 ), #1060 ) ;
#1021 = AXIS2_PLACEMENT_3D ( 'NONE', #312, #143, #989 ) ;
#1022 = AXIS2_PLACEMENT_3D ( 'NONE', #491, #744, #571 ) ;
#1023 = CARTESIAN_POINT ( 'NONE',  ( 6.620000000000000995, 2.609365052918086292, 0.2549999999999999489 ) ) ;
#1024 = CARTESIAN_POINT ( 'NONE',  ( 1.804968851620623482, 2.609365052918086292, 0.000000000000000000 ) ) ;
#1025 = SURFACE_STYLE_USAGE ( .BOTH. , #864 ) ;
#1026 = CARTESIAN_POINT ( 'NONE',  ( 1.804968851620623482, 2.609365052918086292, -1.609365052918086292 ) ) ;
#1027 = CARTESIAN_POINT ( 'NONE',  ( -6.620000000000000995, 2.864365052918086185, 0.000000000000000000 ) ) ;
#1028 = FILL_AREA_STYLE ('',( #249 ) ) ;
#1029 = DIRECTION ( 'NONE',  ( -1.000000000000000000, -0.000000000000000000, -0.000000000000000000 ) ) ;
#1030 = ORIENTED_EDGE ( 'NONE', *, *, #784, .T. ) ;
#1031 = CARTESIAN_POINT ( 'NONE',  ( 3.362617346942188501, 3.014071166754408893, 1.233262903810380613E-16 ) ) ;
#1032 = ORIENTED_EDGE ( 'NONE', *, *, #488, .T. ) ;
#1033 = PRESENTATION_LAYER_ASSIGNMENT (  '', '', ( #707 ) ) ;
#1034 = ADVANCED_FACE ( 'NONE', ( #224 ), #577, .T. ) ;
#1035 = CIRCLE ( 'NONE', #780, 0.2549999999999999489 ) ;
#1036 = ORIENTED_EDGE ( 'NONE', *, *, #171, .T. ) ;
#1037 = AXIS2_PLACEMENT_3D ( 'NONE', #538, #985, #274 ) ;
#1038 = CIRCLE ( 'NONE', #824, 0.2549999999999999489 ) ;
#1039 = DIRECTION ( 'NONE',  ( -1.000000000000000000, -0.000000000000000000, -0.000000000000000000 ) ) ;
#1040 = ORIENTED_EDGE ( 'NONE', *, *, #248, .F. ) ;
#1041 = DIRECTION ( 'NONE',  ( -1.000000000000000000, -0.000000000000000000, -0.000000000000000000 ) ) ;
#1042 = CARTESIAN_POINT ( 'NONE',  ( -7.365000000000000213, 1.609365052918087180, 0.000000000000000000 ) ) ;
#1043 = ORIENTED_EDGE ( 'NONE', *, *, #764, .F. ) ;
#1044 = SURFACE_STYLE_USAGE ( .BOTH. , #352 ) ;
#1045 = CARTESIAN_POINT ( 'NONE',  ( -7.365000000000000213, 1.609365052918087180, 0.000000000000000000 ) ) ;
#1046 = SURFACE_SIDE_STYLE ('',( #12 ) ) ;
#1047 = VERTEX_POINT ( 'NONE', #1112 ) ;
#1048 = PRODUCT_DEFINITION_FORMATION_WITH_SPECIFIED_SOURCE ( 'ANY', '', #131, .NOT_KNOWN. ) ;
#1049 = CARTESIAN_POINT ( 'NONE',  ( 1.804968851620623482, 2.609365052918086292, 0.000000000000000000 ) ) ;
#1050 = ORIENTED_EDGE ( 'NONE', *, *, #1117, .F. ) ;
#1051 =( LENGTH_UNIT ( ) NAMED_UNIT ( * ) SI_UNIT ( .MILLI., .METRE. ) );
#1052 = CIRCLE ( 'NONE', #570, 0.2000000000000004829 ) ;
#1053 = ORIENTED_EDGE ( 'NONE', *, *, #1088, .T. ) ;
#1054 = AXIS2_PLACEMENT_3D ( 'NONE', #928, #147, #235 ) ;
#1055 = CARTESIAN_POINT ( 'NONE',  ( -3.556190395207061261, 2.609365052918086292, 0.000000000000000000 ) ) ;
#1056 = CIRCLE ( 'NONE', #573, 0.2549999999999999489 ) ;
#1057 = AXIS2_PLACEMENT_3D ( 'NONE', #1008, #978, #379 ) ;
#1058 = DIRECTION ( 'NONE',  ( 2.832769448823989808E-16, 1.000000000000000000, -0.000000000000000000 ) ) ;
#1059 =( NAMED_UNIT ( * ) PLANE_ANGLE_UNIT ( ) SI_UNIT ( $, .RADIAN. ) );
#1060 = ADVANCED_FACE ( 'NONE', ( #945 ), #80, .T. ) ;
#1061 = ORIENTED_EDGE ( 'NONE', *, *, #248, .T. ) ;
#1062 = DIRECTION ( 'NONE',  ( 0.000000000000000000, -1.000000000000000000, -1.224646799147353207E-16 ) ) ;
#1063 = CARTESIAN_POINT ( 'NONE',  ( 6.620000000000000995, 2.354365052918086398, 3.122849337825749310E-17 ) ) ;
#1064 = FILL_AREA_STYLE ('',( #369 ) ) ;
#1065 =( LENGTH_UNIT ( ) NAMED_UNIT ( * ) SI_UNIT ( .MILLI., .METRE. ) );
#1066 = SURFACE_STYLE_USAGE ( .BOTH. , #35 ) ;
#1067 = SURFACE_SIDE_STYLE ('',( #823 ) ) ;
#1068 = ORIENTED_EDGE ( 'NONE', *, *, #1007, .F. ) ;
#1069 = DIRECTION ( 'NONE',  ( -1.000000000000000000, -0.000000000000000000, -0.000000000000000000 ) ) ;
#1070 = EDGE_LOOP ( 'NONE', ( #1053, #772, #701, #789, #1036 ) ) ;
#1071 = PRESENTATION_STYLE_ASSIGNMENT (( #1066 ) ) ;
#1072 = CARTESIAN_POINT ( 'NONE',  ( 3.556190395207061261, 2.609365052918086292, -0.2549999999999999489 ) ) ;
#1073 = VERTEX_POINT ( 'NONE', #597 ) ;
#1074 =( GEOMETRIC_REPRESENTATION_CONTEXT ( 3 ) GLOBAL_UNCERTAINTY_ASSIGNED_CONTEXT ( ( #395 ) ) GLOBAL_UNIT_ASSIGNED_CONTEXT ( ( #1097, #833, #502 ) ) REPRESENTATION_CONTEXT ( 'NONE', 'WORKASPACE' ) );
#1075 = CIRCLE ( 'NONE', #222, 0.7449999999999999956 ) ;
#1076 = DIRECTION ( 'NONE',  ( 2.832769448823989808E-16, -1.000000000000000000, 0.000000000000000000 ) ) ;
#1077 = AXIS2_PLACEMENT_3D ( 'NONE', #755, #1016, #862 ) ;
#1078 = FILL_AREA_STYLE ('',( #47 ) ) ;
#1079 =( GEOMETRIC_REPRESENTATION_CONTEXT ( 3 ) GLOBAL_UNCERTAINTY_ASSIGNED_CONTEXT ( ( #427 ) ) GLOBAL_UNIT_ASSIGNED_CONTEXT ( ( #914, #1090, #67 ) ) REPRESENTATION_CONTEXT ( 'NONE', 'WORKASPACE' ) );
#1080 = AXIS2_PLACEMENT_3D ( 'NONE', #808, #468, #630 ) ;
#1081 = SURFACE_STYLE_USAGE ( .BOTH. , #461 ) ;
#1082 = ORIENTED_EDGE ( 'NONE', *, *, #62, .F. ) ;
#1083 = DIRECTION ( 'NONE',  ( 2.832769448823989808E-16, -1.000000000000000000, 0.000000000000000000 ) ) ;
#1084 = DIRECTION ( 'NONE',  ( -1.000000000000000000, -0.000000000000000000, -0.000000000000000000 ) ) ;
#1085 = SPHERICAL_SURFACE ( 'NONE', #896, 1.609365052918086070 ) ;
#1086 = VERTEX_POINT ( 'NONE', #343 ) ;
#1087 =( NAMED_UNIT ( * ) SI_UNIT ( $, .STERADIAN. ) SOLID_ANGLE_UNIT ( ) );
#1088 = EDGE_CURVE ( 'NONE', #815, #176, #1056, .T. ) ;
#1089 = DIRECTION ( 'NONE',  ( 1.000000000000000000, 0.000000000000000000, 0.000000000000000000 ) ) ;
#1090 =( NAMED_UNIT ( * ) PLANE_ANGLE_UNIT ( ) SI_UNIT ( $, .RADIAN. ) );
#1091 =( NAMED_UNIT ( * ) PLANE_ANGLE_UNIT ( ) SI_UNIT ( $, .RADIAN. ) );
#1092 = UNCERTAINTY_MEASURE_WITH_UNIT (LENGTH_MEASURE( 1.000000000000000082E-05 ), #46, 'distance_accuracy_value', 'NONE');
#1093 = DIRECTION ( 'NONE',  ( 2.832769448823989808E-16, -1.000000000000000000, 0.000000000000000000 ) ) ;
#1094 = COLOUR_RGB ( '',0.7529411764705882248, 0.7529411764705882248, 0.000000000000000000 ) ;
#1095 =( GEOMETRIC_REPRESENTATION_CONTEXT ( 3 ) GLOBAL_UNCERTAINTY_ASSIGNED_CONTEXT ( ( #923 ) ) GLOBAL_UNIT_ASSIGNED_CONTEXT ( ( #1065, #1059, #877 ) ) REPRESENTATION_CONTEXT ( 'NONE', 'WORKASPACE' ) );
#1096 = CARTESIAN_POINT ( 'NONE',  ( 1.804968851620623482, 2.609365052918086292, 1.609365052918086292 ) ) ;
#1097 =( LENGTH_UNIT ( ) NAMED_UNIT ( * ) SI_UNIT ( .MILLI., .METRE. ) );
#1098 = DIRECTION ( 'NONE',  ( -0.000000000000000000, -0.000000000000000000, -1.000000000000000000 ) ) ;
#1099 = PRESENTATION_STYLE_ASSIGNMENT (( #812 ) ) ;
#1100 = DIRECTION ( 'NONE',  ( -1.000000000000000000, -0.000000000000000000, -0.000000000000000000 ) ) ;
#1101 =( NAMED_UNIT ( * ) PLANE_ANGLE_UNIT ( ) SI_UNIT ( $, .RADIAN. ) );
#1102 = EDGE_CURVE ( 'NONE', #971, #591, #365, .T. ) ;
#1103 = UNCERTAINTY_MEASURE_WITH_UNIT (LENGTH_MEASURE( 1.000000000000000082E-05 ), #294, 'distance_accuracy_value', 'NONE');
#1104 = CARTESIAN_POINT ( 'NONE',  ( 6.620000000000000995, 2.609365052918086292, 0.000000000000000000 ) ) ;
#1105 = FILL_AREA_STYLE_COLOUR ( '', #1094 ) ;
#1106 = AXIS2_PLACEMENT_3D ( 'NONE', #859, #771, #210 ) ;
#1107 = UNCERTAINTY_MEASURE_WITH_UNIT (LENGTH_MEASURE( 1.000000000000000082E-05 ), #298, 'distance_accuracy_value', 'NONE');
#1108 = PRESENTATION_STYLE_ASSIGNMENT (( #77 ) ) ;
#1109 = CIRCLE ( 'NONE', #641, 1.609365052918086292 ) ;
#1110 =( GEOMETRIC_REPRESENTATION_CONTEXT ( 3 ) GLOBAL_UNCERTAINTY_ASSIGNED_CONTEXT ( ( #408 ) ) GLOBAL_UNIT_ASSIGNED_CONTEXT ( ( #874, #443, #17 ) ) REPRESENTATION_CONTEXT ( 'NONE', 'WORKASPACE' ) );
#1111 = VECTOR ( 'NONE', #537, 1000.000000000000000 ) ;
#1112 = CARTESIAN_POINT ( 'NONE',  ( -3.362617346942187613, 3.014071166754408448, 1.233262903810380613E-16 ) ) ;
#1113 = DIRECTION ( 'NONE',  ( 0.000000000000000000, -1.000000000000000000, 0.000000000000000000 ) ) ;
#1114 = ORIENTED_EDGE ( 'NONE', *, *, #544, .F. ) ;
#1115 = ORIENTED_EDGE ( 'NONE', *, *, #197, .F. ) ;
#1116 = SURFACE_STYLE_USAGE ( .BOTH. , #78 ) ;
#1117 = EDGE_CURVE ( 'NONE', #512, #542, #510, .T. ) ;
ENDSEC;
END-ISO-10303-21;
