ISO-10303-21;
HEADER;
/* Generated by software containing ST-Developer
 * from STEP Tools, Inc. (www.steptools.com) 
 */

FILE_DESCRIPTION(
/* description */ (''),
/* implementation_level */ '2;1');

FILE_NAME(
/* name */ 'Jumper.step',
/* time_stamp */ '2026-09-06T21:35:12+02:00',
/* author */ (''),
/* organization */ (''),
/* preprocessor_version */ 'ST-DEVELOPER v20.1',
/* originating_system */ 'Autodesk Translation Framework v15.8.0.0',
/* authorisation */ '');

FILE_SCHEMA (('AUTOMOTIVE_DESIGN { 1 0 10303 214 3 1 1 }'));
ENDSEC;

DATA;
#10=MECHANICAL_DESIGN_GEOMETRIC_PRESENTATION_REPRESENTATION('',(#13),#326);
#11=SHAPE_REPRESENTATION_RELATIONSHIP('SRR','None',#333,#12);
#12=ADVANCED_BREP_SHAPE_REPRESENTATION('',(#14),#325);
#13=STYLED_ITEM('',(#343),#14);
#14=MANIFOLD_SOLID_BREP('Body1',#142);
#15=TOROIDAL_SURFACE('',#170,0.393060599668922,0.265);
#16=TOROIDAL_SURFACE('',#177,0.436939400331078,0.265);
#17=PLANE('',#162);
#18=PLANE('',#169);
#19=LINE('',#265,#22);
#20=LINE('',#306,#23);
#21=LINE('',#317,#24);
#22=VECTOR('',#189,0.265);
#23=VECTOR('',#206,0.265);
#24=VECTOR('',#221,0.265);
#25=CYLINDRICAL_SURFACE('',#159,0.265);
#26=CYLINDRICAL_SURFACE('',#166,0.265);
#27=CYLINDRICAL_SURFACE('',#174,0.265);
#28=FACE_OUTER_BOUND('',#37,.T.);
#29=FACE_OUTER_BOUND('',#38,.T.);
#30=FACE_OUTER_BOUND('',#39,.T.);
#31=FACE_OUTER_BOUND('',#40,.T.);
#32=FACE_OUTER_BOUND('',#41,.T.);
#33=FACE_OUTER_BOUND('',#42,.T.);
#34=FACE_OUTER_BOUND('',#43,.T.);
#35=FACE_OUTER_BOUND('',#44,.T.);
#36=FACE_OUTER_BOUND('',#45,.T.);
#37=EDGE_LOOP('',(#93,#94,#95,#96));
#38=EDGE_LOOP('',(#97,#98,#99,#100,#101));
#39=EDGE_LOOP('',(#102));
#40=EDGE_LOOP('',(#103,#104,#105,#106));
#41=EDGE_LOOP('',(#107,#108,#109,#110,#111));
#42=EDGE_LOOP('',(#112));
#43=EDGE_LOOP('',(#113,#114,#115,#116,#117,#118));
#44=EDGE_LOOP('',(#119,#120,#121,#122,#123,#124));
#45=EDGE_LOOP('',(#125,#126,#127,#128,#129,#130));
#46=CIRCLE('',#156,0.1325);
#47=CIRCLE('',#157,0.1325);
#48=CIRCLE('',#158,0.265);
#49=CIRCLE('',#160,0.265);
#50=CIRCLE('',#161,0.265);
#51=CIRCLE('',#163,0.265);
#52=CIRCLE('',#164,0.1325);
#53=CIRCLE('',#165,0.1325);
#54=CIRCLE('',#167,0.265);
#55=CIRCLE('',#168,0.265);
#56=CIRCLE('',#171,0.128060599668922);
#57=CIRCLE('',#172,0.265);
#58=CIRCLE('',#173,0.265);
#59=CIRCLE('',#175,0.265);
#60=CIRCLE('',#176,0.265);
#61=CIRCLE('',#178,0.171939400331078);
#62=VERTEX_POINT('',#258);
#63=VERTEX_POINT('',#260);
#64=VERTEX_POINT('',#264);
#65=VERTEX_POINT('',#266);
#66=VERTEX_POINT('',#297);
#67=VERTEX_POINT('',#299);
#68=VERTEX_POINT('',#303);
#69=VERTEX_POINT('',#304);
#70=VERTEX_POINT('',#310);
#71=VERTEX_POINT('',#312);
#72=VERTEX_POINT('',#316);
#73=VERTEX_POINT('',#318);
#74=EDGE_CURVE('',#62,#62,#46,.T.);
#75=EDGE_CURVE('',#62,#63,#47,.T.);
#76=EDGE_CURVE('',#63,#63,#48,.T.);
#77=EDGE_CURVE('',#63,#64,#19,.T.);
#78=EDGE_CURVE('',#64,#65,#49,.T.);
#79=EDGE_CURVE('',#65,#64,#50,.T.);
#80=EDGE_CURVE('',#66,#66,#51,.T.);
#81=EDGE_CURVE('',#66,#67,#52,.T.);
#82=EDGE_CURVE('',#67,#67,#53,.T.);
#83=EDGE_CURVE('',#68,#69,#54,.T.);
#84=EDGE_CURVE('',#68,#66,#20,.T.);
#85=EDGE_CURVE('',#69,#68,#55,.T.);
#86=EDGE_CURVE('',#65,#70,#56,.T.);
#87=EDGE_CURVE('',#70,#71,#57,.T.);
#88=EDGE_CURVE('',#71,#70,#58,.T.);
#89=EDGE_CURVE('',#71,#72,#21,.T.);
#90=EDGE_CURVE('',#72,#73,#59,.T.);
#91=EDGE_CURVE('',#73,#72,#60,.T.);
#92=EDGE_CURVE('',#73,#69,#61,.T.);
#93=ORIENTED_EDGE('',*,*,#74,.T.);
#94=ORIENTED_EDGE('',*,*,#75,.T.);
#95=ORIENTED_EDGE('',*,*,#76,.T.);
#96=ORIENTED_EDGE('',*,*,#75,.F.);
#97=ORIENTED_EDGE('',*,*,#76,.F.);
#98=ORIENTED_EDGE('',*,*,#77,.T.);
#99=ORIENTED_EDGE('',*,*,#78,.T.);
#100=ORIENTED_EDGE('',*,*,#79,.T.);
#101=ORIENTED_EDGE('',*,*,#77,.F.);
#102=ORIENTED_EDGE('',*,*,#74,.F.);
#103=ORIENTED_EDGE('',*,*,#80,.T.);
#104=ORIENTED_EDGE('',*,*,#81,.T.);
#105=ORIENTED_EDGE('',*,*,#82,.T.);
#106=ORIENTED_EDGE('',*,*,#81,.F.);
#107=ORIENTED_EDGE('',*,*,#83,.F.);
#108=ORIENTED_EDGE('',*,*,#84,.T.);
#109=ORIENTED_EDGE('',*,*,#80,.F.);
#110=ORIENTED_EDGE('',*,*,#84,.F.);
#111=ORIENTED_EDGE('',*,*,#85,.F.);
#112=ORIENTED_EDGE('',*,*,#82,.F.);
#113=ORIENTED_EDGE('',*,*,#78,.F.);
#114=ORIENTED_EDGE('',*,*,#79,.F.);
#115=ORIENTED_EDGE('',*,*,#86,.T.);
#116=ORIENTED_EDGE('',*,*,#87,.T.);
#117=ORIENTED_EDGE('',*,*,#88,.T.);
#118=ORIENTED_EDGE('',*,*,#86,.F.);
#119=ORIENTED_EDGE('',*,*,#88,.F.);
#120=ORIENTED_EDGE('',*,*,#89,.T.);
#121=ORIENTED_EDGE('',*,*,#90,.T.);
#122=ORIENTED_EDGE('',*,*,#91,.T.);
#123=ORIENTED_EDGE('',*,*,#89,.F.);
#124=ORIENTED_EDGE('',*,*,#87,.F.);
#125=ORIENTED_EDGE('',*,*,#90,.F.);
#126=ORIENTED_EDGE('',*,*,#91,.F.);
#127=ORIENTED_EDGE('',*,*,#92,.T.);
#128=ORIENTED_EDGE('',*,*,#85,.T.);
#129=ORIENTED_EDGE('',*,*,#83,.T.);
#130=ORIENTED_EDGE('',*,*,#92,.F.);
#131=(
BOUNDED_SURFACE()
B_SPLINE_SURFACE(2,2,((#231,#232,#233,#234,#235,#236,#237,#238,#239),(#240,
#241,#242,#243,#244,#245,#246,#247,#248),(#249,#250,#251,#252,#253,#254,
#255,#256,#257)),.UNSPECIFIED.,.F.,.T.,.F.)
B_SPLINE_SURFACE_WITH_KNOTS((3,3),(3,2,2,2,3),(-2.47016249823753E-16,1.5707963267949),
(-3.14159265358979,-1.5707963267949,0.,1.5707963267949,3.14159265358979),
 .UNSPECIFIED.)
GEOMETRIC_REPRESENTATION_ITEM()
RATIONAL_B_SPLINE_SURFACE(((1.,0.707106781186548,1.,0.707106781186548,1.,
0.707106781186548,1.,0.707106781186548,1.),(0.707106781186553,0.500000000000004,
0.707106781186553,0.500000000000004,0.707106781186553,0.500000000000004,
0.707106781186553,0.500000000000004,0.707106781186553),(1.,0.707106781186548,
1.,0.707106781186548,1.,0.707106781186548,1.,0.707106781186548,1.)))
REPRESENTATION_ITEM('')
SURFACE()
);
#132=(
BOUNDED_SURFACE()
B_SPLINE_SURFACE(2,2,((#270,#271,#272,#273,#274,#275,#276,#277,#278),(#279,
#280,#281,#282,#283,#284,#285,#286,#287),(#288,#289,#290,#291,#292,#293,
#294,#295,#296)),.UNSPECIFIED.,.F.,.T.,.F.)
B_SPLINE_SURFACE_WITH_KNOTS((3,3),(3,2,2,2,3),(-1.5707963267949,0.),(-3.14159265358979,
-1.5707963267949,0.,1.5707963267949,3.14159265358979),.UNSPECIFIED.)
GEOMETRIC_REPRESENTATION_ITEM()
RATIONAL_B_SPLINE_SURFACE(((1.,0.707106781186548,1.,0.707106781186548,1.,
0.707106781186548,1.,0.707106781186548,1.),(0.707106781186553,0.500000000000004,
0.707106781186553,0.500000000000004,0.707106781186553,0.500000000000004,
0.707106781186553,0.500000000000004,0.707106781186553),(1.,0.707106781186548,
1.,0.707106781186548,1.,0.707106781186548,1.,0.707106781186548,1.)))
REPRESENTATION_ITEM('')
SURFACE()
);
#133=ADVANCED_FACE('',(#28),#131,.F.);
#134=ADVANCED_FACE('',(#29),#25,.T.);
#135=ADVANCED_FACE('',(#30),#17,.T.);
#136=ADVANCED_FACE('',(#31),#132,.F.);
#137=ADVANCED_FACE('',(#32),#26,.T.);
#138=ADVANCED_FACE('',(#33),#18,.F.);
#139=ADVANCED_FACE('',(#34),#15,.T.);
#140=ADVANCED_FACE('',(#35),#27,.T.);
#141=ADVANCED_FACE('',(#36),#16,.T.);
#142=CLOSED_SHELL('',(#133,#134,#135,#136,#137,#138,#139,#140,#141));
#143=DERIVED_UNIT_ELEMENT(#145,1.);
#144=DERIVED_UNIT_ELEMENT(#328,-3.);
#145=(
MASS_UNIT()
NAMED_UNIT(*)
SI_UNIT(.KILO.,.GRAM.)
);
#146=DERIVED_UNIT((#143,#144));
#147=MEASURE_REPRESENTATION_ITEM('density measure',
POSITIVE_RATIO_MEASURE(7850.),#146);
#148=PROPERTY_DEFINITION_REPRESENTATION(#153,#150);
#149=PROPERTY_DEFINITION_REPRESENTATION(#154,#151);
#150=REPRESENTATION('material name',(#152),#325);
#151=REPRESENTATION('density',(#147),#325);
#152=DESCRIPTIVE_REPRESENTATION_ITEM('Steel','Steel');
#153=PROPERTY_DEFINITION('material property','material name',#335);
#154=PROPERTY_DEFINITION('material property','density of part',#335);
#155=AXIS2_PLACEMENT_3D('',#230,#179,#180);
#156=AXIS2_PLACEMENT_3D('',#259,#181,#182);
#157=AXIS2_PLACEMENT_3D('',#261,#183,#184);
#158=AXIS2_PLACEMENT_3D('',#262,#185,#186);
#159=AXIS2_PLACEMENT_3D('',#263,#187,#188);
#160=AXIS2_PLACEMENT_3D('',#267,#190,#191);
#161=AXIS2_PLACEMENT_3D('',#268,#192,#193);
#162=AXIS2_PLACEMENT_3D('',#269,#194,#195);
#163=AXIS2_PLACEMENT_3D('',#298,#196,#197);
#164=AXIS2_PLACEMENT_3D('',#300,#198,#199);
#165=AXIS2_PLACEMENT_3D('',#301,#200,#201);
#166=AXIS2_PLACEMENT_3D('',#302,#202,#203);
#167=AXIS2_PLACEMENT_3D('',#305,#204,#205);
#168=AXIS2_PLACEMENT_3D('',#307,#207,#208);
#169=AXIS2_PLACEMENT_3D('',#308,#209,#210);
#170=AXIS2_PLACEMENT_3D('',#309,#211,#212);
#171=AXIS2_PLACEMENT_3D('',#311,#213,#214);
#172=AXIS2_PLACEMENT_3D('',#313,#215,#216);
#173=AXIS2_PLACEMENT_3D('',#314,#217,#218);
#174=AXIS2_PLACEMENT_3D('',#315,#219,#220);
#175=AXIS2_PLACEMENT_3D('',#319,#222,#223);
#176=AXIS2_PLACEMENT_3D('',#320,#224,#225);
#177=AXIS2_PLACEMENT_3D('',#321,#226,#227);
#178=AXIS2_PLACEMENT_3D('',#322,#228,#229);
#179=DIRECTION('axis',(0.,0.,1.));
#180=DIRECTION('refdir',(1.,0.,0.));
#181=DIRECTION('center_axis',(-1.22464679914735E-16,0.,1.));
#182=DIRECTION('ref_axis',(-1.,0.,-1.22464679914735E-16));
#183=DIRECTION('center_axis',(-1.22464679914735E-16,-1.,-1.49975978266186E-32));
#184=DIRECTION('ref_axis',(1.,-1.22464679914735E-16,0.));
#185=DIRECTION('center_axis',(1.22464679914735E-16,0.,-1.));
#186=DIRECTION('ref_axis',(-1.,0.,-1.30922526488816E-16));
#187=DIRECTION('center_axis',(0.,0.,-1.));
#188=DIRECTION('ref_axis',(-1.,0.,0.));
#189=DIRECTION('',(0.,0.,1.));
#190=DIRECTION('center_axis',(1.22464679914735E-16,0.,-1.));
#191=DIRECTION('ref_axis',(-1.,0.,-1.22464679914735E-16));
#192=DIRECTION('center_axis',(1.22464679914735E-16,0.,-1.));
#193=DIRECTION('ref_axis',(-1.,0.,-1.22464679914735E-16));
#194=DIRECTION('center_axis',(1.22464679914735E-16,0.,-1.));
#195=DIRECTION('ref_axis',(-1.,0.,-1.22464679914735E-16));
#196=DIRECTION('center_axis',(0.,0.,-1.));
#197=DIRECTION('ref_axis',(1.,0.,0.));
#198=DIRECTION('center_axis',(1.22464679914735E-16,-1.,0.));
#199=DIRECTION('ref_axis',(-1.,-1.22464679914735E-16,0.));
#200=DIRECTION('center_axis',(0.,0.,1.));
#201=DIRECTION('ref_axis',(1.,0.,0.));
#202=DIRECTION('center_axis',(0.,0.,1.));
#203=DIRECTION('ref_axis',(1.,0.,0.));
#204=DIRECTION('center_axis',(0.,0.,1.));
#205=DIRECTION('ref_axis',(1.,0.,0.));
#206=DIRECTION('',(0.,0.,-1.));
#207=DIRECTION('center_axis',(0.,0.,1.));
#208=DIRECTION('ref_axis',(1.,0.,0.));
#209=DIRECTION('center_axis',(0.,0.,1.));
#210=DIRECTION('ref_axis',(1.,0.,0.));
#211=DIRECTION('center_axis',(0.,1.,0.));
#212=DIRECTION('ref_axis',(0.,0.,1.));
#213=DIRECTION('center_axis',(0.,-1.,0.));
#214=DIRECTION('ref_axis',(0.,0.,1.));
#215=DIRECTION('center_axis',(1.,0.,6.12323399573677E-17));
#216=DIRECTION('ref_axis',(6.12323399573677E-17,0.,-1.));
#217=DIRECTION('center_axis',(1.,0.,6.12323399573677E-17));
#218=DIRECTION('ref_axis',(6.12323399573677E-17,0.,-1.));
#219=DIRECTION('center_axis',(1.,0.,0.));
#220=DIRECTION('ref_axis',(0.,0.,-1.));
#221=DIRECTION('',(-1.,0.,0.));
#222=DIRECTION('center_axis',(1.,0.,6.12323399573677E-17));
#223=DIRECTION('ref_axis',(6.12323399573677E-17,0.,-1.));
#224=DIRECTION('center_axis',(1.,0.,6.12323399573677E-17));
#225=DIRECTION('ref_axis',(6.12323399573677E-17,0.,-1.));
#226=DIRECTION('center_axis',(0.,1.,0.));
#227=DIRECTION('ref_axis',(0.,0.,1.));
#228=DIRECTION('center_axis',(0.,-1.,0.));
#229=DIRECTION('ref_axis',(0.,0.,1.));
#230=CARTESIAN_POINT('',(0.,0.,0.));
#231=CARTESIAN_POINT('Ctrl Pts',(4.09,0.,-3.1025));
#232=CARTESIAN_POINT('Ctrl Pts',(4.09,-0.265,-3.1025));
#233=CARTESIAN_POINT('Ctrl Pts',(3.825,-0.265,-3.1025));
#234=CARTESIAN_POINT('Ctrl Pts',(3.56,-0.265,-3.1025));
#235=CARTESIAN_POINT('Ctrl Pts',(3.56,0.,-3.1025));
#236=CARTESIAN_POINT('Ctrl Pts',(3.56,0.265,-3.1025));
#237=CARTESIAN_POINT('Ctrl Pts',(3.825,0.265,-3.1025));
#238=CARTESIAN_POINT('Ctrl Pts',(4.09,0.265,-3.1025));
#239=CARTESIAN_POINT('Ctrl Pts',(4.09,0.,-3.1025));
#240=CARTESIAN_POINT('Ctrl Pts',(4.09,0.,-3.235));
#241=CARTESIAN_POINT('Ctrl Pts',(4.09,-0.265,-3.235));
#242=CARTESIAN_POINT('Ctrl Pts',(3.825,-0.265,-3.235));
#243=CARTESIAN_POINT('Ctrl Pts',(3.56,-0.265,-3.235));
#244=CARTESIAN_POINT('Ctrl Pts',(3.56,0.,-3.235));
#245=CARTESIAN_POINT('Ctrl Pts',(3.56,0.265,-3.235));
#246=CARTESIAN_POINT('Ctrl Pts',(3.825,0.265,-3.235));
#247=CARTESIAN_POINT('Ctrl Pts',(4.09,0.265,-3.235));
#248=CARTESIAN_POINT('Ctrl Pts',(4.09,0.,-3.235));
#249=CARTESIAN_POINT('Ctrl Pts',(3.9575,0.,-3.235));
#250=CARTESIAN_POINT('Ctrl Pts',(3.9575,-0.1325,-3.235));
#251=CARTESIAN_POINT('Ctrl Pts',(3.825,-0.1325,-3.235));
#252=CARTESIAN_POINT('Ctrl Pts',(3.6925,-0.1325,-3.235));
#253=CARTESIAN_POINT('Ctrl Pts',(3.6925,0.,-3.235));
#254=CARTESIAN_POINT('Ctrl Pts',(3.6925,0.1325,-3.235));
#255=CARTESIAN_POINT('Ctrl Pts',(3.825,0.1325,-3.235));
#256=CARTESIAN_POINT('Ctrl Pts',(3.9575,0.1325,-3.235));
#257=CARTESIAN_POINT('Ctrl Pts',(3.9575,0.,-3.235));
#258=CARTESIAN_POINT('',(3.9575,1.62265700887025E-17,-3.235));
#259=CARTESIAN_POINT('Origin',(3.825,0.,-3.235));
#260=CARTESIAN_POINT('',(4.09,-3.24531401774049E-17,-3.1025));
#261=CARTESIAN_POINT('Origin',(3.9575,-1.62265700887025E-17,-3.1025));
#262=CARTESIAN_POINT('Origin',(3.825,0.,-3.1025));
#263=CARTESIAN_POINT('Origin',(3.825,0.,5.55111512312578E-16));
#264=CARTESIAN_POINT('',(4.09,-3.24531401774049E-17,5.95406102664055E-16));
#265=CARTESIAN_POINT('',(4.09,-3.24531401774049E-17,5.55111512312578E-16));
#266=CARTESIAN_POINT('',(3.56,-3.24531401774049E-17,5.22658372135173E-16));
#267=CARTESIAN_POINT('Origin',(3.825,0.,5.55111512312578E-16));
#268=CARTESIAN_POINT('Origin',(3.825,0.,5.55111512312578E-16));
#269=CARTESIAN_POINT('Origin',(3.825,0.,-3.235));
#270=CARTESIAN_POINT('Ctrl Pts',(-3.9575,0.,-3.27887880066215));
#271=CARTESIAN_POINT('Ctrl Pts',(-3.9575,-0.1325,-3.27887880066215));
#272=CARTESIAN_POINT('Ctrl Pts',(-3.825,-0.1325,-3.27887880066215));
#273=CARTESIAN_POINT('Ctrl Pts',(-3.6925,-0.1325,-3.27887880066215));
#274=CARTESIAN_POINT('Ctrl Pts',(-3.6925,0.,-3.27887880066215));
#275=CARTESIAN_POINT('Ctrl Pts',(-3.6925,0.1325,-3.27887880066215));
#276=CARTESIAN_POINT('Ctrl Pts',(-3.825,0.1325,-3.27887880066215));
#277=CARTESIAN_POINT('Ctrl Pts',(-3.9575,0.1325,-3.27887880066215));
#278=CARTESIAN_POINT('Ctrl Pts',(-3.9575,0.,-3.27887880066215));
#279=CARTESIAN_POINT('Ctrl Pts',(-4.09,0.,-3.27887880066215));
#280=CARTESIAN_POINT('Ctrl Pts',(-4.09,-0.265,-3.27887880066215));
#281=CARTESIAN_POINT('Ctrl Pts',(-3.825,-0.265,-3.27887880066215));
#282=CARTESIAN_POINT('Ctrl Pts',(-3.56,-0.265,-3.27887880066215));
#283=CARTESIAN_POINT('Ctrl Pts',(-3.56,0.,-3.27887880066215));
#284=CARTESIAN_POINT('Ctrl Pts',(-3.56,0.265,-3.27887880066215));
#285=CARTESIAN_POINT('Ctrl Pts',(-3.825,0.265,-3.27887880066215));
#286=CARTESIAN_POINT('Ctrl Pts',(-4.09,0.265,-3.27887880066215));
#287=CARTESIAN_POINT('Ctrl Pts',(-4.09,0.,-3.27887880066215));
#288=CARTESIAN_POINT('Ctrl Pts',(-4.09,0.,-3.14637880066216));
#289=CARTESIAN_POINT('Ctrl Pts',(-4.09,-0.265,-3.14637880066216));
#290=CARTESIAN_POINT('Ctrl Pts',(-3.825,-0.265,-3.14637880066216));
#291=CARTESIAN_POINT('Ctrl Pts',(-3.56,-0.265,-3.14637880066216));
#292=CARTESIAN_POINT('Ctrl Pts',(-3.56,0.,-3.14637880066216));
#293=CARTESIAN_POINT('Ctrl Pts',(-3.56,0.265,-3.14637880066216));
#294=CARTESIAN_POINT('Ctrl Pts',(-3.825,0.265,-3.14637880066216));
#295=CARTESIAN_POINT('Ctrl Pts',(-4.09,0.265,-3.14637880066216));
#296=CARTESIAN_POINT('Ctrl Pts',(-4.09,0.,-3.14637880066216));
#297=CARTESIAN_POINT('',(-4.09,3.24531401774049E-17,-3.14637880066216));
#298=CARTESIAN_POINT('Origin',(-3.825,0.,-3.14637880066216));
#299=CARTESIAN_POINT('',(-3.9575,-1.62265700887025E-17,-3.27887880066215));
#300=CARTESIAN_POINT('Origin',(-3.9575,-1.62265700887025E-17,-3.14637880066216));
#301=CARTESIAN_POINT('Origin',(-3.825,0.,-3.27887880066215));
#302=CARTESIAN_POINT('Origin',(-3.825,0.,-3.27887880066215));
#303=CARTESIAN_POINT('',(-4.09,-3.24531401774049E-17,-0.0438788006621549));
#304=CARTESIAN_POINT('',(-3.56,-3.24531401774049E-17,-0.0438788006621549));
#305=CARTESIAN_POINT('Origin',(-3.825,0.,-0.0438788006621549));
#306=CARTESIAN_POINT('',(-4.09,-3.24531401774049E-17,-3.27887880066215));
#307=CARTESIAN_POINT('Origin',(-3.825,0.,-0.0438788006621549));
#308=CARTESIAN_POINT('Origin',(-3.825,0.,-3.27887880066215));
#309=CARTESIAN_POINT('Origin',(3.43193940033108,0.,5.55111512312578E-16));
#310=CARTESIAN_POINT('',(3.43193940033108,-3.24531401774049E-17,0.128060599668923));
#311=CARTESIAN_POINT('Origin',(3.43193940033108,-3.24531401774049E-17,5.55111512312578E-16));
#312=CARTESIAN_POINT('',(3.43193940033108,-3.24531401774049E-17,0.658060599668923));
#313=CARTESIAN_POINT('Origin',(3.43193940033108,0.,0.393060599668923));
#314=CARTESIAN_POINT('Origin',(3.43193940033108,0.,0.393060599668923));
#315=CARTESIAN_POINT('Origin',(-3.38806059966892,0.,0.393060599668923));
#316=CARTESIAN_POINT('',(-3.38806059966892,-3.24531401774049E-17,0.658060599668923));
#317=CARTESIAN_POINT('',(-3.38806059966892,-3.24531401774049E-17,0.658060599668923));
#318=CARTESIAN_POINT('',(-3.38806059966892,-3.24531401774049E-17,0.128060599668923));
#319=CARTESIAN_POINT('Origin',(-3.38806059966892,0.,0.393060599668923));
#320=CARTESIAN_POINT('Origin',(-3.38806059966892,0.,0.393060599668923));
#321=CARTESIAN_POINT('Origin',(-3.38806059966892,0.,-0.0438788006621549));
#322=CARTESIAN_POINT('Origin',(-3.38806059966892,-3.24531401774049E-17,
-0.0438788006621549));
#323=UNCERTAINTY_MEASURE_WITH_UNIT(LENGTH_MEASURE(0.01),#327,
'DISTANCE_ACCURACY_VALUE',
'Maximum model space distance between geometric entities at asserted c
onnectivities');
#324=UNCERTAINTY_MEASURE_WITH_UNIT(LENGTH_MEASURE(0.01),#327,
'DISTANCE_ACCURACY_VALUE',
'Maximum model space distance between geometric entities at asserted c
onnectivities');
#325=(
GEOMETRIC_REPRESENTATION_CONTEXT(3)
GLOBAL_UNCERTAINTY_ASSIGNED_CONTEXT((#323))
GLOBAL_UNIT_ASSIGNED_CONTEXT((#327,#329,#330))
REPRESENTATION_CONTEXT('','3D')
);
#326=(
GEOMETRIC_REPRESENTATION_CONTEXT(3)
GLOBAL_UNCERTAINTY_ASSIGNED_CONTEXT((#324))
GLOBAL_UNIT_ASSIGNED_CONTEXT((#327,#329,#330))
REPRESENTATION_CONTEXT('','3D')
);
#327=(
LENGTH_UNIT()
NAMED_UNIT(*)
SI_UNIT(.MILLI.,.METRE.)
);
#328=(
LENGTH_UNIT()
NAMED_UNIT(*)
SI_UNIT($,.METRE.)
);
#329=(
NAMED_UNIT(*)
PLANE_ANGLE_UNIT()
SI_UNIT($,.RADIAN.)
);
#330=(
NAMED_UNIT(*)
SI_UNIT($,.STERADIAN.)
SOLID_ANGLE_UNIT()
);
#331=SHAPE_DEFINITION_REPRESENTATION(#332,#333);
#332=PRODUCT_DEFINITION_SHAPE('',$,#335);
#333=SHAPE_REPRESENTATION('',(#155),#325);
#334=PRODUCT_DEFINITION_CONTEXT('part definition',#339,'design');
#335=PRODUCT_DEFINITION('ZX Spectrum - Jumper',
'ZX Spectrum - Jumper v3',#336,#334);
#336=PRODUCT_DEFINITION_FORMATION('',$,#341);
#337=PRODUCT_RELATED_PRODUCT_CATEGORY('ZX Spectrum - Jumper v3',
'ZX Spectrum - Jumper v3',(#341));
#338=APPLICATION_PROTOCOL_DEFINITION('international standard',
'automotive_design',2009,#339);
#339=APPLICATION_CONTEXT(
'Core Data for Automotive Mechanical Design Process');
#340=PRODUCT_CONTEXT('part definition',#339,'mechanical');
#341=PRODUCT('ZX Spectrum - Jumper','ZX Spectrum - Jumper v3',$,(#340));
#342=PRESENTATION_STYLE_ASSIGNMENT((#344));
#343=PRESENTATION_STYLE_ASSIGNMENT((#345));
#344=SURFACE_STYLE_USAGE(.BOTH.,#346);
#345=SURFACE_STYLE_USAGE(.BOTH.,#347);
#346=SURFACE_SIDE_STYLE('',(#348));
#347=SURFACE_SIDE_STYLE('',(#349));
#348=SURFACE_STYLE_FILL_AREA(#350);
#349=SURFACE_STYLE_FILL_AREA(#351);
#350=FILL_AREA_STYLE('Steel - Satin',(#352));
#351=FILL_AREA_STYLE('Aluminum - Satin',(#353));
#352=FILL_AREA_STYLE_COLOUR('Steel - Satin',#354);
#353=FILL_AREA_STYLE_COLOUR('Aluminum - Satin',#355);
#354=COLOUR_RGB('Steel - Satin',0.627450980392157,0.627450980392157,0.627450980392157);
#355=COLOUR_RGB('Aluminum - Satin',0.96078431372549,0.96078431372549,0.964705882352941);
ENDSEC;
END-ISO-10303-21;
