ISO-10303-21;
HEADER;
/* R_Axial_DIN0411_L9.9mm_D3.6mm_P12.70mm_Horizontal.step 3D STEP model for use in ECAD systems
 * Copyright (C) 2026, KiCAD
 *
 * This work is licensed under the
 * [Creative Commons CC-BY-SA 4.0 License](https://creativecommons.org/licenses/by-sa/4.0/legalcode),
 * with the following exception:
 *
 * To the extent that the creation of electronic designs that use 'Licensed Material' can be
 * considered to be 'Adapted Material', then the copyright holder waives article 3 of the license
 * with respect to these designs and any generated files which use data provided as part of the
 * 'Licensed Material'.
 *
 * You are free to use the library data in your own projects without the obligation to share your
 * project files under this or any other license agreement. However, if you wish to distribute
 * these libraries, or parts thereof (including in modified form) as a collection then the exception
 * above does not apply. Please refer to
 * https://gitlab.com/kicad/libraries/kicad-packages3D/-/blob/master/LICENSE.md for further clarification
 * of the exception.
 *
 * Disclaimer of Warranties and Limitation of Liability.
 * These libraries are provided in the hope that they will be useful, but are provided without warranty of any kind, express or implied.
 * USE 3D CAD DATA AT YOUR OWN RISK
 * DO NOT RELY UPON ANY INFORMATION FOUND HERE WITHOUT INDEPENDENT VERIFICATION.
 */

FILE_DESCRIPTION(
/* description */ ('model of R_Axial_DIN0411_L9.9mm_D3.6mm_P12.70mm_Horizontal'),
/* implementation_level */ '2;1');

FILE_NAME(
/* name */ 'R_Axial_DIN0411_L9.9mm_D3.6mm_P12.70mm_Horizontal.step',
/* time_stamp */ '1970-01-01T00:00:00',
/* author */ ('KiCAD','kicad'),
/* organization */ ('OCCT'),
/* preprocessor_version */ '',
/* originating_system */ 'KiCAD',
/* authorisation */ '');

FILE_SCHEMA(('AUTOMOTIVE_DESIGN { 1 0 10303 214 1 1 1 1 }'));
ENDSEC;

DATA;
#1=APPLICATION_PROTOCOL_DEFINITION('international standard','automotive_design',2000,#2);
#2=APPLICATION_CONTEXT('core data for automotive mechanical design processes');
#3=SHAPE_DEFINITION_REPRESENTATION(#4,#10);
#4=PRODUCT_DEFINITION_SHAPE('','',#5);
#5=PRODUCT_DEFINITION('design','',#6,#9);
#6=PRODUCT_DEFINITION_FORMATION('','',#7);
#7=PRODUCT('R_Axial_DIN0411_L9.9mm_D3.6mm_P12.70mm_Horizontal','R_Axial_DIN0411_L9.9mm_D3.6mm_P12.70mm_Horizontal','',(#8));
#8=PRODUCT_CONTEXT('',#2,'mechanical');
#9=PRODUCT_DEFINITION_CONTEXT('part definition',#2,'design');
#10=ADVANCED_BREP_SHAPE_REPRESENTATION('',(#11,#15),#301);
#11=AXIS2_PLACEMENT_3D('',#12,#13,#14);
#12=CARTESIAN_POINT('',(0.,0.,0.));
#13=DIRECTION('',(0.,0.,1.));
#14=DIRECTION('',(1.,0.,-0.));
#15=MANIFOLD_SOLID_BREP('',#16);
#16=CLOSED_SHELL('',(#17,#42,#60,#79,#97,#119,#134,#152,#168,#174,#189,#206,#223,#238,#252,#275,#293));
#17=ADVANCED_FACE('',(#18,#29),#38,.F.);
#18=FACE_BOUND('',#19,.F.);
#19=EDGE_LOOP('',(#20));
#20=ORIENTED_EDGE('',*,*,#21,.T.);
#21=EDGE_CURVE('',#22,#22,#24,.T.);
#22=VERTEX_POINT('',#23);
#23=CARTESIAN_POINT('',(1.4,0.9,1.8));
#24=CIRCLE('',#25,0.9);
#25=AXIS2_PLACEMENT_3D('',#26,#27,#28);
#26=CARTESIAN_POINT('',(1.4,0.,1.8));
#27=DIRECTION('',(1.,0.,0.));
#28=DIRECTION('',(-0.,1.,0.));
#29=FACE_BOUND('',#30,.F.);
#30=EDGE_LOOP('',(#31));
#31=ORIENTED_EDGE('',*,*,#32,.F.);
#32=EDGE_CURVE('',#33,#33,#35,.T.);
#33=VERTEX_POINT('',#34);
#34=CARTESIAN_POINT('',(1.4,0.,1.4));
#35=CIRCLE('',#36,0.4);
#36=AXIS2_PLACEMENT_3D('',#26,#27,#37);
#37=DIRECTION('',(0.,0.,-1.));
#38=PLANE('',#39);
#39=AXIS2_PLACEMENT_3D('',#40,#27,#41);
#40=CARTESIAN_POINT('',(1.4,-1.582685338587E-16,1.8));
#41=DIRECTION('',(-0.,0.,1.));
#42=ADVANCED_FACE('',(#43),#59,.T.);
#43=FACE_BOUND('',#44,.T.);
#44=EDGE_LOOP('',(#45,#20,#53,#54));
#45=ORIENTED_EDGE('',*,*,#46,.F.);
#46=EDGE_CURVE('',#22,#47,#49,.T.);
#47=VERTEX_POINT('',#48);
#48=CARTESIAN_POINT('',(2.3,1.8,1.8));
#49=CIRCLE('',#50,0.9);
#50=AXIS2_PLACEMENT_3D('',#51,#37,#52);
#51=CARTESIAN_POINT('',(2.3,0.9,1.8));
#52=DIRECTION('',(0.,1.,0.));
#53=ORIENTED_EDGE('',*,*,#46,.T.);
#54=ORIENTED_EDGE('',*,*,#55,.F.);
#55=EDGE_CURVE('',#47,#47,#56,.T.);
#56=CIRCLE('',#57,1.8);
#57=AXIS2_PLACEMENT_3D('',#58,#27,#28);
#58=CARTESIAN_POINT('',(2.3,0.,1.8));
#59=TOROIDAL_SURFACE('',#57,0.9,0.9);
#60=ADVANCED_FACE('',(#61),#77,.T.);
#61=FACE_BOUND('',#62,.T.);
#62=EDGE_LOOP('',(#63,#72,#31,#76));
#63=ORIENTED_EDGE('',*,*,#64,.F.);
#64=EDGE_CURVE('',#65,#65,#67,.T.);
#65=VERTEX_POINT('',#66);
#66=CARTESIAN_POINT('',(1.2,0.,1.4));
#67=CIRCLE('',#68,0.4);
#68=AXIS2_PLACEMENT_3D('',#69,#70,#71);
#69=CARTESIAN_POINT('',(1.2,0.,1.8));
#70=DIRECTION('',(-1.,0.,-6.533512864241E-16));
#71=DIRECTION('',(-6.533512864241E-16,0.,1.));
#72=ORIENTED_EDGE('',*,*,#73,.T.);
#73=EDGE_CURVE('',#65,#33,#74,.T.);
#74=LINE('',#66,#75);
#75=VECTOR('',#27,1.);
#76=ORIENTED_EDGE('',*,*,#73,.F.);
#77=CYLINDRICAL_SURFACE('',#78,0.4);
#78=AXIS2_PLACEMENT_3D('',#69,#27,#37);
#79=ADVANCED_FACE('',(#80),#94,.T.);
#80=FACE_BOUND('',#81,.F.);
#81=EDGE_LOOP('',(#82,#88,#93,#54));
#82=ORIENTED_EDGE('',*,*,#83,.T.);
#83=EDGE_CURVE('',#47,#84,#86,.T.);
#84=VERTEX_POINT('',#85);
#85=CARTESIAN_POINT('',(3.875,1.8,1.8));
#86=LINE('',#87,#75);
#87=CARTESIAN_POINT('',(1.4,1.8,1.8));
#88=ORIENTED_EDGE('',*,*,#89,.T.);
#89=EDGE_CURVE('',#84,#84,#90,.T.);
#90=CIRCLE('',#91,1.8);
#91=AXIS2_PLACEMENT_3D('',#92,#27,#52);
#92=CARTESIAN_POINT('',(3.875,0.,1.8));
#93=ORIENTED_EDGE('',*,*,#83,.F.);
#94=CYLINDRICAL_SURFACE('',#95,1.8);
#95=AXIS2_PLACEMENT_3D('',#26,#96,#52);
#96=DIRECTION('',(-1.,-0.,-0.));
#97=ADVANCED_FACE('',(#98),#116,.T.);
#98=FACE_BOUND('',#99,.T.);
#99=EDGE_LOOP('',(#100,#109,#110,#111));
#100=ORIENTED_EDGE('',*,*,#101,.T.);
#101=EDGE_CURVE('',#102,#65,#104,.T.);
#102=VERTEX_POINT('',#103);
#103=CARTESIAN_POINT('',(0.4,0.,0.6));
#104=CIRCLE('',#105,0.8);
#105=AXIS2_PLACEMENT_3D('',#106,#107,#108);
#106=CARTESIAN_POINT('',(1.2,1.469576158977E-16,0.6));
#107=DIRECTION('',(0.,1.,-0.));
#108=DIRECTION('',(-1.,0.,7.401486830834E-16));
#109=ORIENTED_EDGE('',*,*,#64,.T.);
#110=ORIENTED_EDGE('',*,*,#101,.F.);
#111=ORIENTED_EDGE('',*,*,#112,.T.);
#112=EDGE_CURVE('',#102,#102,#113,.T.);
#113=CIRCLE('',#114,0.4);
#114=AXIS2_PLACEMENT_3D('',#115,#13,#14);
#115=CARTESIAN_POINT('',(0.,0.,0.6));
#116=TOROIDAL_SURFACE('',#117,1.2,0.4);
#117=AXIS2_PLACEMENT_3D('',#118,#107,#108);
#118=CARTESIAN_POINT('',(1.2,0.,0.6));
#119=ADVANCED_FACE('',(#120,#122),#131,.T.);
#120=FACE_BOUND('',#121,.T.);
#121=EDGE_LOOP('',(#88));
#122=FACE_BOUND('',#123,.T.);
#123=EDGE_LOOP('',(#124));
#124=ORIENTED_EDGE('',*,*,#125,.T.);
#125=EDGE_CURVE('',#126,#126,#128,.T.);
#126=VERTEX_POINT('',#127);
#127=CARTESIAN_POINT('',(3.875,1.62,1.8));
#128=CIRCLE('',#129,1.62);
#129=AXIS2_PLACEMENT_3D('',#92,#130,#52);
#130=DIRECTION('',(-1.,0.,0.));
#131=PLANE('',#132);
#132=AXIS2_PLACEMENT_3D('',#133,#27,#41);
#133=CARTESIAN_POINT('',(3.875,-4.748056015762E-17,1.8));
#134=ADVANCED_FACE('',(#135),#151,.T.);
#135=FACE_BOUND('',#136,.T.);
#136=EDGE_LOOP('',(#137,#144,#145,#146));
#137=ORIENTED_EDGE('',*,*,#138,.T.);
#138=EDGE_CURVE('',#139,#102,#141,.T.);
#139=VERTEX_POINT('',#140);
#140=CARTESIAN_POINT('',(0.4,-9.797174393179E-17,-3.));
#141=LINE('',#142,#143);
#142=CARTESIAN_POINT('',(0.4,0.,-3.));
#143=VECTOR('',#13,1.);
#144=ORIENTED_EDGE('',*,*,#112,.F.);
#145=ORIENTED_EDGE('',*,*,#138,.F.);
#146=ORIENTED_EDGE('',*,*,#147,.T.);
#147=EDGE_CURVE('',#139,#139,#148,.T.);
#148=CIRCLE('',#149,0.4);
#149=AXIS2_PLACEMENT_3D('',#150,#13,#14);
#150=CARTESIAN_POINT('',(0.,0.,-3.));
#151=CYLINDRICAL_SURFACE('',#149,0.4);
#152=ADVANCED_FACE('',(#153),#167,.T.);
#153=FACE_BOUND('',#154,.F.);
#154=EDGE_LOOP('',(#155,#124,#161,#162));
#155=ORIENTED_EDGE('',*,*,#156,.F.);
#156=EDGE_CURVE('',#126,#157,#159,.T.);
#157=VERTEX_POINT('',#158);
#158=CARTESIAN_POINT('',(8.825,1.62,1.8));
#159=LINE('',#160,#75);
#160=CARTESIAN_POINT('',(1.4,1.62,1.8));
#161=ORIENTED_EDGE('',*,*,#156,.T.);
#162=ORIENTED_EDGE('',*,*,#163,.F.);
#163=EDGE_CURVE('',#157,#157,#164,.T.);
#164=CIRCLE('',#165,1.62);
#165=AXIS2_PLACEMENT_3D('',#166,#130,#52);
#166=CARTESIAN_POINT('',(8.825,0.,1.8));
#167=CYLINDRICAL_SURFACE('',#95,1.62);
#168=ADVANCED_FACE('',(#169),#171,.F.);
#169=FACE_BOUND('',#170,.F.);
#170=EDGE_LOOP('',(#146));
#171=PLANE('',#172);
#172=AXIS2_PLACEMENT_3D('',#173,#13,#14);
#173=CARTESIAN_POINT('',(-1.335390754433E-17,3.708700618869E-17,-3.));
#174=ADVANCED_FACE('',(#175,#183),#186,.F.);
#175=FACE_BOUND('',#176,.F.);
#176=EDGE_LOOP('',(#177));
#177=ORIENTED_EDGE('',*,*,#178,.T.);
#178=EDGE_CURVE('',#179,#179,#181,.T.);
#179=VERTEX_POINT('',#180);
#180=CARTESIAN_POINT('',(8.825,1.8,1.8));
#181=CIRCLE('',#182,1.8);
#182=AXIS2_PLACEMENT_3D('',#166,#27,#52);
#183=FACE_BOUND('',#184,.F.);
#184=EDGE_LOOP('',(#185));
#185=ORIENTED_EDGE('',*,*,#163,.T.);
#186=PLANE('',#187);
#187=AXIS2_PLACEMENT_3D('',#188,#27,#41);
#188=CARTESIAN_POINT('',(8.825,-4.748056015762E-17,1.8));
#189=ADVANCED_FACE('',(#190),#204,.T.);
#190=FACE_BOUND('',#191,.F.);
#191=EDGE_LOOP('',(#192,#197,#202,#203));
#192=ORIENTED_EDGE('',*,*,#193,.T.);
#193=EDGE_CURVE('',#179,#194,#196,.T.);
#194=VERTEX_POINT('',#195);
#195=CARTESIAN_POINT('',(10.4,1.8,1.8));
#196=LINE('',#180,#75);
#197=ORIENTED_EDGE('',*,*,#198,.T.);
#198=EDGE_CURVE('',#194,#194,#199,.T.);
#199=CIRCLE('',#200,1.8);
#200=AXIS2_PLACEMENT_3D('',#201,#27,#28);
#201=CARTESIAN_POINT('',(10.4,0.,1.8));
#202=ORIENTED_EDGE('',*,*,#193,.F.);
#203=ORIENTED_EDGE('',*,*,#178,.F.);
#204=CYLINDRICAL_SURFACE('',#205,1.8);
#205=AXIS2_PLACEMENT_3D('',#166,#96,#52);
#206=ADVANCED_FACE('',(#207),#222,.T.);
#207=FACE_BOUND('',#208,.T.);
#208=EDGE_LOOP('',(#209,#197,#216,#217));
#209=ORIENTED_EDGE('',*,*,#210,.F.);
#210=EDGE_CURVE('',#194,#211,#213,.T.);
#211=VERTEX_POINT('',#212);
#212=CARTESIAN_POINT('',(11.3,0.9,1.8));
#213=CIRCLE('',#214,0.9);
#214=AXIS2_PLACEMENT_3D('',#215,#37,#52);
#215=CARTESIAN_POINT('',(10.4,0.9,1.8));
#216=ORIENTED_EDGE('',*,*,#210,.T.);
#217=ORIENTED_EDGE('',*,*,#218,.F.);
#218=EDGE_CURVE('',#211,#211,#219,.T.);
#219=CIRCLE('',#220,0.9);
#220=AXIS2_PLACEMENT_3D('',#221,#27,#28);
#221=CARTESIAN_POINT('',(11.3,0.,1.8));
#222=TOROIDAL_SURFACE('',#200,0.9,0.9);
#223=ADVANCED_FACE('',(#224,#227),#235,.T.);
#224=FACE_BOUND('',#225,.T.);
#225=EDGE_LOOP('',(#226));
#226=ORIENTED_EDGE('',*,*,#218,.T.);
#227=FACE_BOUND('',#228,.T.);
#228=EDGE_LOOP('',(#229));
#229=ORIENTED_EDGE('',*,*,#230,.F.);
#230=EDGE_CURVE('',#231,#231,#233,.T.);
#231=VERTEX_POINT('',#232);
#232=CARTESIAN_POINT('',(11.3,0.,1.4));
#233=CIRCLE('',#234,0.4);
#234=AXIS2_PLACEMENT_3D('',#221,#27,#37);
#235=PLANE('',#236);
#236=AXIS2_PLACEMENT_3D('',#237,#27,#41);
#237=CARTESIAN_POINT('',(11.3,-4.748056015762E-17,1.8));
#238=ADVANCED_FACE('',(#239),#77,.T.);
#239=FACE_BOUND('',#240,.T.);
#240=EDGE_LOOP('',(#241,#242,#246,#251));
#241=ORIENTED_EDGE('',*,*,#230,.T.);
#242=ORIENTED_EDGE('',*,*,#243,.T.);
#243=EDGE_CURVE('',#231,#244,#74,.T.);
#244=VERTEX_POINT('',#245);
#245=CARTESIAN_POINT('',(11.5,0.,1.4));
#246=ORIENTED_EDGE('',*,*,#247,.F.);
#247=EDGE_CURVE('',#244,#244,#248,.T.);
#248=CIRCLE('',#249,0.4);
#249=AXIS2_PLACEMENT_3D('',#250,#27,#37);
#250=CARTESIAN_POINT('',(11.5,0.,1.8));
#251=ORIENTED_EDGE('',*,*,#243,.F.);
#252=ADVANCED_FACE('',(#253),#272,.T.);
#253=FACE_BOUND('',#254,.T.);
#254=EDGE_LOOP('',(#255,#263,#270,#271));
#255=ORIENTED_EDGE('',*,*,#256,.T.);
#256=EDGE_CURVE('',#244,#257,#259,.T.);
#257=VERTEX_POINT('',#258);
#258=CARTESIAN_POINT('',(12.3,0.,0.6));
#259=CIRCLE('',#260,0.8);
#260=AXIS2_PLACEMENT_3D('',#261,#28,#262);
#261=CARTESIAN_POINT('',(11.5,1.469576158977E-16,0.6));
#262=DIRECTION('',(1.480297366167E-15,0.,1.));
#263=ORIENTED_EDGE('',*,*,#264,.T.);
#264=EDGE_CURVE('',#257,#257,#265,.T.);
#265=CIRCLE('',#266,0.4);
#266=AXIS2_PLACEMENT_3D('',#267,#268,#269);
#267=CARTESIAN_POINT('',(12.7,0.,0.6));
#268=DIRECTION('',(8.679739665932E-17,0.,1.));
#269=DIRECTION('',(1.,0.,-8.679739665932E-17));
#270=ORIENTED_EDGE('',*,*,#256,.F.);
#271=ORIENTED_EDGE('',*,*,#247,.T.);
#272=TOROIDAL_SURFACE('',#273,1.2,0.4);
#273=AXIS2_PLACEMENT_3D('',#274,#28,#262);
#274=CARTESIAN_POINT('',(11.5,0.,0.6));
#275=ADVANCED_FACE('',(#276),#291,.T.);
#276=FACE_BOUND('',#277,.T.);
#277=EDGE_LOOP('',(#278,#284,#289,#290));
#278=ORIENTED_EDGE('',*,*,#279,.T.);
#279=EDGE_CURVE('',#257,#280,#282,.T.);
#280=VERTEX_POINT('',#281);
#281=CARTESIAN_POINT('',(12.3,-9.797174393179E-17,-3.));
#282=LINE('',#258,#283);
#283=VECTOR('',#37,1.);
#284=ORIENTED_EDGE('',*,*,#285,.F.);
#285=EDGE_CURVE('',#280,#280,#286,.T.);
#286=CIRCLE('',#287,0.4);
#287=AXIS2_PLACEMENT_3D('',#288,#37,#130);
#288=CARTESIAN_POINT('',(12.7,0.,-3.));
#289=ORIENTED_EDGE('',*,*,#279,.F.);
#290=ORIENTED_EDGE('',*,*,#264,.F.);
#291=CYLINDRICAL_SURFACE('',#292,0.4);
#292=AXIS2_PLACEMENT_3D('',#267,#37,#130);
#293=ADVANCED_FACE('',(#294),#297,.T.);
#294=FACE_BOUND('',#295,.T.);
#295=EDGE_LOOP('',(#296));
#296=ORIENTED_EDGE('',*,*,#285,.T.);
#297=PLANE('',#298);
#298=AXIS2_PLACEMENT_3D('',#299,#300,#130);
#299=CARTESIAN_POINT('',(12.7,5.044091373302E-17,-3.));
#300=DIRECTION('',(-0.,-0.,-1.));
#301=( GEOMETRIC_REPRESENTATION_CONTEXT(3) GLOBAL_UNCERTAINTY_ASSIGNED_CONTEXT((#305)) GLOBAL_UNIT_ASSIGNED_CONTEXT((#302,#303,#304)) REPRESENTATION_CONTEXT('Context #1','3D Context with UNIT and UNCERTAINTY') );
#302=( LENGTH_UNIT() NAMED_UNIT(*) SI_UNIT(.MILLI.,.METRE.) );
#303=( NAMED_UNIT(*) PLANE_ANGLE_UNIT() SI_UNIT($,.RADIAN.) );
#304=( NAMED_UNIT(*) SI_UNIT($,.STERADIAN.) SOLID_ANGLE_UNIT() );
#305=UNCERTAINTY_MEASURE_WITH_UNIT(LENGTH_MEASURE(1.E-07),#302,'distance_accuracy_value','confusion accuracy');
#306=PRODUCT_RELATED_PRODUCT_CATEGORY('part',$,(#7));
#307=MECHANICAL_DESIGN_GEOMETRIC_PRESENTATION_REPRESENTATION('',(#308,#318,#327,#328,#329,#330,#331,#332,#333,#334,#335,#336,#337,#338,#339,#340,#341,#342,#343),#301);
#308=STYLED_ITEM('color',(#309),#17);
#309=PRESENTATION_STYLE_ASSIGNMENT((#310,#316));
#310=SURFACE_STYLE_USAGE(.BOTH.,#311);
#311=SURFACE_SIDE_STYLE('',(#312));
#312=SURFACE_STYLE_FILL_AREA(#313);
#313=FILL_AREA_STYLE('',(#314));
#314=FILL_AREA_STYLE_COLOUR('',#315);
#315=COLOUR_RGB('',0.883000012551,0.711000002057,0.491999994598);
#316=CURVE_STYLE('',#317,POSITIVE_LENGTH_MEASURE(0.1),#315);
#317=DRAUGHTING_PRE_DEFINED_CURVE_FONT('continuous');
#318=OVER_RIDING_STYLED_ITEM('overriding color',(#319),#32,#308);
#319=PRESENTATION_STYLE_ASSIGNMENT((#320,#326));
#320=SURFACE_STYLE_USAGE(.BOTH.,#321);
#321=SURFACE_SIDE_STYLE('',(#322));
#322=SURFACE_STYLE_FILL_AREA(#323);
#323=FILL_AREA_STYLE('',(#324));
#324=FILL_AREA_STYLE_COLOUR('',#325);
#325=COLOUR_RGB('',0.823999987314,0.819999987296,0.781000009244);
#326=CURVE_STYLE('',#317,POSITIVE_LENGTH_MEASURE(0.1),#325);
#327=STYLED_ITEM('color',(#309),#42);
#328=STYLED_ITEM('color',(#319),#60);
#329=STYLED_ITEM('color',(#309),#79);
#330=STYLED_ITEM('color',(#319),#97);
#331=STYLED_ITEM('color',(#309),#119);
#332=STYLED_ITEM('color',(#319),#134);
#333=STYLED_ITEM('color',(#309),#152);
#334=STYLED_ITEM('color',(#319),#168);
#335=STYLED_ITEM('color',(#309),#174);
#336=STYLED_ITEM('color',(#309),#189);
#337=STYLED_ITEM('color',(#309),#206);
#338=STYLED_ITEM('color',(#309),#223);
#339=OVER_RIDING_STYLED_ITEM('overriding color',(#319),#230,#338);
#340=STYLED_ITEM('color',(#319),#238);
#341=STYLED_ITEM('color',(#319),#252);
#342=STYLED_ITEM('color',(#319),#275);
#343=STYLED_ITEM('color',(#319),#293);
ENDSEC;
END-ISO-10303-21;
