ISO-10303-21;
HEADER;
FILE_DESCRIPTION(('FreeCAD Model'),'2;1');
FILE_NAME('Open CASCADE Shape Model','2026-02-21T14:58:56',('Author'),(
    ''),'Open CASCADE STEP processor 7.6','FreeCAD','Unknown');
FILE_SCHEMA(('AUTOMOTIVE_DESIGN { 1 0 10303 214 1 1 1 1 }'));
ENDSEC;
DATA;
#1 = APPLICATION_PROTOCOL_DEFINITION('international standard',
  'automotive_design',2000,#2);
#2 = APPLICATION_CONTEXT(
  'core data for automotive mechanical design processes');
#3 = SHAPE_DEFINITION_REPRESENTATION(#4,#10);
#4 = PRODUCT_DEFINITION_SHAPE('','',#5);
#5 = PRODUCT_DEFINITION('design','',#6,#9);
#6 = PRODUCT_DEFINITION_FORMATION('','',#7);
#7 = PRODUCT('RFPlug','RFPlug','',(#8));
#8 = PRODUCT_CONTEXT('',#2,'mechanical');
#9 = PRODUCT_DEFINITION_CONTEXT('part definition',#2,'design');
#10 = ADVANCED_BREP_SHAPE_REPRESENTATION('',(#11,#15),#210);
#11 = AXIS2_PLACEMENT_3D('',#12,#13,#14);
#12 = CARTESIAN_POINT('',(0.,0.,0.));
#13 = DIRECTION('',(0.,0.,1.));
#14 = DIRECTION('',(1.,0.,-0.));
#15 = MANIFOLD_SOLID_BREP('',#16);
#16 = CLOSED_SHELL('',(#17,#57,#88,#119,#147,#164,#176,#201));
#17 = ADVANCED_FACE('',(#18),#52,.T.);
#18 = FACE_BOUND('',#19,.T.);
#19 = EDGE_LOOP('',(#20,#30,#38,#46));
#20 = ORIENTED_EDGE('',*,*,#21,.T.);
#21 = EDGE_CURVE('',#22,#24,#26,.T.);
#22 = VERTEX_POINT('',#23);
#23 = CARTESIAN_POINT('',(-21.5,9.5,-4.218847493576E-15));
#24 = VERTEX_POINT('',#25);
#25 = CARTESIAN_POINT('',(-21.5,9.5,30.));
#26 = LINE('',#27,#28);
#27 = CARTESIAN_POINT('',(-21.5,9.5,-4.218847493576E-15));
#28 = VECTOR('',#29,1.);
#29 = DIRECTION('',(0.,4.440892098501E-16,1.));
#30 = ORIENTED_EDGE('',*,*,#31,.T.);
#31 = EDGE_CURVE('',#24,#32,#34,.T.);
#32 = VERTEX_POINT('',#33);
#33 = CARTESIAN_POINT('',(21.5,9.5,30.));
#34 = LINE('',#35,#36);
#35 = CARTESIAN_POINT('',(-21.5,9.5,30.));
#36 = VECTOR('',#37,1.);
#37 = DIRECTION('',(1.,0.,0.));
#38 = ORIENTED_EDGE('',*,*,#39,.F.);
#39 = EDGE_CURVE('',#40,#32,#42,.T.);
#40 = VERTEX_POINT('',#41);
#41 = CARTESIAN_POINT('',(21.5,9.5,-4.218847493576E-15));
#42 = LINE('',#43,#44);
#43 = CARTESIAN_POINT('',(21.5,9.5,-4.218847493576E-15));
#44 = VECTOR('',#45,1.);
#45 = DIRECTION('',(0.,4.440892098501E-16,1.));
#46 = ORIENTED_EDGE('',*,*,#47,.F.);
#47 = EDGE_CURVE('',#22,#40,#48,.T.);
#48 = LINE('',#49,#50);
#49 = CARTESIAN_POINT('',(-21.5,9.5,-4.218847493576E-15));
#50 = VECTOR('',#51,1.);
#51 = DIRECTION('',(1.,0.,0.));
#52 = PLANE('',#53);
#53 = AXIS2_PLACEMENT_3D('',#54,#55,#56);
#54 = CARTESIAN_POINT('',(-21.5,9.5,-4.218847493576E-15));
#55 = DIRECTION('',(0.,1.,-4.440892098501E-16));
#56 = DIRECTION('',(1.,0.,0.));
#57 = ADVANCED_FACE('',(#58),#83,.T.);
#58 = FACE_BOUND('',#59,.T.);
#59 = EDGE_LOOP('',(#60,#70,#76,#77));
#60 = ORIENTED_EDGE('',*,*,#61,.T.);
#61 = EDGE_CURVE('',#62,#64,#66,.T.);
#62 = VERTEX_POINT('',#63);
#63 = CARTESIAN_POINT('',(-21.5,-9.5,4.218847493576E-15));
#64 = VERTEX_POINT('',#65);
#65 = CARTESIAN_POINT('',(-21.5,-9.5,30.));
#66 = LINE('',#67,#68);
#67 = CARTESIAN_POINT('',(-21.5,-9.5,4.218847493576E-15));
#68 = VECTOR('',#69,1.);
#69 = DIRECTION('',(0.,4.440892098501E-16,1.));
#70 = ORIENTED_EDGE('',*,*,#71,.T.);
#71 = EDGE_CURVE('',#64,#24,#72,.T.);
#72 = LINE('',#73,#74);
#73 = CARTESIAN_POINT('',(-21.5,-9.5,30.));
#74 = VECTOR('',#75,1.);
#75 = DIRECTION('',(0.,1.,-4.440892098501E-16));
#76 = ORIENTED_EDGE('',*,*,#21,.F.);
#77 = ORIENTED_EDGE('',*,*,#78,.F.);
#78 = EDGE_CURVE('',#62,#22,#79,.T.);
#79 = LINE('',#80,#81);
#80 = CARTESIAN_POINT('',(-21.5,-9.5,4.218847493576E-15));
#81 = VECTOR('',#82,1.);
#82 = DIRECTION('',(0.,1.,-4.440892098501E-16));
#83 = PLANE('',#84);
#84 = AXIS2_PLACEMENT_3D('',#85,#86,#87);
#85 = CARTESIAN_POINT('',(-21.5,-9.5,4.218847493576E-15));
#86 = DIRECTION('',(-1.,0.,0.));
#87 = DIRECTION('',(0.,1.,-4.440892098501E-16));
#88 = ADVANCED_FACE('',(#89),#114,.T.);
#89 = FACE_BOUND('',#90,.T.);
#90 = EDGE_LOOP('',(#91,#92,#100,#108));
#91 = ORIENTED_EDGE('',*,*,#39,.T.);
#92 = ORIENTED_EDGE('',*,*,#93,.T.);
#93 = EDGE_CURVE('',#32,#94,#96,.T.);
#94 = VERTEX_POINT('',#95);
#95 = CARTESIAN_POINT('',(21.5,-9.5,30.));
#96 = LINE('',#97,#98);
#97 = CARTESIAN_POINT('',(21.5,9.5,30.));
#98 = VECTOR('',#99,1.);
#99 = DIRECTION('',(0.,-1.,4.440892098501E-16));
#100 = ORIENTED_EDGE('',*,*,#101,.F.);
#101 = EDGE_CURVE('',#102,#94,#104,.T.);
#102 = VERTEX_POINT('',#103);
#103 = CARTESIAN_POINT('',(21.5,-9.5,4.218847493576E-15));
#104 = LINE('',#105,#106);
#105 = CARTESIAN_POINT('',(21.5,-9.5,4.218847493576E-15));
#106 = VECTOR('',#107,1.);
#107 = DIRECTION('',(0.,4.440892098501E-16,1.));
#108 = ORIENTED_EDGE('',*,*,#109,.F.);
#109 = EDGE_CURVE('',#40,#102,#110,.T.);
#110 = LINE('',#111,#112);
#111 = CARTESIAN_POINT('',(21.5,9.5,-4.218847493576E-15));
#112 = VECTOR('',#113,1.);
#113 = DIRECTION('',(0.,-1.,4.440892098501E-16));
#114 = PLANE('',#115);
#115 = AXIS2_PLACEMENT_3D('',#116,#117,#118);
#116 = CARTESIAN_POINT('',(21.5,9.5,-4.218847493576E-15));
#117 = DIRECTION('',(1.,0.,0.));
#118 = DIRECTION('',(0.,-1.,4.440892098501E-16));
#119 = ADVANCED_FACE('',(#120,#131),#142,.T.);
#120 = FACE_BOUND('',#121,.T.);
#121 = EDGE_LOOP('',(#122,#123,#124,#130));
#122 = ORIENTED_EDGE('',*,*,#47,.T.);
#123 = ORIENTED_EDGE('',*,*,#109,.T.);
#124 = ORIENTED_EDGE('',*,*,#125,.T.);
#125 = EDGE_CURVE('',#102,#62,#126,.T.);
#126 = LINE('',#127,#128);
#127 = CARTESIAN_POINT('',(21.5,-9.5,4.218847493576E-15));
#128 = VECTOR('',#129,1.);
#129 = DIRECTION('',(-1.,0.,0.));
#130 = ORIENTED_EDGE('',*,*,#78,.T.);
#131 = FACE_BOUND('',#132,.T.);
#132 = EDGE_LOOP('',(#133));
#133 = ORIENTED_EDGE('',*,*,#134,.T.);
#134 = EDGE_CURVE('',#135,#135,#137,.T.);
#135 = VERTEX_POINT('',#136);
#136 = CARTESIAN_POINT('',(-11.125,1.9,-8.437694987151E-16));
#137 = CIRCLE('',#138,4.175);
#138 = AXIS2_PLACEMENT_3D('',#139,#140,#141);
#139 = CARTESIAN_POINT('',(-15.3,1.9,-8.437694987151E-16));
#140 = DIRECTION('',(-0.,4.440892098501E-16,1.));
#141 = DIRECTION('',(1.,0.,0.));
#142 = PLANE('',#143);
#143 = AXIS2_PLACEMENT_3D('',#144,#145,#146);
#144 = CARTESIAN_POINT('',(0.,0.,0.));
#145 = DIRECTION('',(0.,-4.440892098501E-16,-1.));
#146 = DIRECTION('',(0.,1.,-4.440892098501E-16));
#147 = ADVANCED_FACE('',(#148),#159,.F.);
#148 = FACE_BOUND('',#149,.F.);
#149 = EDGE_LOOP('',(#150,#151,#152,#158));
#150 = ORIENTED_EDGE('',*,*,#31,.T.);
#151 = ORIENTED_EDGE('',*,*,#93,.T.);
#152 = ORIENTED_EDGE('',*,*,#153,.T.);
#153 = EDGE_CURVE('',#94,#64,#154,.T.);
#154 = LINE('',#155,#156);
#155 = CARTESIAN_POINT('',(21.5,-9.5,30.));
#156 = VECTOR('',#157,1.);
#157 = DIRECTION('',(-1.,0.,0.));
#158 = ORIENTED_EDGE('',*,*,#71,.T.);
#159 = PLANE('',#160);
#160 = AXIS2_PLACEMENT_3D('',#161,#162,#163);
#161 = CARTESIAN_POINT('',(0.,1.33226762955E-14,30.));
#162 = DIRECTION('',(0.,-4.440892098501E-16,-1.));
#163 = DIRECTION('',(0.,1.,-4.440892098501E-16));
#164 = ADVANCED_FACE('',(#165),#171,.T.);
#165 = FACE_BOUND('',#166,.T.);
#166 = EDGE_LOOP('',(#167,#168,#169,#170));
#167 = ORIENTED_EDGE('',*,*,#101,.T.);
#168 = ORIENTED_EDGE('',*,*,#153,.T.);
#169 = ORIENTED_EDGE('',*,*,#61,.F.);
#170 = ORIENTED_EDGE('',*,*,#125,.F.);
#171 = PLANE('',#172);
#172 = AXIS2_PLACEMENT_3D('',#173,#174,#175);
#173 = CARTESIAN_POINT('',(21.5,-9.5,4.218847493576E-15));
#174 = DIRECTION('',(0.,-1.,4.440892098501E-16));
#175 = DIRECTION('',(-1.,0.,0.));
#176 = ADVANCED_FACE('',(#177),#196,.T.);
#177 = FACE_BOUND('',#178,.T.);
#178 = EDGE_LOOP('',(#179,#187,#194,#195));
#179 = ORIENTED_EDGE('',*,*,#180,.T.);
#180 = EDGE_CURVE('',#135,#181,#183,.T.);
#181 = VERTEX_POINT('',#182);
#182 = CARTESIAN_POINT('',(-11.125,1.9,-9.));
#183 = LINE('',#184,#185);
#184 = CARTESIAN_POINT('',(-11.125,1.9,-8.437694987151E-16));
#185 = VECTOR('',#186,1.);
#186 = DIRECTION('',(-0.,-4.440892098501E-16,-1.));
#187 = ORIENTED_EDGE('',*,*,#188,.T.);
#188 = EDGE_CURVE('',#181,#181,#189,.T.);
#189 = CIRCLE('',#190,4.175);
#190 = AXIS2_PLACEMENT_3D('',#191,#192,#193);
#191 = CARTESIAN_POINT('',(-15.3,1.9,-9.));
#192 = DIRECTION('',(-0.,4.440892098501E-16,1.));
#193 = DIRECTION('',(1.,0.,0.));
#194 = ORIENTED_EDGE('',*,*,#180,.F.);
#195 = ORIENTED_EDGE('',*,*,#134,.F.);
#196 = CYLINDRICAL_SURFACE('',#197,4.175);
#197 = AXIS2_PLACEMENT_3D('',#198,#199,#200);
#198 = CARTESIAN_POINT('',(-15.3,1.9,-8.437694987151E-16));
#199 = DIRECTION('',(-0.,4.440892098501E-16,1.));
#200 = DIRECTION('',(1.,0.,0.));
#201 = ADVANCED_FACE('',(#202),#205,.T.);
#202 = FACE_BOUND('',#203,.F.);
#203 = EDGE_LOOP('',(#204));
#204 = ORIENTED_EDGE('',*,*,#188,.T.);
#205 = PLANE('',#206);
#206 = AXIS2_PLACEMENT_3D('',#207,#208,#209);
#207 = CARTESIAN_POINT('',(-15.3,1.9,-9.));
#208 = DIRECTION('',(-2.465190328816E-32,-4.440892098501E-16,-1.));
#209 = DIRECTION('',(0.,1.,-4.440892098501E-16));
#210 = ( GEOMETRIC_REPRESENTATION_CONTEXT(3) 
GLOBAL_UNCERTAINTY_ASSIGNED_CONTEXT((#214)) GLOBAL_UNIT_ASSIGNED_CONTEXT
((#211,#212,#213)) REPRESENTATION_CONTEXT('Context #1',
  '3D Context with UNIT and UNCERTAINTY') );
#211 = ( LENGTH_UNIT() NAMED_UNIT(*) SI_UNIT(.MILLI.,.METRE.) );
#212 = ( NAMED_UNIT(*) PLANE_ANGLE_UNIT() SI_UNIT($,.RADIAN.) );
#213 = ( NAMED_UNIT(*) SI_UNIT($,.STERADIAN.) SOLID_ANGLE_UNIT() );
#214 = UNCERTAINTY_MEASURE_WITH_UNIT(LENGTH_MEASURE(1.E-07),#211,
  'distance_accuracy_value','confusion accuracy');
#215 = PRODUCT_RELATED_PRODUCT_CATEGORY('part',$,(#7));
#216 = MECHANICAL_DESIGN_GEOMETRIC_PRESENTATION_REPRESENTATION('',(#217)
  ,#210);
#217 = STYLED_ITEM('color',(#218),#15);
#218 = PRESENTATION_STYLE_ASSIGNMENT((#219,#225));
#219 = SURFACE_STYLE_USAGE(.BOTH.,#220);
#220 = SURFACE_SIDE_STYLE('',(#221));
#221 = SURFACE_STYLE_FILL_AREA(#222);
#222 = FILL_AREA_STYLE('',(#223));
#223 = FILL_AREA_STYLE_COLOUR('',#224);
#224 = COLOUR_RGB('',0.300000011149,0.300000011149,0.300000011149);
#225 = CURVE_STYLE('',#226,POSITIVE_LENGTH_MEASURE(0.1),#227);
#226 = DRAUGHTING_PRE_DEFINED_CURVE_FONT('continuous');
#227 = COLOUR_RGB('',9.803921802644E-02,9.803921802644E-02,
  9.803921802644E-02);
ENDSEC;
END-ISO-10303-21;
