ISO-10303-21;
HEADER;
FILE_DESCRIPTION (( 'STEP AP214' ),
    '1' );
FILE_NAME ('1430-3.STEP',
    '2015-12-11T21:11:58',
    ( '' ),
    ( '' ),
    'SwSTEP 2.0',
    'SolidWorks 2013',
    '' );
FILE_SCHEMA (( 'AUTOMOTIVE_DESIGN' ));
ENDSEC;

DATA;
#1 =( NAMED_UNIT ( * ) SI_UNIT ( $, .STERADIAN. ) SOLID_ANGLE_UNIT ( ) );
#2 = FILL_AREA_STYLE_COLOUR ( '', #258 ) ;
#3 = ORIENTED_EDGE ( 'NONE', *, *, #454, .F. ) ;
#4 = ORIENTED_EDGE ( 'NONE', *, *, #523, .F. ) ;
#5 = CIRCLE ( 'NONE', #196, 0.02000000000000000700 ) ;
#6 =( NAMED_UNIT ( * ) PLANE_ANGLE_UNIT ( ) SI_UNIT ( $, .RADIAN. ) );
#7 = LENGTH_MEASURE_WITH_UNIT ( LENGTH_MEASURE( 0.02539999999999999900 ), #426 );
#8 =( LENGTH_UNIT ( ) NAMED_UNIT ( * ) SI_UNIT ( $, .METRE. ) );
#9 =( NAMED_UNIT ( * ) PLANE_ANGLE_UNIT ( ) SI_UNIT ( $, .RADIAN. ) );
#10 =( CONVERSION_BASED_UNIT ( 'INCH', #585 ) LENGTH_UNIT ( ) NAMED_UNIT ( #124 ) );
#11 = CARTESIAN_POINT ( 'NONE',  ( 0.0000000000000000000, 0.1910000000000000000, -0.02000000000000000700 ) ) ;
#12 = ADVANCED_FACE ( 'NONE', ( #152 ), #127, .T. ) ;
#13 =( LENGTH_UNIT ( ) NAMED_UNIT ( * ) SI_UNIT ( $, .METRE. ) );
#14 = AXIS2_PLACEMENT_3D ( 'NONE', #119, #481, #688 ) ;
#15 = ORIENTED_EDGE ( 'NONE', *, *, #83, .T. ) ;
#16 = PRESENTATION_LAYER_ASSIGNMENT (  '', '', ( #711 ) ) ;
#17 = SURFACE_SIDE_STYLE ('',( #681 ) ) ;
#18 = AXIS2_PLACEMENT_3D ( 'NONE', #73, #460, #286 ) ;
#19 = SHAPE_REPRESENTATION ( '1430-3', ( #574 ), #401 ) ;
#20 = EDGE_LOOP ( 'NONE', ( #402, #102 ) ) ;
#21 = AXIS2_PLACEMENT_3D ( 'NONE', #241, #479, #193 ) ;
#22 = UNCERTAINTY_MEASURE_WITH_UNIT (LENGTH_MEASURE( 1.000000000000000100E-005 ), #383, 'distance_accuracy_value', 'NONE');
#23 = ORIENTED_EDGE ( 'NONE', *, *, #190, .F. ) ;
#24 = SURFACE_SIDE_STYLE ('',( #455 ) ) ;
#25 = DIRECTION ( 'NONE',  ( 0.0000000000000000000, 0.0000000000000000000, 1.000000000000000000 ) ) ;
#26 = DIRECTION ( 'NONE',  ( -0.0000000000000000000, -0.0000000000000000000, -1.000000000000000000 ) ) ;
#27 = LINE ( 'NONE', #344, #329 ) ;
#28 = PRESENTATION_LAYER_ASSIGNMENT (  '', '', ( #72 ) ) ;
#29 = VECTOR ( 'NONE', #271, 39.37007874015748100 ) ;
#30 = SURFACE_STYLE_USAGE ( .BOTH. , #144 ) ;
#31 = DIRECTION ( 'NONE',  ( 1.000000000000000000, 1.224646799147356700E-016, 0.0000000000000000000 ) ) ;
#32 = APPLICATION_PROTOCOL_DEFINITION ( 'draft international standard', 'automotive_design', 1998, #150 ) ;
#33 = EDGE_LOOP ( 'NONE', ( #314, #209, #398, #573, #4 ) ) ;
#34 = PRESENTATION_LAYER_ASSIGNMENT (  '', '', ( #669 ) ) ;
#35 =( NAMED_UNIT ( * ) PLANE_ANGLE_UNIT ( ) SI_UNIT ( $, .RADIAN. ) );
#36 = DIRECTION ( 'NONE',  ( 0.0000000000000000000, 0.0000000000000000000, -1.000000000000000000 ) ) ;
#37 = PRESENTATION_LAYER_ASSIGNMENT (  '', '', ( #74 ) ) ;
#38 = CIRCLE ( 'NONE', #489, 0.005566243270259360300 ) ;
#39 = VERTEX_POINT ( 'NONE', #11 ) ;
#40 = DIRECTION ( 'NONE',  ( 1.224646799147353200E-016, -1.000000000000000000, 0.0000000000000000000 ) ) ;
#41 = DIRECTION ( 'NONE',  ( -0.0000000000000000000, 1.000000000000000000, -0.0000000000000000000 ) ) ;
#42 = ORIENTED_EDGE ( 'NONE', *, *, #475, .F. ) ;
#43 = DIMENSIONAL_EXPONENTS ( 1.000000000000000000, 0.0000000000000000000, 0.0000000000000000000, 0.0000000000000000000, 0.0000000000000000000, 0.0000000000000000000, 0.0000000000000000000 ) ;
#44 = ORIENTED_EDGE ( 'NONE', *, *, #687, .F. ) ;
#45 = ADVANCED_FACE ( 'NONE', ( #343 ), #432, .T. ) ;
#46 = LENGTH_MEASURE_WITH_UNIT ( LENGTH_MEASURE( 0.02539999999999999900 ), #324 );
#47 = PRESENTATION_STYLE_ASSIGNMENT (( #259 ) ) ;
#48 = EDGE_CURVE ( 'NONE', #39, #192, #92, .T. ) ;
#49 = VECTOR ( 'NONE', #173, 39.37007874015748100 ) ;
#50 = EDGE_CURVE ( 'NONE', #459, #762, #59, .T. ) ;
#51 = CARTESIAN_POINT ( 'NONE',  ( 0.04999999999999999600, 0.2409999999999999600, 0.0000000000000000000 ) ) ;
#52 = ORIENTED_EDGE ( 'NONE', *, *, #699, .T. ) ;
#53 = AXIS2_PLACEMENT_3D ( 'NONE', #210, #735, #565 ) ;
#54 = FILL_AREA_STYLE ('',( #2 ) ) ;
#55 = ORIENTED_EDGE ( 'NONE', *, *, #83, .F. ) ;
#56 = MECHANICAL_DESIGN_GEOMETRIC_PRESENTATION_REPRESENTATION (  '', ( #362 ), #202 ) ;
#57 =( LENGTH_UNIT ( ) NAMED_UNIT ( * ) SI_UNIT ( $, .METRE. ) );
#58 = ADVANCED_FACE ( 'NONE', ( #497 ), #760, .T. ) ;
#59 = CIRCLE ( 'NONE', #750, 0.02000000000000000700 ) ;
#60 = AXIS2_PLACEMENT_3D ( 'NONE', #366, #305, #36 ) ;
#61 = FILL_AREA_STYLE ('',( #138 ) ) ;
#62 =( NAMED_UNIT ( * ) SI_UNIT ( $, .STERADIAN. ) SOLID_ANGLE_UNIT ( ) );
#63 = SURFACE_SIDE_STYLE ('',( #322 ) ) ;
#64 =( NAMED_UNIT ( * ) PLANE_ANGLE_UNIT ( ) SI_UNIT ( $, .RADIAN. ) );
#65 = ORIENTED_EDGE ( 'NONE', *, *, #297, .F. ) ;
#66 = MECHANICAL_DESIGN_GEOMETRIC_PRESENTATION_REPRESENTATION (  '', ( #766 ), #541 ) ;
#67 = STYLED_ITEM ( 'NONE', ( #555 ), #528 ) ;
#68 = CARTESIAN_POINT ( 'NONE',  ( 0.0000000000000000000, 0.1910000000000000000, 0.0000000000000000000 ) ) ;
#69 = CYLINDRICAL_SURFACE ( 'NONE', #246, 0.01999999999999999000 ) ;
#70 = SURFACE_STYLE_USAGE ( .BOTH. , #738 ) ;
#71 = DIRECTION ( 'NONE',  ( -1.000000000000000000, 0.0000000000000000000, 0.0000000000000000000 ) ) ;
#72 = STYLED_ITEM ( 'NONE', ( #81 ), #45 ) ;
#73 = CARTESIAN_POINT ( 'NONE',  ( 0.0000000000000000000, 0.1910000000000000000, 0.0000000000000000000 ) ) ;
#74 = STYLED_ITEM ( 'NONE', ( #776 ), #685 ) ;
#75 = DIRECTION ( 'NONE',  ( 0.0000000000000000000, 0.0000000000000000000, 1.000000000000000000 ) ) ;
#76 = EDGE_LOOP ( 'NONE', ( #15, #248 ) ) ;
#77 = ORIENTED_EDGE ( 'NONE', *, *, #48, .T. ) ;
#78 = DIMENSIONAL_EXPONENTS ( 1.000000000000000000, 0.0000000000000000000, 0.0000000000000000000, 0.0000000000000000000, 0.0000000000000000000, 0.0000000000000000000, 0.0000000000000000000 ) ;
#79 = AXIS2_PLACEMENT_3D ( 'NONE', #99, #276, #524 ) ;
#80 = DIRECTION ( 'NONE',  ( -0.0000000000000000000, -1.000000000000000000, -0.0000000000000000000 ) ) ;
#81 = PRESENTATION_STYLE_ASSIGNMENT (( #668 ) ) ;
#82 = FACE_OUTER_BOUND ( 'NONE', #739, .T. ) ;
#83 = EDGE_CURVE ( 'NONE', #718, #514, #547, .T. ) ;
#84 = PLANE ( 'NONE',  #649 ) ;
#85 = ORIENTED_EDGE ( 'NONE', *, *, #151, .T. ) ;
#86 = CIRCLE ( 'NONE', #79, 0.02000000000000000700 ) ;
#87 =( NAMED_UNIT ( * ) PLANE_ANGLE_UNIT ( ) SI_UNIT ( $, .RADIAN. ) );
#88 = AXIS2_PLACEMENT_3D ( 'NONE', #171, #40, #296 ) ;
#89 = CARTESIAN_POINT ( 'NONE',  ( 0.2999999999999999300, 3.414809992080329000E-017, -0.005566243270259357700 ) ) ;
#90 = CIRCLE ( 'NONE', #294, 0.02000000000000000700 ) ;
#91 = CARTESIAN_POINT ( 'NONE',  ( 0.04999999999999999600, 0.2409999999999999600, 0.0000000000000000000 ) ) ;
#92 = CIRCLE ( 'NONE', #378, 0.02000000000000000700 ) ;
#93 = CARTESIAN_POINT ( 'NONE',  ( 0.2999999999999999300, 0.02500000000000021300, 0.0000000000000000000 ) ) ;
#94 = COLOUR_RGB ( '',1.000000000000000000, 0.8039215686274510100, 0.4941176470588235500 ) ;
#95 = STYLED_ITEM ( 'NONE', ( #359 ), #720 ) ;
#96 = VERTEX_POINT ( 'NONE', #737 ) ;
#97 = LENGTH_MEASURE_WITH_UNIT ( LENGTH_MEASURE( 0.02539999999999999900 ), #262 );
#98 = EDGE_CURVE ( 'NONE', #648, #96, #309, .T. ) ;
#99 = CARTESIAN_POINT ( 'NONE',  ( 0.2499999999999999200, 0.2409999999999999900, 0.0000000000000000000 ) ) ;
#100 = SURFACE_SIDE_STYLE ('',( #490 ) ) ;
#101 = LENGTH_MEASURE_WITH_UNIT ( LENGTH_MEASURE( 0.02539999999999999900 ), #364 );
#102 = ORIENTED_EDGE ( 'NONE', *, *, #98, .T. ) ;
#103 =( CONVERSION_BASED_UNIT ( 'INCH', #543 ) LENGTH_UNIT ( ) NAMED_UNIT ( #538 ) );
#104 =( GEOMETRIC_REPRESENTATION_CONTEXT ( 3 ) GLOBAL_UNCERTAINTY_ASSIGNED_CONTEXT ( ( #659 ) ) GLOBAL_UNIT_ASSIGNED_CONTEXT ( ( #568, #518, #578 ) ) REPRESENTATION_CONTEXT ( 'NONE', 'WORKASPACE' ) );
#105 = FILL_AREA_STYLE_COLOUR ( '', #270 ) ;
#106 = CIRCLE ( 'NONE', #418, 0.02000000000000000700 ) ;
#107 = VECTOR ( 'NONE', #332, 39.37007874015748100 ) ;
#108 = FILL_AREA_STYLE_COLOUR ( '', #749 ) ;
#109 = SURFACE_STYLE_FILL_AREA ( #203 ) ;
#110 = CYLINDRICAL_SURFACE ( 'NONE', #14, 0.02000000000000000700 ) ;
#111 = FILL_AREA_STYLE ('',( #393 ) ) ;
#112 = AXIS2_PLACEMENT_3D ( 'NONE', #440, #174, #71 ) ;
#113 = ORIENTED_EDGE ( 'NONE', *, *, #579, .F. ) ;
#114 = UNCERTAINTY_MEASURE_WITH_UNIT (LENGTH_MEASURE( 1.000000000000000100E-005 ), #216, 'distance_accuracy_value', 'NONE');
#115 = DIRECTION ( 'NONE',  ( -1.000000000000000000, 0.0000000000000000000, 0.0000000000000000000 ) ) ;
#116 = CARTESIAN_POINT ( 'NONE',  ( 0.0000000000000000000, 0.02500000000000017800, 0.0000000000000000000 ) ) ;
#117 = DIMENSIONAL_EXPONENTS ( 1.000000000000000000, 0.0000000000000000000, 0.0000000000000000000, 0.0000000000000000000, 0.0000000000000000000, 0.0000000000000000000, 0.0000000000000000000 ) ;
#118 = EDGE_CURVE ( 'NONE', #96, #648, #38, .T. ) ;
#119 = CARTESIAN_POINT ( 'NONE',  ( 0.0000000000000000000, 0.1910000000000000000, 0.0000000000000000000 ) ) ;
#120 = EDGE_LOOP ( 'NONE', ( #430, #525, #696, #207 ) ) ;
#121 = CARTESIAN_POINT ( 'NONE',  ( 0.0000000000000000000, 0.1910000000000000000, -0.02000000000000000700 ) ) ;
#122 = PRODUCT_DEFINITION_FORMATION_WITH_SPECIFIED_SOURCE ( 'ANY', '', #663, .NOT_KNOWN. ) ;
#123 = DIRECTION ( 'NONE',  ( -0.0000000000000000000, -1.000000000000000000, -0.0000000000000000000 ) ) ;
#124 = DIMENSIONAL_EXPONENTS ( 1.000000000000000000, 0.0000000000000000000, 0.0000000000000000000, 0.0000000000000000000, 0.0000000000000000000, 0.0000000000000000000, 0.0000000000000000000 ) ;
#125 = CARTESIAN_POINT ( 'NONE',  ( 0.2499999999999999200, 0.2209999999999999700, 2.449293598294705200E-018 ) ) ;
#126 = AXIS2_PLACEMENT_3D ( 'NONE', #227, #310, #247 ) ;
#127 = CONICAL_SURFACE ( 'NONE', #21, 0.005566243270259357700, 0.5235987755982960400 ) ;
#128 = CIRCLE ( 'NONE', #60, 0.02000000000000000700 ) ;
#129 =( CONVERSION_BASED_UNIT ( 'INCH', #570 ) LENGTH_UNIT ( ) NAMED_UNIT ( #775 ) );
#130 = STYLED_ITEM ( 'NONE', ( #178 ), #569 ) ;
#131 = CARTESIAN_POINT ( 'NONE',  ( 0.2999999999999999300, 3.414809992080329000E-017, 0.0000000000000000000 ) ) ;
#132 = CARTESIAN_POINT ( 'NONE',  ( 0.2999999999999999300, 0.1910000000000000300, 0.0000000000000000000 ) ) ;
#133 = FILL_AREA_STYLE ('',( #596 ) ) ;
#134 = ORIENTED_EDGE ( 'NONE', *, *, #783, .F. ) ;
#135 = DIMENSIONAL_EXPONENTS ( 1.000000000000000000, 0.0000000000000000000, 0.0000000000000000000, 0.0000000000000000000, 0.0000000000000000000, 0.0000000000000000000, 0.0000000000000000000 ) ;
#136 = EDGE_LOOP ( 'NONE', ( #65, #586, #326, #429, #134 ) ) ;
#137 =( NAMED_UNIT ( * ) SI_UNIT ( $, .STERADIAN. ) SOLID_ANGLE_UNIT ( ) );
#138 = FILL_AREA_STYLE_COLOUR ( '', #377 ) ;
#139 = VERTEX_POINT ( 'NONE', #125 ) ;
#140 = CARTESIAN_POINT ( 'NONE',  ( 0.3199999999999999500, 0.02500000000000021300, 0.0000000000000000000 ) ) ;
#141 = CARTESIAN_POINT ( 'NONE',  ( 2.449293598294707500E-018, 0.1910000000000000000, 0.02000000000000000700 ) ) ;
#142 = STYLED_ITEM ( 'NONE', ( #592 ), #403 ) ;
#143 = CARTESIAN_POINT ( 'NONE',  ( 0.2799999999999998600, 0.1910000000000000300, 2.449293598294707500E-018 ) ) ;
#144 = SURFACE_SIDE_STYLE ('',( #293 ) ) ;
#145 = ORIENTED_EDGE ( 'NONE', *, *, #721, .T. ) ;
#146 = CARTESIAN_POINT ( 'NONE',  ( 1.565480899357282800E-018, 0.0000000000000000000, -0.005566243270259325600 ) ) ;
#147 = AXIS2_PLACEMENT_3D ( 'NONE', #639, #728, #575 ) ;
#148 = ORIENTED_EDGE ( 'NONE', *, *, #234, .F. ) ;
#149 = AXIS2_PLACEMENT_3D ( 'NONE', #619, #323, #191 ) ;
#150 = APPLICATION_CONTEXT ( 'automotive_design' ) ;
#151 = EDGE_CURVE ( 'NONE', #264, #221, #674, .T. ) ;
#152 = FACE_OUTER_BOUND ( 'NONE', #33, .T. ) ;
#153 =( GEOMETRIC_REPRESENTATION_CONTEXT ( 3 ) GLOBAL_UNCERTAINTY_ASSIGNED_CONTEXT ( ( #552 ) ) GLOBAL_UNIT_ASSIGNED_CONTEXT ( ( #526, #684, #521 ) ) REPRESENTATION_CONTEXT ( 'NONE', 'WORKASPACE' ) );
#154 = SURFACE_STYLE_USAGE ( .BOTH. , #100 ) ;
#155 = UNCERTAINTY_MEASURE_WITH_UNIT (LENGTH_MEASURE( 1.000000000000000100E-005 ), #103, 'distance_accuracy_value', 'NONE');
#156 = COLOUR_RGB ( '',1.000000000000000000, 0.8039215686274510100, 0.4941176470588235500 ) ;
#157 = SURFACE_SIDE_STYLE ('',( #109 ) ) ;
#158 = AXIS2_PLACEMENT_3D ( 'NONE', #501, #358, #483 ) ;
#159 = DIRECTION ( 'NONE',  ( 1.000000000000000000, 0.0000000000000000000, 0.0000000000000000000 ) ) ;
#160 = FILL_AREA_STYLE_COLOUR ( '', #369 ) ;
#161 = EDGE_CURVE ( 'NONE', #221, #264, #712, .T. ) ;
#162 = DIRECTION ( 'NONE',  ( 0.0000000000000000000, 0.0000000000000000000, 1.000000000000000000 ) ) ;
#163 = ORIENTED_EDGE ( 'NONE', *, *, #161, .F. ) ;
#164 = DIRECTION ( 'NONE',  ( 0.0000000000000000000, 1.000000000000000000, 0.0000000000000000000 ) ) ;
#165 = ORIENTED_EDGE ( 'NONE', *, *, #371, .T. ) ;
#166 = DIRECTION ( 'NONE',  ( 0.0000000000000000000, 1.000000000000000000, 0.0000000000000000000 ) ) ;
#167 = CARTESIAN_POINT ( 'NONE',  ( 0.2999999999999999300, 0.1910000000000000300, 0.0000000000000000000 ) ) ;
#168 = FACE_OUTER_BOUND ( 'NONE', #120, .T. ) ;
#169 = FILL_AREA_STYLE ('',( #337 ) ) ;
#170 = DIMENSIONAL_EXPONENTS ( 1.000000000000000000, 0.0000000000000000000, 0.0000000000000000000, 0.0000000000000000000, 0.0000000000000000000, 0.0000000000000000000, 0.0000000000000000000 ) ;
#171 = CARTESIAN_POINT ( 'NONE',  ( 0.2999999999999999300, 3.414809992080329000E-017, 0.0000000000000000000 ) ) ;
#172 = DIRECTION ( 'NONE',  ( 0.0000000000000000000, 1.000000000000000000, 0.0000000000000000000 ) ) ;
#173 = DIRECTION ( 'NONE',  ( 1.787858634597031000E-016, -1.000000000000000000, 0.0000000000000000000 ) ) ;
#174 = DIRECTION ( 'NONE',  ( -0.0000000000000000000, -0.0000000000000000000, -1.000000000000000000 ) ) ;
#175 = DIRECTION ( 'NONE',  ( 0.0000000000000000000, 1.000000000000000000, 0.0000000000000000000 ) ) ;
#176 = CARTESIAN_POINT ( 'NONE',  ( 0.2499999999999999200, 0.2409999999999999900, 0.0000000000000000000 ) ) ;
#177 =( CONVERSION_BASED_UNIT ( 'INCH', #412 ) LENGTH_UNIT ( ) NAMED_UNIT ( #605 ) );
#178 = PRESENTATION_STYLE_ASSIGNMENT (( #615 ) ) ;
#179 =( NAMED_UNIT ( * ) SI_UNIT ( $, .STERADIAN. ) SOLID_ANGLE_UNIT ( ) );
#180 = VERTEX_POINT ( 'NONE', #450 ) ;
#181 = ORIENTED_EDGE ( 'NONE', *, *, #454, .T. ) ;
#182 = EDGE_CURVE ( 'NONE', #718, #731, #486, .T. ) ;
#183 = UNCERTAINTY_MEASURE_WITH_UNIT (LENGTH_MEASURE( 1.000000000000000100E-005 ), #285, 'distance_accuracy_value', 'NONE');
#184 = EDGE_CURVE ( 'NONE', #446, #221, #633, .T. ) ;
#185 =( CONVERSION_BASED_UNIT ( 'INCH', #250 ) LENGTH_UNIT ( ) NAMED_UNIT ( #665 ) );
#186 = LINE ( 'NONE', #652, #507 ) ;
#187 =( NAMED_UNIT ( * ) PLANE_ANGLE_UNIT ( ) SI_UNIT ( $, .RADIAN. ) );
#188 = DIRECTION ( 'NONE',  ( 0.0000000000000000000, 1.000000000000000000, 0.0000000000000000000 ) ) ;
#189 = CARTESIAN_POINT ( 'NONE',  ( 0.2799999999999999700, 0.02500000000000021300, 2.449293598294709900E-018 ) ) ;
#190 = EDGE_CURVE ( 'NONE', #139, #264, #558, .T. ) ;
#191 = DIRECTION ( 'NONE',  ( 0.0000000000000000000, 0.0000000000000000000, -1.000000000000000000 ) ) ;
#192 = VERTEX_POINT ( 'NONE', #236 ) ;
#193 = DIRECTION ( 'NONE',  ( 0.0000000000000000000, 0.0000000000000000000, 1.000000000000000000 ) ) ;
#194 = DIRECTION ( 'NONE',  ( 0.0000000000000000000, 0.8660254037844394800, 0.4999999999999983900 ) ) ;
#195 = ORIENTED_EDGE ( 'NONE', *, *, #182, .F. ) ;
#196 = AXIS2_PLACEMENT_3D ( 'NONE', #93, #164, #235 ) ;
#197 = ADVANCED_FACE ( 'NONE', ( #767 ), #237, .T. ) ;
#198 = SURFACE_STYLE_FILL_AREA ( #169 ) ;
#199 =( NAMED_UNIT ( * ) PLANE_ANGLE_UNIT ( ) SI_UNIT ( $, .RADIAN. ) );
#200 = LENGTH_MEASURE_WITH_UNIT ( LENGTH_MEASURE( 0.02539999999999999900 ), #347 );
#201 = CARTESIAN_POINT ( 'NONE',  ( 0.02000000000000000700, 0.1910000000000000000, 2.449293598294707500E-018 ) ) ;
#202 =( GEOMETRIC_REPRESENTATION_CONTEXT ( 3 ) GLOBAL_UNCERTAINTY_ASSIGNED_CONTEXT ( ( #680 ) ) GLOBAL_UNIT_ASSIGNED_CONTEXT ( ( #613, #363, #62 ) ) REPRESENTATION_CONTEXT ( 'NONE', 'WORKASPACE' ) );
#203 = FILL_AREA_STYLE ('',( #205 ) ) ;
#204 =( GEOMETRIC_REPRESENTATION_CONTEXT ( 3 ) GLOBAL_UNCERTAINTY_ASSIGNED_CONTEXT ( ( #22 ) ) GLOBAL_UNIT_ASSIGNED_CONTEXT ( ( #383, #64, #289 ) ) REPRESENTATION_CONTEXT ( 'NONE', 'WORKASPACE' ) );
#205 = FILL_AREA_STYLE_COLOUR ( '', #693 ) ;
#206 = MECHANICAL_DESIGN_GEOMETRIC_PRESENTATION_REPRESENTATION (  '', ( #72 ), #249 ) ;
#207 = ORIENTED_EDGE ( 'NONE', *, *, #461, .F. ) ;
#208 = MECHANICAL_DESIGN_GEOMETRIC_PRESENTATION_REPRESENTATION (  '', ( #130 ), #655 ) ;
#209 = ORIENTED_EDGE ( 'NONE', *, *, #297, .T. ) ;
#210 = CARTESIAN_POINT ( 'NONE',  ( 0.0000000000000000000, 0.02500000000000017800, 0.0000000000000000000 ) ) ;
#211 =( NAMED_UNIT ( * ) SI_UNIT ( $, .STERADIAN. ) SOLID_ANGLE_UNIT ( ) );
#212 = ADVANCED_FACE ( 'NONE', ( #319 ), #396, .T. ) ;
#213 = SURFACE_STYLE_USAGE ( .BOTH. , #157 ) ;
#214 =( GEOMETRIC_REPRESENTATION_CONTEXT ( 3 ) GLOBAL_UNCERTAINTY_ASSIGNED_CONTEXT ( ( #360 ) ) GLOBAL_UNIT_ASSIGNED_CONTEXT ( ( #590, #9, #1 ) ) REPRESENTATION_CONTEXT ( 'NONE', 'WORKASPACE' ) );
#215 =( NAMED_UNIT ( * ) SI_UNIT ( $, .STERADIAN. ) SOLID_ANGLE_UNIT ( ) );
#216 =( CONVERSION_BASED_UNIT ( 'INCH', #266 ) LENGTH_UNIT ( ) NAMED_UNIT ( #717 ) );
#217 = MECHANICAL_DESIGN_GEOMETRIC_PRESENTATION_REPRESENTATION (  '', ( #74 ), #769 ) ;
#218 = SURFACE_STYLE_USAGE ( .BOTH. , #274 ) ;
#219 =( LENGTH_UNIT ( ) NAMED_UNIT ( * ) SI_UNIT ( $, .METRE. ) );
#220 = DIRECTION ( 'NONE',  ( 0.0000000000000000000, 0.0000000000000000000, 1.000000000000000000 ) ) ;
#221 = VERTEX_POINT ( 'NONE', #355 ) ;
#222 = SURFACE_STYLE_FILL_AREA ( #61 ) ;
#223 = EDGE_CURVE ( 'NONE', #139, #446, #631, .T. ) ;
#224 = LENGTH_MEASURE_WITH_UNIT ( LENGTH_MEASURE( 0.02539999999999999900 ), #726 );
#225 = FACE_OUTER_BOUND ( 'NONE', #136, .T. ) ;
#226 = DIRECTION ( 'NONE',  ( 1.000000000000000000, 1.707404996040165000E-016, 0.0000000000000000000 ) ) ;
#227 = CARTESIAN_POINT ( 'NONE',  ( 0.0000000000000000000, 0.02500000000000017800, 0.0000000000000000000 ) ) ;
#228 = AXIS2_PLACEMENT_3D ( 'NONE', #132, #495, #75 ) ;
#229 =( CONVERSION_BASED_UNIT ( 'INCH', #506 ) LENGTH_UNIT ( ) NAMED_UNIT ( #679 ) );
#230 = SURFACE_SIDE_STYLE ('',( #281 ) ) ;
#231 = CARTESIAN_POINT ( 'NONE',  ( 0.2499999999999999700, 0.1910000000000000300, 2.449293598294707500E-018 ) ) ;
#232 = PRESENTATION_LAYER_ASSIGNMENT (  '', '', ( #740 ) ) ;
#233 = CARTESIAN_POINT ( 'NONE',  ( 0.04999999999999999600, 0.2209999999999999700, 2.449293598294707500E-018 ) ) ;
#234 = EDGE_CURVE ( 'NONE', #514, #718, #546, .T. ) ;
#235 = DIRECTION ( 'NONE',  ( 0.0000000000000000000, 0.0000000000000000000, -1.000000000000000000 ) ) ;
#236 = CARTESIAN_POINT ( 'NONE',  ( -0.02000000000000000700, 0.1910000000000000000, 0.0000000000000000000 ) ) ;
#237 = TOROIDAL_SURFACE ( 'NONE', #112, 0.05000000000000000300, 0.02000000000000000700 ) ;
#238 = ORIENTED_EDGE ( 'NONE', *, *, #184, .F. ) ;
#239 = ORIENTED_EDGE ( 'NONE', *, *, #182, .T. ) ;
#240 = DIRECTION ( 'NONE',  ( 0.0000000000000000000, 1.000000000000000000, 0.0000000000000000000 ) ) ;
#241 = CARTESIAN_POINT ( 'NONE',  ( 0.2999999999999999300, 3.414809992080329000E-017, 0.0000000000000000000 ) ) ;
#242 = DIRECTION ( 'NONE',  ( 1.787858634597031000E-016, -1.000000000000000000, 0.0000000000000000000 ) ) ;
#243 = DIRECTION ( 'NONE',  ( 1.787858634597031000E-016, -1.000000000000000000, 0.0000000000000000000 ) ) ;
#244 = CARTESIAN_POINT ( 'NONE',  ( 0.2999999999999999300, 3.414809992080329000E-017, 0.0000000000000000000 ) ) ;
#245 = PRODUCT_DEFINITION_SHAPE ( 'NONE', 'NONE',  #758 ) ;
#246 = AXIS2_PLACEMENT_3D ( 'NONE', #254, #328, #554 ) ;
#247 = DIRECTION ( 'NONE',  ( 0.0000000000000000000, 0.0000000000000000000, 1.000000000000000000 ) ) ;
#248 = ORIENTED_EDGE ( 'NONE', *, *, #234, .T. ) ;
#249 =( GEOMETRIC_REPRESENTATION_CONTEXT ( 3 ) GLOBAL_UNCERTAINTY_ASSIGNED_CONTEXT ( ( #257 ) ) GLOBAL_UNIT_ASSIGNED_CONTEXT ( ( #177, #529, #496 ) ) REPRESENTATION_CONTEXT ( 'NONE', 'WORKASPACE' ) );
#250 = LENGTH_MEASURE_WITH_UNIT ( LENGTH_MEASURE( 0.02539999999999999900 ), #488 );
#251 = PRESENTATION_STYLE_ASSIGNMENT (( #301 ) ) ;
#252 = CARTESIAN_POINT ( 'NONE',  ( 0.2999999999999999300, 3.414809992080329000E-017, -0.005566243270259357700 ) ) ;
#253 = TOROIDAL_SURFACE ( 'NONE', #158, 0.05000000000000000300, 0.02000000000000000700 ) ;
#254 = CARTESIAN_POINT ( 'NONE',  ( 0.04999999999999999600, 0.2409999999999999600, 0.0000000000000000000 ) ) ;
#255 = ORIENTED_EDGE ( 'NONE', *, *, #579, .T. ) ;
#256 =( NAMED_UNIT ( * ) PLANE_ANGLE_UNIT ( ) SI_UNIT ( $, .RADIAN. ) );
#257 = UNCERTAINTY_MEASURE_WITH_UNIT (LENGTH_MEASURE( 1.000000000000000100E-005 ), #177, 'distance_accuracy_value', 'NONE');
#258 = COLOUR_RGB ( '',1.000000000000000000, 0.8039215686274510100, 0.4941176470588235500 ) ;
#259 = SURFACE_STYLE_USAGE ( .BOTH. , #368 ) ;
#260 = SURFACE_STYLE_FILL_AREA ( #279 ) ;
#261 =( CONVERSION_BASED_UNIT ( 'INCH', #686 ) LENGTH_UNIT ( ) NAMED_UNIT ( #170 ) );
#262 =( LENGTH_UNIT ( ) NAMED_UNIT ( * ) SI_UNIT ( $, .METRE. ) );
#263 = DIRECTION ( 'NONE',  ( 6.123233995736735200E-017, 0.8660254037844400400, -0.4999999999999974500 ) ) ;
#264 = VERTEX_POINT ( 'NONE', #411 ) ;
#265 = COLOUR_RGB ( '',1.000000000000000000, 0.8039215686274510100, 0.4941176470588235500 ) ;
#266 = LENGTH_MEASURE_WITH_UNIT ( LENGTH_MEASURE( 0.02539999999999999900 ), #436 );
#267 = UNCERTAINTY_MEASURE_WITH_UNIT (LENGTH_MEASURE( 1.000000000000000100E-005 ), #457, 'distance_accuracy_value', 'NONE');
#268 = CARTESIAN_POINT ( 'NONE',  ( 0.2999999999999999300, 0.02500000000000021300, 0.0000000000000000000 ) ) ;
#269 = DIRECTION ( 'NONE',  ( 0.0000000000000000000, 1.000000000000000000, 0.0000000000000000000 ) ) ;
#270 = COLOUR_RGB ( '',1.000000000000000000, 0.8039215686274510100, 0.4941176470588235500 ) ;
#271 = DIRECTION ( 'NONE',  ( -0.0000000000000000000, -1.000000000000000000, -0.0000000000000000000 ) ) ;
#272 = CARTESIAN_POINT ( 'NONE',  ( 0.0000000000000000000, 0.0000000000000000000, 0.0000000000000000000 ) ) ;
#273 = MECHANICAL_DESIGN_GEOMETRIC_PRESENTATION_REPRESENTATION (  '', ( #304 ), #621 ) ;
#274 = SURFACE_SIDE_STYLE ('',( #419 ) ) ;
#275 = CARTESIAN_POINT ( 'NONE',  ( 0.05000000000000000300, 0.1910000000000000000, 2.449293598294707500E-018 ) ) ;
#276 = DIRECTION ( 'NONE',  ( 1.000000000000000000, 6.123233995736766000E-017, 0.0000000000000000000 ) ) ;
#277 = MECHANICAL_DESIGN_GEOMETRIC_PRESENTATION_REPRESENTATION (  '', ( #142 ), #153 ) ;
#278 =( NAMED_UNIT ( * ) SI_UNIT ( $, .STERADIAN. ) SOLID_ANGLE_UNIT ( ) );
#279 = FILL_AREA_STYLE ('',( #747 ) ) ;
#280 =( LENGTH_UNIT ( ) NAMED_UNIT ( * ) SI_UNIT ( $, .METRE. ) );
#281 = SURFACE_STYLE_FILL_AREA ( #413 ) ;
#282 = EDGE_CURVE ( 'NONE', #336, #725, #128, .T. ) ;
#283 = LINE ( 'NONE', #553, #657 ) ;
#284 = CARTESIAN_POINT ( 'NONE',  ( 0.04999999999999999600, 0.2609999999999999500, 0.0000000000000000000 ) ) ;
#285 =( CONVERSION_BASED_UNIT ( 'INCH', #531 ) LENGTH_UNIT ( ) NAMED_UNIT ( #591 ) );
#286 = DIRECTION ( 'NONE',  ( 0.0000000000000000000, 0.0000000000000000000, 1.000000000000000000 ) ) ;
#287 = EDGE_CURVE ( 'NONE', #446, #139, #86, .T. ) ;
#288 = ORIENTED_EDGE ( 'NONE', *, *, #732, .T. ) ;
#289 =( NAMED_UNIT ( * ) SI_UNIT ( $, .STERADIAN. ) SOLID_ANGLE_UNIT ( ) );
#290 = CIRCLE ( 'NONE', #603, 0.02000000000000000700 ) ;
#291 = ADVANCED_FACE ( 'NONE', ( #225 ), #672, .T. ) ;
#292 = CARTESIAN_POINT ( 'NONE',  ( 0.0000000000000000000, 0.0000000000000000000, 0.0000000000000000000 ) ) ;
#293 = SURFACE_STYLE_FILL_AREA ( #564 ) ;
#294 = AXIS2_PLACEMENT_3D ( 'NONE', #91, #549, #598 ) ;
#295 = DIRECTION ( 'NONE',  ( 0.0000000000000000000, -0.0000000000000000000, 1.000000000000000000 ) ) ;
#296 = DIRECTION ( 'NONE',  ( 0.0000000000000000000, 0.0000000000000000000, 1.000000000000000000 ) ) ;
#297 = EDGE_CURVE ( 'NONE', #648, #725, #604, .T. ) ;
#298 = UNCERTAINTY_MEASURE_WITH_UNIT (LENGTH_MEASURE( 1.000000000000000100E-005 ), #610, 'distance_accuracy_value', 'NONE');
#299 = ADVANCED_FACE ( 'NONE', ( #602 ), #69, .T. ) ;
#300 = TOROIDAL_SURFACE ( 'NONE', #353, 0.04999999999999998200, 0.02000000000000000700 ) ;
#301 = SURFACE_STYLE_USAGE ( .BOTH. , #532 ) ;
#302 = MECHANICAL_DESIGN_GEOMETRIC_PRESENTATION_REPRESENTATION (  '', ( #95 ), #382 ) ;
#303 = DIMENSIONAL_EXPONENTS ( 1.000000000000000000, 0.0000000000000000000, 0.0000000000000000000, 0.0000000000000000000, 0.0000000000000000000, 0.0000000000000000000, 0.0000000000000000000 ) ;
#304 = STYLED_ITEM ( 'NONE', ( #404 ), #441 ) ;
#305 = DIRECTION ( 'NONE',  ( 0.0000000000000000000, 1.000000000000000000, 0.0000000000000000000 ) ) ;
#306 = FILL_AREA_STYLE ('',( #583 ) ) ;
#307 = COLOUR_RGB ( '',1.000000000000000000, 0.8039215686274510100, 0.4941176470588235500 ) ;
#308 = CIRCLE ( 'NONE', #734, 0.02000000000000000700 ) ;
#309 = CIRCLE ( 'NONE', #452, 0.005566243270259360300 ) ;
#310 = DIRECTION ( 'NONE',  ( -0.0000000000000000000, 1.000000000000000000, -0.0000000000000000000 ) ) ;
#311 = PRODUCT_CONTEXT ( 'NONE', #150, 'mechanical' ) ;
#312 = SURFACE_STYLE_USAGE ( .BOTH. , #580 ) ;
#313 = ADVANCED_FACE ( 'NONE', ( #330 ), #84, .F. ) ;
#314 = ORIENTED_EDGE ( 'NONE', *, *, #98, .F. ) ;
#315 =( NAMED_UNIT ( * ) SI_UNIT ( $, .STERADIAN. ) SOLID_ANGLE_UNIT ( ) );
#316 = APPLICATION_CONTEXT ( 'automotive_design' ) ;
#317 = PRESENTATION_LAYER_ASSIGNMENT (  '', '', ( #622 ) ) ;
#318 = CARTESIAN_POINT ( 'NONE',  ( 0.0000000000000000000, 0.0000000000000000000, 0.0000000000000000000 ) ) ;
#319 = FACE_OUTER_BOUND ( 'NONE', #606, .T. ) ;
#320 = ORIENTED_EDGE ( 'NONE', *, *, #223, .T. ) ;
#321 = UNCERTAINTY_MEASURE_WITH_UNIT (LENGTH_MEASURE( 1.000000000000000100E-005 ), #612, 'distance_accuracy_value', 'NONE');
#322 = SURFACE_STYLE_FILL_AREA ( #611 ) ;
#323 = DIRECTION ( 'NONE',  ( -0.0000000000000000000, -1.000000000000000000, -0.0000000000000000000 ) ) ;
#324 =( LENGTH_UNIT ( ) NAMED_UNIT ( * ) SI_UNIT ( $, .METRE. ) );
#325 =( CONVERSION_BASED_UNIT ( 'INCH', #635 ) LENGTH_UNIT ( ) NAMED_UNIT ( #618 ) );
#326 = ORIENTED_EDGE ( 'NONE', *, *, #523, .T. ) ;
#327 = AXIS2_PLACEMENT_3D ( 'NONE', #231, #26, #115 ) ;
#328 = DIRECTION ( 'NONE',  ( 1.000000000000000000, 1.707404996040165000E-016, 0.0000000000000000000 ) ) ;
#329 = VECTOR ( 'NONE', #705, 39.37007874015748100 ) ;
#330 = FACE_OUTER_BOUND ( 'NONE', #76, .T. ) ;
#331 = EDGE_LOOP ( 'NONE', ( #502, #255, #487, #380 ) ) ;
#332 = DIRECTION ( 'NONE',  ( 1.000000000000000000, 1.707404996040165000E-016, 0.0000000000000000000 ) ) ;
#333 = DIRECTION ( 'NONE',  ( 0.0000000000000000000, 1.000000000000000000, 0.0000000000000000000 ) ) ;
#334 = DIRECTION ( 'NONE',  ( -0.0000000000000000000, 1.000000000000000000, -0.0000000000000000000 ) ) ;
#335 = DIRECTION ( 'NONE',  ( 0.0000000000000000000, 0.8660254037844400400, 0.4999999999999974500 ) ) ;
#336 = VERTEX_POINT ( 'NONE', #140 ) ;
#337 = FILL_AREA_STYLE_COLOUR ( '', #438 ) ;
#338 = DIRECTION ( 'NONE',  ( 0.0000000000000000000, 0.0000000000000000000, -1.000000000000000000 ) ) ;
#339 = MECHANICAL_DESIGN_GEOMETRIC_PRESENTATION_REPRESENTATION (  '', ( #516 ), #214 ) ;
#340 = CYLINDRICAL_SURFACE ( 'NONE', #448, 0.02000000000000002500 ) ;
#341 = SURFACE_SIDE_STYLE ('',( #260 ) ) ;
#342 = DIRECTION ( 'NONE',  ( 1.000000000000000000, 6.123233995736766000E-017, 0.0000000000000000000 ) ) ;
#343 = FACE_OUTER_BOUND ( 'NONE', #706, .T. ) ;
#344 = CARTESIAN_POINT ( 'NONE',  ( 2.449293598294707500E-018, 0.02500000000000017800, -0.02000000000000000700 ) ) ;
#345 = ORIENTED_EDGE ( 'NONE', *, *, #287, .T. ) ;
#346 = ORIENTED_EDGE ( 'NONE', *, *, #783, .T. ) ;
#347 =( LENGTH_UNIT ( ) NAMED_UNIT ( * ) SI_UNIT ( $, .METRE. ) );
#348 = PRESENTATION_STYLE_ASSIGNMENT (( #154 ) ) ;
#349 = DIRECTION ( 'NONE',  ( -0.0000000000000000000, -0.0000000000000000000, -1.000000000000000000 ) ) ;
#350 = FACE_OUTER_BOUND ( 'NONE', #20, .T. ) ;
#351 = CARTESIAN_POINT ( 'NONE',  ( 0.0000000000000000000, 0.02500000000000017800, -0.02000000000000000700 ) ) ;
#352 = CARTESIAN_POINT ( 'NONE',  ( 0.0000000000000000000, 0.1910000000000000000, 0.0000000000000000000 ) ) ;
#353 = AXIS2_PLACEMENT_3D ( 'NONE', #757, #447, #683 ) ;
#354 = EDGE_CURVE ( 'NONE', #731, #424, #650, .T. ) ;
#355 = CARTESIAN_POINT ( 'NONE',  ( 0.3199999999999999500, 0.1910000000000000300, 0.0000000000000000000 ) ) ;
#356 = ORIENTED_EDGE ( 'NONE', *, *, #50, .F. ) ;
#357 = FILL_AREA_STYLE_COLOUR ( '', #94 ) ;
#358 = DIRECTION ( 'NONE',  ( -0.0000000000000000000, -0.0000000000000000000, -1.000000000000000000 ) ) ;
#359 = PRESENTATION_STYLE_ASSIGNMENT (( #690 ) ) ;
#360 = UNCERTAINTY_MEASURE_WITH_UNIT (LENGTH_MEASURE( 1.000000000000000100E-005 ), #590, 'distance_accuracy_value', 'NONE');
#361 = FACE_OUTER_BOUND ( 'NONE', #617, .T. ) ;
#362 = STYLED_ITEM ( 'NONE', ( #251 ), #313 ) ;
#363 =( NAMED_UNIT ( * ) PLANE_ANGLE_UNIT ( ) SI_UNIT ( $, .RADIAN. ) );
#364 =( LENGTH_UNIT ( ) NAMED_UNIT ( * ) SI_UNIT ( $, .METRE. ) );
#365 = ORIENTED_EDGE ( 'NONE', *, *, #475, .T. ) ;
#366 = CARTESIAN_POINT ( 'NONE',  ( 0.2999999999999999300, 0.02500000000000021300, 0.0000000000000000000 ) ) ;
#367 = CARTESIAN_POINT ( 'NONE',  ( 0.0000000000000000000, 0.02500000000000017800, 0.02000000000000000700 ) ) ;
#368 = SURFACE_SIDE_STYLE ('',( #198 ) ) ;
#369 = COLOUR_RGB ( '',1.000000000000000000, 0.8039215686274510100, 0.4941176470588235500 ) ;
#370 = VECTOR ( 'NONE', #466, 39.37007874015748100 ) ;
#371 = EDGE_CURVE ( 'NONE', #180, #336, #308, .T. ) ;
#372 = LINE ( 'NONE', #400, #643 ) ;
#373 = SURFACE_STYLE_FILL_AREA ( #545 ) ;
#374 =( NAMED_UNIT ( * ) SI_UNIT ( $, .STERADIAN. ) SOLID_ANGLE_UNIT ( ) );
#375 = DIRECTION ( 'NONE',  ( 0.0000000000000000000, 0.0000000000000000000, 1.000000000000000000 ) ) ;
#376 = AXIS2_PLACEMENT_3D ( 'NONE', #742, #349, #397 ) ;
#377 = COLOUR_RGB ( '',1.000000000000000000, 0.8039215686274510100, 0.4941176470588235500 ) ;
#378 = AXIS2_PLACEMENT_3D ( 'NONE', #352, #166, #384 ) ;
#379 = DIRECTION ( 'NONE',  ( 0.0000000000000000000, 0.0000000000000000000, -1.000000000000000000 ) ) ;
#380 = ORIENTED_EDGE ( 'NONE', *, *, #223, .F. ) ;
#381 = ORIENTED_EDGE ( 'NONE', *, *, #682, .F. ) ;
#382 =( GEOMETRIC_REPRESENTATION_CONTEXT ( 3 ) GLOBAL_UNCERTAINTY_ASSIGNED_CONTEXT ( ( #267 ) ) GLOBAL_UNIT_ASSIGNED_CONTEXT ( ( #457, #572, #755 ) ) REPRESENTATION_CONTEXT ( 'NONE', 'WORKASPACE' ) );
#383 =( CONVERSION_BASED_UNIT ( 'INCH', #733 ) LENGTH_UNIT ( ) NAMED_UNIT ( #614 ) );
#384 = DIRECTION ( 'NONE',  ( 0.0000000000000000000, 0.0000000000000000000, 1.000000000000000000 ) ) ;
#385 = PRESENTATION_LAYER_ASSIGNMENT (  '', '', ( #95 ) ) ;
#386 =( LENGTH_UNIT ( ) NAMED_UNIT ( * ) SI_UNIT ( $, .METRE. ) );
#387 = SURFACE_SIDE_STYLE ('',( #434 ) ) ;
#388 = CARTESIAN_POINT ( 'NONE',  ( 0.2999999999999999300, 0.02500000000000021300, -0.02000000000000000700 ) ) ;
#389 = UNCERTAINTY_MEASURE_WITH_UNIT (LENGTH_MEASURE( 1.000000000000000100E-005 ), #129, 'distance_accuracy_value', 'NONE');
#390 = STYLED_ITEM ( 'NONE', ( #510 ), #458 ) ;
#391 = CARTESIAN_POINT ( 'NONE',  ( 0.04999999999999999600, 0.2209999999999999700, 2.449293598294709900E-018 ) ) ;
#392 = VECTOR ( 'NONE', #263, 39.37007874015748900 ) ;
#393 = FILL_AREA_STYLE_COLOUR ( '', #437 ) ;
#394 =( NAMED_UNIT ( * ) PLANE_ANGLE_UNIT ( ) SI_UNIT ( $, .RADIAN. ) );
#395 = STYLED_ITEM ( 'NONE', ( #348 ), #741 ) ;
#396 = CONICAL_SURFACE ( 'NONE', #410, 0.02000000000000000700, 0.5235987755982970400 ) ;
#397 = DIRECTION ( 'NONE',  ( -1.000000000000000000, 0.0000000000000000000, 0.0000000000000000000 ) ) ;
#398 = ORIENTED_EDGE ( 'NONE', *, *, #282, .F. ) ;
#399 =( NAMED_UNIT ( * ) PLANE_ANGLE_UNIT ( ) SI_UNIT ( $, .RADIAN. ) );
#400 = CARTESIAN_POINT ( 'NONE',  ( 0.04999999999999999600, 0.2609999999999999500, 0.0000000000000000000 ) ) ;
#401 =( GEOMETRIC_REPRESENTATION_CONTEXT ( 3 ) GLOBAL_UNCERTAINTY_ASSIGNED_CONTEXT ( ( #752 ) ) GLOBAL_UNIT_ASSIGNED_CONTEXT ( ( #185, #187, #753 ) ) REPRESENTATION_CONTEXT ( 'NONE', 'WORKASPACE' ) );
#402 = ORIENTED_EDGE ( 'NONE', *, *, #118, .T. ) ;
#403 = ADVANCED_BREP_SHAPE_REPRESENTATION ( '', ( #741, #574 ), #401 ) ;
#404 = PRESENTATION_STYLE_ASSIGNMENT (( #539 ) ) ;
#405 = PRESENTATION_LAYER_ASSIGNMENT (  '', '', ( #766 ) ) ;
#406 = SURFACE_STYLE_FILL_AREA ( #111 ) ;
#407 = UNCERTAINTY_MEASURE_WITH_UNIT (LENGTH_MEASURE( 1.000000000000000100E-005 ), #409, 'distance_accuracy_value', 'NONE');
#408 = SURFACE_STYLE_FILL_AREA ( #306 ) ;
#409 =( CONVERSION_BASED_UNIT ( 'INCH', #716 ) LENGTH_UNIT ( ) NAMED_UNIT ( #303 ) );
#410 = AXIS2_PLACEMENT_3D ( 'NONE', #453, #41, #472 ) ;
#411 = CARTESIAN_POINT ( 'NONE',  ( 0.2799999999999998600, 0.1910000000000000300, 2.449293598294709900E-018 ) ) ;
#412 = LENGTH_MEASURE_WITH_UNIT ( LENGTH_MEASURE( 0.02539999999999999900 ), #280 );
#413 = FILL_AREA_STYLE ('',( #744 ) ) ;
#414 = FILL_AREA_STYLE ('',( #745 ) ) ;
#415 = AXIS2_PLACEMENT_3D ( 'NONE', #431, #517, #485 ) ;
#416 = ORIENTED_EDGE ( 'NONE', *, *, #577, .F. ) ;
#417 = DIRECTION ( 'NONE',  ( 0.0000000000000000000, 0.0000000000000000000, 1.000000000000000000 ) ) ;
#418 = AXIS2_PLACEMENT_3D ( 'NONE', #116, #334, #697 ) ;
#419 = SURFACE_STYLE_FILL_AREA ( #54 ) ;
#420 = SHAPE_REPRESENTATION_RELATIONSHIP ( 'NONE' , 'NONE' ,  #19, #403 ) ;
#421 = PRESENTATION_STYLE_ASSIGNMENT (( #666 ) ) ;
#422 = DIRECTION ( 'NONE',  ( 1.000000000000000000, 0.0000000000000000000, 0.0000000000000000000 ) ) ;
#423 = SURFACE_SIDE_STYLE ('',( #222 ) ) ;
#424 = VERTEX_POINT ( 'NONE', #351 ) ;
#425 = STYLED_ITEM ( 'NONE', ( #445 ), #197 ) ;
#426 =( LENGTH_UNIT ( ) NAMED_UNIT ( * ) SI_UNIT ( $, .METRE. ) );
#427 = AXIS2_PLACEMENT_3D ( 'NONE', #167, #667, #159 ) ;
#428 = ADVANCED_FACE ( 'NONE', ( #780 ), #340, .T. ) ;
#429 = ORIENTED_EDGE ( 'NONE', *, *, #736, .F. ) ;
#430 = ORIENTED_EDGE ( 'NONE', *, *, #702, .T. ) ;
#431 = CARTESIAN_POINT ( 'NONE',  ( 0.2499999999999999700, 0.1910000000000000300, 0.0000000000000000000 ) ) ;
#432 = CYLINDRICAL_SURFACE ( 'NONE', #427, 0.02000000000000002500 ) ;
#433 =( NAMED_UNIT ( * ) SI_UNIT ( $, .STERADIAN. ) SOLID_ANGLE_UNIT ( ) );
#434 = SURFACE_STYLE_FILL_AREA ( #561 ) ;
#435 = DIMENSIONAL_EXPONENTS ( 1.000000000000000000, 0.0000000000000000000, 0.0000000000000000000, 0.0000000000000000000, 0.0000000000000000000, 0.0000000000000000000, 0.0000000000000000000 ) ;
#436 =( LENGTH_UNIT ( ) NAMED_UNIT ( * ) SI_UNIT ( $, .METRE. ) );
#437 = COLOUR_RGB ( '',1.000000000000000000, 0.6784313725490196400, 0.0000000000000000000 ) ;
#438 = COLOUR_RGB ( '',1.000000000000000000, 0.8039215686274510100, 0.4941176470588235500 ) ;
#439 = CIRCLE ( 'NONE', #376, 0.07000000000000000700 ) ;
#440 = CARTESIAN_POINT ( 'NONE',  ( 0.05000000000000000300, 0.1910000000000000000, 0.0000000000000000000 ) ) ;
#441 = ADVANCED_FACE ( 'NONE', ( #168 ), #484, .T. ) ;
#442 = APPLICATION_PROTOCOL_DEFINITION ( 'draft international standard', 'automotive_design', 1998, #316 ) ;
#443 = DIRECTION ( 'NONE',  ( 1.000000000000000000, 6.123233995736766000E-017, 0.0000000000000000000 ) ) ;
#444 = MECHANICAL_DESIGN_GEOMETRIC_PRESENTATION_REPRESENTATION (  '', ( #390 ), #104 ) ;
#445 = PRESENTATION_STYLE_ASSIGNMENT (( #478 ) ) ;
#446 = VERTEX_POINT ( 'NONE', #462 ) ;
#447 = DIRECTION ( 'NONE',  ( -0.0000000000000000000, -0.0000000000000000000, -1.000000000000000000 ) ) ;
#448 = AXIS2_PLACEMENT_3D ( 'NONE', #567, #242, #422 ) ;
#449 = LENGTH_MEASURE_WITH_UNIT ( LENGTH_MEASURE( 0.02539999999999999900 ), #627 );
#450 = CARTESIAN_POINT ( 'NONE',  ( 0.2999999999999999300, 0.02500000000000021300, 0.02000000000000000700 ) ) ;
#451 = MECHANICAL_DESIGN_GEOMETRIC_PRESENTATION_REPRESENTATION (  '', ( #622 ), #204 ) ;
#452 = AXIS2_PLACEMENT_3D ( 'NONE', #654, #642, #658 ) ;
#453 = CARTESIAN_POINT ( 'NONE',  ( 0.0000000000000000000, 0.02500000000000017800, 0.0000000000000000000 ) ) ;
#454 = EDGE_CURVE ( 'NONE', #762, #678, #708, .T. ) ;
#455 = SURFACE_STYLE_FILL_AREA ( #512 ) ;
#456 = CARTESIAN_POINT ( 'NONE',  ( 0.2999999999999999300, 0.1910000000000000300, 0.0000000000000000000 ) ) ;
#457 =( CONVERSION_BASED_UNIT ( 'INCH', #449 ) LENGTH_UNIT ( ) NAMED_UNIT ( #135 ) );
#458 = ADVANCED_FACE ( 'NONE', ( #361 ), #110, .T. ) ;
#459 = VERTEX_POINT ( 'NONE', #534 ) ;
#460 = DIRECTION ( 'NONE',  ( 0.0000000000000000000, 1.000000000000000000, 0.0000000000000000000 ) ) ;
#461 = EDGE_CURVE ( 'NONE', #719, #446, #372, .T. ) ;
#462 = CARTESIAN_POINT ( 'NONE',  ( 0.2499999999999999200, 0.2610000000000000100, 0.0000000000000000000 ) ) ;
#463 = ORIENTED_EDGE ( 'NONE', *, *, #161, .T. ) ;
#464 = PRESENTATION_LAYER_ASSIGNMENT (  '', '', ( #395 ) ) ;
#465 = CIRCLE ( 'NONE', #629, 0.02000000000000000700 ) ;
#466 = DIRECTION ( 'NONE',  ( -0.0000000000000000000, -1.000000000000000000, -0.0000000000000000000 ) ) ;
#467 = ORIENTED_EDGE ( 'NONE', *, *, #354, .T. ) ;
#468 =( LENGTH_UNIT ( ) NAMED_UNIT ( * ) SI_UNIT ( $, .METRE. ) );
#469 = VECTOR ( 'NONE', #194, 39.37007874015748100 ) ;
#470 = ORIENTED_EDGE ( 'NONE', *, *, #354, .F. ) ;
#471 = MECHANICAL_DESIGN_GEOMETRIC_PRESENTATION_REPRESENTATION (  '', ( #711 ), #624 ) ;
#472 = DIRECTION ( 'NONE',  ( 0.0000000000000000000, 0.0000000000000000000, 1.000000000000000000 ) ) ;
#473 = MECHANICAL_DESIGN_GEOMETRIC_PRESENTATION_REPRESENTATION (  '', ( #425 ), #765 ) ;
#474 = PLANE ( 'NONE',  #88 ) ;
#475 = EDGE_CURVE ( 'NONE', #39, #424, #724, .T. ) ;
#476 = CIRCLE ( 'NONE', #774, 0.02000000000000000700 ) ;
#477 = CARTESIAN_POINT ( 'NONE',  ( 0.04999999999999999600, 0.2409999999999999600, 0.0000000000000000000 ) ) ;
#478 = SURFACE_STYLE_USAGE ( .BOTH. , #498 ) ;
#479 = DIRECTION ( 'NONE',  ( 0.0000000000000000000, 1.000000000000000000, 0.0000000000000000000 ) ) ;
#480 = ADVANCED_FACE ( 'NONE', ( #584 ), #743, .T. ) ;
#481 = DIRECTION ( 'NONE',  ( -0.0000000000000000000, -1.000000000000000000, -0.0000000000000000000 ) ) ;
#482 = CARTESIAN_POINT ( 'NONE',  ( 0.0000000000000000000, 0.0000000000000000000, 0.005566243270259325600 ) ) ;
#483 = DIRECTION ( 'NONE',  ( -1.000000000000000000, 0.0000000000000000000, 0.0000000000000000000 ) ) ;
#484 = CYLINDRICAL_SURFACE ( 'NONE', #754, 0.01999999999999999000 ) ;
#485 = DIRECTION ( 'NONE',  ( -1.000000000000000000, 0.0000000000000000000, 0.0000000000000000000 ) ) ;
#486 = LINE ( 'NONE', #367, #469 ) ;
#487 = ORIENTED_EDGE ( 'NONE', *, *, #461, .T. ) ;
#488 =( LENGTH_UNIT ( ) NAMED_UNIT ( * ) SI_UNIT ( $, .METRE. ) );
#489 = AXIS2_PLACEMENT_3D ( 'NONE', #131, #550, #31 ) ;
#490 = SURFACE_STYLE_FILL_AREA ( #414 ) ;
#491 = DIRECTION ( 'NONE',  ( 1.000000000000000000, 1.707404996040165000E-016, 0.0000000000000000000 ) ) ;
#492 = SURFACE_STYLE_USAGE ( .BOTH. , #63 ) ;
#493 = AXIS2_PLACEMENT_3D ( 'NONE', #176, #443, #417 ) ;
#494 = PRESENTATION_STYLE_ASSIGNMENT (( #492 ) ) ;
#495 = DIRECTION ( 'NONE',  ( 1.224646799147353200E-016, -1.000000000000000000, 0.0000000000000000000 ) ) ;
#496 =( NAMED_UNIT ( * ) SI_UNIT ( $, .STERADIAN. ) SOLID_ANGLE_UNIT ( ) );
#497 = FACE_OUTER_BOUND ( 'NONE', #645, .T. ) ;
#498 = SURFACE_SIDE_STYLE ('',( #373 ) ) ;
#499 = DIRECTION ( 'NONE',  ( -0.0000000000000000000, -0.0000000000000000000, -1.000000000000000000 ) ) ;
#500 = DIRECTION ( 'NONE',  ( 0.0000000000000000000, 0.0000000000000000000, 1.000000000000000000 ) ) ;
#501 = CARTESIAN_POINT ( 'NONE',  ( 0.05000000000000000300, 0.1910000000000000000, 0.0000000000000000000 ) ) ;
#502 = ORIENTED_EDGE ( 'NONE', *, *, #653, .F. ) ;
#503 = ORIENTED_EDGE ( 'NONE', *, *, #732, .F. ) ;
#504 = CARTESIAN_POINT ( 'NONE',  ( 2.449293598294707500E-018, 0.02500000000000017800, 0.02000000000000000700 ) ) ;
#505 = PRESENTATION_STYLE_ASSIGNMENT (( #213 ) ) ;
#506 = LENGTH_MEASURE_WITH_UNIT ( LENGTH_MEASURE( 0.02539999999999999900 ), #219 );
#507 = VECTOR ( 'NONE', #243, 39.37007874015748100 ) ;
#508 = SURFACE_STYLE_FILL_AREA ( #671 ) ;
#509 = AXIS2_PLACEMENT_3D ( 'NONE', #456, #542, #551 ) ;
#510 = PRESENTATION_STYLE_ASSIGNMENT (( #218 ) ) ;
#511 = VERTEX_POINT ( 'NONE', #189 ) ;
#512 = FILL_AREA_STYLE ('',( #108 ) ) ;
#513 = PRESENTATION_LAYER_ASSIGNMENT (  '', '', ( #362 ) ) ;
#514 = VERTEX_POINT ( 'NONE', #146 ) ;
#515 =( GEOMETRIC_REPRESENTATION_CONTEXT ( 3 ) GLOBAL_UNCERTAINTY_ASSIGNED_CONTEXT ( ( #407 ) ) GLOBAL_UNIT_ASSIGNED_CONTEXT ( ( #409, #751, #215 ) ) REPRESENTATION_CONTEXT ( 'NONE', 'WORKASPACE' ) );
#516 = STYLED_ITEM ( 'NONE', ( #559 ), #58 ) ;
#517 = DIRECTION ( 'NONE',  ( -0.0000000000000000000, -0.0000000000000000000, -1.000000000000000000 ) ) ;
#518 =( NAMED_UNIT ( * ) PLANE_ANGLE_UNIT ( ) SI_UNIT ( $, .RADIAN. ) );
#519 = AXIS2_PLACEMENT_3D ( 'NONE', #292, #123, #557 ) ;
#520 = COLOUR_RGB ( '',1.000000000000000000, 0.8039215686274510100, 0.4941176470588235500 ) ;
#521 =( NAMED_UNIT ( * ) SI_UNIT ( $, .STERADIAN. ) SOLID_ANGLE_UNIT ( ) );
#522 = ORIENTED_EDGE ( 'NONE', *, *, #699, .F. ) ;
#523 = EDGE_CURVE ( 'NONE', #96, #180, #283, .T. ) ;
#524 = DIRECTION ( 'NONE',  ( 0.0000000000000000000, 0.0000000000000000000, 1.000000000000000000 ) ) ;
#525 = ORIENTED_EDGE ( 'NONE', *, *, #653, .T. ) ;
#526 =( CONVERSION_BASED_UNIT ( 'INCH', #46 ) LENGTH_UNIT ( ) NAMED_UNIT ( #78 ) );
#527 =( GEOMETRIC_REPRESENTATION_CONTEXT ( 3 ) GLOBAL_UNCERTAINTY_ASSIGNED_CONTEXT ( ( #298 ) ) GLOBAL_UNIT_ASSIGNED_CONTEXT ( ( #610, #394, #576 ) ) REPRESENTATION_CONTEXT ( 'NONE', 'WORKASPACE' ) );
#528 = ADVANCED_FACE ( 'NONE', ( #82 ), #300, .T. ) ;
#529 =( NAMED_UNIT ( * ) PLANE_ANGLE_UNIT ( ) SI_UNIT ( $, .RADIAN. ) );
#530 = LINE ( 'NONE', #143, #49 ) ;
#531 = LENGTH_MEASURE_WITH_UNIT ( LENGTH_MEASURE( 0.02539999999999999900 ), #581 );
#532 = SURFACE_SIDE_STYLE ('',( #406 ) ) ;
#533 = STYLED_ITEM ( 'NONE', ( #421 ), #480 ) ;
#534 = CARTESIAN_POINT ( 'NONE',  ( 2.449293598294707500E-018, 0.1910000000000000000, 0.02000000000000000700 ) ) ;
#535 = FILL_AREA_STYLE_COLOUR ( '', #520 ) ;
#536 =( NAMED_UNIT ( * ) SI_UNIT ( $, .STERADIAN. ) SOLID_ANGLE_UNIT ( ) );
#537 =( NAMED_UNIT ( * ) PLANE_ANGLE_UNIT ( ) SI_UNIT ( $, .RADIAN. ) );
#538 = DIMENSIONAL_EXPONENTS ( 1.000000000000000000, 0.0000000000000000000, 0.0000000000000000000, 0.0000000000000000000, 0.0000000000000000000, 0.0000000000000000000, 0.0000000000000000000 ) ;
#539 = SURFACE_STYLE_USAGE ( .BOTH. , #341 ) ;
#540 = AXIS2_PLACEMENT_3D ( 'NONE', #275, #499, #623 ) ;
#541 =( GEOMETRIC_REPRESENTATION_CONTEXT ( 3 ) GLOBAL_UNCERTAINTY_ASSIGNED_CONTEXT ( ( #637 ) ) GLOBAL_UNIT_ASSIGNED_CONTEXT ( ( #10, #87, #137 ) ) REPRESENTATION_CONTEXT ( 'NONE', 'WORKASPACE' ) );
#542 = DIRECTION ( 'NONE',  ( 1.224646799147353200E-016, -1.000000000000000000, 0.0000000000000000000 ) ) ;
#543 = LENGTH_MEASURE_WITH_UNIT ( LENGTH_MEASURE( 0.02539999999999999900 ), #595 );
#544 = COLOUR_RGB ( '',1.000000000000000000, 0.8039215686274510100, 0.4941176470588235500 ) ;
#545 = FILL_AREA_STYLE ('',( #535 ) ) ;
#546 = CIRCLE ( 'NONE', #519, 0.005566243270259325600 ) ;
#547 = CIRCLE ( 'NONE', #560, 0.005566243270259325600 ) ;
#548 = UNCERTAINTY_MEASURE_WITH_UNIT (LENGTH_MEASURE( 1.000000000000000100E-005 ), #261, 'distance_accuracy_value', 'NONE');
#549 = DIRECTION ( 'NONE',  ( 1.000000000000000000, 6.123233995736766000E-017, 0.0000000000000000000 ) ) ;
#550 = DIRECTION ( 'NONE',  ( 1.224646799147353200E-016, -1.000000000000000000, 0.0000000000000000000 ) ) ;
#551 = DIRECTION ( 'NONE',  ( 0.0000000000000000000, 0.0000000000000000000, 1.000000000000000000 ) ) ;
#552 = UNCERTAINTY_MEASURE_WITH_UNIT (LENGTH_MEASURE( 1.000000000000000100E-005 ), #526, 'distance_accuracy_value', 'NONE');
#553 = CARTESIAN_POINT ( 'NONE',  ( 0.2999999999999999300, 3.414809992080329000E-017, 0.005566243270259357700 ) ) ;
#554 = DIRECTION ( 'NONE',  ( 0.0000000000000000000, 1.000000000000000000, 0.0000000000000000000 ) ) ;
#555 = PRESENTATION_STYLE_ASSIGNMENT (( #312 ) ) ;
#556 = SURFACE_STYLE_USAGE ( .BOTH. , #230 ) ;
#557 = DIRECTION ( 'NONE',  ( 0.0000000000000000000, 0.0000000000000000000, 1.000000000000000000 ) ) ;
#558 = CIRCLE ( 'NONE', #327, 0.02999999999999998800 ) ;
#559 = PRESENTATION_STYLE_ASSIGNMENT (( #722 ) ) ;
#560 = AXIS2_PLACEMENT_3D ( 'NONE', #761, #80, #500 ) ;
#561 = FILL_AREA_STYLE ('',( #357 ) ) ;
#562 = SURFACE_STYLE_USAGE ( .BOTH. , #24 ) ;
#563 = EDGE_LOOP ( 'NONE', ( #463, #670, #628, #165, #727 ) ) ;
#564 = FILL_AREA_STYLE ('',( #105 ) ) ;
#565 = DIRECTION ( 'NONE',  ( 0.0000000000000000000, 0.0000000000000000000, 1.000000000000000000 ) ) ;
#566 =( GEOMETRIC_REPRESENTATION_CONTEXT ( 3 ) GLOBAL_UNCERTAINTY_ASSIGNED_CONTEXT ( ( #782 ) ) GLOBAL_UNIT_ASSIGNED_CONTEXT ( ( #229, #199, #179 ) ) REPRESENTATION_CONTEXT ( 'NONE', 'WORKASPACE' ) );
#567 = CARTESIAN_POINT ( 'NONE',  ( 0.2999999999999999300, 0.1910000000000000300, 0.0000000000000000000 ) ) ;
#568 =( CONVERSION_BASED_UNIT ( 'INCH', #97 ) LENGTH_UNIT ( ) NAMED_UNIT ( #435 ) );
#569 = ADVANCED_FACE ( 'NONE', ( #710 ), #253, .T. ) ;
#570 = LENGTH_MEASURE_WITH_UNIT ( LENGTH_MEASURE( 0.02539999999999999900 ), #468 );
#571 = EDGE_LOOP ( 'NONE', ( #77, #638, #113, #3, #288 ) ) ;
#572 =( NAMED_UNIT ( * ) PLANE_ANGLE_UNIT ( ) SI_UNIT ( $, .RADIAN. ) );
#573 = ORIENTED_EDGE ( 'NONE', *, *, #371, .F. ) ;
#574 = AXIS2_PLACEMENT_3D ( 'NONE', #318, #375, #676 ) ;
#575 = DIRECTION ( 'NONE',  ( -1.000000000000000000, 0.0000000000000000000, 0.0000000000000000000 ) ) ;
#576 =( NAMED_UNIT ( * ) SI_UNIT ( $, .STERADIAN. ) SOLID_ANGLE_UNIT ( ) );
#577 = EDGE_CURVE ( 'NONE', #514, #424, #27, .T. ) ;
#578 =( NAMED_UNIT ( * ) SI_UNIT ( $, .STERADIAN. ) SOLID_ANGLE_UNIT ( ) );
#579 = EDGE_CURVE ( 'NONE', #678, #719, #290, .T. ) ;
#580 = SURFACE_SIDE_STYLE ('',( #508 ) ) ;
#581 =( LENGTH_UNIT ( ) NAMED_UNIT ( * ) SI_UNIT ( $, .METRE. ) );
#582 = SHAPE_DEFINITION_REPRESENTATION ( #245, #19 ) ;
#583 = FILL_AREA_STYLE_COLOUR ( '', #544 ) ;
#584 = FACE_OUTER_BOUND ( 'NONE', #694, .T. ) ;
#585 = LENGTH_MEASURE_WITH_UNIT ( LENGTH_MEASURE( 0.02539999999999999900 ), #771 );
#586 = ORIENTED_EDGE ( 'NONE', *, *, #118, .F. ) ;
#587 = MECHANICAL_DESIGN_GEOMETRIC_PRESENTATION_REPRESENTATION (  '', ( #67 ), #527 ) ;
#588 = CARTESIAN_POINT ( 'NONE',  ( 0.2999999999999999300, 0.02500000000000021300, 0.0000000000000000000 ) ) ;
#589 = EDGE_LOOP ( 'NONE', ( #381, #52, #608, #181, #634 ) ) ;
#590 =( CONVERSION_BASED_UNIT ( 'INCH', #101 ) LENGTH_UNIT ( ) NAMED_UNIT ( #700 ) );
#591 = DIMENSIONAL_EXPONENTS ( 1.000000000000000000, 0.0000000000000000000, 0.0000000000000000000, 0.0000000000000000000, 0.0000000000000000000, 0.0000000000000000000, 0.0000000000000000000 ) ;
#592 = PRESENTATION_STYLE_ASSIGNMENT (( #70 ) ) ;
#593 = FACE_OUTER_BOUND ( 'NONE', #695, .T. ) ;
#594 = LINE ( 'NONE', #233, #107 ) ;
#595 =( LENGTH_UNIT ( ) NAMED_UNIT ( * ) SI_UNIT ( $, .METRE. ) );
#596 = FILL_AREA_STYLE_COLOUR ( '', #265 ) ;
#597 = ORIENTED_EDGE ( 'NONE', *, *, #647, .F. ) ;
#598 = DIRECTION ( 'NONE',  ( 0.0000000000000000000, 0.0000000000000000000, 1.000000000000000000 ) ) ;
#599 = PRESENTATION_LAYER_ASSIGNMENT (  '', '', ( #67 ) ) ;
#600 = DIRECTION ( 'NONE',  ( 0.0000000000000000000, 1.000000000000000000, 0.0000000000000000000 ) ) ;
#601 = ORIENTED_EDGE ( 'NONE', *, *, #151, .F. ) ;
#602 = FACE_OUTER_BOUND ( 'NONE', #331, .T. ) ;
#603 = AXIS2_PLACEMENT_3D ( 'NONE', #477, #342, #607 ) ;
#604 = LINE ( 'NONE', #252, #392 ) ;
#605 = DIMENSIONAL_EXPONENTS ( 1.000000000000000000, 0.0000000000000000000, 0.0000000000000000000, 0.0000000000000000000, 0.0000000000000000000, 0.0000000000000000000, 0.0000000000000000000 ) ;
#606 = EDGE_LOOP ( 'NONE', ( #416, #55, #239, #777 ) ) ;
#607 = DIRECTION ( 'NONE',  ( 0.0000000000000000000, 0.0000000000000000000, 1.000000000000000000 ) ) ;
#608 = ORIENTED_EDGE ( 'NONE', *, *, #50, .T. ) ;
#609 = COLOUR_RGB ( '',1.000000000000000000, 0.8039215686274510100, 0.4941176470588235500 ) ;
#610 =( CONVERSION_BASED_UNIT ( 'INCH', #224 ) LENGTH_UNIT ( ) NAMED_UNIT ( #43 ) );
#611 = FILL_AREA_STYLE ('',( #779 ) ) ;
#612 =( CONVERSION_BASED_UNIT ( 'INCH', #7 ) LENGTH_UNIT ( ) NAMED_UNIT ( #644 ) );
#613 =( CONVERSION_BASED_UNIT ( 'INCH', #200 ) LENGTH_UNIT ( ) NAMED_UNIT ( #117 ) );
#614 = DIMENSIONAL_EXPONENTS ( 1.000000000000000000, 0.0000000000000000000, 0.0000000000000000000, 0.0000000000000000000, 0.0000000000000000000, 0.0000000000000000000, 0.0000000000000000000 ) ;
#615 = SURFACE_STYLE_USAGE ( .BOTH. , #423 ) ;
#616 = SURFACE_SIDE_STYLE ('',( #408 ) ) ;
#617 = EDGE_LOOP ( 'NONE', ( #44, #522, #713, #365, #145 ) ) ;
#618 = DIMENSIONAL_EXPONENTS ( 1.000000000000000000, 0.0000000000000000000, 0.0000000000000000000, 0.0000000000000000000, 0.0000000000000000000, 0.0000000000000000000, 0.0000000000000000000 ) ;
#619 = CARTESIAN_POINT ( 'NONE',  ( 0.0000000000000000000, 0.1910000000000000000, 0.0000000000000000000 ) ) ;
#620 = UNCERTAINTY_MEASURE_WITH_UNIT (LENGTH_MEASURE( 1.000000000000000100E-005 ), #325, 'distance_accuracy_value', 'NONE');
#621 =( GEOMETRIC_REPRESENTATION_CONTEXT ( 3 ) GLOBAL_UNCERTAINTY_ASSIGNED_CONTEXT ( ( #114 ) ) GLOBAL_UNIT_ASSIGNED_CONTEXT ( ( #216, #692, #315 ) ) REPRESENTATION_CONTEXT ( 'NONE', 'WORKASPACE' ) );
#622 = STYLED_ITEM ( 'NONE', ( #505 ), #299 ) ;
#623 = DIRECTION ( 'NONE',  ( -1.000000000000000000, 0.0000000000000000000, 0.0000000000000000000 ) ) ;
#624 =( GEOMETRIC_REPRESENTATION_CONTEXT ( 3 ) GLOBAL_UNCERTAINTY_ASSIGNED_CONTEXT ( ( #548 ) ) GLOBAL_UNIT_ASSIGNED_CONTEXT ( ( #261, #35, #374 ) ) REPRESENTATION_CONTEXT ( 'NONE', 'WORKASPACE' ) );
#625 = EDGE_CURVE ( 'NONE', #221, #336, #186, .T. ) ;
#626 =( GEOMETRIC_REPRESENTATION_CONTEXT ( 3 ) GLOBAL_UNCERTAINTY_ASSIGNED_CONTEXT ( ( #620 ) ) GLOBAL_UNIT_ASSIGNED_CONTEXT ( ( #325, #256, #536 ) ) REPRESENTATION_CONTEXT ( 'NONE', 'WORKASPACE' ) );
#627 =( LENGTH_UNIT ( ) NAMED_UNIT ( * ) SI_UNIT ( $, .METRE. ) );
#628 = ORIENTED_EDGE ( 'NONE', *, *, #736, .T. ) ;
#629 = AXIS2_PLACEMENT_3D ( 'NONE', #646, #269, #25 ) ;
#630 = CYLINDRICAL_SURFACE ( 'NONE', #149, 0.02000000000000000700 ) ;
#631 = CIRCLE ( 'NONE', #493, 0.02000000000000000700 ) ;
#632 = AXIS2_PLACEMENT_3D ( 'NONE', #244, #188, #162 ) ;
#633 = CIRCLE ( 'NONE', #415, 0.06999999999999996500 ) ;
#634 = ORIENTED_EDGE ( 'NONE', *, *, #702, .F. ) ;
#635 = LENGTH_MEASURE_WITH_UNIT ( LENGTH_MEASURE( 0.02539999999999999900 ), #8 );
#636 = ORIENTED_EDGE ( 'NONE', *, *, #687, .T. ) ;
#637 = UNCERTAINTY_MEASURE_WITH_UNIT (LENGTH_MEASURE( 1.000000000000000100E-005 ), #10, 'distance_accuracy_value', 'NONE');
#638 = ORIENTED_EDGE ( 'NONE', *, *, #682, .T. ) ;
#639 = CARTESIAN_POINT ( 'NONE',  ( 0.2499999999999999700, 0.1910000000000000300, 0.0000000000000000000 ) ) ;
#640 = FILL_AREA_STYLE_COLOUR ( '', #709 ) ;
#641 = CIRCLE ( 'NONE', #18, 0.02000000000000000700 ) ;
#642 = DIRECTION ( 'NONE',  ( 1.224646799147353200E-016, -1.000000000000000000, 0.0000000000000000000 ) ) ;
#643 = VECTOR ( 'NONE', #226, 39.37007874015748100 ) ;
#644 = DIMENSIONAL_EXPONENTS ( 1.000000000000000000, 0.0000000000000000000, 0.0000000000000000000, 0.0000000000000000000, 0.0000000000000000000, 0.0000000000000000000, 0.0000000000000000000 ) ;
#645 = EDGE_LOOP ( 'NONE', ( #148, #763, #470, #195 ) ) ;
#646 = CARTESIAN_POINT ( 'NONE',  ( 0.0000000000000000000, 0.1910000000000000000, 0.0000000000000000000 ) ) ;
#647 = EDGE_CURVE ( 'NONE', #264, #511, #530, .T. ) ;
#648 = VERTEX_POINT ( 'NONE', #89 ) ;
#649 = AXIS2_PLACEMENT_3D ( 'NONE', #272, #333, #295 ) ;
#650 = CIRCLE ( 'NONE', #126, 0.02000000000000000700 ) ;
#651 = COLOUR_RGB ( '',1.000000000000000000, 0.6784313725490196400, 0.0000000000000000000 ) ;
#652 = CARTESIAN_POINT ( 'NONE',  ( 0.3199999999999999500, 0.1910000000000000300, 0.0000000000000000000 ) ) ;
#653 = EDGE_CURVE ( 'NONE', #678, #139, #594, .T. ) ;
#654 = CARTESIAN_POINT ( 'NONE',  ( 0.2999999999999999300, 3.414809992080329000E-017, 0.0000000000000000000 ) ) ;
#655 =( GEOMETRIC_REPRESENTATION_CONTEXT ( 3 ) GLOBAL_UNCERTAINTY_ASSIGNED_CONTEXT ( ( #321 ) ) GLOBAL_UNIT_ASSIGNED_CONTEXT ( ( #612, #698, #278 ) ) REPRESENTATION_CONTEXT ( 'NONE', 'WORKASPACE' ) );
#656 =( NAMED_UNIT ( * ) SI_UNIT ( $, .STERADIAN. ) SOLID_ANGLE_UNIT ( ) );
#657 = VECTOR ( 'NONE', #335, 39.37007874015748900 ) ;
#658 = DIRECTION ( 'NONE',  ( 1.000000000000000000, 1.224646799147356700E-016, 0.0000000000000000000 ) ) ;
#659 = UNCERTAINTY_MEASURE_WITH_UNIT (LENGTH_MEASURE( 1.000000000000000100E-005 ), #568, 'distance_accuracy_value', 'NONE');
#660 = ORIENTED_EDGE ( 'NONE', *, *, #184, .T. ) ;
#661 = ORIENTED_EDGE ( 'NONE', *, *, #625, .T. ) ;
#662 = FILL_AREA_STYLE ('',( #160 ) ) ;
#663 = PRODUCT ( '1430-3', '1430-3', '', ( #311 ) ) ;
#664 = MECHANICAL_DESIGN_GEOMETRIC_PRESENTATION_REPRESENTATION (  '', ( #669 ), #626 ) ;
#665 = DIMENSIONAL_EXPONENTS ( 1.000000000000000000, 0.0000000000000000000, 0.0000000000000000000, 0.0000000000000000000, 0.0000000000000000000, 0.0000000000000000000, 0.0000000000000000000 ) ;
#666 = SURFACE_STYLE_USAGE ( .BOTH. , #616 ) ;
#667 = DIRECTION ( 'NONE',  ( 1.787858634597031000E-016, -1.000000000000000000, 0.0000000000000000000 ) ) ;
#668 = SURFACE_STYLE_USAGE ( .BOTH. , #768 ) ;
#669 = STYLED_ITEM ( 'NONE', ( #759 ), #212 ) ;
#670 = ORIENTED_EDGE ( 'NONE', *, *, #647, .T. ) ;
#671 = FILL_AREA_STYLE ('',( #640 ) ) ;
#672 = CONICAL_SURFACE ( 'NONE', #632, 0.005566243270259357700, 0.5235987755982960400 ) ;
#673 = MECHANICAL_DESIGN_GEOMETRIC_PRESENTATION_REPRESENTATION (  '', ( #395 ), #515 ) ;
#674 = CIRCLE ( 'NONE', #509, 0.02000000000000000700 ) ;
#675 = PRODUCT_DEFINITION_CONTEXT ( 'detailed design', #316, 'design' ) ;
#676 = DIRECTION ( 'NONE',  ( 1.000000000000000000, 0.0000000000000000000, 0.0000000000000000000 ) ) ;
#677 =( GEOMETRIC_REPRESENTATION_CONTEXT ( 3 ) GLOBAL_UNCERTAINTY_ASSIGNED_CONTEXT ( ( #183 ) ) GLOBAL_UNIT_ASSIGNED_CONTEXT ( ( #285, #6, #211 ) ) REPRESENTATION_CONTEXT ( 'NONE', 'WORKASPACE' ) );
#678 = VERTEX_POINT ( 'NONE', #391 ) ;
#679 = DIMENSIONAL_EXPONENTS ( 1.000000000000000000, 0.0000000000000000000, 0.0000000000000000000, 0.0000000000000000000, 0.0000000000000000000, 0.0000000000000000000, 0.0000000000000000000 ) ;
#680 = UNCERTAINTY_MEASURE_WITH_UNIT (LENGTH_MEASURE( 1.000000000000000100E-005 ), #613, 'distance_accuracy_value', 'NONE');
#681 = SURFACE_STYLE_FILL_AREA ( #662 ) ;
#682 = EDGE_CURVE ( 'NONE', #192, #719, #439, .T. ) ;
#683 = DIRECTION ( 'NONE',  ( -1.000000000000000000, 0.0000000000000000000, 0.0000000000000000000 ) ) ;
#684 =( NAMED_UNIT ( * ) PLANE_ANGLE_UNIT ( ) SI_UNIT ( $, .RADIAN. ) );
#685 = ADVANCED_FACE ( 'NONE', ( #350 ), #474, .T. ) ;
#686 = LENGTH_MEASURE_WITH_UNIT ( LENGTH_MEASURE( 0.02539999999999999900 ), #13 );
#687 = EDGE_CURVE ( 'NONE', #459, #731, #701, .T. ) ;
#688 = DIRECTION ( 'NONE',  ( 0.0000000000000000000, 0.0000000000000000000, -1.000000000000000000 ) ) ;
#689 = PRESENTATION_LAYER_ASSIGNMENT (  '', '', ( #533 ) ) ;
#690 = SURFACE_STYLE_USAGE ( .BOTH. , #17 ) ;
#691 = FILL_AREA_STYLE ('',( #756 ) ) ;
#692 =( NAMED_UNIT ( * ) PLANE_ANGLE_UNIT ( ) SI_UNIT ( $, .RADIAN. ) );
#693 = COLOUR_RGB ( '',1.000000000000000000, 0.8039215686274510100, 0.4941176470588235500 ) ;
#694 = EDGE_LOOP ( 'NONE', ( #320, #660, #601, #23 ) ) ;
#695 = EDGE_LOOP ( 'NONE', ( #356, #636, #467, #42, #503 ) ) ;
#696 = ORIENTED_EDGE ( 'NONE', *, *, #287, .F. ) ;
#697 = DIRECTION ( 'NONE',  ( 0.0000000000000000000, 0.0000000000000000000, 1.000000000000000000 ) ) ;
#698 =( NAMED_UNIT ( * ) PLANE_ANGLE_UNIT ( ) SI_UNIT ( $, .RADIAN. ) );
#699 = EDGE_CURVE ( 'NONE', #192, #459, #465, .T. ) ;
#700 = DIMENSIONAL_EXPONENTS ( 1.000000000000000000, 0.0000000000000000000, 0.0000000000000000000, 0.0000000000000000000, 0.0000000000000000000, 0.0000000000000000000, 0.0000000000000000000 ) ;
#701 = LINE ( 'NONE', #141, #370 ) ;
#702 = EDGE_CURVE ( 'NONE', #719, #678, #90, .T. ) ;
#703 = ORIENTED_EDGE ( 'NONE', *, *, #282, .T. ) ;
#704 = MECHANICAL_DESIGN_GEOMETRIC_PRESENTATION_REPRESENTATION (  '', ( #533 ), #677 ) ;
#705 = DIRECTION ( 'NONE',  ( 6.123233995736746300E-017, 0.8660254037844394800, -0.4999999999999983900 ) ) ;
#706 = EDGE_LOOP ( 'NONE', ( #597, #85, #661, #703, #346 ) ) ;
#707 = PRESENTATION_LAYER_ASSIGNMENT (  '', '', ( #304 ) ) ;
#708 = CIRCLE ( 'NONE', #540, 0.02999999999999999500 ) ;
#709 = COLOUR_RGB ( '',1.000000000000000000, 0.8039215686274510100, 0.4941176470588235500 ) ;
#710 = FACE_OUTER_BOUND ( 'NONE', #589, .T. ) ;
#711 = STYLED_ITEM ( 'NONE', ( #723 ), #291 ) ;
#712 = CIRCLE ( 'NONE', #228, 0.02000000000000000700 ) ;
#713 = ORIENTED_EDGE ( 'NONE', *, *, #48, .F. ) ;
#714 = PRESENTATION_LAYER_ASSIGNMENT (  '', '', ( #516 ) ) ;
#715 = PRESENTATION_LAYER_ASSIGNMENT (  '', '', ( #390 ) ) ;
#716 = LENGTH_MEASURE_WITH_UNIT ( LENGTH_MEASURE( 0.02539999999999999900 ), #386 );
#717 = DIMENSIONAL_EXPONENTS ( 1.000000000000000000, 0.0000000000000000000, 0.0000000000000000000, 0.0000000000000000000, 0.0000000000000000000, 0.0000000000000000000, 0.0000000000000000000 ) ;
#718 = VERTEX_POINT ( 'NONE', #482 ) ;
#719 = VERTEX_POINT ( 'NONE', #284 ) ;
#720 = ADVANCED_FACE ( 'NONE', ( #593 ), #630, .T. ) ;
#721 = EDGE_CURVE ( 'NONE', #424, #731, #106, .T. ) ;
#722 = SURFACE_STYLE_USAGE ( .BOTH. , #387 ) ;
#723 = PRESENTATION_STYLE_ASSIGNMENT (( #30 ) ) ;
#724 = LINE ( 'NONE', #121, #29 ) ;
#725 = VERTEX_POINT ( 'NONE', #388 ) ;
#726 =( LENGTH_UNIT ( ) NAMED_UNIT ( * ) SI_UNIT ( $, .METRE. ) );
#727 = ORIENTED_EDGE ( 'NONE', *, *, #625, .F. ) ;
#728 = DIRECTION ( 'NONE',  ( -0.0000000000000000000, -0.0000000000000000000, -1.000000000000000000 ) ) ;
#729 = PRODUCT_RELATED_PRODUCT_CATEGORY ( 'part', '', ( #663 ) ) ;
#730 = CLOSED_SHELL ( 'NONE', ( #197, #480, #58, #12, #720, #441, #428, #45, #528, #299, #569, #458, #685, #313, #291, #212 ) ) ;
#731 = VERTEX_POINT ( 'NONE', #504 ) ;
#732 = EDGE_CURVE ( 'NONE', #762, #39, #641, .T. ) ;
#733 = LENGTH_MEASURE_WITH_UNIT ( LENGTH_MEASURE( 0.02539999999999999900 ), #57 );
#734 = AXIS2_PLACEMENT_3D ( 'NONE', #268, #172, #379 ) ;
#735 = DIRECTION ( 'NONE',  ( -0.0000000000000000000, 1.000000000000000000, -0.0000000000000000000 ) ) ;
#736 = EDGE_CURVE ( 'NONE', #511, #180, #476, .T. ) ;
#737 = CARTESIAN_POINT ( 'NONE',  ( 0.2999999999999999300, 3.414809992080329000E-017, 0.005566243270259357700 ) ) ;
#738 = SURFACE_SIDE_STYLE ('',( #773 ) ) ;
#739 = EDGE_LOOP ( 'NONE', ( #238, #345, #772, #163 ) ) ;
#740 = STYLED_ITEM ( 'NONE', ( #47 ), #428 ) ;
#741 = MANIFOLD_SOLID_BREP ( 'Chamfer1', #730 ) ;
#742 = CARTESIAN_POINT ( 'NONE',  ( 0.05000000000000000300, 0.1910000000000000000, 0.0000000000000000000 ) ) ;
#743 = TOROIDAL_SURFACE ( 'NONE', #147, 0.04999999999999998200, 0.02000000000000000700 ) ;
#744 = FILL_AREA_STYLE_COLOUR ( '', #651 ) ;
#745 = FILL_AREA_STYLE_COLOUR ( '', #156 ) ;
#746 = PRESENTATION_LAYER_ASSIGNMENT (  '', '', ( #130 ) ) ;
#747 = FILL_AREA_STYLE_COLOUR ( '', #307 ) ;
#748 = MECHANICAL_DESIGN_GEOMETRIC_PRESENTATION_REPRESENTATION (  '', ( #740 ), #566 ) ;
#749 = COLOUR_RGB ( '',1.000000000000000000, 0.8039215686274510100, 0.4941176470588235500 ) ;
#750 = AXIS2_PLACEMENT_3D ( 'NONE', #68, #600, #220 ) ;
#751 =( NAMED_UNIT ( * ) PLANE_ANGLE_UNIT ( ) SI_UNIT ( $, .RADIAN. ) );
#752 = UNCERTAINTY_MEASURE_WITH_UNIT (LENGTH_MEASURE( 1.000000000000000100E-005 ), #185, 'distance_accuracy_value', 'NONE');
#753 =( NAMED_UNIT ( * ) SI_UNIT ( $, .STERADIAN. ) SOLID_ANGLE_UNIT ( ) );
#754 = AXIS2_PLACEMENT_3D ( 'NONE', #51, #491, #240 ) ;
#755 =( NAMED_UNIT ( * ) SI_UNIT ( $, .STERADIAN. ) SOLID_ANGLE_UNIT ( ) );
#756 = FILL_AREA_STYLE_COLOUR ( '', #609 ) ;
#757 = CARTESIAN_POINT ( 'NONE',  ( 0.2499999999999999700, 0.1910000000000000300, 0.0000000000000000000 ) ) ;
#758 = PRODUCT_DEFINITION ( 'UNKNOWN', '', #122, #675 ) ;
#759 = PRESENTATION_STYLE_ASSIGNMENT (( #562 ) ) ;
#760 = CONICAL_SURFACE ( 'NONE', #53, 0.02000000000000000700, 0.5235987755982970400 ) ;
#761 = CARTESIAN_POINT ( 'NONE',  ( 0.0000000000000000000, 0.0000000000000000000, 0.0000000000000000000 ) ) ;
#762 = VERTEX_POINT ( 'NONE', #201 ) ;
#763 = ORIENTED_EDGE ( 'NONE', *, *, #577, .T. ) ;
#764 = PRESENTATION_LAYER_ASSIGNMENT (  '', '', ( #142 ) ) ;
#765 =( GEOMETRIC_REPRESENTATION_CONTEXT ( 3 ) GLOBAL_UNCERTAINTY_ASSIGNED_CONTEXT ( ( #389 ) ) GLOBAL_UNIT_ASSIGNED_CONTEXT ( ( #129, #399, #433 ) ) REPRESENTATION_CONTEXT ( 'NONE', 'WORKASPACE' ) );
#766 = STYLED_ITEM ( 'NONE', ( #494 ), #12 ) ;
#767 = FACE_OUTER_BOUND ( 'NONE', #571, .T. ) ;
#768 = SURFACE_SIDE_STYLE ('',( #770 ) ) ;
#769 =( GEOMETRIC_REPRESENTATION_CONTEXT ( 3 ) GLOBAL_UNCERTAINTY_ASSIGNED_CONTEXT ( ( #155 ) ) GLOBAL_UNIT_ASSIGNED_CONTEXT ( ( #103, #537, #656 ) ) REPRESENTATION_CONTEXT ( 'NONE', 'WORKASPACE' ) );
#770 = SURFACE_STYLE_FILL_AREA ( #691 ) ;
#771 =( LENGTH_UNIT ( ) NAMED_UNIT ( * ) SI_UNIT ( $, .METRE. ) );
#772 = ORIENTED_EDGE ( 'NONE', *, *, #190, .T. ) ;
#773 = SURFACE_STYLE_FILL_AREA ( #133 ) ;
#774 = AXIS2_PLACEMENT_3D ( 'NONE', #588, #175, #338 ) ;
#775 = DIMENSIONAL_EXPONENTS ( 1.000000000000000000, 0.0000000000000000000, 0.0000000000000000000, 0.0000000000000000000, 0.0000000000000000000, 0.0000000000000000000, 0.0000000000000000000 ) ;
#776 = PRESENTATION_STYLE_ASSIGNMENT (( #556 ) ) ;
#777 = ORIENTED_EDGE ( 'NONE', *, *, #721, .F. ) ;
#778 = COLOUR_RGB ( '',1.000000000000000000, 0.8039215686274510100, 0.4941176470588235500 ) ;
#779 = FILL_AREA_STYLE_COLOUR ( '', #778 ) ;
#780 = FACE_OUTER_BOUND ( 'NONE', #563, .T. ) ;
#781 = PRESENTATION_LAYER_ASSIGNMENT (  '', '', ( #425 ) ) ;
#782 = UNCERTAINTY_MEASURE_WITH_UNIT (LENGTH_MEASURE( 1.000000000000000100E-005 ), #229, 'distance_accuracy_value', 'NONE');
#783 = EDGE_CURVE ( 'NONE', #725, #511, #5, .T. ) ;
ENDSEC;
END-ISO-10303-21;
